<svg width="183" height="108" viewBox="0 0 183 108" fill="none" xmlns="http://www.w3.org/2000/svg">
<rect width="183" height="107.939" fill="#00280E"/>
<g clip-path="url(#clip0_376_1651)">
<path fill-rule="evenodd" clip-rule="evenodd" d="M24 61.0394H159V83.9354H24V61.0394ZM32.317 43.2793C32.8654 42.2091 35.8826 36.8102 41.7362 35.1151C41.7983 35.0971 41.8562 35.0995 41.9169 35.123C42.6461 35.4026 47.6192 37.4678 50.999 42.9711C51.0608 43.0718 51.0712 43.1909 51.0274 43.3028C50.6048 44.3854 48.1004 50.1408 41.9787 51.9797C41.9331 51.9933 41.8921 51.9957 41.8454 51.9869C41.2223 51.8714 36.5359 50.7829 32.3267 43.6394C32.2613 43.5283 32.2573 43.3949 32.3166 43.2793H32.317Z" fill="#FEF200"/>
<path fill-rule="evenodd" clip-rule="evenodd" d="M144.647 39.6425C147.03 39.6425 149.413 39.6441 151.795 39.6425C150.568 33.3992 147.033 29.754 141.158 29.5027C131.804 29.233 126.853 37.7199 128.429 47.4228C129.781 54.8049 134.322 59.0846 141.231 58.4198C143.847 58.1681 145.528 56.7756 147.322 54.7734C147.322 55.7365 147.322 56.7 147.322 57.663C148.879 57.6634 150.435 57.663 151.992 57.663C151.992 52.7405 151.992 47.818 151.992 42.8958H147.322H141.924V48.6046H145.439C144.497 51.2385 143.236 52.1315 140.634 51.8551C137.005 51.4695 135.821 48.3529 135.523 44.763C135.264 41.1118 136.57 36.2921 140.54 36.1805C142.818 36.1168 143.733 37.6025 144.648 39.6417L144.647 39.6425ZM51.3023 47.4424C51.3023 47.4424 51.7806 54.0385 47.2103 57.8251H24V46.2415C24 46.2415 29.1953 55.3677 38.3887 55.2474C47.5822 55.1271 51.3023 47.442 51.3023 47.442V47.4424ZM24 29.2629H33.2668C23.4275 46.3355 38.217 52.7202 38.217 52.7202C26.1166 51.2704 24.4664 40.9824 24 40.4993V29.2629ZM36.4227 29.2629H59.3189V40.598C59.3189 40.598 54.3849 31.352 44.9787 31.8921C35.5724 32.4326 31.7995 39.8174 31.7995 39.8174C31.7995 39.8174 31.9055 32.3374 36.4227 29.2629ZM59.3189 46.0017V57.8255H50.0801C50.0801 57.8255 53.7998 51.5253 53.5875 46.0619C53.3751 40.598 48.3264 35.1947 44.6064 34.4141C44.6064 34.4141 54.8467 33.6338 59.3185 46.0021L59.3189 46.0017ZM44.8597 27.9593V24.9036H46.7539V25.4198H45.4178V26.1455H46.5728V26.6616H45.4178V27.9589H44.8594L44.8597 27.9593ZM49.3948 27.9593H48.7936L48.5557 27.2639H47.45L47.2211 27.9593H46.6306L47.7012 24.9036H48.2909L49.3955 27.9593H49.3948ZM48.3742 26.7473L47.9912 25.6161L47.6189 26.7473H48.3742ZM49.315 28.0107L50.0003 24.8526H50.3971L49.7078 28.0107H49.315ZM52.3491 26.8329L52.8881 27.0165C52.8055 27.3531 52.6675 27.6028 52.4749 27.7661C52.2823 27.929 52.0386 28.0111 51.7429 28.0111C51.3763 28.0111 51.0755 27.8725 50.8394 27.5949C50.6041 27.3172 50.4858 26.9385 50.4858 26.4569C50.4858 25.9483 50.6044 25.5528 50.8412 25.2712C51.0781 24.9896 51.39 24.8486 51.7763 24.8486C52.1137 24.8486 52.3879 24.9597 52.5985 25.1808C52.7243 25.3118 52.8181 25.4994 52.881 25.7448L52.3304 25.8901C52.2977 25.732 52.2298 25.607 52.1263 25.5154C52.0224 25.4237 51.8967 25.3779 51.749 25.3779C51.5441 25.3779 51.3781 25.4592 51.2509 25.6221C51.1233 25.7842 51.0597 26.0475 51.0597 26.4115C51.0597 26.7971 51.1226 27.0723 51.2477 27.236C51.3734 27.4005 51.5366 27.4821 51.7375 27.4821C51.8855 27.4821 52.0135 27.4304 52.1198 27.3256C52.2262 27.2209 52.3035 27.0576 52.3495 26.8333L52.3491 26.8329ZM53.2784 27.9593V24.9036H55.3192V25.4198H53.8369V26.0985H55.2154V26.6146H53.8369V27.4427H55.3731V27.9589H53.2784V27.9593ZM55.6121 26.9691L56.1551 26.9094C56.1878 27.1105 56.2532 27.2579 56.3527 27.3527C56.4523 27.4475 56.5863 27.4941 56.7552 27.4941C56.9334 27.4941 57.0682 27.4523 57.1588 27.3682C57.2493 27.2842 57.295 27.1862 57.295 27.0739C57.295 27.0014 57.2759 26.9401 57.2378 26.8891C57.2001 26.8385 57.1333 26.7947 57.0384 26.7576C56.9737 26.7321 56.826 26.6879 56.5949 26.6238C56.2977 26.5414 56.0893 26.4406 55.9693 26.3203C55.8004 26.1518 55.7163 25.9463 55.7163 25.7037C55.7163 25.548 55.7562 25.4014 55.8349 25.2656C55.9143 25.1298 56.0286 25.0266 56.1781 24.9553C56.3276 24.8841 56.5072 24.8486 56.7189 24.8486C57.0635 24.8486 57.3234 24.9334 57.4973 25.1031C57.6719 25.2732 57.7629 25.4994 57.7718 25.783L57.2134 25.8045C57.1897 25.6468 57.139 25.5337 57.0614 25.4644C56.9838 25.3955 56.867 25.3604 56.7117 25.3604C56.5515 25.3604 56.4257 25.3975 56.3351 25.4715C56.2765 25.5193 56.2471 25.5827 56.2471 25.6623C56.2471 25.7348 56.2747 25.7969 56.3297 25.8479C56.3998 25.914 56.5698 25.9822 56.84 26.0534C57.1103 26.1239 57.3097 26.1976 57.4387 26.2733C57.5684 26.3494 57.6698 26.4525 57.7427 26.584C57.816 26.7154 57.8523 26.8779 57.8523 27.0707C57.8523 27.2455 57.8085 27.41 57.7208 27.563C57.6328 27.7159 57.5091 27.8295 57.3485 27.9035C57.1879 27.978 56.9877 28.0151 56.7484 28.0151C56.3998 28.0151 56.1324 27.9262 55.9456 27.7474C55.7587 27.5694 55.6477 27.3101 55.6114 26.9691H55.6121ZM58.2386 27.9593V24.9036H59.1313C59.4694 24.9036 59.6897 24.9183 59.7921 24.9494C59.9499 24.9956 60.0822 25.0951 60.1885 25.2489C60.2949 25.4026 60.3484 25.601 60.3484 25.8443C60.3484 26.0323 60.3175 26.1893 60.2568 26.3175C60.1954 26.4454 60.1177 26.5457 60.0232 26.619C59.9291 26.6915 59.8328 26.7397 59.735 26.7632C59.6024 26.7923 59.4102 26.8074 59.1586 26.8074H58.7967V27.9597H58.2383L58.2386 27.9593ZM58.7971 25.4202V26.2908H59.1007C59.3196 26.2908 59.4651 26.2745 59.5388 26.2426C59.6125 26.2108 59.6703 26.161 59.712 26.0917C59.7537 26.0232 59.7749 25.9443 59.7749 25.8535C59.7749 25.742 59.7454 25.65 59.6869 25.5775C59.6279 25.505 59.5539 25.4596 59.4633 25.4409C59.3972 25.4273 59.2643 25.4202 59.0641 25.4202H58.7964H58.7971ZM43.377 27.9593H42.7758L42.5375 27.2639H41.4318L41.2025 27.9593H40.6121L41.6826 24.9036H42.2723L43.377 27.9593ZM42.3564 26.7473L41.9733 25.6161L41.601 26.7473H42.3564ZM42.2716 24.6264H41.9403L41.4203 24.0034H42.0096L42.2716 24.6264ZM24.1984 27.9593V24.9036H26.0925V25.4198H24.7565V26.1455H25.9114V26.6616H24.7565V27.9589H24.198L24.1984 27.9593ZM26.5989 27.9593V24.9036H27.1573V27.9593H26.5989ZM27.7711 27.9593V24.9295H28.3296V27.4431H29.7117V27.9593H27.7711ZM30.1562 27.9593V24.9036H30.7146V27.9593H30.1562ZM33.7965 27.9593H33.1953L32.957 27.2639H31.8513L31.622 27.9593H31.0316L32.1021 24.9036H32.6918L33.7961 27.9593H33.7965ZM32.7763 26.7473L32.3932 25.6161L32.0209 26.7473H32.7763ZM34.1616 24.9036H35.1768C35.4061 24.9036 35.5803 24.9227 35.7004 24.9621C35.8614 25.0147 36.0001 25.1087 36.1147 25.2437C36.2301 25.3783 36.3174 25.5432 36.3778 25.7388C36.4374 25.9336 36.4676 26.1749 36.4676 26.4609C36.4676 26.7126 36.4396 26.9289 36.3828 27.1109C36.3142 27.3336 36.216 27.5136 36.0881 27.6506C35.9918 27.755 35.8617 27.8362 35.6979 27.8948C35.5753 27.9382 35.4118 27.9593 35.2062 27.9593H34.1609V24.9036H34.1616ZM34.72 25.4198V27.4427H35.134C35.2885 27.4427 35.4003 27.4327 35.4689 27.4136C35.5595 27.3889 35.6339 27.3459 35.6928 27.2862C35.7525 27.2264 35.8006 27.1281 35.8376 26.9918C35.8757 26.8552 35.8941 26.668 35.8941 26.4318C35.8941 26.1956 35.8754 26.0152 35.8376 25.8886C35.8006 25.7619 35.7478 25.6639 35.6802 25.5926C35.613 25.5221 35.5275 25.4739 35.4237 25.4488C35.3468 25.4297 35.1947 25.4198 34.9687 25.4198H34.7197H34.72ZM39.4938 27.9589H38.8926L38.6547 27.2635H37.5489L37.3196 27.9589H36.7292L37.7997 24.9032H38.3895L39.4938 27.9589ZM38.4732 26.7469L38.0901 25.6157L37.7178 26.7469H38.4732ZM143.561 81.2928V81.6086C144.174 81.6281 144.64 81.9137 144.572 82.6701C144.534 83.0138 144.33 83.24 144.057 83.3854C143.929 83.4535 143.821 83.4651 143.681 83.4679C143.347 83.4687 143.034 83.4762 142.699 83.4603C142.636 83.4571 142.492 83.4707 142.442 83.4412C142.34 83.3806 142.358 83.2289 142.349 83.1146C142.343 83.0266 142.314 82.8505 142.416 82.8262C142.481 82.8107 142.673 82.8613 142.76 82.8712C142.814 82.8772 142.864 82.88 142.918 82.8796C143 82.8748 143.085 82.8585 143.167 82.8501C143.369 82.8326 143.559 82.8003 143.565 82.5247C143.564 82.3877 143.454 82.2945 143.335 82.2957C143.233 82.3032 143.101 82.2953 142.995 82.2957C142.992 81.9615 142.993 81.6273 142.994 81.2932H142.972C142.421 81.2231 141.933 81.0207 141.511 80.6878C141.089 80.3548 140.76 79.9171 140.528 79.377C140.295 78.8369 140.179 78.2331 140.179 77.5663C140.179 76.8362 140.317 76.185 140.592 75.6135C140.867 75.0419 141.252 74.5954 141.745 74.2764C142.238 73.9573 142.797 73.7972 143.422 73.7972C144.188 73.7972 144.843 74.0286 145.388 74.4919C145.933 74.9551 146.298 75.5868 146.481 76.387H144.754C144.626 76.0783 144.443 75.8425 144.208 75.6816C143.972 75.5203 143.704 75.4394 143.404 75.4394C142.92 75.4394 142.528 75.6326 142.228 76.0185C141.928 76.4045 141.777 76.9203 141.777 77.5663C141.777 78.2119 141.928 78.7277 142.228 79.1141C142.528 79.5 142.92 79.6932 143.404 79.6932C143.704 79.6932 143.972 79.612 144.208 79.451C144.443 79.2901 144.626 79.0543 144.754 78.7457H146.481C146.316 79.4546 146.008 80.0322 145.558 80.4775C145.108 80.9228 144.561 81.1952 143.918 81.2936H143.561L143.561 81.2928ZM135.625 81.2912H133.742V73.9004H136.762C137.344 73.9004 137.84 74.002 138.25 74.2059C138.661 74.4094 138.968 74.6882 139.171 75.0427C139.374 75.3972 139.476 75.7919 139.476 76.2268C139.471 76.7391 139.33 77.0836 139.117 77.5261C139.014 77.726 138.895 77.9212 138.716 78.0467C138.572 78.1578 138.703 78.1896 138.818 78.2697C139.261 78.7477 139.422 79.3774 139.419 80.0477C139.418 80.3532 139.426 80.6607 139.441 80.9654C139.444 81.0391 139.448 81.1127 139.451 81.1868C139.457 81.3497 139.389 81.29 139.248 81.288C138.889 81.2832 138.528 81.292 138.169 81.2916C137.968 81.2916 137.85 81.2912 137.649 81.294C137.66 80.9944 137.667 80.6786 137.667 80.3771C137.665 79.8649 137.597 79.2535 137.286 78.8456C137.018 78.4924 136.284 78.576 135.899 78.5796L135.863 78.58C135.797 78.5804 135.73 78.58 135.664 78.5784L135.625 78.5776C135.625 79.4821 135.625 80.3862 135.625 81.2904V81.2912ZM135.625 77.2274H136.657C136.986 77.2274 137.233 77.1465 137.398 76.9852C137.563 76.8239 137.645 76.5957 137.645 76.3009C137.645 76.0201 137.563 75.7991 137.398 75.6378C137.233 75.4764 136.986 75.3956 136.657 75.3956H135.625V77.2274ZM111.223 75.3319V76.8271H114.532V78.2167H111.223V79.8382H114.796V81.2804H109.718V73.89H114.796V75.3323H111.223V75.3319ZM31.6903 75.3319V76.8271H34.9993V78.2167H31.6903V79.8382H35.2634V81.2804H30.1856V73.89H35.2634V75.3323H31.6903V75.3319ZM88.9236 71.0745C88.3432 71.0745 87.8114 70.9132 87.328 70.5901C86.8447 70.2671 86.4605 69.8163 86.1763 69.2375C85.8924 68.6588 85.7501 68.0076 85.7501 67.2847C85.7501 66.5618 85.8924 65.9122 86.1763 65.337C86.4602 64.7619 86.8443 64.3122 87.328 63.9896C87.8114 63.6666 88.3432 63.5053 88.9236 63.5053C89.5036 63.5053 90.0358 63.667 90.5191 63.9896C91.0025 64.3122 91.3838 64.7619 91.6619 65.337C91.94 65.9122 92.0795 66.5618 92.0795 67.2847C92.0795 68.0076 91.939 68.6584 91.6576 69.2375C91.3762 69.8167 90.9949 70.2675 90.5148 70.5901C90.0347 70.9128 89.5039 71.0745 88.9239 71.0745H88.9236ZM88.9236 69.4323C89.4159 69.4323 89.8101 69.2355 90.1059 68.8428C90.4016 68.4501 90.5497 67.9303 90.5497 67.2847C90.5497 66.6319 90.4016 66.1109 90.1059 65.7214C89.8098 65.3318 89.4159 65.1371 88.9236 65.1371C88.4255 65.1371 88.0284 65.3298 87.7323 65.7162C87.4362 66.1021 87.2885 66.6251 87.2885 67.2851C87.2885 67.9379 87.4366 68.4589 87.7323 68.8484C88.0284 69.2379 88.4252 69.4327 88.9236 69.4327V69.4323ZM39.2415 71.0745C38.7538 71.0745 38.3169 70.9865 37.9305 70.8112C37.5446 70.636 37.2352 70.3759 37.0045 70.0321C36.7734 69.6884 36.6516 69.2742 36.6387 68.7898H38.3675C38.3927 69.0635 38.4782 69.2722 38.6241 69.4164C38.7697 69.5602 38.9598 69.6322 39.1941 69.6322C39.4348 69.6322 39.6249 69.5705 39.764 69.4478C39.9031 69.3252 39.9731 69.1547 39.9731 68.9372C39.9731 68.7548 39.9174 68.6035 39.8071 68.4848C39.6964 68.3657 39.5599 68.2669 39.3985 68.19C39.2372 68.1131 39.0068 68.0267 38.7096 67.9267C38.2788 67.7818 37.9273 67.6316 37.6553 67.4846C37.3832 67.3377 37.1482 67.1194 36.9524 66.8318C36.7565 66.5447 36.6581 66.1687 36.6581 65.7054C36.6581 65.0176 36.883 64.4787 37.3326 64.0896C37.7818 63.7004 38.3679 63.5053 39.0898 63.5053C39.8244 63.5053 40.417 63.7004 40.8662 64.0896C41.3154 64.4787 41.5565 65.0212 41.5881 65.7162H39.8308C39.8183 65.4776 39.7388 65.29 39.5933 65.153C39.4478 65.016 39.2609 64.9479 39.0331 64.9479C38.8369 64.9479 38.678 65.006 38.558 65.1215C38.438 65.237 38.3776 65.4039 38.3776 65.6218C38.3776 65.8604 38.4793 66.0468 38.6816 66.1798C38.8839 66.3128 39.202 66.4542 39.6314 66.6116C40.0626 66.7697 40.4119 66.9274 40.6811 67.0748C40.9502 67.2222 41.1831 67.4364 41.3793 67.7168C41.5755 67.9976 41.6736 68.3589 41.6736 68.801C41.6736 69.2224 41.577 69.6048 41.384 69.9485C41.191 70.2926 40.9107 70.5663 40.5434 70.7698C40.1762 70.9733 39.7424 71.0749 39.2422 71.0749L39.2415 71.0745ZM75.342 71.0219V71.3425C75.9554 71.362 76.4215 71.6476 76.3532 72.404C76.3151 72.7481 76.1114 72.9744 75.8379 73.1193C75.7096 73.1874 75.6021 73.199 75.4616 73.2022C75.1282 73.203 74.8148 73.2105 74.4799 73.1946C74.417 73.1914 74.2732 73.205 74.2229 73.1755C74.1216 73.1149 74.1388 72.9632 74.1302 72.8489C74.1237 72.7609 74.095 72.5848 74.1967 72.5605C74.2625 72.545 74.4544 72.5956 74.5413 72.6055C74.5959 72.6115 74.6448 72.6139 74.6994 72.6139C74.7807 72.6091 74.8662 72.5928 74.9481 72.584C75.1497 72.5665 75.3402 72.5342 75.3463 72.2586C75.3448 72.1216 75.2352 72.0284 75.1163 72.0296C75.0146 72.0372 74.882 72.0292 74.7763 72.0296C74.7724 71.6835 74.7745 71.3374 74.7753 70.9912C74.3038 70.9016 73.8823 70.71 73.5107 70.4169C73.0884 70.0839 72.76 69.6462 72.5275 69.1061C72.295 68.566 72.1785 67.9622 72.1785 67.2954C72.1785 66.5654 72.3165 65.9142 72.5922 65.3426C72.8674 64.771 73.2523 64.3246 73.745 64.0055C74.2377 63.6865 74.7968 63.5264 75.4217 63.5264C76.1875 63.5264 76.8427 63.7582 77.3878 64.2214C77.9329 64.6846 78.2973 65.3163 78.481 66.1165H76.7539C76.6252 65.8078 76.4427 65.572 76.2073 65.4111C75.9719 65.2498 75.7035 65.1689 75.4034 65.1689C74.9194 65.1689 74.5277 65.3621 74.2276 65.7481C73.9275 66.134 73.7773 66.6498 73.7773 67.2958C73.7773 67.9415 73.9275 68.4573 74.2276 68.8436C74.5277 69.2296 74.9197 69.4227 75.4034 69.4227C75.7035 69.4227 75.9719 69.3415 76.2073 69.1806C76.4427 69.0197 76.6252 68.7839 76.7539 68.4752H78.481C78.3157 69.1842 78.0073 69.7617 77.5574 70.207C77.1075 70.6523 76.5606 70.9247 75.9177 71.0231H75.342V71.0219ZM151.333 79.9903H148.845L148.446 81.2956H146.746L149.158 73.9052H151.039L153.452 81.2956H151.733L151.334 79.9903H151.333ZM150.915 78.6007L150.089 75.8951L149.272 78.6007H150.915ZM131.177 79.9903H128.689L128.29 81.2956H126.59L129.003 73.9052H130.883L133.296 81.2956H131.577L131.178 79.9903H131.177ZM130.759 78.6007L129.933 75.8951L129.116 78.6007H130.759ZM124.519 76.2424C124.403 75.9966 124.237 75.809 124.021 75.6792C123.804 75.5493 123.55 75.4844 123.258 75.4844C122.752 75.4844 122.347 75.6756 122.042 76.0584C121.737 76.4407 121.585 76.9513 121.585 77.5902C121.585 78.2709 121.745 78.8026 122.065 79.1854C122.385 79.5677 122.825 79.7589 123.385 79.7589C123.769 79.7589 124.094 79.6466 124.359 79.422C124.624 79.1973 124.817 78.8747 124.939 78.4537H122.956V77.127H126.356V77.5512V78.801V81.2442H124.939V80.8511C124.866 80.9001 124.789 80.9467 124.711 80.9909C124.284 81.2294 123.803 81.3489 123.266 81.3489C122.633 81.3489 122.068 81.1892 121.571 80.8698C121.074 80.5503 120.687 80.1066 120.41 79.5379C120.133 78.9695 119.994 78.3203 119.994 77.5902C119.994 76.8601 120.133 76.2093 120.41 75.6374C120.687 75.0654 121.073 74.6197 121.566 74.3003C122.06 73.9808 122.624 73.8211 123.257 73.8211C124.025 73.8211 124.673 74.035 125.2 74.4632C125.727 74.8914 126.076 75.4844 126.246 76.2424H124.519ZM105.171 73.9052C105.874 73.9052 106.488 74.0597 107.014 74.3684C107.539 74.6771 107.946 75.1104 108.234 75.6684C108.523 76.2264 108.667 76.8705 108.667 77.6002C108.667 78.3231 108.523 78.9651 108.234 79.5267C107.946 80.0883 107.538 80.5233 107.009 80.8323C106.48 81.141 105.868 81.2956 105.171 81.2956H102.673V73.9052H105.171ZM105.066 79.7374C105.68 79.7374 106.159 79.5514 106.501 79.1794C106.843 78.8074 107.013 78.2813 107.013 77.6002C107.013 76.9195 106.842 76.3893 106.501 76.0106C106.159 75.6318 105.68 75.4422 105.066 75.4422H104.297V79.7374H105.066ZM42.3837 73.9048V81.2952H40.7594V73.9048H42.3837ZM49.3855 81.2952H47.8593L45.3071 76.7367V81.2952H43.7809V73.9048H45.3071L47.8593 78.4844V73.9048H49.3855V81.2952ZM53.019 73.9048C53.7219 73.9048 54.336 74.0593 54.8617 74.368C55.3875 74.6767 55.7943 75.11 56.0825 75.668C56.3707 76.226 56.5148 76.8701 56.5148 77.5998C56.5148 78.3227 56.3707 78.9647 56.0825 79.5263C55.7943 80.0879 55.386 80.5229 54.8571 80.8315C54.3285 81.1402 53.7157 81.2948 53.019 81.2948H50.5207V73.9044H53.019V73.9048ZM52.9144 79.737C53.5285 79.737 54.0068 79.551 54.3486 79.179C54.6907 78.807 54.8614 78.2809 54.8614 77.5998C54.8614 76.9191 54.6903 76.3889 54.3486 76.0102C54.0068 75.6314 53.5285 75.4418 52.9144 75.4418H52.145V79.737H52.9144ZM59.2416 73.9048V78.3263C59.2416 78.7684 59.3397 79.1089 59.5359 79.3475C59.7321 79.5861 60.0203 79.7056 60.4002 79.7056C60.78 79.7056 61.0715 79.5861 61.2741 79.3475C61.4768 79.1089 61.5782 78.7684 61.5782 78.3263V73.9048H63.2025V78.3159C63.2025 78.9755 63.0756 79.5335 62.8223 79.9899C62.5689 80.446 62.2286 80.7901 61.8013 81.0215C61.3741 81.2533 60.8975 81.3688 60.3718 81.3688C59.8461 81.3688 59.376 81.2549 58.9613 81.0267C58.5466 80.7989 58.2189 80.4548 57.9781 79.9951C57.7373 79.5355 57.6173 78.9755 57.6173 78.3159V73.9048H59.2416ZM67.0523 81.3688C66.5646 81.3688 66.1277 81.2812 65.7417 81.1056C65.3554 80.9303 65.0467 80.6702 64.8156 80.3265C64.5846 79.9824 64.4627 79.5685 64.4498 79.0842H66.1787C66.2042 79.3578 66.2894 79.5666 66.4353 79.7107C66.5808 79.8545 66.7709 79.9266 67.0052 79.9266C67.2456 79.9266 67.4357 79.8653 67.5751 79.7422C67.7146 79.6195 67.7843 79.4491 67.7843 79.2316C67.7843 79.0492 67.729 78.8982 67.6179 78.7787C67.5072 78.6592 67.371 78.5613 67.2093 78.484C67.0476 78.4067 66.8183 78.3191 66.5208 78.2207C66.0903 78.0733 65.7388 77.926 65.4664 77.7786C65.194 77.6312 64.9597 77.4138 64.7635 77.1258C64.5673 76.8382 64.4692 76.4626 64.4692 75.9994C64.4692 75.3116 64.6942 74.7731 65.1437 74.3835C65.5933 73.994 66.179 73.7992 66.901 73.7992C67.6355 73.7992 68.2277 73.994 68.6773 74.3835C69.1269 74.7731 69.3676 75.3151 69.3993 76.0102H67.642C67.6294 75.7716 67.55 75.584 67.4044 75.447C67.2589 75.31 67.072 75.2419 66.8442 75.2419C66.648 75.2419 66.4895 75.2996 66.3691 75.4155C66.2488 75.5314 66.1887 75.6979 66.1887 75.9158C66.1887 76.1544 66.2901 76.3404 66.4928 76.4738C66.6954 76.6072 67.012 76.751 67.4425 76.9055C67.8731 77.0668 68.2231 77.2214 68.4922 77.3688C68.7614 77.5161 68.9943 77.73 69.1905 78.0108C69.3867 78.2916 69.4848 78.6529 69.4848 79.095C69.4848 79.5164 69.3881 79.8987 69.1951 80.2425C69.0022 80.5862 68.7219 80.8602 68.3546 81.0638C67.9873 81.2673 67.5536 81.3688 67.0534 81.3688H67.0523ZM75.4976 73.9048V75.347H73.731V81.2952H72.1067V75.347H70.3401V73.9048H75.4979H75.4976ZM78.4001 81.2904H76.5174V73.8996H79.5368C80.1189 73.8996 80.6148 74.0012 81.0252 74.2051C81.4356 74.4086 81.7425 74.6874 81.9459 75.0419C82.1493 75.3964 82.251 75.7911 82.251 76.226C82.246 76.7383 82.1055 77.0828 81.892 77.5253C81.7885 77.7252 81.6696 77.9204 81.491 78.0459C81.3469 78.157 81.478 78.1888 81.5927 78.2689C82.0361 78.7469 82.1967 79.3766 82.1942 80.0469C82.1931 80.3524 82.2014 80.6599 82.2158 80.9646C82.2194 81.0383 82.223 81.1119 82.2259 81.186C82.2316 81.3489 82.1637 81.2892 82.0228 81.2872C81.6638 81.2824 81.3034 81.2912 80.9444 81.2908C80.7428 81.2908 80.6256 81.2904 80.424 81.2932C80.4352 80.9936 80.4424 80.6778 80.4416 80.3763C80.4402 79.8641 80.3719 79.2527 80.0614 78.8448C79.793 78.4916 79.0585 78.5752 78.6743 78.5788L78.638 78.5792C78.5719 78.5796 78.5054 78.5792 78.4393 78.5776L78.4001 78.5768C78.4001 79.4813 78.4001 80.3855 78.4001 81.2896V81.2904ZM78.4001 77.2266H79.4318C79.7614 77.2266 80.0086 77.1457 80.1736 76.9844C80.3385 76.8231 80.4208 76.5949 80.4208 76.3001C80.4208 76.0193 80.3381 75.7983 80.1736 75.637C80.009 75.4757 79.7614 75.3948 79.4318 75.3948H78.4001V77.2266ZM84.9599 73.9048V81.2952H83.3356V73.9048H84.9599ZM90.0408 79.9899H87.5523L87.1534 81.2952H85.4533L87.866 73.9048H89.7469L92.1596 81.2952H90.4404L90.0415 79.9899H90.0408ZM89.6229 78.6003L88.7964 75.8947L87.9795 78.6003H89.6229ZM94.766 79.9059H97.6481V81.2956H92.9542V73.9052H94.766V79.9059ZM95.773 67.295C95.773 66.565 95.9084 65.9142 96.1794 65.3422C96.4504 64.7702 96.828 64.3246 97.3125 64.0051C97.7972 63.6857 98.3463 63.526 98.9605 63.526C99.713 63.526 100.357 63.7578 100.893 64.221C101.429 64.6842 101.787 65.3159 101.967 66.1161H100.27C100.143 65.8074 99.9642 65.572 99.7324 65.4107C99.5006 65.2494 99.2375 65.1685 98.9425 65.1685C98.4667 65.1685 98.0815 65.3617 97.7868 65.7477C97.4918 66.1336 97.3444 66.6494 97.3444 67.2954C97.3444 67.9411 97.4918 68.4569 97.7868 68.8432C98.0818 69.2292 98.4671 69.4223 98.9425 69.4223C99.2375 69.4223 99.501 69.3415 99.7324 69.1802C99.9642 69.0189 100.143 68.7835 100.27 68.4748H101.967C101.786 69.275 101.429 69.9051 100.893 70.3647C100.357 70.8243 99.713 71.0542 98.9605 71.0542C98.3463 71.0542 97.7972 70.8944 97.3125 70.575C96.828 70.2556 96.45 69.8119 96.1794 69.2431C95.9084 68.6747 95.773 68.0251 95.773 67.2954V67.295ZM105.993 71.0745C105.408 71.0745 104.873 70.9132 104.386 70.5901C103.899 70.2671 103.512 69.8163 103.226 69.2375C102.939 68.6584 102.796 68.0076 102.796 67.2847C102.796 66.5618 102.939 65.9126 103.226 65.337C103.512 64.7615 103.899 64.3122 104.386 63.9896C104.873 63.6666 105.408 63.5053 105.993 63.5053C106.577 63.5053 107.113 63.6666 107.6 63.9896C108.087 64.3126 108.471 64.7619 108.751 65.337C109.031 65.9126 109.171 66.5618 109.171 67.2847C109.171 68.0076 109.03 68.6584 108.746 69.2375C108.463 69.8167 108.079 70.2675 107.595 70.5901C107.111 70.9132 106.577 71.0745 105.992 71.0745H105.993ZM105.993 69.4323C106.489 69.4323 106.885 69.2359 107.184 68.8428C107.482 68.4497 107.631 67.9303 107.631 67.2847C107.631 66.6319 107.482 66.1109 107.184 65.7214C106.885 65.3318 106.489 65.1371 105.993 65.1371C105.491 65.1371 105.091 65.3298 104.793 65.7162C104.495 66.1021 104.346 66.6251 104.346 67.2851C104.346 67.9379 104.495 68.4589 104.793 68.8484C105.091 69.2379 105.491 69.4327 105.993 69.4327V69.4323ZM117.33 63.6104V71.0008H115.792V66.5686L114.379 71.0008H113.138L111.717 66.5582V71.0008H110.179V63.6104H111.996L113.768 68.7269L115.522 63.6104H117.33ZM120.123 65.0526V66.5478H123.432V67.9375H120.123V69.559H123.696V71.0012H118.618V63.6108H123.696V65.053H120.123V65.0526ZM126.874 71.0008H124.991V63.6104H128.01C128.592 63.6104 129.089 63.712 129.499 63.9159C129.909 64.1194 130.216 64.3982 130.419 64.7527C130.623 65.1072 130.725 65.5019 130.725 65.9372C130.72 66.4495 130.579 66.794 130.366 67.2365C130.262 67.4364 130.143 67.6316 129.965 67.7571C129.82 67.8682 129.952 67.9001 130.066 67.9801C130.51 68.4581 130.67 69.0878 130.668 69.7581C130.667 70.0636 130.675 70.3711 130.689 70.6758C130.693 70.7495 130.697 70.8232 130.699 70.8972C130.706 71.0601 130.637 71.0004 130.497 70.9984C130.138 70.9936 129.777 71.0024 129.418 71.002C129.217 71.002 129.099 71.0016 128.898 71.0044C128.909 70.7049 128.916 70.389 128.915 70.0871C128.914 69.5749 128.845 68.9635 128.535 68.5556C128.267 68.2024 127.532 68.286 127.148 68.2896L127.112 68.29C127.045 68.2904 126.979 68.29 126.913 68.2884L126.874 68.2876C126.874 69.1917 126.874 70.0963 126.874 71.0004V71.0008ZM126.874 66.937H127.905C128.235 66.937 128.482 66.8561 128.647 66.6948C128.811 66.5335 128.894 66.3053 128.894 66.0105C128.894 65.7297 128.811 65.5087 128.647 65.3474C128.482 65.1861 128.235 65.1052 127.905 65.1052H126.874V66.937ZM131.597 67.295C131.597 66.565 131.728 65.9142 131.991 65.3422C132.253 64.7702 132.619 64.3246 133.089 64.0051C133.558 63.6857 134.091 63.526 134.685 63.526C135.415 63.526 136.039 63.7578 136.558 64.221C137.077 64.6842 137.424 65.3159 137.599 66.1161H135.954C135.831 65.8074 135.658 65.572 135.433 65.4107C135.209 65.2494 134.954 65.1685 134.668 65.1685C134.207 65.1685 133.834 65.3617 133.548 65.7477C133.262 66.1336 133.119 66.6494 133.119 67.2954C133.119 67.9411 133.262 68.4569 133.548 68.8432C133.833 69.2292 134.207 69.4223 134.668 69.4223C134.954 69.4223 135.209 69.3415 135.433 69.1802C135.658 69.0189 135.831 68.7835 135.954 68.4748H137.599C137.424 69.275 137.077 69.9051 136.558 70.3647C136.038 70.8243 135.415 71.0542 134.685 71.0542C134.09 71.0542 133.558 70.8944 133.089 70.575C132.619 70.2556 132.253 69.8119 131.991 69.2431C131.729 68.6747 131.597 68.0251 131.597 67.2954V67.295ZM140.344 63.6104V71.0008H138.72V63.6104H140.344ZM145.546 69.6956H143.058L142.659 71.0008H140.959L143.371 63.6104H145.252L147.665 71.0008H145.946L145.547 69.6956H145.546ZM145.128 68.3059L144.302 65.6003L143.485 68.3059H145.128ZM149.922 69.6111H152.804V71.0008H148.11V63.6104H149.922V69.6111ZM34.1364 69.6956H31.6479L31.249 71.0008H29.5489L31.9616 63.6104H33.8425L36.2552 71.0008H34.536L34.1372 69.6956H34.1364ZM33.7185 68.3059L32.892 65.6003L32.0752 68.3059H33.7185ZM45.2899 71.0749C44.8022 71.0749 44.3652 70.9869 43.9793 70.8116C43.5933 70.6363 43.2839 70.3763 43.0532 70.0325C42.8221 69.6888 42.7003 69.2746 42.6874 68.7902H44.4163C44.4418 69.0639 44.5269 69.2726 44.6728 69.4168C44.8184 69.5606 45.0085 69.6326 45.2428 69.6326C45.4836 69.6326 45.6737 69.5709 45.8127 69.4482C45.9518 69.3256 46.0219 69.1551 46.0219 68.9376C46.0219 68.7552 45.9662 68.6038 45.8559 68.4852C45.7452 68.3661 45.6086 68.2673 45.4473 68.1904C45.2859 68.1135 45.0556 68.0271 44.7584 67.9271C44.3275 67.7822 43.976 67.632 43.704 67.485C43.432 67.3381 43.197 67.1198 43.0011 66.8322C42.8053 66.5451 42.7068 66.1691 42.7068 65.7058C42.7068 65.018 42.9317 64.4791 43.3813 64.09C43.8305 63.7008 44.4166 63.5056 45.1386 63.5056C45.8731 63.5056 46.4657 63.7008 46.9149 64.09C47.3641 64.4791 47.6052 65.0216 47.6368 65.7166H45.8796C45.867 65.478 45.7876 65.2904 45.642 65.1534C45.4965 65.0164 45.3096 64.9483 45.0818 64.9483C44.8856 64.9483 44.7267 65.0064 44.6067 65.1219C44.4867 65.2374 44.4263 65.4043 44.4263 65.6222C44.4263 65.8608 44.528 66.0472 44.7303 66.1802C44.9327 66.3132 45.2507 66.4546 45.6801 66.612C46.1114 66.7701 46.4607 66.9278 46.7298 67.0752C46.999 67.2226 47.2318 67.4368 47.428 67.7172C47.6243 67.998 47.7224 68.3593 47.7224 68.8014C47.7224 69.2228 47.6257 69.6052 47.4327 69.9489C47.2397 70.293 46.9594 70.5667 46.5922 70.7702C46.2249 70.9737 45.7912 71.0753 45.2909 71.0753L45.2899 71.0749ZM51.7799 71.0749C51.1999 71.0749 50.6677 70.9136 50.1843 70.5905C49.701 70.2675 49.3168 69.8167 49.0329 69.2379C48.7487 68.6592 48.6067 68.008 48.6067 67.2851C48.6067 66.5622 48.749 65.9126 49.0329 65.3374C49.3168 64.7623 49.701 64.3126 50.1843 63.99C50.6677 63.667 51.1999 63.5056 51.7799 63.5056C52.3602 63.5056 52.8921 63.6674 53.3754 63.99C53.8588 64.3126 54.2401 64.7623 54.5182 65.3374C54.7963 65.9126 54.9358 66.5622 54.9358 67.2851C54.9358 68.008 54.7953 68.6588 54.5139 69.2379C54.2325 69.8171 53.8516 70.2679 53.3711 70.5905C52.891 70.9132 52.3602 71.0749 51.7802 71.0749H51.7799ZM51.7799 69.4327C52.2722 69.4327 52.6664 69.2359 52.9622 68.8432C53.2579 68.4505 53.406 67.9307 53.406 67.2851C53.406 66.6323 53.2579 66.1113 52.9622 65.7218C52.6661 65.3322 52.2722 65.1375 51.7799 65.1375C51.2818 65.1375 50.8847 65.3302 50.5886 65.7166C50.2925 66.1025 50.1448 66.6255 50.1448 67.2855C50.1448 67.9383 50.2929 68.4593 50.5886 68.8488C50.8847 69.2383 51.2815 69.4331 51.7799 69.4331V69.4327ZM55.7548 67.2954C55.7548 66.5654 55.8931 65.9142 56.1691 65.3426C56.4451 64.7706 56.8307 64.3246 57.3248 64.0055C57.8186 63.6865 58.3792 63.5264 59.0052 63.5264C59.7724 63.5264 60.4293 63.7582 60.9759 64.2214C61.5221 64.6846 61.8876 65.3163 62.0716 66.1165H60.3405C60.2115 65.8078 60.0286 65.5724 59.7925 65.4111C59.5564 65.2498 59.2876 65.1689 58.9868 65.1689C58.5017 65.1689 58.1089 65.3621 57.8081 65.7481C57.5073 66.134 57.3568 66.6498 57.3568 67.2958C57.3568 67.9415 57.507 68.4573 57.8081 68.8436C58.1089 69.2296 58.5017 69.4227 58.9868 69.4227C59.2876 69.4227 59.5564 69.3419 59.7925 69.1806C60.0286 69.0193 60.2115 68.7839 60.3405 68.4752H62.0716C61.8876 69.2754 61.5221 69.9055 60.9759 70.3651C60.4293 70.8247 59.7727 71.0546 59.0052 71.0546C58.3792 71.0546 57.8189 70.8948 57.3248 70.5754C56.8307 70.256 56.4451 69.8119 56.1691 69.2435C55.8931 68.6751 55.7548 68.0255 55.7548 67.2958V67.2954ZM64.5378 63.6108V71.0012H62.9135V63.6108H64.5378ZM69.6968 69.696H67.2082L66.8094 71.0012H65.1092L67.522 63.6108H69.4028L71.8156 71.0012H70.0964L69.6975 69.696H69.6968ZM69.2789 68.3063L68.4523 65.6007L67.6355 68.3063H69.2789ZM83.2065 69.696H80.718L80.3191 71.0012H78.619L81.0317 63.6108H82.9126L85.3253 71.0012H83.6062L83.2073 69.696H83.2065ZM82.7886 68.3063L81.9621 65.6007L81.1453 68.3063H82.7886ZM80.0718 63.095C80.2239 62.0563 80.6608 61.5369 81.3828 61.5369C81.5222 61.5369 81.644 61.5596 81.7486 61.6054C81.8532 61.6512 81.9815 61.7193 82.1335 61.8109C82.2474 61.881 82.3394 61.932 82.4088 61.9634C82.4785 61.9949 82.5514 62.0108 82.6273 62.0108C82.8616 62.0108 82.9978 61.8527 83.0358 61.5373H83.8717C83.7197 62.576 83.2827 63.0954 82.5608 63.0954C82.4213 63.0954 82.2995 63.0727 82.1949 63.0269C82.0904 62.9811 81.9621 62.913 81.8101 62.8214C81.6962 62.7513 81.6042 62.7003 81.5344 62.6688C81.4647 62.6374 81.3921 62.6214 81.316 62.6214C81.0816 62.6214 80.9422 62.7792 80.898 63.095H80.0715H80.0718ZM88.9326 57.7774L79.5422 30.2698H72.1246L62.7342 57.7774H70.3936L71.5144 53.9063H79.8005L80.8463 57.7774H88.9322H88.9326ZM78.2305 48.0916H73.1988L75.8023 39.1004L78.2309 48.0916H78.2305ZM106.326 40.2726H113.941C112.771 35.8894 111.778 32.5501 107.718 30.6339L107.502 30.5319L107.128 30.3714C106.389 30.0754 105.658 29.9002 104.889 29.7457C104.559 29.6819 104.238 29.6373 103.905 29.5967C103.11 29.5059 102.351 29.5051 101.554 29.5449C96.3343 29.8389 91.6134 33.5287 90.2489 39.2434C89.5323 42.3816 89.6527 45.513 90.2507 48.6671C90.3211 49.0387 90.3995 49.3841 90.4965 49.7481C90.8868 51.1557 91.4276 52.1271 92.2261 53.2921C94.5856 56.6769 98.0973 58.5564 101.946 58.5974C107.112 58.3473 111.171 56.457 113.101 50.7761C113.351 50.0412 113.582 49.2773 113.787 48.5257L113.834 48.327C113.92 47.9438 113.987 47.5718 114.052 47.1839H106.39C106.234 49.9118 104.101 52.3299 101.552 51.8328C98.0567 51.1509 97.4343 48.0904 97.2632 44.6646C97.1277 41.0485 97.9881 36.8075 101.821 36.3128C103.851 36.0507 105.875 37.8641 106.285 40.056L106.325 40.2726H106.326ZM117.246 57.7774H124.628V30.2698H117.246V57.7774Z" fill="#009434"/>
</g>
<defs>
<clipPath id="clip0_376_1651">
<rect width="135" height="59.9387" fill="white" transform="translate(24 24)"/>
</clipPath>
</defs>
</svg>
