<svg width="183" height="110" viewBox="0 0 183 110" fill="none" xmlns="http://www.w3.org/2000/svg">
<g clip-path="url(#clip0_376_1649)">
<path d="M159 84.5604H24V61.6639H159V84.5604ZM142.505 74.0868C141.88 74.0869 141.321 74.2473 140.828 74.5663C140.335 74.8853 139.951 75.3319 139.676 75.9032C139.401 76.4748 139.262 77.1263 139.262 77.8563C139.262 78.523 139.379 79.1268 139.611 79.6669C139.844 80.2067 140.172 80.6445 140.594 80.9774C141.016 81.3103 141.504 81.5128 142.055 81.5829H142.077V81.6503C142.076 81.962 142.075 82.2741 142.078 82.5858C142.184 82.5854 142.316 82.5933 142.418 82.5858C142.537 82.5846 142.647 82.6774 142.648 82.8143C142.642 83.09 142.452 83.122 142.25 83.1395C142.168 83.1479 142.082 83.165 142.001 83.1698C141.947 83.1702 141.898 83.1669 141.844 83.161C141.757 83.1511 141.565 83.1008 141.499 83.1161C141.397 83.1404 141.426 83.3161 141.433 83.4042C141.441 83.5185 141.424 83.6708 141.525 83.7313C141.576 83.7604 141.72 83.7467 141.782 83.7499C142.117 83.7658 142.43 83.7585 142.764 83.7577C142.904 83.7549 143.012 83.7436 143.14 83.6757C143.413 83.5303 143.617 83.3036 143.655 82.9598C143.724 82.2035 143.257 81.9178 142.644 81.8983V81.5829L142.645 81.5839H143.002C143.645 81.4854 144.192 81.2127 144.642 80.7675C145.091 80.3222 145.399 79.744 145.564 79.035H143.838C143.709 79.3437 143.526 79.5802 143.291 79.7411C143.056 79.9019 142.787 79.9832 142.487 79.9833C142.003 79.9833 141.611 79.7901 141.311 79.4042C141.011 79.0179 140.86 78.5019 140.86 77.8563C140.86 77.2104 141.011 76.6944 141.311 76.3085C141.611 75.9225 142.003 75.7294 142.487 75.7294C142.787 75.7294 143.056 75.8103 143.291 75.9716C143.526 76.1325 143.709 76.368 143.838 76.6766H145.564C145.381 75.8767 145.017 75.2453 144.472 74.7821C143.927 74.3189 143.27 74.0868 142.505 74.0868ZM56.7002 74.1942V78.6054C56.7002 79.2649 56.8208 79.8254 57.0615 80.285C57.3022 80.7444 57.6295 81.0885 58.0439 81.3163C58.4586 81.5445 58.9293 81.6591 59.4551 81.6591C59.9808 81.659 60.4575 81.5432 60.8848 81.3114C61.3118 81.0801 61.652 80.736 61.9053 80.2802C62.1586 79.8237 62.2852 79.2649 62.2852 78.6054V74.1942H60.6611V78.6161C60.6611 79.0582 60.5601 79.399 60.3574 79.6376C60.1548 79.8761 59.8632 79.995 59.4834 79.995C59.1037 79.995 58.8153 79.876 58.6191 79.6376C58.4229 79.399 58.3252 79.0582 58.3252 78.6161V74.1942H56.7002ZM65.9844 74.0888C65.2624 74.0888 64.6761 74.2842 64.2266 74.6737C63.7773 75.0632 63.5528 75.6014 63.5527 76.2889C63.5527 76.7522 63.6505 77.1283 63.8467 77.4159C64.0429 77.7038 64.2775 77.9209 64.5498 78.0682C64.8221 78.2156 65.1732 78.3633 65.6035 78.5106C65.9007 78.6089 66.1303 78.6961 66.292 78.7733C66.4537 78.8506 66.5905 78.9488 66.7012 79.0682C66.8122 79.1877 66.8672 79.339 66.8672 79.5214C66.8672 79.7388 66.7976 79.9094 66.6582 80.0321C66.5188 80.1551 66.3283 80.2167 66.0879 80.2167C65.8539 80.2166 65.664 80.1444 65.5186 80.0009C65.3727 79.8567 65.2872 79.6475 65.2617 79.3739H63.5332C63.5461 79.8581 63.6675 80.272 63.8984 80.6161C64.1295 80.9598 64.4389 81.2201 64.8252 81.3954C65.2111 81.5709 65.6482 81.6591 66.1357 81.6591H66.1367C66.6368 81.659 67.0703 81.5569 67.4375 81.3534C67.8048 81.1499 68.0853 80.8758 68.2783 80.5321C68.4712 80.1884 68.5684 79.806 68.5684 79.3847C68.5683 78.9426 68.4696 78.5814 68.2734 78.3007C68.0773 78.0199 67.8443 77.8064 67.5752 77.6591C67.306 77.5117 66.9559 77.3565 66.5254 77.1952C66.0952 77.0407 65.7788 76.8969 65.5762 76.7636C65.3736 76.6302 65.2716 76.4444 65.2715 76.2059C65.2715 75.9881 65.3318 75.8209 65.4521 75.705C65.5725 75.5891 65.7316 75.5321 65.9277 75.5321C66.1554 75.5322 66.3419 75.6003 66.4873 75.7372C66.6327 75.8741 66.712 76.0613 66.7246 76.2997H68.4824C68.4508 75.605 68.21 75.0632 67.7607 74.6737C67.3112 74.2842 66.7188 74.0888 65.9844 74.0888ZM122.341 74.1112C121.707 74.1112 121.143 74.2704 120.649 74.5897C120.156 74.9092 119.77 75.3557 119.493 75.9276C119.216 76.4994 119.077 77.15 119.077 77.8798C119.077 78.6098 119.216 79.2596 119.493 79.828C119.77 80.3967 120.158 80.8406 120.654 81.16C121.151 81.4793 121.716 81.6386 122.35 81.6386C122.886 81.6385 123.367 81.5197 123.794 81.2811C123.873 81.2369 123.949 81.1895 124.022 81.1405V81.5341H125.439V77.4169H122.039V78.743H124.022C123.901 79.1639 123.707 79.4872 123.442 79.7118C123.177 79.9364 122.852 80.0487 122.469 80.0487C121.908 80.0487 121.467 79.8578 121.147 79.4755C120.828 79.0927 120.668 78.5604 120.668 77.8798C120.668 77.2412 120.82 76.7308 121.125 76.3485C121.43 75.9658 121.835 75.7743 122.341 75.7743C122.633 75.7743 122.887 75.839 123.104 75.9686C123.32 76.0984 123.486 76.2865 123.602 76.5321H125.329C125.159 75.7743 124.81 75.181 124.283 74.7528C123.756 74.3247 123.108 74.1113 122.341 74.1112ZM75.6006 74.1893V81.58H77.4834V78.8671H77.5225C77.5884 78.8687 77.6547 78.8694 77.7207 78.869H77.7578C77.8112 78.8685 77.8718 78.8663 77.9365 78.8641C78.3375 78.8505 78.9135 78.8307 79.1445 79.1347C79.455 79.5424 79.523 80.1537 79.5244 80.6659C79.5251 80.9674 79.518 81.2834 79.5068 81.5829C79.6855 81.5804 79.7984 81.5809 79.9619 81.5809H80.0273C80.1722 81.5811 80.3178 81.5793 80.4629 81.578C80.6772 81.576 80.8916 81.5742 81.1055 81.577C81.1391 81.5775 81.169 81.5816 81.1943 81.5848C81.2749 81.5952 81.313 81.5994 81.3086 81.4755C81.3057 81.4016 81.3024 81.3282 81.2988 81.2548C81.2845 80.9501 81.2763 80.6423 81.2773 80.3368C81.2799 79.6665 81.1192 79.0364 80.6758 78.5585C80.654 78.5432 80.6313 78.5301 80.6104 78.5175C80.5213 78.4639 80.4578 78.4256 80.5742 78.3358C80.7528 78.2104 80.8721 78.0152 80.9756 77.8153C81.189 77.3728 81.329 77.0277 81.334 76.5155C81.3339 76.0808 81.2325 75.6862 81.0293 75.3319C80.8259 74.9775 80.5187 74.6985 80.1084 74.495C79.6981 74.2911 79.2022 74.1894 78.6201 74.1893H75.6006ZM132.825 74.1903V81.5809H134.708V78.8671L134.747 78.868C134.813 78.8696 134.88 78.8704 134.946 78.87L134.982 78.869C135.036 78.8685 135.096 78.8673 135.161 78.8651C135.562 78.8515 136.138 78.8317 136.369 79.1356C136.68 79.5435 136.749 80.1547 136.75 80.6669C136.751 80.9684 136.744 81.2843 136.732 81.5839C136.911 81.5814 137.023 81.5809 137.187 81.5809H137.253C137.398 81.5811 137.543 81.5803 137.688 81.579C137.902 81.577 138.117 81.5752 138.331 81.578C138.365 81.5785 138.395 81.5816 138.42 81.5848C138.5 81.5951 138.539 81.6002 138.534 81.4764C138.531 81.4024 138.528 81.3284 138.524 81.2548C138.51 80.9503 138.501 80.643 138.502 80.3378C138.504 79.6674 138.344 79.0374 137.9 78.5595C137.878 78.5442 137.856 78.5301 137.835 78.5175C137.746 78.4641 137.683 78.4263 137.799 78.3368C137.978 78.2114 138.097 78.0161 138.2 77.8163C138.414 77.3738 138.555 77.0287 138.56 76.5165C138.56 76.0817 138.457 75.6873 138.254 75.3329C138.051 74.9784 137.743 74.6995 137.333 74.496C136.923 74.2921 136.427 74.1903 135.845 74.1903H132.825ZM92.0371 74.1952V81.5858H96.7314V80.1962H93.8496V74.1952H92.0371ZM101.756 74.1952V81.5858H104.254C104.951 81.5858 105.563 81.4306 106.092 81.122C106.62 80.8129 107.029 80.3779 107.317 79.8163C107.606 79.2547 107.75 78.6124 107.75 77.8895C107.75 77.16 107.606 76.5158 107.317 75.9579C107.029 75.4001 106.622 74.9667 106.097 74.6581C105.571 74.3495 104.957 74.1952 104.254 74.1952H101.756ZM128.086 74.1952L125.673 81.5858H127.373L127.771 80.2802H130.261L130.66 81.5858H132.379L129.967 74.1952H128.086ZM148.241 74.1952L145.829 81.5858H147.528L147.928 80.2802H150.417L150.815 81.5858H152.535L150.122 74.1952H148.241ZM39.8428 74.1942V81.5848H41.4668V74.1942H39.8428ZM42.8643 74.1942V81.5848H44.3906V77.0263L46.9424 81.5848H48.4688V74.1942H46.9424V78.7743L44.3906 74.1942H42.8643ZM49.6035 74.1942V81.5848H52.1025C52.7991 81.5848 53.4119 81.4296 53.9404 81.121C54.4692 80.8123 54.8779 80.3778 55.166 79.8163C55.4542 79.2547 55.5977 78.6124 55.5977 77.8895C55.5976 77.16 55.4541 76.5158 55.166 75.9579C54.8779 75.4 54.4708 74.9667 53.9453 74.6581C53.4853 74.388 52.957 74.2358 52.3613 74.202L52.1025 74.1942H49.6035ZM69.4229 74.1942V75.6366H71.1895V81.5848H72.8145V75.6366H74.5811V74.1942H69.4229ZM82.4189 74.1942V81.5848H84.043V74.1942H82.4189ZM86.9492 74.1942L84.5361 81.5848H86.2363L86.6357 80.2802H89.125L89.5234 81.5848H91.2432L88.8301 74.1942H86.9492ZM29.2686 74.1796V81.5702H34.3467V80.1278H30.7734V78.5067H34.082V77.1171H30.7734V75.622H34.3467V74.1796H29.2686ZM108.801 74.1796V81.5702H113.879V80.1278H110.306V78.5067H113.614V77.1171H110.306V75.622H113.879V74.1796H108.801ZM51.9971 75.7313C52.6111 75.7313 53.0899 75.921 53.4316 76.2997C53.7734 76.6785 53.9443 77.2089 53.9443 77.8895C53.9443 78.5706 53.7737 79.0966 53.4316 79.4686C53.0899 79.8406 52.6112 80.0272 51.9971 80.0272H51.2285V75.7313H51.9971ZM104.149 75.7323C104.764 75.7323 105.242 75.9219 105.584 76.3007C105.925 76.6793 106.097 77.2093 106.097 77.8895C106.097 78.5706 105.926 79.0976 105.584 79.4696C105.242 79.8416 104.764 80.0272 104.149 80.0272H103.38V75.7323H104.149ZM88.7061 78.8905H87.0625L87.8799 76.1845L88.7061 78.8905ZM129.843 78.8905H128.199L129.016 76.1845L129.843 78.8905ZM149.998 78.8905H148.354L149.172 76.1845L149.998 78.8905ZM135.739 75.6854C136.069 75.6854 136.316 75.7663 136.481 75.9276C136.646 76.0889 136.729 76.31 136.729 76.5907C136.729 76.8854 136.646 77.114 136.481 77.2753C136.316 77.4365 136.069 77.5175 135.739 77.5175H134.708V75.6854H135.739ZM78.5146 75.6845C78.8442 75.6845 79.0923 75.7653 79.2568 75.9266C79.4214 76.0879 79.5039 76.309 79.5039 76.5897C79.5039 76.8844 79.4217 77.113 79.2568 77.2743C79.0919 77.4356 78.8442 77.5165 78.5146 77.5165H77.4834V75.6845H78.5146ZM74.5049 63.8163C73.88 63.8163 73.3208 63.9767 72.8281 64.2958C72.3355 64.6148 71.95 65.0612 71.6748 65.6327C71.3994 66.204 71.2618 66.8551 71.2617 67.5848C71.2617 68.2516 71.3778 68.8563 71.6104 69.3964C71.8428 69.9363 72.1716 70.374 72.5938 70.7069C72.9653 71 73.387 71.1915 73.8584 71.2811C73.8577 71.6272 73.8554 71.9732 73.8594 72.3192C73.965 72.3188 74.0975 72.3268 74.1992 72.3192C74.3182 72.318 74.4282 72.4117 74.4297 72.5487C74.4235 72.8241 74.2328 72.8564 74.0312 72.8739C73.9493 72.8827 73.8634 72.8994 73.7822 72.9042C73.7277 72.9042 73.6785 72.9014 73.624 72.8954C73.5371 72.8853 73.3463 72.8353 73.2803 72.8505C73.1786 72.8747 73.2064 73.0505 73.2129 73.1386C73.2215 73.2528 73.2044 73.4051 73.3057 73.4657C73.3558 73.4951 73.4994 73.4812 73.5625 73.4843C73.8974 73.5002 74.2114 73.4929 74.5449 73.4921C74.6853 73.4889 74.7927 73.4771 74.9209 73.4091C75.1943 73.2641 75.3983 73.0381 75.4365 72.6942C75.5048 71.9379 75.0382 71.6522 74.4248 71.6327V71.3134H75.001C75.6438 71.215 76.1907 70.9422 76.6406 70.497C77.0905 70.0517 77.3991 69.4743 77.5645 68.7655H75.8369C75.7083 69.074 75.5253 69.3098 75.29 69.4706C75.0547 69.6313 74.7862 69.7128 74.4863 69.7128C74.0028 69.7127 73.6106 69.5195 73.3105 69.1337C73.0105 68.7474 72.8604 68.2314 72.8604 67.5858C72.8604 66.9399 73.0105 66.4239 73.3105 66.038C73.6106 65.6521 74.0024 65.4589 74.4863 65.4589C74.7863 65.4589 75.0547 65.5398 75.29 65.7011C75.5254 65.8619 75.7083 66.0975 75.8369 66.4061H77.5645C77.3808 65.606 77.0158 64.9748 76.4707 64.5116C75.9256 64.0484 75.2707 63.8163 74.5049 63.8163ZM38.1729 63.7948C37.4509 63.7948 36.8652 63.9906 36.416 64.3798C35.9665 64.7689 35.7413 65.3073 35.7412 65.995C35.7412 66.4582 35.8393 66.8348 36.0352 67.122C36.231 67.4094 36.4663 67.6273 36.7383 67.7743C37.0103 67.9213 37.3621 68.0717 37.793 68.2167C38.0898 68.3166 38.3202 68.4026 38.4814 68.4794C38.6428 68.5562 38.7799 68.6552 38.8906 68.7743C39.0009 68.893 39.0566 69.045 39.0566 69.2274C39.0566 69.4447 38.9857 69.6146 38.8467 69.7372C38.7076 69.8598 38.518 69.9217 38.2773 69.9218C38.043 69.9218 37.8526 69.8497 37.707 69.7059C37.5613 69.5618 37.4754 69.3533 37.4502 69.08H35.7217C35.7347 69.5642 35.8569 69.9785 36.0879 70.3222C36.3186 70.6657 36.6278 70.9262 37.0137 71.1014C37.3998 71.2766 37.8368 71.3641 38.3242 71.3641L38.3252 71.3651C38.8254 71.3651 39.2597 71.263 39.627 71.0595C39.994 70.8559 40.2739 70.5822 40.4668 70.2382C40.6598 69.8944 40.7568 69.5121 40.7568 69.0907C40.7568 68.6488 40.659 68.2875 40.4629 68.0067C40.2667 67.7264 40.0337 67.5115 39.7646 67.3641C39.4955 67.2168 39.146 67.0593 38.7148 66.9013C38.2854 66.7439 37.967 66.6026 37.7646 66.4696C37.5625 66.3367 37.461 66.1504 37.4609 65.912C37.4609 65.6942 37.5206 65.5265 37.6406 65.411C37.7607 65.2955 37.92 65.2382 38.1162 65.2382C38.344 65.2382 38.5312 65.3062 38.6768 65.4432C38.822 65.5802 38.9015 65.7675 38.9141 66.0057H40.6709C40.6392 65.3109 40.3982 64.7688 39.9492 64.3798C39.5 63.9906 38.9074 63.7948 38.1729 63.7948ZM44.2217 63.7958C43.4999 63.7958 42.914 63.9908 42.4648 64.3798C42.0153 64.7689 41.79 65.3081 41.79 65.996C41.7901 66.459 41.8883 66.8349 42.084 67.122C42.2798 67.4095 42.5151 67.6283 42.7871 67.7753C43.0591 67.9222 43.411 68.0717 43.8418 68.2167C44.1389 68.3166 44.369 68.4035 44.5303 68.4804C44.6916 68.5572 44.8278 68.6562 44.9385 68.7753C45.0488 68.894 45.1045 69.045 45.1045 69.2274C45.1045 69.4449 45.0346 69.6155 44.8955 69.7382C44.7565 69.8607 44.5667 69.9227 44.3262 69.9227C44.0919 69.9227 43.9014 69.8506 43.7559 69.7069C43.61 69.5627 43.5245 69.3536 43.499 69.08H41.7705C41.7834 69.5643 41.9057 69.9784 42.1367 70.3222C42.3674 70.6659 42.6766 70.9262 43.0625 71.1014C43.4484 71.2767 43.8854 71.3651 44.373 71.3651H44.374C44.874 71.3651 45.3077 71.2638 45.6748 71.0604C46.0419 70.857 46.3227 70.5831 46.5156 70.2391C46.7085 69.8955 46.8056 69.5129 46.8057 69.0917C46.8057 68.6496 46.707 68.2875 46.5107 68.0067C46.3146 67.7265 46.0815 67.5124 45.8125 67.3651C45.5435 67.2179 45.1945 67.0602 44.7637 66.9022C44.3342 66.7449 44.0158 66.6026 43.8135 66.4696C43.6113 66.3366 43.5098 66.1505 43.5098 65.912C43.5098 65.6943 43.5696 65.5275 43.6895 65.412C43.8095 65.2965 43.9688 65.2382 44.165 65.2382C44.3928 65.2382 44.5801 65.3063 44.7256 65.4432C44.871 65.5802 44.9503 65.7683 44.9629 66.0067H46.7197C46.6881 65.3117 46.4472 64.7689 45.998 64.3798C45.5488 63.9906 44.9562 63.7958 44.2217 63.7958ZM50.8633 63.7958C50.2833 63.7958 49.7509 63.9571 49.2676 64.2802C48.7844 64.6027 48.4001 65.0519 48.1162 65.6268C47.8323 66.202 47.6895 66.8522 47.6895 67.5751C47.6895 68.2979 47.832 68.9495 48.1162 69.5282C48.4001 70.1067 48.7844 70.5578 49.2676 70.8807C49.6904 71.1632 50.1506 71.322 50.6475 71.3573L50.8633 71.3651C51.4432 71.3651 51.9741 71.2032 52.4541 70.8807C52.9344 70.5582 53.3153 70.1071 53.5967 69.5282C53.878 68.9491 54.0185 68.2979 54.0186 67.5751C54.0186 66.8522 53.8797 66.202 53.6016 65.6268C53.3235 65.052 52.942 64.6027 52.459 64.2802C51.9757 63.9576 51.4435 63.7958 50.8633 63.7958ZM88.0068 63.7948C87.4265 63.7948 86.8944 63.9562 86.4111 64.2792C85.9275 64.6018 85.5437 65.0518 85.2598 65.6268C84.9759 66.2019 84.8331 66.8514 84.833 67.5741C84.833 68.297 84.9759 68.9485 85.2598 69.5272C85.544 70.1059 85.9279 70.5568 86.4111 70.8798C86.834 71.1623 87.2939 71.321 87.791 71.3563L88.0068 71.3641C88.5868 71.3641 89.1176 71.2023 89.5977 70.8798C90.0777 70.5572 90.4589 70.1063 90.7402 69.5272C91.0216 68.9481 91.1621 68.297 91.1621 67.5741C91.1621 66.8514 91.0232 66.2019 90.7451 65.6268C90.467 65.0517 90.0858 64.6018 89.6025 64.2792C89.1192 63.9566 88.5868 63.7948 88.0068 63.7948ZM105.076 63.7948C104.492 63.7948 103.956 63.9562 103.469 64.2792C102.982 64.6018 102.595 65.0513 102.309 65.6268C102.022 66.2022 101.879 66.8514 101.879 67.5741C101.879 68.2969 102.022 68.9482 102.309 69.5272C102.595 70.1059 102.982 70.5568 103.469 70.8798C103.956 71.2028 104.492 71.3641 105.076 71.3641C105.661 71.364 106.195 71.2027 106.679 70.8798C107.163 70.5572 107.546 70.1062 107.829 69.5272C108.113 68.9481 108.255 68.297 108.255 67.5741C108.255 66.8514 108.114 66.2023 107.834 65.6268C107.554 65.0517 107.17 64.6022 106.683 64.2792C106.196 63.9564 105.66 63.7949 105.076 63.7948ZM58.0879 63.8163C57.462 63.8164 56.9019 63.9768 56.4082 64.2958C55.9141 64.6148 55.5279 65.0607 55.252 65.6327C54.9761 66.2042 54.8379 66.8559 54.8379 67.5858C54.8379 68.3153 54.9761 68.9648 55.252 69.5331C55.5279 70.1015 55.9141 70.5457 56.4082 70.8651C56.9022 71.1844 57.4621 71.3445 58.0879 71.3446C58.8553 71.3446 59.5121 71.1146 60.0586 70.6552C60.6047 70.1956 60.9703 69.5654 61.1543 68.7655H59.4238C59.2949 69.0739 59.1119 69.3093 58.876 69.4706C58.64 69.6318 58.3709 69.7127 58.0703 69.7128C57.5853 69.7128 57.1924 69.5194 56.8916 69.1337C56.5905 68.7474 56.4395 68.2314 56.4395 67.5858C56.4395 66.9398 56.5908 66.4239 56.8916 66.038C57.1924 65.6521 57.5852 65.4589 58.0703 65.4589C58.3709 65.4589 58.64 65.5398 58.876 65.7011C59.1119 65.8623 59.2949 66.0976 59.4238 66.4061H61.1543C60.9703 65.6061 60.6048 64.9748 60.0586 64.5116C59.512 64.0484 58.8551 63.8163 58.0879 63.8163ZM98.0439 63.8153C97.4298 63.8153 96.8803 63.9754 96.3955 64.2948C95.9112 64.6142 95.5336 65.0599 95.2627 65.6317C94.9917 66.2037 94.8564 66.8548 94.8564 67.5848C94.8564 68.3145 94.9917 68.9647 95.2627 69.5331C95.5333 70.1018 95.9111 70.5457 96.3955 70.8651C96.8803 71.1845 97.4298 71.3436 98.0439 71.3436C98.7963 71.3436 99.4399 71.1137 99.9756 70.6542C100.511 70.1945 100.87 69.5647 101.051 68.7645H99.3525C99.2264 69.0731 99.0471 69.3083 98.8154 69.4696C98.584 69.6309 98.3204 69.7118 98.0254 69.7118C97.5501 69.7117 97.1651 69.5186 96.8701 69.1327C96.5751 68.7464 96.4277 68.2304 96.4277 67.5848C96.4278 66.9391 96.5753 66.4238 96.8701 66.038C97.1647 65.6521 97.5497 65.458 98.0254 65.4579C98.3203 65.4579 98.5837 65.5389 98.8154 65.7001C99.0472 65.8614 99.226 66.0975 99.3525 66.4061H101.051C100.87 65.606 100.511 64.9738 99.9756 64.5106C99.4399 64.0476 98.7962 63.8154 98.0439 63.8153ZM133.769 63.8153C133.174 63.8153 132.642 63.9754 132.172 64.2948C131.703 64.6142 131.337 65.0599 131.074 65.6317C130.812 66.2037 130.681 66.8548 130.681 67.5848C130.681 68.3145 130.812 68.9647 131.074 69.5331C131.337 70.1018 131.702 70.5457 132.172 70.8651C132.641 71.1845 133.174 71.3436 133.769 71.3436C134.498 71.3436 135.121 71.1138 135.641 70.6542C136.159 70.1946 136.507 69.5647 136.682 68.7645H135.037C134.915 69.0731 134.741 69.3083 134.517 69.4696C134.292 69.6309 134.037 69.7118 133.751 69.7118C133.29 69.7118 132.917 69.5186 132.631 69.1327C132.345 68.7464 132.202 68.2304 132.202 67.5848C132.202 66.9392 132.345 66.4238 132.631 66.038C132.917 65.652 133.29 65.4579 133.751 65.4579C134.037 65.4579 134.292 65.5388 134.517 65.7001C134.741 65.8614 134.915 66.0975 135.037 66.4061H136.682C136.507 65.606 136.16 64.9738 135.641 64.5106C135.122 64.0475 134.498 63.8153 133.769 63.8153ZM124.074 63.9003V71.2909H125.957V68.577L125.996 68.578C126.062 68.5796 126.128 68.5804 126.194 68.58L126.231 68.579C126.285 68.5785 126.345 68.5773 126.41 68.5751C126.811 68.5614 127.387 68.5416 127.618 68.8456C127.929 69.2534 127.997 69.8647 127.998 70.3768C127.999 70.6786 127.992 70.9944 127.98 71.2938C128.159 71.2914 128.272 71.2918 128.436 71.2919H128.501C128.646 71.292 128.791 71.2903 128.937 71.2889C129.151 71.287 129.366 71.2851 129.58 71.288C129.613 71.2885 129.643 71.2925 129.668 71.2958C129.748 71.3061 129.787 71.311 129.782 71.1874C129.779 71.1133 129.776 71.0394 129.772 70.9657C129.758 70.661 129.75 70.3532 129.751 70.0477C129.753 69.3776 129.593 68.7483 129.149 68.2704C129.128 68.2551 129.105 68.2411 129.084 68.2284C128.995 68.1749 128.931 68.1366 129.048 68.0468C129.226 67.9213 129.345 67.7261 129.448 67.5263C129.662 67.0838 129.803 66.7394 129.808 66.2274C129.808 65.7922 129.706 65.3972 129.503 65.0429C129.3 64.6884 128.992 64.4095 128.582 64.2059C128.172 64.002 127.676 63.9003 127.094 63.9003H124.074ZM31.0449 63.9003L28.6318 71.2909H30.332L30.7314 69.9852H33.2207L33.6191 71.2909H35.3379L32.9258 63.9003H31.0449ZM61.9971 63.9003V71.2909H63.6211V63.9003H61.9971ZM66.6055 63.9003L64.1924 71.2909H65.8926L66.291 69.9862H68.7803L69.1797 71.2909H70.8984L68.4863 63.9003H66.6055ZM80.1152 63.9003L77.7021 71.2909H79.4023L79.8008 69.9862H82.29L82.6895 71.2909H84.4082L81.9961 63.9003H80.1152ZM109.262 63.9003V71.2909H110.8V66.8475L112.222 71.2909H113.463L114.875 66.8583V71.2909H116.413V63.9003H114.605L112.851 69.0165L111.079 63.9003H109.262ZM117.701 63.9003V71.2909H122.779V69.8485H119.206V68.2274H122.516V66.8378H119.206V65.3427H122.779V63.9003H117.701ZM137.803 63.9003V71.2909H139.427V63.9003H137.803ZM142.455 63.9003L140.042 71.2909H141.742L142.141 69.9852H144.63L145.029 71.2909H146.748L144.336 63.9003H142.455ZM147.193 63.9003V71.2909H151.888V69.9013H149.005V63.9003H147.193ZM50.8633 65.4276C51.3554 65.4277 51.7489 65.6223 52.0449 66.0116C52.3407 66.4011 52.4893 66.9223 52.4893 67.5751C52.4892 68.2206 52.3406 68.74 52.0449 69.1327C51.7492 69.5253 51.3555 69.7225 50.8633 69.7225L50.6807 69.7138C50.2669 69.6711 49.9309 69.4793 49.6719 69.1386C49.3761 68.749 49.2275 68.2279 49.2275 67.5751C49.2276 66.9153 49.3759 66.3926 49.6719 66.0067C49.968 65.6204 50.3652 65.4276 50.8633 65.4276ZM88.0068 65.4266C88.4991 65.4267 88.8934 65.6221 89.1895 66.0116C89.4849 66.401 89.6328 66.9218 89.6328 67.5741C89.6328 68.2196 89.4851 68.74 89.1895 69.1327C88.8937 69.5254 88.4991 69.7225 88.0068 69.7225C87.5085 69.7225 87.1115 69.5279 86.8154 69.1386C86.5197 68.7491 86.3721 68.2278 86.3721 67.5751C86.3721 66.9151 86.5193 66.3917 86.8154 66.0057C87.1115 65.6195 87.5088 65.4266 88.0068 65.4266ZM105.076 65.4266C105.572 65.4267 105.968 65.6221 106.267 66.0116C106.564 66.401 106.714 66.9216 106.714 67.5741C106.714 68.2197 106.565 68.7396 106.267 69.1327C105.968 69.5257 105.572 69.7225 105.076 69.7225C104.575 69.7225 104.174 69.5281 103.876 69.1386C103.578 68.7491 103.43 68.2278 103.43 67.5751C103.43 66.9151 103.578 66.3917 103.876 66.0057C104.174 65.6194 104.575 65.4266 105.076 65.4266ZM68.3623 68.5966H66.7188L67.5352 65.8905L68.3623 68.5966ZM81.8721 68.5966H80.2285L81.0449 65.8905L81.8721 68.5966ZM32.8018 68.5956H31.1582L31.9746 65.8905L32.8018 68.5956ZM144.212 68.5956H142.568L143.385 65.8905L144.212 68.5956ZM126.988 65.3954C127.318 65.3954 127.565 65.4763 127.729 65.6376C127.894 65.7989 127.978 66.0199 127.978 66.3007C127.977 66.5953 127.894 66.823 127.729 66.9843C127.565 67.1455 127.318 67.2264 126.988 67.2264H125.957V65.3954H126.988ZM82.1191 61.827C82.081 62.1425 81.9443 62.3007 81.71 62.3007C81.6343 62.3006 81.5618 62.2842 81.4922 62.2528C81.4228 62.2214 81.3307 62.1706 81.2168 62.1005C81.0649 62.009 80.9365 61.9412 80.832 61.8954C80.7275 61.8496 80.6053 61.827 80.4658 61.827C79.744 61.8271 79.3073 62.3461 79.1553 63.3846H79.9814C80.0257 63.0689 80.1652 62.911 80.3994 62.911C80.4754 62.9111 80.5476 62.9275 80.6172 62.9589C80.6869 62.9903 80.7796 63.0411 80.8936 63.1112C81.0454 63.2027 81.1738 63.2705 81.2783 63.3163C81.3828 63.362 81.5043 63.3856 81.6436 63.3856C82.3655 63.3856 82.8031 62.8658 82.9551 61.827H82.1191ZM41.7363 35.7401C41.7985 35.7222 41.8563 35.7244 41.917 35.7479C42.6462 36.0276 47.6193 38.0926 50.999 43.5956C51.0608 43.6963 51.0712 43.8157 51.0273 43.9276C50.6047 45.0102 48.1002 50.7654 41.9785 52.6044C41.9331 52.6178 41.8922 52.6209 41.8457 52.6122C41.2226 52.4967 36.5363 51.4077 32.3271 44.2645C32.2618 44.1534 32.2572 44.0197 32.3164 43.9042C32.8648 42.834 35.8827 37.4353 41.7363 35.7401Z" fill="white"/>
<path fill-rule="evenodd" clip-rule="evenodd" d="M144.647 40.6733C147.03 40.6733 149.413 40.6749 151.795 40.6733C150.568 34.43 147.033 30.7848 141.158 30.5335C131.804 30.2638 126.853 38.7507 128.429 48.4536C129.781 55.8356 134.322 60.1153 141.231 59.4506C143.847 59.1988 145.528 57.8064 147.322 55.8042C147.322 56.7672 147.322 57.7307 147.322 58.6938C148.879 58.6942 150.435 58.6938 151.992 58.6938C151.992 53.7713 151.992 48.8487 151.992 43.9266H147.322H141.924V49.6353H145.439C144.497 52.2693 143.236 53.1623 140.634 52.8858C137.005 52.5003 135.821 49.3836 135.523 45.7938C135.264 42.1426 136.57 37.3228 140.54 37.2113C142.818 37.1476 143.733 38.6332 144.648 40.6725L144.647 40.6733ZM51.3023 48.4731C51.3023 48.4731 51.7806 55.0693 47.2103 58.8559H24V47.2723C24 47.2723 29.1953 56.3984 38.3887 56.2781C47.5822 56.1579 51.3023 48.4727 51.3023 48.4727V48.4731ZM24 30.2937H33.2668C23.4275 47.3663 38.217 53.7509 38.217 53.7509C26.1166 52.3011 24.4664 42.0132 24 41.53V30.2937ZM36.4227 30.2937H59.3189V41.6288C59.3189 41.6288 54.3849 32.3827 44.9787 32.9228C35.5724 33.4633 31.7995 40.8481 31.7995 40.8481C31.7995 40.8481 31.9055 33.3681 36.4227 30.2937ZM59.3189 47.0325V58.8563H50.0801C50.0801 58.8563 53.7998 52.5561 53.5875 47.0926C53.3751 41.6288 48.3264 36.2255 44.6064 35.4448C44.6064 35.4448 54.8467 34.6646 59.3185 47.0329L59.3189 47.0325ZM44.8597 28.9901V25.9343H46.7539V26.4505H45.4178V27.1762H46.5728V27.6924H45.4178V28.9897H44.8593L44.8597 28.9901ZM49.3948 28.9901H48.7936L48.5557 28.2946H47.45L47.2211 28.9901H46.6306L47.7012 25.9343H48.2909L49.3955 28.9901H49.3948ZM48.3742 27.778L47.9912 26.6469L47.6189 27.778H48.3742ZM49.315 29.0414L50.0003 25.8833H50.3971L49.7078 29.0414H49.315ZM52.3491 27.8637L52.8881 28.0473C52.8055 28.3839 52.6675 28.6336 52.4749 28.7969C52.2823 28.9598 52.0386 29.0418 51.7429 29.0418C51.3763 29.0418 51.0755 28.9032 50.8394 28.6256C50.6041 28.348 50.4858 27.9692 50.4858 27.4877C50.4858 26.9791 50.6044 26.5836 50.8412 26.302C51.0781 26.0204 51.39 25.8794 51.7763 25.8794C52.1137 25.8794 52.3879 25.9905 52.5985 26.2115C52.7243 26.3426 52.8181 26.5302 52.881 26.7755L52.3304 26.9209C52.2977 26.7628 52.2298 26.6377 52.1263 26.5461C52.0225 26.4545 51.8967 26.4087 51.749 26.4087C51.5441 26.4087 51.3781 26.49 51.2509 26.6529C51.1233 26.815 51.0597 27.0782 51.0597 27.4423C51.0597 27.8278 51.1226 28.1031 51.2477 28.2668C51.3734 28.4312 51.5366 28.5129 51.7375 28.5129C51.8855 28.5129 52.0135 28.4611 52.1198 28.3564C52.2262 28.2516 52.3035 28.0883 52.3495 27.8641L52.3491 27.8637ZM53.2784 28.9901V25.9343H55.3192V26.4505H53.8369V27.1292H55.2154V27.6454H53.8369V28.4735H55.3731V28.9897H53.2784V28.9901ZM55.6121 27.9999L56.1551 27.9401C56.1878 28.1413 56.2532 28.2887 56.3527 28.3835C56.4523 28.4782 56.5863 28.5248 56.7552 28.5248C56.9335 28.5248 57.0682 28.483 57.1588 28.399C57.2493 28.3149 57.295 28.217 57.295 28.1046C57.295 28.0322 57.2759 27.9708 57.2378 27.9198C57.2001 27.8693 57.1333 27.8254 57.0384 27.7884C56.9737 27.7629 56.826 27.7187 56.5949 27.6546C56.2977 27.5721 56.0893 27.4714 55.9693 27.3511C55.8004 27.1826 55.7163 26.9771 55.7163 26.7345C55.7163 26.5788 55.7562 26.4322 55.8349 26.2964C55.9143 26.1606 56.0286 26.0574 56.1781 25.9861C56.3276 25.9148 56.5073 25.8794 56.7189 25.8794C57.0635 25.8794 57.3234 25.9642 57.4973 26.1339C57.6719 26.3039 57.7629 26.5302 57.7718 26.8138L57.2134 26.8353C57.1897 26.6776 57.139 26.5644 57.0614 26.4951C56.9838 26.4262 56.867 26.3912 56.7117 26.3912C56.5515 26.3912 56.4257 26.4282 56.3351 26.5023C56.2766 26.5501 56.2471 26.6134 56.2471 26.6931C56.2471 26.7656 56.2747 26.8277 56.3297 26.8787C56.3998 26.9448 56.5698 27.0129 56.84 27.0842C57.1103 27.1547 57.3097 27.2284 57.4387 27.3041C57.5684 27.3801 57.6698 27.4833 57.7427 27.6147C57.816 27.7462 57.8523 27.9087 57.8523 28.1015C57.8523 28.2763 57.8085 28.4408 57.7208 28.5938C57.6328 28.7467 57.5092 28.8602 57.3485 28.9343C57.1879 29.0088 56.9877 29.0458 56.7484 29.0458C56.3998 29.0458 56.1324 28.957 55.9456 28.7782C55.7587 28.6001 55.6477 28.3408 55.6114 27.9999H55.6121ZM58.2387 28.9901V25.9343H59.1313C59.4695 25.9343 59.6897 25.9491 59.7922 25.9801C59.9499 26.0263 60.0822 26.1259 60.1885 26.2797C60.2949 26.4334 60.3484 26.6317 60.3484 26.8751C60.3484 27.0631 60.3175 27.22 60.2568 27.3483C60.1954 27.4761 60.1177 27.5765 60.0232 27.6498C59.9291 27.7223 59.8328 27.7705 59.735 27.794C59.6024 27.8231 59.4102 27.8382 59.1586 27.8382H58.7967V28.9905H58.2383L58.2387 28.9901ZM58.7971 26.4509V27.3216H59.1007C59.3196 27.3216 59.4651 27.3053 59.5388 27.2734C59.6125 27.2415 59.6703 27.1918 59.712 27.1224C59.7537 27.0539 59.7749 26.9751 59.7749 26.8843C59.7749 26.7727 59.7454 26.6807 59.6869 26.6082C59.6279 26.5358 59.5539 26.4904 59.4633 26.4716C59.3972 26.4581 59.2643 26.4509 59.0641 26.4509H58.7964H58.7971ZM43.377 28.9901H42.7758L42.5375 28.2946H41.4318L41.2025 28.9901H40.6121L41.6826 25.9343H42.2723L43.377 28.9901ZM42.3564 27.778L41.9733 26.6469L41.601 27.778H42.3564ZM42.2716 25.6571H41.9403L41.4203 25.0342H42.0096L42.2716 25.6571ZM24.1984 28.9901V25.9343H26.0925V26.4505H24.7565V27.1762H25.9114V27.6924H24.7565V28.9897H24.198L24.1984 28.9901ZM26.5989 28.9901V25.9343H27.1573V28.9901H26.5989ZM27.7711 28.9901V25.9602H28.3296V28.4739H29.7117V28.9901H27.7711ZM30.1562 28.9901V25.9343H30.7146V28.9901H30.1562ZM33.7965 28.9901H33.1953L32.957 28.2946H31.8513L31.622 28.9901H31.0316L32.1021 25.9343H32.6918L33.7961 28.9901H33.7965ZM32.7763 27.778L32.3932 26.6469L32.0209 27.778H32.7763ZM34.1616 25.9343H35.1768C35.4061 25.9343 35.5803 25.9534 35.7004 25.9929C35.8614 26.0455 36.0001 26.1395 36.1147 26.2745C36.2301 26.4091 36.3174 26.574 36.3778 26.7696C36.4374 26.9643 36.4676 27.2057 36.4676 27.4917C36.4676 27.7434 36.4396 27.9597 36.3828 28.1417C36.3141 28.3643 36.216 28.5444 36.0881 28.6814C35.9918 28.7857 35.8617 28.867 35.6979 28.9255C35.5753 28.9689 35.4118 28.9901 35.2062 28.9901H34.1609V25.9343H34.1616ZM34.72 26.4505V28.4735H35.134C35.2885 28.4735 35.4003 28.4635 35.4689 28.4444C35.5595 28.4197 35.6339 28.3767 35.6928 28.3169C35.7525 28.2572 35.8006 28.1588 35.8376 28.0226C35.8757 27.886 35.8941 27.6988 35.8941 27.4626C35.8941 27.2264 35.8754 27.046 35.8376 26.9193C35.8006 26.7927 35.7478 26.6947 35.6802 26.6234C35.613 26.5529 35.5275 26.5047 35.4237 26.4796C35.3468 26.4605 35.1947 26.4505 34.9687 26.4505H34.7197H34.72ZM39.4938 28.9897H38.8926L38.6547 28.2942H37.5489L37.3196 28.9897H36.7292L37.7997 25.9339H38.3894L39.4938 28.9897ZM38.4732 27.7776L38.0901 26.6465L37.7178 27.7776H38.4732ZM88.9326 58.8081L79.5422 31.3006H72.1246L62.7342 58.8081H70.3936L71.5144 54.9371H79.8005L80.8463 58.8081H88.9322H88.9326ZM78.2305 49.1223H73.1988L75.8023 40.1312L78.2309 49.1223H78.2305ZM106.326 41.3034H113.941C112.771 36.9201 111.778 33.5808 107.718 31.6646L107.502 31.5627L107.128 31.4021C106.389 31.1062 105.658 30.931 104.889 30.7764C104.559 30.7127 104.238 30.6681 103.905 30.6275C103.11 30.5366 102.351 30.5358 101.554 30.5757C96.3343 30.8696 91.6134 34.5594 90.2489 40.2742C89.5323 43.4124 89.6527 46.5438 90.2507 49.6979C90.3211 50.0695 90.3995 50.4148 90.4965 50.7789C90.8868 52.1864 91.4276 53.1579 92.2261 54.3229C94.5856 57.7076 98.0973 59.5872 101.946 59.6282C107.112 59.3781 111.171 57.4878 113.101 51.8069C113.351 51.072 113.582 50.3081 113.787 49.5565L113.834 49.3577C113.92 48.9746 113.987 48.6026 114.052 48.2146H106.39C106.234 50.9426 104.101 53.3606 101.552 52.8635C98.0567 52.1817 97.4343 49.1211 97.2632 45.6954C97.1277 42.0793 97.9881 37.8382 101.821 37.3435C103.851 37.0814 105.875 38.8949 106.285 41.0867L106.325 41.3034H106.326ZM117.246 58.8081H124.628V31.3006H117.246V58.8081Z" fill="white"/>
</g>
<defs>
<clipPath id="clip0_376_1649">
<rect width="135" height="59.9387" fill="white" transform="translate(24 25.0308)"/>
</clipPath>
</defs>
</svg>
