<svg width="183" height="110" viewBox="0 0 183 110" fill="none" xmlns="http://www.w3.org/2000/svg">
<g clip-path="url(#clip0_388_2169)">
<path fill-rule="evenodd" clip-rule="evenodd" d="M33.8966 19.6223C34.218 19.6392 34.2349 19.808 34.3534 22.0866C34.4041 23.4369 34.5564 24.9897 34.6579 25.5467C34.7594 26.1037 35.0131 27.2852 35.1992 28.1629C35.3853 29.0406 35.8421 30.6441 36.2143 31.7074C36.5695 32.7708 37.1955 34.2899 37.5846 35.0832C37.9906 35.8933 38.6165 36.8554 39.8176 38.0876L42.8628 38.1888C44.5376 38.2563 48.5808 38.3745 51.8289 38.4589C55.094 38.5602 60.3383 38.6952 63.5019 38.7965C66.6654 38.8809 71.9267 39.0328 75.1748 39.134C78.4398 39.2353 83.6503 39.3872 86.7631 39.4716C89.8759 39.556 95.1033 39.7079 98.3515 39.8092C101.617 39.8936 106.895 40.0455 110.109 40.1468C113.323 40.248 118.5 40.3999 121.613 40.4843C124.726 40.5687 129.953 40.7206 133.201 40.8219C136.466 40.9063 141.71 41.0582 144.874 41.1595C148.038 41.2439 152.03 41.3789 156.885 41.5477L157.528 42.1891C157.934 42.611 158.239 43.168 158.408 43.7419C158.611 44.4508 158.662 45.7505 158.662 56.2659L155.244 56.384C153.35 56.4516 150.372 56.5866 148.596 56.6879C146.82 56.7723 143.944 56.941 142.167 57.0254C140.391 57.1267 137.43 57.2449 132.186 57.3968L131.814 57.0085C131.526 56.6879 131.425 56.3672 131.34 54.2404L129.479 54.2911C127.991 54.3248 127.466 54.4092 125.994 55.0844V56.1815C125.994 57.1605 125.96 57.3124 125.588 57.5655C125.25 57.8187 124.539 57.9031 121.816 58.0382C119.989 58.1394 116.96 58.2913 115.1 58.3757C113.239 58.4601 110.194 58.612 108.333 58.7133C106.472 58.8146 103.359 58.9496 101.397 59.0509C99.4342 59.1353 97.3703 59.2534 95.7293 59.3884V55L93.2424 55.1181C91.297 55.2025 90.5188 55.3207 88.7086 55.979L88.624 59.6416L86.8816 59.7598C85.9342 59.8273 83.3289 59.9792 81.0958 60.0805C78.8628 60.1986 76.9003 60.2324 76.7481 60.1649C76.4774 60.0805 76.4436 59.726 76.4436 56.2153C76.4436 54.1054 76.359 51.7255 76.2744 50.8985C76.1729 50.0883 75.9699 49.0249 75.8176 48.5355C75.6485 48.046 75.2425 47.202 74.921 46.6619C74.5996 46.1049 73.906 45.2104 73.3985 44.6534C72.8909 44.1132 72.1297 43.4381 71.7067 43.168C71.2838 42.8811 70.4549 42.5098 69.8458 42.3241C68.8477 42.0034 68.0864 41.9528 61.7255 41.8177C56.9041 41.6996 54.4342 41.7165 53.859 41.8346C53.4022 41.9359 52.5564 42.2228 51.9981 42.476C51.4398 42.7461 50.5263 43.2524 49.968 43.6069C49.4097 43.9782 48.6485 44.4171 48.2763 44.6196C47.9041 44.8053 47.109 45.4467 46.5 46.0543C45.8233 46.7294 45.1804 47.5903 44.859 48.2485C44.5545 48.8562 44.1992 49.8014 44.047 50.3584C43.844 51.1685 43.7932 52.4851 43.7932 62.0046L40.7143 62.1228C39.0056 62.1903 36.062 62.3253 34.1504 62.4097C32.2387 62.511 30.2425 62.6291 28.7368 62.7642V24.6184L29.1428 23.8082C29.3628 23.3694 29.8534 22.6098 30.2425 22.1203C30.6146 21.6477 31.359 20.9051 31.8665 20.4831C32.374 20.078 32.9661 19.7067 33.1691 19.6729C33.3891 19.6223 33.7105 19.6054 33.8966 19.6223ZM53.4699 49.43H59.0695C64.1785 49.43 64.7537 49.4638 65.3628 49.7507C65.7349 49.9195 66.2425 50.274 66.4962 50.544C66.75 50.8141 67.0376 51.236 67.1222 51.5061C67.2406 51.7762 67.3082 53.6497 67.3082 60.7387L66.1579 60.8231C65.5319 60.8738 63.3834 60.9919 61.3872 61.0763C59.3909 61.1607 57.0902 61.2957 56.2782 61.3632C54.9417 61.4814 54.7894 61.4645 54.671 61.1945C54.6034 61.0088 54.2988 60.7725 54.0282 60.6375C53.7406 60.5024 53.2669 60.4012 52.421 60.4012L52.4718 55.8102C52.5056 52.215 52.5733 51.0841 52.7594 50.6959C52.8947 50.409 53.0977 50.0208 53.2331 49.8182L53.4699 49.43Z" fill="white"/>
<path d="M136.246 76.0307C135.231 76.1658 134.115 76.2333 133.776 76.1826C133.404 76.132 133.032 76.1826 132.761 76.3514C132.541 76.4864 132.051 76.6046 131.678 76.6046C131.306 76.6046 130.359 76.689 129.564 76.7903C128.481 76.9422 127.906 76.9253 127.195 76.7903C126.333 76.6046 126.231 76.6046 125.927 76.9253C125.69 77.1785 125.368 77.2797 124.827 77.2797C124.404 77.2797 123.93 77.1616 123.761 77.0266C123.507 76.8071 123.423 76.8071 123 77.0941C122.746 77.2629 122.239 77.4992 121.866 77.5836C121.494 77.6848 120.581 77.8199 119.836 77.8874C118.821 77.9718 118.145 77.9211 117.13 77.7017C116.385 77.5329 115.573 77.2966 115.319 77.1616C114.897 76.9422 114.812 76.959 114.304 77.3304C113.915 77.6173 113.408 77.7692 112.647 77.8536C111.97 77.9211 111.462 77.8874 111.327 77.7861C111.175 77.668 110.938 77.7861 110.447 78.2081C110.075 78.5288 109.483 78.8663 109.128 78.9676C108.789 79.052 107.402 79.2545 106.049 79.4065C103.968 79.6428 103.308 79.6596 101.735 79.4909C100.652 79.3558 99.6202 79.1533 99.2819 78.9676C98.9604 78.8157 98.5713 78.5456 98.436 78.3937C98.2161 78.1574 98.1484 78.1406 97.9285 78.36C97.7931 78.495 97.2856 78.63 96.8288 78.6638L95.983 78.7144C95.8984 80.3685 95.8476 80.5036 95.5093 80.5711C95.3063 80.6048 94.3082 80.723 93.2762 80.8411C92.2443 80.9424 91.1108 80.9931 90.7386 80.9255C90.3157 80.858 89.8759 80.9087 89.5544 81.0606C89.2838 81.1956 88.218 81.3981 87.186 81.4994C85.4097 81.702 85.2574 81.6851 83.8026 81.2969C82.9736 81.0606 82.0939 80.7736 81.8571 80.6555C81.6202 80.5373 81.1127 80.1322 80.7236 79.744C80.1653 79.2039 79.9623 79.0858 79.7932 79.2546C79.6747 79.3727 78.9135 79.5246 78.0845 79.5921L76.6127 79.7272V83.6936C79.5563 83.5755 81.5187 83.4742 82.8721 83.3729C84.2255 83.2717 86.9999 83.1029 89.0469 83.0016C91.0939 82.8835 93.6822 82.7822 94.7988 82.7822C96.7781 82.7653 96.8288 82.7653 96.8627 83.1366C96.9134 83.4742 96.998 83.508 97.4548 83.4573C97.7593 83.4067 110.346 81.8876 125.419 80.0478C140.492 78.2249 152.859 76.689 152.91 76.6552C152.96 76.6215 152.91 76.4527 152.808 76.3008C152.639 76.0476 152.318 76.0138 150.524 76.0307C149.374 76.0307 146.447 76.132 144.028 76.2501C139.697 76.4358 139.63 76.4358 139.325 76.0982C139.156 75.8957 138.851 75.7607 138.564 75.7775C138.31 75.7944 137.261 75.9126 136.246 76.0307ZM55.7537 80.9931C55.0263 81.4488 54.1296 82.1239 53.7575 82.4615C53.3684 82.8159 52.9454 83.3054 52.827 83.5586C52.6917 83.8287 52.5902 84.2675 52.5902 84.5376C52.5902 85.0271 52.6071 85.0439 53.2161 84.9595C53.5714 84.9089 54.5018 84.7907 55.2969 84.6726C56.0921 84.5713 57.6146 84.4869 58.6804 84.4701C59.7462 84.4532 62.1654 84.4363 64.0432 84.4025L67.4774 84.3688V80.3179C61.6409 80.4529 59.3909 80.5204 58.7142 80.5711C57.733 80.6386 57.4793 80.6048 57.4116 80.4023C57.3609 80.2673 57.2593 80.1491 57.1917 80.1491C57.1071 80.1491 56.4642 80.5204 55.7537 80.9931ZM40.1221 80.7226C39.6484 80.8069 38.161 81.0288 36.9092 81.0288C35.6573 81.0457 34.0488 81.7526 33.2199 81.8539C32.374 81.9551 30.964 81.5445 30.8286 81.6795C30.6087 81.8652 31.2744 82.6134 31.8834 83.3898C32.2556 83.8793 33 84.7401 33.5075 85.2971C34.4041 86.2592 36.5065 88.9161 36.7941 88.646C37.0478 88.4266 35.8878 86.6274 38.0025 86.5599C39.4405 86.5093 41.1033 85.5165 42.0507 85.4659L43.7932 85.3815C43.7932 84.1325 43.9116 83.2548 44.0469 82.5965C44.1823 81.9383 44.5914 81.0625 44.5914 81.0288C44.5914 81.0119 43.5563 81.3475 42.6428 81.3475C41.7462 81.3644 40.5788 80.655 40.1221 80.7226Z" fill="white"/>
<path d="M155.528 55.555C154.412 55.6225 147.75 56.7384 145.466 56.8397C143.182 56.9578 140.205 57.1098 138.818 57.211C137.447 57.2954 135.4 57.3629 134.25 57.3629C132.389 57.3629 132.152 57.3292 131.848 57.0085L131.509 56.654C129.767 57.2954 129.158 57.3629 127.652 57.3629C126.231 57.3629 125.69 57.4305 125.504 57.6161C125.318 57.8018 124.404 57.9031 121.867 58.0381C120.006 58.1225 116.961 58.2913 115.1 58.3757C113.239 58.4601 110.194 58.6288 108.333 58.7132C106.472 58.8145 103.308 58.9495 101.312 59.0508C99.3158 59.1352 97.2688 59.2534 96.7782 59.304L95.8985 59.3884C95.8985 60.7218 95.9154 60.7387 96.4398 60.7387C96.7443 60.7387 97.2349 60.8399 97.5056 60.975C97.7763 61.11 98.1654 61.3801 98.3515 61.5657C98.6898 61.9202 98.6898 61.9202 99.1973 61.5826C99.468 61.3969 100.195 61.1438 100.804 61.0087C101.414 60.8737 102.175 60.6712 102.496 60.5699C102.818 60.4686 104.374 60.3505 105.964 60.2829C108.4 60.1986 108.942 60.2323 109.517 60.4686C110.177 60.7387 110.194 60.7218 110.447 60.3842C110.684 60.0298 110.803 60.0129 113.002 60.0804C114.491 60.131 115.404 60.2154 115.573 60.3505C115.759 60.4855 115.979 60.5192 116.148 60.4349C116.318 60.3505 116.977 60.1648 117.637 60.0129C118.297 59.8779 119.447 59.7091 120.209 59.6584C121.021 59.5909 121.917 59.6416 122.323 59.7428C122.729 59.8441 123.304 60.1142 123.592 60.3336C124.032 60.6543 124.353 60.7387 125.165 60.7387C126.164 60.7387 126.18 60.7218 126.18 60.2661C126.18 59.8947 126.282 59.7766 126.806 59.5909C127.162 59.4728 128.346 59.3209 129.445 59.2534L131.425 59.1352C131.425 59.996 131.492 60.0635 131.932 60.0635C132.271 60.0635 132.44 59.9791 132.44 59.8103C132.44 59.6753 132.643 59.4728 132.897 59.3715C133.167 59.2533 134.25 59.1014 135.316 59.0339C137.007 58.8989 137.278 58.9158 137.43 59.1352C137.549 59.3377 137.803 59.3884 138.361 59.3377C138.784 59.2871 139.545 59.1352 140.053 58.9833C140.628 58.8145 141.626 58.7132 142.624 58.7132C144.096 58.7132 144.282 58.747 144.282 59.0171C144.282 59.2196 144.502 59.3546 145.077 59.4897C145.788 59.6584 145.94 59.6416 146.312 59.3884C146.549 59.2196 147.344 58.9327 148.088 58.747C148.833 58.5613 150.254 58.3588 151.252 58.3081C152.385 58.2406 153.265 58.2744 153.536 58.3925C153.806 58.4938 154.162 58.7132 154.348 58.8989C154.686 59.2196 154.686 59.2196 155.211 58.6288C155.735 58.0381 155.752 58.0381 157.207 58.0381L158.662 58.3492V56.2248C154.788 56.2586 156.645 55.4875 155.528 55.555ZM86.2387 59.7935C86.2049 59.8272 84.0394 59.9454 81.4342 60.0466C78.3383 60.1817 75.0056 57.7343 74.8872 57.6161C74.7688 57.5148 75.8853 60.1817 74.9718 60.7049C74.2105 61.1438 68.653 63.9085 68.5684 63.9761C68.5007 64.0436 74.0244 61.7008 74.8872 61.6332L75.867 62.3588L76.1931 67.2488C79.8303 67.2488 79.2194 66.3353 79.4731 66.5885C79.7438 66.8586 81.0282 63.0004 81.4003 62.646C81.6034 62.4434 82.0432 62.1734 82.3646 62.0383C82.6861 61.8864 83.6165 61.6164 84.4455 61.4307C85.3082 61.2282 86.4755 61.0762 87.2706 61.0762C88.4041 61.0762 88.641 61.0256 88.7255 60.7893C88.7932 60.6205 88.7932 60.3167 88.7255 60.1142C88.641 59.7597 88.5225 59.726 87.4737 59.726C86.8308 59.726 86.2725 59.7597 86.2387 59.7935ZM52.421 61.7514V63.1017C57.4624 63.1017 58.6211 63.3382 58.8241 63.2201C59.0272 63.0682 61.4092 63.4943 62.8811 63.6124C63.9976 63.6968 62.4721 64.0222 62.6413 63.9378C62.7935 63.8703 64.5373 64.1579 65.5185 64.1579L67.3083 63.8421L67.3082 60.7387C65.5319 60.8737 63.3834 60.9919 61.3872 61.0762C59.391 61.1606 57.0902 61.2957 56.2782 61.3632C54.9417 61.4813 54.7894 61.4645 54.671 61.1944C54.6034 61.0087 54.3158 60.7724 54.0282 60.6374C53.7575 60.5024 53.2669 60.4011 52.9793 60.4011H52.421V61.7514ZM39.2086 62.1565C39.1748 62.1902 37.1445 62.2576 34.6745 62.3588C32.2046 62.4601 29.8534 62.646 29.4643 62.6797L28.7368 62.7641V64.7896C30.2425 64.6714 31.212 64.8402 31.8548 64.7896C32.5146 64.722 33.1691 64.3845 33.3045 64.3338C33.4398 64.2832 35.1654 64.2494 37.1109 64.2832C40.2406 64.317 41.0914 65.6669 41.3114 65.4306C41.5144 65.2112 41.9843 64.7247 42.9993 64.7416L43.7932 63.7768L43.7932 61.9186C40.2913 61.9186 39.2425 62.1227 39.2086 62.1565Z" fill="white"/>
<path d="M155.955 72.7225V73.904C154.179 74.0728 153.282 74.1403 152.826 74.1741C152.352 74.191 151.489 74.2922 150.88 74.3935C150.051 74.5285 149.442 74.5285 148.427 74.3766C147.649 74.2416 146.871 74.0222 146.566 73.8196C146.295 73.634 145.889 73.212 145.686 72.8913C145.466 72.5706 145.263 72.2499 145.247 72.1993C145.23 72.1318 144.79 72.0474 144.282 72.0136C143.352 71.9292 143.352 71.9292 142.963 72.5875C142.76 72.9419 142.303 73.5496 141.965 73.9378C141.609 74.326 140.983 74.8492 140.56 75.1193C140.138 75.3725 139.664 75.5919 139.512 75.5919C139.342 75.5919 139.207 75.6932 139.207 75.7944C139.19 75.9126 139.292 76.0983 139.41 76.2164C139.579 76.3852 140.577 76.3852 144.029 76.2333C146.448 76.132 149.341 76.0139 150.457 75.9801C152.419 75.9126 152.504 75.9295 152.792 76.3008L153.113 76.689C157.224 76.2164 158.544 76.0476 158.696 75.997C158.966 75.9295 159 75.6932 159 73.7352V71.541H155.955V72.7225ZM125.183 73.0432C125.166 73.3302 125.047 73.9209 124.895 74.3598C124.743 74.8155 124.371 75.5244 124.049 75.9801C123.508 76.7228 123.491 76.7903 123.779 77.0266C123.931 77.1616 124.404 77.2798 124.827 77.2798C125.403 77.2798 125.69 77.1954 125.978 76.9084C126.333 76.5371 126.35 76.4021 126.316 74.5792L126.265 72.6381C125.233 72.5369 125.183 72.5706 125.183 73.0432ZM117.485 73.7015C117.553 73.9547 117.671 74.2922 117.739 74.461C117.824 74.6129 117.993 74.748 118.111 74.748C118.213 74.748 118.483 74.5792 118.686 74.3766C118.906 74.1572 119.076 73.8534 119.076 73.7015C119.076 73.5327 118.957 73.3639 118.822 73.3133C118.686 73.2626 118.297 73.2289 117.976 73.2289C117.401 73.2289 117.384 73.2458 117.485 73.7015ZM112.41 73.7859C112.376 73.9884 112.258 74.5792 112.139 75.0855C112.038 75.5919 111.767 76.3683 111.53 76.824C111.209 77.4485 111.175 77.6511 111.344 77.7861C111.463 77.8874 111.97 77.9212 112.647 77.8536C113.459 77.7692 113.882 77.6173 114.305 77.2966C114.863 76.8578 114.863 76.8578 114.525 76.5202C114.339 76.3346 114.085 75.9126 113.95 75.5919C113.797 75.2712 113.645 74.6467 113.594 74.191C113.493 73.4483 113.459 73.3977 112.985 73.3977C112.596 73.3977 112.461 73.4821 112.41 73.7859ZM104.036 73.904C103.782 74.0053 103.63 74.191 103.647 74.3598C103.664 74.5285 103.85 75.0011 104.053 75.4231C104.408 76.0983 104.51 76.1826 105.085 76.2333C105.423 76.2502 105.948 76.1489 106.218 76.0139C106.489 75.8788 106.827 75.5919 106.963 75.3893C107.098 75.1699 107.25 74.7142 107.301 74.3766L107.403 73.7352C105.102 73.7521 104.256 73.8196 104.036 73.904ZM131.594 75.5919C131.594 76.5371 131.628 76.6046 131.966 76.6046C132.186 76.6046 132.508 76.4865 132.694 76.3514C132.931 76.1658 132.965 76.0476 132.812 75.997C132.694 75.9632 132.609 75.6425 132.609 75.2543C132.609 74.6129 132.576 74.5792 132.102 74.5792H131.594V75.5919ZM95.9834 75.0349C95.8988 75.0855 95.8481 75.9463 95.865 76.9253L95.8988 78.7144C97.3199 78.6469 97.7597 78.5288 97.8781 78.3769C98.0642 78.1743 98.0135 77.9887 97.5905 77.3304C97.2353 76.7734 97.0661 76.267 97.0323 75.7269C96.9984 74.9843 96.9477 74.9167 96.5586 74.9167C96.3217 74.9167 96.068 74.9674 95.9834 75.0349ZM61.3875 77.5329C58.5624 79.2546 56.7241 80.1491 56.7241 80.3686C56.7241 80.6386 57.6621 80.9365 58.6518 80.7226C59.2947 80.7057 61.6705 80.807 63.8021 80.7226L67.4778 80.4642L67.4778 75.5919C66.3105 75.6088 65.9383 75.5075 65.786 75.3387C65.6507 75.1868 65.4984 75.0855 65.4477 75.0855C65.3969 75.1024 63.5699 76.1995 61.3875 77.5329ZM77.0868 75.3556L76.6131 75.4231V79.7272C78.9139 79.5246 79.6751 79.3727 79.7936 79.2546C79.9627 79.0858 79.9458 78.9001 79.6582 78.2925C79.4721 77.8705 79.2691 77.0266 79.2014 76.3852L79.0661 75.2543C77.8819 75.2881 77.3405 75.3387 77.0699 75.3556H77.0868ZM36.2823 77.4485C35.8086 77.5329 34.4045 77.6005 33.1526 77.6005C31.9007 77.6005 30.4966 77.668 30.0398 77.7355C29.2447 77.8705 29.2278 77.8874 29.3124 78.3769C29.3462 78.6469 29.6845 79.5246 30.0567 80.3179C30.4458 81.1112 30.8518 81.9045 31.0041 82.0902C31.1902 82.3434 31.3086 82.3771 31.4778 82.2421C31.6131 82.1408 32.053 82.0058 32.4759 81.9383C32.8988 81.8708 34.7936 81.7526 36.7052 81.6682C38.6169 81.5669 41.1206 81.4488 42.2879 81.3982L44.4026 81.2969C45.0454 80.0816 45.2654 79.6934 45.2823 79.6428C45.3161 79.5921 44.9778 79.4571 44.5379 79.3558L43.7428 79.1364L43.8105 77.2798C38.6338 77.3135 36.739 77.381 36.2823 77.4485Z" fill="white"/>
<path d="M92.8195 82.7823C92.7688 82.833 91.0602 82.9511 89.0301 83.0355C86.9831 83.1199 84.2256 83.2718 82.8722 83.3731C81.5188 83.4744 79.5564 83.5756 78.5075 83.6263L76.6128 83.6938V86.0568C77.3402 85.9218 81.6203 85.3817 86.594 84.7909C91.5677 84.1833 95.9323 83.66 96.2707 83.6094C96.812 83.5419 96.9135 83.4744 96.8628 83.1368C96.8289 82.7823 96.7613 82.7655 94.8665 82.7148C93.8008 82.6979 92.8703 82.7148 92.8195 82.7823ZM56.7519 84.5208C56.7181 84.5546 56.1976 84.3107 55.4194 84.3782C54.6412 84.4626 53.6433 84.7318 53.2711 84.7993L52.2928 84.2251C52.2252 87.3646 52.3228 88.8753 52.4751 88.9429C52.5935 88.9766 56.7011 88.4367 61.4211 87.8628C66.1241 87.2889 70.5701 86.7925 70.6208 86.7419C70.6716 86.6912 69.5752 86.4619 68.8308 86.2256L67.4605 85.8036L67.4942 84.3304C59.2724 84.3979 56.7688 84.4702 56.7519 84.5208ZM40.3252 85.5504C40.1391 85.6348 38.8872 85.7023 37.5338 85.7023C35.453 85.7023 35.047 85.753 34.8271 85.9893C34.5902 86.2425 34.6748 86.3606 35.7237 87.3058C36.5526 88.0654 36.3721 88.3615 36.3721 88.6653C36.3721 89.0367 36.9925 89.23 38.0752 89.5676C38.7519 89.787 39.4793 90.0739 39.6823 90.209C40.0207 90.4115 40.3929 90.4115 42.3891 90.1752C43.6748 90.0233 46.1001 89.7281 46.3369 89.6606C46.743 89.5424 45.5188 89.6351 44.6729 89.2131L43.7932 88.7574V85.3817C41.3741 85.3985 40.5113 85.466 40.3252 85.5504Z" fill="white"/>
<path d="M155.295 58.5951L154.754 59.1352C155.43 60.4349 155.684 61.1775 155.752 61.6332L155.87 62.4265H158.831C158.831 60.8568 158.968 60.3312 158.444 60.1961C158.139 60.1286 157.528 60.5699 157.257 60.5699C156.902 60.5699 156.784 60.4686 156.716 60.1479C156.665 59.9116 156.665 59.6416 156.716 59.5572C156.767 59.4559 157.257 59.3884 157.816 59.3884C158.78 59.3884 158.831 59.3715 158.831 58.9664C158.831 58.7301 158.797 58.4263 158.746 58.2913C158.679 58.0887 158.357 58.0381 157.257 58.0381C155.904 58.0381 155.836 58.055 155.295 58.5782V58.5951ZM131.425 61.5995V63.1186H132.44V60.0804H131.425V61.5995ZM148.444 61.6839C148.325 62.0046 148.224 62.3759 148.207 62.5278C148.173 62.7304 148.41 62.781 149.442 62.781C150.592 62.781 150.71 62.7472 150.71 62.4434C150.71 62.2578 150.524 61.8695 150.288 61.5995C149.966 61.2113 149.729 61.0931 149.273 61.0931C148.731 61.0931 148.647 61.1606 148.444 61.6839ZM76.4436 62.7304C76.4436 63.0004 76.6973 63.051 78.3045 63.1523C79.3195 63.2367 80.1992 63.3549 80.25 63.4561C80.3007 63.5574 80.4699 63.5068 80.6729 63.3211C80.9943 63.051 80.9943 63.0173 80.7236 62.7304C80.4699 62.4772 80.1146 62.4265 78.4398 62.4434C76.6466 62.4434 76.4436 62.4772 76.4436 62.7304ZM137.515 62.9498C137.515 63.4393 137.549 63.4561 138.276 63.4561C139.004 63.4561 139.038 63.4393 139.038 62.9498C139.038 62.4603 139.004 62.4434 138.276 62.4434C137.549 62.4434 137.515 62.4603 137.515 62.9498ZM63.3327 63.0173C63.062 63.2198 63.0282 63.3211 63.1804 63.5743C63.3327 63.8275 63.6372 63.8781 64.9567 63.9287C66.1409 63.9456 66.6485 63.895 66.9361 63.7093C67.1391 63.5743 67.3082 63.3042 67.3082 63.1186C67.3082 62.7979 67.1898 62.781 65.4812 62.781C64.1616 62.781 63.5695 62.8485 63.3327 63.0173ZM119.515 63.3717C119.397 63.6924 119.295 64.03 119.278 64.1313C119.261 64.2157 119.481 64.3001 119.752 64.3001C120.023 64.3001 120.378 64.2663 120.513 64.2157C120.648 64.165 120.767 64.03 120.767 63.9119C120.784 63.8106 120.632 63.5068 120.429 63.2367C120.242 62.9835 120.006 62.781 119.921 62.781C119.82 62.781 119.633 63.0511 119.515 63.3717ZM40.9173 63.9963C40.7819 64.1144 40.6973 64.317 40.7143 64.452C40.7143 64.6039 40.8327 64.8064 40.9511 64.9246C41.0695 65.0259 41.3571 65.144 41.577 65.1778C41.797 65.1946 42.0676 65.3634 42.1691 65.5153C42.3045 65.7348 42.3045 65.9035 42.1691 66.1061C42.0676 66.2749 41.6052 66.0892 41.436 66.1061C41.2669 66.1398 41.1879 66.6462 41.0019 66.8319C40.7143 67.1188 40.4605 67.1863 39.4455 67.1694C38.7688 67.1694 38.1767 67.0851 38.1259 67.0007C38.0752 66.8994 37.6015 66.8319 37.077 66.8319C36.3834 66.8319 35.9943 66.9331 35.7744 67.1357C35.5206 67.372 35.0808 67.4395 33.4906 67.4733C32.2218 67.507 31.4605 67.4733 31.359 67.3551C31.2744 67.2538 30.6316 67.1694 29.9549 67.1694H28.7368V68.8573C30.2425 68.8573 31.8665 68.7898 33.3045 68.7054C34.7425 68.6041 37.703 68.4353 39.8684 68.3172L43.7932 68.0978V63.7937C41.6955 63.7937 41.0526 63.8781 40.9173 63.9963ZM112.308 64.4689C112.308 64.7389 112.427 64.8064 112.9 64.8064C113.374 64.8064 113.492 64.7389 113.492 64.4689C113.492 64.1988 113.374 64.1313 112.9 64.1313C112.427 64.1313 112.308 64.1988 112.308 64.4689ZM56.1767 66.0217C56.0582 66.1398 55.5676 66.3255 55.077 66.4099C54.2819 66.5618 54.1973 66.6293 54.1635 67.0513L54.1128 67.507C55.8891 67.507 57.7669 67.4226 59.4417 67.3382C62.047 67.2032 62.5206 67.2201 62.7067 67.4226C62.8759 67.6421 62.9943 67.6252 63.5018 67.2876L64.1109 66.9163C63.3496 66.1736 63.2143 66.1398 60.8458 66.1567C59.3402 66.1567 58.3082 66.0892 58.2575 65.9879C58.2067 65.8867 57.7669 65.8192 57.2763 65.8192C56.7857 65.8192 56.2782 65.9204 56.1767 66.0217ZM78.2199 65.9373C78.1353 65.9879 78.0845 66.1398 78.1015 66.2749C78.1184 66.4099 78.3214 66.4774 78.6767 66.4437C79.0488 66.4268 79.2518 66.3086 79.2688 66.1061C79.3026 65.8867 79.2011 65.8192 78.8458 65.8192C78.5752 65.8192 78.3045 65.8698 78.2199 65.9373Z" fill="white"/>
<path d="M155.786 63.0679C155.786 63.4055 155.837 64.4013 155.904 65.2622L156.04 66.815C156.818 66.815 157.461 66.7475 157.951 66.68H158.885L158.831 62.4265H155.786V63.0679ZM144.282 65.3803V68.1653C145.027 68.1653 145.213 68.0134 145.483 67.4564C145.686 67.0682 146.008 66.5618 146.211 66.3424C146.397 66.123 146.718 65.8698 146.904 65.7685C147.091 65.6504 148.038 65.4985 149.019 65.3972L150.795 65.2115C150.88 63.9119 150.863 63.3549 150.812 63.1523C150.711 62.7979 150.609 62.7641 149.442 62.7641C148.748 62.7641 148.156 62.8485 148.139 62.9329C148.106 63.0173 147.497 63.1692 146.786 63.2705C146.059 63.3717 145.314 63.4393 145.128 63.4393C144.874 63.4393 144.79 63.338 144.79 63.0173C144.79 62.7641 144.688 62.5953 144.536 62.5953C144.316 62.5953 144.282 63.0173 144.282 65.3803ZM131.476 65.7685C131.544 67.237 131.594 69.5156 131.594 70.8321V73.2289L132.694 73.2458C132.491 69.9038 132.44 67.6252 132.44 66.0217V63.1017H131.374L131.476 65.7685ZM125.335 63.5743C125.2 63.608 125.098 63.8275 125.115 64.0638C125.149 64.2832 125.098 64.5026 125.03 64.5364C124.963 64.5701 124.015 64.6714 122.916 64.7558L120.919 64.8908C120.919 64.1988 120.852 64.1482 120.547 64.2157C120.344 64.2663 119.955 64.3001 119.701 64.3001C119.448 64.3001 119.228 64.4013 119.228 64.5026C119.228 64.6208 119.414 64.9921 119.634 65.3128C119.854 65.6335 120.75 66.393 121.613 67.0007C122.493 67.5914 123.508 68.351 123.846 68.6885C124.354 69.1611 124.54 69.2286 124.692 69.0599C124.794 68.9586 125.183 68.8573 125.521 68.8573H126.164C126.164 63.6924 126.147 63.4561 125.876 63.473C125.707 63.473 125.47 63.5237 125.335 63.5743ZM137.498 65.5153V67.5914L139.021 67.507V63.4561H137.498V65.5153ZM112.292 67.1526C112.292 69.4987 112.309 69.5325 112.681 69.5325C112.884 69.5325 113.205 69.3806 113.391 69.178C113.577 68.9923 113.831 68.8404 113.95 68.8404C114.068 68.8404 114.203 68.7729 114.237 68.6716C114.288 68.5873 114.153 68.2834 113.95 67.9965C113.645 67.5577 113.56 67.2201 113.544 66.1398L113.51 64.7896H112.292V67.1526ZM95.8819 67.7433V69.6844H96.7278V65.8023H95.8819V67.7433ZM41.7127 89.6604L71.8775 86.426L84.7579 84.8853L108.975 82.0432L158.549 75.9761L157.951 49.9473L117.06 44.9999L41.7127 39.7654L31.1742 78.4642L41.7127 89.6604ZM60.1672 64.5119C58.9153 64.5795 56.1752 66.1196 54.9402 66.1196L52.4044 67.4901V71.8786C53.8593 71.8786 54.4007 71.9799 54.5698 72.0811C54.8236 72.2499 55.4834 71.9124 58.7992 70.0219C61.489 68.4691 63.1166 67.7981 63.0828 67.6124C63.049 67.4605 65.649 66.2226 65.2599 66.2057C64.9385 66.2057 61.436 64.4444 60.1672 64.5119ZM39.3552 68.0048C38.2894 68.0723 35.4702 68.5704 33.051 68.6885L28.7202 68.7512V73.0601C34.9627 72.8744 35.9439 72.8913 36.0454 73.0432C36.13 73.1614 36.7052 73.2458 37.568 73.2458C38.7522 73.2458 39.0059 73.1951 39.2935 72.8913C39.615 72.5875 39.8349 72.5537 41.7127 72.5537H43.7766L43.9396 68.0048C42.0448 68.0554 40.4379 67.9373 39.3552 68.0048Z" fill="white"/>
<path d="M43.7739 53.1241V54.3056H45.7038L45.7038 53.1241L45.7518 51.9426H43.7739V53.1241ZM67.289 54.6432V57.3438L70.381 57.3438L70.3341 51.9426H67.289V54.6432ZM88.6048 58.9979C88.6048 59.3355 88.6555 59.8756 88.7232 60.1794C88.9008 61.3732 88.927 60.8086 89.553 60.8086C90.0266 60.8255 90.4524 60.6767 90.723 60.4067C91.0106 60.1197 90.9732 59.7574 90.9732 59.1498L91.0683 58.3397L88.6048 58.3565V58.9979ZM145.041 61.6141C144.99 61.9179 144.939 62.2217 144.939 62.2893C144.939 62.3568 145.278 62.4074 145.701 62.4074C146.124 62.4074 146.575 62.4749 146.609 62.4074C146.642 62.3399 146.711 61.9545 146.762 61.6507L147.069 60.9426C145.445 60.9426 145.142 61.0909 145.041 61.6141ZM151.96 61.5635C151.774 61.7491 151.419 61.9348 151.165 61.9854C150.776 62.0698 150.691 60.4737 150.691 62.5762L150.886 63.2296L153.044 63.3636C153.044 62.3847 152.637 61.6816 152.518 61.5128C152.315 61.2259 152.281 61.2259 151.96 61.5635ZM122.016 62.7281C121.915 62.8125 121.56 62.9644 121.221 63.0657C120.765 63.2007 120.612 63.3357 120.663 63.5045C120.714 63.6564 120.748 63.8421 120.748 63.9265C121.145 65.3349 121.051 64.132 121.423 64.0813C121.762 64.0307 122.219 63.8758 122.49 63.8421C122.778 63.7915 123.64 64.1177 123.015 63.421C123.103 63.1704 122.828 63.0488 122.659 62.88C122.49 62.7281 122.356 62.3971 122.306 62.3971C122.255 62.3971 122.101 62.6437 122.016 62.7281ZM113.473 65.243C113.473 66.0532 113.541 66.9815 113.625 67.3191C113.727 67.6904 114.133 68.2137 114.725 68.7875C115.25 69.277 116.255 69.89 116.34 69.89C116.442 69.89 116.011 69.5471 116.011 69.3783C116.011 69.2095 116.095 68.9901 116.214 68.8719C116.4 68.7031 116.577 68.746 116.34 68.4928C116.171 68.3241 115.775 67.6904 115.64 67.3191C115.488 66.9309 115.429 66.0618 115.429 65.201L115.477 63.7577L113.52 63.7577L113.473 65.243ZM96.8097 65.243C96.7251 65.2937 96.8538 64.9223 96.8707 65.243L96.7365 66.4833L99.2109 66.5024L99.2397 65.1148C97.5818 65.1148 96.8942 65.1755 96.8097 65.243ZM139.035 66.9309C139.018 67.3697 139.069 68.2137 139.154 68.8044L139.195 69.9091L141.048 69.8509L141.094 66.1962L139.035 66.1207V66.9309ZM79.148 67.6567C79.148 68.1462 79.1649 68.163 79.9939 68.163C81.3241 68.2058 80.9788 68.1462 80.9788 67.6567C80.9788 67.1672 81.3241 66.9741 79.9939 67C79.1649 67 79.148 66.7799 79.148 67.6567ZM145.362 67.6567C145.21 67.9267 144.969 68.7169 144.969 68.8182C144.969 68.9026 145.872 68.7034 146.244 68.7034C146.785 68.7034 146.616 68.4335 146.887 68.0622C147.073 67.7922 147.51 67.4362 147.51 67.3349C147.51 67.183 146.885 67.1503 146.394 67.1503C145.718 67.1503 145.599 67.2178 145.362 67.6567ZM43.7908 69.3445V70.8636H45.6517V67.8255H43.7908V69.3445ZM132.443 67.8517C132.358 67.9023 132.387 68.3993 132.404 68.8213C132.421 69.2433 132.488 70.1041 132.556 70.7455L132.577 71.89L134.025 71.89L134.025 69.8517L134.025 67.823C133.01 67.823 132.511 67.7842 132.443 67.8517ZM126.212 70.4923L126.314 72.9331L127.897 72.9331L127.87 68.163H126.161L126.212 70.4923ZM70.6048 71.9607C69.4882 72.6528 67.4321 73.3941 67.3982 73.4785C67.3813 73.546 68.7269 73.5473 69.0314 73.6148C69.336 73.6824 69.8728 73.8973 70.1604 73.8804C71.1059 74.2767 71.3134 73.3803 72.2608 72.7895C73.0897 72.2663 73.6837 71.8088 73.7345 71.7751C73.872 71.7751 73.5653 71.4881 73.2608 71.2012C72.9563 70.9311 72.7025 70.7117 72.6687 70.7117C72.6517 70.7117 71.7213 71.2856 70.6048 71.9607ZM145.751 71.3193C145.328 71.3531 145.125 71.4544 145.125 71.64C145.125 71.7751 145.21 72.062 145.328 72.2983C146.225 73.7465 145.633 72.6865 146.225 72.6021C146.597 72.5515 147.38 72.6021 147.414 72.6021C147.448 72.5852 147.048 72.1775 146.963 71.823C146.862 71.4686 146.801 71.1171 146.733 71.134C146.666 71.1509 146.107 71.2856 145.751 71.3193ZM114.201 72.8384C113.49 72.8891 113.49 72.9059 113.49 73.5811L113.626 74.6747C115.47 74.6747 115.492 75.5421 115.385 73.7465C115.52 73.2742 115.436 73.2098 115.689 73.1591C115.875 73.1085 117.283 73.0462 117.232 72.9618C117.181 72.8605 115.639 72.7371 115.385 72.754C115.131 72.7709 114.607 72.8047 114.201 72.8384ZM107.654 73.5136C107.434 73.5642 107.332 73.7161 107.349 73.9187C107.104 75.3446 107.535 74.2562 107.738 74.2562C107.924 74.2562 108.381 74.4081 108.753 74.5938C109.125 74.7795 109.711 75.1031 109.914 75.0862C110.202 75.0524 110.274 74.692 110.307 74.3206C110.341 74.0337 110.394 73.733 110.496 73.6148C112.302 73.4785 110.445 73.3954 109.345 73.4123C108.601 73.4292 107.84 73.4798 107.654 73.5136ZM96.742 74.1718C96.742 74.4925 96.8583 75.2214 96.9091 75.3733C96.9768 75.5589 97.1818 75.2689 98.0108 75.2689L99.2684 75.3733L99.2684 74.4163L99.2684 73.5811L96.742 73.5811V74.1718ZM79.148 75.4377V76.2817L81.0363 76.2817L80.998 74.5503L79.1182 74.5503L79.148 75.4377ZM47.1743 77.7501C45.6687 79.3198 44.9581 80.1806 44.6198 80.9233C44.3491 81.4803 44.0255 82.3315 44.0255 82.4834C44.0085 82.6184 44.3658 82.569 44.6872 82.6365C44.9917 82.704 45.4382 82.7682 45.6751 82.7513C46.4081 83.0823 46.1762 82.4761 46.7345 81.2946C47.5453 80.024 47.7738 79.6574 49.1949 78.2058C50.6667 76.7374 51.5446 76.9331 50.5578 76.231C50.4224 76.1129 50.1348 75.9272 49.9149 75.8091C49.7119 75.6909 49.4751 75.6065 49.4074 75.6065C49.3228 75.6065 48.3247 76.5686 47.1743 77.7501ZM67.4751 81.936V83.5395H70.6893C70.6893 82.6787 70.9643 81.7845 70.8797 81.2106L70.6893 80.3326L67.4751 80.3325V81.936Z" fill="#CBCCCE"/>
<path d="M156.851 66.7644L155.955 66.815V71.5411H159C159 69.9038 158.966 68.8067 158.932 68.0472L158.882 66.6462C157.985 66.6969 157.325 66.7306 156.851 66.7644ZM137.6 67.6083C137.515 67.659 137.481 68.486 137.498 69.4143C137.532 70.3595 137.6 71.5579 137.667 72.098L137.769 73.077C138.412 72.6044 138.733 72.1656 138.902 71.7942C139.071 71.3891 139.207 70.6971 139.207 70.1064C139.207 69.5494 139.156 68.7392 139.088 68.2835C138.953 67.5071 138.936 67.4902 138.344 67.4902C138.006 67.4902 137.684 67.5408 137.6 67.6083ZM144.197 68.9755C144.13 69.4143 143.944 70.2076 143.757 70.7478C143.588 71.271 143.47 71.7942 143.521 71.8786C143.571 71.9799 143.927 72.0474 144.333 72.0474H145.043C145.043 68.2328 145.026 68.1653 144.671 68.1653C144.367 68.1653 144.299 68.3003 144.197 68.9755ZM114.051 68.7561C113.848 68.8573 113.543 69.0768 113.374 69.2287C113.205 69.3806 112.934 69.5156 112.782 69.5156C112.562 69.5156 112.477 69.6506 112.477 70.022C112.477 70.292 112.427 70.5621 112.359 70.5958C112.274 70.6465 110.363 70.8321 108.079 71.0178C105.795 71.2204 103.883 71.3723 103.816 71.3723C103.731 71.3723 103.68 71.9799 103.68 72.7226C103.68 73.7522 103.731 74.0391 103.9 73.9547C104.002 73.8872 104.898 73.769 105.88 73.6846C106.861 73.6171 108.976 73.5159 110.583 73.4821C112.765 73.4146 113.492 73.3471 113.492 73.1952C113.492 73.0601 113.848 72.9251 114.457 72.8576C114.998 72.7901 115.861 72.7901 116.368 72.8407C116.876 72.8914 117.333 72.9926 117.383 73.0601C117.434 73.1276 117.874 73.2289 118.365 73.2796L119.244 73.3977C119.244 72.5369 119.041 72.1656 118.618 71.693C118.263 71.3216 117.367 70.6127 116.622 70.157C115.878 69.6844 115.083 69.1274 114.846 68.9249C114.474 68.621 114.355 68.5873 114.051 68.7561ZM124.692 69.0599C124.556 69.2118 124.573 69.3806 124.776 69.7688C124.929 70.0389 125.098 70.7815 125.148 71.4229C125.25 72.52 125.267 72.5538 125.724 72.5538H126.18V68.8405C125.182 68.8405 124.81 68.9417 124.692 69.0599ZM95.8985 72.3512V75.0012L96.7443 74.9168V69.6844H95.8985V72.3512ZM76.4436 73.2458C76.4436 74.3598 76.4943 75.2881 76.562 75.3388C76.6297 75.3725 77.2387 75.3556 77.9154 75.2881L79.1504 75.1868V71.2204H76.4436V73.2458ZM52.421 72.7394C52.421 73.1952 52.4718 73.5665 52.5394 73.5665C52.6071 73.5665 53.1485 73.2964 53.7237 72.9757C54.6372 72.4863 54.7556 72.3512 54.5695 72.1318C54.4342 71.9461 54.0789 71.8786 53.3853 71.8786L52.421 71.8955V72.7394ZM39.5467 72.1318C39.276 72.4187 38.7519 73.2458 37.6184 73.2458C36.8571 73.2458 35.8908 72.3836 35.8062 72.2824C35.6878 72.1642 34.7733 72.2149 32.2864 72.2824L28.7368 73.077C28.7368 75.4232 28.8045 76.4696 28.906 76.9085L29.3516 78.5695C33.8686 78.4851 35.5207 77.533 36.265 77.4486C37.0094 77.3642 39.0346 77.9092 40.7263 77.9092L43.7932 77.2967V72.5707C39.8176 72.5707 39.8342 71.828 39.5467 72.1318ZM66.547 74.4442C66.2594 74.613 65.921 74.8324 65.7857 74.9168C65.5489 75.0518 65.5489 75.0856 65.7857 75.3388C65.9379 75.5075 66.2932 75.6088 66.75 75.6088H67.4774C67.4774 74.3429 67.4098 74.0897 67.2575 74.0897C67.1391 74.1066 66.8176 74.2585 66.547 74.4442Z" fill="white"/>
<path d="M55.0434 48.5692C54.7558 48.6367 54.316 48.8223 54.0284 49.008L53.5208 49.3456C64.2126 49.4975 65.0923 49.5481 65.5321 49.8013C65.8197 49.9532 66.2426 50.2908 66.4964 50.5608C66.7502 50.814 67.0378 51.236 67.1223 51.4892C67.4081 52.464 67.3253 51.9618 68.831 51.9618H70.3535C70.3535 51.0503 70.252 50.5777 70.1167 50.3077C69.9814 50.0545 69.6599 49.6494 69.3893 49.3962C69.1355 49.143 68.6361 48.7617 68.2808 48.6267C67.7564 48.3904 66.7163 48.4172 61.5904 48.4341C58.2746 48.451 55.331 48.5016 55.0434 48.5692ZM43.9457 50.6284C43.8611 51.0841 43.7764 51.8267 43.7764 51.9618C43.7764 52.1474 44.0133 51.9618 44.6731 51.9618H45.7233C45.9094 50.4596 46.059 50.0334 45.7727 50.0038C45.7558 49.987 45.3667 49.9363 44.9269 49.9026L44.1148 49.8182L43.9457 50.6284ZM88.6073 57.6836V58.3588H91.059V57.0286L88.6073 57.0085V57.6836ZM145.703 60.0129C145.466 60.3505 145.125 61.1976 145.141 61.3158C145.141 61.4508 145.588 61.1868 146.129 61.1531C146.84 61.1193 147.193 61.0633 147.328 60.6076C147.447 60.2025 147.453 59.9282 146.87 59.6584C146.701 59.5065 146.464 59.3715 146.346 59.3715C146.228 59.3715 145.94 59.6584 145.703 60.0129ZM116.656 60.2154C116.419 60.283 115.996 60.4517 115.726 60.5868C115.472 60.7387 115.032 61.11 114.778 61.4138C114.508 61.7345 114.135 62.2746 113.966 62.6291C113.797 62.9667 113.511 63.7836 113.511 63.9186C113.511 64.1212 113.865 63.76 114.491 63.76C115.055 63.76 115.515 63.9484 115.515 63.8134C115.515 63.6952 115.65 62.9536 115.87 62.4641C116.107 61.9746 116.716 61.1923 117.088 60.7703C117.461 60.3652 118.997 59.7464 117.333 60.0635C117.214 60.0804 116.91 60.131 116.656 60.2154ZM149.831 60.7049C149.391 60.7724 148.985 60.8737 148.917 60.9412C148.833 61.0087 149.019 61.0594 149.323 61.0594C149.713 61.0594 149.966 61.2113 150.271 61.5657C150.609 61.9708 150.795 62.0552 151.167 61.9877C151.421 61.9371 151.842 61.8245 152.028 61.622L152.488 61.3827C152.032 60.6524 151.269 60.553 151.032 60.5699C150.812 60.5868 150.254 60.6543 149.831 60.7049ZM120.243 62.4265L119.82 62.5953C121.393 64.5215 120.564 63.2705 121.173 63.0848C121.545 62.9667 121.951 62.8148 122.07 62.7304C122.188 62.646 122.28 62.4697 122.229 62.3684C122.195 62.284 121.782 62.2578 121.393 62.2578C120.987 62.2578 120.479 62.3421 120.243 62.4265ZM139.021 64.4351V66.123L141.085 66.2536L140.979 62.7472H139.021V64.4351ZM132.508 63.5405C132.44 63.6081 132.389 64.6039 132.406 65.7685L132.423 67.8952L134.045 67.8421V65.622L134.093 63.4115C133.095 63.4115 132.592 63.473 132.508 63.5405ZM126.164 65.9542V68.177H127.868C127.868 66.8099 127.839 65.7854 127.822 65.0765L127.771 63.76H126.164V65.9542ZM96.9983 64.4857C96.9475 64.6883 96.8304 65.1813 96.8134 65.2488C96.8134 65.3163 97.4106 65.1722 98.0027 65.1722C98.6117 65.1722 99.2591 65.1823 99.2591 65.1148C99.276 65.0473 99.2924 64.6666 99.3262 64.4641C99.9976 62.5024 99.2144 64.0975 98.1825 64.0975C97.2013 64.0975 97.0998 64.1313 96.9983 64.4857ZM79.2623 66.1005C79.1946 66.168 79.0998 66.5281 79.1167 66.7475C79.1167 67.5742 79.2182 67.1357 79.9795 67.1357C80.4532 67.1357 80.979 67.1632 80.979 67.0957C80.996 67.0282 80.9452 66.7145 80.979 66.512C81.24 65.6515 80.9438 66.123 80.1825 66.123C79.7257 66.123 79.3469 66.033 79.2623 66.1005ZM57.1411 70.9671C55.331 72.0305 53.1994 73.2289 52.4043 73.634C51.6261 74.0391 50.6449 74.5961 50.2558 74.883C49.6468 75.3218 49.105 75.4983 49.2911 75.7178C49.4095 75.8528 50.0359 75.9295 50.1205 75.9295C50.222 75.9295 50.7811 76.5611 50.9503 76.713C51.221 76.9324 51.0721 76.363 52.3409 75.5359C53.1022 75.0296 55.8053 74.182 57.7693 72.7417C59.8671 71.5264 61.6773 70.5176 61.7111 70.4163C61.7281 70.315 61.1844 69.6506 60.9475 69.4143C60.7276 69.1949 60.5077 69.0092 60.4908 69.0092C60.4569 69.0261 58.9682 69.9038 57.1411 70.9671ZM73.4156 70.2245C73.1111 70.3764 72.309 70.5374 72.309 70.6555C72.309 70.7737 73.0772 71.1022 73.3479 71.3047L73.69 71.9857C75.6694 70.7873 76.3423 70.1063 76.3592 70.0895C76.3592 70.0557 75.8178 70.0051 75.1581 69.9882C74.2445 69.9375 73.8216 70.0051 73.4156 70.2245ZM43.7765 74.9843V79.1195C44.7577 79.4234 45.4966 79.4048 45.6658 79.3541C45.9364 79.2529 45.6849 78.9227 45.6849 75.0575L45.6849 70.849H43.7765V74.9843ZM145.72 72.7057C145.669 72.8069 145.788 73.077 146.008 73.3133C146.211 73.5665 146.583 73.8534 146.803 73.9715C147.04 74.0897 147.513 74.2247 147.869 74.2922L149.15 74.4737C148.102 73.2416 147.347 72.6044 147.347 72.5369C147.347 72.4694 146.854 72.5369 146.481 72.5369C146.109 72.5369 145.771 72.6213 145.72 72.7057ZM96.9814 75.862C97.049 76.2164 97.2182 76.7228 97.3366 76.976C97.472 77.2291 97.8272 77.7186 98.1317 78.0562C98.4363 78.3938 98.9438 78.7989 99.2652 78.9508C99.6035 79.1195 100.28 79.3052 100.788 79.3727L102.069 79.4977C100.834 78.2993 99.9919 77.5915 99.8058 77.2202C99.6197 76.8488 99.5163 76.3137 99.4317 75.9761L99.299 75.2871L96.8799 75.2206L96.9814 75.862ZM79.2182 76.8916C79.2859 77.2291 79.472 77.8705 79.6581 78.2756C79.8442 78.6976 80.2671 79.339 80.6054 79.6934C80.9607 80.0479 81.502 80.4698 81.8235 80.6386C82.1618 80.8074 82.6693 80.9931 82.9738 81.0437L83.6453 81.1149C82.1227 79.6127 81.4571 78.556 81.401 78.4068C81.198 77.8667 81.0654 77.1845 81.0654 76.847V76.2502H79.1472L79.2182 76.8916ZM67.4607 78.6301V80.3179L70.995 80.6939L72.1459 78.6301L70.5058 76.9422H67.4607V78.6301Z" fill="#BBBCBF"/>
<path d="M43.7742 55.4925L43.7956 56.7183H44.6971H45.6351L45.685 54.311H43.7742V55.4925ZM67.2893 60.3874V63.4255C68.9303 63.2905 69.6746 63.2061 69.9961 63.1555L70.5882 63.0711C70.3852 61.8389 70.4004 60.5764 70.4004 59.4455L70.3621 57.3492H67.2893V60.3874ZM145.074 62.1293C144.99 62.1799 144.72 62.8179 144.737 63.0373C144.771 63.3411 144.872 63.4255 145.244 63.4255C145.498 63.4255 145.87 63.3918 146.09 63.3411C147.53 63.3411 146.897 62.8924 146.897 62.5886C146.897 62.2004 146.395 62.4128 145.735 62.4128C145.329 62.4128 145.159 62.0618 145.074 62.1293ZM150.878 64.1007V65.3637C152.13 65.3806 152.739 65.0417 152.857 64.9235C152.975 64.7885 153.033 64.2619 153.016 63.8231L152.806 63.1723L150.878 63.0711V64.1007ZM122.118 63.8812C121.881 63.915 121.526 63.9825 121.323 64.0331C121.103 64.0838 120.819 63.9762 120.934 64.4551C120.934 64.7421 121.036 64.7927 122.034 64.7927L123.246 64.6365C123.246 63.7419 123.049 63.78 122.829 63.7968C122.66 63.8137 122.338 63.8475 122.118 63.8812ZM43.7912 66.143V67.8309H45.6521V64.4551H43.7912V66.143ZM96.7423 66.9869V67.4933H99.2113V66.4806H96.7423V66.9869ZM79.1483 69.0124V69.8805H80.9503V68.125L79.1483 67.8667V69.0124ZM116.18 68.8773C116.045 68.9786 115.96 69.2318 115.994 69.4174C116.011 69.6369 116.4 70.0082 117.06 70.447C117.635 70.8184 118.363 71.426 118.684 71.7973C119.225 72.405 119.276 72.5231 119.175 73.1814L118.959 74.2537C120.211 74.2537 120.73 74.104 120.848 73.9858C120.95 73.8677 121.178 73.3721 121.126 72.7801C121.126 72.2231 121.007 71.9462 120.58 71.5743C120.346 71.305 119.276 70.5821 118.396 69.9913C117.517 69.4006 116.584 68.704 116.465 68.6365C116.364 68.569 116.299 68.7761 116.18 68.8773ZM139.188 70.4808C139.188 70.8353 139.036 71.4429 138.849 71.8311C138.663 72.2193 138.443 72.5906 138.359 72.6413C137.661 73.232 138.224 72.9653 138.359 73.1341C138.477 73.286 138.849 73.3064 139.188 73.3064C139.594 73.3064 139.97 73.1272 140.308 72.7896C140.562 72.5364 140.856 72.029 140.941 71.7083C141.042 71.3707 141.066 70.8353 141.066 70.4808V69.8563H139.205L139.188 70.4808ZM144.94 70.9365C145.266 72.5025 145.007 71.3585 145.616 71.3585C145.989 71.3585 146.693 71.2641 146.743 71.1628C146.777 71.0784 146.564 70.7715 146.446 70.6365C146.328 70.4846 145.786 70.4977 145.481 70.5146C145.007 70.5146 144.94 70.5821 144.94 70.9365ZM96.7254 72.7088L96.7423 73.6317H99.1825V71.8805L96.7423 71.848L96.7254 72.7088ZM132.573 73.9072C132.573 75.6963 132.607 75.9326 132.878 76.0001C133.03 76.0339 133.707 76.1936 133.927 76.2442C134.299 76.3455 134.083 76.2493 134.083 74.0719V71.8817H132.573V73.9072ZM126.314 74.7511V76.6078C127.041 76.7428 127.38 76.8272 127.549 76.8609C128.358 77.0959 127.955 76.7634 127.955 74.9236L127.897 72.8945H126.314V74.7511ZM79.1145 73.9072V74.5823H80.9887V73.1873L79.1145 73.232V73.9072ZM107.316 74.3629C107.282 74.4304 107.197 74.6836 107.146 74.9199C106.778 75.9326 107.092 75.4073 107.718 75.6605C108.107 75.8292 108.703 75.9326 108.99 75.9326C109.261 75.9326 109.612 75.8456 109.713 75.7274C109.832 75.6093 110.02 75.1916 110.02 75.1916C110.308 74.7801 109.786 74.9199 109.65 74.9199C109.515 74.9199 109.092 74.768 108.72 74.5823C108.348 74.3967 107.891 74.2447 107.722 74.2447C107.536 74.2447 107.349 74.2954 107.316 74.3629ZM113.626 74.5317C113.626 74.7005 113.677 75.0043 113.71 75.2068C114.298 76.4643 113.962 75.7179 114.605 75.7179L115.602 75.67L115.317 74.2447C113.778 74.2447 113.626 74.2954 113.626 74.5317ZM43.8927 83.2917C43.8081 83.7474 43.7573 85.1484 43.7573 86.4311V88.7604C45.263 89.5368 46.0489 89.6945 46.1165 89.6945C46.1842 89.6945 46.1165 88.2002 46.1165 86.2591L46.1549 82.7184C45.5628 82.7015 44.9246 82.6334 44.6032 82.5659L44.0111 82.4647L43.8927 83.2917ZM67.4585 84.6758L67.4415 85.8066C69.81 86.5324 70.6278 86.728 70.6786 86.728C70.9663 86.7663 70.7649 84.6758 70.7649 84.6758L70.6727 83.528H67.4585V84.6758Z" fill="#DADCDE"/>
<path d="M137.515 60.9075V62.4266H139.038V59.3884H137.515V60.9075ZM144.316 60.975C144.282 62.4941 144.299 62.5953 144.621 62.5953C144.891 62.5953 144.976 62.4603 145.044 61.8696C145.094 61.4814 145.28 60.8568 145.466 60.4855C145.653 60.1142 145.754 59.7597 145.669 59.6922C145.602 59.6078 145.28 59.5065 144.942 59.4559L144.333 59.3378L144.316 60.975ZM156.733 59.5741C156.683 59.6585 156.683 59.9285 156.733 60.1648C156.784 60.4855 156.919 60.5868 157.275 60.5868C157.528 60.5868 157.985 60.6374 158.29 60.7049L158.848 61.0574L158.665 50.0908C157.091 50.0908 156.784 59.4728 156.733 59.5741ZM110.465 60.2661C110.329 60.3842 110.245 60.553 110.262 60.6543C110.278 60.7556 110.583 61.1438 110.921 61.5151C111.26 61.8864 111.666 62.4941 111.835 62.8654C112.004 63.2367 112.139 63.6756 112.139 63.8275C112.156 64.0638 112.292 64.1313 112.833 64.1313C113.459 64.1313 113.51 64.0975 113.679 63.4899C113.763 63.1523 114.017 62.5616 114.237 62.1903C114.457 61.8189 114.897 61.2957 115.218 61.0425C115.675 60.6543 115.743 60.5193 115.574 60.3674C115.421 60.2323 114.525 60.1479 113.036 60.0973C111.327 60.0635 110.651 60.1142 110.465 60.2661ZM95.9157 63.2874V65.8192C96.6939 65.8192 96.7785 65.701 96.9307 65.009C97.0322 64.5701 97.2521 63.9456 97.4213 63.6249C97.5905 63.2874 97.9288 62.781 98.1657 62.4772C98.6055 61.954 98.6055 61.9202 98.3179 61.5826C98.1488 61.397 97.7935 61.1269 97.5228 60.9919C97.2352 60.8568 96.7615 60.7387 96.457 60.7387L95.9157 60.7556V63.2874ZM124.168 60.84C124.168 60.8737 124.32 61.2282 124.506 61.5995C124.692 61.9708 124.895 62.5785 124.963 62.9498C125.064 63.5406 125.149 63.6249 125.436 63.5574C125.622 63.4899 125.859 63.4562 125.978 63.4562C126.13 63.4562 126.198 63.0679 126.198 62.1059V60.7556C124.624 60.7556 124.168 60.7893 124.168 60.84ZM58.7822 62.9498C58.7315 63.0511 57.6191 62.4832 55.7074 62.4832L52.4382 63.1186V67.507C54.0792 67.507 54.13 67.4733 54.1638 67.0344C54.1976 66.6293 54.2991 66.5618 55.0943 66.4099C55.5679 66.3087 56.0585 66.1399 56.177 66.0217C56.2954 65.9036 56.786 65.8192 57.2935 65.8192C57.7841 65.8192 58.224 65.8867 58.2747 65.988C58.3255 66.0892 59.3405 66.1567 60.8461 66.1399C63.1638 66.1399 63.3668 66.1736 63.6882 66.4943C63.8743 66.6969 64.1281 66.815 64.2803 66.7813C64.4157 66.7475 65.7691 66.0048 67.2747 65.1271C68.7973 64.2495 71.0623 63.1801 71.0623 63.0957C71.0623 62.9775 69.5416 63.2367 68.6788 63.3211C67.9345 63.3886 67.0741 63.4031 66.8711 63.555C66.5835 63.7407 66.1582 63.9456 64.957 63.9119C63.4176 63.8781 63.333 63.8444 63.1469 63.4562C62.9608 63.0679 62.8085 63.0173 61.5397 62.8992C60.7615 62.8316 59.848 62.781 59.5097 62.781C59.1544 62.781 58.833 62.8485 58.7822 62.9498ZM76.4777 64.7727L76.4608 66.4943C78.0003 66.4943 78.1525 66.4268 78.2371 66.1567C78.2879 65.9204 78.457 65.8192 78.7785 65.8192C79.1845 65.8192 79.3198 65.6673 79.7935 64.6714C80.098 64.0469 80.2841 63.4899 80.2164 63.4224C80.1488 63.3549 79.286 63.2536 78.3048 63.1861L76.4946 63.0679L76.4777 64.7727ZM33.4063 64.2495C33.3217 64.3507 32.6619 64.4689 31.9683 64.5364C31.2747 64.587 30.2597 64.6714 29.7352 64.7221L28.754 64.7896L28.7285 67.2584C30.6233 67.2584 31.291 67.4633 31.3756 67.5646C31.4771 67.6828 32.2263 67.6749 33.4951 67.6412C35.0854 67.5905 35.5697 67.6669 35.8065 67.4306C36.0264 67.2281 36.3885 66.9426 37.0821 66.9426C37.6065 66.9257 38.0384 67.1931 38.0891 67.2775C38.1399 67.3788 38.8223 67.2894 39.499 67.3062C40.514 67.3062 40.7315 67.1019 41.0191 66.8319C41.2052 66.6293 41.5097 66.4606 41.6788 66.4437C41.848 66.4099 42.0849 66.258 42.1864 66.1061C42.3217 65.8867 42.3217 65.7348 42.1864 65.5154C42.0849 65.3466 41.7803 65.1778 41.5097 65.1271C41.2221 65.0765 40.9514 64.8908 40.8499 64.6714C40.6807 64.3001 40.63 64.2832 37.8894 64.2832C36.3499 64.2832 34.7597 64.2495 34.3367 64.1988C33.9138 64.1313 33.5078 64.1651 33.4063 64.2495Z" fill="white"/>
<path d="M47.5705 45.143C47.0122 45.5649 46.234 46.2907 45.8449 46.7802C45.4559 47.2697 44.9314 48.0461 44.6946 48.5018C44.4577 48.9744 44.0754 49.7212 44.1262 49.89C44.1938 50.0926 44.6607 49.9365 45.1006 49.9365C46.0649 50.5503 45.7434 49.9196 46.0649 48.9744C46.234 48.4343 46.5798 47.6708 46.7828 47.2489C46.9858 46.8269 47.5464 46.0237 48.0201 45.4498C48.4937 44.859 49.1043 44.3589 49.0367 44.3589C48.9521 44.3589 48.1119 44.7041 47.5705 45.143ZM126.693 54.7132L125.948 55.0676L126.016 57.3631C129.45 57.2787 130.161 57.1943 130.584 56.9749C131.159 56.7048 131.142 56.7049 129.433 56.823L127.708 56.9412C127.708 54.9157 127.657 54.325 127.572 54.3418C127.505 54.3418 127.116 54.5106 126.693 54.7132ZM89.7284 55.5909C88.8149 55.9453 88.7134 56.0297 88.6795 56.5023L88.6288 57.0255H91.0156C91.0156 55.5909 91.1002 55.1724 91.0156 55.1724C90.9479 55.1892 90.2867 55.3883 89.7284 55.5909ZM140.649 58.7978C140.565 58.8316 140.142 58.9497 139.736 59.051L138.992 59.2367L139.042 62.7643H140.998C140.998 59.6249 140.886 58.7134 140.869 58.7303C140.836 58.7303 140.734 58.764 140.649 58.7978ZM147.586 58.8316C147.399 58.8822 147.061 58.9835 146.824 59.0679L146.177 59.4499C146.702 59.99 147.325 60.0792 147.376 60.0623C147.427 60.0623 147.506 59.6845 147.76 59.3638C148.013 59.0431 148.604 58.6269 148.537 58.6269C148.469 58.6438 147.772 58.7978 147.586 58.8316ZM133.121 59.2873L132.529 59.5067L132.453 63.7083L134.064 63.4308C134.064 60.0213 134.074 59.1054 134.074 59.1054C133.989 59.1054 133.443 59.1691 133.121 59.2873ZM126.693 59.5911L126.101 59.7768L126.185 63.777H127.782C127.782 59.9287 127.734 59.3829 127.734 59.3829C127.616 59.3998 127.014 59.5067 126.693 59.5911ZM100.133 61.1777C99.7096 61.3127 99.1006 61.6334 98.7791 61.8866C98.4577 62.1398 97.984 62.6799 97.7303 63.1019C97.4596 63.5238 97.1491 64.1885 97.1491 64.2729C97.1491 64.3404 97.7134 64.1146 98.2716 64.1146H99.2867C99.9464 62.8149 100.489 62.092 100.861 61.67C101.233 61.248 102.117 60.7131 102.117 60.7131C102.117 60.7131 100.555 61.0427 100.133 61.1777ZM71.8976 62.4267C71.1532 62.8487 69.2585 63.9289 67.7021 64.8572C66.1457 65.7687 63.9295 67.0515 62.7791 67.7266C61.6457 68.3849 60.3922 68.9851 60.3922 69.0863C60.3922 69.1707 60.9182 69.4314 61.1382 69.6508L61.4855 70.1294C72.1773 63.9856 75.513 62.0133 75.6991 61.8614C76.9867 61.4753 75.907 61.5828 74.6382 61.6165C73.3355 61.6672 73.1494 61.7178 71.8976 62.4267ZM82.6231 61.9372C82.1494 62.1229 81.422 62.6124 80.9652 63.0681C80.5254 63.507 79.9671 64.2665 79.7472 64.756C79.5103 65.2286 79.2285 66.0613 79.2285 66.1964C79.2285 66.382 79.5273 66.14 80.1701 66.14C80.8637 66.14 81.016 66.0894 81.016 65.8531C81.016 65.6843 81.281 65.0719 81.5686 64.4643C81.907 63.7723 82.4201 63.0175 82.9953 62.4774C83.5028 61.9879 84.2574 61.5552 84.139 61.5552C84.0205 61.5721 83.0968 61.7516 82.6231 61.9372ZM147.078 65.6674C146.892 65.7687 146.554 66.005 146.351 66.2075C146.131 66.3932 145.466 67.4703 145.381 67.6222C145.246 67.8923 145.725 67.1527 146.452 67.1527C147.999 67.4978 147.395 67.1906 148.038 66.3973L148.978 65.4117C148.047 65.4117 147.264 65.5662 147.078 65.6674ZM67.7867 73.6342C67.3468 73.8536 67.3468 73.8705 67.4145 75.4064L67.4822 76.9424H70.5273V73.8198C69.157 73.651 68.6325 73.5498 68.4972 73.4991C68.3619 73.4485 68.0404 73.516 67.7867 73.6342ZM90.5235 80.1493C90.2021 80.7232 90.1852 80.8414 90.4051 80.9089C90.5404 80.9595 90.7773 80.9933 90.9126 80.9933C91.7399 81.1151 91.1664 80.7907 91.1664 80.2337C91.1664 79.8118 91.1156 79.4742 91.031 79.4742C90.9634 79.4742 90.7265 79.778 90.5235 80.1493Z" fill="#A9ACAE"/>
<path d="M44.4023 21.9516C43.9455 22.2554 43.2519 22.8462 42.8798 23.2681C42.3046 23.8758 42.1523 24.1965 42.0508 24.9223C41.9831 25.4792 42.0001 25.935 42.1185 26.1882C42.2369 26.3907 42.5076 27.4709 42.7275 28.5849C42.9474 29.6989 43.4549 31.5556 43.844 32.7202C44.2162 33.8848 44.9267 35.5896 45.4004 36.5179L46.2463 38.2058C49.0038 38.4083 49.9004 38.4421 50.0019 38.4252C50.1373 38.3914 50.0358 38.1045 49.7143 37.615C49.4437 37.193 48.9192 36.1297 48.564 35.252C48.1918 34.3743 47.6504 32.8046 47.3628 31.7919C47.0752 30.7792 46.6692 29.0913 46.4831 28.0786C46.2801 27.0658 46.0771 25.1586 46.0095 23.8589C45.908 21.6647 45.891 21.4959 45.5696 21.4452C45.3835 21.4284 44.8591 21.6478 44.4023 21.9516Z" fill="#333333"/>
<path d="M37.1958 21.0908C36.8744 21.2765 36.1638 21.8673 35.6225 22.3905C34.7766 23.2176 34.6582 23.437 34.6582 23.9771C34.6582 24.5847 34.692 24.6185 35.2165 24.6185C35.5041 24.6016 35.8424 24.7029 35.9439 24.821C36.0623 24.9392 36.2315 25.9519 36.333 27.0659C36.4514 28.2474 36.7898 30.0365 37.145 31.37C37.4665 32.619 37.771 33.868 37.8217 34.1549C37.8556 34.4419 37.8048 34.7626 37.7202 34.8638C37.5849 35.0326 37.6864 35.3364 38.1093 36.0453C38.4308 36.5855 38.9552 37.2775 39.2935 37.5644C39.8856 38.1045 39.9533 38.1214 41.4251 38.1214C42.271 38.1214 42.9477 38.0877 42.9477 38.037C42.9477 37.9864 42.7278 37.5982 42.4402 37.1425C42.1695 36.7036 41.645 35.6234 41.2898 34.7457C40.9176 33.868 40.3762 32.2983 40.0887 31.2856C39.8011 30.2728 39.412 28.6356 39.2259 27.6566C39.0398 26.6777 38.8199 24.7366 38.7522 23.3526L38.6338 20.8208C37.974 20.7533 37.5172 20.8883 37.1958 21.0908Z" fill="#8B8B8B"/>
<path d="M76.2402 61.5994C76.4094 61.5994 76.4606 62.3253 76.4775 68.4353L73.8047 70.0388C72.3329 70.9333 69.1525 72.8741 66.7334 74.3425C64.3142 75.7941 60.744 77.955 58.8154 79.1365C56.87 80.3011 54.8574 81.6012 54.333 82.0232C53.8086 82.4451 53.1991 83.0521 52.9961 83.3728C52.7254 83.7948 52.5904 84.3184 52.5058 85.3142C52.4551 86.04 52.4378 87.2047 52.5224 89.0613L51.6767 89.1628C51.22 89.2303 50.5264 89.2634 50.1543 89.2634C49.7821 89.2634 49.2573 89.3311 48.9697 89.4324C48.6988 89.5167 47.9207 89.6185 46.0097 89.7029V82.782L46.7197 81.3474C47.3118 80.1322 47.6841 79.6256 49.122 78.2078C50.0693 77.2796 51.4734 76.0817 52.2685 75.5583C53.0636 75.052 55.3817 73.651 57.4287 72.4695C59.4757 71.288 64.4323 68.4186 68.4248 66.1062C72.43 63.7962 75.76 61.8399 75.8681 61.7517C75.9526 61.6674 76.1218 61.5995 76.2402 61.5994ZM76.3252 70.2078C76.3759 70.2078 76.4772 72.5036 76.5449 75.3054C76.6125 78.1072 76.6295 81.7022 76.5449 86.158L75.2763 86.2595C74.5827 86.327 73.28 86.4454 72.4004 86.5466C71.5245 86.6307 70.7828 86.6975 70.7597 86.6814C70.7428 86.6645 70.6753 83.7781 70.4892 73.8367L73.3476 72.031C74.9203 71.0356 76.2565 70.2253 76.3252 70.2078ZM95.831 58.325C95.8818 60.1647 95.915 65.9039 95.915 80.4871L95.5263 80.571C95.3233 80.6048 94.4096 80.7227 93.4961 80.824C92.5995 80.9084 91.7026 80.9929 91.5166 80.9929C91.2293 80.9928 91.1787 80.8743 91.1787 80.2332C91.1786 79.8114 91.1275 79.4744 91.0429 79.4744C90.9749 79.4753 90.7719 79.7612 90.5693 80.115C90.3664 80.4524 89.961 80.8574 89.6396 81.0095C89.3182 81.1783 88.235 81.3816 87.2031 81.4998C85.7144 81.6517 85.1728 81.651 84.4961 81.4822C83.8534 81.3134 83.4304 81.0435 82.7031 80.3347C82.0433 79.6765 81.6372 79.0856 81.3496 78.3767C80.9606 77.3811 80.9602 77.2617 80.9433 65.7175L81.5185 64.5369C81.8737 63.7774 82.4151 63.0343 82.9902 62.4773C83.5146 61.9541 84.175 61.4985 84.5302 61.3972C84.8855 61.296 85.9339 61.1774 86.8642 61.1267C87.7947 61.0761 88.6241 60.9748 88.7256 60.8904C88.8103 60.806 89.1824 60.739 89.5713 60.739C90.0449 60.739 90.367 60.6204 90.6377 60.3503C90.9927 59.9961 91.0266 59.8597 91.0097 55.1687L92.8193 55.1179C93.8343 55.101 94.8836 55.0504 95.7295 54.9998L95.831 58.325ZM106.912 60.2664C108.62 60.2495 109.162 60.3003 109.703 60.5535C110.075 60.7223 110.651 61.161 110.955 61.5154C111.276 61.8867 111.7 62.5281 111.886 62.95C112.173 63.5912 112.24 64.1991 112.342 67.0847C112.393 68.9414 112.409 70.5116 112.342 70.5623C112.286 70.6301 110.376 70.8495 108.096 71.0349C105.814 71.2204 103.905 71.3715 103.833 71.3718C103.765 71.3718 103.697 72.1148 103.697 73.0261C103.697 74.3933 103.765 74.7988 104.087 75.4402C104.425 76.1151 104.527 76.1991 105.136 76.2498C105.643 76.2835 105.982 76.183 106.489 75.8455C107.115 75.4236 107.216 75.4066 107.673 75.6091C107.96 75.7273 108.519 75.8286 108.925 75.8455C109.432 75.8455 109.703 75.7779 109.788 75.6091C109.856 75.4572 109.991 75.1701 110.109 74.9675C110.211 74.765 110.295 74.4103 110.295 74.2078C110.295 74.0052 110.38 73.7351 110.498 73.6169C110.616 73.4988 111.107 73.4148 112.494 73.4148L112.393 74.0388C112.342 74.3933 112.139 75.2038 111.936 75.8621C111.649 76.8071 111.412 77.2122 110.735 77.9041C110.16 78.4779 109.635 78.8325 109.195 78.9675C108.823 79.0688 107.334 79.2717 105.896 79.4236C104.459 79.5754 102.937 79.6599 102.514 79.5925C101.922 79.5081 101.566 79.3051 100.957 78.7312C100.517 78.3092 99.9927 77.668 99.8066 77.2966C99.6205 76.9253 99.4003 76.2672 99.2988 75.8621C99.2142 75.4401 99.1465 74.0056 99.1465 72.6892C99.1634 71.3727 99.1803 68.9247 99.1972 67.2537C99.2141 64.2832 99.2317 64.1818 99.6884 63.321C99.9422 62.8316 100.433 62.1223 100.788 61.7341C101.126 61.3631 101.65 60.925 101.921 60.7898C102.208 60.6548 102.97 60.4686 103.613 60.4011C104.273 60.3336 105.745 60.2832 106.912 60.2664ZM55.8047 41.6824C56.5999 41.6824 59.8308 41.7503 62.9941 41.8347C68.1028 41.9529 68.8645 42.0036 69.8457 42.3074C70.4547 42.5099 71.2841 42.8808 71.707 43.1677C72.1299 43.4377 72.8909 44.113 73.3984 44.6531C73.9059 45.21 74.5994 46.1049 74.9209 46.6619C75.2423 47.202 75.6482 48.0464 75.8174 48.5359C75.9696 49.0255 76.1729 50.0882 76.2744 50.8982C76.359 51.7252 76.4433 54.0721 76.4433 59.8953L75.1406 60.6375C74.4131 61.0426 73.0937 61.7516 70.6074 63.0847L70.4716 62.2917C70.404 61.8529 70.3535 59.0849 70.3535 56.1482C70.3535 51.929 70.3022 50.6796 70.1162 50.325C69.9978 50.0549 69.6088 49.5992 69.2705 49.3123C68.9322 49.0085 68.3745 48.6705 68.0361 48.5691C67.6132 48.4509 65.2276 48.4172 61.1338 48.4509C55.568 48.5016 54.806 48.5354 54.3154 48.8054C54.0278 48.9574 53.6218 49.2952 53.4189 49.5652C53.2329 49.8184 52.9452 50.2905 52.7929 50.6111C52.5392 51.1343 52.5055 52.384 52.4209 73.6511L51.6933 74.0056C51.3041 74.2083 50.4923 74.7317 49.9004 75.1873C49.2913 75.6431 48.1583 76.7231 47.3632 77.5837C46.5681 78.4446 45.8001 79.3162 45.7324 79.3162C45.6482 79.3037 45.6543 74.6728 45.6543 69.2283C45.6543 60.74 45.6033 59.254 45.4004 59.0173C45.1804 58.7473 45.1807 58.6622 45.3838 58.3416C45.5697 58.0372 45.6377 57.0068 45.6884 53.8181C45.7561 49.9364 45.7896 49.6153 46.1787 48.5857C46.3986 47.9782 46.8211 47.1178 47.0918 46.6453C47.3624 46.1895 48.0902 45.3115 48.6992 44.7039C49.4097 43.995 50.2726 43.3539 51.1523 42.8982C51.8967 42.51 52.929 42.0713 53.4365 41.9363C53.9441 41.8013 55.0097 41.6824 55.8047 41.6824ZM121.207 59.5906C121.495 59.5738 122.019 59.6583 122.391 59.7595C122.763 59.8608 123.287 60.0807 123.541 60.2664C123.795 60.4351 124.184 60.9409 124.404 61.3796C124.624 61.8185 124.895 62.6459 125.014 63.2029C125.115 63.7599 125.165 64.3006 125.114 64.4187C125.046 64.5534 124.673 64.6374 123.237 64.6375L123.102 63.9119C123.034 63.5068 122.78 63.0003 122.51 62.7302C122.171 62.3758 121.9 62.2576 121.427 62.2576C121.072 62.2576 120.598 62.3419 120.361 62.4431C120.125 62.5274 119.82 62.7807 119.685 62.9832C119.549 63.1856 119.397 63.6753 119.329 64.0466C119.261 64.5867 119.312 64.8238 119.65 65.3132C119.871 65.6341 120.886 66.4609 121.884 67.1697C122.882 67.8617 123.965 68.7059 124.286 69.0603C124.59 69.4147 124.929 70.0218 125.03 70.4099C125.132 70.7981 125.182 71.8111 125.148 72.655C125.098 73.7859 124.979 74.3769 124.675 75.0183C124.455 75.474 123.913 76.1999 123.49 76.6218C122.966 77.1617 122.509 77.4487 121.968 77.5837C121.545 77.685 120.598 77.82 119.853 77.8875C118.822 77.9718 118.179 77.9207 115.709 77.3806V76.571C115.709 76.1322 115.641 75.7269 115.539 75.6931C115.455 75.6409 115.37 75.0678 115.37 74.4275C115.37 73.3137 115.404 73.2288 115.793 73.0769C116.03 72.9756 116.487 72.908 116.809 72.908C117.367 72.908 117.417 72.9423 117.502 73.533C117.553 73.8872 117.671 74.2918 117.756 74.4607C117.84 74.6295 118.027 74.7654 118.162 74.7654C118.297 74.7656 118.449 74.8665 118.5 75.0183C118.568 75.187 118.822 75.2712 119.312 75.2712C119.701 75.2712 120.192 75.1533 120.412 75.0183C120.66 74.8383 120.784 74.5848 120.784 74.2585C120.784 73.9716 120.869 73.7015 120.953 73.6677C121.055 73.617 121.122 73.2453 121.122 72.8572C121.122 72.2667 121.038 72.0469 120.581 71.6082C120.276 71.3211 119.227 70.5622 118.246 69.9041C117.266 69.2463 116.336 68.5715 116.183 68.4021C116.013 68.2333 115.776 67.7939 115.641 67.4226C115.488 67.0006 115.388 66.1056 115.388 65.0593C115.371 63.6418 115.438 63.22 115.76 62.5281C115.98 62.0555 116.453 61.3463 116.825 60.9412C117.18 60.5361 117.637 60.1137 117.823 60.0125C118.009 59.9112 118.737 59.7938 119.431 59.7263C120.124 59.6588 120.936 59.6075 121.207 59.5906ZM131.526 64.8406C131.577 67.9293 131.611 71.828 131.611 76.5369L129.801 76.7566C128.806 76.8743 127.979 76.9418 127.957 76.9255C127.94 76.8918 127.889 72.9417 127.72 59.405L128.109 59.3376C128.313 59.3039 129.159 59.2698 131.459 59.2361L131.526 64.8406ZM144.299 58.7136V63.7429C144.299 67.6588 144.231 68.9925 144.028 69.8533C143.893 70.4608 143.555 71.4056 143.284 71.9626C143.03 72.5196 142.438 73.3811 141.981 73.8875C141.542 74.3769 140.864 74.9678 140.492 75.1873C140.002 75.474 139.274 75.6591 137.955 75.8279C136.94 75.9629 135.62 76.1154 133.979 76.2673L134.047 59.1013L135.654 58.9998C136.55 58.9492 137.328 58.9329 137.396 58.9666C137.481 59.0172 137.532 61.6163 137.532 64.7556C137.532 67.878 137.583 71.0174 137.65 71.7097C137.735 72.756 137.803 72.9585 138.022 72.908C138.175 72.8742 138.344 72.9424 138.412 73.0437C138.497 73.1448 138.835 73.2292 139.173 73.2292C139.646 73.2292 139.934 73.1107 140.272 72.7732C140.526 72.5031 140.813 72.0304 140.915 71.7097C141.033 71.3215 141.051 69.0598 140.983 64.9246L140.864 58.7136H144.299ZM152.538 58.241C152.843 58.2242 153.35 58.3084 153.638 58.4265C153.942 58.5617 154.45 58.9499 154.754 59.321C155.058 59.6755 155.413 60.3673 155.565 60.823C155.768 61.4813 155.836 63.0177 156.022 73.8201L155.109 73.9382C154.602 74.0057 153.908 74.073 153.553 74.073C152.978 74.073 152.927 74.0389 152.927 73.1443L152.47 73.7019C152.047 74.191 151.844 74.2757 150.812 74.4275C150.153 74.5119 149.374 74.5282 149.053 74.4607C148.681 74.3763 148.24 74.0724 147.868 73.6335C147.53 73.2621 147.09 72.4865 146.87 71.9128C146.667 71.3396 146.414 70.8335 146.329 70.782C146.245 70.7314 146.16 70.2248 146.16 69.6511C146.16 68.7734 146.21 68.5533 146.498 68.3845C146.684 68.2664 146.938 67.9117 147.073 67.6248C147.209 67.3208 147.632 66.6961 148.782 65.4138L150.677 65.2283C151.726 65.127 152.656 64.975 152.758 64.8738C152.893 64.7552 152.91 64.2152 152.825 63.1863C152.724 61.7516 152.673 61.6331 152.148 61.1267C151.59 60.5868 151.556 60.5704 150.423 60.6716C149.797 60.7391 149.155 60.8402 148.985 60.9246C148.833 61.0089 148.579 61.3461 148.443 61.6667C148.308 61.9873 148.19 62.4431 148.189 62.6794C148.189 62.9157 148.088 63.1013 147.97 63.1013C147.868 63.1014 147.479 63.1696 147.124 63.2371C146.532 63.3551 146.498 63.338 146.498 62.9333C146.498 62.697 146.65 61.9369 146.853 61.2449C147.04 60.5531 147.377 59.7264 147.614 59.4392C147.834 59.1355 148.189 58.7977 148.393 58.6794C148.612 58.5613 149.509 58.4267 150.389 58.3591C151.268 58.3085 152.25 58.2578 152.538 58.241ZM131.002 54.2234C131.306 54.2403 131.34 54.3759 131.425 56.6882H130.951C130.697 56.6882 129.868 56.7386 127.703 56.9412V54.325L129.191 54.2742H129.175C130.004 54.2404 130.816 54.2234 131.002 54.2234Z" fill="#0C0014"/>
<path d="M41.0865 23.0488C40.9512 23.1163 40.5452 23.3357 40.173 23.5383L39.5302 23.9265C39.8008 27.3191 39.7839 27.6567 39.564 27.9098C39.3779 28.1124 39.3441 28.3656 39.4286 28.8213C39.4963 29.1589 39.8008 30.2729 40.0884 31.2856C40.376 32.2983 40.8835 33.7836 41.205 34.5769C41.5264 35.3702 42.0847 36.518 42.4568 37.1593L43.1166 38.2902H45.485C44.4531 36.1298 43.8948 34.6275 43.5734 33.5642C43.252 32.5008 42.829 30.7792 42.6429 29.7665C42.4568 28.7538 42.22 27.3697 42.1354 26.7283C42.0508 26.0701 42.0001 25.0067 42.0508 24.3653C42.1016 23.4876 42.0677 23.1501 41.8986 23.0657C41.7802 22.9981 41.5941 22.9475 41.5095 22.9475C41.4249 22.9475 41.2219 22.9981 41.0865 23.0488Z" fill="#5C5C5C"/>
<path d="M131.594 73.9042C131.594 74.5455 131.628 74.5793 132.102 74.5793C132.575 74.5793 132.609 74.5455 132.609 73.9042C132.609 73.2628 132.575 73.229 132.102 73.229C131.628 73.229 131.594 73.2628 131.594 73.9042Z" fill="white"/>
<path d="M152.574 73.5802L152.133 74.036C152.979 74.1879 153.452 74.1321 153.486 74.0815C153.519 74.0308 153.442 74.036 153.289 74.036C153.103 74.036 152.985 73.8841 152.968 73.5802L152.917 73.1245L152.574 73.5802Z" fill="#A9ACAE"/>
<path opacity="0.96" d="M39.1411 24.1289C38.9043 24.264 38.8366 24.4834 38.8535 25.0404C38.8705 25.4624 38.9889 26.3232 39.0904 26.9646C39.2765 27.9098 39.3297 28.6806 39.4989 28.5118C39.6511 28.3768 39.8441 27.5166 39.7332 26.4751C39.7163 25.7831 39.9789 24.5049 39.9113 24.1673C39.7928 23.6272 39.4118 23.977 39.1411 24.1289Z" fill="#5C5C5C"/>
<path d="M34.5903 24.7533C34.5395 24.8208 34.5733 25.1753 34.6579 25.5466C34.7256 25.918 34.9286 26.8632 35.0809 27.6565C35.2331 28.4498 35.5545 29.6988 35.7914 30.4414C36.0282 31.1841 36.5019 32.5006 36.8403 33.3615C37.1786 34.2223 37.5339 34.8974 37.6184 34.8637C37.703 34.8299 37.7876 34.543 37.7707 34.2223C37.7707 33.9016 37.4831 32.6188 37.1448 31.3698C36.7895 30.0026 36.4512 28.281 36.3327 27.0657C36.2312 25.9517 36.0621 24.939 35.9436 24.8208C35.8421 24.7027 35.5207 24.6014 35.2162 24.6183C34.9117 24.6183 34.641 24.6689 34.5903 24.7365V24.7533Z" fill="#8B8B8B"/>
<path opacity="0.52" d="M55.8046 38.577C56.2276 38.6108 56.8366 38.6108 57.158 38.577C57.4795 38.5433 57.1411 38.5095 56.3967 38.5095C55.6524 38.5095 55.3817 38.5433 55.8046 38.577ZM67.4776 38.9146C67.799 38.9484 68.3742 38.9484 68.7464 38.9146C69.1186 38.8809 68.8479 38.8471 68.1543 38.8471C67.4607 38.8471 67.1561 38.8809 67.4776 38.9146ZM79.1505 39.2522C79.5734 39.2859 80.1825 39.2859 80.5039 39.2522C80.8253 39.2184 80.487 39.1847 79.7426 39.1847C78.9982 39.1847 78.7276 39.2184 79.1505 39.2522ZM90.6543 39.5898C91.0772 39.6235 91.6862 39.6235 92.0076 39.5898C92.3291 39.556 91.9907 39.5222 91.2464 39.5222C90.502 39.5222 90.2313 39.556 90.6543 39.5898ZM102.327 39.9273C102.649 39.9611 103.224 39.9611 103.596 39.9273C103.968 39.8936 103.698 39.8598 103.004 39.8598C102.31 39.8598 102.006 39.8936 102.327 39.9273ZM113.831 40.2649C114.152 40.2987 114.728 40.2987 115.1 40.2649C115.472 40.2311 115.201 40.1974 114.508 40.1974C113.814 40.1974 113.51 40.2311 113.831 40.2649ZM125.504 40.6025C125.927 40.6362 126.536 40.6362 126.857 40.6025C127.179 40.5687 126.84 40.535 126.096 40.535C125.352 40.535 125.081 40.5687 125.504 40.6025ZM137.177 40.9401C137.498 40.9738 138.073 40.9738 138.446 40.9401C138.818 40.9063 138.547 40.8725 137.854 40.8725C137.16 40.8725 136.855 40.9063 137.177 40.9401ZM148.681 41.2776C149.002 41.3114 149.577 41.3114 149.949 41.2776C150.322 41.2439 150.051 41.2101 149.357 41.2101C148.664 41.2101 148.359 41.2439 148.681 41.2776Z" fill="white"/>
<path opacity="0.25" d="M42.2199 27.3189C42.2707 27.9771 42.4229 28.5173 42.5752 28.6692C42.7951 28.8886 42.812 28.8886 42.7444 28.6692C42.6936 28.5341 42.5921 28.0278 42.5245 27.5721C42.4568 27.0995 42.3384 26.61 42.2538 26.4749C42.1861 26.3399 42.1692 26.7112 42.2199 27.3189ZM44.1316 34.121C44.1316 34.2729 44.047 34.4079 43.9624 34.4079C43.8609 34.4079 43.9624 34.8636 44.1654 35.4206C44.3854 35.9776 44.5884 36.4334 44.6391 36.4334C44.6899 36.4334 44.8252 36.3658 44.9436 36.2983C45.0959 36.2139 45.0451 35.927 44.7068 35.0831C44.4699 34.4754 44.2331 33.9522 44.1993 33.9016C44.1485 33.8509 44.1316 33.9522 44.1316 34.121Z" fill="#211E1E"/>
<path d="M146.245 47.624C146.194 47.8266 146.143 48.1304 146.143 48.2823C146.143 48.468 146.278 48.5861 146.481 48.5861C146.769 48.5861 146.82 48.468 146.82 47.911C146.82 47.4384 146.752 47.2358 146.583 47.2358C146.448 47.2358 146.295 47.4046 146.245 47.6072V47.624ZM150.406 48.181C150.44 48.6874 150.542 49.1094 150.626 49.1094C150.711 49.1094 150.812 48.6874 150.846 48.181C150.88 47.4384 150.829 47.2527 150.626 47.2527C150.406 47.2527 150.372 47.4384 150.406 48.181Z" fill="white"/>
<path d="M104.797 63.49C104.374 63.8445 104.374 63.8782 104.662 64.2327C105.372 65.2116 105.051 64.739 106.387 64.6209C107.149 64.5534 107.91 64.5365 107.91 64.4521C107.91 64.3846 107.504 63.8782 107.233 63.6082C106.827 63.2031 106.59 63.1018 105.981 63.1018C105.44 63.1018 105.102 63.2031 104.797 63.4731V63.49ZM88.7935 69.2288V70.9673L90.9927 70.8829V67.5071H88.7935V69.2288Z" fill="#BBBCBF"/>
<path d="M105.203 67.4903V68.503C106.979 68.3511 107.588 68.216 107.707 68.1148C107.825 67.9966 107.927 67.5915 107.91 67.1864V66.4775H105.203V67.4903ZM150.838 69.4786L150.771 70.2633C152.023 70.2633 152.588 70.0896 152.707 69.9714C152.825 69.8702 152.91 69.6507 152.91 69.5157C152.977 68.5982 152.69 69.2119 152.368 69.1275C152.064 69.06 151.607 69.0093 151.336 69.0093C150.93 69.0093 150.838 68.6748 150.838 69.4786ZM88.8778 74.1911C88.7932 74.2417 88.7594 74.6468 88.7763 75.0688C88.7932 75.6258 88.6748 76.0815 88.3703 76.6554C88.1334 77.0942 87.9981 77.4824 88.0658 77.5331C88.1503 77.5837 88.6748 77.6175 89.25 77.6175H90.3158C90.8909 76.4697 90.9924 75.9296 90.9924 75.1701V74.0729C89.4699 74.0729 88.9624 74.1236 88.8778 74.1911Z" fill="#DADCDE"/>
<path d="M105.46 64.5534C105.121 64.6041 105.02 64.7053 105.07 64.8741C105.121 65.0091 105.155 65.4311 105.155 65.8024V66.4776H107.862V64.4521C106.356 64.4859 105.713 64.5365 105.443 64.5534H105.46ZM150.637 67.7753C150.552 67.8259 150.771 68.0241 150.815 68.368C150.849 68.9419 150.503 69.383 151.305 69.0094C151.576 69.0094 152.033 69.06 152.337 69.1275L152.879 69.2626V67.4903C151.475 67.4903 150.721 67.7078 150.637 67.7753ZM88.8468 70.9842C88.7622 71.0348 88.7114 71.7775 88.7283 72.6214L88.7622 74.1574L90.9614 74.073V70.866C89.4389 70.866 88.9313 70.9167 88.8468 70.9842Z" fill="#CBCCCE"/>
<path d="M88.7934 63.9288C88.1674 64.0132 88.0998 64.0469 88.4043 64.1651C88.7764 64.2832 88.7934 64.3676 88.7934 65.8867V67.4902H90.9926V63.7769C89.8761 63.8106 89.2163 63.8781 88.7934 63.9288Z" fill="#A9ACAE"/>
<path d="M43.7939 57.7007V58.7134C44.9782 58.7134 45.6791 58.9385 45.6791 58.9385C45.6791 58.9385 45.6238 57.6653 45.6238 57.3109V56.688H43.7939V57.7007ZM43.7939 63.2707V64.4522H45.6548V62.0892H43.7939V63.2707ZM96.7451 67.9967V68.5031L99.1925 68.5983L99.2117 67.4903H96.7451V67.9967ZM96.7789 71.018L96.7451 71.8788L99.1829 71.9763L99.2117 70.1868C97.9598 70.1868 97.3541 70.3091 97.1511 70.2584C96.8297 70.1572 96.7181 68.9237 96.7789 71.018ZM79.1511 72.5539V73.2291H80.9796V71.8136L79.1511 71.8788V72.5539ZM118.721 74.3262C118.45 74.5963 118.365 74.8326 118.433 75.0013C118.518 75.1701 118.838 75.2969 119.295 75.2969C119.701 75.2969 120.262 75.1364 120.465 75.0013C120.702 74.8494 120.801 74.5794 120.801 74.3262C120.958 73.6414 120.717 73.9042 119.956 73.9042C119.296 73.9042 119.042 73.9886 118.721 74.3262ZM114.018 75.7946C114.018 75.9128 114.305 76.301 114.644 76.6386C114.982 76.9762 115.597 77.3662 115.698 77.383C115.851 77.383 115.799 76.9184 115.765 76.3783L115.608 75.6765C114.254 75.5921 114.018 75.6427 114.018 75.7946Z" fill="#E8ECF0"/>
<path d="M150.695 70.5789C150.695 70.5789 150.589 70.9618 150.34 71.3158C150.323 71.3496 150.829 71.1938 151.168 71.1938C151.574 71.2107 151.929 71.0926 152.098 70.9069C152.267 70.7381 152.737 70.056 152.737 69.9378C152.737 69.8028 152.132 70.1811 151.641 70.1811C150.965 70.1811 150.8 69.9282 150.695 70.5789Z" fill="#E8ECF0"/>
<path d="M114.694 45.5143C114.372 45.6662 113.966 45.9869 113.78 46.2232C113.611 46.4595 113.425 47.0165 113.374 47.4891C113.323 47.9448 113.323 48.6031 113.374 48.9238C113.442 49.2445 113.679 49.7171 113.915 49.9702C114.254 50.3584 114.491 50.4428 115.1 50.4428C115.793 50.4428 115.861 50.4091 115.861 50.0209C115.861 49.6833 115.776 49.5989 115.438 49.5989C115.201 49.5989 114.897 49.4808 114.761 49.3457C114.626 49.2107 114.457 48.89 114.406 48.6199C114.338 48.3668 114.355 47.8604 114.406 47.4891C114.474 47.1177 114.626 46.6789 114.727 46.5101C114.846 46.3413 115.15 46.2232 115.489 46.2232C115.945 46.2232 116.03 46.1725 116.03 45.8012C116.03 45.5649 115.912 45.3455 115.776 45.2948C115.641 45.2442 115.472 45.2104 115.387 45.2104C115.319 45.2104 115.015 45.3455 114.694 45.5143ZM130.663 45.4974C130.579 45.548 130.528 45.7506 130.545 45.9194C130.562 46.0881 130.68 46.2738 130.782 46.3244C130.9 46.3751 131.12 46.3076 131.256 46.1725C131.408 46.0037 131.459 45.8012 131.374 45.6324C131.306 45.4974 131.154 45.3792 131.036 45.3792C130.9 45.3792 130.748 45.4299 130.663 45.4974ZM144.282 45.835C144.282 46.0037 144.366 46.6114 144.451 47.1853C144.586 48.0798 144.84 49.5989 145.128 49.5989C145.432 49.5989 145.297 48.1642 145.195 47.2696C145.145 46.7464 145.077 46.1388 145.026 45.9194C144.992 45.6831 144.84 45.548 144.62 45.548C144.417 45.548 144.282 45.6662 144.282 45.835ZM145.889 45.6662C145.804 45.7168 145.72 46.2232 145.72 46.2232C145.72 46.2232 145.382 47.0671 146.058 46.7295C146.194 46.7295 146.363 46.9827 146.397 46.8983C146.431 46.8308 146.481 46.2738 146.549 46.0037C146.633 45.6324 146.6 45.548 146.346 45.548C146.177 45.548 145.974 45.5987 145.889 45.6662ZM154.094 47.6579C154.094 49.6495 154.111 49.7677 154.432 49.7677C154.754 49.7677 154.771 49.6495 154.771 47.6579C154.771 45.6662 154.754 45.548 154.432 45.548C154.111 45.548 154.094 45.6662 154.094 47.6579ZM116.893 47.0165C116.69 47.1853 116.453 47.6241 116.368 47.9954C116.284 48.3668 116.267 48.89 116.301 49.1769C116.351 49.447 116.554 49.8521 116.757 50.0715C117.028 50.3584 117.282 50.4428 117.722 50.4091C118.179 50.3753 118.398 50.2234 118.703 49.7677C119.024 49.2951 119.092 49.0081 119.041 48.3161C119.007 47.7422 118.872 47.3203 118.652 47.084C118.449 46.8477 118.111 46.7127 117.789 46.7295C117.502 46.7295 117.096 46.8646 116.893 47.0165ZM119.583 48.5862V50.4428C120.361 50.4428 120.445 50.3416 120.513 49.8858C120.564 49.5989 120.615 48.9744 120.632 48.5018C120.665 47.8435 120.75 47.6579 120.97 47.6241C121.241 47.5735 121.274 47.7254 121.274 48.9238C121.274 50.2572 121.274 50.2741 121.697 50.2741C122.103 50.2741 122.12 50.2403 122.12 49.1769C122.12 48.5693 122.154 47.9617 122.205 47.8266C122.256 47.6916 122.408 47.5735 122.543 47.5735C122.746 47.5735 122.797 47.8435 122.797 48.9238V50.2741H123.812C123.812 48.0461 123.727 47.2528 123.643 47.0671C123.541 46.8477 123.304 46.7295 123 46.7295C122.746 46.7295 122.442 46.8308 122.323 46.9321C122.154 47.1009 122.069 47.1009 121.9 46.9321C121.799 46.8139 121.511 46.7295 121.274 46.7295C121.021 46.7295 120.75 46.8308 120.632 46.9321C120.462 47.1009 120.429 47.1009 120.429 46.9321C120.429 46.8308 120.242 46.7295 120.006 46.7295H119.583V48.5862ZM124.455 47.6072C124.438 48.0967 124.438 48.8056 124.455 49.1769C124.472 49.5483 124.573 49.9534 124.658 50.0546C124.759 50.2065 125.182 50.2572 125.842 50.2234L126.857 50.1897V46.7295C126.028 46.7295 126.011 46.7633 126.011 47.9448C126.028 48.7381 125.944 49.2445 125.808 49.3795C125.69 49.4976 125.521 49.5483 125.453 49.4639C125.385 49.3964 125.335 48.755 125.335 48.0292C125.335 46.7464 125.335 46.7295 124.912 46.7295C124.522 46.7295 124.489 46.797 124.455 47.6072ZM127.5 48.5355C127.534 50.2741 127.534 50.2741 127.957 50.2741C128.363 50.2741 128.38 50.2403 128.413 48.9744C128.464 47.8773 128.515 47.6579 128.752 47.6241C129.022 47.5735 129.056 47.7254 129.056 48.9238C129.056 50.2572 129.056 50.2741 129.479 50.2741C129.902 50.2741 129.902 50.2572 129.902 48.8394C129.902 48.0461 129.818 47.2528 129.733 47.0671C129.581 46.7802 129.412 46.7295 128.515 46.7633L127.483 46.7802L127.5 48.5355ZM130.562 48.5187C130.562 50.2572 130.579 50.2909 130.951 50.2403C131.306 50.2065 131.34 50.1221 131.374 48.468L131.425 46.7464H130.562V48.5187ZM134.318 46.8646C134.182 46.9321 134.115 47.1009 134.165 47.2528C134.199 47.3878 134.436 47.5059 134.707 47.5059C134.977 47.5059 135.214 47.5903 135.248 47.7085C135.282 47.8266 135.214 47.911 135.096 47.911C134.977 47.911 134.673 48.0629 134.419 48.2486C134.081 48.5018 133.945 48.755 133.945 49.1432C133.945 49.447 134.03 49.7846 134.148 49.8858C134.284 49.9871 134.774 50.0884 135.265 50.1053L136.145 50.1221C136.162 47.9279 136.077 47.3709 135.891 47.1177C135.722 46.8477 135.485 46.7464 135.096 46.7464C134.791 46.7464 134.436 46.797 134.318 46.8646ZM137.075 47.1515C136.754 47.4891 136.669 47.7422 136.669 48.5018C136.669 49.2276 136.737 49.5145 136.991 49.7846C137.177 49.9702 137.329 50.1897 137.329 50.2909C137.329 50.3753 137.413 50.4597 137.498 50.4597C137.6 50.4597 137.667 50.3753 137.667 50.2909C137.667 50.1897 137.786 50.1221 137.921 50.1221C138.073 50.1221 138.175 49.9702 138.175 49.7846C138.175 49.582 138.039 49.4132 137.836 49.3626C137.65 49.312 137.464 49.0757 137.397 48.8056C137.346 48.5524 137.346 48.1642 137.397 47.9617C137.464 47.7423 137.667 47.5566 137.921 47.5059C138.203 47.4497 138.344 47.309 138.344 47.084C138.344 46.8308 138.242 46.7464 137.921 46.7464C137.684 46.7464 137.312 46.9321 137.075 47.1515ZM141.389 47.1853C141.118 47.5228 141.034 47.8435 141.034 48.4512C141.051 49.0925 141.152 49.3626 141.474 49.7002C141.71 49.9196 141.964 50.1221 142.032 50.1221C142.1 50.1221 142.37 49.9702 142.624 49.7846C143.03 49.4808 143.081 49.3288 143.081 48.468C143.098 47.8773 142.996 47.354 142.827 47.1177C142.692 46.8983 142.404 46.7464 142.167 46.7464C141.93 46.7464 141.609 46.9321 141.389 47.1853ZM146.803 48.3499C146.803 49.8352 146.836 49.9534 147.141 49.9534C147.462 49.9534 147.479 49.8352 147.479 48.3499C147.479 46.8477 147.462 46.7464 147.141 46.7464C146.836 46.7464 146.803 46.8477 146.803 48.3499ZM148.156 46.949C148.038 47.0502 147.936 47.3709 147.97 47.6579C147.987 47.9448 148.19 48.3836 148.427 48.6368C148.647 48.89 148.968 49.5145 149.103 49.5145C149.256 49.5145 149.442 49.3457 149.34 48.8056C149.34 48.6368 149.137 48.2992 148.883 48.0461L148.41 47.5735C149.036 47.4384 149.171 47.2865 149.171 47.084C149.171 46.8308 149.069 46.7464 148.782 46.7464C148.579 46.7464 148.291 46.8308 148.156 46.949ZM150.829 47.9617C150.812 48.6706 150.71 49.1769 150.609 49.1432C150.524 49.1263 150.423 48.6199 150.406 48.0123C150.372 47.0333 150.321 46.9152 150.017 46.9152C149.712 46.9152 149.679 47.0165 149.679 48.1305C149.679 48.8562 149.763 49.4808 149.898 49.6495C150.068 49.869 150.254 49.9027 150.829 49.8183L151.556 49.7002C151.539 46.8646 151.522 46.7464 151.218 46.7464C150.913 46.7464 150.88 46.8814 150.829 47.9617ZM152.233 46.8477C152.098 46.8983 151.996 47.0502 152.013 47.1684C152.047 47.3034 152.233 47.4216 152.47 47.4216C152.741 47.4216 152.893 47.5059 152.893 47.6747C152.893 47.8098 152.808 47.911 152.69 47.911C152.571 47.911 152.351 48.0461 152.182 48.2149C152.03 48.3836 151.895 48.7212 151.895 48.9744C151.895 49.2276 151.996 49.5483 152.132 49.7002C152.284 49.8352 152.47 49.9534 152.554 49.9534C152.656 49.9534 152.774 49.869 152.808 49.7846C152.859 49.6833 153.045 49.6495 153.231 49.7002C153.553 49.7677 153.569 49.7002 153.586 48.468C153.586 47.641 153.502 47.084 153.366 46.949C153.248 46.8308 152.994 46.7464 152.808 46.7464C152.622 46.7633 152.368 46.797 152.233 46.8477ZM132.017 47.3203C131.932 47.3878 131.882 48.0292 131.898 48.5018C131.915 48.9744 132.034 49.5314 132.169 49.7339C132.355 50.004 132.592 50.1221 133.015 50.1221C133.506 50.1221 133.607 50.0546 133.607 49.7846C133.607 49.5595 133.494 49.447 133.269 49.447C133.083 49.447 132.88 49.3457 132.812 49.2276C132.744 49.1094 132.694 48.6706 132.694 48.2655C132.694 47.7085 132.711 47.354 132.525 47.3203C132.372 47.2865 132.085 47.2528 132.017 47.3203ZM138.851 48.3161C138.615 48.5524 138.462 48.8731 138.496 49.1094C138.513 49.3457 138.598 49.6327 138.682 49.7846C138.784 49.9365 139.156 50.0546 139.697 50.0715L140.543 50.1221V47.9279C139.46 47.9279 139.139 48.0461 138.851 48.3161ZM144.806 48.8731C144.789 49.0419 144.823 49.3626 144.874 49.5651C144.925 49.8352 145.077 49.9534 145.365 49.9534C145.72 49.9534 145.804 49.8521 145.889 49.3964C145.94 49.0925 145.957 48.8394 145.923 48.8225C145.906 48.8225 145.635 48.755 145.348 48.6875C144.908 48.5862 144.806 48.6199 144.806 48.8731Z" fill="#0C0014"/>
<path d="M152.524 48.6704C152.422 48.8054 152.372 49.0417 152.422 49.1768C152.473 49.3118 152.608 49.4131 152.71 49.3793C152.828 49.3456 152.947 49.1093 152.964 48.873C152.981 48.6198 152.947 48.4172 152.862 48.4172C152.778 48.4172 152.625 48.5354 152.524 48.6704Z" fill="white"/>
<path d="M151.557 47.7421C151.557 48.2147 151.607 48.5861 151.692 48.5861C151.76 48.6029 151.963 48.4342 152.149 48.2485C152.335 48.0628 152.589 47.894 152.707 47.9109C152.809 47.9109 152.91 47.7928 152.91 47.6577C152.91 47.5058 152.758 47.4046 152.487 47.4046C152.216 47.4046 152.064 47.3033 152.064 47.1514C152.064 47.0163 151.946 46.8982 151.81 46.8982C151.624 46.8982 151.557 47.1007 151.557 47.7421ZM126.857 48.5861C126.857 49.8013 126.891 49.9532 127.196 50.0207C127.517 50.1051 127.534 50.0207 127.534 48.6705C127.534 47.3539 127.5 47.2358 127.196 47.2358C126.891 47.2358 126.857 47.3539 126.857 48.5861ZM129.903 48.6705C129.903 49.987 129.936 50.1051 130.241 50.1051C130.545 50.1051 130.579 49.987 130.579 48.6705C130.579 47.3539 130.545 47.2358 130.241 47.2358C129.936 47.2358 129.903 47.3539 129.903 48.6705ZM147.497 48.5017C147.497 49.1262 147.564 49.5988 147.666 49.5988C147.75 49.5988 147.869 49.5313 147.919 49.43C147.97 49.3287 148.156 49.2612 148.342 49.2612C148.528 49.2612 148.681 49.1599 148.681 49.0418C148.698 48.9405 148.528 48.6873 148.342 48.5017C148.156 48.316 147.987 47.9953 148.004 47.7759C148.004 47.5565 147.903 47.4046 147.75 47.4046C147.547 47.4046 147.497 47.6409 147.497 48.5017Z" fill="white"/>
<path d="M139.105 45.6829C139.038 45.7335 138.987 45.9192 139.004 46.088C139.021 46.2736 139.122 46.3411 139.257 46.2736C139.359 46.2061 139.647 46.1555 139.883 46.1386C140.12 46.1386 140.323 46.0205 140.357 45.8854C140.391 45.6998 140.239 45.6322 139.816 45.6154C139.494 45.5985 139.173 45.6322 139.105 45.6829ZM146.904 45.801C146.853 45.9361 146.853 46.1217 146.904 46.223C146.955 46.3243 147.107 46.3918 147.242 46.3918C147.395 46.3918 147.496 46.2399 147.496 45.9698C147.496 45.6998 147.395 45.5479 147.242 45.5479C147.09 45.5479 146.938 45.666 146.904 45.801ZM138.902 46.8644C138.784 46.9319 138.733 47.1007 138.784 47.2357C138.835 47.3876 139.054 47.472 139.291 47.4383C139.545 47.4214 139.748 47.5058 139.799 47.6577C139.85 47.7927 140.036 49.3456 140.222 49.3456C140.448 49.3456 140.56 47.7983 140.56 47.5733C140.56 47.3876 140.442 47.1176 140.306 46.9825C140.171 46.8475 139.85 46.7294 139.596 46.7294C139.325 46.7294 139.021 46.7969 138.902 46.8644ZM148.342 49.2443C148.105 49.3118 147.919 49.4637 147.919 49.5987C147.919 49.7506 148.105 49.8688 148.342 49.9025C148.579 49.9363 148.9 49.8182 149.069 49.6494C149.239 49.4806 149.374 49.2949 149.357 49.2105C149.357 49.143 149.222 49.0924 149.069 49.1093C148.9 49.1261 148.579 49.1768 148.342 49.2443Z" fill="#0C0014"/>
<path d="M145.636 46.645C145.669 46.8813 145.602 47.6577 145.551 47.8772C145.483 48.1472 145.348 48.2485 145.043 48.2485C144.806 48.2485 144.705 48.3329 144.705 48.4173C144.705 48.4848 144.824 48.5861 145.128 48.6705C145.433 48.738 145.805 49.008 145.889 49.008C145.974 49.008 146.126 48.3667 146.194 47.8772C146.278 47.3877 146.38 46.9151 146.414 46.8138C146.447 46.7125 146.278 46.645 146.024 46.645C145.618 46.645 145.636 46.645 145.636 46.645ZM132.44 46.9826C132.44 46.9826 132.102 47.1514 132.017 47.3033C131.932 47.4552 133.015 47.6071 133.201 47.5734C133.387 47.5565 133.59 47.4552 133.658 47.3371C133.726 47.2358 133.793 47.0501 133.793 46.932C133.793 46.8307 133.59 46.7294 133.32 46.7294C133.066 46.7294 132.677 46.8138 132.44 46.9826ZM137.684 50.2402C137.684 50.3415 137.549 50.4427 137.38 50.4427C137.126 50.4259 137.126 50.4596 137.346 50.6959C137.566 50.9322 137.566 50.966 137.295 50.9491C137.143 50.9491 137.008 51.0672 137.008 51.2023C137.008 51.3711 137.16 51.4386 137.464 51.4048C137.82 51.3879 137.955 51.2698 137.972 50.9828C138.006 50.7803 137.955 50.4765 137.853 50.3077C137.769 50.1558 137.684 50.122 137.684 50.2233V50.2402Z" fill="#0C0014"/>
<path d="M117.417 47.8266C117.316 48.0629 117.231 48.468 117.231 48.7212C117.214 48.9743 117.299 49.3119 117.417 49.4807C117.603 49.7508 117.671 49.7676 117.857 49.5651C117.976 49.4301 118.043 48.9912 118.026 48.4342C117.992 47.9279 117.891 47.489 117.773 47.4384C117.671 47.4046 117.502 47.5734 117.417 47.8266Z" fill="white"/>
<path d="M134.724 48.8394C134.673 48.9744 134.673 49.1601 134.724 49.2613C134.774 49.3626 134.927 49.4301 135.062 49.4301C135.214 49.4301 135.316 49.2782 135.316 49.0081C135.316 48.7381 135.214 48.5862 135.062 48.5862C134.91 48.5862 134.757 48.7043 134.724 48.8394Z" fill="white"/>
<path d="M141.829 48.0292C141.761 48.4174 141.778 48.8394 141.897 49.0926C142.032 49.3739 142.156 49.4583 142.269 49.3457C142.354 49.2614 142.404 48.8056 142.387 48.3499C142.354 47.8942 142.252 47.4891 142.151 47.4553C142.049 47.4047 141.897 47.6748 141.829 48.0292Z" fill="white"/>
<path d="M139.393 48.6704C139.291 48.8054 139.241 49.0417 139.291 49.1768C139.342 49.3118 139.477 49.4131 139.579 49.3793C139.697 49.3456 139.816 49.1093 139.833 48.873C139.85 48.6198 139.816 48.4172 139.731 48.4172C139.647 48.4172 139.494 48.5354 139.393 48.6704Z" fill="white"/>
<path d="M26.7745 28.8043C25.8272 29.6988 24.846 30.8297 24.5753 31.2854L24.0847 32.1294C24.0001 65.9542 24.0339 72.3343 24.1693 73.6509C24.2708 74.6805 24.5076 76.2502 24.6937 77.1616C24.8629 78.0562 25.2858 79.5415 25.6072 80.453C25.9287 81.3476 26.5039 82.5966 26.876 83.238C27.2482 83.8625 27.9588 84.7739 28.4494 85.2634C28.923 85.7529 29.6674 86.3605 30.0903 86.6137C30.5133 86.85 32.1712 87.5083 33.7783 88.0821C35.3685 88.6391 36.7219 89.0949 36.7727 89.0949C36.8234 89.0949 36.8572 88.9261 36.8572 88.7235C36.8742 88.4366 36.4005 87.9302 35.2163 86.8838C34.3027 86.0736 33.1354 84.909 32.611 84.2676C32.0866 83.6262 31.4099 82.7316 31.1054 82.259C30.7839 81.8033 30.2933 80.8918 29.9888 80.2336C29.6843 79.5753 29.2783 78.4107 29.0922 77.6174C28.7539 76.1996 28.7369 75.8789 28.7369 51.658C28.7369 38.1888 28.6862 27.1501 28.6185 27.1501C28.5339 27.1501 27.705 27.8928 26.7745 28.8043Z" fill="#6B6B6B"/>
<path d="M43.7935 60.4012V62.0891H45.6544C45.6713 59.5742 45.6786 58.9384 45.6786 58.9384C45.5094 58.7696 44.7916 58.7134 44.4363 58.7134H43.7935V60.4012ZM96.7446 69.3469C96.7446 70.174 96.7615 70.1909 97.3029 70.2921C97.5904 70.3428 98.1487 70.3597 98.5209 70.3259L99.1976 70.2753V68.5874L96.7615 68.4861L96.7446 69.3469ZM145.027 68.6212C144.959 68.6887 144.908 69.1444 144.925 69.6339V70.9236L146.254 70.5313C146.254 68.5058 146.494 68.4547 145.652 68.5199C145.399 68.5199 145.111 68.5705 145.027 68.6212ZM79.1506 70.866L79.1337 71.8956L80.96 71.8232V69.8533H79.1675L79.1506 70.866Z" fill="#FBFCFD"/>
<path d="M150.524 67.929C150.372 68.1146 150.152 68.4184 150.051 68.621C149.949 68.8404 149.865 69.4143 149.865 69.8869C149.865 70.4101 149.966 70.9165 150.101 71.119C150.338 71.4397 150.355 71.4397 150.609 70.8152C150.795 70.3932 150.863 69.7687 150.846 68.9079C150.795 67.7095 150.778 67.642 150.524 67.929ZM86.0864 72.5875V75.0011L88.7932 74.9167V70.1907H86.0864V72.5875Z" fill="white"/>
<path d="M103.951 64.5366C103.833 64.8572 103.731 65.9206 103.714 66.8996C103.68 68.655 103.68 68.6718 104.053 68.5874C104.273 68.5368 104.611 68.503 104.814 68.503C105.186 68.503 105.203 68.4524 105.203 66.7645C105.186 65.3636 105.22 64.8066 104.949 64.3678C104.763 64.064 104.442 63.9458 104.357 63.9458C104.256 63.9458 104.07 64.2159 103.951 64.5366ZM86.2048 66.005C86.1372 66.2244 86.0864 67.254 86.0864 68.3005V70.1909H88.7932V65.8025C87.2199 65.8025 86.6616 65.7518 86.5432 65.7012C86.4079 65.6505 86.2725 65.7687 86.2048 66.005Z" fill="white"/>
<path d="M86.0866 75.0011C86.0358 75.153 86.0865 75.8282 86.1541 76.2164C86.2049 76.6215 86.4248 77.1447 86.6278 77.381C86.9154 77.7186 87.1184 77.803 87.3891 77.7186C87.609 77.668 87.9643 77.3304 88.2011 76.9759C88.438 76.6384 88.6917 76.0307 88.7594 75.6256L88.8778 74.9167C86.4587 74.9167 86.1713 74.7648 86.0867 75.0011L86.0866 75.0011Z" fill="white"/>
<path d="M86.8908 64.8414C86.5159 65.286 86.2199 65.7751 86.2594 65.9308C86.2989 66.1086 86.7921 66.2198 87.6406 66.2643L88.9626 66.3087C88.864 64.2411 88.8442 64.1967 88.2128 64.13C87.6998 64.0633 87.4433 64.1967 86.8908 64.8414Z" fill="white"/>
</g>
<defs>
<clipPath id="clip0_388_2169">
<rect width="135" height="70.8904" fill="white" transform="translate(24 19.5547)"/>
</clipPath>
</defs>
</svg>
