<svg width="183" height="110" viewBox="0 0 183 110" fill="none" xmlns="http://www.w3.org/2000/svg">
<g clip-path="url(#clip0_403_3075)">
<path fill-rule="evenodd" clip-rule="evenodd" d="M134.182 74.1787C134.712 74.1787 135.487 74.3208 135.915 74.4831C136.588 74.7673 136.711 74.7673 137.18 74.4628C137.465 74.2802 137.751 74.2193 137.832 74.3208C137.914 74.402 137.893 74.8079 137.792 75.1935C137.669 75.5994 137.588 78.9683 137.588 83.007C137.588 86.924 137.649 90.4147 137.73 90.78C137.873 91.328 138.016 91.4498 138.566 91.531C138.974 91.5918 139.219 91.7542 139.219 91.9369C139.219 92.2007 138.811 92.2413 136.772 92.2413C134.733 92.2413 134.325 92.2007 134.325 91.9369C134.325 91.7542 134.569 91.5918 135.65 91.4295L135.793 88.852C135.895 87.4111 135.956 85.2801 135.956 84.0827C135.956 82.865 135.915 81.8908 135.854 81.8908C135.793 81.8908 135.283 82.1952 134.692 82.5606C133.917 83.0476 133.427 83.21 132.816 83.1897C132.347 83.1694 131.714 83.0071 131.368 82.8447C131.042 82.6823 130.552 82.317 130.307 82.0532C130.063 81.8096 129.716 81.2414 129.553 80.8355C129.369 80.4093 129.227 79.6381 129.227 79.1104C129.227 78.5624 129.329 77.7912 129.43 77.3853C129.553 76.9591 129.94 76.33 130.307 75.985C130.654 75.6197 131.47 75.092 132.082 74.7673C132.829 74.3884 133.529 74.1922 134.182 74.1787ZM131.368 76.4112C131.082 76.9185 130.96 77.4868 130.96 78.4407C130.96 79.3539 131.082 80.0034 131.368 80.5513C131.592 80.9775 132.102 81.5052 132.489 81.7285C132.979 81.9923 133.427 82.0735 133.917 81.9923C134.304 81.9314 134.937 81.6676 135.304 81.3834L135.956 80.8761C135.956 77.568 135.875 76.3909 135.752 76.1067C135.63 75.8226 135.222 75.4573 134.835 75.2949C134.447 75.1326 133.917 74.9905 133.672 74.9905C133.407 74.9905 132.877 75.1529 132.489 75.3558C132.102 75.5385 131.613 76.0256 131.368 76.4112ZM155.778 74.2193C156.553 74.2599 157.103 74.4223 157.511 74.7064C157.817 74.9499 158.245 75.3964 158.429 75.7211C158.633 76.0459 158.857 76.7765 159.061 78.3392L158.368 78.5015C157.98 78.5827 156.594 78.6436 152.882 78.6436V79.151C152.882 79.4351 153.005 79.9628 153.147 80.3281C153.31 80.6731 153.718 81.2211 154.065 81.5458C154.616 82.0126 154.901 82.0938 155.9 82.0938C156.675 82.0938 157.307 81.9517 158.592 81.282L158.551 81.7488C158.511 82.0735 158.205 82.3373 157.471 82.6823C156.736 83.0476 156.125 83.1694 155.227 83.1694C154.412 83.1694 153.732 83.0273 153.188 82.7432C152.739 82.52 152.209 82.175 152.026 81.972C151.842 81.7488 151.536 81.2414 151.373 80.8355C151.19 80.389 151.047 79.5163 151.067 78.806C151.067 78.0956 151.19 77.2433 151.312 76.8779C151.455 76.5329 151.761 76.0053 152.026 75.7211C152.27 75.437 152.964 74.9702 153.555 74.6861C154.391 74.2802 154.86 74.1787 155.778 74.2193ZM153.229 76.1676C153.025 76.5126 152.882 77.0403 152.882 77.3244V77.8318H157.165C157.165 77.0403 157.022 76.4923 156.859 76.1067C156.696 75.7211 156.369 75.3152 156.145 75.1935C155.921 75.0717 155.39 74.9905 154.983 74.9905C154.554 74.9905 154.065 75.1123 153.881 75.2543C153.698 75.3964 153.412 75.8023 153.229 76.1676Z" fill="white"/>
<path fill-rule="evenodd" clip-rule="evenodd" d="M83.8527 21.0666C82.1601 22.7511 80.0597 24.9226 79.1624 25.8562C78.2651 26.8101 79.5294 25.6532 81.997 23.3193C84.4441 20.9854 86.6261 18.9559 86.8301 18.8138C87.1563 18.6109 87.3807 18.6718 88.2983 19.1994C88.8693 19.5444 89.9094 20.1127 90.5823 20.4374C91.2553 20.7824 91.7243 20.9651 91.602 20.8433C91.4796 20.7418 90.46 20.0518 89.2976 19.3009C88.1556 18.5703 87.1563 17.9614 87.0544 17.9614C86.9728 17.9614 85.5249 19.3618 83.8527 21.0463V21.0666ZM84.1178 22.9946C81.6911 25.4503 80.8754 26.465 77.6329 31.072C74.003 36.2472 73.9214 36.369 74.0642 37.1605C74.1254 37.607 74.2273 38.0332 74.2885 38.1347C74.3293 38.2159 74.6964 37.8506 75.1246 37.3229C75.5325 36.7749 76.5317 35.5775 77.3474 34.6236C78.1631 33.6698 79.3867 32.31 80.0801 31.5794L81.3036 30.2602C77.8368 37.0185 76.5929 39.535 76.3074 40.2048L75.7772 41.4225C78.2447 38.9059 81.324 35.7196 84.2198 32.7362L89.4607 27.3174L88.8285 25.7953C85.6473 28.941 84.7908 29.7122 84.8723 29.5499C84.9743 29.3875 85.7288 28.2307 86.5649 27.013L88.0944 24.7806C86.932 22.6902 86.8708 22.406 86.9524 21.371C87.0136 20.7418 87.0136 20.2142 86.9728 20.2142C86.932 20.2142 85.6473 21.4725 84.1178 22.9946ZM93.0498 20.7418C92.7236 20.9042 92.4584 21.0666 92.4788 21.0869C92.4992 21.1072 92.8051 21.1072 93.1314 21.0666C93.682 21.026 94.253 21.5334 98.6782 25.8562L103.613 30.6661C96.0884 22.7916 93.8452 20.4983 93.784 20.478C93.7024 20.4577 93.3761 20.5795 93.0498 20.7418ZM67.9464 25.3285C67.4569 25.8156 62.889 31.0111 57.8112 36.8764C52.7334 42.7417 47.6148 48.7287 46.4524 50.1696C45.29 51.6106 44.5763 52.5644 44.8414 52.2803C45.1269 51.9962 47.9207 48.8911 51.0408 45.38C54.1609 41.869 58.4026 37.1199 60.4826 34.8266C62.5627 32.5333 65.3361 29.5905 66.6412 28.2713C68.4766 26.4245 69.1088 25.8968 69.537 25.8968C69.8429 25.8968 70.8421 26.2621 71.7802 26.6883C72.6979 27.1348 73.9622 27.7842 74.574 28.1292C75.1858 28.4945 75.614 28.6975 75.4917 28.596C75.3897 28.4945 74.1865 27.6219 72.8406 26.668C71.4947 25.7141 70.0672 24.8414 69.6797 24.6994C69.2923 24.5776 68.9456 24.4761 68.9048 24.4761C68.864 24.4761 68.4358 24.8617 67.9464 25.3285ZM63.8678 32.8174C61.176 36.0646 58.79 38.9465 58.5657 39.2509C58.219 39.738 58.2802 39.7177 59.0755 39.0683C59.5853 38.6826 60.9109 37.6273 62.0325 36.7343C63.1541 35.8616 64.0106 35.2325 63.9494 35.334C63.8882 35.4354 62.8686 37.0996 61.7266 38.9871C60.5642 40.8745 59.4834 42.6605 59.2998 42.9446C58.9939 43.4114 59.0143 43.4114 59.7077 42.8431C60.1155 42.4981 62.3587 40.5498 64.7243 38.4797C67.0695 36.4096 69.4758 34.3192 70.0672 33.8118L71.1684 32.8986C70.4955 31.5591 70.21 31.1735 70.0876 31.1735C69.9856 31.1735 69.1088 31.9041 68.1503 32.7971C67.1918 33.6901 66.4169 34.4004 66.4169 34.3598C66.4169 34.3395 67.1307 33.3045 68.0279 32.0868L69.639 29.8543C69.1699 28.7584 69.0272 28.0886 69.0272 27.6624C69.0272 27.2565 68.966 26.9115 68.9048 26.9115C68.8233 26.9318 66.5597 29.5702 63.8678 32.8174ZM109.955 34.1366C109.507 34.441 109.058 34.7657 108.936 34.8469C108.834 34.9484 109.16 34.8672 109.69 34.6642L110.649 34.3192C111.811 35.4151 114.911 38.6624 118.296 42.2343C121.661 45.8062 126.249 50.677 128.472 53.0515C130.674 55.4058 132.53 57.3541 132.591 57.3541C132.653 57.3541 128.961 53.2748 124.393 48.2619C119.826 43.2693 114.952 37.952 113.565 36.4502C112.178 34.9484 110.995 33.6901 110.914 33.6495C110.832 33.6292 110.404 33.8524 109.955 34.1366ZM110.282 36.8561C110.037 37.6882 109.874 38.3782 109.894 38.3985C109.935 38.3985 110.69 38.9668 111.587 39.6365C112.484 40.3063 115.339 42.5793 117.909 44.6697C120.478 46.7601 122.782 48.6272 123.007 48.8099C123.231 48.9722 122.986 48.6678 122.477 48.1198C121.967 47.5516 119.275 44.6291 116.481 41.6254C113.687 38.6218 111.261 35.9631 111.057 35.7399C110.73 35.3543 110.69 35.3746 110.282 36.8561ZM93.7432 42.6402L83.4449 46.7804C79.9577 45.8468 78.469 45.4409 77.898 45.2785L76.8172 44.9741L76.7152 42.2343L70.6994 42.1328C70.6994 42.9649 70.577 43.1476 70.3935 43.1476C70.2304 43.1476 69.0884 42.8837 67.8444 42.5387C66.6004 42.1937 65.5808 41.9299 65.5604 41.9299C65.5196 41.9096 62.8278 44.8117 59.5853 48.3431C56.3429 51.8947 52.3663 56.1973 50.7757 57.9426C49.185 59.688 47.9207 61.1492 47.9615 61.2101C47.9819 61.271 48.4101 61.4537 48.8791 61.616L49.7356 61.9205C51.5302 60.033 52.4479 59.0183 52.9577 58.4703C53.4675 57.902 56.608 54.4722 59.9524 50.7988C63.2764 47.1457 66.0498 44.1623 66.111 44.1623C66.1722 44.1623 67.4773 44.5276 69.0272 44.9538C70.5566 45.4003 71.9841 45.8062 72.1881 45.8671C72.4736 45.9686 72.5347 45.8468 72.5347 45.0756V44.1623H74.574L74.676 46.4962C81.1609 48.2822 83.2205 48.8099 83.4449 48.8099C83.6692 48.8302 88.1148 47.1051 93.3353 44.9741C98.5559 42.8431 103.001 41.0572 103.226 40.9963C103.552 40.9151 103.94 41.2601 105.061 42.5387L106.489 44.1826L104.939 45.6844L103.144 43.6549C101.105 45.8468 97.21 50.0073 93.1926 54.3098C87.4214 60.4592 85.9532 62.1437 86.2794 62.164C86.5242 62.2046 88.0128 62.1031 89.6035 61.961L92.4992 61.7175C105.673 47.5516 109.609 43.452 109.731 43.452C109.853 43.452 113.32 47.3283 117.46 52.0774C123.496 59.0183 125.107 60.7433 125.617 60.8651C125.984 60.9666 126.616 61.0072 127.065 60.9666L127.86 60.9057L109.751 40.2657C108.242 42.0313 107.753 42.5387 107.671 42.5387C107.569 42.5387 106.754 41.6254 105.836 40.5092C104.918 39.393 104.123 38.4797 104.103 38.5C104.062 38.5 99.4124 40.3671 93.7432 42.6402ZM102.757 53.8633C98.923 57.9629 95.8029 61.3319 95.8233 61.3725C95.864 61.3928 96.9856 61.2913 98.3316 61.1087C99.6775 60.9463 102.838 60.7028 105.367 60.581C108.1 60.4389 112.443 60.3983 116.073 60.4592C121.844 60.581 122.171 60.5607 121.865 60.236C121.681 60.0533 118.949 56.9279 115.767 53.2951C112.606 49.6623 109.935 46.6383 109.874 46.5571C109.792 46.4759 106.591 49.7637 102.757 53.8633ZM108.406 51.4888C108.589 51.367 108.895 51.2656 109.099 51.2656C109.384 51.2656 109.446 51.4482 109.446 53.701H108.426C107.651 53.701 107.406 53.6198 107.406 53.3965C107.406 53.2342 107.549 52.7877 107.733 52.4021C107.916 52.0165 108.202 51.6106 108.406 51.4888ZM110.261 52.4833C110.261 51.5294 110.322 51.2656 110.567 51.2656C110.73 51.2656 111.097 51.4279 111.383 51.6309C111.668 51.8135 111.995 52.26 112.117 52.5847C112.219 52.9298 112.301 53.3154 112.301 53.4574C112.301 53.6198 111.954 53.701 110.261 53.701V52.4833ZM107.406 54.5128H109.446V56.9482H107.406V55.7305V54.5128ZM110.282 54.4925L112.199 54.6143L112.301 56.9482H110.261L110.282 55.7102V54.4925ZM59.2183 55.1419C55.5476 59.1603 52.5702 62.4887 52.5906 62.5293C52.611 62.5902 54.2016 62.7729 56.0982 62.9352C58.1986 63.1179 61.8285 63.2396 65.2749 63.2396C68.4154 63.2396 72.7387 63.1585 74.8595 63.0367C77.0007 62.9149 78.7749 62.7729 78.7953 62.7323C78.8157 62.6714 76.0015 59.3024 72.5143 55.2434C69.0476 51.1641 66.1314 47.8357 66.0498 47.8357C65.9683 47.8357 62.889 51.1235 59.2183 55.1419ZM64.3165 53.5589C64.6223 53.3154 65.0302 53.1124 65.2341 53.1124C65.54 53.1124 65.5808 53.3154 65.5808 55.9537H64.4592C63.7047 55.9537 63.3376 55.8725 63.3376 55.6899C63.3376 55.5478 63.4396 55.1216 63.5415 54.736C63.6639 54.3301 64.0106 53.8024 64.3165 53.5589ZM66.6004 54.5331C66.6004 53.7213 66.7024 53.1124 66.8044 53.1124C66.9267 53.1124 67.2326 53.2139 67.4773 53.3357C67.722 53.4574 68.0891 53.7416 68.293 53.9851C68.4766 54.2286 68.6397 54.7563 68.6397 55.9537H66.6004V54.5331ZM63.4396 56.8873C63.5415 56.8264 64.0717 56.7655 65.5808 56.7655V59.4039H63.3376L63.3172 58.2065C63.2968 57.557 63.358 56.9685 63.4396 56.8873ZM66.6004 56.7655H68.6397V59.4039H66.6004V58.0847V56.7655ZM137.995 84.0014C137.995 84.2856 138.342 84.793 138.893 85.28C139.362 85.7265 139.912 86.3557 140.076 86.7007L140.381 87.3095C140.748 86.1933 140.85 85.6453 140.85 85.3815C140.85 85.0974 140.647 84.6712 140.381 84.4073C140.137 84.1638 139.606 83.8594 139.199 83.7579C138.811 83.6361 138.383 83.555 138.24 83.555C138.097 83.555 137.995 83.7579 137.995 84.0014ZM133.183 86.7007C132.734 86.8631 132.347 86.9848 132.306 86.9848C132.265 86.9848 132.122 87.269 131.959 87.614C131.735 88.0807 131.714 88.4055 131.857 89.0346C131.98 89.4811 132.163 89.887 132.265 89.9479C132.387 89.9885 132.51 89.8261 132.571 89.5826C132.612 89.339 133.122 88.6896 133.693 88.1619C134.264 87.6343 134.712 87.0254 134.712 86.8022C134.712 86.5383 134.59 86.3963 134.366 86.3963C134.162 86.3963 133.631 86.5383 133.183 86.7007ZM67.1103 87.5328C67.0287 87.614 66.9675 88.6084 66.9879 89.7652C67.0083 91.4903 67.0695 91.8759 67.3142 91.8759C67.5589 91.8759 67.6201 91.6324 67.6201 90.9626C67.6201 90.2117 67.7017 90.0494 67.9871 90.0494C68.1911 90.0494 68.5785 90.435 68.9048 90.9626C69.2107 91.4497 69.5574 91.8759 69.6594 91.8759C69.7817 91.8759 69.8633 91.7947 69.8633 91.7136C69.8633 91.6324 69.6797 91.2671 69.4554 90.9018C69.068 90.2523 69.068 90.232 69.4554 89.7855C69.6797 89.542 69.8633 89.0346 69.8633 88.6693C69.8633 88.2025 69.7409 87.9184 69.4146 87.6951C69.1699 87.5328 68.5785 87.3907 68.1299 87.3907C67.6609 87.411 67.2122 87.4719 67.1103 87.5328ZM67.6201 88.7302C67.6201 87.8778 67.6609 87.8169 68.1299 87.8169C68.4154 87.8169 68.8233 87.8981 69.0476 88.0199C69.2719 88.1213 69.4758 88.4258 69.4758 88.6693C69.4758 88.9128 69.3535 89.2376 69.2311 89.3796C69.0884 89.5217 68.6805 89.6435 68.293 89.6435C67.6405 89.6435 67.6201 89.6232 67.6201 88.7302ZM72.3104 89.6435V91.8759C74.2273 91.8759 74.7575 91.7744 74.7575 91.673C74.7575 91.5512 74.3497 91.47 73.8399 91.47H72.9222V89.8464C74.1865 89.8464 74.5536 89.7449 74.5536 89.6435C74.5536 89.5217 74.1865 89.4405 73.7379 89.4405H72.9222V87.8169C74.3497 87.8169 74.7575 87.7154 74.7575 87.614C74.7575 87.4922 74.2273 87.411 73.534 87.411H72.3104V89.6435ZM77.6533 87.7154C77.3066 87.9387 77.1639 88.2025 77.1843 88.6287C77.2047 88.9534 77.327 89.2984 77.4698 89.3796C77.6125 89.4608 78.0816 89.6638 78.5098 89.8464C78.9584 90.0088 79.4071 90.2929 79.5294 90.4756C79.713 90.7394 79.6926 90.9018 79.4479 91.1453C79.2847 91.328 78.8973 91.47 78.5914 91.47C78.2651 91.47 77.9184 91.2874 77.7757 91.0641C77.6329 90.8206 77.4494 90.6379 77.3678 90.6582C77.2862 90.6582 77.2047 90.7597 77.2047 90.9018C77.2047 91.0438 77.3678 91.3077 77.5717 91.5106C77.7553 91.6933 78.2447 91.8556 78.6322 91.8759C79.0808 91.8759 79.4887 91.7339 79.713 91.5106C79.8965 91.3279 80.0597 90.9018 80.0597 90.5973C80.0597 90.1914 79.9169 89.9682 79.5091 89.7652C79.2032 89.6029 78.6933 89.4202 78.3875 89.3593C78.0612 89.2782 77.7757 89.0549 77.7145 88.8317C77.6737 88.6084 77.6941 88.2837 77.7961 88.1213C77.898 87.9387 78.2039 87.8169 78.469 87.8169C78.7341 87.8169 79.0808 87.959 79.2439 88.1416C79.4275 88.304 79.6926 88.4055 79.8557 88.3649C80.1004 88.304 80.0801 88.2025 79.713 87.8575C79.4683 87.5937 78.9992 87.411 78.6933 87.3907C78.3875 87.3907 77.9184 87.5328 77.6533 87.7154ZM82.5068 89.6435C82.5068 91.4903 82.568 91.8759 82.8127 91.8759C83.0778 91.8759 83.1186 91.4903 83.1186 89.6435C83.1186 87.7763 83.0778 87.411 82.8127 87.411C82.568 87.411 82.5068 87.7763 82.5068 89.6435ZM85.5657 89.6435V91.8759C87.9313 91.8759 88.1148 91.7947 88.645 91.2671C89.1344 90.7597 89.2364 90.4756 89.2364 89.7449C89.2364 89.2376 89.1548 88.649 89.0325 88.4258C88.9305 88.2025 88.5226 87.8778 88.1148 87.7154C87.7273 87.5328 86.9932 87.411 86.4834 87.411H85.5657V89.6435ZM86.1775 87.8169H86.7893C87.1359 87.8169 87.6458 87.9184 87.9109 88.0605C88.1964 88.2025 88.5226 88.5272 88.6246 88.7708C88.747 89.0143 88.8285 89.5014 88.8285 89.8464C88.8285 90.2117 88.645 90.6379 88.3391 90.9626C87.972 91.328 87.6254 91.47 86.1775 91.47V89.6435V87.8169ZM91.8875 89.6435V91.8759C93.8044 91.8759 94.3346 91.7744 94.3346 91.673C94.3346 91.5512 93.9267 91.47 93.4169 91.47H92.4992V89.8464C93.7636 89.8464 94.1307 89.7449 94.1307 89.6435C94.1307 89.5217 93.7636 89.4405 93.3149 89.4405H92.4992V87.8169C93.9267 87.8169 94.3346 87.7154 94.3346 87.614C94.3346 87.4922 93.8044 87.411 93.111 87.411H91.8875V89.6435ZM96.8837 87.5328C96.8021 87.614 96.7409 88.6084 96.7613 89.7652C96.7817 91.4903 96.8429 91.8759 97.0876 91.8759C97.3527 91.8759 97.3935 91.5309 97.4139 90.09V88.3243C99.2288 91.0641 99.861 91.8556 100.004 91.8556C100.187 91.8556 100.248 91.2874 100.248 89.6435C100.248 88.2025 100.187 87.411 100.045 87.411C99.9018 87.411 99.8202 88.1213 99.7794 89.2782L99.7387 91.1656C97.8421 88.2431 97.2507 87.3907 97.1896 87.3907C97.108 87.3907 96.9856 87.4719 96.8837 87.5328ZM103.572 87.8169C103.144 88.0605 102.838 88.4664 102.696 88.9331C102.56 89.4067 102.56 89.8802 102.696 90.3538C102.818 90.7394 103.165 91.2468 103.471 91.47C103.776 91.6933 104.327 91.8759 104.694 91.8759C105.061 91.8759 105.612 91.7338 105.918 91.5918C106.224 91.4294 106.55 91.1656 106.631 90.9829C106.733 90.78 106.693 90.6379 106.529 90.6379C106.387 90.6379 106.081 90.8206 105.856 91.0641C105.612 91.3077 105.204 91.47 104.796 91.47C104.368 91.47 103.96 91.2874 103.613 90.9626C103.246 90.577 103.103 90.232 103.103 89.6435C103.103 89.0549 103.246 88.6896 103.613 88.3243C103.94 87.9793 104.347 87.8169 104.755 87.8169C105.163 87.8169 105.571 87.9793 105.877 88.3243C106.162 88.5881 106.468 88.8317 106.57 88.8317C106.693 88.8317 106.774 88.7302 106.774 88.6287C106.774 88.507 106.509 88.1822 106.162 87.9184C105.795 87.5937 105.306 87.411 104.898 87.411C104.531 87.411 103.94 87.5937 103.572 87.8169ZM109.221 89.6435C109.221 91.4903 109.282 91.8759 109.527 91.8759C109.792 91.8759 109.833 91.4903 109.833 89.6435C109.833 87.7763 109.792 87.411 109.527 87.411C109.282 87.411 109.221 87.7763 109.221 89.6435ZM113.85 87.6343C113.769 87.7966 113.463 88.649 113.137 89.542C112.79 90.435 112.484 91.3077 112.403 91.5106C112.335 91.7406 112.396 91.8624 112.586 91.8759C112.77 91.8759 112.953 91.6324 112.994 91.3685C113.096 90.9018 113.198 90.8612 114.075 90.8409C114.911 90.8409 115.074 90.9018 115.298 91.3483C115.441 91.6324 115.645 91.8759 115.747 91.8759C115.869 91.8759 115.951 91.7947 115.951 91.7136C115.951 91.6324 115.604 90.6582 115.196 89.5623C114.768 88.4461 114.319 87.5125 114.197 87.4516C114.054 87.411 113.912 87.4922 113.85 87.6343ZM113.728 89.1767C113.871 88.7505 114.054 88.4258 114.156 88.4258C114.258 88.4258 114.462 88.852 114.646 89.3796C114.809 89.9073 114.952 90.3741 114.952 90.3944C114.931 90.4147 114.564 90.4553 114.116 90.4553C113.565 90.4553 113.341 90.3741 113.402 90.1914C113.443 90.0494 113.585 89.6029 113.728 89.1767ZM118.194 89.6435V91.8759C119.948 91.8759 120.437 91.7744 120.437 91.673C120.437 91.5512 120.07 91.47 119.622 91.47H118.806C118.806 87.756 118.765 87.411 118.5 87.411C118.255 87.411 118.194 87.7763 118.194 89.6435Z" fill="white"/>
<path fill-rule="evenodd" clip-rule="evenodd" d="M126.392 38.2159C126.474 38.2971 127.086 39.738 127.779 41.4022C128.452 43.0867 129.023 44.5074 129.023 44.6088C129.023 44.69 128.799 44.6088 128.513 44.4465C128.228 44.2841 128.003 44.2232 128.003 44.345C128.003 44.4668 128.329 45.3192 128.717 46.273C129.104 47.2269 129.37 47.9981 129.268 47.9981C129.186 47.9778 128.9 47.856 128.615 47.6937C128.329 47.5313 128.044 47.4096 127.942 47.3893C127.86 47.3893 128.207 48.2822 128.717 49.3782C129.227 50.4538 129.635 51.3671 129.594 51.3874C129.553 51.4077 129.084 51.1844 128.533 50.88C127.942 50.5553 126.759 49.5202 123.925 46.476L124.332 45.4206C124.557 44.8321 124.74 44.3044 124.74 44.2435C124.74 44.1826 124.557 44.2232 124.332 44.345C124.108 44.4668 123.884 44.5074 123.823 44.4465C123.761 44.3856 124.292 42.9244 124.985 41.1993C125.699 39.4742 126.331 38.1347 126.392 38.2159ZM45.9428 38.4797C45.9836 38.5203 46.2691 39.2104 46.5953 39.9816C46.942 40.7528 47.4111 41.8893 47.6354 42.4779C48.0636 43.5332 48.0636 43.5332 47.6558 43.4317C47.4314 43.3708 47.2479 43.3505 47.2479 43.3708C47.2479 43.4114 47.4722 44 47.7577 44.69C48.0432 45.4003 48.2675 46.0092 48.2675 46.0701C48.2675 46.131 48.0432 46.0295 47.7577 45.8671C47.4722 45.7048 47.2071 45.5627 47.1459 45.5627C47.0848 45.5627 47.1867 45.8265 47.3499 46.1716C47.513 46.5166 47.6558 46.8616 47.6558 46.9834C47.6558 47.1051 46.942 47.9981 46.0651 49.0129C44.7804 50.5147 44.3725 50.8597 43.7811 50.9409C43.3937 51.0018 43.047 51.0018 43.0062 50.9409C42.9858 50.88 43.3325 50.2509 43.7811 49.5202C44.2298 48.7896 44.5561 48.2011 44.4949 48.2011C44.4337 48.2011 44.2094 48.2822 43.9851 48.404C43.7607 48.5258 43.5364 48.5664 43.4752 48.5055C43.4141 48.4446 43.6996 47.7546 44.8008 45.5627L44.189 45.8671C43.8423 46.0295 43.5772 46.131 43.5772 46.0701C43.5772 46.0092 43.8015 45.4003 44.087 44.69C44.3725 44 44.5968 43.3303 44.6172 43.2288C44.6172 43.1273 44.4745 43.1679 44.291 43.3303C44.1278 43.4926 43.9239 43.5941 43.8831 43.5332C43.8219 43.4723 44.1482 42.5185 44.6172 41.4022C45.0863 40.286 45.5553 39.1495 45.6777 38.8856C45.8 38.6218 45.9224 38.4392 45.9428 38.4797ZM132.408 43.3708C132.449 43.4114 133.061 44.893 133.774 46.6789C134.508 48.4649 135.079 49.9667 135.018 50.0276C134.978 50.0885 134.712 49.9667 134.427 49.7638C134.141 49.5811 133.917 49.4391 133.917 49.4594C133.917 49.4999 134.243 50.3523 134.631 51.3468C135.018 52.3412 135.304 53.1936 135.243 53.2139C135.181 53.2545 134.855 53.1328 134.529 52.9704C134.203 52.808 133.917 52.6863 133.917 52.7066C133.917 52.7471 134.325 53.6604 134.835 54.7361C135.345 55.832 135.691 56.725 135.589 56.725C135.508 56.7047 135.222 56.5829 134.937 56.4205C134.651 56.2582 134.366 56.1364 134.264 56.1161C134.182 56.1161 134.284 56.4205 134.488 56.7656C134.692 57.1309 135.202 57.963 135.61 58.5921C136.038 59.2416 136.303 59.7692 136.201 59.7692C136.12 59.7692 134.896 58.5109 133.489 56.9888C132.082 55.4464 130.634 53.8431 129.635 52.666L130.144 51.2453C130.43 50.4741 130.613 49.7841 130.552 49.7232C130.491 49.6623 130.246 49.7232 129.981 49.8653C129.614 50.0682 129.553 50.0682 129.655 49.8044C129.737 49.6623 130.369 48.1199 131.082 46.4151C131.796 44.7103 132.388 43.3505 132.408 43.3708ZM52.7336 45.9686C52.7947 45.9686 52.9783 46.3136 53.121 46.7195C53.2842 47.1457 53.5901 47.9372 53.8144 48.5055C54.1814 49.3782 54.1814 49.4999 53.8959 49.3579C53.5901 49.2361 53.5901 49.2767 53.8756 49.9667C54.0591 50.3929 54.1814 50.7988 54.1814 50.88C54.1814 50.9815 54.0387 51.0018 53.8756 50.9409C53.7124 50.88 53.5697 50.88 53.5697 50.9409C53.5697 51.0018 53.7532 51.4077 53.9775 51.8542C54.2018 52.3007 54.3854 52.7066 54.3854 52.7674C54.3854 52.8283 54.1814 52.7674 53.4677 52.3818L53.9163 53.1328C54.1814 53.5387 54.3446 53.9648 54.2834 54.0866C54.2222 54.2084 53.9571 54.2896 53.6716 54.2896C53.2434 54.2896 53.1618 54.391 53.1618 54.8375C53.1618 55.1825 52.9579 55.6087 52.1218 56.4205L52.1422 54.2896L51.4284 54.4316C51.0206 54.5331 50.7147 54.5331 50.7147 54.4316C50.7147 54.3505 50.8778 54.046 51.0817 53.7213C51.2857 53.4169 51.5508 53.0516 51.6527 52.8892C51.7955 52.6457 51.7343 52.6254 50.9186 52.8689L51.4284 51.8542C51.8975 50.9003 51.9178 50.8597 51.5304 51.0424C51.3061 51.1641 51.1225 51.2047 51.1225 51.1438C51.1225 51.083 51.2653 50.6973 51.4284 50.2712C51.612 49.8653 51.7343 49.4594 51.7343 49.3579C51.7343 49.2767 51.612 49.2767 51.4896 49.3579C51.3061 49.4796 51.2857 49.4188 51.3876 49.1143C51.4692 48.8911 51.7751 48.0996 52.081 47.3284C52.3665 46.5775 52.652 45.9686 52.7336 45.9686ZM48.4919 50.2306C48.5938 50.2306 48.9201 50.8394 49.2056 51.5903C49.4911 52.3615 49.797 53.1125 49.8786 53.2748C49.9601 53.4981 49.9194 53.5387 49.6339 53.4169C49.3076 53.2951 49.328 53.356 49.695 54.1881C49.9194 54.6955 50.1029 55.142 50.1029 55.2028C50.1029 55.2637 49.9194 55.2231 49.2872 54.8984L49.695 55.7102C49.9194 56.1567 50.1029 56.6032 50.1029 56.725C50.1029 56.8603 49.9669 56.8603 49.695 56.725C49.3484 56.5626 49.3891 56.6641 49.899 57.3744C50.2252 57.8615 50.4292 58.308 50.3476 58.4095C50.266 58.4906 49.899 58.5109 49.5319 58.45C48.8793 58.3486 48.8793 58.3486 48.8793 59.201C48.8793 59.891 48.7774 60.1751 47.7985 61.0884L48.0636 58.3486L46.3302 58.6327L46.8808 57.6788C47.2887 57.0091 47.3499 56.7656 47.1459 56.8264C46.9828 56.8873 46.8401 56.8467 46.8401 56.725C46.8401 56.6032 47.0236 56.1567 47.6558 54.8984L46.7993 55.2028L47.2275 54.2287C47.615 53.3763 47.615 53.2951 47.3091 53.4169C47.044 53.5387 46.9828 53.4981 47.0848 53.2748C47.1459 53.1125 47.4518 52.3615 47.7577 51.5903C48.0636 50.8394 48.3899 50.2306 48.4919 50.2306ZM41.8438 69.3282C41.9866 69.3079 42.0274 71.2359 41.9662 75.0311C41.9254 78.1971 41.9458 81.1196 42.0274 81.5255C42.1293 82.2155 42.2109 82.2967 42.7615 82.2967C43.2101 82.2967 43.3733 82.3982 43.3733 82.6417C43.3733 82.9664 43.1286 83.007 41.1301 83.007C39.2336 83.007 38.8869 82.9664 38.9277 82.7026C38.9685 82.5402 39.254 82.3779 39.5598 82.3373C39.9473 82.317 40.1512 82.1546 40.2124 81.8299C40.2736 81.5864 40.294 79.0089 40.2124 70.83L39.5394 70.7894C39.0296 70.7488 38.8869 70.6271 38.8869 70.3226C38.8869 69.9979 39.0296 69.9167 39.5394 69.8964C39.9065 69.8964 40.5387 69.7544 40.9262 69.6123C41.3136 69.4702 41.7419 69.3282 41.8438 69.3282ZM82.0583 69.3282C82.2623 69.3079 82.2826 70.6271 82.1807 75.3558C82.0991 79.7598 82.1195 81.5052 82.2826 81.8502C82.4254 82.114 82.7517 82.317 83.078 82.3576C83.4246 82.3779 83.649 82.52 83.649 82.7026C83.649 82.9461 83.3431 83.007 80.5085 83.007L80.3861 81.424L79.4073 82.2561C78.8363 82.7635 78.2245 83.1288 77.8778 83.1491C77.5719 83.1491 77.0417 83.1491 76.7154 83.1288C76.3891 83.0882 75.8589 82.9461 75.5326 82.7838C75.2268 82.6214 74.7577 82.1952 74.4926 81.8502C74.2275 81.4849 73.9216 80.8558 73.7789 80.4702C73.6565 80.0845 73.5546 79.4351 73.5546 79.0495C73.5546 78.6639 73.6565 77.9739 73.7789 77.5274C73.9012 77.0809 74.1867 76.472 74.3907 76.1879C74.615 75.9038 75.4511 75.3152 76.2668 74.889C77.5515 74.2193 77.8574 74.1381 78.7547 74.2193C79.3053 74.2802 79.9375 74.3816 80.121 74.4628C80.4473 74.5643 80.4881 74.4019 80.4881 70.7285H79.7743C79.2033 70.7285 79.0606 70.6474 79.0606 70.3226C79.0606 70.0182 79.2033 69.9167 79.6112 69.8964C79.9375 69.8964 80.5493 69.7747 80.9979 69.6123C81.4465 69.4702 81.936 69.3485 82.0583 69.3282ZM76.0221 75.8226C75.7978 76.0864 75.5123 76.7562 75.4103 77.3244C75.2879 77.9536 75.2879 78.7045 75.4103 79.3133C75.5123 79.841 75.757 80.5107 75.9405 80.7949C76.1444 81.0993 76.5523 81.4646 76.8582 81.6067C77.1845 81.769 77.7351 81.8908 78.0817 81.8908C78.4488 81.8908 78.979 81.769 79.2645 81.627C79.55 81.4849 79.9375 81.0587 80.121 80.6731C80.3861 80.1657 80.4881 79.4554 80.4881 78.1362C80.5085 76.6344 80.4269 76.2488 80.1414 75.9647C79.9375 75.782 79.4277 75.4776 78.9994 75.3152C78.5916 75.1326 78.041 74.9905 77.7759 75.0108C77.5311 75.0108 77.1233 75.092 76.899 75.1731C76.6543 75.2543 76.2668 75.5588 76.0221 75.8226ZM31.1784 69.9573C31.5251 69.9979 32.0757 71.0736 34.0946 75.7008C35.4405 78.8263 36.6641 81.5864 36.8068 81.8299C36.97 82.1343 37.2351 82.2967 37.5614 82.2967C37.908 82.2967 38.0712 82.3982 38.0712 82.6417C38.0712 82.9664 37.8265 83.007 35.5629 83.007C33.5032 83.007 33.0749 82.9461 33.0749 82.7026C33.0749 82.4997 33.3197 82.3779 33.8295 82.3373C34.4209 82.317 34.6044 82.2155 34.584 81.9314C34.584 81.7487 34.3189 80.9572 33.4216 78.7451L28.1807 78.6233L27.6097 80.0034C27.2834 80.7543 27.0591 81.5661 27.0999 81.7893C27.1407 82.0938 27.3446 82.2155 27.834 82.2358C28.303 82.2764 28.4866 82.3982 28.4866 82.6417C28.4866 82.9664 28.2419 83.007 26.3453 83.007C24.4488 83.007 24.2041 82.9664 24.2041 82.6417C24.2041 82.3982 24.3672 82.2967 24.7139 82.2967C25.0198 82.2967 25.3461 82.1141 25.5296 81.8299C25.6928 81.5864 26.9367 78.9277 28.2827 75.9038C29.6286 72.8798 30.7298 70.3023 30.7502 70.1603C30.7502 69.9979 30.9541 69.9167 31.1784 69.9573ZM29.7509 75.0311C29.1595 76.4112 28.6905 77.5883 28.6905 77.6694C28.6905 77.7709 29.649 77.8318 30.8317 77.8318C32.0145 77.8318 32.973 77.8115 32.973 77.7709C32.973 77.7506 32.4836 76.5735 31.8922 75.1326L30.791 72.5551L29.7509 75.0311ZM103.491 70.0182C106.632 70.0385 107.427 70.0994 107.978 70.3835C108.345 70.5662 108.773 70.9924 108.956 71.3171C109.12 71.6621 109.262 72.2304 109.262 72.5957C109.262 72.961 109.058 73.5698 108.793 73.9554C108.528 74.3613 107.978 74.8484 107.57 75.0717C107.141 75.2949 106.815 75.5588 106.815 75.6399C106.815 75.7211 106.999 75.782 107.223 75.782C107.447 75.782 107.957 75.9444 108.385 76.1473C108.793 76.33 109.303 76.7765 109.507 77.1012C109.792 77.568 109.874 78.0145 109.833 78.9683C109.772 80.0034 109.65 80.3484 109.14 80.9978C108.793 81.4443 108.018 82.0329 107.305 82.3779C106.142 82.9461 105.979 82.9664 103.287 82.9867C101.554 82.9867 100.493 82.9258 100.493 82.7838C100.493 82.6823 100.677 82.4794 100.901 82.3373C101.289 82.0938 101.309 81.8908 101.207 70.8097L100.432 70.7691C99.8612 70.7285 99.6777 70.6271 99.6777 70.3632C99.6777 70.0385 99.9836 69.9979 103.491 70.0182ZM103.267 71.6824C103.206 72.0883 103.144 73.1031 103.144 73.9149V75.3761C104.49 75.3761 105.224 75.2949 105.632 75.1731C106.061 75.0717 106.57 74.7267 106.815 74.4222C107.101 74.0366 107.223 73.5698 107.223 72.9407C107.203 72.4536 107.101 71.8854 106.958 71.7027C106.815 71.5403 106.509 71.2765 106.244 71.1547C105.999 71.033 105.245 70.9112 104.592 70.9112H103.389L103.267 71.6824ZM103.144 82.0938C105.102 82.0938 105.877 81.9517 106.326 81.7284C106.734 81.5458 107.223 81.0993 107.447 80.7746C107.692 80.3687 107.814 79.7598 107.814 78.9886C107.835 78.0348 107.733 77.71 107.325 77.2229C107.039 76.8779 106.468 76.5126 106.04 76.4111C105.632 76.2894 104.796 76.2082 104.205 76.2082H103.124L103.144 82.0938ZM47.3091 71.4795C47.4111 71.5403 47.4518 72.3521 47.2683 74.9905L48.553 74.9499C49.6746 74.9093 49.8174 74.9499 49.8174 75.2949C49.8174 75.6399 49.6543 75.7008 47.2683 75.8023L47.3295 78.5015C47.3499 80.5716 47.4518 81.3022 47.6762 81.5661C47.9209 81.8502 48.1656 81.9111 48.8589 81.8096C49.328 81.7487 49.7154 81.7284 49.7154 81.7893C49.7154 81.8502 49.5523 82.1343 49.328 82.4388C49.124 82.7432 48.6754 83.0679 48.3083 83.1491C47.9209 83.2506 47.3703 83.21 46.9216 83.0476C46.473 82.9056 46.0447 82.5808 45.902 82.2967C45.7388 81.9517 45.6369 80.8152 45.6369 76.0052H44.9231C44.5357 76.0052 44.2094 75.9038 44.2094 75.8023C44.2094 75.6805 44.5357 75.4573 45.6369 74.9905L45.5553 72.1492L46.3506 71.7636C46.7789 71.5403 47.2071 71.4186 47.3091 71.4795ZM55.2215 74.1787C56.0168 74.1787 56.6286 74.3208 57.3627 74.6861C57.9541 74.9702 58.5863 75.4979 58.8922 75.9241C59.3 76.5126 59.4224 76.9997 59.4632 78.1159C59.5243 79.0698 59.4428 79.8207 59.2388 80.3687C59.0553 80.8152 58.5659 81.4849 58.1376 81.8705C57.7094 82.2561 57.0364 82.7026 56.649 82.865C56.2615 83.0273 55.4254 83.1491 54.8136 83.1491C54.0795 83.1491 53.4065 83.007 52.8355 82.7229C52.3461 82.4794 51.7343 81.9517 51.4488 81.5255C51.1837 81.1196 50.8574 80.3078 50.7351 79.7598C50.5923 79.0495 50.5719 78.4407 50.7147 77.7303C50.837 77.1621 51.1429 76.4314 51.3876 76.1067C51.6323 75.7617 51.979 75.3761 52.1626 75.234C52.3257 75.092 52.8355 74.7875 53.2842 74.5643C53.7736 74.3411 54.5485 74.1787 55.2215 74.1787ZM52.55 77.1621C52.4073 77.9942 52.4073 78.603 52.55 79.293C52.6724 79.8207 52.9375 80.6122 53.1618 81.0181C53.3861 81.5052 53.8144 81.9111 54.2834 82.1343C54.6913 82.3373 55.2011 82.4997 55.4254 82.4997C55.6497 82.4997 56.078 82.3779 56.4043 82.2155C56.7101 82.0735 57.118 81.6067 57.3219 81.2008C57.5462 80.7137 57.6686 79.9831 57.6686 78.9886C57.6686 78.0145 57.5259 77.2432 57.3015 76.7156C57.0976 76.2691 56.649 75.7008 56.3227 75.437C55.9148 75.1123 55.4662 74.9702 54.8748 74.9702C54.2834 74.9905 53.8348 75.1326 53.4065 75.4979C52.9171 75.8835 52.7336 76.2488 52.55 77.1621ZM64.7041 74.2396C65.4994 74.2802 66.3151 74.4019 66.5394 74.5237C66.8861 74.7064 66.9473 74.9296 66.9065 75.782C66.8657 76.5329 66.7638 76.817 66.5394 76.817C66.3559 76.817 66.1928 76.5735 66.1316 76.2082C66.0704 75.782 65.8461 75.4979 65.4178 75.2949C65.0916 75.1326 64.439 74.9905 63.9904 74.9905C63.4465 74.9905 63.0387 75.1258 62.7668 75.3964C62.5425 75.6196 62.3589 76.0052 62.3589 76.2488C62.3589 76.5126 62.4405 76.8171 62.5221 76.9388C62.6036 77.0606 62.8484 77.2432 63.0727 77.365C63.297 77.4868 64.0311 77.6897 64.7041 77.8318C65.3771 77.9739 66.1724 78.2174 66.4987 78.3595C66.8046 78.5218 67.1512 78.8263 67.2532 79.0495C67.3756 79.2727 67.4571 79.8004 67.4571 80.2063C67.4571 80.6325 67.2736 81.2617 67.0493 81.627C66.8249 81.9923 66.2539 82.4794 65.7849 82.7229C65.112 83.0679 64.5614 83.1491 63.4805 83.1491C62.7056 83.1288 61.7879 83.0476 61.4617 82.9664C60.8703 82.8041 60.8499 82.7838 60.911 81.5864C60.9518 80.9166 61.013 80.2875 61.0538 80.2063C61.0946 80.1251 61.2373 80.0643 61.3393 80.0643C61.4617 80.0643 61.5432 80.3078 61.5432 80.6122C61.5432 80.9166 61.686 81.3834 61.8491 81.627C62.0326 81.8908 62.5221 82.1952 63.0319 82.317C63.5009 82.4388 64.1943 82.4794 64.5614 82.4185C64.908 82.3373 65.3975 82.1141 65.6218 81.8908C65.8665 81.627 66.0296 81.2008 66.0296 80.7746C66.0296 80.2469 65.9073 80.0034 65.581 79.8207C65.3159 79.6989 64.4186 79.4148 63.5825 79.2119C62.4201 78.9277 61.9103 78.6842 61.5024 78.2377C61.0742 77.7912 60.9314 77.4259 60.9314 76.817C60.9314 76.2691 61.0946 75.782 61.4005 75.3558C61.6656 75.0108 62.1958 74.6049 62.5833 74.4425C63.0319 74.2599 63.7864 74.199 64.7041 74.2396ZM89.4813 74.1787C90.1135 74.1787 90.9496 74.3411 91.4186 74.544C91.8672 74.747 92.4586 75.1326 92.7237 75.3964C92.9888 75.6805 93.3355 76.2285 93.4987 76.6141C93.6618 76.9997 93.8046 77.8521 93.7842 78.4812C93.7638 79.1307 93.6006 80.044 93.3967 80.5107C93.1928 80.9978 92.7033 81.6473 92.3159 81.972C91.9284 82.2967 91.2962 82.6823 90.9088 82.8447C90.5213 83.007 89.6852 83.1491 89.0734 83.1491C88.3393 83.1491 87.6663 83.007 87.0953 82.7229C86.6059 82.4794 85.9941 81.9517 85.7086 81.5255C85.4435 81.1196 85.1172 80.3078 84.9949 79.7598C84.8521 79.0495 84.8317 78.4407 84.9745 77.7303C85.0968 77.1621 85.4027 76.4314 85.6474 76.1067C85.8922 75.7617 86.2388 75.3761 86.4224 75.234C86.5855 75.092 87.0953 74.7875 87.544 74.5643C88.0538 74.3411 88.7879 74.1787 89.4813 74.1787ZM86.8098 77.1621C86.6467 78.0145 86.6671 78.603 86.8302 79.3539C86.9526 79.9019 87.2585 80.7137 87.5032 81.1399C87.7479 81.5458 88.2577 82.0329 88.6248 82.1952C88.9715 82.3576 89.4609 82.4997 89.6852 82.4997C89.9095 82.4997 90.3786 82.3576 90.7049 82.1952C91.0719 82.0126 91.439 81.5864 91.6429 81.1196C91.8265 80.6934 91.9692 79.8004 91.9692 79.0495C91.9488 78.2377 91.8061 77.3853 91.5817 76.8373C91.3778 76.33 90.97 75.7211 90.6641 75.4573C90.2562 75.1123 89.8484 74.9905 89.1958 74.9905C88.5432 74.9905 88.115 75.1326 87.6663 75.4979C87.1769 75.8835 86.9934 76.2488 86.8098 77.1621ZM116.094 74.2396C117.195 74.2802 117.705 74.4222 118.317 74.7875C118.745 75.0717 119.336 75.7008 119.622 76.2082C120.03 76.8982 120.152 77.4056 120.132 78.3392C120.132 79.1104 119.989 79.8816 119.724 80.4702C119.499 80.9775 119.01 81.6473 118.623 81.972C118.235 82.2967 117.603 82.6823 117.215 82.8447C116.828 83.007 115.992 83.1491 115.38 83.1491C114.646 83.1491 113.973 83.007 113.402 82.7229C112.913 82.4794 112.301 81.9517 112.015 81.5255C111.73 81.1196 111.424 80.2672 111.322 79.6584C111.24 79.0495 111.22 78.2174 111.302 77.8318C111.383 77.4462 111.546 76.8982 111.669 76.6141C111.771 76.33 112.178 75.8226 112.566 75.4573C112.933 75.1123 113.565 74.6658 113.953 74.5034C114.442 74.2802 115.135 74.199 116.094 74.2396ZM113.422 76.2488C113.191 76.6953 113.082 77.3921 113.096 78.3392C113.116 79.3945 113.259 80.0237 113.626 80.7746C113.973 81.4849 114.34 81.8908 114.85 82.1343C115.258 82.3373 115.768 82.4997 115.992 82.4997C116.216 82.4997 116.685 82.3576 117.012 82.1952C117.358 82.0329 117.746 81.627 117.909 81.3225C118.052 81.0181 118.235 80.4499 118.317 80.0643C118.398 79.6786 118.337 78.7045 118.194 77.9333C117.99 76.7562 117.827 76.3706 117.236 75.7617C116.604 75.1123 116.379 74.9905 115.584 74.9905C115.074 74.9905 114.462 75.1123 114.218 75.2949C113.953 75.4573 113.606 75.8835 113.422 76.2488ZM124.822 74.1787C125.352 74.1787 126.209 74.2802 126.718 74.4222C127.616 74.6658 127.657 74.7064 127.534 75.2949C127.473 75.6196 127.412 76.1067 127.412 76.3503C127.412 76.6141 127.289 76.817 127.167 76.817C127.024 76.817 126.841 76.5532 126.759 76.2082C126.657 75.8226 126.372 75.4776 125.984 75.2949C125.658 75.1326 124.985 74.9905 124.516 74.9905C123.884 74.9905 123.578 75.1123 123.292 75.437C123.089 75.7008 122.925 76.1067 122.925 76.3503C122.925 76.6141 123.068 76.9591 123.231 77.1215C123.394 77.2838 123.884 77.5071 124.312 77.6086C124.72 77.6897 125.556 77.913 126.168 78.055C126.943 78.258 127.391 78.5015 127.697 78.9074C127.962 79.2524 128.126 79.7801 128.126 80.2266C128.105 80.6934 127.901 81.2414 127.595 81.6879C127.31 82.0735 126.718 82.5605 126.27 82.7838C125.801 83.007 125.026 83.1694 124.353 83.1694C123.741 83.1694 122.844 83.1085 121.498 82.9056L121.559 81.5255C121.579 80.4702 121.661 80.1657 121.906 80.1657C122.11 80.1657 122.232 80.4093 122.273 80.8761C122.314 81.2617 122.416 81.6676 122.518 81.7893C122.599 81.8908 123.109 82.114 123.66 82.2764C124.455 82.4997 124.822 82.4997 125.434 82.317C125.944 82.1749 126.29 81.8908 126.494 81.4849C126.698 81.079 126.739 80.7137 126.616 80.4093C126.535 80.1657 126.188 79.841 125.862 79.7192C125.536 79.5772 124.679 79.3336 123.945 79.151C122.946 78.9074 122.477 78.6842 122.028 78.1768C121.498 77.6086 121.457 77.4259 121.559 76.6141C121.641 76.1067 121.845 75.4776 122.049 75.1934C122.273 74.9296 122.742 74.5846 123.129 74.4425C123.517 74.3005 124.271 74.1787 124.822 74.1787ZM142.584 74.1787C142.747 74.1787 142.788 75.1529 142.727 77.568C142.645 80.8558 142.666 80.9978 143.073 81.424C143.318 81.6879 143.767 81.9517 144.093 82.0126C144.46 82.0938 144.929 81.972 145.561 81.6473C146.234 81.282 146.54 80.9572 146.724 80.4499C146.866 80.0643 146.968 79.0292 146.968 78.1362C146.989 77.2432 146.948 76.3097 146.887 76.0458C146.805 75.6805 146.642 75.5993 146.071 75.5993C145.5 75.5993 145.357 75.5182 145.357 75.1934C145.357 74.8687 145.5 74.7875 146.03 74.7673C146.377 74.7673 147.05 74.6252 147.499 74.4831C147.947 74.3208 148.376 74.1787 148.478 74.1787C148.559 74.1787 148.62 76.0052 148.62 82.2967L149.334 82.3982C149.783 82.4591 150.048 82.6011 150.048 82.8041C150.048 83.0476 149.783 83.0882 146.887 82.9259L146.989 81.3834L146.336 82.0126C145.969 82.3576 145.459 82.7432 145.215 82.8853C144.95 83.007 144.358 83.1288 143.889 83.1491C143.4 83.1491 142.706 83.0476 142.319 82.8853C141.931 82.7229 141.503 82.3373 141.32 81.9923C141.095 81.5255 141.014 80.7543 141.034 78.7451C141.055 77.2838 140.993 76.0052 140.912 75.8632C140.83 75.7414 140.504 75.5993 140.157 75.5588C139.79 75.5182 139.545 75.3761 139.545 75.2137C139.545 75.0108 139.994 74.8281 140.871 74.6455C141.605 74.5034 142.237 74.3208 142.278 74.2802C142.319 74.2193 142.462 74.1787 142.584 74.1787Z" fill="white"/>
</g>
<defs>
<clipPath id="clip0_403_3075">
<rect width="135" height="74.4828" fill="white" transform="translate(24 17.7585)"/>
</clipPath>
</defs>
</svg>
