<svg width="183" height="110" viewBox="0 0 183 110" fill="none" xmlns="http://www.w3.org/2000/svg">
<path fill-rule="evenodd" clip-rule="evenodd" d="M57.8133 17.189C57.8386 17.189 58.6069 17.4338 59.5272 17.7377C60.439 18.0332 61.2411 18.3287 61.2917 18.3878C61.3762 18.4723 61.334 18.6074 61.0469 19.0464C60.8612 19.3503 60.5066 19.7978 60.2702 20.0511C60.0338 20.2959 59.6538 20.6336 59.4174 20.8109C59.1895 20.9798 58.7674 21.2331 57.9822 21.6214L55.8039 26.6871L55.9475 27.3034C56.0235 27.6327 56.0826 28.1308 56.0826 28.3925C56.0826 28.6627 56.0488 29.0933 55.9981 29.3466C55.9559 29.5998 55.7617 30.1149 55.576 30.4863C55.3902 30.8578 55.0441 31.3897 54.3518 32.1665L54.0816 33.5595C53.9296 34.3362 53.803 34.9948 53.803 35.0454C53.803 35.0961 54.1745 35.1805 54.622 35.2396C55.0779 35.3072 56.0741 35.4676 56.8424 35.6027C57.6107 35.7462 58.8433 35.9995 59.5863 36.1852C60.3293 36.3625 61.4099 36.6665 61.9925 36.8606C62.575 37.0464 63.4024 37.3588 63.833 37.5361C64.2552 37.7218 64.6098 37.8991 64.6098 37.9329C64.6013 37.9751 64.2298 38.2368 63.7824 38.5323C63.3349 38.8194 62.6173 39.3597 62.2036 39.7227C61.7899 40.0858 61.1651 40.719 60.819 41.1327C60.4728 41.5464 59.9916 42.188 59.7467 42.5595C59.5103 42.931 59.1726 43.5135 59.0038 43.8513C58.8349 44.1805 58.5901 44.7377 58.455 45.0755C58.3283 45.4047 58.1088 46.0801 57.9822 46.5698C57.8555 47.0595 57.7289 47.4816 57.7036 47.5154C57.6698 47.5492 57.6529 47.4141 57.6698 47.2199C57.6782 47.0257 57.7289 46.4854 57.7795 46.021C57.8302 45.5567 57.9653 44.7209 58.0835 44.1636C58.1932 43.6064 58.4381 42.6946 58.6154 42.1374C58.8011 41.5801 59.1642 40.6852 59.4259 40.1533C59.6876 39.6214 60.0507 38.9544 60.2448 38.6758C60.4306 38.3972 60.6754 38.068 60.7852 37.9413C60.8949 37.8062 60.9794 37.6796 60.9794 37.6458C60.9794 37.6036 60.4812 37.4347 59.8649 37.2659C59.2486 37.0886 58.3283 36.8606 57.8133 36.7424C57.2983 36.6242 56.3696 36.4385 55.7448 36.3203C55.1201 36.2021 53.9381 36.0079 53.1276 35.8897C52.3171 35.78 51.076 35.628 50.3837 35.5604C49.6829 35.4929 48.2814 35.3916 47.2598 35.3325C46.1201 35.2734 44.4568 35.2565 42.954 35.2818C41.6116 35.3156 40.0328 35.3747 39.4503 35.4254C38.8677 35.4676 37.728 35.5858 36.9174 35.6871C36.1069 35.78 34.773 35.9741 33.9625 36.1092C33.152 36.2443 31.818 36.5145 31.0075 36.6918C30.197 36.8775 29.0572 37.1646 28.4747 37.325C27.8921 37.4938 27.4109 37.6458 27.394 37.6627C27.3856 37.688 27.8161 38.1355 28.3565 38.6589C28.8968 39.174 29.5553 39.8663 29.8255 40.1955C30.0872 40.5248 30.5432 41.1496 30.8386 41.5886C31.1257 42.0276 31.5225 42.7368 31.7251 43.1505C31.9278 43.5642 32.2317 44.3072 32.3921 44.7968C32.5525 45.2865 32.7636 46.1308 32.8649 46.6796C32.9747 47.3297 33.0338 48.0389 33.0338 48.7649C33.0338 49.491 32.9747 50.2002 32.8649 50.8588C32.7636 51.3991 32.5525 52.2434 32.3921 52.7331C32.2317 53.2227 31.8771 54.0332 31.6154 54.5483C31.3537 55.0633 30.8218 55.916 30.4334 56.4479C30.045 56.9798 29.3105 58.0436 28.7955 58.8119C28.272 59.597 27.5966 60.7537 27.2505 61.4713C26.9043 62.1721 26.5159 63.0755 26.3724 63.4976C26.2373 63.9197 26.0432 64.6374 25.9418 65.1017C25.8236 65.6843 25.7477 66.3935 25.7139 67.3813C25.6801 68.4619 25.7054 69.0783 25.8068 69.8719C25.8827 70.4544 26.0432 71.3663 26.1614 71.8982C26.2795 72.4301 26.4906 73.2068 26.6257 73.6289C26.7523 74.0511 27.031 74.7096 27.2336 75.1064C27.4362 75.5032 27.8077 76.1449 28.0779 76.5417C28.3396 76.9385 28.8884 77.6815 29.2936 78.188C29.6989 78.6946 30.6445 79.7246 31.3874 80.4676C32.1304 81.2105 33.1773 82.1899 33.7092 82.6374C34.2411 83.0933 35.0938 83.7856 35.6088 84.1824C36.1238 84.5792 37.3734 85.491 38.3949 86.2087C39.4165 86.9263 40.666 87.8381 41.1811 88.2349C41.6961 88.6317 42.6163 89.3831 44.364 90.8522L44.5582 90.5989C44.6595 90.4638 45.0985 90.0417 45.5375 89.6618C45.9765 89.2903 46.7111 88.6993 47.1754 88.3531C47.6398 87.9985 48.4334 87.4329 48.9484 87.0783C49.4634 86.7237 50.4428 86.0905 51.1435 85.6599C51.8358 85.2293 52.7899 84.5877 53.2542 84.2162C53.7186 83.8531 54.622 83.0848 55.2552 82.5192C55.8884 81.9451 56.8171 81.1008 57.3068 80.6364C57.7964 80.1721 58.2101 79.809 58.2355 79.8344C58.2523 79.8597 58.075 80.1636 57.8386 80.5098C57.6022 80.8559 57.121 81.506 56.7664 81.9451C56.4203 82.3841 55.6857 83.2452 55.1454 83.8447C54.6051 84.4441 53.7355 85.3644 53.2036 85.871C52.6126 86.4451 51.3968 87.4498 50.046 88.4713C48.8386 89.3831 47.0741 90.734 44.3893 92.8109L43.8405 92.2959C43.5366 92.0089 43.0638 91.6036 42.7852 91.3925C42.5066 91.1815 40.9447 90.0417 39.3236 88.8681C37.6942 87.6946 35.6088 86.158 34.6801 85.4573C33.7514 84.7565 32.3499 83.6674 31.5563 83.0342C30.7711 82.401 29.6989 81.4469 29.1923 80.9235C28.6773 80.3916 28.0103 79.6402 27.7148 79.2434C27.4193 78.8466 26.9803 78.2218 26.7523 77.8503C26.5244 77.4788 26.0938 76.6768 25.7983 76.0773C25.5113 75.4779 25.0976 74.4648 24.8949 73.84C24.6923 73.2152 24.4475 72.3034 24.3462 71.8137C24.2533 71.324 24.1351 70.5642 24.0844 70.1252C24.0338 69.6861 24 68.9263 24 68.4366C24.0084 67.9469 24.0507 67.2631 24.0929 66.9169C24.1435 66.5708 24.2786 65.7856 24.3884 65.1861C24.5066 64.5867 24.7514 63.6327 24.9371 63.0755C25.1229 62.5182 25.4944 61.6064 25.7645 61.0492C26.0347 60.492 26.4653 59.6899 26.7186 59.2762C26.9803 58.8625 27.7402 57.7396 28.4071 56.7856C29.0741 55.8316 29.8002 54.7678 30.0113 54.4216C30.2308 54.0755 30.5685 53.4422 30.7627 53.0286C30.9568 52.6149 31.2101 51.9057 31.3283 51.4666C31.4887 50.825 31.531 50.4451 31.5394 49.567C31.5478 48.9676 31.5056 48.2077 31.4465 47.8785C31.3959 47.5492 31.2523 46.9413 31.1341 46.5276C31.0075 46.1139 30.788 45.4807 30.636 45.1346C30.4756 44.7884 30.1886 44.2143 29.9775 43.8681C29.7749 43.522 29.3612 42.9141 29.0657 42.5173C28.7702 42.1205 28.1623 41.4366 27.7148 40.9976C27.2758 40.5501 26.5919 39.9422 26.1951 39.6383C25.7983 39.3259 25.1482 38.8616 24.7345 38.5998C24.3293 38.3381 24 38.0933 24 38.0426C24 37.992 24.3124 37.84 24.6923 37.6965C25.0807 37.5529 25.6548 37.3419 25.9841 37.2237C26.3049 37.1139 27.166 36.8522 27.8837 36.6496C28.6013 36.4469 29.7073 36.1599 30.3321 36.0248C30.9568 35.8813 32.1388 35.6533 32.9493 35.5182C33.7598 35.3747 35.0347 35.189 35.7777 35.0877C36.5206 34.9948 37.8546 34.8597 38.7326 34.7922C39.6107 34.7246 41.4428 34.6317 42.7852 34.5895C44.2711 34.5389 46.1961 34.5389 47.682 34.5811C49.0244 34.6233 50.5694 34.6993 51.1013 34.7415C51.6332 34.7922 52.0891 34.809 52.1144 34.7837C52.1398 34.7584 52.3086 34.1252 52.5028 33.3738C52.849 32.0145 52.849 32.006 52.7223 31.4995C52.6548 31.2209 52.5957 30.5792 52.5872 30.0642C52.5872 29.5154 52.6295 28.9413 52.697 28.6711C52.7645 28.4179 52.9165 27.9957 53.0432 27.7424C53.1698 27.4892 53.4062 27.143 53.5666 26.9826C53.727 26.8222 53.9887 26.5773 54.1492 26.4338C54.4024 26.2143 54.5882 25.8259 55.4747 23.6224C56.1585 21.9254 56.5047 20.9629 56.5047 20.7518C56.5047 20.583 56.5807 20.1355 56.6735 19.764C56.7664 19.3925 57.0535 18.658 57.3068 18.1346C57.56 17.6195 57.788 17.189 57.8133 17.189ZM152.077 59.4366C153.158 59.4619 153.622 59.5126 154.145 59.6477C154.517 59.749 155.125 59.977 155.496 60.1543C155.952 60.3738 156.374 60.6693 156.796 61.0576C157.134 61.3785 157.607 61.9272 157.835 62.2734C158.063 62.6195 158.358 63.2021 158.493 63.5651C158.637 63.9197 158.806 64.5445 158.873 64.9582C158.941 65.3634 159 66.1317 159 66.6636C159 67.1955 158.958 67.7696 158.916 67.9301C158.873 68.0905 158.764 68.5295 158.671 68.901C158.578 69.2725 158.384 69.8381 158.24 70.1674C158.097 70.4967 157.81 71.0032 157.607 71.3072C157.413 71.6111 156.991 72.1008 156.67 72.3878C156.29 72.7424 155.851 73.0379 155.412 73.249C155.04 73.4263 154.466 73.6374 154.145 73.7218C153.681 73.8484 153.234 73.8822 152.119 73.8822C150.912 73.8738 150.566 73.8484 149.924 73.688C149.502 73.5783 148.843 73.3419 148.447 73.1477C147.856 72.8691 147.594 72.6749 146.961 72.0332C146.294 71.3663 146.133 71.1468 145.762 70.3785C145.525 69.8888 145.238 69.1543 145.137 68.7321C144.977 68.082 144.943 67.7612 144.951 66.4948C144.951 65.2537 144.985 64.9075 145.137 64.3419C145.238 63.9704 145.508 63.2865 145.736 62.8222C146.023 62.2312 146.319 61.8006 146.69 61.3953C146.977 61.0745 147.45 60.6608 147.729 60.4751C148.007 60.2809 148.463 60.0361 148.742 59.9263C149.021 59.8081 149.569 59.6477 149.966 59.5633C150.549 59.4366 150.946 59.4113 152.077 59.4366ZM150.236 61.294C150.017 61.4038 149.654 61.6993 149.434 61.9441C149.181 62.2312 148.928 62.6364 148.767 63.0332C148.624 63.3794 148.43 64.0042 148.337 64.4263C148.202 65.0257 148.168 65.4732 148.168 66.537C148.168 67.5755 148.21 68.0736 148.337 68.6899C148.438 69.1289 148.59 69.703 148.691 69.9563C148.784 70.2096 149.012 70.6571 149.206 70.9526C149.392 71.2396 149.721 71.6111 149.941 71.7715C150.169 71.9319 150.608 72.1514 150.937 72.2443C151.418 72.3963 151.68 72.4216 152.33 72.3963C152.98 72.3625 153.225 72.3203 153.597 72.1346C153.85 72.0164 154.213 71.7462 154.39 71.5436C154.576 71.3494 154.855 70.9188 154.998 70.5895C155.15 70.2603 155.353 69.6777 155.446 69.2809C155.538 68.8841 155.657 68.0905 155.707 67.5079C155.758 66.9254 155.775 66.1908 155.75 65.8616C155.716 65.5323 155.623 64.9498 155.53 64.5529C155.437 64.1561 155.201 63.4976 155.007 63.0755C154.77 62.5773 154.508 62.1805 154.247 61.9188C154.027 61.6908 153.647 61.4207 153.402 61.3109C153.166 61.1927 152.719 61.0576 152.415 61.0154C152.111 60.9648 151.79 60.931 151.697 60.931C151.604 60.9394 151.326 60.9732 151.081 61.0154C150.844 61.0576 150.464 61.1843 150.236 61.294ZM68.9493 47.5745C69 47.6167 69.1013 47.8194 69.1689 48.0389C69.2533 48.2978 69.2674 48.4582 69.2111 48.5201C69.152 48.5792 69.0253 48.5117 68.7889 48.3006C68.5103 48.0473 68.3921 47.9967 68.0797 48.0051C67.7842 48.0051 67.6745 48.0473 67.5141 48.2415C67.3959 48.3681 67.2692 48.6467 67.227 48.8747C67.1764 49.0942 67.1426 49.3897 67.1426 49.5248C67.1426 49.6599 67.1848 49.9807 67.2355 50.2255C67.303 50.5126 67.4212 50.7406 67.5732 50.901C67.7505 51.0614 67.9024 51.1289 68.1135 51.1289C68.2739 51.1289 68.5103 51.0867 68.637 51.0361C68.772 50.9854 68.9578 50.8756 69.0591 50.7828C69.1689 50.6983 69.2871 50.6392 69.3377 50.6646C69.3799 50.6899 69.4221 50.7659 69.4221 50.8334C69.4221 50.901 69.2955 51.0698 69.1435 51.1965C69 51.3231 68.6961 51.4751 68.4681 51.5342C68.1726 51.6102 67.97 51.6102 67.666 51.5426C67.4465 51.492 67.1426 51.3653 66.9906 51.2471C66.8471 51.1374 66.636 50.8841 66.5347 50.6899C66.3827 50.4028 66.349 50.1749 66.3405 49.6092C66.3405 49.0098 66.3743 48.824 66.5516 48.4779C66.6782 48.2162 66.8893 47.9713 67.0919 47.8447C67.379 47.6589 67.5225 47.6252 68.0797 47.6167C68.4428 47.6167 68.7636 47.5914 68.7974 47.5576C68.8311 47.5239 68.8987 47.5323 68.9493 47.5745ZM118.677 47.5661C118.728 47.6083 118.821 47.8109 118.888 48.0135C118.947 48.2162 118.973 48.4441 118.939 48.5117C118.888 48.613 118.829 48.5877 118.61 48.3597C118.435 48.1796 118.233 48.067 118.002 48.022C117.74 47.9798 117.614 47.9967 117.512 48.0895C117.436 48.1571 117.369 48.2922 117.369 48.385C117.369 48.4779 117.478 48.6552 117.605 48.7734C117.74 48.8916 118.095 49.1702 118.407 49.3813C118.728 49.6008 119.015 49.871 119.066 49.9892C119.108 50.1073 119.15 50.3606 119.15 50.5633C119.159 50.7828 119.099 50.9938 118.998 51.1289C118.914 51.2471 118.711 51.4075 118.551 51.4835C118.331 51.5933 118.078 51.6271 116.702 51.5933L116.617 51.2978C116.567 51.1374 116.533 50.9179 116.533 50.8165C116.533 50.7068 116.583 50.6224 116.634 50.6224C116.693 50.6308 116.871 50.7406 117.014 50.8756C117.166 51.0192 117.436 51.1543 117.605 51.1796C117.816 51.2218 118.002 51.1965 118.137 51.1205C118.272 51.0361 118.356 50.9094 118.373 50.749C118.39 50.5801 118.331 50.4113 118.205 50.2509C118.095 50.1158 117.732 49.8203 117.394 49.5923C117.048 49.3644 116.735 49.0773 116.659 48.9338C116.592 48.7987 116.533 48.5877 116.533 48.4695C116.533 48.3513 116.626 48.1571 116.727 48.0304C116.837 47.8953 117.056 47.7434 117.217 47.6758C117.419 47.5914 117.647 47.5745 117.985 47.6083C118.297 47.6505 118.492 47.6336 118.525 47.583C118.559 47.5239 118.618 47.5239 118.677 47.5661ZM126.614 47.5745C126.664 47.6167 126.765 47.8194 126.833 48.0389C126.917 48.2978 126.932 48.4582 126.875 48.5201C126.816 48.5792 126.689 48.5117 126.453 48.3006C126.174 48.0473 126.056 47.9967 125.744 48.0051C125.448 48.0051 125.339 48.0473 125.178 48.2415C125.06 48.3681 124.933 48.6467 124.891 48.8747C124.841 49.0942 124.807 49.3897 124.807 49.5248C124.807 49.6599 124.849 49.9807 124.9 50.2255C124.967 50.5126 125.085 50.7406 125.237 50.901C125.415 51.0614 125.567 51.1289 125.778 51.1289C125.938 51.1289 126.174 51.0867 126.301 51.0361C126.436 50.9854 126.622 50.8756 126.723 50.7828C126.833 50.6983 126.951 50.6392 127.002 50.6646C127.044 50.6899 127.086 50.7659 127.086 50.8334C127.086 50.901 126.96 51.0698 126.808 51.1965C126.664 51.3231 126.36 51.4751 126.132 51.5342C125.837 51.6102 125.634 51.6102 125.33 51.5426C125.111 51.492 124.807 51.3653 124.655 51.2471C124.511 51.1374 124.3 50.8841 124.199 50.6899C124.047 50.4028 124.013 50.1749 124.005 49.6092C124.005 49.0098 124.038 48.824 124.216 48.4779C124.342 48.2162 124.553 47.9713 124.756 47.8447C125.043 47.6589 125.187 47.6252 125.744 47.6167C126.107 47.6167 126.428 47.5914 126.462 47.5576C126.495 47.5239 126.563 47.5323 126.614 47.5745ZM74.9522 47.583C75.6107 47.583 75.7542 47.6083 75.7542 47.7096C75.7542 47.7771 75.6782 47.8531 75.5854 47.8785C75.4334 47.9122 75.4165 47.9882 75.4165 49.1027H76.7674V48.5539C76.7674 48.0895 76.742 47.9882 76.5985 47.9207C76.5056 47.8785 76.4381 47.7771 76.4465 47.7096C76.4634 47.5998 76.5985 47.583 77.2233 47.5998C77.772 47.6167 77.9831 47.6589 77.9831 47.7349C77.9916 47.794 77.924 47.8616 77.848 47.8869C77.7129 47.9207 77.6961 48.0726 77.6961 49.5501C77.6876 51.1458 77.6876 51.1711 77.8818 51.3147C78.0169 51.4075 78.0507 51.4835 77.9916 51.5426C77.9409 51.6017 77.637 51.627 77.1895 51.6186C76.5816 51.5933 76.4719 51.568 76.455 51.4498C76.4381 51.3569 76.4803 51.2978 76.5563 51.2978C76.6238 51.2978 76.6998 51.2134 76.7251 51.112C76.7505 51.0023 76.7674 50.6139 76.7251 49.567H75.4587L75.4334 50.3944C75.4165 51.1543 75.4249 51.2218 75.5938 51.2809C75.6867 51.3147 75.7542 51.3991 75.7373 51.4666C75.712 51.568 75.56 51.5933 74.9522 51.5933C74.3443 51.5933 74.1923 51.568 74.167 51.4666C74.1501 51.3991 74.2176 51.3147 74.3105 51.2809C74.4794 51.2134 74.4878 51.1543 74.4878 49.6092C74.4878 48.0895 74.4794 47.9967 74.319 47.9207C74.2261 47.8785 74.1501 47.7771 74.1501 47.7096C74.1501 47.6083 74.2936 47.583 74.9522 47.583ZM83.6313 47.5998C84.1548 47.6167 84.3996 47.6589 84.425 47.7349C84.4418 47.7856 84.3743 47.8531 84.2814 47.8785C84.121 47.9207 84.1126 47.9882 84.1126 50.7912L84.3405 50.9601C84.4756 51.0614 84.6782 51.1374 84.8049 51.1289C84.94 51.1289 85.1257 51.0867 85.227 51.0276C85.3368 50.977 85.4634 50.8756 85.5225 50.7997C85.5985 50.7068 85.6238 50.234 85.6323 49.2968C85.6323 47.9882 85.6238 47.9207 85.4634 47.8785C85.3705 47.8531 85.2946 47.7771 85.2946 47.7096C85.2946 47.6083 85.4128 47.583 85.9024 47.6083C86.2993 47.6167 86.5188 47.6589 86.5356 47.7349C86.5525 47.7856 86.4934 47.8616 86.409 47.8953C86.333 47.9207 86.2401 47.9882 86.2064 48.0389C86.1726 48.0895 86.1388 48.7312 86.1388 49.4657C86.1388 50.5886 86.1135 50.825 85.9869 51.0107C85.9109 51.1374 85.6914 51.3147 85.5056 51.4075C85.2861 51.5173 84.9906 51.5764 84.6614 51.5764C84.3068 51.5848 84.0535 51.5342 83.8171 51.4075C83.6313 51.3147 83.4034 51.1374 83.3105 51.0107C83.1585 50.7997 83.1417 50.6308 83.1163 49.3475C83.0994 48.1486 83.0826 47.9207 82.9728 47.9207C82.9053 47.9207 82.8293 47.8869 82.8039 47.8362C82.7786 47.794 82.7871 47.7096 82.8124 47.6674C82.8377 47.6083 83.1585 47.583 83.6313 47.5998ZM92.9353 47.6083C93.3996 47.6252 93.6782 47.6758 93.8386 47.7771C93.9737 47.8531 94.1341 48.0051 94.2017 48.1149C94.2777 48.2162 94.3368 48.4948 94.3368 48.7227C94.3452 49.1195 94.3199 49.1618 93.6107 49.7781L94.0919 50.4957C94.3621 50.8925 94.6576 51.2387 94.7589 51.2809C94.8518 51.3147 94.9193 51.3991 94.9024 51.4666C94.8856 51.5511 94.7589 51.6017 94.5394 51.6186C94.3537 51.6355 94.1173 51.6271 94.0075 51.6017C93.8893 51.568 93.6276 51.2556 93.273 50.7068C92.969 50.2424 92.7242 49.7865 92.7242 49.6937C92.7242 49.5755 92.8002 49.5079 92.9859 49.4657C93.1379 49.4235 93.3068 49.3222 93.3743 49.2293C93.4334 49.1364 93.4841 48.9338 93.4841 48.7903C93.4841 48.6383 93.4334 48.4104 93.3743 48.2922C93.3236 48.174 93.1801 48.0558 93.0619 48.0304C92.9437 48.0051 92.7917 48.022 92.7242 48.0642C92.6229 48.1317 92.5976 48.4272 92.5722 49.6852C92.5553 51.1627 92.5638 51.2134 92.7326 51.2809C92.8255 51.3147 92.8931 51.3991 92.8762 51.4666C92.8508 51.568 92.682 51.6017 92.1332 51.6186C91.5591 51.6439 91.3902 51.6186 91.3058 51.5173C91.2214 51.4075 91.2298 51.3738 91.348 51.3231C91.4325 51.2978 91.5253 51.2302 91.5591 51.1796C91.5929 51.1289 91.6266 50.4535 91.6266 49.6768C91.6266 48.3259 91.6182 48.2584 91.4578 48.2162C91.3649 48.1908 91.2889 48.1149 91.2889 48.0473C91.2889 47.9798 91.3649 47.8869 91.4578 47.8362C91.5507 47.794 91.7702 47.718 91.939 47.6674C92.1163 47.6252 92.5638 47.5998 92.9353 47.6083ZM101.251 47.5914C101.606 47.5914 101.918 47.6421 102.138 47.7349C102.324 47.8194 102.543 47.9798 102.628 48.098C102.712 48.2162 102.771 48.4526 102.771 48.6805C102.771 48.8916 102.712 49.1449 102.644 49.2546C102.577 49.3559 102.408 49.5079 102.011 49.7359L102.501 50.4535C102.763 50.8503 103.067 51.2134 103.176 51.2556C103.278 51.3062 103.354 51.3991 103.345 51.4666C103.32 51.5595 103.193 51.5933 102.307 51.5933L101.69 50.6899C101.277 50.0651 101.099 49.7359 101.142 49.643C101.184 49.5755 101.319 49.4826 101.462 49.4404C101.631 49.3897 101.755 49.2715 101.834 49.0858C101.902 48.9169 101.927 48.7059 101.893 48.5539C101.859 48.4188 101.766 48.2331 101.69 48.1486C101.614 48.0642 101.471 47.9967 101.37 48.0051C101.277 48.0051 101.159 48.0558 101.099 48.1149C101.023 48.1824 100.998 48.6468 100.99 49.6937C100.99 51.1289 100.998 51.1711 101.175 51.2978C101.285 51.3738 101.344 51.4666 101.311 51.5342C101.268 51.6017 101.015 51.6355 100.492 51.6355C99.9681 51.6355 99.7148 51.6017 99.6811 51.5342C99.6473 51.4666 99.7148 51.3653 100.069 51.1289V49.7359C100.069 48.4357 100.061 48.3344 99.9006 48.2415C99.8077 48.1824 99.7317 48.0811 99.7317 48.0304C99.7317 47.9713 99.8077 47.8869 99.9006 47.8362C99.9934 47.794 100.213 47.718 100.382 47.6758C100.559 47.6336 100.947 47.5998 101.251 47.5914ZM109.846 47.583C109.922 47.5745 110.032 47.6252 110.083 47.6843C110.133 47.7434 110.446 48.537 110.783 49.4404C111.248 50.6899 111.45 51.1289 111.619 51.264C111.754 51.3738 111.822 51.492 111.78 51.5426C111.746 51.6017 111.425 51.6355 110.961 51.6355C110.496 51.6355 110.175 51.6017 110.133 51.5426C110.099 51.492 110.167 51.3738 110.302 51.264C110.513 51.0952 110.522 51.0698 110.429 50.7912C110.336 50.5126 110.302 50.4957 109.905 50.4704C109.669 50.4535 109.458 50.3944 109.424 50.3438C109.39 50.2846 109.416 50.1918 109.466 50.1327C109.525 50.0736 109.694 50.0229 109.838 50.0314C109.99 50.0314 110.116 50.006 110.116 49.9723C110.116 49.93 110.04 49.6683 109.947 49.3813C109.855 49.0858 109.753 48.8494 109.711 48.8494C109.677 48.8494 109.508 49.3306 109.331 49.93C109.154 50.521 109.01 51.0698 109.019 51.1543C109.019 51.2302 109.078 51.2978 109.145 51.2978C109.221 51.2978 109.264 51.3569 109.247 51.4498C109.23 51.5595 109.129 51.6017 108.765 51.6186C108.462 51.6355 108.267 51.6102 108.191 51.5342C108.107 51.4413 108.124 51.3991 108.301 51.2809C108.47 51.1543 108.614 50.8081 109.044 49.4657C109.34 48.5454 109.61 47.7434 109.644 47.6927C109.677 47.6336 109.77 47.583 109.846 47.583ZM133.613 47.5998C133.748 47.6167 133.917 47.9798 134.474 49.4404C134.963 50.749 135.2 51.264 135.301 51.2809C135.386 51.2893 135.436 51.3569 135.419 51.4498C135.402 51.5764 135.301 51.5933 134.643 51.5933C134.035 51.5933 133.883 51.568 133.857 51.4666C133.841 51.3991 133.908 51.3147 134.001 51.2809C134.102 51.2387 134.178 51.1458 134.17 51.0698C134.161 50.9854 134.136 50.825 134.102 50.7068C134.052 50.521 133.984 50.4873 133.587 50.4535C133.19 50.4197 133.123 50.386 133.123 50.2424C133.123 50.1073 133.182 50.0736 133.477 50.0567C133.72 50.0398 133.829 49.9976 133.807 49.93C133.79 49.871 133.705 49.6008 133.621 49.3306C133.528 49.0689 133.435 48.8494 133.393 48.8494C133.359 48.8494 133.3 48.976 133.258 49.128C133.207 49.2715 133.055 49.795 132.642 51.1711L132.844 51.3147C132.979 51.416 133.013 51.4835 132.954 51.5511C132.903 51.6017 132.65 51.627 132.363 51.6186C131.958 51.6017 131.856 51.568 131.84 51.4498C131.823 51.3569 131.865 51.2978 131.941 51.2978C132.008 51.2978 132.118 51.1965 132.186 51.0698C132.245 50.9347 132.515 50.1496 132.785 49.3137C133.047 48.4779 133.309 47.7434 133.359 47.6843C133.41 47.6252 133.52 47.583 133.613 47.5998ZM141.794 47.5914C142.114 47.583 142.494 47.6336 142.638 47.7012C142.79 47.7603 143.009 47.9207 143.128 48.0473C143.296 48.2246 143.339 48.3597 143.339 48.6974C143.339 49.0942 143.313 49.1449 142.579 49.7781L143.043 50.4619C143.296 50.8419 143.609 51.2049 143.735 51.264C143.938 51.3653 143.955 51.3991 143.862 51.5089C143.803 51.5933 143.626 51.6439 143.398 51.6355C143.204 51.6355 142.984 51.6102 142.908 51.5764C142.832 51.5342 142.528 51.1289 142.233 50.6646C141.937 50.2002 141.692 49.7528 141.692 49.6768C141.692 49.5755 141.785 49.4995 141.962 49.4657C142.106 49.4235 142.283 49.3053 142.351 49.1871C142.444 49.0436 142.469 48.8578 142.435 48.5961C142.402 48.3681 142.317 48.174 142.224 48.1064C142.14 48.0473 141.996 48.0051 141.895 48.0051C141.802 48.0051 141.684 48.0558 141.625 48.1149C141.549 48.1824 141.523 48.6467 141.523 49.719C141.523 51.1458 141.532 51.2134 141.701 51.2809C141.794 51.3147 141.861 51.3991 141.844 51.4666C141.819 51.568 141.667 51.5933 141.059 51.5933C140.451 51.5933 140.299 51.568 140.274 51.4666C140.257 51.3991 140.325 51.3147 140.417 51.2809C140.586 51.2134 140.595 51.1458 140.595 49.7612C140.603 48.3344 140.595 48.3006 140.409 48.1571C140.249 48.0473 140.232 48.0051 140.325 47.9038C140.392 47.8447 140.62 47.7518 140.831 47.6927C141.051 47.6421 141.481 47.5914 141.794 47.5914ZM149.502 47.583C150.16 47.583 150.304 47.6083 150.304 47.7096C150.304 47.7771 150.228 47.8785 150.135 47.9207C149.975 47.9967 149.966 48.0895 149.966 49.6092C149.966 51.1543 149.975 51.2134 150.144 51.2809C150.236 51.3147 150.304 51.3991 150.287 51.4666C150.262 51.568 150.11 51.5933 149.502 51.5933C148.894 51.5933 148.742 51.568 148.717 51.4666C148.7 51.3991 148.767 51.3147 148.86 51.2809C149.029 51.2134 149.038 51.1543 149.038 49.567C149.038 47.9882 149.029 47.9207 148.869 47.8785C148.776 47.8531 148.7 47.7771 148.7 47.7096C148.7 47.6083 148.843 47.583 149.502 47.583ZM156.915 47.5998C157.05 47.6167 157.219 47.9798 157.776 49.4404C158.265 50.749 158.502 51.264 158.603 51.2809C158.688 51.2893 158.738 51.3569 158.721 51.4498C158.704 51.5764 158.603 51.5933 157.945 51.5933C157.337 51.5933 157.185 51.568 157.159 51.4666C157.143 51.3991 157.21 51.3147 157.303 51.2809C157.404 51.2387 157.48 51.1458 157.472 51.0698C157.463 50.9854 157.438 50.825 157.404 50.7068C157.354 50.521 157.286 50.4873 156.889 50.4535C156.492 50.4197 156.425 50.386 156.425 50.2424C156.425 50.1073 156.484 50.0736 156.78 50.0567C157.022 50.0398 157.131 49.9976 157.109 49.93C157.092 49.871 157.008 49.6008 156.923 49.3306C156.83 49.0689 156.737 48.8494 156.695 48.8494C156.661 48.8494 156.602 48.976 156.56 49.128C156.509 49.2715 156.357 49.795 155.944 51.1711L156.138 51.3147C156.281 51.416 156.315 51.4835 156.256 51.5511C156.205 51.6017 155.952 51.627 155.665 51.6186C155.26 51.6017 155.159 51.568 155.142 51.4498C155.125 51.3569 155.167 51.2978 155.243 51.2978C155.311 51.2978 155.42 51.1965 155.488 51.0698C155.547 50.9347 155.817 50.1496 156.087 49.3137C156.349 48.4779 156.611 47.7434 156.661 47.6843C156.712 47.6252 156.822 47.583 156.915 47.5998ZM57.9737 51.2134C58.1173 51.2134 58.3114 51.264 58.4043 51.3231C58.4972 51.3907 58.6576 51.568 58.7505 51.7284C58.8518 51.8888 59.2824 53.1468 59.7045 54.5314C60.1266 55.9075 60.4728 57.1571 60.4728 57.2922C60.4728 57.4272 60.4137 57.6636 60.3462 57.7987C60.2786 57.9338 60.1013 58.1111 59.9662 58.1786C59.8227 58.2462 59.5863 58.3053 59.4343 58.3053C59.2908 58.3053 59.046 58.2377 58.9109 58.1533C58.7674 58.0689 58.2608 57.5708 57.7711 57.0473C57.2814 56.5239 56.5976 55.8653 56.2514 55.5867C55.9053 55.2997 55.424 54.9788 55.1961 54.8775C54.9597 54.7678 54.4784 54.6242 54.1154 54.5483C53.7355 54.4723 53.0094 54.4216 52.3677 54.4216C51.7598 54.4216 51.0675 54.4638 50.8227 54.5145C50.5863 54.5651 50.1388 54.7255 49.8349 54.8691C49.4465 55.0464 49.1004 55.3081 48.6445 55.764C48.197 56.2199 47.9099 56.5998 47.6651 57.0811C47.4709 57.4526 47.2008 58.0604 47.0657 58.4319C46.9306 58.8034 46.7195 59.5042 46.5929 59.9938C46.4747 60.4835 46.3143 61.3194 46.2298 61.8513C46.1201 62.5858 46.0863 63.3541 46.0863 64.9751C46.0863 66.1908 46.1285 67.4826 46.1876 67.9301C46.2467 68.3691 46.3734 69.1289 46.4662 69.6186C46.5675 70.1083 46.7617 70.8428 46.8968 71.2649C47.0403 71.6871 47.2852 72.2865 47.4456 72.6158C47.6144 72.9451 47.9099 73.4432 48.1126 73.7387C48.3152 74.0257 48.7205 74.4563 49.0075 74.7012C49.303 74.9376 49.8011 75.2584 50.1304 75.4104C50.4512 75.5708 50.9493 75.7565 51.228 75.824C51.5066 75.9 52.1482 75.9845 52.6632 76.0098C53.3302 76.0436 53.8114 76.0182 54.3687 75.9169C54.7992 75.8409 55.5084 75.6468 55.9306 75.4779C56.3612 75.3175 57.0197 75.022 57.3912 74.8278C57.864 74.583 58.2946 74.2537 58.8265 73.7471C59.2402 73.3503 59.7214 72.9535 59.8818 72.8775C60.0422 72.7931 60.2702 72.7256 60.3884 72.734C60.5066 72.7424 60.6585 72.7424 60.7261 72.7509C60.7936 72.7509 61.0216 72.7087 61.2326 72.6664C61.4437 72.6158 61.6886 72.506 61.7814 72.4047C61.9503 72.2359 61.9503 72.1008 61.9756 66.7649C61.9925 62.476 61.9756 61.2265 61.8912 60.9648C61.7983 60.6693 61.7392 60.6186 61.4437 60.5511C61.258 60.5173 61.03 60.4582 60.9371 60.4244C60.8443 60.3822 60.743 60.2471 60.7092 60.112C60.6839 59.977 60.7007 59.7743 60.8527 59.4451L63.5797 59.4282C65.9015 59.4028 66.3152 59.4197 66.425 59.5295C66.4925 59.597 66.5516 59.7912 66.5516 59.9516C66.5516 60.112 66.4925 60.3062 66.4165 60.3738C66.349 60.4413 66.197 60.5004 66.0788 60.5004C65.969 60.5004 65.7833 60.5426 65.6651 60.5848C65.5385 60.6355 65.4203 60.779 65.3696 60.9479C65.319 61.0914 65.2852 61.9948 65.2852 62.9488C65.2852 64.2321 65.3105 64.7049 65.3865 64.7893C65.4709 64.8653 66.0366 64.8907 67.7083 64.8907C69.6079 64.8907 69.9371 64.8738 69.9709 64.764C69.9962 64.6965 70.0131 63.81 70.0131 62.8053C70.0131 61.3025 69.9878 60.931 69.8865 60.779C69.8105 60.6524 69.6332 60.5595 69.4137 60.5257C69.2195 60.4835 69.0084 60.3907 68.924 60.2978C68.848 60.2134 68.7889 60.0445 68.7889 59.9094C68.7889 59.7828 68.848 59.6139 68.9156 59.5379C69.0338 59.4113 69.5657 59.3944 75.8133 59.4028C79.545 59.4028 82.652 59.4282 82.7364 59.4704C82.8124 59.5042 83.8171 60.8466 84.9737 62.4676C86.1304 64.0801 87.1266 65.3972 87.1942 65.3972C87.2702 65.3972 88.1313 64.173 89.2289 62.5098C90.2842 60.9141 91.2045 59.5717 91.2805 59.5126C91.3734 59.4366 91.9221 59.4113 93.1632 59.4028C94.1764 59.4028 94.9953 59.4366 95.0882 59.4873C95.2233 59.5548 95.257 59.6561 95.257 59.9516C95.257 60.2471 95.2233 60.3484 95.0882 60.416C94.9953 60.4582 94.8433 60.5004 94.7505 60.5004C94.6576 60.5004 94.4887 60.5511 94.3705 60.6102C94.2523 60.6608 94.1173 60.8297 94.075 60.9648C94.0159 61.1252 93.9906 63.2528 93.9906 66.5792C93.9906 69.855 94.0159 72.0417 94.0666 72.1937C94.1173 72.3372 94.2523 72.4976 94.3874 72.5567C94.5141 72.6158 94.8349 72.6664 95.0882 72.6664C95.3583 72.658 95.637 72.6073 95.7383 72.5314C95.848 72.4638 96.0338 72.2021 96.152 71.9657C96.2786 71.7209 97.2242 68.901 98.2627 65.6927C100.027 60.2302 100.162 59.8503 100.424 59.6224C100.669 59.4113 100.753 59.386 101.142 59.4113C101.471 59.4366 101.631 59.4957 101.792 59.6561C101.927 59.7997 102.661 61.6317 104.122 65.5239C105.295 68.6392 106.401 71.4929 106.579 71.8813C106.891 72.5398 106.925 72.5736 107.22 72.6242C107.398 72.658 107.609 72.7424 107.685 72.8184C107.828 72.9451 107.845 72.9451 107.98 72.81C108.065 72.7255 108.242 72.6664 108.386 72.6664C108.521 72.6664 108.732 72.5905 109.061 72.3372L109.078 67.1786C109.095 63.8691 109.069 61.961 109.019 61.8513C108.968 61.7584 108.833 61.6571 108.698 61.6317C108.571 61.598 108.369 61.522 108.234 61.4629C108.107 61.3953 107.989 61.2518 107.963 61.1336C107.938 61.0154 107.955 60.8466 108.006 60.7537C108.048 60.6608 108.276 60.492 108.512 60.3738C108.74 60.2556 109.264 60.0698 109.669 59.9516C110.083 59.8334 110.75 59.673 111.172 59.597C111.704 59.4957 112.421 59.4535 113.578 59.4535C114.895 59.4451 115.334 59.4788 115.773 59.597C116.077 59.673 116.583 59.8756 116.913 60.0276C117.259 60.1965 117.698 60.5004 117.96 60.7706C118.23 61.0323 118.517 61.4207 118.66 61.7246C118.795 62.0286 118.931 62.4929 118.973 62.8644C119.023 63.2528 119.023 63.7087 118.973 64.0464C118.931 64.3503 118.804 64.7893 118.694 65.0173C118.568 65.279 118.28 65.6336 117.909 65.9629C117.597 66.2584 117.098 66.6045 116.803 66.7481C116.516 66.8831 116.28 67.0436 116.28 67.0858C116.28 67.128 117.039 68.31 117.968 69.703C118.947 71.1636 119.758 72.295 119.885 72.3794C120.02 72.4638 120.273 72.5567 120.459 72.5989C120.644 72.6411 120.889 72.6749 121.008 72.6833C121.126 72.6833 121.362 72.658 121.531 72.6327C121.776 72.5905 121.886 72.5145 121.978 72.3203C122.088 72.1008 122.105 71.3409 122.105 67.0436C122.105 63.8606 122.071 61.961 122.021 61.8513C121.97 61.7499 121.776 61.6402 121.539 61.5811C121.328 61.522 121.1 61.3953 121.033 61.3025C120.974 61.2096 120.923 61.0492 120.923 60.9479C120.923 60.8297 121.033 60.6777 121.193 60.5511C121.345 60.4413 121.607 60.2893 121.767 60.2218C121.928 60.1543 122.35 60.0276 122.696 59.9263C123.042 59.8334 123.692 59.6815 124.131 59.6055C124.714 59.4957 125.381 59.4535 126.58 59.4535C127.897 59.4451 128.336 59.4788 128.775 59.597C129.079 59.673 129.602 59.8841 129.948 60.0614C130.371 60.2725 130.725 60.5342 131.046 60.8803C131.367 61.2096 131.595 61.5642 131.721 61.8935C131.865 62.2396 131.932 62.6364 131.966 63.1599C131.983 63.582 131.958 64.1308 131.907 64.3841C131.856 64.6374 131.704 65.0257 131.561 65.2537C131.426 65.4732 131.054 65.8616 130.734 66.1149C130.421 66.3766 129.965 66.6805 129.72 66.7903C129.484 66.9085 129.281 67.0182 129.281 67.0436C129.281 67.0689 129.341 67.2124 129.425 67.3644C129.501 67.5079 130.235 68.6392 131.054 69.8719C131.882 71.1045 132.642 72.1937 132.751 72.295C132.861 72.3963 133.14 72.5229 133.376 72.5736C133.604 72.6242 133.9 72.6664 134.026 72.6664C134.161 72.658 134.356 72.6158 134.474 72.5736C134.609 72.5229 134.778 72.3034 134.947 71.9657C135.09 71.6702 136.044 68.8503 137.066 65.6927C138.087 62.5351 138.974 59.8756 139.033 59.7828C139.1 59.6899 139.244 59.5633 139.362 59.5126C139.48 59.4535 139.717 59.4028 139.877 59.4028C140.038 59.4028 140.282 59.4619 140.426 59.5295C140.561 59.597 140.713 59.7237 140.755 59.8081C140.797 59.8841 141.329 61.2856 141.946 62.9066C142.562 64.5361 143.263 66.3935 143.507 67.0436C143.752 67.6937 144.259 69.0276 144.63 69.9985C144.993 70.9695 145.382 71.9319 145.483 72.1346C145.576 72.3287 145.736 72.5314 145.829 72.5736C145.922 72.6158 146.091 72.658 146.209 72.658C146.336 72.658 146.471 72.734 146.547 72.8522C146.614 72.9535 146.674 73.1392 146.674 73.2743C146.674 73.401 146.614 73.5614 146.538 73.6289C146.429 73.7387 146.007 73.7556 143.778 73.7556C141.397 73.7556 141.127 73.7387 140.992 73.6036C140.907 73.5192 140.84 73.3419 140.848 73.1899C140.848 73.0379 140.907 72.8522 140.983 72.7846C141.051 72.7171 141.211 72.658 141.338 72.658C141.464 72.6665 141.667 72.5905 141.794 72.4892C141.929 72.3963 142.055 72.219 142.081 72.0923C142.106 71.9573 142.03 71.4929 141.903 71.0117C141.785 70.5473 141.667 70.1083 141.65 70.0407C141.633 69.9732 141.515 69.8634 141.397 69.8128C141.262 69.7368 140.772 69.703 139.978 69.703C138.932 69.703 138.746 69.6777 138.501 69.5342C138.341 69.4329 138.214 69.2725 138.18 69.1374C138.155 69.0023 138.155 68.8165 138.18 68.7152C138.205 68.6055 138.332 68.4535 138.459 68.3775C138.636 68.2593 138.932 68.2171 139.742 68.1833C140.738 68.1411 140.806 68.1327 140.797 67.9723C140.789 67.8794 140.493 66.9085 140.147 65.8194C139.598 64.1055 139.489 63.8353 139.337 63.8184C139.235 63.8015 139.143 63.8437 139.126 63.9028C139.109 63.9535 138.577 65.7012 137.944 67.7865C137.243 70.0745 136.795 71.704 136.795 71.9235C136.795 72.1177 136.855 72.3625 136.922 72.4723C137.007 72.5961 137.133 72.658 137.302 72.658C137.471 72.658 137.598 72.7227 137.682 72.8522C137.75 72.9535 137.809 73.1308 137.809 73.249C137.817 73.3672 137.75 73.5276 137.665 73.6036C137.53 73.7387 137.201 73.7471 133.984 73.7556C131.021 73.7556 130.421 73.7387 130.21 73.6289C130.024 73.5361 129.56 72.8775 128.378 71.037C127.508 69.6777 126.614 68.2593 126.394 67.8878C126.166 67.5164 125.989 67.1195 125.989 67.0013C125.989 66.8831 126.056 66.6974 126.132 66.5877C126.217 66.4695 126.411 66.3259 126.554 66.2668C126.706 66.2077 126.96 66.1571 127.103 66.1571C127.272 66.1571 127.542 66.0558 127.779 65.9038C128.007 65.7687 128.277 65.507 128.395 65.3381C128.505 65.1608 128.665 64.7725 128.741 64.4685C128.834 64.0886 128.868 63.7509 128.834 63.371C128.809 63.067 128.707 62.5942 128.614 62.3156C128.513 62.037 128.311 61.6571 128.167 61.4798C128.015 61.294 127.762 61.0998 127.61 61.0323C127.466 60.9732 127.145 60.9225 126.917 60.9225C126.681 60.9225 126.36 60.9901 126.183 61.0745C126.014 61.1505 125.786 61.3194 125.482 61.6824V72.2359L125.693 72.4469C125.811 72.5651 125.997 72.658 126.115 72.658C126.234 72.658 126.402 72.7002 126.495 72.7424C126.588 72.7931 126.681 72.9451 126.715 73.1055C126.74 73.2828 126.715 73.4432 126.495 73.7556L117.335 73.7471L116.972 73.3503C116.778 73.1308 115.815 71.6955 114.844 70.1674C113.865 68.6392 113.054 67.28 113.029 67.1533C113.004 67.0182 113.038 66.8156 113.097 66.689C113.147 66.5539 113.333 66.385 113.493 66.309C113.654 66.2246 113.924 66.1571 114.084 66.1571C114.27 66.1571 114.532 66.0642 114.777 65.9038C115.013 65.7603 115.292 65.4816 115.435 65.2537C115.57 65.0257 115.731 64.6627 115.781 64.4263C115.841 64.1899 115.857 63.7256 115.832 63.371C115.807 63.0248 115.705 62.5098 115.596 62.2312C115.486 61.9526 115.283 61.598 115.148 61.4376C115.005 61.2771 114.76 61.0998 114.608 61.0323C114.464 60.9732 114.144 60.9225 113.916 60.9225C113.662 60.9225 113.358 60.9901 113.156 61.0914C112.97 61.1843 112.742 61.3869 112.649 61.5389C112.489 61.8006 112.48 61.961 112.48 72.2359L112.691 72.4469C112.835 72.5905 112.995 72.658 113.198 72.658C113.409 72.658 113.527 72.7087 113.62 72.8522C113.688 72.9535 113.747 73.1139 113.747 73.2068C113.747 73.2997 113.688 73.4601 113.493 73.7556H110.809C108.546 73.7556 108.115 73.7302 108.006 73.6289C107.896 73.5107 107.862 73.5107 107.752 73.6289C107.643 73.7471 107.271 73.764 102.265 73.7556L102.138 73.5698C102.07 73.4601 102.011 73.2997 102.011 73.2068C102.011 73.1139 102.07 72.9535 102.138 72.8522C102.214 72.734 102.349 72.658 102.476 72.658C102.594 72.658 102.78 72.6073 102.898 72.5567C103.016 72.4976 103.143 72.3625 103.193 72.2612C103.235 72.1514 103.278 71.9657 103.278 71.8391C103.269 71.704 103.159 71.2227 103.033 70.7584C102.881 70.2349 102.729 69.8719 102.628 69.8044C102.518 69.7284 102.096 69.703 101.209 69.703C100.019 69.7115 99.9259 69.6946 99.6979 69.5173C99.5629 69.4075 99.4193 69.2387 99.3771 69.1374C99.3349 69.0023 99.3518 68.8503 99.4531 68.6477C99.5375 68.4788 99.6642 68.3184 99.7317 68.2931C99.7992 68.2593 100.331 68.2171 101.969 68.1411L101.961 67.9301C101.961 67.8119 101.674 66.8494 101.327 65.7771C100.804 64.173 100.669 63.8269 100.534 63.81C100.382 63.7846 100.247 64.1815 99.1492 67.7781C98.1529 71.0708 97.9418 71.8306 97.9841 72.1092C98.0094 72.295 98.1022 72.4976 98.1867 72.5567C98.2711 72.6158 98.4146 72.658 98.5075 72.658C98.6004 72.658 98.7439 72.7255 98.8283 72.81C98.9128 72.8944 98.9803 73.0717 98.9719 73.2321C98.9719 73.3756 98.9128 73.5614 98.8368 73.6289C98.727 73.7387 98.0938 73.7556 89.6848 73.7556L89.5582 73.5698C89.4906 73.4601 89.4315 73.2997 89.4315 73.2068C89.4315 73.1139 89.4906 72.9535 89.5582 72.8522C89.651 72.7087 89.7692 72.658 89.9803 72.658C90.1914 72.658 90.3433 72.5905 90.6979 72.2359V68.1833C90.6979 64.1392 90.6979 64.1308 90.5206 64.1561C90.394 64.1646 89.9212 64.8484 87.0929 69.3231H86.4343L84.6191 66.7481C83.606 65.3212 82.728 64.1646 82.652 64.1561C82.5169 64.1308 82.5084 64.4263 82.5084 72.3203L82.7364 72.4892C82.8715 72.5905 83.0572 72.6665 83.1585 72.658C83.2683 72.658 83.4287 72.7002 83.5216 72.7424C83.6144 72.7931 83.7073 72.9451 83.7411 73.1055C83.7664 73.2828 83.7411 73.4432 83.5216 73.7556H69.1266L68.9578 73.5783C68.848 73.4685 68.7974 73.3081 68.8058 73.1392C68.8227 72.9873 68.8818 72.8184 68.9325 72.7593C68.9916 72.7002 69.1689 72.6496 69.3208 72.658C69.5066 72.658 69.667 72.5905 70.0131 72.2359V69.4751C70.0131 67.3475 69.9878 66.6805 69.9118 66.5961C69.8274 66.5201 69.2786 66.4948 67.6492 66.4948C66.0281 66.4948 65.4625 66.5201 65.3865 66.6045C65.3105 66.6805 65.2852 67.3813 65.2852 69.3231C65.2852 70.8597 65.319 72.0501 65.3696 72.219C65.4203 72.3794 65.5385 72.5229 65.6651 72.5736C65.7833 72.6158 65.9606 72.658 66.0619 72.658C66.1717 72.658 66.3236 72.7255 66.4081 72.81C66.5009 72.8944 66.56 73.0717 66.5516 73.2743C66.5516 73.5023 66.5094 73.612 66.3827 73.6711C66.2814 73.7218 65.2683 73.7556 61.5281 73.7556L61.4184 74.1946C61.3593 74.4394 61.182 74.8362 61.0216 75.0642C60.8696 75.3006 60.4897 75.7396 60.1857 76.0604C59.8734 76.3728 59.3752 76.795 59.0544 76.9976C58.742 77.2002 58.0666 77.5717 57.56 77.8334C57.045 78.0867 56.2852 78.416 55.8715 78.5595C55.4493 78.7115 54.7317 78.9057 54.2674 79.007C53.6004 79.1505 53.136 79.1843 52.03 79.1843C50.9916 79.1758 50.4259 79.1336 49.7927 79.007C49.3283 78.9141 48.5854 78.7199 48.1463 78.5764C47.7073 78.4244 47.0235 78.1374 46.6266 77.9263C46.2298 77.7152 45.6135 77.3269 45.242 77.0651C44.879 76.8034 44.2542 76.2546 43.849 75.8578C43.4522 75.461 42.8865 74.794 42.591 74.3803C42.2955 73.9666 41.8902 73.2912 41.6876 72.8691C41.485 72.4469 41.1811 71.7124 41.0206 71.2227C40.8602 70.7331 40.666 70.0323 40.5901 69.6608C40.5141 69.2893 40.3959 68.5464 40.3283 68.0145C40.2608 67.4573 40.2101 66.309 40.2101 65.3381C40.2101 64.2743 40.2608 63.2443 40.3368 62.6364C40.4128 62.0877 40.5394 61.3194 40.6323 60.9225C40.7167 60.5257 40.8856 59.901 41.0122 59.5295C41.1304 59.158 41.4259 58.4573 41.6538 57.9676C41.8902 57.4779 42.2955 56.7603 42.5572 56.3634C42.8189 55.9666 43.3762 55.2912 43.7983 54.8522C44.212 54.4216 44.879 53.8137 45.2758 53.5182C45.6726 53.2227 46.4071 52.7668 46.9221 52.5135C47.454 52.2518 48.2139 51.9648 48.6951 51.8381C49.4043 51.6524 49.7758 51.6102 51.0591 51.5764C51.9794 51.5426 52.925 51.568 53.4653 51.627C53.955 51.6861 54.6895 51.8043 55.1116 51.8972C55.5253 51.9816 56.0235 52.0576 56.2092 52.0576C56.4287 52.0576 56.6313 51.9816 56.8002 51.855C56.9353 51.7453 57.2054 51.5595 57.3827 51.4329C57.5685 51.3147 57.8302 51.2134 57.9737 51.2134ZM73.7026 60.6102C73.5675 60.6693 73.4325 60.8128 73.3818 60.9648C73.3311 61.1167 73.3058 63.3034 73.3058 66.6045C73.3058 71.1974 73.3227 72.0248 73.4325 72.2781C73.5338 72.506 73.6182 72.582 73.8293 72.6158C73.9812 72.6411 74.1839 72.6665 74.2767 72.6749C74.3696 72.6833 74.5891 72.6749 74.7664 72.6749C74.9859 72.6665 75.1548 72.5905 75.2899 72.4469L75.5009 72.2359L75.4587 60.8128C75.1295 60.5848 74.8846 60.5004 74.6989 60.4751C74.5131 60.4582 74.2683 60.4582 74.1501 60.4751C74.0319 60.492 73.8293 60.5511 73.7026 60.6102ZM78.8865 60.9141L78.878 72.2359C79.3255 72.6665 79.3846 72.6833 79.849 72.6411C80.2542 72.6073 80.3893 72.5567 80.5075 72.3963C80.651 72.2021 80.6595 71.8475 80.6595 66.5792C80.6595 61.3109 80.651 60.9563 80.5075 60.7621C80.3809 60.6017 80.2542 60.5511 79.8321 60.5257C79.3593 60.4835 79.3002 60.5004 79.0976 60.6946L78.8865 60.9141ZM142.469 55.6036H143.845L143.795 56.2199C143.761 56.5576 143.676 56.9629 143.609 57.1233C143.541 57.2922 143.406 57.5285 143.305 57.6552C143.212 57.7818 142.976 57.9591 142.79 58.052C142.562 58.1702 142.283 58.2209 141.903 58.2209C141.532 58.2209 141.194 58.1618 140.831 58.0182C140.544 57.9085 140.088 57.7058 139.818 57.5539C139.506 57.385 139.21 57.2922 138.991 57.2922C138.72 57.2922 138.619 57.3428 138.484 57.5285C138.391 57.6552 138.298 57.9169 138.231 58.4741L136.838 58.4319L136.863 57.9676C136.88 57.7143 136.939 57.3175 137.007 57.0811C137.074 56.8531 137.26 56.4985 137.429 56.3043C137.606 56.0848 137.868 55.8907 138.087 55.8062C138.315 55.7218 138.628 55.688 138.948 55.7049C139.354 55.7302 139.666 55.84 140.468 56.2199C141.025 56.4901 141.583 56.7012 141.692 56.7096C141.811 56.7096 142.013 56.6336 142.14 56.5407C142.309 56.4141 142.385 56.2706 142.418 55.9835L142.469 55.6036Z" fill="white"/>
<path fill-rule="evenodd" clip-rule="evenodd" d="M32.7635 39.3849C32.8479 39.4271 33.2531 39.8155 33.6668 40.2461C34.089 40.6851 34.6462 41.3605 34.9079 41.7573C35.1696 42.1542 35.5749 42.8718 35.8113 43.3615C36.0392 43.8512 36.3347 44.5941 36.4529 45.0078C36.5711 45.43 36.7316 46.1476 36.8075 46.6119C36.9089 47.262 36.9257 47.8024 36.892 48.9337C36.8582 49.9215 36.7822 50.6898 36.6725 51.2555C36.5711 51.7198 36.3854 52.4797 36.2503 52.944C36.1068 53.4084 35.8282 54.2104 35.6256 54.717C35.4229 55.232 34.6462 56.8446 33.9117 58.3052C32.9408 60.2133 32.4595 61.2602 32.2147 62.02C32.0205 62.6026 31.8094 63.3793 31.7334 63.7508C31.6574 64.1223 31.5646 64.7892 31.5139 65.2283C31.4717 65.6673 31.4295 66.5031 31.4295 67.0857C31.4295 67.6682 31.4717 68.4618 31.5224 68.8587C31.573 69.2555 31.725 70.0153 31.8601 70.5472C31.9952 71.0791 32.2822 71.9572 32.4933 72.4891C32.7044 73.0209 33.1265 73.9243 33.422 74.4984C33.7175 75.0641 34.2156 75.9337 34.5196 76.4403C34.8319 76.9384 35.3385 77.7067 35.6509 78.1457C35.9633 78.5847 36.5205 79.3361 36.8835 79.8005C37.255 80.2733 37.9642 81.1513 38.4792 81.7423C38.9858 82.3418 40.1762 83.6082 41.1134 84.5622C42.0589 85.5163 42.8272 86.3014 42.8272 86.3183C42.8272 86.3268 42.7935 86.3352 42.7428 86.3352C42.6922 86.3352 42.118 85.9722 41.4595 85.5247C40.7925 85.0772 39.7625 84.3343 39.1546 83.8784C38.5552 83.4309 37.7531 82.8061 37.3817 82.4937C37.0102 82.1898 36.2419 81.5059 35.6678 80.9909C35.0937 80.4675 34.2241 79.5979 33.7259 79.0491C33.2278 78.4919 32.5439 77.6814 32.2062 77.2339C31.8601 76.778 31.3788 76.0941 31.134 75.6973C30.8976 75.3005 30.4923 74.5829 30.2475 74.0932C30.0027 73.6035 29.6396 72.7086 29.4454 72.1091C29.2428 71.5097 29.0149 70.6316 28.9304 70.1673C28.8122 69.551 28.77 68.9346 28.77 67.8877C28.7785 67.1026 28.8207 66.1485 28.8798 65.777C28.9389 65.4056 29.1162 64.6119 29.2766 64.0041C29.437 63.4046 29.6987 62.5435 29.8676 62.1044C30.0364 61.6654 30.3657 60.9393 30.5937 60.5003C30.8301 60.0613 31.4717 59.0313 32.0374 58.2208C32.5946 57.4103 33.2447 56.4393 33.4811 56.0679C33.7175 55.6964 34.1227 54.9534 34.3929 54.4215C34.6631 53.8896 35.0514 52.9356 35.2625 52.3108C35.4736 51.686 35.7269 50.6982 35.8282 50.1157C35.9802 49.2208 35.997 48.8493 35.9633 47.6251C35.9379 46.7724 35.862 45.9365 35.7775 45.5566C35.7015 45.2104 35.5242 44.5857 35.3892 44.1635C35.2456 43.7498 34.967 43.066 34.7644 42.6438C34.5618 42.2301 34.1734 41.5547 33.9032 41.1495C33.6331 40.7442 33.2194 40.1954 32.9745 39.9253C32.7297 39.6551 32.5524 39.4103 32.5777 39.3765C32.603 39.3427 32.6875 39.3512 32.7635 39.3849ZM78.3291 77.4281C78.6331 77.4618 78.9623 77.5547 79.1565 77.6645C79.3338 77.7658 79.5449 77.9515 79.6377 78.0782C79.7306 78.2133 79.8657 78.475 79.9332 78.6692C80.0008 78.8718 80.0514 79.0406 80.0346 79.0406C80.0261 79.0491 79.8573 79.1335 79.6631 79.2348C79.4604 79.3277 79.2831 79.3868 79.2663 79.3446C79.2494 79.3108 79.2156 79.1082 79.1818 78.8802C79.1481 78.6354 79.0552 78.3906 78.9286 78.247C78.7597 78.0613 78.6499 78.0191 78.346 78.0191C78.0505 78.0191 77.9154 78.0697 77.7466 78.2301C77.6115 78.3568 77.4933 78.6016 77.4426 78.838C77.392 79.066 77.3582 79.7752 77.3582 80.4253C77.3582 81.1091 77.4004 81.7761 77.468 82.0041C77.5186 82.2151 77.6453 82.4431 77.7381 82.5106C77.831 82.5697 78.0336 82.6204 78.1856 82.6204C78.3713 82.6204 78.498 82.5613 78.5824 82.4262C78.6753 82.2911 78.709 82.0125 78.709 80.6785H77.8648V80.0875H80.2287V83.1269H79.9332C79.7053 83.1269 79.6293 83.0847 79.5955 82.9581C79.5702 82.8652 79.528 82.7977 79.4942 82.8146C79.452 82.8315 79.2747 82.9074 79.089 83.0003C78.9032 83.0847 78.5064 83.1776 78.2025 83.1945C77.8141 83.2198 77.5186 83.186 77.1893 83.0847C76.9023 82.9834 76.5815 82.7977 76.3451 82.5782C76.134 82.384 75.8723 82.0209 75.7541 81.7677C75.5852 81.3877 75.5514 81.1767 75.543 80.4675C75.543 80.0031 75.5852 79.4712 75.6443 79.2855C75.695 79.0997 75.8723 78.7536 76.0327 78.5256C76.1847 78.2892 76.4633 77.9937 76.649 77.8671C76.8263 77.732 77.1725 77.5716 77.4004 77.5041C77.6621 77.4281 78.0083 77.4027 78.3291 77.4281ZM102.222 77.4281C102.518 77.4534 102.872 77.5547 103.066 77.6645C103.252 77.7742 103.497 78.0106 103.632 78.2301C103.759 78.4412 103.885 78.7029 103.911 78.8211C103.953 79.0069 103.919 79.0575 103.581 79.2179C103.37 79.3277 103.176 79.3868 103.151 79.3446C103.126 79.3108 103.109 79.1588 103.109 79.0069C103.109 78.8633 103.041 78.6016 102.965 78.4328C102.855 78.2217 102.729 78.1119 102.518 78.0444C102.321 77.9881 102.138 77.9853 101.969 78.036C101.834 78.0866 101.648 78.2132 101.572 78.323C101.488 78.4328 101.378 78.7536 101.327 79.0322C101.277 79.3277 101.251 80.0538 101.268 80.763C101.293 81.641 101.344 82.0547 101.437 82.2405C101.505 82.3755 101.631 82.5191 101.707 82.5528C101.783 82.5951 101.952 82.6204 102.087 82.6204C102.222 82.6204 102.399 82.5613 102.467 82.4937C102.577 82.3924 102.602 82.1814 102.602 80.6785H102.222C101.842 80.6785 101.842 80.6785 101.842 80.0875H104.206L104.164 83.0847L103.869 83.1101C103.632 83.1354 103.556 83.1016 103.446 82.7892L103.083 82.9665C102.881 83.0763 102.501 83.1692 102.18 83.1945C101.8 83.2198 101.471 83.186 101.125 83.0847C100.728 82.9665 100.525 82.8399 100.187 82.5022C99.892 82.2067 99.7062 81.9281 99.5965 81.6073C99.4867 81.2695 99.4445 80.9234 99.4445 80.3408C99.4501 79.8061 99.5008 79.4121 99.5965 79.1588C99.6809 78.9478 99.8582 78.6269 99.9933 78.4412C100.137 78.2555 100.407 77.9937 100.601 77.8502C100.795 77.7151 101.125 77.5547 101.336 77.4956C101.555 77.4281 101.927 77.4027 102.222 77.4281ZM116.896 77.3943C117.022 77.3859 117.326 77.4281 117.563 77.4872C117.808 77.5378 118.12 77.6814 118.255 77.7996C118.39 77.9178 118.542 78.1119 118.601 78.2301C118.66 78.3483 118.736 78.6101 118.77 78.8211C118.829 79.2011 118.829 79.2011 118.508 79.3361C118.323 79.4206 118.154 79.4628 118.111 79.4459C118.078 79.429 118.052 79.3108 118.052 79.1757C118.052 79.0491 118.01 78.8042 117.968 78.6269C117.917 78.4581 117.799 78.2386 117.689 78.1457C117.563 78.0275 117.385 77.9769 117.141 77.9769C116.854 77.9769 116.752 78.0191 116.575 78.2301C116.457 78.3652 116.322 78.6438 116.263 78.838C116.203 79.0406 116.161 79.7161 116.153 80.3408C116.153 81.0922 116.195 81.5988 116.271 81.8183C116.33 82.0041 116.482 82.2573 116.609 82.3924C116.786 82.5866 116.896 82.6204 117.233 82.6204C117.563 82.6204 117.689 82.5782 117.875 82.384C118.01 82.2573 118.162 81.9872 118.221 81.7761C118.272 81.565 118.297 81.2695 118.204 80.8052L118.525 80.8727C118.711 80.9149 118.888 80.974 118.922 80.9994C118.964 81.0331 118.981 81.2949 118.964 81.5735C118.947 82.0041 118.897 82.156 118.677 82.4178C118.542 82.6035 118.213 82.8483 117.96 82.9834C117.715 83.1101 117.377 83.2114 117.225 83.2114C117.081 83.2114 116.955 83.2536 116.955 83.2958C116.955 83.338 117.073 83.4056 117.225 83.4393C117.369 83.4815 117.563 83.5997 117.647 83.7179C117.732 83.8361 117.808 84.005 117.799 84.0979C117.799 84.1907 117.74 84.3512 117.672 84.4525C117.605 84.5622 117.436 84.7057 117.293 84.7733C117.149 84.8408 116.896 84.8999 116.718 84.8999C116.533 84.9084 116.364 84.8577 116.296 84.7733C116.246 84.7057 116.212 84.6213 116.229 84.5791C116.246 84.5453 116.381 84.4947 116.524 84.4525C116.744 84.4018 116.786 84.3596 116.761 84.157C116.752 83.9881 116.693 83.9206 116.55 83.9037C116.448 83.8952 116.364 83.8615 116.364 83.8193C116.364 83.7855 116.398 83.6335 116.448 83.4815C116.533 83.2114 116.533 83.2114 116.212 83.1607C116.043 83.1354 115.764 83.0425 115.604 82.9581C115.444 82.8737 115.19 82.6795 115.038 82.5191C114.886 82.3671 114.684 82.0463 114.574 81.8183C114.414 81.4553 114.38 81.2611 114.388 80.4675C114.388 79.7414 114.422 79.4459 114.557 79.1166C114.65 78.8802 114.819 78.5594 114.945 78.399C115.064 78.2386 115.325 77.9853 115.528 77.8502C115.731 77.7151 116.06 77.5547 116.271 77.4956C116.49 77.445 116.761 77.3943 116.887 77.3943H116.896ZM81.0139 77.4534L82.5505 77.4787C84.0111 77.5125 84.104 77.5209 84.5599 77.7489C84.8469 77.884 85.1256 78.0866 85.2353 78.247C85.3788 78.4581 85.4295 78.6438 85.4295 78.99C85.4295 79.353 85.3788 79.5219 85.2184 79.7414C85.1002 79.9018 84.8638 80.096 84.3826 80.2986L84.6528 80.4506C84.8047 80.5266 84.9905 80.6954 85.0665 80.8305C85.1424 80.9572 85.2438 81.3877 85.2944 81.793C85.3451 82.2067 85.4295 82.6288 85.4717 82.747C85.5139 82.8652 85.5561 83.0003 85.5561 83.0425C85.5561 83.0932 85.2015 83.1269 84.6696 83.1269C83.9013 83.1269 83.7747 83.1101 83.7325 82.975C83.7072 82.899 83.6565 82.3924 83.6227 81.8521C83.5805 81.0331 83.5468 80.839 83.4032 80.687C83.2935 80.5688 83.1331 80.5012 82.6856 80.5097V83.1269H80.997L81.0139 77.4534ZM82.6856 79.9187C83.074 79.9187 83.2935 79.868 83.4201 79.8089C83.5468 79.7414 83.6818 79.5979 83.7156 79.4881C83.7494 79.3784 83.7831 79.1335 83.7831 78.9478C83.7831 78.7451 83.7241 78.5341 83.6396 78.4159C83.5299 78.2724 83.361 78.1964 83.0655 78.1542L82.6518 78.0866L82.6856 79.9187ZM86.24 77.4703L87.8779 77.5125L87.9201 83.1269H86.2316L86.24 77.4703ZM88.7644 77.4787H90.4529V82.5022H92.6903L92.7325 83.1354H88.7644V77.4787ZM92.9858 77.4787H94.6743V82.5022L95.6284 82.4769C96.1518 82.46 96.6584 82.4684 96.7681 82.5022C96.9201 82.536 96.9539 82.6035 96.9539 83.1354H92.9858V77.4787ZM107.465 77.5209L108.233 80.2648C108.656 81.7761 108.985 83.0341 108.976 83.0763C108.96 83.1101 108.588 83.1354 108.141 83.1354C107.575 83.1354 107.33 83.1016 107.305 83.0341C107.279 82.975 107.203 82.7048 107.001 81.9534H105.397L105.059 83.1354H104.721C104.535 83.1354 104.384 83.1016 104.384 83.051C104.384 83.0087 104.73 81.8014 105.152 80.3746C105.566 78.9393 105.937 77.7067 105.962 77.6223C105.996 77.4956 106.097 77.4787 107.465 77.5209ZM105.608 81.278H106.832C106.376 79.6063 106.232 79.1166 106.224 79.1166C106.207 79.1082 106.072 79.5894 105.903 80.1889L105.608 81.278ZM109.39 77.4618L110.918 77.5041C111.864 77.5209 112.565 77.58 112.742 77.6476C112.911 77.7067 113.172 77.8587 113.333 77.9769C113.493 78.0951 113.671 78.323 113.73 78.475C113.789 78.6269 113.839 78.8887 113.848 79.066C113.848 79.2517 113.772 79.4966 113.654 79.6739C113.544 79.8343 113.308 80.0538 112.784 80.3239L113.071 80.4844C113.232 80.5772 113.409 80.7376 113.468 80.8558C113.527 80.974 113.637 81.4468 113.704 81.9112C113.78 82.3755 113.856 82.8399 113.882 82.9497C113.924 83.1354 113.915 83.1354 112.151 83.1354L112.066 82.7132C112.024 82.4853 111.982 81.9956 111.99 81.641C111.99 81.1091 111.957 80.9403 111.822 80.7545C111.687 80.5772 111.577 80.5181 111.053 80.5181V83.1354H109.365L109.39 77.4618ZM111.062 79.9693C111.737 79.8765 111.914 79.8005 112.016 79.6654C112.117 79.5303 112.168 79.3193 112.168 79.0406C112.168 78.7536 112.109 78.551 111.99 78.3906C111.855 78.2048 111.746 78.1542 111.442 78.1373L111.062 78.1119V79.9693ZM122.147 77.5209L122.89 80.2226C123.304 81.7086 123.641 82.975 123.641 83.0341C123.641 83.1101 123.422 83.1354 121.995 83.1438L121.657 81.945L120.062 81.9956L119.716 83.1438H119.403C119.175 83.1354 119.082 83.1016 119.082 83.0087C119.082 82.9412 119.429 81.717 119.851 80.2902C120.264 78.8633 120.627 77.6476 120.653 77.5885C120.678 77.5041 120.881 77.4787 122.147 77.5209ZM120.298 81.1767C120.273 81.2527 120.425 81.278 120.881 81.278H121.489C121.066 79.6739 120.931 79.1757 120.914 79.1251C120.906 79.0829 120.763 79.4966 120.611 80.0538C120.459 80.611 120.315 81.1176 120.298 81.1767Z" fill="#C2C2C2"/>
</svg>
