<svg width="183" height="110" viewBox="0 0 183 110" fill="none" xmlns="http://www.w3.org/2000/svg">
<rect width="183" height="110" fill="#002338"/>
<path opacity="0.28" d="M89.067 35.8852C89.0315 35.9785 89.0197 36.5383 89.0433 37.1447L89.0788 38.241L89.1261 35.8502L90.9597 35.7802C89.3627 35.7452 89.1025 35.7802 89.067 35.8852ZM86.9968 39.8387C86.9968 39.8971 87.3517 39.9204 87.8012 39.9204C88.2389 39.9087 88.4873 39.8854 88.3572 39.8621C88.2271 39.8387 87.8722 39.8154 87.5646 39.7921C87.2452 39.7688 86.9968 39.7921 86.9968 39.8387ZM83.377 82.7915C83.377 84.2609 83.4006 84.8441 83.4124 84.0743C83.4361 83.3046 83.4361 82.0917 83.4124 81.392C83.4006 80.6922 83.377 81.322 83.377 82.7915ZM94.4968 82.9081C94.4968 84.4475 94.5204 85.054 94.5322 84.2493C94.5559 83.4446 94.5559 82.185 94.5322 81.4503C94.5204 80.7156 94.4968 81.3687 94.4968 82.9081ZM87.399 83.8994C87.399 84.8907 87.4227 85.2872 87.4345 84.7741C87.4582 84.2609 87.4582 83.4446 87.4345 82.9664C87.4227 82.4882 87.399 82.9081 87.399 83.8994ZM99.3469 83.9577C99.3469 84.914 99.3705 85.2872 99.3824 84.7741C99.406 84.2609 99.406 83.4679 99.3824 83.0247C99.3705 82.5699 99.3469 82.9897 99.3469 83.9577ZM84.4416 83.7245C84.4416 84.4942 84.4534 84.7857 84.4771 84.3659C84.5008 83.9461 84.5008 83.3163 84.4771 82.9664C84.4534 82.6165 84.4416 82.9547 84.4416 83.7245Z" fill="#DF982D"/>
<path opacity="0.32" d="M106.87 58.4403C107.225 58.4636 107.758 58.4636 108.053 58.4403C108.349 58.4169 108.053 58.4053 107.403 58.4053C106.752 58.4053 106.516 58.4169 106.87 58.4403ZM86.9376 69.6129C86.9376 72.5635 86.9494 73.7414 86.9613 72.2369C86.9849 70.7325 86.9849 68.3183 86.9613 66.8722C86.9494 65.4261 86.9376 66.6623 86.9376 69.6129ZM106.326 67.7469C106.326 68.5749 106.338 68.9015 106.362 68.4466C106.385 67.9918 106.385 67.3154 106.362 66.9305C106.338 66.5457 106.326 66.9189 106.326 67.7469ZM80.8809 70.196C80.8809 70.6508 80.9045 70.8024 80.9282 70.5459C80.9518 70.2893 80.9518 69.9161 80.9282 69.7295C80.9045 69.5429 80.8809 69.7412 80.8809 70.196ZM106.326 71.3039C106.326 71.9104 106.338 72.1553 106.362 71.8287C106.385 71.5138 106.385 71.0124 106.362 70.7208C106.338 70.4292 106.326 70.6975 106.326 71.3039Z" fill="#22516D"/>
<path opacity="0.66" d="M88.582 43.1975C88.582 45.0285 88.6057 45.7632 88.6175 44.8302C88.6412 43.8972 88.6412 42.4044 88.6175 41.5064C88.6057 40.6084 88.582 41.3665 88.582 43.1975ZM89.4101 81.2753C89.4101 83.3279 89.4338 84.1443 89.4456 83.083C89.4693 82.0217 89.4693 80.3423 89.4456 79.351C89.4338 78.3597 89.4101 79.2227 89.4101 81.2753Z" fill="#DF982D"/>
<path opacity="0.99" fill-rule="evenodd" clip-rule="evenodd" d="M93.621 30.4154C95.1115 30.4504 95.6084 30.497 96.2827 30.7186C96.744 30.8586 97.5603 31.2084 98.1162 31.4883C98.6722 31.7799 99.5595 32.3747 100.104 32.8178C100.636 33.2727 101.074 33.6692 101.074 33.7159C101.085 33.7742 100.328 34.5206 97.7022 36.993L96.0697 35.4885C95.1825 34.6605 94.4254 33.9841 94.3899 33.9841C94.3544 33.9841 93.5737 34.6139 90.9593 36.7597L90.9002 35.7335L89.0666 35.7918L88.9483 38.3342L87.9783 39.0456C87.446 39.4421 87.0083 39.792 87.0083 39.8386C86.9964 39.8969 87.3395 39.9319 88.5343 39.9319V46.4629H93.1478V42.9642H95.7503V46.4629H99.9498L100.411 46.8944C100.66 47.1393 100.825 47.4075 100.79 47.4775C100.754 47.5592 100.328 47.9324 99.8552 48.3056C99.3938 48.6671 98.5776 49.1919 98.0571 49.4601C97.5366 49.7167 96.744 50.0549 96.2827 50.1949C95.6439 50.4048 95.076 50.4748 93.7393 50.5098C92.2606 50.5564 91.8821 50.5331 90.9593 50.3115C90.3797 50.1832 89.4925 49.88 89.0075 49.6584C88.5225 49.4251 87.8009 49.017 87.4105 48.7487C87.0201 48.4688 86.3103 47.8391 85.8371 47.3492C85.3758 46.8594 84.7488 46.0547 84.4531 45.5532C84.1573 45.0634 83.7433 44.1537 83.5304 43.5473C83.1637 42.4627 83.1518 42.3927 83.1637 40.4567C83.1637 38.5324 83.1755 38.4391 83.554 37.3662C83.7551 36.7597 84.1573 35.8734 84.4294 35.3952C84.7015 34.9171 85.3521 34.089 85.8726 33.5409C86.3931 33.0044 87.1621 32.328 87.5879 32.0598C88.0138 31.7799 88.7117 31.395 89.1494 31.1968C89.599 30.9985 90.3679 30.7303 90.8647 30.602C91.6336 30.4154 92.0832 30.3804 93.621 30.4154ZM89.9183 77.2634C90.0012 77.2517 90.1549 77.3683 90.2496 77.5083C90.4034 77.7299 90.427 78.3363 90.427 81.2169C90.427 83.8177 90.4625 84.704 90.569 84.8556C90.6518 84.9606 90.912 85.1005 91.1368 85.1588C91.3852 85.2171 91.5627 85.3338 91.5745 85.4504C91.5981 85.5554 91.539 85.7303 91.4562 85.8236C91.3616 85.9519 91.1131 86.0102 90.6873 85.9985C90.1549 85.9985 90.0366 85.9519 89.4807 85.2988L89.457 81.3452C89.4333 77.9748 89.457 77.38 89.6108 77.3333C89.6936 77.2984 89.8474 77.2634 89.9183 77.2634ZM92.0832 77.6016H93.2661V78.7678H92.0832V77.6016ZM103.144 79.6658C103.333 79.7008 103.617 79.7708 103.759 79.8291C103.913 79.8874 104.232 80.109 104.469 80.3189C104.717 80.5405 105.037 80.9604 105.179 81.2519C105.332 81.5551 105.451 81.9983 105.451 82.2316C105.451 82.4765 105.38 82.7797 105.285 82.908C105.131 83.1179 104.942 83.1412 103.179 83.1996C101.369 83.2579 101.251 83.2695 101.216 83.4911C101.192 83.6194 101.287 83.9343 101.417 84.1909C101.559 84.4941 101.807 84.739 102.103 84.8906C102.434 85.0655 102.742 85.1122 103.262 85.1005C103.652 85.0772 104.161 85.0539 104.386 85.0422C104.764 85.0072 104.8 85.0306 104.835 85.3571C104.859 85.5903 104.812 85.7536 104.658 85.8586C104.516 85.9519 104.031 85.9985 103.262 85.9985C102.363 85.9985 101.961 85.9402 101.606 85.7769C101.346 85.6603 100.991 85.4154 100.813 85.2288C100.636 85.0422 100.435 84.7273 100.364 84.5407C100.281 84.3425 100.186 83.8993 100.127 83.5494C100.08 83.1996 100.092 82.5698 100.151 82.1499C100.21 81.7301 100.376 81.1936 100.518 80.9487C100.66 80.7038 100.991 80.3656 101.239 80.1906C101.5 80.0157 101.949 79.8174 102.245 79.7358C102.552 79.6658 102.955 79.6308 103.144 79.6658ZM101.511 81.3569C101.393 81.4968 101.322 81.7534 101.334 81.9167C101.369 82.2082 101.381 82.2082 102.588 82.2316C103.25 82.2549 103.901 82.2082 104.031 82.1499C104.161 82.0916 104.268 81.94 104.268 81.8234C104.279 81.7184 104.149 81.4735 104.007 81.2869C103.854 81.1003 103.558 80.8787 103.357 80.7854C103.144 80.7038 102.895 80.6338 102.824 80.6338C102.742 80.6338 102.458 80.7388 102.197 80.8554C101.925 80.9837 101.618 81.2053 101.511 81.3569ZM79.8632 79.7008C80.3482 79.7008 80.7623 79.7708 81.058 79.9224C81.2946 80.039 81.6968 80.3656 81.9452 80.6455C82.1936 80.9254 82.4775 81.4152 82.584 81.7417C82.7141 82.1383 82.7496 82.5814 82.7141 83.1412C82.6786 83.701 82.5722 84.1675 82.3474 84.6224C82.099 85.1472 81.8979 85.3804 81.472 85.6487C80.9752 85.9635 80.7977 85.9985 80.0525 85.9985C79.5438 85.9985 79.0115 85.9286 78.7512 85.8119C78.5028 85.7186 78.1716 85.5204 78.0296 85.3804C77.8758 85.2405 77.6511 84.9373 77.5328 84.7157C77.4263 84.4941 77.2962 83.911 77.2489 83.4328C77.2134 82.943 77.2252 82.2782 77.2962 81.9167C77.3672 81.5668 77.5564 81.077 77.7102 80.8321C77.8758 80.5988 78.2544 80.2373 78.562 80.0507C79.0351 79.7591 79.2481 79.7008 79.8632 79.7008ZM78.7985 81.0653C78.6803 81.1819 78.5383 81.4618 78.4791 81.6834C78.4082 81.905 78.3609 82.4298 78.3609 82.8497C78.3609 83.2695 78.42 83.806 78.4791 84.0392C78.5501 84.3075 78.7512 84.6107 78.9878 84.7856C79.319 85.0539 79.4492 85.0889 80.0288 85.0539C80.4902 85.0189 80.7859 84.9373 80.9634 84.774C81.1053 84.6457 81.3064 84.3775 81.4129 84.1909C81.5312 83.9576 81.5903 83.5261 81.5903 82.908C81.5903 82.1849 81.5312 81.8584 81.3301 81.4735C81.1999 81.2053 80.987 80.937 80.8805 80.8787C80.7623 80.8321 80.4783 80.7621 80.2536 80.7271C80.0288 80.6921 79.6503 80.7154 79.4255 80.7621C79.2008 80.8204 78.9168 80.9604 78.7985 81.0653ZM86.5824 79.7358C86.9491 79.7591 87.3158 79.8641 87.5288 80.004C87.7299 80.144 88.002 80.5172 88.1676 80.8787C88.416 81.4152 88.4633 81.7417 88.5106 83.1996C88.5461 84.1325 88.5343 85.0889 88.487 85.3221C88.4397 85.602 88.3214 85.8119 88.1794 85.8819C88.0493 85.9402 87.8363 85.9752 87.7062 85.9402C87.4815 85.8819 87.4696 85.7886 87.4696 84.0976C87.4696 82.8613 87.4223 82.1383 87.2922 81.7068C87.1857 81.3452 87.0083 81.0303 86.8545 80.9254C86.7007 80.8321 86.3931 80.7504 86.1684 80.7504C85.9436 80.7504 85.5769 80.8554 85.3758 80.9837C85.1274 81.1236 84.8671 81.4502 84.6897 81.8234C84.4176 82.3948 84.3939 82.5698 84.4058 84.0742C84.4058 85.4271 84.3703 85.742 84.2165 85.8819C84.0627 86.0219 83.9799 86.0335 83.4476 85.7653V82.9313C83.4476 80.8671 83.4831 80.074 83.5895 79.9574C83.6723 79.8874 83.8261 79.8174 83.9444 79.8174C84.0627 79.8174 84.2402 79.9457 84.5122 80.4006L85.08 80.1207C85.3876 79.9691 85.7188 79.8174 85.8135 79.7708C85.9081 79.7358 86.263 79.7241 86.5824 79.7358ZM97.3237 79.7008C97.6312 79.7008 98.0808 79.7941 98.3173 79.8991C98.5539 80.0157 98.8852 80.3189 99.3583 81.0303L99.3229 83.4211C99.2874 85.0772 99.2401 85.8469 99.1454 85.9052C99.0626 85.9519 98.9798 85.9985 98.9443 85.9985C98.9088 85.9985 98.7787 85.9286 98.6486 85.8353C98.4356 85.6836 98.412 85.497 98.3528 83.5261C98.3173 82.3482 98.2345 81.2986 98.1754 81.1703C98.1044 81.0537 97.9625 80.9021 97.856 80.8554C97.7377 80.7971 97.4301 80.7504 97.1699 80.7504C96.8032 80.7504 96.6021 80.8321 96.2708 81.1236C96.0461 81.3336 95.7858 81.7184 95.6912 81.975C95.5965 82.2316 95.4901 83.1762 95.4546 84.0742C95.4073 85.0539 95.3245 85.7653 95.2417 85.8586C95.1589 85.9519 94.9814 85.9869 94.5674 85.8819V79.9341L94.8394 79.8641C95.0169 79.8058 95.1588 79.8641 95.3126 80.039C95.4191 80.1673 95.5611 80.2839 95.632 80.2839C95.703 80.2839 95.9751 80.1557 96.259 79.9924C96.5902 79.7941 96.9333 79.7008 97.3237 79.7008ZM92.6155 79.9107C92.8048 79.9457 93.0414 80.0274 93.1242 80.0973C93.2425 80.2023 93.2661 80.8321 93.207 85.8236L92.8521 85.8586C92.6628 85.8819 92.438 85.8353 92.3552 85.742C92.2606 85.637 92.2015 84.844 92.1423 80.9837L91.8229 80.6921C91.6336 80.5289 91.4917 80.3656 91.4917 80.3073C91.4799 80.2606 91.5508 80.1673 91.6336 80.0973C91.7164 80.0157 91.8939 79.9341 92.024 79.9107C92.1541 79.8758 92.4262 79.8758 92.6155 79.9107Z" fill="#DF982D"/>
<path fill-rule="evenodd" clip-rule="evenodd" d="M93.7395 24.0127C95.1354 24.036 96.2237 24.1177 96.7561 24.2343C97.2174 24.3393 98.01 24.5492 98.5305 24.7125C99.051 24.8874 99.9264 25.2256 100.482 25.4822C101.038 25.7388 101.76 26.112 102.079 26.3102C102.411 26.5201 103.097 27.01 103.617 27.4065C104.138 27.803 104.847 28.4095 105.806 29.3774L102.742 32.4097L101.997 31.7099C101.583 31.3251 100.979 30.8119 100.66 30.5787C100.329 30.3454 99.7253 29.9722 99.2994 29.739C98.8736 29.5174 98.1046 29.1675 97.5841 28.9809C97.0636 28.7943 96.1882 28.5611 95.6323 28.4561C95.0763 28.3511 94.0471 28.2695 93.3255 28.2695C92.6039 28.2695 91.5747 28.3511 91.0187 28.4561C90.4627 28.5611 89.6465 28.771 89.1851 28.9343C88.7238 29.0975 88.014 29.4008 87.5881 29.6107C87.1623 29.8206 86.3934 30.2988 85.8729 30.6836C85.3524 31.0685 84.6071 31.7099 84.2285 32.1298C83.8382 32.538 83.2467 33.296 82.9036 33.8092C82.5724 34.3223 82.1347 35.1153 81.9336 35.5585C81.7325 36.0017 81.4368 36.8764 81.2593 37.4828C81.0819 38.1709 80.9281 39.0573 80.8926 39.8153C80.8453 40.6433 80.8808 41.4131 80.9991 42.2061C81.0937 42.8475 81.3185 43.7805 81.4841 44.282C81.6497 44.7718 81.9928 45.5882 82.253 46.0897C82.5014 46.5795 83.0456 47.4309 83.4596 47.9673C83.8737 48.5155 84.5598 49.2502 84.962 49.6001C85.376 49.9616 86.0148 50.4514 86.3815 50.6964C86.7601 50.9529 87.3752 51.3145 87.7656 51.5011C88.156 51.6993 88.9249 52.0026 89.4809 52.1775C90.0369 52.3524 90.8886 52.5623 91.3736 52.644C91.9296 52.7373 92.8523 52.7606 93.8578 52.7256C94.9698 52.6906 95.7387 52.5857 96.4012 52.4107C96.9217 52.2708 97.7497 51.9909 98.2348 51.7926C98.7198 51.5944 99.5242 51.1745 100.009 50.8596C100.494 50.5447 101.228 49.9966 102.375 49.0286L102.825 49.3668C103.061 49.5534 103.771 50.2182 105.51 51.9559L104.623 52.7839C104.138 53.2388 103.203 53.9618 102.553 54.3817C101.902 54.8015 100.861 55.373 100.246 55.6412C99.6307 55.9095 98.637 56.271 98.0573 56.4343C97.4777 56.5975 96.484 56.8191 95.8688 56.9008C95.2537 56.9941 94.0826 57.0757 93.2663 57.0757C92.4501 57.0757 91.3026 56.9941 90.723 56.9008C90.1433 56.8075 89.1733 56.5975 88.5937 56.4343C88.014 56.2593 87.0203 55.9095 86.4052 55.6412C85.79 55.373 84.7372 54.8015 84.0629 54.37C83.4005 53.9268 82.3476 53.0872 81.7207 52.4924C81.0937 51.9093 80.242 50.9763 79.8279 50.4281C79.4139 49.88 78.7869 48.8887 78.4321 48.2123C78.0772 47.5358 77.6276 46.5095 77.4147 45.9381C77.2136 45.3666 76.9415 44.3637 76.7996 43.7222C76.6103 42.8126 76.5512 42.1245 76.5512 40.5734C76.5512 39.1272 76.5985 38.2992 76.7523 37.5411C76.8705 36.9697 77.119 35.99 77.3201 35.3836C77.5212 34.7771 77.947 33.7508 78.2664 33.1094C78.5858 32.468 79.13 31.5466 79.4612 31.0685C79.8043 30.5903 80.585 29.6807 81.2002 29.0509C81.8153 28.4095 82.7735 27.5581 83.3295 27.1499C83.8855 26.7417 84.891 26.1236 85.5771 25.7737C86.2632 25.4239 87.3042 24.9807 87.8839 24.7941C88.4635 24.5958 89.3744 24.3626 89.8949 24.2576C90.4154 24.1643 91.0069 24.0594 91.1962 24.0244C91.3854 24.0011 92.5329 23.9894 93.7395 24.0127ZM59.1972 58.4169C59.8478 58.4519 60.6522 58.5685 61.0899 58.6968C61.5158 58.8251 62.2019 59.1283 62.6159 59.3732C63.0181 59.6181 63.6806 60.1196 64.0591 60.4928C64.4377 60.8543 64.9463 61.4375 65.1711 61.7757C65.3959 62.1022 65.5851 62.4171 65.5851 62.4754C65.5851 62.5221 65.1948 62.7786 63.8698 63.525L63.4558 63.0119C63.231 62.732 62.8052 62.2772 62.5094 61.9973C62.2137 61.7174 61.7642 61.3675 61.5039 61.2159C61.2437 61.0643 60.6049 60.831 60.0844 60.6794C59.2208 60.4461 59.0552 60.4345 58.1916 60.5511C57.5292 60.6444 56.9732 60.8194 56.3581 61.1226C55.8021 61.3908 55.2224 61.799 54.8202 62.2072C54.4062 62.6037 53.9921 63.1752 53.7201 63.7233C53.4716 64.2015 53.1996 64.9595 53.1049 65.4143C53.0103 65.8692 52.9275 66.429 52.9275 66.6739C52.9275 66.9071 53.0103 67.4903 53.1168 67.9568C53.2232 68.4116 53.5071 69.158 53.7437 69.6128C53.9921 70.091 54.4653 70.7208 54.8794 71.1289C55.2697 71.5138 55.8849 71.9686 56.2398 72.1436C56.5947 72.3185 57.2098 72.5401 57.6002 72.6334C57.9905 72.7384 58.6175 72.82 58.9961 72.82C59.3628 72.82 60.0016 72.715 60.4156 72.5751C60.8178 72.4351 61.4211 72.1552 61.7405 71.9453C62.0717 71.747 62.5449 71.3389 62.8052 71.059C63.0654 70.7791 63.4085 70.3709 63.8698 69.7761L65.7034 70.7208L65.5378 71.0473C65.4432 71.2222 65.1119 71.7004 64.8044 72.1086C64.485 72.5168 63.9053 73.0882 63.515 73.3798C63.1246 73.6713 62.4858 74.0562 62.0954 74.2311C61.705 74.4177 60.9834 74.651 60.4984 74.756C59.8596 74.8959 59.2918 74.9309 58.4874 74.8959C57.7185 74.8493 57.0678 74.7326 56.4172 74.511C55.8967 74.3478 55.1751 74.0445 54.8202 73.8463C54.4653 73.648 53.7201 73.0299 53.1641 72.4818C52.3833 71.7004 52.0521 71.2689 51.6972 70.5458C51.4488 70.0327 51.1531 69.2513 51.0584 68.7965C50.9519 68.3066 50.8691 67.4203 50.8691 66.5806C50.8691 65.5776 50.9401 64.9712 51.0939 64.423C51.2122 64.0032 51.4843 63.3034 51.709 62.8486C51.9338 62.3938 52.336 61.7523 52.6081 61.4025C52.8802 61.0643 53.3415 60.5744 53.6373 60.3412C53.933 60.0963 54.489 59.7114 54.8794 59.4782C55.2697 59.2449 55.9085 58.9534 56.2989 58.8251C56.6893 58.6968 57.2453 58.5452 57.541 58.4752C57.8368 58.4169 58.582 58.3936 59.1972 58.4169ZM106.279 58.4752H108.526V64.0732H111.366V66.289H108.526L108.586 72.2602L108.941 72.5518C109.248 72.8083 109.378 72.8433 109.828 72.785C110.123 72.7384 110.49 72.68 110.656 72.6334C110.928 72.5634 110.975 72.6217 111.342 73.4498C111.543 73.9396 111.697 74.3944 111.661 74.4527C111.626 74.511 111.354 74.651 111.046 74.7443C110.727 74.8376 110.112 74.9192 109.65 74.9076C109.189 74.9076 108.657 74.8376 108.444 74.7676C108.243 74.686 107.84 74.4644 107.556 74.2778C107.225 74.0445 106.93 73.7063 106.397 72.6451V66.289L104.8 66.2307L104.741 64.1898L106.279 64.0732V58.4752ZM71.7365 63.9682C72.1624 63.9682 72.7775 64.0265 73.0969 64.1198C73.4281 64.2015 73.9841 64.423 74.339 64.598C74.6939 64.7729 75.2854 65.2161 75.6521 65.5776C76.1016 66.0091 76.4683 66.5223 76.7523 67.1054C76.9888 67.5952 77.2373 68.3416 77.3082 68.7965C77.4029 69.4029 77.4147 69.8227 77.3082 70.4292C77.2254 70.9074 76.9888 71.6188 76.7404 72.1202C76.4565 72.7034 76.0819 73.2204 75.6166 73.6713C75.2144 74.0679 74.6348 74.4761 74.1971 74.6743C73.783 74.8726 73.0851 75.0825 72.6237 75.1641C71.9849 75.2691 71.6064 75.2691 70.9676 75.1641C70.5181 75.0825 69.8201 74.8726 69.4297 74.686C69.0394 74.4994 68.4834 74.1495 68.1876 73.8929C67.8919 73.648 67.4424 73.1349 67.194 72.75C66.9337 72.3768 66.638 71.8054 66.5197 71.4788C66.4132 71.1639 66.2831 70.5342 66.2358 70.0793C66.1766 69.5662 66.2003 69.0064 66.2949 68.5632C66.3777 68.1783 66.6025 67.5252 66.8036 67.1054C67.0402 66.5923 67.4187 66.1024 67.9392 65.5893C68.3651 65.1694 68.9921 64.7029 69.3114 64.5513C69.6427 64.3881 70.1395 64.2015 70.4353 64.1198C70.731 64.0382 71.3106 63.9682 71.7365 63.9682ZM69.4061 67.152C69.1932 67.3853 68.8974 67.7935 68.7555 68.0734C68.5307 68.4699 68.4834 68.7498 68.4834 69.6128C68.4834 70.4758 68.5307 70.7557 68.7555 71.1639C68.8974 71.4322 69.2168 71.852 69.4652 72.0969C69.7018 72.3302 70.1159 72.6334 70.3761 72.7617C70.6364 72.8783 71.1924 73.0066 71.6182 73.0299C72.2452 73.0766 72.5054 73.0299 73.0259 72.8083C73.4163 72.6334 73.8777 72.3068 74.2089 71.9453C74.5638 71.5721 74.8477 71.1289 74.9778 70.7208C75.1434 70.2543 75.1789 69.8694 75.1434 69.3213C75.1079 68.8781 74.9778 68.3533 74.824 68.0617C74.6939 67.7935 74.3982 67.3853 74.1971 67.152C73.9841 66.9188 73.5464 66.6039 73.2152 66.4523C72.7657 66.2307 72.4345 66.1724 71.7957 66.1724C71.1569 66.1724 70.8256 66.2307 70.3761 66.4523C70.0567 66.6039 69.6072 66.9188 69.4061 67.152ZM99.6543 63.9915C100.506 64.0149 100.79 64.0848 101.488 64.4114C101.973 64.633 102.588 65.0528 102.967 65.4143C103.321 65.7526 103.783 66.3357 103.996 66.7089C104.197 67.0937 104.457 67.7352 104.552 68.155C104.658 68.5749 104.741 69.158 104.741 69.4729C104.741 69.9044 104.694 70.0443 104.504 70.1376C104.362 70.2076 102.754 70.2543 96.5786 70.2543L96.6496 70.6974C96.6851 70.9307 96.8152 71.3155 96.9335 71.5371C97.04 71.7587 97.3475 72.1202 97.596 72.3418C97.8562 72.5634 98.2348 72.8083 98.4477 72.9016C98.6488 72.9833 99.0983 73.0532 99.4177 73.0532C99.7844 73.0532 100.198 72.9599 100.518 72.7967C100.79 72.6684 101.31 72.2719 102.316 71.2922L103.18 71.6771C103.653 71.887 104.043 72.1202 104.031 72.1786C104.031 72.2369 103.877 72.5634 103.688 72.8783C103.511 73.2048 103.12 73.6597 102.836 73.9046C102.553 74.1612 102.008 74.511 101.642 74.6976C101.263 74.8842 100.613 75.0942 100.187 75.1525C99.678 75.2341 99.1693 75.2341 98.6843 75.1525C98.2702 75.0942 97.6196 74.8842 97.2292 74.6976C96.8152 74.4994 96.2474 74.0795 95.8452 73.6713C95.4312 73.2515 95.0408 72.7034 94.816 72.2135C94.6149 71.7704 94.3901 71.0356 94.3073 70.5808C94.2009 69.9277 94.2009 69.4962 94.3073 68.7381C94.402 68.0501 94.5676 67.4903 94.8515 66.9305C95.0763 66.4756 95.4903 65.8692 95.7624 65.5776C96.0463 65.2861 96.5076 64.9129 96.7916 64.7379C97.0636 64.563 97.596 64.3181 97.9745 64.1898C98.495 64.0032 98.8736 63.9565 99.6543 63.9915ZM97.7143 66.7439C97.596 66.8488 97.3357 67.1404 97.1464 67.397C96.9572 67.6535 96.8152 67.9334 96.8152 68.0151C96.8152 68.12 97.4304 68.155 99.4769 68.155C101.523 68.155 102.139 68.12 102.139 68.0151C102.139 67.9334 101.985 67.6419 101.784 67.3736C101.594 67.0937 101.204 66.7322 100.932 66.5573C100.518 66.289 100.293 66.2307 99.5478 66.1957C98.8854 66.1724 98.5542 66.2191 98.2939 66.359C98.1046 66.464 97.8326 66.6389 97.7143 66.7439ZM117.73 63.9565C118.227 63.9565 118.866 64.0382 119.268 64.1665C119.634 64.2831 120.214 64.5397 120.534 64.7379C120.865 64.9362 121.409 65.4027 121.752 65.7526C122.083 66.1141 122.521 66.7322 122.722 67.1404C122.911 67.5369 123.124 68.155 123.195 68.5049C123.266 68.8548 123.313 69.4146 123.313 69.7294C123.313 70.056 123.231 70.6275 123.124 71.0123C123.03 71.3972 122.805 71.9803 122.627 72.2952C122.45 72.6217 121.989 73.1932 121.598 73.5897C121.149 74.0329 120.604 74.4294 120.119 74.6627C119.694 74.8609 119.007 75.0825 118.582 75.1641C118.026 75.2574 117.588 75.2574 116.985 75.1641C116.523 75.0942 115.79 74.8726 115.328 74.651C114.879 74.4294 114.252 74.0096 113.944 73.718C113.625 73.4148 113.211 72.9249 113.022 72.6217C112.821 72.3068 112.549 71.7004 112.407 71.2456C112.205 70.5808 112.17 70.2193 112.217 69.2629C112.253 68.2716 112.324 67.9801 112.631 67.3386C112.821 66.9188 113.199 66.324 113.459 65.9975C113.72 65.6826 114.24 65.2044 114.619 64.9478C114.997 64.6913 115.66 64.3647 116.086 64.2248C116.606 64.0498 117.162 63.9565 117.73 63.9565ZM115.376 67.1404C115.116 67.4086 114.784 67.8635 114.642 68.155C114.441 68.5632 114.382 68.8781 114.394 69.6128C114.394 70.3825 114.453 70.6508 114.702 71.1289C114.879 71.4555 115.222 71.9103 115.47 72.1436C115.719 72.3768 116.157 72.68 116.452 72.8083C116.772 72.9483 117.245 73.0532 117.635 73.0532C117.99 73.0532 118.522 72.9716 118.818 72.8783C119.114 72.7733 119.575 72.5051 119.859 72.2835C120.167 72.0386 120.498 71.6188 120.723 71.1639C121.054 70.4992 121.078 70.3476 121.042 69.4962C121.019 68.7965 120.936 68.4349 120.735 68.0384C120.581 67.7468 120.285 67.3386 120.084 67.1171C119.871 66.9071 119.445 66.6039 119.114 66.4523C118.664 66.2424 118.321 66.1724 117.694 66.1724C117.115 66.1724 116.713 66.254 116.37 66.4057C116.086 66.5339 115.648 66.8605 115.376 67.1404ZM83.6252 64.0848C84.0156 64.0732 84.6307 64.1548 84.9856 64.2481C85.3405 64.3414 85.7427 64.528 85.8729 64.6563C86.1094 64.8779 86.1094 64.9012 85.9083 65.7642C85.7427 66.4406 85.6481 66.6389 85.4943 66.6389C85.376 66.6389 84.9856 66.5573 84.6307 66.464C84.2759 66.3707 83.6844 66.289 83.3295 66.289C82.88 66.289 82.5133 66.3707 82.1465 66.5573C81.7207 66.7672 81.5432 66.9538 80.9163 68.2133L80.7861 74.9192H78.716V64.3064L79.757 64.3414C80.727 64.3647 80.7861 64.3764 80.8216 64.633C80.8335 64.7729 80.9163 64.8895 80.9991 64.8895C81.07 64.8895 81.3303 64.7729 81.5551 64.633C81.7798 64.493 82.182 64.3064 82.4423 64.2364C82.7025 64.1548 83.2349 64.0848 83.6252 64.0848ZM91.7876 64.0848C92.178 64.0732 92.805 64.1665 93.1954 64.2831C93.5739 64.3881 93.9761 64.5746 94.0826 64.6913C94.26 64.8895 94.26 64.9712 94.0353 65.7992C93.917 66.289 93.8105 66.7089 93.7987 66.7205C93.7987 66.7322 93.432 66.6389 92.9706 66.5106C92.5092 66.394 91.8468 66.289 91.4919 66.289C91.0424 66.289 90.6757 66.3707 90.3089 66.5573C89.9422 66.7439 89.682 66.9888 89.4927 67.3503C89.2561 67.7702 89.1851 68.1084 89.1142 69.2046C89.0668 69.9394 89.0195 71.5255 89.0077 74.9192H86.9967V64.3064L87.9785 64.3414C88.8894 64.3647 88.9485 64.3764 88.984 64.633C88.9959 64.7729 89.0787 64.8895 89.1615 64.8895C89.2325 64.8895 89.4927 64.7729 89.7175 64.633C89.9422 64.493 90.3444 64.3064 90.6047 64.2364C90.8649 64.1548 91.3973 64.0848 91.7876 64.0848ZM129.938 64.1198C130.423 64.1431 131.062 64.2364 131.346 64.3181C131.618 64.4114 131.937 64.563 132.02 64.6563C132.174 64.8079 132.174 64.9478 131.985 65.7292C131.831 66.3707 131.724 66.6389 131.594 66.6389C131.5 66.6272 131.097 66.5573 130.707 66.464C130.317 66.3707 129.737 66.289 129.406 66.289C129.086 66.289 128.601 66.394 128.341 66.499C128.081 66.6156 127.75 66.8722 127.596 67.0588C127.442 67.2453 127.265 67.5836 127.194 67.8051C127.123 68.0384 127.052 69.6478 126.981 74.9192H124.851V64.3064H125.857C126.839 64.3064 126.862 64.3181 126.921 64.598C126.957 64.7612 127.052 64.8895 127.134 64.8895C127.205 64.8895 127.466 64.7729 127.69 64.633C127.915 64.493 128.317 64.3064 128.578 64.2248C128.862 64.1315 129.406 64.0965 129.938 64.1198Z" fill="#22516D"/>
</svg>
