<svg width="183" height="110" viewBox="0 0 183 110" fill="none" xmlns="http://www.w3.org/2000/svg">
<rect width="183" height="110" fill="#042B01"/>
<path fill-rule="evenodd" clip-rule="evenodd" d="M110.199 61.2214C110.288 61.3244 110.613 61.8391 110.908 62.3833C111.204 62.9422 111.396 63.4128 111.322 63.4423C111.263 63.4717 110.687 63.7217 110.037 63.9717C109.387 64.2365 108.442 64.6042 107.009 65.1483L106.625 64.4424C106.3 63.8688 106.27 63.7217 106.448 63.5746C106.551 63.4717 107.408 62.8687 108.338 62.2215C109.653 61.295 110.066 61.0743 110.199 61.2214ZM139.504 65.4572C140.035 65.4425 140.789 65.5454 141.202 65.6631C141.601 65.7808 142.044 65.9426 142.162 66.0161C142.354 66.1485 142.354 66.2808 142.162 67.2074C141.985 68.0163 141.896 68.2222 141.719 68.1634C141.601 68.1046 141.128 67.9722 140.685 67.8398C140.198 67.7075 139.651 67.6486 139.312 67.7075C139.016 67.7516 138.721 67.8987 138.647 68.0163C138.588 68.1634 138.632 68.3252 138.765 68.4428C138.883 68.5605 139.415 68.7811 139.947 68.9576C140.478 69.1341 141.173 69.4135 141.498 69.6047C141.808 69.7812 142.236 70.1636 142.413 70.4431C142.664 70.8108 142.768 71.1637 142.753 71.6932C142.753 72.1639 142.635 72.6639 142.428 73.0904C142.236 73.4581 141.822 73.9288 141.498 74.1494C141.128 74.4141 140.552 74.62 139.947 74.723C139.238 74.8553 138.721 74.8553 137.982 74.723C137.436 74.6347 136.727 74.4435 136.387 74.2965C136.062 74.1641 135.826 73.9729 135.855 73.8993C135.9 73.8111 136.018 73.3405 136.121 72.8257C136.284 72.105 136.372 71.9285 136.549 72.0021C136.668 72.0462 137.066 72.1933 137.436 72.2962C137.805 72.4139 138.411 72.5021 138.795 72.5021C139.193 72.5021 139.607 72.4727 139.725 72.4286C139.843 72.3845 139.947 72.208 139.947 72.0168C139.961 71.7962 139.828 71.6344 139.548 71.5167C139.326 71.4285 138.662 71.1932 138.1 71.0167C137.524 70.8255 136.874 70.5019 136.638 70.296C136.402 70.0901 136.121 69.7077 136.003 69.443C135.9 69.1929 135.811 68.737 135.811 68.4575C135.811 68.1781 135.914 67.6928 136.047 67.3839C136.165 67.0897 136.417 66.6779 136.594 66.5014C136.771 66.3102 137.111 66.0455 137.332 65.9278C137.554 65.7955 137.923 65.6484 138.145 65.5749C138.366 65.516 138.972 65.4572 139.504 65.4572ZM98.0287 65.5602L100.776 65.619C103.376 65.6631 103.582 65.6778 104.277 66.0308C104.705 66.2514 105.148 66.6191 105.355 66.9133C105.532 67.1927 105.724 67.6339 105.768 67.8692C105.827 68.1046 105.813 68.5752 105.754 68.8988C105.68 69.3106 105.473 69.6636 105.03 70.0901C104.705 70.4284 104.321 70.7225 104.203 70.7666C104.011 70.8255 104.011 70.9137 104.158 71.4432C104.262 71.7815 104.483 72.1197 104.646 72.208C104.808 72.2815 105.163 72.3551 105.901 72.3551L106.005 73.4875C106.064 74.12 106.064 74.6641 106.019 74.7083C105.99 74.7524 105.443 74.7818 104.823 74.7671C104.084 74.7671 103.523 74.6788 103.243 74.5318C103.006 74.4141 102.593 74.0758 102.356 73.8111C102.105 73.5317 101.825 73.0169 101.736 72.6492C101.633 72.2815 101.529 71.8109 101.485 71.5756C101.426 71.3549 101.293 71.1784 101.175 71.1784C100.983 71.1784 100.953 71.4726 100.953 74.7083H97.9991L98.0287 65.5602ZM100.953 69.4871C102.105 69.3106 102.563 69.1929 102.726 69.1194C102.932 69.0164 103.036 68.8105 103.036 68.487C103.036 68.2222 102.947 67.9281 102.844 67.8398C102.74 67.7369 102.283 67.6192 101.825 67.5604L101.012 67.4574L100.953 69.4871ZM77.9116 65.7366H80.718L82.8744 70.0754L85.0752 65.7366H87.8077V74.7083H85.0013L84.9275 70.4431L83.4505 73.164H82.2688L80.7918 70.3695L80.718 74.7083H77.9116V65.7366ZM90.6288 65.7219L94.9712 65.8102L96.2563 70.2225C96.9652 72.6492 97.5413 74.6494 97.556 74.6641C97.556 74.6936 96.8028 74.6936 94.2327 74.6347L94.0112 72.9434H91.6479L91.2787 74.7083H89.6835C88.4871 74.7083 88.1179 74.6641 88.1622 74.5171C88.2065 74.4141 88.6644 72.7522 89.2109 70.8108C89.7426 68.8694 90.2743 66.928 90.4072 66.5014L90.6288 65.7219ZM92.0024 71.0608C91.9433 71.2814 92.0467 71.3255 92.7557 71.3255C93.1988 71.3255 93.5681 71.2667 93.5681 71.2079C93.5681 71.149 93.4204 70.4431 93.2431 69.6342C93.0659 68.8252 92.8886 68.1046 92.8443 68.0457C92.7853 67.9869 92.5932 68.5752 92.4012 69.3694C92.224 70.1636 92.032 70.9137 92.0024 71.0608ZM106.418 65.7366H109.372V74.7083H106.418V65.7366ZM110.554 65.7366H113.36V72.6492H114.985C116.565 72.6492 116.61 72.6492 116.61 72.9728C116.61 73.1493 116.551 73.6199 116.388 74.7083H110.554V65.7366ZM117.2 65.7366H120.155V74.7083H117.2V65.7366ZM123.123 65.7219L127.466 65.8102L128.647 69.8842C129.297 72.1344 129.859 73.9729 129.903 73.9729C129.932 73.9729 130.686 72.1344 131.572 69.8842C132.443 67.6486 133.182 65.7808 133.197 65.7661C133.211 65.7514 133.802 65.7514 135.781 65.8102L132.34 74.7083L126.727 74.6347L126.506 72.9434H124.142L123.773 74.7083H122.178C120.982 74.7083 120.612 74.6641 120.657 74.5171C120.701 74.4141 121.159 72.7522 121.705 70.8108C122.237 68.8694 122.769 66.928 122.902 66.5014L123.123 65.7219ZM124.497 71.0608C124.438 71.2814 124.541 71.3108 125.25 71.3108C125.693 71.3108 126.063 71.2667 126.063 71.2079C126.063 71.149 125.915 70.4284 125.738 69.6194C125.56 68.8105 125.383 68.1046 125.324 68.0457C125.28 67.9869 125.088 68.5752 124.896 69.3694C124.719 70.1489 124.527 70.9137 124.497 71.0608ZM143.196 65.7219H145.515C147.184 65.7219 148.055 65.7808 148.587 65.9426C148.986 66.0749 149.533 66.3397 149.798 66.5309C150.064 66.7368 150.374 67.1044 150.507 67.3398C150.626 67.5898 150.729 68.1487 150.729 68.5899C150.729 69.0458 150.655 69.5459 150.552 69.7371C150.463 69.9136 150.182 70.2813 149.931 70.546C149.68 70.8108 149.119 71.1637 148.691 71.3255C148.233 71.4873 147.553 71.605 146.15 71.605V74.6936H143.196V65.7219ZM146.135 69.9136C147.155 69.7665 147.553 69.59 147.745 69.3841C147.923 69.1929 148.07 68.8694 148.07 68.6635C148.07 68.4723 147.952 68.1781 147.804 68.031C147.671 67.8987 147.243 67.7369 146.874 67.6928L146.194 67.6045L146.135 69.9136Z" fill="#4E9426"/>
<path fill-rule="evenodd" clip-rule="evenodd" d="M55.254 26.0261C55.638 26.0261 56.1845 26.1585 56.5686 26.3644C56.9378 26.5409 57.2332 26.7321 57.2332 26.8056C57.2332 26.8645 56.1845 27.6587 54.9143 28.5558C53.6293 29.4677 52.1818 30.5561 51.6944 30.9679C51.207 31.3797 50.4537 32.1739 50.0401 32.7328C49.6118 33.2917 49.0357 34.1741 48.7551 34.7036C48.4745 35.2331 48.0461 36.292 47.8098 37.0568C47.5587 37.8216 47.2485 38.8217 47.1156 39.2629C46.9974 39.7042 46.4953 41.4838 46.0078 43.2046C45.5204 44.9106 45.1216 46.4402 45.1216 46.5726C45.1216 46.7932 45.3136 46.852 46.1851 46.955C46.8202 47.0138 47.5439 47.205 47.928 47.3962C48.3858 47.6315 48.7403 47.9698 49.0357 48.4552C49.4493 49.1023 49.4788 49.2788 49.4788 50.4995C49.4788 51.7055 49.4345 51.882 49.1096 52.3233C48.9028 52.588 48.4154 52.9704 48.0018 53.1763C47.603 53.3675 46.702 53.6469 46.0078 53.7646C45.3136 53.897 44.5604 54.0882 44.324 54.1764C44.0877 54.2647 43.8366 54.5 43.7628 54.7059C43.6889 54.9118 43.4969 55.706 43.3492 56.4708C43.1867 57.2356 42.8618 58.5593 42.6107 59.4123C42.3744 60.2653 41.9165 61.6184 41.6063 62.4274C41.2814 63.2363 40.7939 64.354 40.4985 64.9276C40.2179 65.5012 39.5828 66.5602 39.0954 67.2809C38.6079 68.0015 37.8104 69.0311 37.3229 69.5605C36.8503 70.09 35.8607 70.943 35.1369 71.4725C34.4132 72.002 33.4531 72.6638 33.01 72.9286C32.5669 73.208 31.8432 73.6198 31.4296 73.8551C30.6911 74.2375 30.6172 74.2522 30.1741 74.061C29.9083 73.9434 29.4947 73.6786 29.2436 73.4875C29.0073 73.2815 28.8448 73.0609 28.8891 73.0021C28.9334 72.9286 29.672 72.4873 30.5139 72.002C31.3558 71.5313 32.5226 70.8254 33.0839 70.443C33.6451 70.0606 34.3837 69.5311 34.6938 69.2517C35.004 68.9722 35.6834 68.2221 36.1856 67.575C36.6878 66.9279 37.4559 65.7954 37.899 65.0747C38.3421 64.354 39.0363 62.9568 39.4499 61.9861C39.8634 61.0154 40.4542 59.3682 40.7496 58.3092C41.045 57.2503 41.37 55.8678 41.6654 54.044L39.9964 53.9999C39.0806 53.9852 38.3273 53.9558 38.3273 53.9264C38.3273 53.9117 38.4602 53.0439 38.6227 51.985C38.7852 50.926 39.0215 49.5435 39.1397 48.8964C39.3021 47.9992 39.4499 47.6462 39.7305 47.3815C40.0554 47.1021 40.2622 47.0579 41.3257 47.0579C42.138 47.0727 42.5959 47.0138 42.7141 46.8815C42.8027 46.7785 43.3197 45.1018 43.8366 43.1604C44.3683 41.219 45.0035 38.8364 45.2546 37.8657C45.5204 36.895 45.9044 35.7037 46.126 35.2184C46.3328 34.733 46.7168 33.9976 46.9531 33.6005C47.2042 33.2034 47.6621 32.4975 47.9871 32.0562C48.312 31.615 49.1096 30.7178 49.7595 30.056C50.4241 29.4089 51.7092 28.3352 52.6249 27.6734C53.5554 27.0115 54.3678 26.3791 54.4564 26.2467C54.545 26.0997 54.8404 26.0261 55.254 26.0261ZM61.8711 29.703C62.1369 29.703 62.6982 29.9236 63.2152 30.2325C63.7026 30.5119 64.5002 31.0414 64.9876 31.3944C65.475 31.7327 66.4055 32.5122 67.0554 33.1152C67.7053 33.7182 68.7097 34.8065 69.2857 35.5272C69.8618 36.2479 70.6446 37.3068 71.0139 37.8657C71.3831 38.4246 71.9739 39.4835 72.3432 40.2189C72.6977 40.9543 73.1851 42.0427 73.4066 42.6457C73.643 43.2487 73.9236 44.087 74.027 44.4841C74.1451 44.8959 74.3372 45.6166 74.4553 46.102C74.5883 46.5873 74.7803 47.5433 74.8984 48.2346C75.0166 48.9258 75.1495 50.4848 75.2086 51.6908C75.2529 53.0586 75.2234 54.4853 75.12 55.4413C75.0166 56.2943 74.8098 57.5886 74.6473 58.3092C74.4849 59.0299 74.1156 60.3242 73.835 61.1772C73.5543 62.0303 72.9931 63.3834 72.5943 64.1923C72.2102 65.0012 71.4127 66.3543 70.8514 67.2073C70.2901 68.0604 69.3005 69.3546 68.6506 70.0753C68.0155 70.796 66.893 71.9137 66.1544 72.5609C65.4307 73.1933 64.1162 74.1934 63.2152 74.7964C62.3142 75.3847 60.8224 76.2378 59.8919 76.679C58.9613 77.1202 57.4991 77.7232 56.6424 78.0027C55.7857 78.2674 54.4564 78.6351 53.6884 78.7969C52.9203 78.9587 51.6353 79.1646 50.8525 79.2528C50.0549 79.3411 48.7108 79.4146 47.8541 79.4146C46.9974 79.4146 45.6534 79.3411 44.8705 79.2528C44.0729 79.1646 42.8175 78.9734 42.0937 78.8116C41.37 78.6645 40.085 78.3115 39.2431 78.0468C38.4159 77.7968 37.7513 77.5173 37.7808 77.4291C37.8104 77.3408 38.5636 76.9143 39.4499 76.4731C40.3361 76.0319 41.5325 75.3406 42.0937 74.9435C42.6698 74.5317 43.7332 73.6051 44.4717 72.8844C45.2398 72.1049 46.2146 70.9283 46.7759 70.0753C47.3224 69.2664 48.0166 68.0457 48.3415 67.3544C48.6665 66.6631 49.1244 65.5454 49.3755 64.8541C49.6265 64.1628 49.922 63.2363 50.0549 62.795C50.173 62.3538 50.4094 61.1478 50.5866 60.1183C50.7491 59.074 50.9263 57.4268 50.9706 56.4414C51.0297 55.3089 51.1479 54.5147 51.266 54.3088C51.4728 53.9705 51.5024 53.9705 54.9881 53.9705C57.248 53.9705 58.6659 53.9117 59.0057 53.8087C59.2863 53.7058 59.7294 53.4852 59.9657 53.3087C60.2168 53.1322 60.5565 52.6909 60.7338 52.338C60.9258 51.985 61.1473 51.2643 61.236 50.7348C61.3689 50.0289 61.3689 49.5877 61.236 49.0435C61.1326 48.6022 60.8962 48.1169 60.6304 47.8375C60.3793 47.5727 59.8771 47.205 59.4931 47.0285C58.858 46.7344 58.4592 46.6903 52.876 46.5432L52.8908 44.7783C52.9055 43.5723 53.0089 42.5427 53.2305 41.5426C53.4077 40.7337 53.777 39.4394 54.0724 38.6746C54.353 37.9098 54.8109 36.8803 55.0768 36.395C55.3574 35.9096 55.9778 34.983 56.4652 34.3359C56.9378 33.6888 57.824 32.6887 58.4296 32.1151C59.0352 31.5415 59.9509 30.762 60.4679 30.3943C61.103 29.9236 61.5609 29.703 61.8711 29.703ZM95.1189 36.1008L95.1927 41.6161H85.7398V46.6167H94.4542V51.4702H85.7398V60.8831H77.9116L77.882 48.5581C77.8672 41.7779 77.9116 36.1743 77.9854 36.1302C78.0593 36.0714 81.9438 36.042 95.1189 36.1008ZM112.622 36.0273L112.902 37.0127C113.065 37.5716 114.63 42.9692 116.388 49.0435C118.146 55.1177 119.637 60.2506 119.859 60.8831H110.923L110.495 58.7211C110.258 57.515 110.037 56.4561 110.022 56.3531C109.978 56.2208 109.224 56.1913 103.538 56.2502L102.504 60.8831H98.2649C94.2918 60.8831 94.0111 60.8684 94.085 60.633C94.1145 60.486 95.6506 54.9412 97.4821 48.3081C99.3284 41.675 100.865 36.2038 100.894 36.1302C100.938 36.0714 103.597 36.0273 112.622 36.0273ZM106.714 41.5426C106.714 41.5867 106.64 41.8368 106.566 42.0868C106.477 42.3515 106.374 42.8075 106.33 43.0869C106.285 43.3663 106.226 43.6311 106.197 43.6752C106.167 43.7193 106.108 43.9841 106.049 44.2635C106.005 44.543 105.827 45.3372 105.665 46.0284C105.488 46.7197 105.325 47.4403 105.296 47.6463C105.251 47.8522 105.192 48.1169 105.163 48.2346C105.118 48.3522 105.045 48.6464 105 48.8964C104.956 49.1464 104.808 49.8524 104.675 50.4701L104.424 51.6026C108.9 51.6173 109.077 51.6026 109.003 51.3526C108.973 51.2202 108.84 50.6319 108.722 50.073C108.604 49.5141 108.471 48.8817 108.442 48.6758C108.397 48.4699 108.294 48.0139 108.205 47.6463C108.131 47.2786 108.028 46.7932 107.984 46.5432C107.939 46.2932 107.866 45.999 107.821 45.8813C107.792 45.7637 107.733 45.4989 107.688 45.293C107.659 45.0871 107.555 44.6312 107.467 44.2635C107.393 43.8958 107.29 43.4105 107.23 43.1604C107.186 42.9104 107.068 42.3515 106.95 41.9103C106.832 41.4691 106.743 41.1896 106.728 41.2779C106.714 41.3808 106.714 41.4985 106.714 41.5426ZM129.017 36.0273V60.8831H120.745L120.716 48.5581C120.701 41.7779 120.745 36.1743 120.819 36.1302C120.893 36.0714 122.754 36.0273 129.017 36.0273ZM131.971 36.0273H136.889C139.577 36.0273 142.531 36.1008 143.418 36.1891C144.304 36.2773 145.677 36.5126 146.445 36.7038C147.214 36.9097 148.336 37.2921 148.927 37.5716C149.592 37.8951 150.315 38.3952 150.862 38.9247C151.423 39.4835 151.896 40.116 152.191 40.7337C152.442 41.2632 152.723 42.175 152.811 42.7928C152.93 43.6164 152.93 44.2047 152.811 45.146C152.693 46.0137 152.487 46.7344 152.117 47.4992C151.733 48.3081 151.32 48.867 150.611 49.5582C149.961 50.1907 149.237 50.7054 148.513 51.0584C147.908 51.3673 146.874 51.7497 146.224 51.9262C145.367 52.1468 144.451 52.2497 142.901 52.3085C141.719 52.338 140.611 52.3968 140.094 52.4997V60.8831H131.971V36.0273ZM140.094 47.4256C142.517 47.2786 143.359 47.1462 143.713 46.9991C144.038 46.8668 144.466 46.602 144.658 46.4255C144.85 46.249 145.131 45.8372 145.279 45.5137C145.426 45.1901 145.559 44.6312 145.559 44.2635C145.559 43.8958 145.441 43.3369 145.293 43.0134C145.146 42.6898 144.791 42.2633 144.511 42.0574C144.23 41.8662 143.743 41.6309 143.418 41.5279C143.093 41.4397 142.221 41.3514 141.468 41.3367L140.109 41.3073L140.094 47.4256Z" fill="#135C0E"/>
<path opacity="0.04" d="M53.4521 29.5853C52.5659 30.2471 51.3843 31.2472 50.823 31.8208C50.2618 32.3944 49.8777 32.8798 49.9811 32.8945C50.0697 32.9239 50.4685 32.7474 50.8821 32.4974C51.2809 32.2473 52.0046 31.7473 52.4625 31.3796C52.9352 31.0119 53.5998 30.4824 53.9395 30.203C54.294 29.9235 54.7076 29.4382 54.8701 29.1146C55.0325 28.791 55.1507 28.4969 55.1212 28.4675C55.0916 28.4234 54.3383 28.9381 53.4521 29.5853ZM85.7694 44.0722L85.7399 46.6166L94.5282 46.5431L85.8876 46.4695L85.799 41.5425L85.7694 44.0722ZM54.1316 46.7049C54.2497 46.749 54.486 46.9549 54.6485 47.1608C54.8996 47.4697 55.1359 47.5432 56.2732 47.6462C57.0118 47.7197 58.0752 47.9109 58.6365 48.0727C59.2125 48.2345 60.0101 48.4551 60.4237 48.558C61.0883 48.7198 61.1622 48.7198 61.1031 48.5139C61.0588 48.3962 60.8816 48.1168 60.7191 47.8815C60.5566 47.6609 60.0397 47.2932 59.5965 47.0873C58.8285 46.7049 58.6512 46.6902 56.3471 46.646C55.003 46.6313 54.0134 46.6607 54.1316 46.7049ZM85.8137 56.1618C85.8137 58.7945 85.8285 59.8534 85.858 58.515C85.8728 57.1914 85.8728 55.0441 85.858 53.7351C85.8285 52.4408 85.8137 53.5439 85.8137 56.1618ZM47.4849 53.3821C47.1157 53.5292 46.3624 53.7204 45.7864 53.8233C45.2251 53.9116 44.5604 54.0734 44.3241 54.1616C44.0878 54.2499 43.8367 54.4999 43.7628 54.6911C43.689 54.897 43.5856 55.2353 43.5413 55.4265C43.4674 55.7353 43.4822 55.7794 43.6595 55.6324C43.7776 55.5294 44.2355 55.3676 44.6786 55.2794C45.1217 55.1764 45.8898 54.9264 46.3772 54.7058C46.968 54.4411 47.4259 54.1028 47.7508 53.691C48.0167 53.3527 48.2087 53.088 48.1939 53.1027C48.1644 53.1027 47.8542 53.235 47.4849 53.3821ZM40.0998 54.5146C40.2918 54.8234 40.6168 55.2353 40.8236 55.4265C41.0451 55.6324 41.2076 55.8971 41.1781 56.0148C41.119 56.2207 41.1337 56.2207 41.2667 56.0148C41.3405 55.8971 41.4587 55.3823 41.5325 54.8823L41.6507 53.9704L39.7601 53.9557L40.0998 54.5146ZM68.3848 70.3988C67.8236 71.0165 66.7897 72.0166 66.1102 72.6196C65.416 73.2226 64.1162 74.1933 63.23 74.7963C62.329 75.3846 60.8372 76.2377 59.9067 76.6789C58.9614 77.1201 57.4992 77.7231 56.6573 78.0026C55.8006 78.2673 54.4713 78.635 53.7032 78.7968C52.9204 78.9586 51.6502 79.1645 50.8526 79.2527C50.055 79.341 48.7109 79.4145 47.869 79.4145C47.0123 79.4145 45.6682 79.341 44.8706 79.2527C44.073 79.1792 42.7289 78.9439 41.887 78.7527C41.0304 78.5615 40.1589 78.3556 39.9669 78.282C39.6419 78.1938 39.6124 78.2085 39.7749 78.3997C39.8783 78.5026 40.1294 78.8262 40.3214 79.0762C40.602 79.4292 40.9417 79.6351 41.6212 79.841C42.1234 79.9881 43.172 80.194 43.9549 80.2822C44.7229 80.3705 46.0818 80.4734 46.9828 80.5029C47.869 80.5323 49.3312 80.5029 50.2322 80.4293C51.1184 80.3558 52.3148 80.2234 52.8909 80.1352C53.4521 80.0322 54.486 79.7822 55.1802 79.5616C55.8597 79.341 57.1299 78.885 57.9866 78.5468C58.8285 78.2085 60.143 77.6055 60.8963 77.1937C61.6496 76.7966 62.6097 76.2377 63.038 75.9435C63.4663 75.6494 64.4412 74.8993 65.2092 74.2816C65.9625 73.6638 67.0998 72.5608 67.7202 71.8254C68.3258 71.09 68.9904 70.2076 69.1677 69.8693C69.3449 69.5457 69.4631 69.2663 69.4483 69.2663C69.4188 69.2663 68.9461 69.781 68.3848 70.3988ZM36.9981 69.9428C36.7174 70.237 35.8903 70.9282 35.1666 71.4577C34.4281 72.0019 33.6009 72.5755 33.3203 72.752C33.0249 72.9138 32.4045 73.2962 31.9171 73.5756C31.0457 74.1051 31.0309 74.1198 31.4002 74.2816C31.6808 74.3992 31.8876 74.3845 32.2864 74.2374C32.567 74.1198 33.1578 73.7962 33.6157 73.5021C34.0588 73.2226 34.9893 72.4578 35.6835 71.796C36.363 71.1488 37.0719 70.3399 37.2492 70.0164C37.4264 69.6781 37.5593 69.4134 37.5446 69.4134C37.5298 69.4134 37.2787 69.6487 36.9981 69.9428Z" fill="#3E5C0E"/>
</svg>
