<svg width="183" height="110" viewBox="0 0 183 110" fill="none" xmlns="http://www.w3.org/2000/svg">
<rect width="183" height="110" fill="#000F26"/>
<g clip-path="url(#clip0_423_2795)">
<path d="M105.156 12.1049C104.771 12.154 104.064 12.28 103.581 12.3781C103.097 12.4761 102.355 12.6512 101.935 12.7772C101.515 12.8963 100.751 13.1554 100.254 13.3515C99.7568 13.5476 98.9654 13.8978 98.5032 14.1359C98.041 14.367 97.3967 14.7312 97.0675 14.9413C96.7384 15.1514 96.1921 15.5295 95.8419 15.7886C95.4918 16.0408 94.9105 16.524 94.5463 16.8461C94.1822 17.1753 93.6779 17.6725 93.4258 17.9597C93.1737 18.2468 92.8375 18.639 92.6835 18.8281C92.5224 19.0242 92.2213 19.4303 92.0042 19.7385C91.7871 20.0466 91.612 20.3408 91.605 20.3898C91.605 20.4318 91.626 20.4738 91.654 20.4738C91.689 20.4738 91.9761 20.2287 92.3053 19.9276C92.6344 19.6334 93.1107 19.2272 93.3558 19.0312C93.6079 18.8281 94.1612 18.4429 94.5814 18.1698C95.0015 17.8896 95.7649 17.4624 96.2621 17.2173C96.7594 16.9792 97.4877 16.6571 97.8729 16.517C98.2581 16.3769 99.0004 16.1528 99.5186 16.0198C100.037 15.8937 100.793 15.7396 101.199 15.6836C101.606 15.6206 102.299 15.5505 102.74 15.5295C103.328 15.4945 103.784 15.5155 104.421 15.5996C104.904 15.6696 105.611 15.7816 105.997 15.8587C106.382 15.9357 107.047 16.0898 107.467 16.2018C107.888 16.3139 108.616 16.538 109.078 16.6991C109.54 16.8601 110.248 17.1403 110.654 17.3154C111.06 17.4974 111.669 17.7986 112.019 17.9877C112.37 18.1768 113.014 18.5689 113.455 18.8701C113.896 19.1642 114.625 19.7175 115.059 20.0957C115.5 20.4808 116.123 21.0901 116.446 21.4543C116.768 21.8185 117.223 22.3927 117.468 22.7289C117.706 23.065 118.084 23.6673 118.301 24.0595C118.525 24.4587 118.848 25.124 119.016 25.5512C119.191 25.9784 119.408 26.6087 119.513 26.9518C119.611 27.295 119.751 27.8833 119.828 28.2474C119.898 28.6116 119.996 29.2209 120.031 29.5991C120.073 29.9702 120.108 30.7756 120.108 31.3849C120.108 31.9872 120.059 32.8766 120.003 33.3598C119.947 33.843 119.835 34.5784 119.751 35.0056C119.674 35.4328 119.499 36.1541 119.359 36.6163C119.226 37.0786 118.96 37.8699 118.757 38.3671C118.56 38.8644 118.147 39.7818 117.832 40.3981C117.517 41.0144 117.006 41.9318 116.698 42.429C116.382 42.9263 115.836 43.7527 115.486 44.2499C115.129 44.7471 114.534 45.5525 114.155 46.0357C113.784 46.5189 113.105 47.3523 112.657 47.8916C112.202 48.4308 111.34 49.4253 110.738 50.0976C110.136 50.7699 108.49 52.4787 107.082 53.8864C105.675 55.294 104.071 56.8838 103.511 57.423C102.95 57.9553 101.781 59.0268 100.919 59.7971C100.051 60.5675 98.6783 61.765 97.8589 62.4584C97.0395 63.1517 96.08 63.957 95.7229 64.2512C95.3657 64.5383 94.3432 65.3647 93.4608 66.079C92.5784 66.7864 91.1428 67.9139 90.2743 68.5792C89.4059 69.2445 88.6636 69.8188 88.6286 69.8468C88.5866 69.8818 88.5866 69.9168 88.6426 69.9448C88.6916 69.9658 89.3429 69.6017 90.0783 69.1395C90.8206 68.6702 92.0252 67.8859 92.7605 67.3886C93.4958 66.8914 94.5884 66.1351 95.1976 65.7009C95.8069 65.2667 97.1095 64.3072 98.104 63.5719C99.0914 62.8295 100.59 61.695 101.431 61.0507C102.264 60.3994 103.097 59.7551 103.279 59.622C103.461 59.489 104.239 58.8587 105.009 58.2284C105.787 57.5981 107.047 56.5336 107.818 55.8753C108.588 55.217 109.708 54.2295 110.304 53.6903C110.899 53.151 111.928 52.1986 112.58 51.5753C113.231 50.945 114.225 49.9575 114.779 49.3763C115.339 48.788 116.074 47.9826 116.425 47.5764C116.768 47.1702 117.405 46.3999 117.832 45.8606C118.259 45.3214 118.932 44.439 119.317 43.8997C119.702 43.3605 120.171 42.6812 120.353 42.394C120.542 42.1069 120.858 41.6027 121.054 41.2735C121.25 40.9443 121.621 40.3 121.873 39.8378C122.125 39.3756 122.552 38.5072 122.825 37.9119C123.092 37.3167 123.463 36.3992 123.638 35.881C123.82 35.3628 124.058 34.5924 124.17 34.1652C124.289 33.738 124.408 33.2198 124.45 33.0097C124.492 32.7996 124.569 32.3584 124.625 32.0292C124.681 31.7 124.765 30.9297 124.807 30.3134C124.877 29.438 124.87 28.9478 124.807 28.0724C124.758 27.4561 124.66 26.6087 124.583 26.1815C124.506 25.7543 124.366 25.11 124.268 24.7458C124.17 24.3816 123.995 23.7934 123.876 23.4502C123.757 23.1071 123.491 22.4277 123.288 21.9445C123.078 21.4613 122.713 20.7189 122.475 20.2987C122.244 19.8715 121.866 19.2623 121.642 18.9331C121.418 18.604 120.991 18.0367 120.682 17.6725C120.381 17.3084 119.849 16.7411 119.506 16.4189C119.163 16.0968 118.568 15.5996 118.182 15.3124C117.797 15.0253 117.181 14.6121 116.817 14.395C116.453 14.1779 115.801 13.8417 115.381 13.6386C114.961 13.4356 114.232 13.1414 113.77 12.9873C113.308 12.8263 112.552 12.6022 112.089 12.4901C111.627 12.3781 110.92 12.231 110.514 12.168C109.982 12.0839 109.246 12.0419 107.818 12.0279C106.473 12.0209 105.639 12.0419 105.156 12.1049Z" fill="#67CAF5"/>
<path fill-rule="evenodd" clip-rule="evenodd" d="M82.7808 24.4028C83.187 24.3958 83.8173 24.4448 84.1814 24.5078C84.5456 24.5708 85.0848 24.6969 85.372 24.7809C85.6591 24.872 86.5135 25.1661 87.2629 25.4463C88.0122 25.7264 88.9927 26.0485 89.4339 26.1606C90.0712 26.3287 90.4493 26.3777 91.2197 26.4057C91.9831 26.4407 92.3542 26.4197 92.9005 26.3217C93.2857 26.2586 93.965 26.0906 94.4062 25.9575C94.8474 25.8244 95.7648 25.5303 96.4371 25.3062C97.1094 25.0751 97.9919 24.809 98.398 24.7109C98.8042 24.6129 99.4345 24.5078 99.7987 24.4728C100.163 24.4448 100.702 24.4378 100.989 24.4658C101.276 24.5008 101.795 24.5919 102.145 24.6689C102.523 24.7599 103.083 24.97 103.545 25.1941C104.057 25.4463 104.491 25.7264 104.841 26.0205C105.128 26.2656 105.534 26.6858 105.737 26.952C105.934 27.2251 106.242 27.7083 106.41 28.0375C106.585 28.3666 106.802 28.8849 106.907 29.193C107.012 29.5011 107.159 30.0544 107.243 30.4186C107.376 30.9998 107.39 31.315 107.397 32.8347C107.397 34.3474 107.376 34.6976 107.243 35.4259C107.159 35.8881 106.977 36.6585 106.844 37.1417C106.718 37.6249 106.487 38.3322 106.347 38.7174C106.2 39.1026 105.702 40.2651 105.24 41.3086C104.785 42.3521 104.267 43.6127 104.106 44.1099C103.938 44.6072 103.749 45.3215 103.693 45.6857C103.629 46.0498 103.552 46.7292 103.51 47.1914C103.475 47.6536 103.44 49.5935 103.44 51.4984C103.44 53.4033 103.412 55.5603 103.307 57.6262L102.866 58.0324C102.621 58.2635 101.732 59.0619 100.884 59.8252C100.037 60.5816 98.6712 61.7792 97.8518 62.4795C97.0394 63.1798 96.3251 63.7541 96.2761 63.7541C96.213 63.7541 96.206 63.495 96.248 62.5495C96.2761 61.8842 96.3531 60.5676 96.4161 59.6222C96.4721 58.6767 96.5212 57.2901 96.5212 56.5407C96.5212 55.7143 96.4651 54.6078 96.3811 53.7394C96.3041 52.948 96.185 52.1007 96.122 51.8485C96.059 51.5964 95.9189 51.2042 95.8068 50.9731C95.7018 50.742 95.4567 50.3498 95.2676 50.1047C95.0855 49.8526 94.7563 49.5094 94.5462 49.3414C94.3362 49.1733 93.958 48.9352 93.7059 48.8091C93.4537 48.6761 93.0335 48.501 92.7604 48.4169C92.4453 48.3189 92.0041 48.2489 91.5348 48.2278C90.9256 48.1928 90.6945 48.2138 90.2042 48.3399C89.8751 48.4239 89.3708 48.606 89.0907 48.7531C88.7546 48.9142 88.3764 49.1943 88.0472 49.5024C87.7601 49.7756 87.4239 50.1327 87.3119 50.3078C87.1928 50.4829 87.0107 50.798 86.9057 51.0081C86.8077 51.2182 86.6676 51.5684 86.6116 51.7785C86.5485 51.9886 86.4505 52.6889 86.3875 53.3402C86.3314 53.9845 86.2824 55.056 86.2824 55.7213C86.2824 56.3796 86.3314 57.5562 86.3875 58.3265C86.4435 59.0969 86.5065 59.8393 86.5275 59.9723C86.5485 60.1054 86.6116 60.8337 86.6676 61.5831C86.7236 62.3324 86.7726 63.3619 86.7726 63.8591C86.7726 64.3564 86.7236 65.1617 86.6676 65.645C86.6116 66.1282 86.5065 66.7235 86.4295 66.9756C86.3524 67.2277 86.1914 67.5638 86.0793 67.7319C85.9603 67.893 85.7291 68.1241 85.5681 68.2432C85.4 68.3552 85.1129 68.5023 84.9168 68.5583C84.7277 68.6143 84.4546 68.6564 84.3215 68.6564C84.1884 68.6564 83.9223 68.6073 83.7262 68.5373C83.4671 68.4533 83.25 68.2992 82.9208 67.963C82.6127 67.6549 82.3676 67.3187 82.1715 66.9406C82.0174 66.6324 81.7093 65.9251 81.4992 65.3648C81.2821 64.8046 80.9529 63.8311 80.7568 63.1938C80.5677 62.5565 80.3016 61.52 80.1616 60.8827C80.0285 60.2454 79.8674 59.398 79.8114 58.9919C79.7484 58.5857 79.6713 57.9064 79.6293 57.4862C79.5943 57.066 79.5593 56.1205 79.5663 55.3852C79.5663 54.6498 79.5943 53.3612 79.6223 52.5138C79.6503 51.6665 79.6503 50.2798 79.6223 49.4324C79.5873 48.585 79.5173 47.5135 79.4542 47.0513C79.3912 46.5891 79.2791 45.8958 79.1951 45.5106C79.1181 45.1254 78.929 44.4181 78.7749 43.9349C78.6208 43.4516 78.1166 42.1 77.6544 40.9235C77.1922 39.7469 76.702 38.4723 76.5689 38.0871C76.4428 37.702 76.2397 37.0226 76.1277 36.5814C76.0156 36.1402 75.8475 35.3839 75.7635 34.9007C75.6234 34.1443 75.6024 33.7871 75.6024 32.2744C75.6024 30.6077 75.6164 30.4886 75.7985 29.7182C75.9036 29.277 76.0997 28.6607 76.2327 28.3526C76.3728 28.0445 76.5829 27.6173 76.709 27.4142C76.828 27.2041 77.1712 26.7769 77.4583 26.4687C77.7454 26.1676 78.2006 25.7684 78.4738 25.5933C78.7469 25.4112 79.2021 25.1661 79.4892 25.0471C79.7764 24.921 80.2806 24.7599 80.6098 24.6829C80.9389 24.5989 81.3941 24.5078 81.6252 24.4728C81.8563 24.4378 82.3746 24.4098 82.7808 24.4028ZM103.027 59.8322C103.048 59.8322 103.055 59.9163 103.041 60.0283C103.034 60.1334 102.957 60.6096 102.873 61.0928C102.796 61.5761 102.67 62.2344 102.593 62.5635C102.516 62.8927 102.376 63.4389 102.271 63.7891C102.173 64.1393 101.949 64.7836 101.781 65.2248C101.613 65.666 101.311 66.3313 101.122 66.6954C100.933 67.0596 100.632 67.5428 100.464 67.7669C100.289 67.984 100.002 68.2782 99.8127 68.4112C99.6306 68.5443 99.3435 68.6984 99.1684 68.7614C98.9933 68.8174 98.6782 68.8665 98.4681 68.8665C98.237 68.8665 97.9638 68.8104 97.7818 68.7264C97.6207 68.6494 97.3546 68.4533 97.1865 68.2922C97.0184 68.1241 96.8013 67.816 96.6963 67.6059C96.5912 67.3958 96.4581 66.9686 96.4091 66.6604C96.3531 66.3523 96.2971 65.834 96.262 64.9236L98.1179 63.551C99.1404 62.7946 100.653 61.6461 101.479 61.0018C102.306 60.3575 103.006 59.8322 103.027 59.8322ZM48.3247 85.9544C48.6679 85.9544 49.0041 86.0034 49.3052 86.0945C49.5573 86.1715 49.9075 86.3466 50.0966 86.4796C50.2787 86.6127 50.5238 86.8718 50.6498 87.0609C50.7689 87.243 50.916 87.5301 50.965 87.7052C51.014 87.8803 51.056 88.0904 51.056 88.1814C51.056 88.3285 51.035 88.3355 49.4803 88.3425L49.1651 88.0344C48.92 87.7963 48.78 87.7122 48.5348 87.6772C48.2897 87.6352 48.1637 87.6562 47.9746 87.7612C47.8415 87.8313 47.6594 88.0134 47.5754 88.1674C47.4633 88.3565 47.4143 88.5596 47.4143 88.8257C47.4073 89.1479 47.4493 89.2669 47.6384 89.5611C47.8065 89.8132 48.1497 90.1213 48.85 90.6466C49.3892 91.0528 50.0195 91.571 50.2506 91.8021C50.4888 92.0402 50.7829 92.4324 50.93 92.7125C51.07 92.9787 51.2381 93.4059 51.2941 93.658C51.3572 93.9101 51.4062 94.3023 51.4062 94.5334C51.4062 94.7645 51.3572 95.1567 51.2941 95.4088C51.2381 95.6609 51.07 96.0811 50.93 96.3542C50.7899 96.6204 50.5238 96.9915 50.3347 97.1736C50.1316 97.3837 49.8094 97.6008 49.4803 97.7549C48.9901 97.986 48.906 98 48.2687 98C47.6244 98 47.5614 97.986 47.0291 97.7269C46.7 97.5658 46.3638 97.3417 46.2238 97.1876C46.0837 97.0336 45.8876 96.7744 45.7896 96.5994C45.6845 96.4243 45.5515 96.0951 45.4884 95.864C45.4324 95.6329 45.3834 95.3598 45.3834 95.0586H47.0992L47.1832 95.3738C47.2322 95.5489 47.3793 95.801 47.4984 95.941C47.6244 96.0741 47.8415 96.2212 47.9746 96.2632C48.1076 96.3052 48.3318 96.3262 48.4648 96.3052C48.5979 96.2912 48.829 96.2072 48.969 96.1231C49.1651 96.0111 49.2842 95.857 49.4243 95.5699C49.5923 95.2057 49.6063 95.1077 49.5713 94.6034C49.5433 94.1902 49.4873 93.9451 49.3472 93.679C49.2492 93.4759 49.0251 93.1748 48.864 93.0137C48.6959 92.8456 48.1847 92.4464 47.7225 92.1173C47.2673 91.7951 46.735 91.3819 46.5529 91.2068C46.3638 91.0318 46.1257 90.7516 46.0137 90.5766C45.9086 90.4015 45.7686 90.1073 45.7125 89.9112C45.6565 89.7222 45.5865 89.393 45.5655 89.1969C45.5445 88.9938 45.5585 88.6156 45.6005 88.3565C45.6355 88.0904 45.7405 87.7262 45.8246 87.5301C45.9156 87.341 46.0767 87.0539 46.1888 86.9068C46.3078 86.7598 46.5389 86.5357 46.714 86.4236C46.8891 86.3046 47.2042 86.1505 47.4143 86.0875C47.6244 86.0174 48.0306 85.9614 48.3247 85.9544ZM82.3606 85.9824C83.0049 85.9964 83.327 86.0384 83.5862 86.1365C83.7752 86.2135 84.0344 86.3466 84.1464 86.4376C84.2585 86.5217 84.4616 86.7458 84.5876 86.9209C84.7137 87.1029 84.8818 87.4531 84.9728 87.7052C85.1269 88.1534 85.1269 88.2095 85.1269 92.0122C85.1269 95.5489 85.1199 95.899 85.0008 96.2492C84.9308 96.4593 84.7837 96.7604 84.6787 96.9145C84.5736 97.0686 84.3635 97.2927 84.2094 97.4047C84.0624 97.5238 83.7192 97.7059 83.4461 97.8109C82.9839 97.993 82.8998 98.007 82.0454 97.986C81.2821 97.965 81.065 97.93 80.7148 97.7899C80.4837 97.6989 80.1826 97.5238 80.0495 97.4047C79.9164 97.2787 79.7063 96.9775 79.5803 96.7324C79.4612 96.4873 79.3282 96.1091 79.2791 95.899C79.2231 95.6259 79.2021 94.4143 79.2441 87.8453H77.3182V97.8599H75.5674V87.8453H73.6065V86.0945H79.2791L79.2861 87.8103L79.4262 87.4601C79.5033 87.271 79.6713 86.9839 79.7974 86.8298C79.9235 86.6757 80.1826 86.4656 80.3717 86.3606C80.5607 86.2555 80.8899 86.1225 81.1 86.0665C81.3871 85.9824 81.7163 85.9614 82.3606 85.9824ZM81.163 88.1324L80.9949 88.3705L80.9529 95.5139C81.205 95.892 81.3871 96.0601 81.5202 96.1231C81.6673 96.2002 81.9264 96.2492 82.1855 96.2492C82.5076 96.2492 82.6617 96.2142 82.8438 96.0951C82.9769 96.0041 83.152 95.843 83.229 95.738C83.3761 95.5419 83.3761 95.4648 83.3971 92.0612L83.4111 88.5806C83.152 88.0764 83.0049 87.9153 82.8508 87.8313C82.6897 87.7472 82.4586 87.7052 82.1855 87.7052C81.9544 87.7122 81.6673 87.7542 81.5482 87.8033C81.4221 87.8593 81.2471 88.0064 81.163 88.1324ZM98.4681 85.9824C99.1544 86.0034 99.4275 86.0384 99.7287 86.1575C99.9388 86.2415 100.212 86.3956 100.338 86.5007C100.464 86.6057 100.674 86.8788 100.814 87.1099C100.947 87.341 101.108 87.7402 101.164 88.0064C101.248 88.3915 101.269 89.1199 101.269 91.9982C101.269 94.6805 101.241 95.6189 101.171 95.9691C101.122 96.2212 101.024 96.5293 100.961 96.6554C100.898 96.7744 100.73 97.0126 100.59 97.1666C100.443 97.3277 100.212 97.5098 100.079 97.5798C99.9458 97.6498 99.6586 97.7689 99.4485 97.8529C99.1404 97.972 98.9023 98 98.258 98C97.6067 98 97.3616 97.972 96.9974 97.8459C96.7453 97.7619 96.4161 97.5938 96.2691 97.4748C96.115 97.3627 95.8909 97.0756 95.7648 96.8445C95.6388 96.6134 95.4847 96.2352 95.4217 96.0041C95.3306 95.6469 95.3166 95.0096 95.3166 91.9632C95.3166 89.5447 95.3423 88.2141 95.3936 87.9713C95.4357 87.7683 95.5477 87.4601 95.6318 87.285C95.7158 87.1099 95.8699 86.8788 95.9609 86.7598C96.059 86.6407 96.2901 86.4656 96.4791 86.3606C96.6682 86.2555 96.9974 86.1225 97.2075 86.0665C97.4946 85.9824 97.8238 85.9614 98.4681 85.9824ZM97.2565 88.1534C97.1024 88.3705 97.1024 88.3985 97.0814 91.9072C97.0674 95.1707 97.0744 95.4648 97.1865 95.6889C97.2565 95.829 97.4316 95.9971 97.5927 96.0881C97.7958 96.2072 97.9848 96.2492 98.293 96.2492C98.6011 96.2422 98.7832 96.2002 98.9793 96.0881C99.1404 95.9971 99.3015 95.822 99.3785 95.6539C99.5116 95.3878 99.5186 95.1917 99.5186 91.9772C99.5186 88.5876 99.5186 88.5806 99.3645 88.2655C99.2594 88.0624 99.1194 87.9083 98.9583 87.8313C98.8042 87.7542 98.5521 87.7052 98.293 87.7052C98.0479 87.7052 97.7748 87.7542 97.6417 87.8243C97.5156 87.8873 97.3405 88.0344 97.2565 88.1534ZM107.502 85.9754C108.063 85.9964 108.238 86.0314 108.616 86.2065C108.91 86.3396 109.176 86.5357 109.4 86.7808C109.589 86.9769 109.806 87.278 109.876 87.4461C109.953 87.6072 110.037 87.8733 110.128 88.3355H108.448L108.252 88.0904C108.133 87.9363 107.943 87.8033 107.726 87.7262C107.46 87.6352 107.348 87.6282 107.131 87.6912C106.991 87.7402 106.795 87.8663 106.697 87.9853C106.599 88.1044 106.494 88.3145 106.452 88.4616C106.417 88.6016 106.382 88.7907 106.382 88.8818C106.382 88.9658 106.431 89.1549 106.494 89.302C106.55 89.442 106.697 89.6661 106.823 89.7992C106.949 89.9253 107.411 90.3034 107.852 90.6396C108.294 90.9687 108.875 91.445 109.134 91.6971C109.4 91.9492 109.708 92.2924 109.82 92.4674C109.932 92.6425 110.107 93.0207 110.206 93.3078C110.36 93.742 110.395 93.9591 110.395 94.5334C110.395 95.1217 110.367 95.3178 110.213 95.759C110.107 96.0461 109.932 96.4243 109.82 96.5994C109.708 96.7744 109.449 97.0686 109.239 97.2647C109.036 97.4538 108.672 97.6989 108.427 97.8039C108.056 97.972 107.901 98 107.341 98C106.809 98 106.613 97.965 106.207 97.8109C105.871 97.6779 105.597 97.5028 105.331 97.2577C105.051 96.9985 104.876 96.7534 104.708 96.3823C104.568 96.0811 104.449 95.6959 104.386 95.0586H106.172V95.2547C106.172 95.3598 106.256 95.5769 106.361 95.745C106.48 95.92 106.669 96.1021 106.837 96.1792C106.991 96.2562 107.194 96.3192 107.292 96.3192C107.39 96.3192 107.579 96.2842 107.712 96.2492C107.845 96.2072 108.063 96.0741 108.189 95.9481C108.336 95.808 108.462 95.5839 108.532 95.3388C108.606 95.082 108.63 94.8252 108.602 94.5684C108.574 94.3583 108.504 94.0292 108.434 93.8331C108.364 93.63 108.175 93.3358 107.986 93.1327C107.81 92.9437 107.243 92.4814 106.732 92.1173C106.214 91.7531 105.646 91.3049 105.457 91.1228C105.275 90.9337 105.044 90.6326 104.946 90.4365C104.848 90.2474 104.722 89.9042 104.666 89.6871C104.61 89.463 104.561 89.1269 104.561 88.9308C104.561 88.7417 104.589 88.4055 104.631 88.1954C104.673 87.9853 104.778 87.6562 104.862 87.4601C104.953 87.271 105.149 86.9699 105.303 86.8018C105.45 86.6337 105.716 86.4166 105.892 86.3186C106.067 86.2135 106.347 86.0945 106.522 86.0454C106.704 85.9964 107.117 85.9614 107.502 85.9754ZM114.436 85.9824C114.989 86.0034 115.43 86.0525 115.626 86.1225C115.801 86.1785 116.095 86.3676 116.284 86.5287C116.508 86.7318 116.698 86.9909 116.859 87.32C116.992 87.6002 117.125 88.0204 117.167 88.3005C117.216 88.6156 117.237 90.0513 117.216 92.3274C117.195 95.3668 117.181 95.913 117.083 96.2142C117.02 96.4103 116.859 96.7254 116.733 96.9145C116.607 97.1106 116.361 97.3627 116.186 97.4818C116.011 97.5938 115.647 97.7619 115.381 97.8529C114.947 98 114.786 98.014 114.05 97.986C113.371 97.965 113.126 97.93 112.79 97.7899C112.559 97.6989 112.25 97.5098 112.103 97.3767C111.956 97.2366 111.739 96.9355 111.627 96.7044C111.515 96.4733 111.389 96.1301 111.354 95.934C111.305 95.7169 111.291 94.1412 111.298 91.7321C111.319 87.9503 111.319 87.8733 111.473 87.4951C111.557 87.285 111.753 86.9699 111.9 86.7948C112.054 86.6197 112.328 86.4026 112.517 86.3116C112.706 86.2135 113.014 86.0945 113.21 86.0454C113.434 85.9894 113.868 85.9684 114.436 85.9824ZM113.147 88.2655C113.007 88.5036 113 88.6296 112.979 91.6971C112.965 93.8191 112.979 95.0236 113.035 95.3038C113.077 95.5559 113.168 95.787 113.266 95.892C113.35 95.9831 113.525 96.1021 113.644 96.1511C113.77 96.2072 114.05 96.2492 114.26 96.2492C114.471 96.2492 114.73 96.2072 114.835 96.1511C114.947 96.0951 115.101 95.9761 115.185 95.885C115.262 95.801 115.367 95.5979 115.416 95.4438C115.472 95.2477 115.486 94.1902 115.472 91.8021C115.451 88.5106 115.451 88.4336 115.304 88.1954C115.22 88.0624 115.038 87.8943 114.898 87.8313C114.737 87.7472 114.485 87.7052 114.204 87.7052C113.861 87.7052 113.707 87.7402 113.525 87.8663C113.392 87.9503 113.224 88.1324 113.147 88.2655ZM137.63 85.9614C138.015 85.9544 138.303 85.9964 138.611 86.1015C138.856 86.1855 139.185 86.3396 139.346 86.4516C139.514 86.5637 139.724 86.7598 139.815 86.8858C139.906 87.0049 140.046 87.243 140.13 87.4111C140.207 87.5722 140.299 87.8453 140.383 88.3355L138.772 88.3425L138.457 88.0344C138.24 87.8173 138.057 87.7052 137.861 87.6702C137.651 87.6352 137.511 87.6492 137.301 87.7472C137.14 87.8243 136.965 87.9783 136.888 88.1254C136.811 88.2585 136.727 88.4966 136.699 88.6507C136.678 88.8047 136.685 89.0428 136.72 89.1759C136.755 89.309 136.881 89.5471 137.007 89.6941C137.133 89.8482 137.672 90.3034 138.212 90.7096C138.751 91.1158 139.367 91.62 139.577 91.8371C139.787 92.0472 140.081 92.4464 140.221 92.7125C140.369 92.9857 140.53 93.4269 140.586 93.693C140.649 93.9591 140.698 94.3583 140.698 94.5684C140.698 94.7785 140.649 95.1567 140.586 95.4088C140.53 95.6609 140.362 96.0811 140.221 96.3472C140.081 96.6134 139.801 96.9915 139.612 97.1806C139.388 97.4117 139.08 97.6218 138.751 97.7689C138.296 97.979 138.184 98 137.595 98C137.091 98 136.867 97.972 136.566 97.8459C136.356 97.7619 136.048 97.6078 135.879 97.4958C135.718 97.3907 135.466 97.1526 135.319 96.9705C135.172 96.7814 134.983 96.4523 134.899 96.2352C134.815 96.0111 134.724 95.6539 134.64 95.0586H135.529C136.377 95.0586 136.426 95.0656 136.426 95.1987C136.426 95.2757 136.482 95.4578 136.559 95.6049C136.629 95.745 136.783 95.9481 136.909 96.0601C137.028 96.1652 137.245 96.2702 137.385 96.2912C137.532 96.3192 137.742 96.3122 137.861 96.2912C137.98 96.2632 138.177 96.1792 138.296 96.1091C138.45 96.0181 138.59 95.829 138.716 95.5699C138.877 95.2127 138.898 95.1007 138.87 94.6384C138.842 94.2813 138.779 93.9871 138.653 93.728C138.555 93.5179 138.338 93.2028 138.17 93.0347C138.001 92.8666 137.434 92.4254 136.916 92.0472C136.398 91.6691 135.823 91.2068 135.634 91.0038C135.452 90.8077 135.228 90.4715 135.13 90.2614C135.032 90.0513 134.92 89.6661 134.878 89.407C134.815 89.0569 134.815 88.7907 134.871 88.4055C134.92 88.0764 135.039 87.6982 135.186 87.3901C135.333 87.0889 135.55 86.7948 135.732 86.6267C135.9 86.4796 136.167 86.2906 136.328 86.2135C136.482 86.1295 136.72 86.0454 136.853 86.0174C136.986 85.9894 137.336 85.9684 137.63 85.9614ZM144.69 85.9824C145.271 85.9964 145.67 86.0454 145.88 86.1225C146.055 86.1855 146.314 86.3256 146.461 86.4306C146.615 86.5357 146.833 86.7808 146.952 86.9699C147.078 87.166 147.246 87.5231 147.33 87.7752C147.491 88.2235 147.491 88.2655 147.491 92.0122C147.491 95.4858 147.477 95.829 147.358 96.1792C147.288 96.3893 147.197 96.6344 147.155 96.7254C147.106 96.8095 146.952 97.0126 146.805 97.1666C146.664 97.3277 146.433 97.5098 146.3 97.5798C146.167 97.6498 145.88 97.7689 145.67 97.8529C145.362 97.972 145.124 98 144.479 98C143.828 98 143.583 97.972 143.219 97.8459C142.967 97.7619 142.638 97.5938 142.491 97.4748C142.336 97.3627 142.112 97.0756 141.986 96.8445C141.86 96.6134 141.706 96.2352 141.643 96.0041C141.552 95.6399 141.538 95.0446 141.552 91.7671C141.573 88.3075 141.587 87.9153 141.699 87.6002C141.769 87.4111 141.944 87.0959 142.084 86.9068C142.231 86.7178 142.498 86.4796 142.694 86.3676C142.883 86.2626 143.219 86.1225 143.429 86.0595C143.716 85.9824 144.045 85.9614 144.69 85.9824ZM143.471 88.2375L143.289 88.5106C143.289 95.1357 143.303 95.4648 143.415 95.6889C143.478 95.829 143.653 95.9971 143.814 96.0881C144.017 96.2072 144.206 96.2492 144.514 96.2492C144.823 96.2422 145.005 96.2002 145.201 96.0881C145.362 95.9971 145.523 95.822 145.6 95.6539C145.733 95.3878 145.74 95.1917 145.74 91.9422C145.74 88.5106 145.74 88.5106 145.579 88.2305C145.488 88.0694 145.32 87.8943 145.18 87.8313C145.026 87.7542 144.774 87.7052 144.514 87.7052C144.227 87.7052 144.024 87.7472 143.877 87.8383C143.751 87.9083 143.576 88.0904 143.471 88.2375ZM35.5088 86.0945H37.2596V97.8599H35.5088V86.0945ZM66.9534 86.0945H68.7042V95.3038L68.8653 95.6119C68.9493 95.78 69.1104 95.9901 69.2295 96.0671C69.3835 96.1722 69.5726 96.2212 69.9298 96.2352C70.301 96.2492 70.4761 96.2282 70.6581 96.1301C70.7842 96.0601 70.9523 95.892 71.0223 95.759C71.1484 95.5279 71.1554 95.2968 71.1554 86.0945H72.8992L72.8712 96.0741L72.7031 96.4943C72.591 96.7674 72.409 97.0406 72.1778 97.2717C71.9467 97.5028 71.6736 97.6849 71.4005 97.7969C71.0223 97.951 70.8752 97.965 69.9648 97.965C69.0474 97.965 68.9073 97.951 68.5291 97.7969C68.298 97.6989 67.9899 97.5098 67.8428 97.3767C67.6888 97.2366 67.4647 96.9005 67.3316 96.6344C67.1985 96.3682 67.0585 95.9551 67.0234 95.7239C66.9814 95.4788 66.9534 93.3568 66.9534 90.7026V86.0945Z" fill="#0A357A"/>
<path d="M77.5986 21.8185C77.2344 21.8535 76.5481 21.9586 76.0719 22.0496C75.6027 22.1476 74.8813 22.3367 74.4681 22.4698C74.0479 22.6029 73.3826 22.855 72.9764 23.0371C72.5703 23.2121 71.989 23.5063 71.6808 23.6744C71.3727 23.8494 70.8685 24.1716 70.5603 24.3817C70.2522 24.5918 69.783 24.9489 69.5098 25.1731C69.2367 25.3902 68.6975 25.8944 68.3053 26.2936C67.9131 26.6928 67.4299 27.225 67.2268 27.4771C67.0307 27.7292 66.6875 28.1985 66.4634 28.5276C66.2463 28.8568 65.9242 29.389 65.7491 29.7182C65.574 30.0473 65.3079 30.6146 65.1678 30.9788C65.0207 31.3429 64.8106 31.9592 64.7056 32.3444C64.5935 32.7296 64.4675 33.2198 64.4325 33.4299C64.3905 33.64 64.3134 34.1932 64.2574 34.6555C64.2014 35.1177 64.1523 36.0561 64.1523 36.7424C64.1523 37.4988 64.1944 38.2902 64.2644 38.7734C64.3204 39.2006 64.4745 39.9709 64.6006 40.4682C64.7336 40.9654 64.9787 41.7428 65.1468 42.184C65.3219 42.6252 65.609 43.2835 65.7911 43.6406C65.9662 43.9908 66.3093 44.6071 66.5545 45.0063C66.7926 45.3985 67.2128 46.0217 67.4859 46.3859C67.752 46.7501 68.2633 47.3804 68.6134 47.7866C68.9636 48.1928 69.6569 48.9141 70.1471 49.3973C70.6444 49.8805 71.4147 50.5809 71.8559 50.952C72.2971 51.3162 73.0535 51.9115 73.5367 52.2687C74.0199 52.6258 74.7763 53.1651 75.2175 53.4592C75.6587 53.7533 76.5761 54.3276 77.2484 54.7338C77.9207 55.14 78.7191 55.6022 79.0203 55.7633L79.5595 56.0504L79.5525 54.3346C78.2849 53.4102 77.5356 52.8429 77.0734 52.4718C76.6111 52.1006 75.9038 51.5053 75.4976 51.1481C75.0914 50.791 74.4191 50.1607 74.0059 49.7545C73.5857 49.3483 72.9414 48.662 72.5633 48.2418C72.1851 47.8216 71.6318 47.1563 71.3307 46.7711C71.0295 46.3859 70.6023 45.8046 70.3852 45.4755C70.1681 45.1463 69.783 44.5371 69.5449 44.1099C69.2997 43.6897 68.9496 43.0103 68.7675 42.6042C68.5854 42.198 68.3263 41.5257 68.1932 41.0985C68.0602 40.6783 67.8921 40.111 67.8361 39.8379C67.773 39.5647 67.675 39.0185 67.619 38.6123C67.5629 38.2061 67.5139 37.5128 67.5139 37.0716C67.5139 36.6304 67.5629 35.9231 67.619 35.4959C67.675 35.0757 67.801 34.4244 67.8921 34.0602C67.9901 33.696 68.1512 33.1568 68.2492 32.8696C68.3543 32.5825 68.6484 31.9032 68.9146 31.3639C69.1737 30.8247 69.5449 30.1454 69.7269 29.8582C69.909 29.5711 70.2242 29.1159 70.4203 28.8428C70.6234 28.5766 70.9875 28.1214 71.2326 27.8343C71.4778 27.5542 71.961 27.0709 72.3111 26.7628C72.6613 26.4617 73.2076 26.0274 73.5367 25.8033C73.8659 25.5792 74.3841 25.2571 74.6922 25.082C75.0004 24.9139 75.5536 24.6478 75.9178 24.4867C76.282 24.3327 76.9123 24.1086 77.3185 23.9895C77.7247 23.8774 78.2149 23.7444 78.404 23.7024C78.6001 23.6674 78.9922 23.5903 79.2794 23.5413C79.6085 23.4853 80.3719 23.4573 81.3103 23.4573C82.5289 23.4643 82.9771 23.4923 83.6564 23.6183C84.1186 23.7024 84.875 23.8845 85.3372 24.0175C85.7994 24.1576 86.4437 24.3747 86.7729 24.5147C87.102 24.6478 87.6903 24.9279 88.0895 25.138C88.4817 25.3481 88.8178 25.4882 88.8388 25.4462C88.8598 25.4112 88.7898 25.3061 88.6848 25.2221C88.5867 25.131 88.2505 24.8789 87.9354 24.6478C87.6203 24.4237 87.067 24.0665 86.7028 23.8494C86.3387 23.6323 85.6874 23.3032 85.2672 23.1141C84.847 22.918 84.1256 22.6449 83.6774 22.4978C83.2222 22.3437 82.4659 22.1476 81.9966 22.0566C81.5204 21.9586 80.7711 21.8465 80.3299 21.8115C79.8887 21.7695 79.2444 21.7415 78.8942 21.7415C78.544 21.7485 77.9628 21.7835 77.5986 21.8185ZM86.4227 58.9428C86.4227 59.1038 86.4507 59.2719 86.4787 59.3139C86.5067 59.3489 87.032 59.5941 87.6483 59.8532C88.2646 60.1053 89.5952 60.6305 90.6106 61.0157C91.6191 61.4079 92.5015 61.7231 92.5716 61.7231C92.6766 61.7231 92.6766 61.716 92.5856 61.625C92.5295 61.569 91.9903 61.3099 91.395 61.0507C90.7997 60.7846 89.4551 60.1403 88.4116 59.6081C87.3681 59.0758 86.4927 58.6416 86.4717 58.6416C86.4437 58.6416 86.4227 58.7747 86.4227 58.9358V58.9428Z" fill="#C7EAFF"/>
<path fill-rule="evenodd" clip-rule="evenodd" d="M53.584 36.7915C53.619 36.7915 53.647 36.8125 53.647 36.8475C53.64 36.8755 53.535 37.0716 53.4019 37.2817C53.2759 37.4918 52.9747 38.0591 52.7436 38.5423C52.5125 39.0255 52.1764 39.8449 52.0083 40.3632C51.8332 40.8814 51.6161 41.7008 51.5181 42.184C51.42 42.6672 51.308 43.4236 51.2589 43.8648C51.2099 44.362 51.1889 45.1464 51.2169 45.9308C51.2449 46.6941 51.315 47.5345 51.406 48.0667C51.483 48.55 51.6161 49.1943 51.6931 49.5024C51.7702 49.8106 51.9593 50.4549 52.1203 50.9381C52.2744 51.4213 52.5755 52.2057 52.7856 52.6889C52.9957 53.1721 53.3879 53.9775 53.6681 54.4747C53.9412 54.972 54.4384 55.7983 54.7676 56.2956C55.1037 56.7928 55.622 57.5211 55.9231 57.9063C56.2242 58.2915 56.7635 58.9358 57.1137 59.342C57.4708 59.7482 58.2482 60.5536 58.8365 61.1278C59.4317 61.7091 60.2931 62.4935 60.7553 62.8786C61.2176 63.2638 61.9739 63.8661 62.4361 64.2163C62.8983 64.5664 63.7457 65.1687 64.327 65.5539C64.9013 65.9391 65.7697 66.4923 66.2529 66.7795C66.7361 67.0666 67.5065 67.5078 67.9687 67.7599C68.4309 68.012 69.1523 68.3902 69.5795 68.6073C69.9996 68.8174 70.8821 69.2236 71.5404 69.5177C72.1987 69.8049 73.1091 70.19 73.5713 70.3721C74.0335 70.5542 74.9019 70.8764 75.4972 71.0865C76.0925 71.2966 77.136 71.6327 77.8083 71.8428C78.4806 72.0459 79.6641 72.3751 80.4345 72.5641C81.2049 72.7602 82.4795 73.0474 83.2708 73.2014C84.0622 73.3555 85.3718 73.5796 86.1772 73.6917C86.9825 73.8107 88.1661 73.9508 88.8034 74.0138C89.4407 74.0698 90.4632 74.1539 91.0795 74.1889C91.6957 74.2239 93.0474 74.2589 94.0909 74.2589C95.1343 74.2589 96.5 74.2239 97.1373 74.1889C97.7746 74.1469 98.8601 74.0488 99.5534 73.9718C100.247 73.8948 101.227 73.7687 101.724 73.6917C102.222 73.6146 103.09 73.4536 103.65 73.3415C104.211 73.2225 105.17 73.0053 105.786 72.8443C106.403 72.6902 107.502 72.3681 108.237 72.1229C108.973 71.8778 110.058 71.4786 110.654 71.2265C111.249 70.9814 112.187 70.5472 112.734 70.2741C113.287 70.0009 114.134 69.5387 114.624 69.2446C115.122 68.9505 115.822 68.5023 116.186 68.2501C116.55 67.991 117.167 67.5358 117.552 67.2277C117.937 66.9195 118.658 66.2752 119.156 65.792C119.646 65.3088 120.304 64.6084 120.612 64.2443C120.92 63.8801 121.46 63.1518 121.803 62.6335C122.146 62.1153 122.629 61.2749 122.874 60.7777C123.119 60.2804 123.428 59.5661 123.568 59.2019C123.701 58.8378 123.89 58.2215 123.995 57.8363C124.093 57.4511 124.24 56.7718 124.317 56.3306C124.408 55.8334 124.478 55.042 124.499 54.2646C124.527 53.4873 124.506 52.6819 124.457 52.1637C124.408 51.7014 124.282 50.8681 124.17 50.3078C124.058 49.7475 123.855 48.9422 123.722 48.522C123.582 48.1018 123.47 47.7306 123.47 47.6956C123.47 47.6676 123.505 47.6606 123.54 47.6816C123.575 47.7026 123.771 48.0247 123.967 48.4029C124.156 48.7741 124.443 49.3624 124.604 49.7125C124.758 50.0627 125.031 50.721 125.199 51.1832C125.367 51.6454 125.62 52.4368 125.746 52.934C125.879 53.4312 126.047 54.2086 126.124 54.6498C126.201 55.091 126.299 55.9314 126.341 56.5057C126.383 57.0869 126.404 57.8713 126.376 58.2565C126.355 58.6417 126.299 59.258 126.264 59.6221C126.222 59.9863 126.11 60.6656 126.012 61.1278C125.921 61.59 125.697 62.3954 125.528 62.9137C125.353 63.4319 124.968 64.3633 124.66 64.9796C124.359 65.5959 123.862 66.4783 123.561 66.9405C123.252 67.4027 122.741 68.1101 122.412 68.5163C122.09 68.9224 121.432 69.6438 120.948 70.127C120.465 70.6102 119.709 71.2966 119.268 71.6607C118.826 72.0249 118.161 72.5291 117.797 72.7882C117.433 73.0474 116.802 73.4606 116.396 73.7127C115.99 73.9648 115.283 74.378 114.82 74.6301C114.358 74.8822 113.553 75.2884 113.035 75.5195C112.516 75.7576 111.697 76.1078 111.214 76.3039C110.731 76.5 109.785 76.8361 109.113 77.0602C108.441 77.2843 107.397 77.5925 106.802 77.7536C106.206 77.9076 105.289 78.1317 104.771 78.2438C104.253 78.3558 103.447 78.5169 102.985 78.5939C102.523 78.671 101.689 78.797 101.129 78.8741C100.569 78.9511 99.5954 79.0632 98.9581 79.1192C98.3208 79.1822 96.9692 79.2663 95.9467 79.3013C94.6511 79.3503 93.5166 79.3503 92.2 79.3013C91.1565 79.2593 89.7768 79.1822 89.1185 79.1262C88.4602 79.0702 87.4097 78.9581 86.7725 78.8741C86.1352 78.797 85.0637 78.636 84.3913 78.5309C83.719 78.4189 82.6125 78.2158 81.9402 78.0757C81.2679 77.9356 80.2734 77.7115 79.7342 77.5785C79.1949 77.4454 78.2635 77.1933 77.6682 77.0252C77.0729 76.8571 76.1065 76.563 75.5322 76.3739C74.951 76.1848 74.0685 75.8767 73.5713 75.6946C73.0741 75.5125 72.1286 75.1413 71.4703 74.8752C70.812 74.6021 69.7755 74.1469 69.1593 73.8597C68.543 73.5796 67.4715 73.0404 66.7782 72.6692C66.0848 72.305 65.0413 71.7168 64.4671 71.3666C63.8858 71.0234 62.9894 70.4492 62.4711 70.106C61.9529 69.7558 61.1125 69.1676 60.6153 68.7964C60.1181 68.4252 59.3267 67.8089 58.8645 67.4238C58.4023 67.0386 57.6319 66.3593 57.1487 65.911C56.6654 65.4698 55.9581 64.7625 55.5659 64.3423C55.1808 63.9221 54.6135 63.2778 54.3053 62.9137C53.9972 62.5495 53.549 61.9962 53.3179 61.6881C53.0798 61.3799 52.6596 60.7777 52.3724 60.3575C52.0853 59.9373 51.6021 59.1459 51.301 58.6067C50.9928 58.0674 50.5866 57.262 50.3835 56.8208C50.1874 56.3796 49.8933 55.6583 49.7322 55.2241C49.5781 54.7969 49.333 54.0195 49.2 53.5153C49.0669 53.004 48.8988 52.2197 48.8218 51.7785C48.7448 51.3373 48.6537 50.4689 48.6117 49.8526C48.5767 49.1593 48.5697 48.3609 48.6117 47.7516C48.6467 47.2124 48.7448 46.393 48.8218 45.9308C48.9058 45.4685 49.0809 44.7122 49.214 44.25C49.347 43.7878 49.5852 43.0804 49.7392 42.6742C49.9003 42.2681 50.2154 41.5747 50.4466 41.1335C50.6707 40.6923 51.0628 40.013 51.315 39.6278C51.5671 39.2426 51.9172 38.7384 52.0923 38.5073C52.2674 38.2762 52.6596 37.793 52.9677 37.4428C53.2689 37.0856 53.549 36.7915 53.584 36.7915ZM40.0817 86.1295L41.1532 89.0358C41.7485 90.6325 42.2738 92.0752 42.3368 92.2433C42.3928 92.4044 42.4768 92.5374 42.5119 92.5374C42.5609 92.5374 42.5819 91.4169 42.5819 86.0944H44.2627V97.8599L42.5469 97.8249L41.5594 95.1286C41.0132 93.6439 40.4879 92.2013 40.3829 91.9282C40.2848 91.648 40.1728 91.4169 40.1308 91.4169C40.0817 91.4169 40.0607 92.5374 40.0607 97.8599L38.3449 97.8249L38.3239 92.0472C38.3169 88.8677 38.3239 86.2275 38.3449 86.1785C38.3729 86.1154 38.59 86.0944 40.0817 86.1295ZM51.406 86.0944H57.0786V87.8452H55.1177V97.8599H53.3669V87.8452H51.406V86.0944ZM57.779 86.0944H59.5298V97.8599H57.779V86.0944ZM60.5733 86.0944H66.3229L66.2879 87.8102L64.292 87.8452V97.8599H62.6112V87.8452L60.6153 87.8102L60.5733 86.0944ZM89.9799 86.1084C91.5277 86.1365 91.6677 86.1435 92.0599 86.3045C92.347 86.4166 92.5992 86.5917 92.8653 86.8578C93.0824 87.0749 93.3555 87.4251 93.4746 87.6352C93.5936 87.8452 93.7897 88.3005 93.9018 88.6506C94.0208 89.0008 94.1679 89.5821 94.2379 89.9462C94.322 90.4225 94.357 90.9827 94.357 91.9071C94.357 92.8176 94.322 93.3988 94.2379 93.8681C94.1749 94.2322 94.0418 94.7855 93.9368 95.0936C93.8387 95.4018 93.6847 95.7939 93.6006 95.969C93.5096 96.1441 93.3065 96.4593 93.1454 96.6694C92.9843 96.8795 92.7532 97.1386 92.6342 97.2436C92.5081 97.3417 92.221 97.5168 91.5697 97.8249H88.2782L88.2571 92.0472C88.2501 88.8677 88.2571 86.2275 88.2782 86.1785C88.3132 86.1014 88.6423 86.0874 89.9799 86.1084ZM89.9939 96.1091C90.8624 96.1091 91.2125 96.0671 91.3386 96.018C91.4646 95.962 91.6817 95.7939 91.8148 95.6469C91.9549 95.4998 92.1369 95.1847 92.221 94.9536C92.312 94.7225 92.4241 94.2322 92.4801 93.8681C92.5361 93.4899 92.5852 92.6775 92.5852 91.9772C92.5852 91.2768 92.5361 90.4645 92.4801 90.0863C92.4311 89.7221 92.319 89.2459 92.235 89.0358C92.158 88.8257 92.0109 88.5316 91.9128 88.3845C91.8218 88.2444 91.6187 88.0624 91.4646 87.9853C91.2475 87.8803 91.0444 87.8452 90.5892 87.8452H89.9939V96.1091ZM118.294 86.0874L122.314 86.1295L122.769 86.3536C123.014 86.4726 123.336 86.6897 123.47 86.8438C123.61 86.9908 123.806 87.25 123.904 87.4251C124.009 87.6001 124.142 87.9783 124.205 88.2654C124.282 88.6086 124.303 88.9448 124.282 89.2249C124.254 89.47 124.156 89.8762 124.058 90.1353C123.96 90.4014 123.771 90.7796 123.638 90.9757C123.505 91.1788 123.273 91.4309 123.119 91.536C122.965 91.648 122.839 91.7741 122.839 91.8161C122.839 91.8651 123.196 93.2167 123.645 94.8135C124.086 96.4102 124.45 97.7549 124.45 97.7899C124.45 97.8319 124.107 97.8599 122.699 97.8599L122.608 97.5238C122.552 97.3417 122.202 96.0671 121.123 92.1873H120.038V97.8599H118.287L118.294 86.0874ZM120.031 90.4365C121.39 90.4365 121.6 90.4084 121.838 90.2964C122.055 90.1913 122.167 90.0863 122.272 89.8622C122.363 89.6661 122.412 89.414 122.412 89.1409C122.412 88.8607 122.363 88.6296 122.272 88.4405C122.195 88.2865 122.048 88.0974 121.943 88.0203C121.782 87.9083 121.614 87.8803 120.899 87.8593L120.045 87.8382L120.031 90.4365ZM125.22 86.0804L127.23 86.1084C129.212 86.1294 129.247 86.1295 129.625 86.3045C129.835 86.4026 130.151 86.6127 130.326 86.7738C130.501 86.9278 130.725 87.208 130.83 87.397C130.935 87.5861 131.068 87.9433 131.124 88.1954C131.187 88.4405 131.236 88.7907 131.236 88.9658C131.236 89.1339 131.187 89.47 131.131 89.7011C131.068 89.9322 130.921 90.3244 130.809 90.5765C130.669 90.8707 130.452 91.1718 129.765 91.8371L130.571 94.7785C131.012 96.3962 131.376 97.7479 131.376 97.7899C131.376 97.8319 131.04 97.8599 129.625 97.8599L129.562 97.6288C129.534 97.5027 129.177 96.2281 128.05 92.1873H126.964V97.8599H125.213L125.22 86.0804ZM126.964 90.4295C128.316 90.4295 128.526 90.4014 128.764 90.2894C128.988 90.1843 129.1 90.0723 129.198 89.8552C129.289 89.6661 129.338 89.4 129.345 89.1339C129.345 88.8327 129.303 88.6296 129.184 88.4055C129.086 88.2234 128.932 88.0483 128.785 87.9713C128.582 87.8663 128.386 87.8382 127.749 87.8382H126.964V90.4295ZM132.147 86.0874H133.897V97.8529H132.147V86.0874Z" fill="#0A357A"/>
</g>
<defs>
<clipPath id="clip0_423_2795">
<rect width="111.982" height="86" fill="white" transform="translate(35.5088 12)"/>
</clipPath>
</defs>
</svg>
