<svg width="183" height="110" viewBox="0 0 183 110" fill="none" xmlns="http://www.w3.org/2000/svg">
<path d="M93.382 25.3512C93.2062 25.3952 91.9096 26.1534 90.525 27.0215C89.1404 27.9006 87.3493 28.9665 86.5691 29.395C85.7889 29.8126 85.0307 30.1972 84.8878 30.2411C84.701 30.2961 84.6461 30.384 84.6461 30.6587C84.6461 30.9884 84.5142 31.1312 83.2725 32.1751C82.1297 33.1312 81.8989 33.3839 81.8989 33.6256C81.8989 33.9004 81.9319 33.9223 82.2066 33.8674C82.3714 33.8344 83.1956 33.5377 84.0417 33.2081C84.8878 32.8784 86.3273 32.2191 87.2284 31.7466C88.1405 31.2741 89.4481 30.5159 90.1404 30.0543C91.2503 29.3071 91.4041 29.1643 91.4041 28.9005C91.4041 28.6478 91.6568 28.3841 92.9755 27.2522C93.8326 26.516 94.5578 25.8347 94.5798 25.7358C94.6018 25.6479 94.5908 25.527 94.5468 25.4831C94.5139 25.4281 94.3051 25.3622 94.0963 25.3292C93.8875 25.2963 93.5579 25.3072 93.382 25.3512ZM121.623 39.5375C121.194 39.6584 120.293 39.8562 119.612 39.9991L118.381 40.2518C118.381 40.8012 118.326 40.988 118.271 41.021C118.216 41.054 118.161 41.2518 118.161 41.4605C118.161 41.8122 118.194 41.8451 118.469 41.8451C118.634 41.8451 119.414 41.7682 120.194 41.6803C120.975 41.5924 121.656 41.5155 121.711 41.5155C121.755 41.5155 121.788 41.3507 121.788 41.1638C121.799 40.8781 121.898 40.7133 122.282 40.3617C122.634 40.043 122.777 39.8342 122.777 39.6254C122.777 39.4057 122.722 39.3178 122.59 39.3287C122.48 39.3287 122.051 39.4276 121.623 39.5375ZM135.062 44.5374C134.315 45.1527 134.205 45.2956 134.205 45.6142C134.205 45.9109 134.26 45.9988 134.611 46.1747C134.842 46.2845 135.304 46.4714 135.633 46.5812C135.963 46.7021 136.271 46.79 136.326 46.79C136.37 46.79 136.403 46.6582 136.403 46.4933C136.403 46.2516 136.556 46.0538 137.172 45.5263C137.6 45.1637 137.952 44.8341 137.941 44.7901C137.941 44.7352 137.809 44.6802 137.644 44.6472C137.468 44.6143 137.04 44.4165 136.677 44.2077C136.315 43.9879 135.996 43.8231 135.963 43.8231C135.93 43.8231 135.523 44.1528 135.062 44.5374Z" fill="white"/>
<path d="M94.6014 25.7469C94.5684 25.8348 93.8322 26.5161 92.9641 27.2523C92.107 27.9886 91.3927 28.6699 91.3707 28.7578C91.3487 28.8567 91.3707 28.9775 91.4257 29.0215C91.4696 29.0764 91.7883 28.9446 92.118 28.7468C92.4476 28.538 92.8981 28.2963 93.1069 28.2193C93.4476 28.0875 93.5575 28.0985 94.0959 28.3182C94.4256 28.4611 94.7662 28.5929 94.8321 28.6149C94.9091 28.6369 94.975 28.5929 94.975 28.527C94.975 28.4501 95.3266 28.0655 95.7552 27.6699L96.5464 26.9556C95.1948 25.8897 94.7772 25.5711 94.7332 25.5821C94.7003 25.5821 94.6343 25.659 94.6014 25.7469ZM117.721 40.4167C117.568 40.4607 117.04 40.5046 116.535 40.5156C115.678 40.5266 115.634 40.5376 115.634 40.7793C115.645 40.9112 115.568 41.098 115.469 41.1859C115.37 41.2738 115.293 41.4167 115.304 41.4936C115.304 41.5595 115.425 41.6694 115.579 41.7353C115.733 41.8013 116.37 41.8452 117.007 41.8452H118.161C118.161 41.2519 118.216 41.0541 118.271 41.0211C118.326 40.9881 118.381 40.8233 118.381 40.6365C118.381 40.3947 118.326 40.3068 118.183 40.3178C118.084 40.3288 117.875 40.3728 117.721 40.4167ZM137.193 45.5045C136.512 46.0868 136.402 46.2297 136.402 46.5484C136.402 46.867 136.446 46.911 136.864 47.0209C137.127 47.0868 137.754 47.2297 138.27 47.3505C138.787 47.4604 139.27 47.5593 139.336 47.5593C139.424 47.5593 139.479 47.4055 139.479 47.1747C139.479 46.8451 139.556 46.7242 140.028 46.3506C140.468 45.9989 140.578 45.8451 140.578 45.5814C140.578 45.2957 140.534 45.2517 140.27 45.2517C140.105 45.2517 139.545 45.1528 139.028 45.0319C138.512 44.9111 138.061 44.8122 138.039 44.8122C138.017 44.8232 137.633 45.1308 137.193 45.5045ZM159.698 50.4713C159.698 50.6252 159.643 50.768 159.588 50.801C159.533 50.8339 159.478 50.9768 159.478 51.1306V51.4053C161.786 51.4053 162.346 51.3724 162.28 51.3064C162.225 51.2625 161.654 50.9878 161.017 50.7021C160.379 50.4274 159.83 50.1966 159.775 50.1966C159.731 50.1966 159.698 50.3175 159.698 50.4713Z" fill="white"/>
<path d="M83.3275 31.0103C82.6901 31.329 81.1957 32.0102 79.9979 32.5157C77.932 33.3948 77.8331 33.4498 77.8331 33.7465C77.8331 33.9992 77.5804 34.2629 76.2618 35.3728C74.9981 36.4606 74.7014 36.7683 74.6794 37.0211C74.6574 37.1969 74.6684 37.3397 74.7014 37.3397C74.7343 37.3397 75.2398 37.0321 75.8332 36.6584C76.4156 36.2848 77.3716 35.7574 77.943 35.4717C78.5144 35.197 79.6463 34.7464 80.4484 34.4827C81.877 33.9992 81.8989 33.9882 81.8989 33.6585C81.8989 33.3728 82.0857 33.175 83.2725 32.1751C84.4263 31.2081 84.6461 30.9663 84.6461 30.7246C84.6461 30.5488 84.6131 30.4169 84.5692 30.4279C84.5142 30.4279 83.9648 30.6916 83.3275 31.0103ZM124.919 38.7792C124.678 38.8232 124.095 38.9551 123.623 39.054C122.788 39.2408 122.766 39.2518 122.777 39.5814C122.777 39.8451 122.667 40.021 122.282 40.3616C121.898 40.7132 121.799 40.8781 121.788 41.1638C121.788 41.4495 121.821 41.5044 121.985 41.4605C122.084 41.4385 122.392 41.3616 122.667 41.2956C122.941 41.2297 123.282 41.1418 123.436 41.1198C123.59 41.0869 124.04 40.977 124.458 40.8781C125.128 40.7132 125.194 40.6693 125.194 40.4166C125.194 40.2407 125.348 39.988 125.634 39.7023C125.941 39.3946 126.073 39.1639 126.073 38.9661C126.073 38.6913 126.029 38.6584 125.722 38.6694C125.524 38.6804 125.161 38.7243 124.919 38.7792ZM133.622 43.5593C132.974 44.1307 132.458 44.6582 132.48 44.7351C132.502 44.801 132.853 45.0977 133.282 45.3834C133.699 45.6691 134.073 45.9109 134.117 45.9109C134.172 45.9109 134.205 45.768 134.205 45.5812C134.205 45.3065 134.337 45.1417 135.084 44.5373L135.963 43.823C135.172 42.933 134.908 42.6363 134.864 42.5923C134.831 42.5593 134.271 42.9879 133.622 43.5593Z" fill="white"/>
<path d="M101.777 32.4718C101.272 32.9114 100.854 33.329 100.854 33.3839C100.854 33.4388 101.217 33.7795 101.656 34.1421L102.447 34.8124C102.766 34.4278 103.206 34.0212 103.634 33.6586C104.282 33.1202 104.392 32.9663 104.315 32.8015C104.249 32.7026 103.92 32.4279 103.579 32.1971C103.228 31.9664 102.887 31.7466 102.821 31.7136C102.755 31.6807 102.294 32.0213 101.777 32.4718ZM107.865 37.6475C107.59 37.8892 107.403 38.153 107.392 38.2958C107.392 38.4936 107.579 38.6584 108.194 39.043C108.623 39.3068 109.019 39.5375 109.074 39.5375C109.117 39.5375 109.15 39.4057 109.15 39.2299C109.15 39.054 109.26 38.8233 109.425 38.6584C109.579 38.5046 109.7 38.3288 109.7 38.2738C109.689 38.2079 109.414 37.9552 109.084 37.6914C108.755 37.4387 108.458 37.2299 108.414 37.2299C108.359 37.2409 108.117 37.4277 107.865 37.6475ZM148.512 46.6911C148.501 46.8779 148.215 47.1966 147.556 47.746C147.039 48.1966 146.622 48.6361 146.622 48.735C146.622 48.8889 146.929 49.0317 147.973 49.3724C148.71 49.6141 149.38 49.8229 149.457 49.8339C149.534 49.8559 149.589 49.757 149.589 49.6141C149.589 49.4383 149.885 49.1086 150.633 48.4603C151.303 47.8889 151.676 47.4823 151.676 47.3395C151.676 47.1527 151.512 47.0867 150.446 46.845C149.764 46.6911 149.05 46.5373 148.863 46.5043C148.567 46.4384 148.523 46.4604 148.512 46.6911ZM154.533 48.2186C154.533 48.2845 153.863 48.8999 153.05 49.5921L151.567 50.8558C152.226 51.4602 152.369 51.5042 152.918 51.5151H153.545C153.545 50.8448 153.665 50.702 154.643 49.8888C155.435 49.2405 155.742 48.9218 155.742 48.735C155.742 48.5482 155.632 48.4493 155.226 48.2955C154.929 48.1966 154.665 48.1087 154.621 48.1087C154.566 48.1087 154.533 48.1526 154.533 48.2186Z" fill="white"/>
<path d="M55.7346 41.2847L51.9215 42.5594C52.0204 43.1967 51.8556 43.3945 49.5919 45.6362C47.581 47.6361 47.1635 48.1086 47.1744 48.3504V48.6581L49.2073 48.5262C52.6138 46.5263 53.9984 45.7131 54.4819 45.4494C54.9984 45.1527 55.306 44.9219 55.2291 44.878C55.1522 44.845 55.0863 44.7461 55.0863 44.6692C55.0863 44.6033 56.1192 43.6582 57.3939 42.5814C59.4488 40.8451 59.7015 40.6034 59.7015 40.3067C59.7015 40.1199 59.6685 39.988 59.6246 39.988C59.5696 39.999 57.8224 40.5814 55.7346 41.2847ZM165.863 57.3611C165.533 57.5589 165.115 57.9435 164.929 58.1962C164.621 58.6248 164.588 58.7786 164.555 59.5478C164.533 60.3829 164.544 60.4159 164.775 60.4159C164.918 60.4159 165.258 60.2181 165.544 59.9764C165.852 59.7236 166.181 59.5368 166.346 59.5368C166.599 59.5368 166.621 59.4929 166.621 59.0423V58.5478H168.533C168.522 57.9984 168.269 57.7045 168.368 57.6166C168.467 57.5287 169.038 57.3199 169.027 57.1771C169.027 56.9463 168.335 57.0094 167.412 57.0094C166.522 57.0094 166.412 57.0314 165.863 57.3611ZM21.9446 69.0997C21.8567 69.1547 21.4171 69.0997 21.1204 69.0997L20.582 69.6464V73.3825C20.571 74.7589 21.4501 73.5172 21.6699 73.3304C21.9446 73.0996 22.0874 72.7809 22.3841 72.7809L22.7797 72.7232V69.4266C22.1423 69.4266 22.0325 69.0448 21.9446 69.0997ZM17.0546 73.2754C16.747 73.5501 16.4832 72.8359 16.3953 72.8359C16.3074 72.8359 16.2964 74.0088 16.2964 74.0968C16.2964 74.2066 16.4063 74.2616 16.648 74.2616C16.8458 74.2616 17.3294 74.3083 17.714 74.2644L18.4282 74.2094C18.4282 73.0776 18.5601 72.5062 18.2634 72.5062C18.0656 72.5062 17.4392 72.9458 17.0546 73.2754Z" fill="white"/>
<path d="M99.7882 30.8566C99.3377 31.2522 99.041 31.6038 99.041 31.7357C99.041 31.8785 99.3487 32.2082 99.8981 32.6587L100.744 33.362C101.942 32.373 102.382 31.9774 102.502 31.8565C102.623 31.7247 102.7 31.6038 102.667 31.5818C102.634 31.5599 102.184 31.2412 101.656 30.8676C101.118 30.5049 100.656 30.1973 100.612 30.1973C100.557 30.1973 100.195 30.494 99.7882 30.8566ZM109.447 38.5926C109.282 38.7904 109.162 39.0761 109.151 39.2629C109.151 39.5706 109.216 39.6255 109.975 39.9991C110.425 40.2299 110.821 40.4167 110.854 40.4167C110.887 40.4167 110.909 40.3508 110.909 40.2738C110.898 40.2079 111.008 40.0431 111.129 39.9222C111.249 39.8013 111.359 39.5925 111.348 39.4497C111.348 39.2849 111.227 39.153 110.997 39.0321C110.799 38.9332 110.436 38.7135 110.183 38.5486L109.733 38.2519L109.447 38.5926ZM145.984 46.1967C145.973 46.3176 145.842 46.5264 145.688 46.6802C145.534 46.8341 145.413 47.0099 145.413 47.0648C145.413 47.1308 145.27 47.3285 145.083 47.5044C144.875 47.7132 144.754 47.9439 144.754 48.1417C144.754 48.4054 144.809 48.4604 145.215 48.5593C145.479 48.6252 145.864 48.7241 146.072 48.779C146.281 48.834 146.49 48.8779 146.534 48.8779C146.589 48.8779 146.622 48.801 146.622 48.7131C146.622 48.6252 147.039 48.1966 147.556 47.7571C148.314 47.1088 148.49 46.9 148.49 46.6582C148.49 46.3945 148.446 46.3506 148.16 46.3506C147.973 46.3506 147.743 46.3066 147.633 46.2517C147.534 46.1967 147.116 46.1088 146.721 46.0758C146.061 45.9989 145.995 46.0099 145.984 46.1967ZM155.742 48.7681C155.742 48.9109 155.369 49.2955 154.644 49.8999C153.742 50.6361 153.545 50.8559 153.545 51.1086V51.4053C155.49 51.4053 155.523 51.3943 155.523 51.1636C155.512 50.9878 155.764 50.6911 156.347 50.1746C156.797 49.768 157.171 49.3395 157.171 49.2406C157.182 49.1087 156.984 48.9659 156.567 48.801C156.237 48.6582 155.907 48.5483 155.852 48.5483C155.786 48.5483 155.742 48.6472 155.742 48.7681Z" fill="white"/>
<path d="M98.3378 29.9006L97.4917 30.6918C98.6125 31.5818 98.9532 31.8456 98.9862 31.8456C99.0191 31.8456 99.0411 31.7686 99.0411 31.6807C99.0411 31.5928 99.3927 31.2082 99.8213 30.8346L100.601 30.1423C99.6894 29.45 99.3708 29.2193 99.3048 29.1863C99.2389 29.1424 98.7993 29.472 98.3378 29.9006ZM111.348 39.5156C111.359 39.6145 111.249 39.8013 111.129 39.9222C111.008 40.0431 110.898 40.2189 110.898 40.3068C110.898 40.4057 111.151 40.5705 111.513 40.7244C111.843 40.8562 112.173 40.9661 112.227 40.9661C112.282 40.9661 112.337 40.8782 112.337 40.7793C112.326 40.6694 112.403 40.5046 112.502 40.4167C112.601 40.3288 112.678 40.164 112.667 40.0651C112.667 39.9332 112.447 39.7684 112.03 39.5925C111.689 39.4387 111.392 39.3178 111.37 39.3178C111.359 39.3178 111.348 39.4057 111.348 39.5156ZM143.567 45.8671C143.556 46.1088 143.402 46.3176 142.941 46.7132C142.435 47.1417 142.336 47.2956 142.336 47.5923V47.9439C143.831 48.2406 144.369 48.3505 144.501 48.3835C144.721 48.4274 144.754 48.3944 144.754 48.1417C144.754 47.9439 144.875 47.7131 145.083 47.5044C145.27 47.3176 145.413 47.1307 145.413 47.0648C145.413 46.9989 145.534 46.8341 145.688 46.6802C145.842 46.5264 145.963 46.2956 145.963 46.1637C145.963 45.955 145.897 45.911 145.633 45.911C145.446 45.911 145.193 45.8671 145.051 45.8121C144.919 45.7572 144.534 45.6803 144.193 45.6363L143.578 45.5594L143.567 45.8671ZM157.171 49.2516C157.171 49.3505 156.797 49.757 156.347 50.1636C155.764 50.6801 155.512 50.9768 155.523 51.1526C155.523 51.3834 155.567 51.3943 156.512 51.3943H157.501C157.501 50.8119 157.611 50.6471 158.006 50.3284C158.281 50.0977 158.501 49.8449 158.501 49.746C158.501 49.6581 158.248 49.4823 157.918 49.3395C157.6 49.2076 157.303 49.0867 157.259 49.0867C157.204 49.0867 157.171 49.1636 157.171 49.2516Z" fill="white"/>
<path d="M103.436 33.8344C102.942 34.252 102.535 34.6805 102.546 34.7684C102.546 34.8453 103.019 35.2849 103.568 35.7354C104.128 36.175 105.172 36.9662 105.876 37.4936C106.59 38.0101 107.227 38.4386 107.282 38.4386C107.337 38.4386 107.392 38.3507 107.392 38.2518C107.403 38.1419 107.623 37.8562 107.898 37.6145L108.392 37.1749C106.403 35.219 105.524 34.2849 105.15 33.8454C104.788 33.4058 104.447 33.0542 104.414 33.0542C104.381 33.0542 103.942 33.4058 103.436 33.8344ZM151.676 47.3944C151.676 47.4823 151.204 47.9658 150.632 48.4713C149.819 49.1745 149.588 49.4383 149.588 49.647C149.599 49.8778 149.731 49.9877 150.577 50.3943L151.566 50.8558C153.863 48.8998 154.533 48.2515 154.533 48.1636C154.533 48.0757 154.445 47.9768 154.336 47.9548C154.237 47.9218 153.654 47.757 153.05 47.5702C152.445 47.3834 151.885 47.2295 151.808 47.2295C151.742 47.2295 151.676 47.3065 151.676 47.3944Z" fill="white"/>
<path d="M95.7113 27.7028C95.3048 28.0764 94.9751 28.472 94.9751 28.5709C94.9751 28.6808 95.107 28.8456 95.2718 28.9555C95.4476 29.0544 95.7992 29.3181 96.074 29.5489C96.3487 29.7796 96.6014 29.9664 96.6454 29.9774C96.7003 29.9774 96.7333 29.8895 96.7333 29.7796C96.7333 29.6807 97.0629 29.2961 97.4585 28.9335L98.1728 28.2742C97.0519 27.3841 96.6673 27.0984 96.5904 27.0654C96.5245 27.0435 96.1179 27.3182 95.7113 27.7028ZM113.656 40.3397C113.656 40.4166 113.59 40.5485 113.491 40.6364C113.392 40.7243 113.326 40.9221 113.348 41.065C113.37 41.2847 113.48 41.3617 113.93 41.4825C114.227 41.5594 114.667 41.6254 114.887 41.6254C115.15 41.6254 115.304 41.5704 115.304 41.4825C115.293 41.4166 115.37 41.2737 115.469 41.1858C115.568 41.0979 115.645 40.9111 115.634 40.7683C115.634 40.5705 115.568 40.5265 115.249 40.5265C115.04 40.5265 114.777 40.4826 114.667 40.4276C114.568 40.3837 114.293 40.3067 114.062 40.2738C113.766 40.2298 113.645 40.2518 113.656 40.3397ZM140.578 45.5813C140.578 45.845 140.468 45.9989 140.028 46.3505C139.556 46.7241 139.479 46.845 139.479 47.1746C139.479 47.5263 139.512 47.5592 139.831 47.6032C140.028 47.6362 140.413 47.6801 140.688 47.7131C140.963 47.746 141.292 47.801 141.424 47.834C141.644 47.8779 141.677 47.8449 141.677 47.5592C141.677 47.2955 141.809 47.1087 142.391 46.5922C142.787 46.2516 143.116 45.878 143.105 45.7681C143.105 45.6582 142.995 45.5593 142.853 45.5373C142.721 45.5154 142.292 45.4384 141.897 45.3725C141.501 45.3066 141.05 45.2516 140.875 45.2516C140.622 45.2516 140.578 45.2956 140.578 45.5813ZM158.621 50.3504C158.303 50.669 158.16 50.8888 158.16 51.0976C158.16 51.3943 158.171 51.4053 158.819 51.4053C159.445 51.4053 159.478 51.3943 159.478 51.1305C159.478 50.9767 159.533 50.8339 159.588 50.8009C159.643 50.7679 159.698 50.6141 159.698 50.4383C159.698 50.2295 159.621 50.0976 159.423 49.9987C159.27 49.9328 159.138 49.8778 159.116 49.8778C159.105 49.8888 158.885 50.0976 158.621 50.3504Z" fill="white"/>
<path d="M49.2845 43.3725L46.9549 44.0977C46.9549 44.779 46.7901 44.9549 45.0099 46.4713C43.2188 47.9987 43.0539 48.1745 43.021 48.5372L42.977 48.9327C44.4824 48.8119 45.4275 48.735 46.0538 48.691C47.1527 48.6031 47.1747 48.6031 47.1747 48.3284C47.1637 48.1086 47.6911 47.5262 49.5922 45.6362C51.6141 43.6252 52.0207 43.1747 51.9877 42.9439C51.9657 42.7901 51.8778 42.6582 51.7899 42.6582C51.702 42.6472 50.5702 42.9659 49.2845 43.3725ZM168.379 57.2511C168.39 57.394 168.313 57.5808 168.214 57.6687C168.116 57.7566 168.039 57.9984 168.05 58.1852C168.05 58.5148 168.083 58.5478 168.379 58.5478C168.698 58.5478 168.709 58.5698 168.709 59.0423C168.709 59.5148 168.731 59.5368 169.017 59.5368C169.203 59.5258 169.544 59.339 169.94 59.0093C170.291 58.7236 170.577 58.4599 170.577 58.405C170.577 58.361 170.39 58.1192 170.17 57.8775C169.94 57.6248 169.566 57.3281 169.346 57.2182C169.116 57.0973 168.808 57.0094 168.654 57.0094C168.445 57.0094 168.379 57.0643 168.379 57.2511ZM165.522 59.9763C165.248 60.2181 164.918 60.4159 164.786 60.4159C164.533 60.4159 164.533 60.4378 164.533 61.7345V63.0531C165.072 63.0531 165.324 62.9323 165.555 62.7235C165.79 62.511 166.028 62.4011 166.269 62.3938H166.621V59.5368C166.127 59.5478 165.83 59.7016 165.522 59.9763ZM21.6371 66.3497C21.3294 66.6135 21.0217 66.7893 20.8569 66.7893H20.5822V69.6463C21.4723 69.5694 21.9667 69.5145 22.2634 69.4815L22.7799 69.4265V65.9102C22.2415 65.9102 21.9777 66.053 21.6371 66.3497ZM17.1757 70.1408C16.846 70.4155 16.5054 70.6353 16.4395 70.6353C16.3296 70.6353 16.2966 71.0419 16.2966 72.2836C16.2966 73.6791 16.3186 73.9319 16.4614 73.9319C16.5493 73.9319 16.89 73.7121 17.2087 73.4374C17.5823 73.1077 17.879 72.9429 18.0878 72.9429H18.3845V69.6463C17.89 69.6463 17.5713 69.8221 17.1757 70.1408ZM13.2198 73.5143C13.1319 73.5912 12.099 73.7919 12.11 73.9347C12.1319 74.1655 13.1649 74.1517 13.6593 74.1517H14.2088C14.2088 73.3934 14.2747 72.9457 13.8681 72.9457C13.6373 72.9457 13.3077 73.4374 13.2198 73.5143Z" fill="white"/>
<path d="M75.1738 34.4389C72.976 35.285 72.7123 35.4169 71.9871 36.0212C71.5475 36.3839 71.042 36.7135 70.8552 36.7685C70.5915 36.8454 70.5256 36.9223 70.5036 37.186C70.4816 37.4388 70.2728 37.6805 69.4817 38.3618C68.6465 39.0761 68.4927 39.2629 68.4927 39.5376C68.4927 39.7244 68.5256 39.8673 68.5806 39.8673C68.6245 39.8673 69.2289 39.7244 69.9212 39.5486C70.6135 39.3728 71.5036 39.0981 71.8992 38.9332C72.2947 38.7684 73.0749 38.3728 73.6354 38.0432C74.5804 37.4937 74.6463 37.4278 74.6463 37.0981C74.6573 36.7685 74.8002 36.6036 76.2397 35.3949C77.5034 34.318 77.833 33.9883 77.833 33.7686C77.833 33.6147 77.7671 33.4939 77.7011 33.5048C77.6242 33.5048 76.4814 33.9334 75.1738 34.4389ZM126.645 38.5926C126.139 38.7025 126.073 38.7464 126.073 38.9882C126.073 39.164 125.919 39.4167 125.634 39.7024C125.37 39.9552 125.194 40.2409 125.194 40.3947C125.194 40.5266 125.26 40.6365 125.337 40.6365C125.403 40.6365 125.765 40.5705 126.128 40.4826C126.491 40.3947 127.018 40.2958 127.315 40.2629C127.798 40.1969 127.831 40.1749 127.831 39.8673C127.831 39.6255 127.919 39.4717 128.161 39.2959C128.392 39.12 128.491 38.9552 128.491 38.7464C128.491 38.4497 128.48 38.4387 127.864 38.4497C127.513 38.4607 126.963 38.5267 126.645 38.5926ZM132.578 42.2408C131.842 42.8672 131.238 43.4166 131.238 43.4715C131.238 43.5155 131.502 43.8012 131.82 44.1199L132.392 44.6803C134.227 43.032 134.765 42.5375 134.765 42.5045C134.765 42.4716 134.589 42.1529 134.37 41.7903C134.15 41.4276 133.963 41.12 133.941 41.109C133.93 41.098 133.315 41.6145 132.578 42.2408ZM80.4703 78.4264C80.2175 78.6901 80.1516 78.8549 80.1516 79.3055L80.1406 79.8659H80.9098C80.9098 78.6681 80.9098 78.6571 81.2395 78.6571C81.5142 78.6571 81.5691 78.6132 81.5691 78.3824C81.5691 78.1407 81.5252 78.1077 81.1736 78.1077C80.8879 78.1077 80.701 78.1956 80.4703 78.4264Z" fill="white"/>
<path d="M69.7011 37.0212C69.4923 37.0652 68.8879 37.164 68.3495 37.219C67.4374 37.3399 67.3935 37.3509 67.3935 37.6146C67.3935 37.8344 67.0858 38.153 65.877 39.164C65.0529 39.8673 64.3606 40.5376 64.3496 40.6474C64.3276 40.7683 64.3826 40.8782 64.4595 40.9222C64.5254 40.9551 65.1847 40.8013 65.91 40.5925C66.6352 40.3727 67.5033 40.142 67.833 40.0541C68.3934 39.9222 68.4374 39.8892 68.4703 39.5596C68.4923 39.2629 68.6572 39.0651 69.4813 38.3618C70.2945 37.6585 70.4813 37.4498 70.4703 37.208C70.4703 36.9882 70.4153 36.9003 70.2835 36.9113C70.1736 36.9223 69.9099 36.9663 69.7011 37.0212ZM128.479 38.7464C128.49 38.9552 128.402 39.12 128.161 39.2958C127.908 39.4827 127.831 39.6255 127.831 39.9222C127.831 40.2519 127.875 40.3178 128.139 40.3727C128.303 40.4167 128.556 40.5156 128.71 40.5925C128.963 40.7244 129.04 40.6914 129.842 40.0211C130.556 39.4277 130.688 39.2629 130.688 38.9882C130.688 38.7354 130.633 38.6475 130.446 38.6145C130.303 38.5816 129.809 38.5376 129.336 38.5047L128.468 38.4607L128.479 38.7464ZM131.644 40.7354C130.941 41.3397 130.336 41.9111 130.303 41.999C130.27 42.0979 130.457 42.4496 130.71 42.8012L131.182 43.4495C133.27 41.6474 133.875 41.076 133.875 41.0101C133.875 40.9551 133.688 40.6145 133.457 40.2738C133.237 39.9222 133.029 39.6365 132.996 39.6365C132.963 39.6365 132.358 40.131 131.644 40.7354ZM81.6128 78.5692C81.6457 78.767 81.6787 79.1626 81.6787 79.4483V79.9648H82.4479C82.4589 78.9758 82.3929 78.7231 82.2281 78.5143C82.1072 78.3495 81.8985 78.2066 81.7666 78.2066C81.5578 78.2066 81.5468 78.2506 81.6128 78.5692ZM80.1403 80.8988C80.1403 81.668 80.1732 81.9427 80.2721 81.9427C80.3491 81.9427 80.5249 81.9208 80.6567 81.8878C80.8985 81.8438 80.9095 81.7779 80.9095 80.8439V79.8549H80.1403V80.8988ZM81.6787 83.1515C81.6787 83.4592 81.6457 83.4811 81.2941 83.4811H80.9095C80.9095 84.613 80.9424 84.6899 81.1183 84.6899C81.2391 84.6899 81.415 84.624 81.5029 84.5251C81.6018 84.4372 81.6787 84.3053 81.6787 84.2284C81.6787 84.1515 81.8545 83.9537 82.0633 83.7888C82.349 83.5581 82.4479 83.4042 82.4479 83.1515C82.4479 82.8548 82.4149 82.8218 82.0633 82.8218C81.7117 82.8218 81.6787 82.8548 81.6787 83.1515Z" fill="white"/>
<path d="M44.4826 44.8121C43.2739 45.1637 41.5707 45.6472 40.6916 45.8889L39.0982 46.3285C39.0543 47.0537 38.9444 47.2735 38.7136 47.5043C38.5268 47.6911 38.384 47.9108 38.384 47.9988C38.384 48.0867 38.2851 48.2625 38.1642 48.3834C38.0433 48.5042 37.9334 48.735 37.9444 48.9108C37.9444 49.1965 37.9554 49.2075 38.4719 49.1526C38.7576 49.1306 39.5597 49.0756 40.252 49.0427C40.9443 49.0097 41.8454 48.9438 42.252 48.8998C42.9772 48.8229 42.9882 48.8229 43.0212 48.4823C43.0541 48.1856 43.3288 47.8999 45.0101 46.4713C46.7243 45.0098 46.9551 44.7791 46.9551 44.4824C46.9551 44.2846 46.9001 44.1527 46.8232 44.1637C46.7463 44.1637 45.6914 44.4604 44.4826 44.8121ZM169.962 58.9874C169.533 59.35 169.215 59.5368 169.006 59.5368H168.709C168.709 63.4927 168.709 63.4927 168.951 63.4927C169.094 63.5037 169.434 63.3059 169.72 63.0532C170.083 62.7565 170.346 62.6136 170.577 62.6136H170.907C170.863 59.6247 170.797 58.7456 170.731 58.6358C170.632 58.4599 170.555 58.4929 169.962 58.9874ZM22.4395 60.8583C22.2307 61.0121 21.4945 61.6275 21.1209 61.6275L20.5824 62.3939V66.7893C21.0219 66.7893 20.989 67.88 21.2857 67.6163C21.6263 67.3086 22.3186 66.957 22.5494 66.957L22.7801 65.9102V60.8033C22.3845 60.8033 22.5933 60.7374 22.4395 60.8583ZM165.544 62.7235C165.325 62.9323 165.072 63.0532 164.863 63.0532H164.533V67.0091C165.028 67.0091 165.259 66.8882 165.468 66.6794C165.72 66.4267 165.896 66.3498 166.204 66.3498H166.621V62.3939C166.028 62.3939 165.786 62.5038 165.544 62.7235ZM17.2089 66.2399C16.8572 66.5366 16.5056 66.7893 16.4287 66.7893C16.3298 66.7893 16.2968 67.2508 16.2968 68.7123C16.2968 70.1738 16.3298 70.6353 16.4287 70.6353C16.5056 70.6353 16.8462 70.4156 17.1759 70.1409C17.5715 69.8222 18.1978 70.6353 18.3846 70.6353V69.6464V65.6905C17.9561 65.6905 17.5935 65.9102 17.2089 66.2399ZM13.187 69.6464C13.0002 69.7782 12.7145 69.8661 12.4508 69.8661H12.0112V74.1517C13.0552 74.1517 13.1101 74.1297 13.1101 73.91C13.1101 73.7671 13.165 73.5913 13.242 73.5253C13.3189 73.4484 13.5606 73.3825 13.7914 73.3825H14.209V69.4266C13.6375 69.4266 13.3409 69.5255 13.187 69.6464Z" fill="white"/>
<path d="M32.0105 48.0648C31.6809 48.1527 31.2304 48.2626 31.0216 48.3175C30.8128 48.3724 30.0656 48.5483 29.3733 48.7021C28.681 48.8559 27.4722 49.1087 26.6811 49.2625C25.8899 49.4273 25.1097 49.6142 24.9449 49.6801C24.78 49.757 24.6372 49.8449 24.6482 49.8999C24.6482 49.9438 24.6811 49.9768 24.7361 49.9768C24.78 49.9768 26.3734 49.8779 28.2744 49.757C30.1754 49.6361 31.9007 49.5372 32.0985 49.5372C32.4281 49.5372 32.4501 49.5153 32.4501 49.1856C32.4391 48.9548 32.527 48.7351 32.6699 48.6032C32.7907 48.4823 32.9006 48.2735 32.8896 48.1417C32.8896 47.9988 32.8237 47.8889 32.7578 47.8999C32.6809 47.8999 32.3402 47.9768 32.0105 48.0648ZM14.0881 57.0974C13.8793 57.1414 13.4947 57.3282 13.231 57.504C12.9782 57.6798 12.6486 58.0205 12.4947 58.2512C12.3519 58.471 12.187 58.8666 12.1211 59.1303C12.0662 59.383 12.0112 60.9654 12.0112 62.6467V65.6905C12.4508 65.6905 12.6376 66.7153 12.9343 66.4626C13.264 66.1878 13.6815 65.4736 13.8684 65.4736L14.209 64.8114V58.5479H16.2968C16.2968 61.8445 16.3298 62.284 16.4287 62.284C16.5056 62.2731 16.8243 63.111 17.2199 62.7814C17.6155 62.4517 18.055 62.6577 18.1539 62.6467C18.3297 62.6467 18.3846 60.9434 18.3846 59.8116V58.5479H20.967C21.6593 57.9765 22.3296 58.3859 21.7581 57.7018C21.7142 57.6249 21.4724 57.449 21.2087 57.3172C20.7692 57.0754 20.6263 57.0644 17.6154 57.0425C15.8902 57.0315 14.3079 57.0644 14.0881 57.0974ZM169.248 57.3969C168.874 57.7266 168.819 57.9464 168.698 57.9464C168.698 57.9464 168.709 67.5256 168.709 70.086V72.7233H166.621V58.276C166.127 58.276 166.061 57.8365 165.731 58.1112C165.446 58.3529 164.753 59.1551 164.632 59.1551C164.435 59.1551 164.533 71.042 164.533 71.5694C164.533 71.9321 164.621 72.3606 164.742 72.6463C164.863 72.8991 165.182 73.3166 165.457 73.5804C165.742 73.8331 166.149 74.0858 166.369 74.1518C166.599 74.2067 167.204 74.2617 167.72 74.2617C168.336 74.2617 168.841 74.1957 169.204 74.0749C169.511 73.954 169.929 73.6903 170.193 73.4265C170.434 73.1848 170.698 72.7892 170.764 72.5474C170.863 72.2507 170.907 71.1958 170.907 69.1849C170.907 66.4487 170.83 58.5507 170.731 58.5507C170.632 58.5507 169.632 57.0673 169.248 57.3969Z" fill="white"/>
<path d="M63.6025 38.6035C61.6685 39.2848 59.9983 39.8782 59.8884 39.9111C59.7675 39.9551 59.7016 40.087 59.7016 40.3067C59.7016 40.6034 59.4488 40.8452 57.394 42.5924C56.1193 43.6583 55.0863 44.6033 55.0863 44.6692C55.0863 44.7461 55.1633 44.8341 55.2512 44.867C55.3391 44.9 55.9215 44.6582 56.5368 44.3286C57.1632 43.9989 58.3829 43.4165 59.262 43.0209C60.1411 42.6363 61.6136 42.032 62.5257 41.6913C63.4487 41.3507 64.2948 41.0759 64.3937 41.0759C64.5585 41.0869 64.5695 41.054 64.4487 40.9111C64.3827 40.8232 64.3278 40.6803 64.3388 40.5924C64.3608 40.5045 65.053 39.8672 65.8772 39.1639C67.0859 38.153 67.3936 37.8343 67.3936 37.6145C67.3936 37.4607 67.3277 37.3398 67.2508 37.3508C67.1848 37.3508 65.5365 37.9112 63.6025 38.6035ZM130.688 38.9881C130.688 39.2628 130.556 39.4276 129.864 40.01C129.413 40.3837 129.04 40.7243 129.04 40.7683C129.04 40.8232 129.128 40.9001 129.238 40.9551C129.337 41.01 129.6 41.2847 129.809 41.5594L130.194 42.0649C130.963 41.3397 131.589 40.7792 132.095 40.3617C132.963 39.6254 132.985 39.5815 132.809 39.3947C132.699 39.2848 132.358 39.076 132.062 38.9222C131.754 38.7793 131.325 38.6584 131.095 38.6584C130.721 38.6584 130.688 38.6804 130.688 38.9881ZM21.626 73.0529C21.3952 73.2836 21.1864 73.3825 20.9337 73.3825C20.593 73.3825 20.582 73.4045 20.582 73.8221V74.2616H22.7798V72.7232C22.0545 72.7232 21.8677 72.8001 21.626 73.0529ZM80.3932 81.9097C80.1624 81.9537 80.1404 82.0086 80.1404 82.6679C80.1404 83.2723 80.1844 83.4371 80.4151 83.7118C80.569 83.8877 80.7448 84.0415 80.7998 84.0415C80.8657 84.0415 80.9096 83.602 80.9096 82.9426C80.9096 82.1295 80.8767 81.8438 80.7778 81.8548C80.7009 81.8657 80.525 81.8877 80.3932 81.9097ZM81.6788 82.5031C81.6788 82.8108 81.7118 82.8327 82.0634 82.8327C82.4151 82.8327 82.448 82.8108 82.448 82.5031C82.448 82.1954 82.4151 82.1734 82.0634 82.1734C81.7118 82.1734 81.6788 82.1954 81.6788 82.5031Z" fill="white"/>
<path d="M37.8343 46.6471C37.3178 46.7899 36.6036 46.9768 36.2409 47.0647C35.8783 47.1416 35.2849 47.2954 34.9223 47.3943C34.5597 47.4932 33.9773 47.6361 33.6366 47.702C33.1092 47.8119 32.9993 47.8778 32.9553 48.1086C32.9224 48.2624 32.7905 48.4822 32.6696 48.6031C32.5268 48.7349 32.4389 48.9657 32.4499 49.1855V49.5371C33.3399 49.4492 34.4937 49.3723 35.5816 49.3173C36.6695 49.2514 37.6475 49.2074 37.7574 49.2074C37.8892 49.2074 37.9442 49.1195 37.9442 48.9108C37.9332 48.7349 38.0431 48.5042 38.1639 48.3833C38.2848 48.2624 38.3837 48.0866 38.3837 47.9987C38.3837 47.9108 38.5266 47.691 38.7134 47.5042C38.9661 47.2515 39.043 47.0757 39.043 46.768C39.043 46.5042 38.9881 46.3504 38.9002 46.3614C38.8342 46.3614 38.3507 46.4933 37.8343 46.6471ZM21.3953 58.1742C21.1645 58.372 20.8788 58.5478 20.7689 58.5478C20.6041 58.5478 20.5821 58.7126 20.5821 60.4708V62.3938C21.5162 62.3938 21.7689 62.3279 21.9777 62.174C22.1535 62.0422 22.3952 61.9433 22.5271 61.9543C22.7799 61.9543 22.7799 61.9323 22.7799 60.6686C22.7799 59.7016 22.7359 59.2401 22.593 58.8445C22.4832 58.5478 22.2744 58.1962 22.1095 58.0533L21.8348 57.8006L21.3953 58.1742ZM17.2745 61.6795C16.8899 62.0092 16.4724 61.6824 16.3955 61.6824C16.2856 61.6824 16.2856 62.8114 16.2856 64.5366C16.2856 66.2618 16.3185 66.7893 16.4284 66.7893C16.5053 66.7893 17.0328 67.3085 17.3844 67.0119C17.78 66.6712 17.9339 66.1328 18.0987 66.1328L18.3734 65.6904C18.3734 61.262 18.3624 61.0752 18.1866 61.0752C18.0767 61.0752 17.6701 61.3499 17.2745 61.6795ZM169.687 63.0641C169.423 63.3059 169.083 63.5037 168.951 63.4927H168.698C168.698 67.3717 168.709 67.4486 168.918 67.4486C169.039 67.4486 169.456 67.1739 169.83 66.8442C170.203 66.5145 170.599 66.2398 170.709 66.2398C170.885 66.2398 170.896 66.075 170.896 64.4267V62.6136C170.291 62.6246 170.05 62.7454 169.687 63.0641ZM13.0989 65.2509C12.7912 65.5256 12.4945 65.6794 12.3077 65.6904H12V69.8661C12.7143 69.8661 12.9121 70.6051 13.0989 70.4733C13.2637 70.3414 13.8351 70.0777 14.0329 70.0887L14.1977 69.4265V64.8113C13.7032 64.8113 13.4285 64.9651 13.0989 65.2509ZM165.456 66.6794C165.247 66.8991 165.028 67.009 164.83 67.009H164.522C164.522 70.888 164.533 70.9649 164.742 70.9649C164.863 70.9649 165.204 70.7671 165.489 70.5254C165.819 70.2507 166.127 70.0859 166.313 70.0859H166.61V66.3497C165.874 66.3497 165.698 66.4266 165.456 66.6794Z" fill="white"/>
<path opacity="0.14" d="M156.622 51.4822C156.896 51.5042 157.369 51.5042 157.665 51.4822C157.973 51.4602 157.742 51.4492 157.171 51.4492C156.6 51.4492 156.347 51.4602 156.622 51.4822Z" fill="white"/>
<path opacity="0.48" d="M166.676 65.196C166.676 68.8882 166.687 70.3717 166.698 68.4926C166.72 66.6136 166.72 63.6027 166.698 61.7896C166.687 59.9764 166.676 61.5039 166.676 65.196Z" fill="white"/>
<path opacity="0.99" d="M97.4257 28.9664C96.9751 29.373 96.7334 29.6807 96.7334 29.8455C96.7334 29.9994 96.8763 30.1862 97.118 30.362L97.5026 30.6367C98.7883 29.4829 99.1619 29.1313 99.1619 29.0983C99.1619 29.0653 98.9311 28.8785 98.6564 28.6917C98.3817 28.4939 98.1509 28.3291 98.1399 28.3291C98.118 28.3401 97.7993 28.6258 97.4257 28.9664ZM112.689 40.043C112.678 40.1639 112.601 40.3287 112.502 40.4166C112.403 40.5045 112.326 40.6803 112.326 40.8012C112.326 40.955 112.447 41.0649 112.744 41.1528C112.975 41.2298 113.194 41.2957 113.249 41.2957C113.293 41.2957 113.326 41.1858 113.326 41.043C113.326 40.9111 113.414 40.7133 113.524 40.6144C113.623 40.5045 113.678 40.3507 113.645 40.2847C113.612 40.2078 113.458 40.1089 113.315 40.076C113.172 40.032 112.975 39.9661 112.876 39.9221C112.755 39.8672 112.7 39.9001 112.689 40.043ZM143.105 45.7681C143.116 45.878 142.787 46.2516 142.391 46.5922C141.809 47.1087 141.677 47.2955 141.677 47.5592C141.677 47.779 141.732 47.8889 141.842 47.8889C141.93 47.8889 142.083 47.9108 142.171 47.9438C142.292 47.9878 142.336 47.9108 142.336 47.6142C142.336 47.2845 142.424 47.1526 142.941 46.7021C143.402 46.3065 143.545 46.1197 143.545 45.878C143.545 45.6582 143.49 45.5813 143.325 45.5813C143.182 45.5813 143.105 45.6582 143.105 45.7681ZM158.512 49.7679C158.501 49.8558 158.27 50.1086 157.995 50.3283C157.61 50.658 157.501 50.8228 157.501 51.0756C157.501 51.3723 157.534 51.4052 157.83 51.4052C158.127 51.4052 158.16 51.3723 158.16 51.0756C158.16 50.8228 158.259 50.658 158.599 50.3833C158.841 50.1965 159.039 49.9657 159.039 49.8888C159.039 49.8229 158.984 49.7569 158.929 49.7569C158.874 49.7569 158.753 49.724 158.676 49.691C158.588 49.658 158.522 49.691 158.512 49.7679Z" fill="white"/>
<path opacity="0.11" d="M170.962 65.6906C170.962 69.108 170.973 70.4926 170.983 68.7674C171.005 67.0422 171.005 64.2511 170.983 62.5588C170.973 60.8666 170.962 62.2731 170.962 65.6906ZM80.9316 81.1076L80.9646 83.5471L81.0196 78.767C81.7228 78.6901 81.7228 78.6901 81.3162 78.6791L80.9097 78.6572L80.9316 81.1076Z" fill="white"/>
<path opacity="0.15" d="M18.4282 61.8444C18.4282 63.6905 18.4502 64.4268 18.4612 63.4927C18.4832 62.5587 18.4832 61.0423 18.4612 60.1412C18.4502 59.2291 18.4282 59.9983 18.4282 61.8444ZM166.643 72.2617L166.621 72.7232L168.764 72.6792L166.731 72.6133L166.654 71.7892L166.643 72.2617Z" fill="white"/>
<path opacity="0.3" d="M164.467 68.4926C164.467 70.3716 164.489 71.1628 164.5 70.2507C164.522 69.3387 164.522 67.8113 164.5 66.8443C164.489 65.8773 164.467 66.6135 164.467 68.4926Z" fill="white"/>
<path opacity="0.34" d="M154.149 51.4822C154.512 51.5042 155.127 51.5042 155.523 51.4822C155.918 51.4602 155.622 51.4492 154.863 51.4492C154.105 51.4492 153.787 51.4602 154.149 51.4822Z" fill="white"/>
<path opacity="0.62" d="M24.0983 49.7789C23.8346 49.8339 23.6148 49.9218 23.6368 49.9877C23.6478 50.0427 23.8456 50.0866 24.0763 50.0866C24.351 50.0866 24.5378 50.0207 24.6587 49.8668C24.7686 49.746 24.7906 49.6471 24.7137 49.6581C24.6477 49.6691 24.373 49.713 24.0983 49.7789Z" fill="white"/>
<path d="M119.809 57.2621C119.82 57.4269 119.623 57.6687 119.205 58.0203C118.875 58.317 118.524 58.5478 118.436 58.5478C118.293 58.5478 118.271 58.7786 118.271 59.9763C118.271 61.0532 118.304 61.4048 118.414 61.4048C118.48 61.3938 118.853 61.1301 119.238 60.8005C119.667 60.4159 120.018 60.1961 120.194 60.1961C120.458 60.1961 120.469 60.1741 120.469 59.3719V58.5478H122.71C122.71 58.0423 122.677 57.8445 122.919 57.6467C123.117 57.4929 124.359 57.8913 123.172 57.2621C123.128 57.2182 122.853 57.1412 122.568 57.0973C122.293 57.0533 121.557 57.0204 120.941 57.0204C119.842 57.0094 119.809 57.0204 119.809 57.2511V57.2621ZM153.984 57.4819C153.984 57.5588 153.72 57.7236 153.534 57.8995C153.248 58.1742 153.325 58.372 153.325 58.8005C153.325 59.317 153.336 59.328 153.654 59.328C153.863 59.328 154.116 59.2071 154.347 58.9983C154.545 58.8115 154.819 58.6797 155.006 58.6687C155.171 58.6687 155.731 59.7044 155.303 58.5588C155.303 58.4928 155.072 58.2071 154.786 57.8995C154.49 57.6028 154.193 57.35 154.127 57.35C153.424 56.9023 153.984 57.416 153.984 57.4819ZM52.3612 58.4489C52.0755 58.7236 51.5041 58.166 51.3392 58.166L51.3503 58.8884V62.185C51.8338 62.174 52.1085 62.0422 52.3063 61.8554C52.581 61.6026 52.7788 61.5257 53.1084 61.5257H53.548C53.493 59.0862 53.4601 58.8884 53.2183 58.4709C53.0645 58.2181 52.9216 58.0093 52.8887 58.0093C52.8557 58.0093 52.6029 57.177 52.3612 58.4489ZM150.05 60.9763C149.863 61.1631 149.578 61.3059 149.424 61.3059C149.16 61.3059 149.149 61.3279 149.149 62.0751V62.8443C149.742 62.8334 149.984 62.7235 150.215 62.5147C150.446 62.3059 150.699 62.185 150.907 62.185H151.237V60.6466C150.523 60.6576 150.314 60.7455 150.05 60.9763ZM47.9438 62.24C47.6141 62.5147 47.2735 62.7345 47.2075 62.7345C47.0977 62.7345 47.0647 63.141 47.0647 64.3828C47.0647 65.6245 47.0977 66.0311 47.2075 66.0311C47.2735 66.042 47.6141 65.8223 47.9438 65.5476C48.3833 65.1849 48.6471 65.0531 48.9108 65.0421H49.2624V61.7455C48.6471 61.7455 48.3833 61.8773 47.9438 62.24ZM93.0851 62.5147C92.7335 62.8224 92.3708 63.0641 92.2829 63.0641C92.1401 63.0641 92.1181 63.2839 92.1181 64.3828C92.1181 65.4816 92.1401 65.7014 92.2829 65.7014C92.3708 65.7014 92.7444 65.4487 93.1071 65.152C93.4697 64.8443 93.8653 64.6025 93.9862 64.6025C94.1949 64.6025 94.2059 64.5256 94.2059 63.2839C94.2059 61.9872 94.2059 61.9653 93.9532 61.9653C93.8213 61.9653 93.4367 62.207 93.0741 62.5147H93.0851ZM108.337 67.2947C108.03 67.5695 107.722 67.7892 107.645 67.7892C107.546 67.7892 107.513 68.1409 107.513 69.1628C107.513 70.1848 107.546 70.5364 107.645 70.5364C107.722 70.5364 108.085 70.2837 108.447 69.987C108.81 69.6793 109.216 69.4375 109.348 69.4375C109.601 69.4375 109.601 69.4156 109.601 68.1189V66.8003C108.986 66.8112 108.744 66.9321 108.337 67.2947ZM139.116 70.3166C138.765 70.6243 138.512 70.7562 138.281 70.7562H137.952C137.952 72.4704 137.963 72.5143 138.193 72.5143C138.336 72.5143 138.677 72.3166 138.963 72.0748C139.325 71.7781 139.6 71.6353 139.82 71.6353H140.149C140.149 69.8991 140.138 69.8771 139.886 69.8771C139.732 69.8771 139.402 70.0639 139.116 70.3166ZM37.1859 71.4155C36.8343 71.7232 36.5925 71.844 36.3288 71.855C35.9881 71.855 35.9772 71.877 35.9772 72.2946V72.7341C34.9003 72.7341 34.8783 72.7451 34.8783 73.0308C34.8893 73.2066 34.7794 73.4374 34.6585 73.5583C34.5376 73.6791 34.4278 73.8879 34.4387 74.0198C34.4387 74.2615 34.4717 74.2725 35.3948 74.2396C36.1969 74.2176 36.4497 74.1626 36.8562 73.9209C37.131 73.767 37.4716 73.4704 37.6255 73.2726C37.7793 73.0638 37.9661 72.7671 38.043 72.5913C38.1199 72.4264 38.2078 71.9348 38.2078 71.5722C38.2078 70.9568 38.2188 70.8029 37.988 70.8029C37.8562 70.8029 37.4606 71.1737 37.1859 71.4155ZM81.9536 71.9649C81.7558 72.1847 81.5251 72.2946 81.3382 72.2946C81.1075 72.2946 81.0306 72.3495 81.0306 72.5143C81.0306 72.6902 80.9536 72.7341 80.7009 72.7341C80.4042 72.7341 80.3712 72.7671 80.3712 73.0638C80.3712 73.2836 80.298 73.4301 80.1515 73.5033C79.9976 73.5802 79.9317 73.7231 79.9317 73.9978V74.3824H83.2283V71.6353C82.3712 71.6353 82.2173 71.7012 81.9536 71.9649ZM75.2835 78.3713C75.0308 78.624 74.9978 78.7449 74.9868 79.4921C74.9868 80.0855 75.0308 80.3163 75.1297 80.3163C75.1956 80.3163 75.3714 80.2943 75.5143 80.2613C75.734 80.2064 75.756 80.1405 75.756 79.4372V78.668C76.3384 78.668 76.4153 78.7119 76.4153 78.8878C76.4153 79.0636 76.4923 79.1075 76.7999 79.1075C77.0966 79.1075 77.1845 79.0636 77.1845 78.9097C77.1955 78.8108 77.1076 78.613 76.9977 78.4812C76.8549 78.2944 76.6351 78.2174 76.1846 78.1625C75.6132 78.0966 75.5362 78.1185 75.2835 78.3713ZM95.8652 79.2724C95.8652 80.2284 95.8982 80.4262 96.03 80.4262C96.118 80.4262 96.2169 80.3822 96.2498 80.3163C96.2828 80.2503 96.4037 80.2064 96.5245 80.2064C96.7333 80.2064 96.7443 80.1295 96.7443 79.1625V78.1186H95.8652V79.2724ZM97.4146 78.602C97.4036 79.0965 97.4146 79.1075 97.7333 79.1075C98.052 79.1075 98.0629 79.0965 98.03 78.635C98.008 78.2284 97.975 78.1735 97.7113 78.1405C97.4366 78.1076 97.4146 78.1295 97.4146 78.602ZM71.2507 81.3602C71.2507 81.6019 71.1957 81.6349 70.8881 81.6349C70.7012 81.6349 70.3496 81.6789 70.1188 81.7228L69.7123 81.7997V84.0524H70.4815V82.1843C71.2946 82.1843 71.4814 82.1184 71.6573 81.9426C71.8001 81.7997 71.91 81.558 71.91 81.3822C71.91 81.1294 71.866 81.0855 71.5803 81.0855C71.3056 81.0855 71.2507 81.1294 71.2507 81.3602ZM90.7006 82.7338C90.7006 83.4041 90.7335 83.5359 90.9753 83.7777C91.217 84.0194 91.3379 84.0524 92.0741 84.0524H92.8983V82.1843H92.1291V83.503H91.4698V81.9646H90.7006V82.7338Z" fill="white"/>
<path d="M151.677 57.2401C151.644 57.383 151.193 57.8665 150.578 58.4049C150.006 58.9104 149.446 59.317 149.336 59.317C149.171 59.317 149.149 59.4378 149.149 60.3059C149.149 61.2839 149.149 61.2949 149.424 61.2949C149.578 61.2949 149.864 61.1521 150.061 60.9653C150.314 60.7345 150.523 60.6466 150.831 60.6356H151.237V58.5478C153.039 58.5478 153.424 58.5066 153.424 58.4407C153.424 58.3748 153.468 58.1192 153.655 57.9434C153.842 57.7566 153.984 57.5258 153.984 57.4159C153.984 57.317 153.896 57.2072 153.798 57.1742C153.688 57.1412 153.182 57.0753 152.666 57.0423C151.743 56.9764 151.721 56.9874 151.677 57.2401ZM122.909 57.6467L122.546 57.9434C122.7 60.4488 122.656 60.9681 122.656 60.9681C122.722 60.9681 123.348 60.7154 123.7 60.4187C124.04 60.111 124.37 59.7235 124.513 59.7016C124.689 59.6576 124.963 60.9681 124.755 59.3389C124.755 59.1741 124.601 58.7785 124.425 58.4599C124.238 58.1522 123.93 57.7676 123.744 57.6137C123.546 57.4709 123.359 57.35 123.326 57.35C123.293 57.35 123.106 57.4819 122.909 57.6467ZM93.0194 60.251C92.7117 60.5257 92.3711 60.7455 92.2832 60.7455C92.1513 60.7455 92.1183 60.9433 92.1183 61.8993C92.1183 62.8553 92.1513 63.0531 92.2832 63.0531C92.3711 63.0531 92.7337 62.8114 93.0853 62.5037C93.437 62.196 93.8216 61.9542 93.9644 61.9542C94.1952 61.9542 94.2062 61.9213 94.2062 60.8554V59.7565C93.7007 59.7565 93.404 59.9213 93.0194 60.251ZM119.205 60.8004C118.843 61.1301 118.48 61.4048 118.414 61.4048C118.304 61.4048 118.271 61.7674 118.271 62.8333V64.2619C118.81 64.2619 119.095 64.13 119.403 63.8773C119.678 63.6575 119.986 63.5036 120.172 63.4926H120.469V59.62C119.964 59.631 119.656 60.3939 119.205 60.8004ZM52.3175 61.8444C52.1087 62.0312 51.823 62.163 51.6582 62.174H51.3505C51.3505 64.9541 51.3615 65.0311 51.5703 65.0311C51.6912 65.0311 52.0208 64.8333 52.3175 64.5915C52.6801 64.2838 52.9329 64.152 53.1966 64.152H53.5482V61.5147C52.79 61.5147 52.5922 61.5916 52.3175 61.8444ZM47.977 65.5255C47.6583 65.8003 47.3177 66.02 47.2298 66.02C47.0979 66.02 47.0649 66.2288 47.0649 67.2837V68.5474C47.5594 68.5474 47.8671 68.3826 48.1968 68.1079C48.4935 67.8551 48.8231 67.6683 48.988 67.6683H49.2627V65.0311C48.6473 65.0311 48.3946 65.1629 47.977 65.5255ZM138.875 68.3826C138.567 68.6463 138.238 68.8661 138.128 68.8771C137.963 68.8771 137.941 68.998 137.941 69.8111V70.7451C138.501 70.7451 138.754 70.6133 139.095 70.3056C139.391 70.0419 139.699 69.8661 139.864 69.8661C140.139 69.8661 140.139 69.8551 140.139 68.8771V67.8881C139.512 67.8881 139.282 68.02 138.875 68.3826ZM82.2286 69.1188C82.2286 69.2617 82.0747 69.5364 81.8769 69.7232C81.6791 69.921 81.4044 70.0858 81.2616 70.0858C81.0308 70.0858 81.0198 70.1188 81.0198 71.1847V72.2836C81.5143 72.2836 81.7451 72.1627 81.9539 71.9539C82.2176 71.6792 82.3714 71.6242 82.745 71.6242H83.2175V68.8771C82.2835 68.8771 82.2286 68.8991 82.2286 69.1188ZM108.436 69.9759C108.074 70.2726 107.711 70.5254 107.634 70.5254C107.535 70.5254 107.502 70.932 107.502 72.1737C107.502 73.1956 107.546 73.822 107.612 73.822C107.667 73.822 108.008 73.5802 108.349 73.2725C108.773 72.9062 109.085 72.7231 109.283 72.7231H109.59C109.59 69.4375 109.59 69.4265 109.338 69.4265C109.206 69.4265 108.799 69.6683 108.436 69.9759ZM134.48 72.1187C134.172 72.3825 133.864 72.6022 133.787 72.6132C133.699 72.6132 133.655 72.855 133.655 73.4374V74.2615H135.853V71.6242C135.106 71.6242 134.919 71.7231 134.48 72.1187ZM78.0089 73.0198C77.8331 73.2066 77.7232 73.4154 77.7452 73.5472C77.7672 73.6681 77.976 73.8769 78.2177 74.0088C78.4595 74.1406 78.943 74.2725 79.2836 74.3055L79.965 74.3742C79.965 73.7149 80.2507 73.7369 80.4045 73.66C80.551 73.5867 80.6243 73.4402 80.6243 73.2204L80.7342 72.7259C78.7452 72.7259 78.2946 72.7341 78.0089 73.0198ZM101.415 78.3383C101.217 78.4811 101.107 78.657 101.118 78.8328C101.129 79.0635 101.184 79.0965 101.514 79.0965C101.821 79.0965 101.898 79.0526 101.898 78.8767C101.898 78.7559 101.953 78.657 102.008 78.657C102.063 78.657 102.118 78.5361 102.118 78.3822C102.118 78.1845 102.063 78.1075 101.92 78.1075C101.799 78.1075 101.58 78.2064 101.415 78.3383ZM71.3498 78.624C71.2289 78.668 71.196 78.9097 71.218 79.8767L71.2399 81.0745H71.8993C71.8993 78.6789 71.8773 78.5471 71.7015 78.5581C71.6026 78.5581 71.4377 78.591 71.3498 78.624ZM97.3929 80.6899C97.3929 82.2063 97.4039 82.2942 97.6346 82.503C97.7775 82.6129 97.9203 82.7118 97.9643 82.7228C98.0192 82.7228 98.0522 81.9096 98.0522 80.9096V79.0965H97.3929V80.6899ZM69.8664 79.8327C69.6686 79.8767 69.6466 79.9646 69.6796 80.8107C69.7015 81.6569 69.7235 81.7338 69.9213 81.7338C70.0422 81.7338 70.218 81.7118 70.3059 81.6788C70.4378 81.6349 70.4707 81.4261 70.4707 80.6899C70.4707 79.8657 70.4488 79.7558 70.2729 79.7668C70.174 79.7778 69.9872 79.7998 69.8664 79.8327ZM96.0962 80.3492C95.8655 80.4591 95.8545 80.536 95.8545 81.569C95.8655 82.5359 95.8874 82.7008 96.1072 82.9755L96.349 83.2722C96.7775 82.7997 96.7885 82.6568 96.7556 81.481C96.7336 80.3492 96.7006 80.1954 96.5358 80.2064C96.4369 80.2173 96.2391 80.2833 96.0962 80.3492ZM123.007 81.9206C122.996 82.1513 122.952 82.6019 122.909 82.9206C122.843 83.459 122.81 83.492 122.535 83.492C122.282 83.492 122.227 83.448 122.227 83.2172C122.227 82.9755 122.183 82.9425 121.843 82.9425H121.458V84.0414C122.996 84.0414 123.15 84.0084 123.414 83.7777C123.7 83.5249 123.711 83.459 123.711 82.5359V81.569C123.029 81.503 123.007 81.514 123.007 81.9206ZM65.9654 83.1623C65.9654 83.437 65.9214 83.492 65.6907 83.492C65.4709 83.492 65.416 83.5469 65.416 83.7667C65.416 83.9974 65.4709 84.0414 65.7566 84.0414C65.9874 84.0414 66.1962 83.9315 66.4159 83.7117C66.5917 83.5249 66.7346 83.2612 66.7346 83.1074C66.7346 82.8656 66.6906 82.8326 66.35 82.8326C65.9984 82.8326 65.9654 82.8546 65.9654 83.1623Z" fill="white"/>
<path d="M50.1636 57.2953C50.1526 57.4711 50.0757 57.6909 49.9768 57.7788C49.8779 57.8667 49.801 58.0755 49.812 58.2403C49.812 58.548 49.812 58.548 50.5812 58.548C51.1965 58.548 51.3504 58.5809 51.3504 58.7128C51.3504 58.8117 51.4493 58.8776 51.6251 58.8776C51.8009 58.8776 52.0866 58.7018 52.3943 58.4051C52.8009 58.0315 52.8668 57.9216 52.7569 57.7898C52.68 57.7128 52.4163 57.526 52.1745 57.3832C51.8888 57.2293 51.4602 57.1085 50.9548 57.0535L50.3504 57.0123L50.1636 57.2953ZM118.271 57.7788C118.271 58.3941 118.095 73.9348 118.315 74.2096C120.293 72.6712 120.458 58.5508 120.458 58.5508C120.875 58.1991 121.568 57.397 121.557 57.2321C121.557 57.0014 119.766 57.0096 119.04 57.0096H118.271V57.7788ZM154.336 58.9985C154.116 59.2073 153.863 59.3172 153.655 59.3172H153.325C153.325 60.5919 153.347 60.6358 153.567 60.6468C153.71 60.6468 154.05 60.449 154.336 60.2073C154.699 59.8996 154.962 59.7567 155.193 59.7567C155.49 59.7567 155.523 59.7238 155.523 59.4271C155.523 59.2512 155.468 58.9985 155.413 58.8776C155.347 58.7348 155.193 58.6579 154.995 58.6688C154.819 58.6688 154.556 58.8007 154.336 58.9985ZM47.9768 59.4271C47.6252 59.7347 47.2736 59.9765 47.1967 59.9765C47.0978 59.9765 47.0648 60.3281 47.0648 61.3501C47.0648 62.383 47.0978 62.7236 47.1967 62.7236C47.2736 62.7236 47.6142 62.5039 47.9439 62.2292C48.3834 61.8665 48.6472 61.7347 48.8999 61.7347H49.2625V58.57C48.7131 58.57 48.4274 59.0425 47.9768 59.4271ZM150.226 62.5039C149.984 62.7127 149.743 62.8335 149.501 62.8335H149.149C149.149 64.1412 149.16 64.1522 149.446 64.1522C149.651 64.1595 149.849 64.0496 150.039 63.8225C150.27 63.5588 150.402 63.4929 150.776 63.4929H151.237C151.237 62.1742 151.237 62.1742 150.908 62.1742C150.71 62.1742 150.457 62.2951 150.226 62.5039ZM108.491 64.9324C108.162 65.2291 107.799 65.4708 107.689 65.4708C107.524 65.4708 107.502 65.6027 107.502 66.6246C107.502 67.4817 107.535 67.7784 107.634 67.7784C107.711 67.7784 108.041 67.5477 108.348 67.2839C108.755 66.9433 109.03 66.7894 109.26 66.7894H109.59C109.59 64.4049 109.579 64.3719 109.337 64.3829C109.206 64.3829 108.821 64.6247 108.491 64.9324ZM93.1182 65.1411C92.7446 65.4488 92.3709 65.6906 92.283 65.6906C92.1512 65.6906 92.1182 65.8884 92.1182 66.7894C92.1182 67.7674 92.1402 67.8883 92.305 67.8883C92.4149 67.8883 92.7336 67.6905 93.0193 67.4488C93.3819 67.1521 93.6566 67.0092 93.8764 67.0092H94.206C94.206 64.6906 94.1951 64.5917 93.9973 64.5917C93.8764 64.5917 93.4808 64.8445 93.1182 65.1411ZM36.9992 68.7674C36.7025 69.0091 36.3509 69.2069 36.208 69.2069C35.9663 69.2069 35.9663 69.2289 35.9663 70.5256V72.3599C37.7134 72.2866 37.197 71.869 37.5486 71.5723C37.8453 71.3416 37.7794 70.9761 37.9112 70.9651C38.164 70.9651 38.164 70.9431 38.164 69.6465V68.3279C37.6365 68.3279 37.3508 68.4817 36.9992 68.7674ZM138.974 72.064C138.677 72.3057 138.325 72.5035 138.183 72.5035C137.952 72.5035 137.941 72.5475 137.941 73.3826V74.2617C138.556 74.2617 138.6 74.2287 138.6 73.965C138.589 73.7452 138.721 73.5365 139.095 73.1958C139.402 72.8991 139.688 72.7233 139.864 72.7233C140.117 72.7233 140.139 72.6903 140.139 72.1739C140.139 71.6464 140.128 71.6244 139.82 71.6244C139.611 71.6244 139.325 71.7783 138.974 72.064ZM32.6586 72.3415C32.3949 72.5613 31.9224 72.4376 31.8894 72.4596C31.8565 72.4816 32.1971 73.0969 32.351 73.2947C32.5048 73.4925 32.9004 73.8002 33.2301 73.965C33.5597 74.1299 33.9553 74.2617 34.1202 74.2617C34.3619 74.2617 35.0212 74.2975 35.0212 74.0997C35.0102 73.9569 34.7904 73.6712 34.9113 73.5503C35.0322 73.4294 36.0651 73.1657 36.0651 73.0008C36.0651 72.7151 34.8344 72.7233 34.3729 72.7233C33.9004 72.7233 33.8784 72.7123 33.8784 72.3936C33.8784 71.3084 33.8234 71.9569 33.4828 71.9569C33.2191 71.9569 32.9993 72.0558 32.6586 72.3415ZM92.0413 78.5253C92.0852 78.7451 92.1182 79.1736 92.1182 79.4593V79.9758H92.8874V78.1077H91.9754L92.0413 78.5253ZM76.4045 80.2066V81.3054H77.1737V79.1077H76.4045V80.2066ZM90.6897 80.8659V81.9647C91.4039 81.9647 91.4589 81.9318 91.4589 81.69C91.4589 81.4703 91.5138 81.4043 91.7556 81.3823C91.9754 81.3604 92.0633 81.2944 92.0852 81.1076C92.1072 80.8988 92.0633 80.8659 91.7885 80.8659C91.4589 80.8659 91.4589 80.8549 91.4589 80.3165V79.767H90.6897V80.8659ZM75.2177 80.2725C74.9759 80.3165 74.9759 80.3604 74.9759 81.4703C74.9759 82.1625 75.0199 82.6241 75.0858 82.6241C75.1408 82.6241 75.2946 82.5581 75.4375 82.4812C75.5693 82.4043 75.7451 82.2834 75.8221 82.2065C75.899 82.1296 75.9649 81.9757 75.9649 81.8549C75.9649 81.734 75.91 81.6351 75.855 81.6351C75.7891 81.6351 75.7451 81.3164 75.7451 80.9208C75.7451 80.4154 75.7012 80.2066 75.6023 80.2176C75.5254 80.2285 75.3496 80.2505 75.2177 80.2725ZM86.9536 83.1735C86.9536 83.4262 86.8986 83.5032 86.7338 83.5032C86.569 83.5032 86.514 83.5691 86.514 83.7779C86.514 83.9976 86.558 84.0526 86.8107 84.0416C86.9755 84.0416 87.1953 83.9867 87.2832 83.9097C87.3821 83.8328 87.525 83.668 87.5909 83.5251C87.6568 83.3933 87.7228 83.1845 87.7228 83.0636C87.7228 82.8878 87.6458 82.8438 87.3382 82.8438C86.9755 82.8438 86.9536 82.8658 86.9536 83.1735Z" fill="white"/>
<path d="M136.073 57.0753C135.996 57.1083 135.93 57.2402 135.941 57.372C135.963 57.5478 135.743 57.8006 135.084 58.35C134.6 58.7676 134.106 59.0972 133.985 59.0972C133.842 59.0972 133.743 59.1851 133.71 59.339C133.677 59.4818 133.655 60.273 133.655 61.0972C133.655 62.4707 133.49 74.2615 133.655 74.2615C133.765 74.2506 133.864 74.2863 134.194 73.9896C134.6 73.627 134.095 74.1105 134.304 74.0995L135.853 74.2615V58.5478C137.754 58.5478 137.941 58.5808 137.941 58.7126C137.941 58.8005 137.941 74.2615 137.941 74.2615C138.062 74.2615 140.128 74.2643 140.128 74.2643C140.128 74.2643 140.567 60.4736 139.292 57.7346C139.183 57.6248 138.908 57.438 138.677 57.3281C138.402 57.1852 137.941 57.0973 137.249 57.0643C136.699 57.0314 136.161 57.0424 136.073 57.0753ZM82.0087 59.6577C81.7889 59.8445 81.5032 59.9763 81.3164 59.9763H81.0197V62.5037C82.0966 62.5037 82.1186 62.4927 82.1186 62.196C82.1076 62.0312 82.1955 61.8114 82.3054 61.7125C82.4153 61.6026 82.668 61.5147 82.8548 61.5147H83.2174V59.317C82.5142 59.328 82.2834 59.4159 82.0087 59.6577ZM139.04 61.5147C138.732 61.7895 138.435 61.9433 138.238 61.9543H137.941C137.941 63.6685 137.952 63.7125 138.183 63.7125C138.325 63.7015 138.71 63.4597 139.04 63.163C139.369 62.8663 139.754 62.6246 139.886 62.6136C140.128 62.6136 140.127 64.4295 140.139 61.8444C140.139 61.0752 140.139 61.0752 139.831 61.0752C139.644 61.0752 139.358 61.229 139.04 61.5147ZM77.6242 63.3828C77.2506 63.6795 76.899 63.9322 76.844 63.9322C76.7781 63.9322 76.7341 64.3938 76.7341 65.086C76.7341 65.7783 76.7781 66.2398 76.844 66.2398C76.899 66.2398 77.2946 65.9432 77.7231 65.5805C78.1407 65.2179 78.5912 64.9212 78.7121 64.9212C78.9209 64.9212 78.9319 64.8443 78.9319 63.8773V62.8334C78.3934 62.8334 78.0857 62.9982 77.6242 63.3828ZM65.0862 63.7125C64.8115 63.9432 64.4818 64.141 64.339 64.152C64.0972 64.152 64.0972 64.174 64.0972 65.4706V66.7893C64.5258 66.7893 64.8444 66.6354 65.0862 66.4596C65.3499 66.2618 65.6576 66.13 65.8554 66.13H66.185V63.2729C65.6906 63.2729 65.4049 63.4268 65.0862 63.7125ZM134.699 65.1959C134.435 65.4267 134.139 65.5695 133.952 65.5805H133.655C133.655 67.1519 133.699 67.5585 133.765 67.5585C133.82 67.5585 134.183 67.2838 134.556 66.9541C135.029 66.5475 135.348 66.3607 135.545 66.3497C135.853 66.3497 135.853 66.3497 135.853 65.5805V64.8113C135.249 64.8113 135.007 64.9322 134.699 65.1959ZM123.568 68.1629C123.26 68.4376 122.919 68.6573 122.831 68.6573C122.689 68.6573 122.667 68.8991 122.667 70.1958V71.7342C123.15 71.7232 123.458 71.5693 123.733 71.3496C124.04 71.0968 124.326 70.965 124.535 70.965H124.864V67.6684C124.249 67.6684 123.996 67.8002 123.568 68.1629ZM119.172 71.899C118.865 72.1737 118.524 72.3935 118.436 72.3935C118.304 72.3935 118.271 72.5693 118.271 73.3275V74.2615H121.832C121.821 73.789 121.436 73.5611 121.557 73.4402C121.678 73.3193 123.161 73.0886 123.15 72.9457C123.15 72.7369 121.403 72.7231 120.963 72.7231H120.469V71.4045C119.854 71.4045 119.601 71.5364 119.172 71.899ZM60.0094 78.2175C59.7897 78.2614 59.5259 78.3933 59.438 78.5032C59.3172 78.657 59.2732 78.9867 59.2622 79.7778V80.8547H60.0314V78.657C60.7457 78.7119 60.7457 78.7119 60.7677 79.3383C60.8006 79.9647 60.8006 79.9756 61.1303 79.9756C61.383 79.9756 61.4709 79.9207 61.5149 79.7229C61.5478 79.591 61.5698 79.1735 61.5698 78.7889V78.1076C60.6797 78.1295 60.2292 78.1735 60.0094 78.2175ZM111.92 78.1845C111.392 78.2175 111.348 78.2394 111.348 78.4922C111.348 78.7339 111.392 78.7669 111.733 78.7669H112.118C112.118 80.9426 112.118 80.9646 112.359 80.9097C112.502 80.8767 112.678 80.8547 112.744 80.8547C112.854 80.8547 112.887 80.558 112.887 79.7559V78.657C113.612 78.657 113.656 78.624 113.656 78.3823C113.656 78.1186 113.623 78.1076 113.074 78.1295C112.766 78.1405 112.238 78.1625 111.92 78.1845ZM117.722 80.1954V81.0745H118.491V79.3163H117.722V80.1954ZM116.293 81.2943V82.1734H116.953V80.4152H116.293V81.2943ZM107.832 82.6679V84.0414H108.601V81.2943H107.832V82.6679ZM106.294 83.4371V84.0414H107.063V82.8327H106.294V83.4371Z" fill="white"/>
<path d="M35.1971 57.7787V58.5479H35.9663C35.9663 60.383 35.9334 61.2979 36.1751 61.2979C36.307 61.2869 36.7795 60.4408 37.1092 60.1441C37.4388 59.8474 38.0212 60.5397 38.164 60.5287C38.3179 59.3749 38.164 59.2732 38.164 59.2072C38.164 59.1413 38.0542 58.8666 37.9113 58.5809C37.7794 58.3062 37.4718 57.8996 37.23 57.6908C36.9883 57.471 36.6256 57.2293 36.4278 57.1524C36.241 57.0755 35.8784 57.0095 35.6367 57.0095H35.1971V57.7787ZM32.6368 60.3061C32.2961 60.6138 31.9335 60.8555 31.8456 60.8555C31.7027 60.8555 31.6807 61.1193 31.6807 62.5588C31.6807 63.6247 31.6587 65.1988 31.7247 65.1988C31.7906 65.1988 32.4389 64.1549 32.8235 63.8253C33.2851 63.4187 33.4938 63.5066 33.7026 63.4956L33.8785 63.0533V59.7567C33.373 59.7677 33.0653 59.9545 32.6368 60.3061ZM154.424 66.1301C154.116 66.4048 153.819 66.5586 153.633 66.5696H153.325V69.8662C153.819 69.8662 154.127 69.7014 154.457 69.4267C154.753 69.1739 155.083 68.9871 155.248 68.9871H155.523V65.6905C155.028 65.6905 154.742 65.8444 154.424 66.1301ZM150.138 69.7563C149.918 69.9431 149.622 70.086 149.457 70.086H149.149V73.3826C149.688 73.3826 149.94 73.2617 150.171 73.0529C150.406 72.8405 150.644 72.7306 150.885 72.7233H151.237V69.4267C150.644 69.4267 150.391 69.5476 150.138 69.7563Z" fill="white"/>
<path d="M134.941 57.4491C134.655 57.6359 134.281 58.0095 134.095 58.3062C133.908 58.5919 133.765 58.8886 133.765 58.9655C133.534 60.3089 133.864 59.0974 133.985 59.0974C134.106 59.0974 134.6 58.7677 135.084 58.3502C135.721 57.8227 135.974 57.548 135.963 57.3722C135.963 57.1854 136.666 56.9574 135.71 57.1194C135.578 57.1194 135.237 57.2733 134.941 57.4491ZM65.1739 60.3061C64.9322 60.5149 64.6904 60.6248 64.4487 60.6358H64.097C64.097 64.0752 64.108 64.1522 64.3168 64.1522C64.4377 64.1522 64.7673 63.9544 65.053 63.7126C65.3827 63.4379 65.6904 63.2731 65.8772 63.2731H66.1849V59.9765C65.6574 59.9765 65.4047 60.0974 65.1739 60.3061ZM82.2832 61.7127C82.1733 61.8226 82.0854 62.0533 82.0964 62.2072C82.1074 62.372 81.1074 62.5067 81.1733 62.5067C81.2503 62.5067 82.7667 62.4517 82.7667 62.4517H83.2062C83.2062 62.4517 83.3381 60.9682 83.0414 60.9682C82.8766 60.9682 82.3931 61.6028 82.2832 61.7127ZM139.04 63.1632C138.699 63.4709 138.325 63.7126 138.182 63.7126C137.952 63.7126 137.941 63.7566 137.941 64.4818V65.251C138.49 65.251 138.765 65.1082 139.116 64.8115C139.413 64.5697 139.754 64.3719 139.886 64.3719C140.127 64.3719 140.138 64.328 140.138 63.4928C140.138 62.6577 140.127 62.6138 139.886 62.6138C139.754 62.6138 139.38 62.8555 139.04 63.1632ZM77.7339 65.5807C77.3054 65.9433 76.8988 66.24 76.8438 66.24C76.7779 66.24 76.7339 66.7565 76.7339 67.5586C76.7339 68.6575 76.7559 68.8773 76.8988 68.8773C76.9867 68.8773 77.3273 68.6575 77.635 68.3828C78.0746 68.0092 78.3053 67.8883 78.569 67.8883H78.9317C78.9317 66.5257 78.9537 66.4598 79.1734 66.4048C79.3163 66.3719 79.7888 66.3499 80.2174 66.3499H81.0195V64.9214H78.5031L77.7339 65.5807ZM123.205 65.6934C123.029 65.8802 122.919 65.8032 122.809 65.8032C122.644 65.8032 122.677 66.4818 122.677 67.5037C122.677 68.3498 122.666 72.836 122.765 72.836C122.842 72.847 123.414 68.6053 123.754 68.3306C124.183 67.968 124.381 68.3416 124.633 68.3306C124.875 68.3306 124.875 67.6136 124.875 67.5037C124.875 67.4158 124.633 66.9653 124.348 66.5147C124.062 66.0532 123.622 65.2428 123.589 65.2538C123.556 65.2538 123.381 65.5175 123.205 65.6934ZM134.6 66.9543C134.237 67.2839 133.875 67.5476 133.798 67.5586C133.699 67.5586 133.666 67.8004 133.666 68.3828C133.666 68.9652 133.699 69.2069 133.798 69.2069C133.875 69.2069 134.358 68.8443 134.875 68.4048L135.809 67.6026C135.853 66.3609 135.842 66.3499 135.556 66.3499C135.347 66.3499 135.051 66.5477 134.6 66.9543ZM119.304 68.5504C118.941 68.8801 118.491 70.1849 118.414 70.1959C118.315 70.1959 118.282 70.4926 118.282 71.2948C118.282 72.0969 118.315 72.3936 118.414 72.3936C118.491 72.4046 118.82 72.1849 119.161 71.9101C119.59 71.5475 119.875 71.6382 120.128 71.6272L120.48 71.4047V68.9872C119.963 68.9872 119.754 68.1328 119.304 68.5504ZM52.2732 58.1112C51.9985 58.353 51.592 58.287 51.4491 58.276C51.2843 58.6606 51.3612 71.6464 51.3612 72.9431V74.2617H53.5589V70.7453C53.5589 59.265 52.6249 57.7925 52.2732 58.1112ZM122.216 78.2176C121.996 78.2616 121.732 78.3934 121.644 78.5033C121.546 78.6242 121.469 78.9319 121.469 79.2396V79.756H122.238C122.238 78.6901 122.249 78.6572 122.513 78.6572C122.732 78.6572 122.787 78.6022 122.787 78.3824C122.787 78.2286 122.743 78.1187 122.699 78.1187C122.655 78.1297 122.436 78.1737 122.216 78.2176ZM64.7124 78.4154C64.5915 78.5253 64.5146 78.7231 64.5256 78.8549C64.5366 79.0418 64.6135 79.0967 64.8772 79.0967C65.13 79.0967 65.2069 79.0527 65.2069 78.8769C65.2069 78.7304 65.2801 78.6572 65.4266 78.6572C65.5732 78.6572 65.6354 78.5949 65.6134 78.4703C65.5915 78.3385 65.4706 78.2616 65.2508 78.2396C65.0311 78.2176 64.8442 78.2835 64.7124 78.4154ZM107.953 78.4594C107.832 78.5583 107.799 78.8989 107.821 79.9428L107.843 81.2944H108.612C108.601 79.3934 108.546 78.822 108.469 78.6681C108.392 78.5143 108.282 78.3824 108.216 78.3605C108.15 78.3385 108.03 78.3824 107.953 78.4594ZM106.304 81.6241V82.8328H107.074V80.4153H106.304V81.6241ZM59.273 82.1735C59.273 83.4372 59.284 83.5031 59.5477 83.7669C59.6906 83.9207 59.8664 84.0416 59.9323 84.0416C59.9983 84.0416 60.0422 83.5251 60.0422 82.723V81.4043C60.5587 81.3604 60.6466 81.2834 60.6686 81.0966C60.6905 80.8659 60.6576 80.8549 59.9873 80.8549H59.273V82.1735ZM117.733 81.8439V82.6131H118.502V81.0747H117.733V81.8439ZM116.304 82.8878C116.304 83.5361 116.326 83.624 116.601 83.8218C116.766 83.9537 116.985 84.0526 117.095 84.0416C117.227 84.0416 117.293 83.9537 117.293 83.7669C117.293 83.613 117.216 83.4702 117.128 83.4372C117.007 83.3933 116.963 83.2174 116.963 82.7779C116.963 82.1845 116.952 82.1735 116.634 82.1735H116.304V82.8878ZM102.568 83.2724C102.568 83.3933 102.513 83.4922 102.458 83.4922C102.392 83.4922 102.348 83.613 102.348 83.7669C102.348 84.0196 102.381 84.0416 102.843 84.0416H103.337C103.337 83.0526 103.326 83.0526 102.953 83.0526C102.634 83.0526 102.568 83.0966 102.568 83.2724Z" fill="white"/>
<path d="M65.3498 57.2321C65.3498 57.4519 65.6025 57.7348 65.1959 58.0754C64.8663 58.3611 64.5366 58.5479 64.3718 58.5479C64.0971 58.5479 64.0971 58.5479 64.0971 59.5919V60.6358C64.6905 60.6248 64.9322 60.5149 65.174 60.3061C65.3937 60.0973 65.6465 59.9765 65.8553 59.9765H66.1849V58.5479H68.3827V57.0095H65.7454L65.3498 57.2321ZM123.71 62.9983C123.447 63.2291 123.15 63.3829 122.974 63.3829C122.666 63.3829 122.666 63.3939 122.666 64.1521V64.9213C121.095 64.9213 121.018 64.9433 121.018 65.1411C121.018 65.295 120.601 65.7235 119.787 66.4048C119.106 66.9872 118.491 67.4487 118.414 67.4487C118.304 67.4487 118.271 67.8004 118.271 68.8223C118.271 69.6684 118.315 70.1959 118.381 70.1959C118.447 70.1959 118.799 69.9322 119.183 69.6025C119.645 69.1959 119.963 68.9981 120.172 68.9981L120.469 68.9871L120.524 66.4048C123.051 66.3499 123.051 66.3499 123.414 65.9982C123.612 65.8004 124.018 65.24 124.315 64.7565C124.798 63.9763 124.864 63.8115 124.864 63.2511V62.6137C124.26 62.6247 124.018 62.7346 123.71 62.9983ZM139.127 64.8115C138.765 65.1191 138.501 65.251 138.27 65.251H137.941C137.941 67.1081 137.963 67.2399 138.138 67.2399C138.237 67.2399 138.479 67.0861 138.655 66.8993C138.941 66.6136 139.062 66.5696 139.567 66.5696H140.138C140.138 64.4049 140.138 64.3719 139.897 64.3719C139.754 64.3719 139.413 64.5697 139.127 64.8115ZM135.809 67.5037C135.776 67.6026 135.336 68.0201 134.842 68.4377C134.336 68.8663 133.875 69.2069 133.798 69.2069C133.699 69.2069 133.655 69.4596 133.655 70.086C133.655 70.7233 133.699 70.9761 133.798 70.9761C133.875 70.9761 134.084 70.8222 134.26 70.6464C134.523 70.3827 134.732 70.2948 135.227 70.2288L135.853 70.1409V68.8772H138.04C138.04 68.2839 137.117 68.0861 137.171 68.0531C137.237 68.0311 138.259 67.5256 138.259 67.3388H137.281C136.051 67.3388 135.853 67.3828 135.809 67.5037ZM77.6351 68.3828C77.3274 68.6575 76.9867 68.8772 76.8988 68.8772C76.767 68.8772 76.734 69.0311 76.734 69.5915V70.3058C77.3494 70.3168 77.5472 70.2179 77.7779 69.9761C78.0307 69.7234 78.2065 69.6465 78.5252 69.6465H78.9317V67.8883C78.3054 67.8883 78.0636 68.0201 77.6351 68.3828ZM52.3392 68.9981C52.0645 69.2399 51.7349 69.4267 51.603 69.4267C51.3613 69.4267 51.3503 69.4596 51.3503 70.5255C51.3503 71.5914 51.3613 71.6354 51.603 71.6354C51.7349 71.6354 52.0865 71.4376 52.3722 71.1958C52.7238 70.8882 52.9986 70.7453 53.2183 70.7453H53.548V68.5476C52.9326 68.5586 52.6909 68.6904 52.3392 68.9981ZM47.2076 58.0754C46.823 58.4051 47.1856 71.9019 47.1087 71.9019C47.0208 71.9019 47.0647 73.4485 47.0647 73.7672V74.2617H49.2624C49.2624 72.0749 49.2405 58.0754 48.9768 58.0754C48.8119 58.0754 47.6361 57.7128 47.2076 58.0754ZM65.5696 78.2725C65.6025 78.3714 65.6355 78.4923 65.6355 78.5472C65.6355 78.6132 65.7124 78.6571 65.8003 78.6571C65.9102 78.6571 65.9652 78.767 65.9652 78.9868C65.9652 79.2945 65.9981 79.3164 66.3498 79.3164H66.7344V78.1077C65.6025 78.1077 65.5036 78.1407 65.5696 78.2725ZM106.293 79.2615V80.4153H107.063L107.118 78.7121C107.634 78.6571 107.865 78.5582 107.975 78.4593C108.129 78.3165 108.14 78.2615 108.03 78.1956C107.953 78.1517 107.535 78.1187 107.096 78.1187L106.293 78.1077V79.2615ZM122.82 78.5802C122.864 78.8329 122.963 79.1077 123.029 79.1846C123.106 79.2725 123.304 79.3274 123.469 79.3274C123.754 79.3274 123.765 79.3055 123.765 78.7121V78.1077H122.743L122.82 78.5802ZM64.5366 80.0417C64.5366 80.5582 64.5916 80.9977 64.6465 81.0307C64.7124 81.0636 64.8553 81.0197 64.9762 80.9428C65.163 80.8329 65.1959 80.69 65.1959 79.9538V79.1077H64.5366V80.0417ZM121.458 80.2285C121.447 80.5362 121.535 80.8109 121.678 80.9977C121.798 81.1735 122.007 81.3054 122.15 81.3054C122.37 81.3054 122.381 81.2724 122.304 80.9538C122.26 80.756 122.227 80.4043 122.227 80.1736C122.227 79.778 122.216 79.767 121.842 79.767C121.469 79.767 121.458 79.778 121.458 80.2285ZM101.129 82.7559C101.129 83.4482 101.162 83.591 101.371 83.7998C101.524 83.9537 101.766 84.0525 101.986 84.0525C102.294 84.0525 102.338 84.0196 102.338 83.7778C102.338 83.5581 102.283 83.5031 102.063 83.5031C101.799 83.5031 101.788 83.4811 101.788 82.7339V81.9647H101.129V82.7559ZM60.7785 82.8108C60.7456 83.4372 60.7456 83.4482 60.3939 83.4702C60.0862 83.4921 60.0313 83.5361 60.0313 83.7668C60.0313 84.0416 60.0533 84.0416 60.8005 84.0416H61.5697V82.1735H60.8115L60.7785 82.8108ZM102.557 82.624C102.557 83.0526 102.568 83.0636 102.942 83.0636C103.316 83.0636 103.327 83.0526 103.327 82.624C103.327 82.1955 103.316 82.1845 102.942 82.1845C102.568 82.1845 102.557 82.1955 102.557 82.624ZM117.722 83.0636C117.722 83.4262 117.689 83.5031 117.502 83.5031C117.348 83.5031 117.282 83.58 117.282 83.7778C117.282 84.0086 117.337 84.0525 117.623 84.0525C117.831 84.0525 118.051 83.9536 118.227 83.7778C118.425 83.58 118.491 83.3822 118.491 83.0636C118.491 82.635 118.48 82.624 118.106 82.624C117.733 82.624 117.722 82.635 117.722 83.0636Z" fill="white"/>
<path d="M78.8659 57.1084C78.6132 57.1414 78.1956 57.3282 77.9319 57.515C77.6681 57.6908 77.2945 58.0864 77.1187 58.3831L76.789 58.9106C76.7451 63.0423 76.7781 63.9324 76.844 63.9324C76.8989 63.9324 76.3935 72.7261 76.9979 72.6162C77.4704 72.2206 78.7011 73.3854 78.9318 73.3854V62.8335V58.5479H79.9757H81.0197C81.0197 59.9655 80.9538 61.0232 81.3933 60.0342C81.5691 60.0342 81.8878 60.166 82.1076 59.9792C82.3823 59.7375 82.5251 59.7705 82.8218 59.7595L83.2174 59.3171V57.0095C80.1955 57.0315 79.1076 57.0645 78.8659 57.1084ZM138.93 58.438C138.655 58.6688 138.325 58.8666 138.194 58.8776C137.941 58.8776 137.941 58.8996 137.941 60.416V61.9544C138.38 61.9544 138.71 61.7676 139.018 61.5149C139.336 61.2401 139.644 61.0753 139.842 61.0753L140.128 61.7374C140.128 59.9133 140.095 59.0095 139.864 58.5479C139.71 58.2512 139.556 57.9985 139.512 57.9985C138.919 57.1771 139.204 58.1963 138.93 58.438ZM134.644 62.0643C134.315 62.361 133.952 62.6137 133.853 62.6137C133.677 62.6137 133.655 62.7566 133.655 64.0972V65.5807C134.084 65.5807 134.413 65.4048 134.677 65.1961C134.985 64.9433 135.26 64.8224 135.501 64.8115H135.853V61.5149C135.347 61.5259 135.051 61.7017 134.644 62.0643ZM65.24 57.4519C65.0203 57.6387 64.273 57.8365 64.0972 57.8365V66.7894V74.2617H66.185V66.1301C66.3389 57.4519 65.4928 57.2431 65.24 57.4519ZM124.414 70.0888C124.15 70.3195 123.392 71.1327 123.205 71.1327C122.93 71.1327 122.667 70.5833 122.667 72.2288V72.7233C121.513 72.7233 121.458 72.7452 121.458 72.976C121.469 73.1079 121.359 73.3167 121.238 73.4375C121.117 73.5584 121.007 73.7892 121.018 73.965C121.018 74.2617 121.029 74.2617 121.766 74.2617C122.172 74.2617 122.722 74.1957 122.996 74.0968C123.271 74.0089 123.678 73.7672 123.908 73.5474C124.128 73.3386 124.414 72.976 124.524 72.7562C124.645 72.5145 124.754 72.042 124.776 71.6574L124.815 71.2852L124.853 70.9129C124.315 70.9239 124.7 69.847 124.414 70.0888ZM116.579 78.3385C116.282 78.5582 116.271 78.6022 116.282 79.4923L116.293 80.4153H116.952L117.007 78.7121C117.7 78.6571 117.722 78.6791 117.722 78.9868C117.722 79.2945 117.755 79.3164 118.106 79.3164C118.447 79.3164 118.491 79.2835 118.491 79.0198C118.502 78.822 118.381 78.5912 118.194 78.4044C117.941 78.1626 117.788 78.0967 117.381 78.1077C117.044 78.1077 116.777 78.1846 116.579 78.3385ZM112.282 80.9318C112.074 80.9757 112.063 81.0636 112.096 82.5141L112.117 84.0416H112.887C112.887 80.9977 112.865 80.8549 112.7 80.8658C112.59 80.8768 112.403 80.8988 112.282 80.9318Z" fill="white"/>
<path d="M61.8996 57.7787V58.5479H64.1413C64.1413 58.0425 63.482 57.8666 63.5479 57.8337C63.6138 57.8007 63.6578 57.6029 63.6578 57.3941V57.0095H61.8996V57.7787ZM93.437 57.3062C93.448 57.537 93.3051 57.7458 92.9425 58.0754C92.6678 58.3392 92.3711 58.5479 92.2832 58.5479C92.1513 58.5479 92.1183 58.7457 92.1183 59.6468C92.1183 60.5479 92.1513 60.7457 92.2832 60.7457C92.3711 60.7457 92.7117 60.5259 93.0304 60.2512C93.404 59.9215 93.7007 59.7567 93.9095 59.7567H94.2062V57.0095C93.4699 57.0095 93.437 57.0425 93.437 57.3172V57.3062ZM150.138 57.3282C150.138 57.559 150.061 57.7018 149.864 57.8227C149.71 57.9106 149.49 57.9875 149.369 57.9875C149.171 57.9875 149.149 58.0644 149.149 58.6468C149.149 59.1963 149.182 59.3061 149.347 59.3061C149.446 59.3061 150.006 58.8996 150.578 58.3941C151.226 57.8337 151.633 57.3941 151.655 57.2403C151.677 57.0095 151.633 56.9985 150.908 56.9985H150.138V57.3282ZM123.854 60.1303C123.535 60.405 123.139 60.6907 122.963 60.7676L122.667 60.8995V63.3719C122.667 65.5835 123.612 63.5396 123.865 63.3308C124.183 63.0781 124.623 63.122 124.854 63.111L124.864 62.6027C124.864 59.7237 124.853 59.6358 124.645 59.6358C124.535 59.6358 124.172 59.8556 123.854 60.1303ZM119.425 63.8664C119.128 64.1192 118.876 64.24 118.623 64.251H118.271V66.5586C118.909 66.5586 119.15 66.4158 119.722 65.8993L120.469 65.24V63.4818C119.986 63.4818 119.689 63.6357 119.425 63.8664ZM52.3395 64.5807C52.0648 64.8115 51.7351 65.0092 51.5923 65.0202C51.3505 65.0202 51.3505 65.0422 51.3505 66.3389V67.6575C51.7791 67.6575 52.0977 67.5037 52.3395 67.3279C52.6325 67.1081 52.9072 66.9982 53.1636 66.9982H53.5482V64.1411C52.9329 64.1411 52.7021 64.262 52.3395 64.5807ZM138.644 66.8883C138.468 67.0751 138.238 67.218 138.139 67.218C137.985 67.218 137.941 67.3059 137.941 67.6026C137.941 67.8114 137.886 68.0091 137.831 68.0421C137.776 68.0751 137.721 68.2729 137.721 68.4817C137.721 68.8223 137.754 68.8663 137.996 68.8663C138.161 68.8663 138.501 68.6685 138.853 68.3718C139.271 68.0201 139.523 67.8883 139.787 67.8773H140.139V66.5586C139.051 66.5586 138.93 66.6026 138.644 66.8883ZM48.1638 68.0971C47.8451 68.3828 47.5594 68.5366 47.3616 68.5366H47.0649V71.1739C47.7243 71.1739 47.933 71.075 48.1858 70.8442C48.4275 70.6318 48.6656 70.5219 48.9 70.5146H49.2627V67.6575C48.7682 67.6685 48.4715 67.8223 48.1638 68.0971ZM81.0198 69.4706C81.0198 70.0201 80.9649 72.1079 81.0198 72.7123C80.844 73.8799 82.9099 74.4623 83.0967 74.2645C83.2945 74.0667 83.2066 69.1767 83.2066 69.0449C83.2066 68.8141 82.1736 68.8663 81.6242 68.8663H81.0198V69.4706ZM134.842 70.2618C134.677 70.2838 134.403 70.4486 134.238 70.6354C134.073 70.8112 133.864 70.9541 133.787 70.9541C133.699 70.9541 133.655 71.1958 133.655 71.7782C133.655 72.2508 133.699 72.6024 133.765 72.6024C133.82 72.6024 134.139 72.3826 134.447 72.1079C134.908 71.7233 135.117 71.6244 135.436 71.6134H135.853V70.1849C135.304 70.2069 135.007 70.2398 134.842 70.2618ZM77.6903 71.064C77.3496 71.3717 76.987 71.6134 76.8991 71.6134C76.7892 71.6134 76.7343 71.7233 76.7343 71.9431C76.7343 72.1189 76.8112 72.4376 76.9211 72.6354C77.02 72.8222 77.2068 73.1189 77.3276 73.2947C77.4595 73.4595 77.5914 73.5914 77.6353 73.5914C77.6903 73.5914 78.0419 73.9458 78.0419 73.8799C78.0419 73.803 78.0419 73.3414 78.2068 73.1656C78.3936 72.9788 78.4375 72.7123 78.6243 72.7123H78.932V70.5146C78.4265 70.5255 78.1188 70.7123 77.6903 71.064ZM108.382 73.2617C108.052 73.5584 107.623 71.6712 107.546 71.6821C107.48 71.6821 107.502 73.91 107.502 74.0309C107.502 74.2397 107.579 74.2507 108.546 74.2507H109.59C109.59 72.7123 109.59 72.7123 109.283 72.7123C109.085 72.7123 108.799 72.8881 108.382 73.2617ZM70.196 78.2286C70.0751 78.2945 69.9213 78.4374 69.8444 78.5253C69.7675 78.6242 69.7015 78.9648 69.7015 79.2725C69.7015 79.8219 69.7125 79.8549 69.9433 79.7999C70.0861 79.767 70.262 79.745 70.3279 79.745C70.4231 79.745 70.4707 79.5619 70.4707 79.1956V78.6461C71.196 78.6352 71.4927 78.6022 71.6136 78.5582C71.7784 78.4923 71.7894 78.4593 71.6685 78.3495C71.5806 78.2835 71.2619 78.1956 70.9652 78.1626C70.6246 78.1187 70.3389 78.1407 70.196 78.2286ZM102.118 78.3714C102.118 78.5692 102.173 78.6461 102.338 78.6461C102.536 78.6461 102.558 78.7231 102.558 79.3604V80.0747H103.327V78.0967C102.151 78.0967 102.118 78.1077 102.118 78.3714ZM101.129 79.9648V80.8439H101.898V79.0857H101.129V79.9648ZM65.6357 81.0636C65.6357 81.1845 65.7127 81.3054 65.8006 81.3384C65.9214 81.3823 65.9654 81.5691 65.9654 82.1076V82.8218H66.7346C66.6797 81.3603 66.6467 81.2395 66.4049 81.0527C66.2511 80.9318 66.0203 80.8329 65.8775 80.8439C65.7127 80.8439 65.6357 80.9098 65.6357 81.0636ZM122.337 81.0636C122.337 81.2285 122.414 81.2834 122.612 81.2834C122.766 81.2834 122.909 81.3274 122.941 81.3933C122.974 81.4482 123.15 81.5032 123.326 81.5032C123.502 81.5032 123.656 81.4702 123.656 81.4153C123.656 81.3713 123.546 81.2285 123.414 81.0966C123.245 80.9281 123.022 80.8439 122.744 80.8439C122.414 80.8439 122.337 80.8878 122.337 81.0636ZM97.1511 82.6021C97.0742 82.7229 96.9863 82.7999 96.9533 82.7669C96.9204 82.7339 96.7885 82.8218 96.6457 82.9647C96.4369 83.1515 96.4149 83.2504 96.4918 83.4262C96.5578 83.5471 96.6896 83.7339 96.7995 83.8438C96.9973 84.0306 97.0303 84.0196 97.4698 83.4262C97.9313 82.8438 97.9313 82.8108 97.7445 82.6021C97.6456 82.4702 97.5028 82.3713 97.4259 82.3823C97.3489 82.3823 97.2281 82.4812 97.1511 82.6021ZM64.5369 83.4811V84.0306C65.372 84.0306 65.416 83.9976 65.416 83.7559C65.416 83.602 65.361 83.4811 65.3061 83.4811C65.2401 83.4811 65.1962 83.3603 65.1962 83.2064C65.1962 82.9757 65.1412 82.9317 64.8665 82.9317C64.5479 82.9317 64.5369 82.9427 64.5369 83.4811Z" fill="white"/>
<path d="M33.1311 57.3282C32.8014 57.504 32.4278 57.8117 32.296 58.0205C32.1531 58.2183 31.9883 58.493 31.9223 58.6358C31.8454 58.7677 31.7575 59.3281 31.7136 59.8666C31.6366 60.7676 31.6037 61.7924 31.7795 61.7924C31.8784 61.7924 32.307 60.6138 32.6696 60.3061C33.0762 59.9655 33.4827 60.4737 33.6476 60.4737C33.9113 60.4737 33.8783 59.7237 33.8783 59.1523V58.5479H35.197V57.0095C33.8454 57.0095 33.6146 57.0645 33.1311 57.3282ZM154.424 69.4267C154.105 69.7124 153.819 69.8662 153.621 69.8662H153.325C153.325 72.7013 153.325 72.7233 153.567 72.7233C153.709 72.7233 154.05 72.5255 154.336 72.2837C154.698 71.987 154.973 71.8442 155.193 71.8442H155.523V68.9871C155.028 68.9981 154.731 69.152 154.424 69.4267ZM151.061 66.1329C150.841 66.3417 149.688 73.3826 149.479 73.3826C149.171 73.3826 149.149 73.4046 149.149 73.8221V74.2617H151.237V66.023C150.644 66.023 151.303 65.9131 151.061 66.1329Z" fill="white"/>
<path d="M47.0648 58.493C47.0648 59.6028 47.0977 59.9765 47.2076 59.9765C47.2735 59.9765 47.6252 59.7237 47.9768 59.427C48.4273 59.0314 48.6911 58.8776 48.9328 58.8776C49.1526 58.8776 49.2625 58.8226 49.2625 58.7128C49.2625 58.6139 49.3614 58.5479 49.5372 58.5479C49.768 58.5479 51.1196 58.5287 51.1196 58.276C51.1086 58.1112 49.8778 57.8666 49.9767 57.7787C50.0756 57.6908 50.4163 57.5727 50.4053 57.3969L50.3504 57.0095H47.0648V58.493ZM154.314 60.2072C154.039 60.449 153.709 60.6468 153.578 60.6358C153.336 60.6358 153.325 60.6797 153.325 61.405C153.325 62.1742 153.325 62.1742 153.633 62.1742C153.819 62.1632 154.116 62.0093 154.424 61.7346C154.731 61.4599 155.028 61.3061 155.226 61.2951C155.523 61.2951 155.523 61.2951 155.523 60.5259V59.7567C154.907 59.7677 154.665 59.8885 154.314 60.2072ZM108.601 62.6137C108.282 62.8994 107.997 63.0533 107.81 63.0533H107.502C107.502 65.3389 107.524 65.4708 107.7 65.4708C107.799 65.4708 108.173 65.218 108.524 64.9213C108.865 64.6137 109.249 64.3719 109.37 64.3719C109.579 64.3719 109.59 64.295 109.59 63.273C109.59 62.2071 109.579 62.1742 109.348 62.1742C109.205 62.1852 108.876 62.383 108.601 62.6137ZM150.072 63.8225C149.874 64.0422 149.644 64.1521 149.457 64.1521C149.149 64.1521 149.149 64.1521 149.149 64.9213C149.149 65.6905 149.149 65.6905 149.457 65.6905C149.633 65.6905 149.918 65.5587 150.138 65.3719C150.391 65.1521 150.644 65.0422 150.885 65.0312H151.237V63.4928C150.501 63.4928 150.325 63.5697 150.072 63.8225ZM37.0651 65.9213C36.7354 66.2143 36.4717 66.3572 36.2739 66.3499H35.9662C35.9662 69.1849 35.9662 69.2069 36.219 69.2069C36.3508 69.2069 36.6915 69.0091 36.9882 68.7674C37.3398 68.4707 37.6145 68.3278 37.8343 68.3278H38.164V65.4708C37.6695 65.4818 37.3838 65.6356 37.0651 65.9213ZM92.9972 67.4487C92.7225 67.6905 92.4149 67.8883 92.316 67.8883C92.1401 67.8883 92.1182 68.0091 92.1182 68.8223C92.1182 69.3717 92.1621 69.7563 92.228 69.7563C92.294 69.7563 92.6017 69.5366 92.9203 69.2618C93.3379 68.9102 93.5906 68.7783 93.8544 68.7674H94.206V67.0092C93.5906 67.0202 93.3489 67.141 92.9972 67.4487ZM32.8674 69.5366C32.6037 69.7673 32.3949 69.8552 32.0982 69.8662H31.6807C31.7356 71.7892 31.8125 72.3387 31.9114 72.5365C31.9993 72.7013 32.0982 72.8332 32.1532 72.8332C32.1971 72.8332 32.4279 72.6573 32.6696 72.4486C32.9883 72.1628 33.2081 72.064 33.4938 72.064H33.8784V69.2069C33.3509 69.2069 33.0982 69.3278 32.8674 69.5366ZM96.6235 72.8002C95.6125 73.6243 95.4807 73.7782 95.5027 74.0529L95.5246 74.3716H98.6015V71.8442C97.8323 71.8442 97.6125 71.976 96.6235 72.8002ZM139.095 73.1738C138.732 73.5035 138.6 73.7122 138.6 73.943V74.2617H140.138C140.138 72.7452 140.128 72.7233 139.864 72.7233C139.688 72.7233 139.402 72.8991 139.095 73.1738ZM91.305 78.2176C91.1402 78.2725 90.9314 78.4044 90.8435 78.5143C90.7666 78.6242 90.6896 78.9428 90.6896 79.2395V79.756H91.4588C91.4588 78.6901 91.4808 78.6571 91.7336 78.6571C91.9533 78.6571 92.0083 78.6022 92.0083 78.3824C92.0083 78.1956 91.9533 78.1077 91.8215 78.1187C91.7116 78.1187 91.4808 78.1736 91.305 78.2176ZM86.9535 81.7339V82.8328H87.7227V80.6351H86.9535V81.7339ZM76.4044 81.4592C76.4044 81.5471 76.3055 81.6241 76.1846 81.6241C76.0198 81.6241 75.9649 81.701 75.9649 81.8988C75.9649 82.0966 76.0198 82.1735 76.1846 82.1735C76.3714 82.1735 76.4044 82.2504 76.4044 82.7229V83.2724H77.1736V81.2944C76.5253 81.2944 76.4044 81.3493 76.4044 81.4592ZM85.4151 82.7229C85.4151 83.0306 85.47 83.3822 85.547 83.5251C85.6129 83.657 85.7448 83.8218 85.8437 83.8987C85.9426 83.9756 86.1294 84.0416 86.2722 84.0416C86.459 84.0416 86.514 83.9756 86.514 83.7668C86.514 83.591 86.448 83.4921 86.3491 83.4921C86.2173 83.4921 86.1843 83.3493 86.1843 82.8328V82.1735H85.4151V82.7229ZM75.2176 82.5471C75.0089 82.657 74.9759 82.7559 74.9759 83.3603V84.0416H75.7451C75.7451 82.624 75.7011 82.3933 75.6132 82.4043C75.5363 82.4152 75.3605 82.4812 75.2176 82.5471Z" fill="white"/>
<path d="M107.502 57.7238V58.438C107.502 59.21 107.414 74.3634 107.656 74.1546C107.876 73.9458 109.37 74.2095 109.579 74.2095C109.579 74.0447 109.59 57.7458 109.59 57.3941V57.0095H107.502V57.7238ZM108.645 60.3061C108.403 60.5589 108.228 60.6358 107.909 60.6358L108.261 60.5841V61.0753C108.755 61.0753 108.304 62.8884 108.634 62.6137C108.92 62.372 109.249 62.1742 109.37 62.1742C109.579 62.1742 109.59 62.0973 109.59 61.0753V59.9765C109.085 59.9765 108.854 60.0973 108.645 60.3061ZM154.424 61.7346C154.105 62.0093 153.819 62.1742 153.622 62.1742C153.325 62.1742 153.325 62.1742 153.325 62.9434V63.7126C153.874 63.7126 154.149 63.5697 154.501 63.273C154.797 63.0313 155.138 62.8335 155.27 62.8335C155.512 62.8335 155.523 62.7895 155.523 62.0643C155.523 61.2951 155.523 61.2951 155.215 61.2951C155.028 61.2951 154.742 61.4599 154.424 61.7346ZM37.0211 63.7126C36.7135 63.9763 36.4058 64.1521 36.2409 64.1521H35.9662V66.3499C36.4607 66.3608 36.7574 66.207 37.0981 65.9103C37.3948 65.6576 37.7244 65.4708 37.8892 65.4708H38.164V63.273C37.6255 63.273 37.3618 63.4159 37.0211 63.7126ZM150.138 65.3719C149.918 65.5587 149.633 65.6905 149.446 65.6905H149.149C149.149 67.3718 149.171 67.4487 149.369 67.4487C149.49 67.4487 149.819 67.2509 150.105 67.0092C150.435 66.7345 150.743 66.5696 150.929 66.5696C151.237 66.5696 151.237 66.5696 151.237 65.8004V65.0312C150.644 65.0422 150.391 65.1521 150.138 65.3719ZM32.9334 66.7373C32.6917 66.946 32.2961 67.3856 32.0543 67.3966L31.6807 67.6685V69.8662C32.4389 69.9789 32.6807 69.88 32.9334 69.6492C33.1642 69.4405 33.329 69.4844 33.5378 69.4844L33.8784 69.2069V67.0092C33.2301 67.0092 33.1862 66.5065 32.9334 66.7373ZM92.9423 69.2618C92.6346 69.5256 92.3269 69.7453 92.25 69.7563C92.1511 69.7563 92.1182 70.042 92.1182 70.8003C92.1182 71.5585 92.1511 71.8442 92.25 71.8442C92.3269 71.8442 92.6896 71.6024 93.0522 71.2947C93.4148 70.9871 93.8214 70.7453 93.9533 70.7453C94.195 70.7453 94.206 70.7123 94.206 69.7563V68.7674C93.5796 68.7674 93.3489 68.8992 92.9423 69.2618ZM96.4037 71.7892V72.7233C94.162 72.7233 94.0741 72.7343 93.7115 73.0309C93.4258 73.2397 93.3159 73.4156 93.3269 73.6353C93.3269 73.8661 93.4038 73.965 93.6785 74.0859C93.8763 74.1738 94.3708 74.2837 94.7884 74.3386L95.5686 74.3744C95.5576 73.759 95.9642 74.0996 96.9422 73.2755C97.9202 72.4404 98.0191 72.7233 98.3707 72.7233L98.6015 71.8442V70.8552H96.4037V71.7892ZM87.0194 78.4703C86.9865 78.6022 86.9535 79.1406 86.9535 79.6791V80.6351H87.7227C87.7337 78.9868 87.6897 78.767 87.5029 78.5253C87.3821 78.3494 87.2392 78.2176 87.1843 78.2176C87.1293 78.2176 87.0524 78.3275 87.0194 78.4703ZM85.4151 81.0746V82.1735H86.1843V79.9758H85.4151V81.0746ZM76.4044 83.657C76.4044 84.0196 76.4264 84.0416 76.789 84.0416C77.1516 84.0416 77.1736 84.0196 77.1736 83.657C77.1736 83.2943 77.1516 83.2724 76.789 83.2724C76.4264 83.2724 76.4044 83.2943 76.4044 83.657Z" fill="white"/>
<path d="M155.292 58.9901C155.017 59.2319 153.457 58.4407 153.314 58.4407C153.314 58.4407 153.325 72.7671 153.325 73.4923V74.2615H155.523V59.5395C154.907 59.5505 155.644 58.6824 155.292 58.9901Z" fill="white"/>
<path d="M108.579 58.1082C108.337 58.317 108.096 58.4269 107.865 58.4379H107.502V60.6356C108.228 60.6356 108.403 60.5587 108.656 60.3059C108.865 60.0972 109.096 59.9763 109.293 59.9763H109.59V57.7786C109.063 57.7786 108.81 57.8994 108.579 58.1082ZM37.0651 59.8664C36.7244 60.1741 36.3508 60.4158 36.208 60.4158C35.9662 60.4158 35.9662 60.4158 35.9662 62.2839V64.152C36.4058 64.152 35.8454 67.3387 35.9662 70.4183C36.1751 70.8578 37.9113 71.5721 38.208 71.5721V63.7702C38.208 61.0889 38.2519 59.7016 38.2189 59.5587C38.1859 59.3939 38.087 59.317 37.9112 59.317C37.7794 59.317 37.4057 59.5587 37.0651 59.8664ZM154.534 63.2729C154.182 63.5806 153.94 63.7014 153.676 63.7124H153.325V66.5695C153.764 66.5695 154.094 66.3827 154.402 66.1299C154.72 65.8552 155.028 65.6904 155.215 65.6904H155.523C155.523 62.8553 155.523 62.8333 155.27 62.8333C155.138 62.8333 154.808 63.0311 154.534 63.2729ZM32.6147 63.6575C32.2521 63.9871 31.8894 64.2509 31.8125 64.2619C31.7136 64.2619 31.6807 64.6794 31.6807 65.9651V67.6683C32.2741 67.6573 32.5158 67.5475 32.7466 67.3387C33.0103 67.1079 33.2191 67.009 33.4938 67.009H33.8784V63.0531C33.3619 63.0531 33.0762 63.2399 32.6147 63.6575ZM150.138 67.009C149.863 67.2398 149.534 67.4376 149.391 67.4486C149.149 67.4486 149.149 67.4705 149.149 68.7672V70.0858C149.578 70.0858 149.896 69.932 150.138 69.7562C150.402 69.5584 150.71 69.4265 150.907 69.4265H151.237V66.5695C150.743 66.5695 150.457 66.7233 150.138 67.009ZM93.0522 71.2946C92.6896 71.6023 92.3269 71.844 92.25 71.844C92.1841 71.844 92.1182 71.9429 92.1182 72.0638C92.1182 72.1847 92.1841 72.4484 92.261 72.6352C92.3489 72.833 92.5687 73.1846 92.7555 73.4044C92.9533 73.6352 93.1621 73.822 93.217 73.822C93.272 73.822 93.6456 74.1434 93.6456 73.9896C93.6456 73.7918 93.4478 73.1846 93.7665 72.9649L94.1951 72.8907C94.1951 71.0007 94.195 70.7451 93.9533 70.7451C93.8214 70.7451 93.4148 70.9869 93.0522 71.2946ZM85.7448 78.4262C85.481 78.7009 85.4261 78.8438 85.4261 79.3602L85.4151 79.9756H86.1843V78.657C86.9315 78.602 87.0084 78.5581 87.0304 78.3493C87.0634 78.1295 87.0194 78.1075 86.5579 78.1075C86.1513 78.1075 85.9975 78.1625 85.7448 78.4262Z" fill="white"/>
<path opacity="0.11" d="M38.2191 67.5035C38.2191 69.8551 38.2301 70.8001 38.2411 69.5914C38.2631 68.3826 38.2631 66.4486 38.2411 65.3058C38.2301 64.163 38.2191 65.152 38.2191 67.5035ZM34.428 72.6902C34.7577 72.7122 35.2522 72.7122 35.5269 72.6902C35.8016 72.6682 35.5269 72.6572 34.9225 72.6572C34.3181 72.6572 34.0984 72.6682 34.428 72.6902ZM70.7784 78.7339L71.1301 78.7669L71.196 81.6789L71.24 78.657C70.4268 78.69 70.4268 78.69 70.7674 78.7339H70.7784ZM91.7667 80.8218C92.0744 80.8547 92.1293 80.8987 92.0964 81.1294C92.0854 81.2723 92.1074 81.4042 92.1513 81.4042C92.2063 81.4042 92.2392 81.2503 92.2392 81.0745C92.2392 80.7668 92.2173 80.7448 91.8217 80.7668C91.4261 80.7778 91.4261 80.7778 91.7667 80.8218Z" fill="white"/>
<path opacity="0.14" d="M64.0312 60.6908C64.0312 61.8995 64.0532 62.416 64.0642 61.8446C64.0862 61.2732 64.0862 60.2842 64.0642 59.6468C64.0532 59.0095 64.0312 59.482 64.0312 60.6908ZM65.196 79.756V80.8549C65.8773 80.8219 65.8773 80.8219 65.6136 80.789L65.3059 80.745C65.3059 78.7781 65.3059 78.7671 65.5806 78.7671C65.8004 78.7671 65.8664 78.833 65.8993 79.0748C65.9323 79.3385 65.9323 79.3385 65.9543 79.0198C65.9652 78.6792 65.9433 78.6572 65.5806 78.6572H65.196V79.756Z" fill="white"/>
<path opacity="0.72" d="M116.227 81.0746C116.227 82.3163 116.249 82.8108 116.26 82.1734C116.282 81.5361 116.282 80.5251 116.26 79.9208C116.249 79.3164 116.227 79.8328 116.227 81.0746Z" fill="white"/>
<path opacity="0.51" d="M92.0524 70.1409C92.0524 71.053 92.0744 71.3936 92.0854 70.9101C92.1074 70.4266 92.1074 69.6904 92.0854 69.2618C92.0744 68.8333 92.0524 69.2289 92.0524 70.1409ZM74.9102 81.7889C74.9102 82.4482 74.9211 82.7009 74.9431 82.3383C74.9651 81.9757 74.9651 81.4263 74.9431 81.1296C74.9211 80.8219 74.9102 81.1186 74.9102 81.7889Z" fill="white"/>
<path opacity="0.99" d="M63.6578 57.3941C63.6578 57.6029 63.6138 57.8007 63.5479 57.8336C63.482 57.8666 63.438 58.0424 63.438 58.2182C63.438 58.5479 63.449 58.5479 64.0424 58.5479C64.5918 58.5479 64.6907 58.504 65.1962 58.0754C65.6028 57.7348 65.7456 57.537 65.7456 57.3062V57.0095H63.6578V57.3941ZM92.1183 57.7787C92.1183 58.3941 92.0305 72.2865 92.1623 72.2865C92.2502 72.2865 93.7557 74.0337 94.0304 73.77C94.393 73.4403 94.1513 57.4628 94.1403 57.2321C94.1403 56.9464 93.426 57.0095 92.7777 57.0095H92.1183V57.7787ZM149.149 57.504C149.149 57.9216 149.138 74.2644 149.138 74.2644C151.556 74.2644 151.226 58.5507 151.226 58.5507C151.424 58.4298 154.468 58.0644 154.468 57.8337C154.468 56.7925 150.116 57.0095 149.644 57.0095H149.149V57.504ZM119.634 65.034C119.601 65.1329 120.073 65.5916 119.689 65.9323C119.15 66.4158 118.909 66.5586 118.623 66.5696C118.282 66.5696 118.271 66.5916 118.271 67.0092C118.271 67.2839 118.326 67.4487 118.403 67.4487C118.48 67.4487 119.293 67.3086 119.964 66.7372C120.788 66.0449 122.711 65.1768 122.711 65.034C122.711 64.8802 120.942 64.9213 120.755 64.9213C120.59 64.9213 119.656 64.9131 119.634 65.034ZM52.3395 67.3388C52.1197 67.5256 51.823 67.6685 51.6472 67.6685H51.3505C51.3505 69.3827 51.3615 69.4267 51.5923 69.4267C51.7351 69.4267 52.0758 69.2289 52.3615 68.9871C52.7241 68.6904 52.9988 68.5476 53.2186 68.5476H53.5482V67.0092C52.845 67.0092 52.6142 67.1081 52.3395 67.3388ZM137.282 67.6685C137.282 67.8443 137.227 68.0201 137.172 68.0531C137.106 68.086 137.062 68.2838 137.062 68.4926C137.062 68.8443 137.084 68.8772 137.392 68.8772C137.699 68.8772 137.721 68.8443 137.721 68.4926C137.721 68.2838 137.765 68.086 137.831 68.0531C137.886 68.0201 137.941 67.8443 137.941 67.6685C137.941 67.3718 137.908 67.3388 137.611 67.3388C137.315 67.3388 137.282 67.3718 137.282 67.6685ZM77.7672 69.9761C77.5364 70.2178 77.3496 70.3057 77.0859 70.3057H76.7343C76.7343 71.4815 76.7672 71.6244 76.8991 71.6244C76.987 71.6244 77.3606 71.3826 77.7232 71.075C78.1298 70.7343 78.4924 70.5255 78.6573 70.5255C78.899 70.5255 78.932 70.4816 78.932 70.086C78.932 69.6464 78.932 69.6464 78.5144 69.6464C78.1957 69.6464 78.0199 69.7233 77.7672 69.9761ZM48.1858 70.8552C47.933 71.0859 47.7243 71.1848 47.4495 71.1848H47.0649C47.0649 72.998 47.0979 73.2727 47.1968 73.2727C47.2737 73.2617 47.6473 72.998 48.021 72.6683C48.4605 72.2837 48.8121 72.0639 48.988 72.0639C49.2517 72.0639 49.2627 72.042 49.2627 71.2947V70.5255C48.6693 70.5255 48.4275 70.6354 48.1858 70.8552ZM64.8775 80.9977C64.8116 81.0636 64.7896 81.1735 64.8445 81.2175C64.8885 81.2614 65.0863 81.2944 65.2731 81.2944C65.5588 81.2944 65.6357 81.2504 65.6357 81.0746C65.6357 80.9098 65.5588 80.8548 65.3171 80.8548C65.1412 80.8548 64.9434 80.9208 64.8775 80.9977ZM101.129 81.4043C101.129 81.9427 101.14 81.9537 101.459 81.9537C101.733 81.9537 101.788 81.9097 101.81 81.657C101.843 81.3933 101.898 81.3493 102.195 81.3273C102.47 81.3054 102.558 81.2394 102.558 81.0746C102.558 80.8768 102.481 80.8548 101.843 80.8548H101.129V81.4043Z" fill="white"/>
<path opacity="0.62" d="M107.447 69.5914C107.447 72.1848 107.458 73.2287 107.469 71.899C107.491 70.5694 107.491 68.4486 107.469 67.1739C107.458 65.8993 107.447 66.9981 107.447 69.5914ZM98.0299 79.6131C98.0409 80.4482 98.0629 81.4701 98.0848 81.8987C98.1068 82.3273 98.1288 81.646 98.1398 80.3823C98.1508 79.1296 98.1288 78.1076 98.0848 78.1076C98.0299 78.1076 98.0079 78.7889 98.0299 79.6131ZM71.9429 80.1405C71.9429 80.8658 71.9539 81.1405 71.9758 80.7449C71.9978 80.3493 71.9978 79.7559 71.9758 79.4263C71.9539 79.0966 71.9429 79.4153 71.9429 80.1405Z" fill="white"/>
<path opacity="0.27" d="M94.2609 61.1302C94.2609 63.4268 94.2719 64.3938 94.2829 63.273C94.3049 62.1521 94.3049 60.2731 94.2829 59.0973C94.2719 57.9215 94.2609 58.8336 94.2609 61.1302ZM149.083 60.5258C149.083 62.1851 149.105 62.8554 149.116 62.0093C149.138 61.1632 149.138 59.8006 149.116 58.9874C149.105 58.1742 149.083 58.8665 149.083 60.5258ZM120.535 66.4926C120.513 66.5696 120.502 68.0091 120.513 69.7013L120.524 72.7781L120.579 66.4597H122.557L122.612 72.7781L122.667 66.3498C120.875 66.3498 120.557 66.3937 120.535 66.4926ZM97.3267 80.2504C97.3267 81.4592 97.3487 81.9756 97.3597 81.4042C97.3817 80.8328 97.3817 79.8438 97.3597 79.2065C97.3487 78.5691 97.3267 79.0417 97.3267 80.2504ZM65.4927 81.3713L65.8553 81.4042L65.9212 83.4371L65.9102 81.3493C65.152 81.3273 65.152 81.3273 65.4927 81.3713ZM101.843 81.4372C101.81 81.5251 101.799 82.0306 101.821 82.569L101.854 83.547L101.898 81.4042L102.612 81.3273C102.041 81.3053 101.865 81.3493 101.843 81.4372ZM122.524 81.3713C122.886 81.4042 122.886 81.4042 122.919 82.0855L122.963 82.7778L122.941 81.3493C122.183 81.3273 122.183 81.3273 122.524 81.3713ZM64.4487 83.4591L64.4707 84.0964C64.5366 82.9646 64.5476 82.9426 64.8663 82.9426C65.141 82.9426 65.207 82.9866 65.2399 83.2393C65.2729 83.514 65.2729 83.514 65.2949 83.1844C65.3058 82.8437 65.2949 82.8327 64.8663 82.8327H64.4268L64.4487 83.4591Z" fill="white"/>
<path opacity="0.68" d="M101.063 81.0746C101.063 82.3163 101.085 82.8108 101.096 82.1734C101.118 81.5361 101.118 80.5251 101.096 79.9208C101.085 79.3164 101.063 79.8328 101.063 81.0746Z" fill="white"/>
<path opacity="0.44" d="M92.063 62.7784C92.063 65.9761 92.074 67.2727 92.085 65.6354C92.1069 63.9981 92.1069 61.3828 92.085 59.8114C92.074 58.2401 92.063 59.5807 92.063 62.7784Z" fill="white"/>
<path opacity="0.67" d="M107.447 60.9654C107.447 63.1741 107.458 64.0642 107.469 62.9433C107.491 61.8225 107.491 60.0204 107.469 58.9325C107.458 57.8446 107.447 58.7567 107.447 60.9654Z" fill="white"/>
<path opacity="0.25" d="M149.083 65.141C149.083 66.075 149.105 66.4486 149.116 65.9651C149.138 65.4816 149.138 64.7124 149.116 64.2619C149.105 63.8113 149.083 64.2069 149.083 65.141ZM94.2497 67.1739C94.2497 68.2617 94.2717 68.6793 94.2827 68.1079C94.3047 67.5365 94.3047 66.6464 94.2827 66.1299C94.2717 65.6135 94.2497 66.086 94.2497 67.1739ZM109.645 70.1957C109.645 72.4594 109.656 73.3715 109.667 72.2286C109.689 71.0858 109.689 69.2287 109.667 68.1079C109.656 66.9871 109.645 67.9321 109.645 70.1957ZM86.2061 81.1075L86.239 83.5469L86.294 78.7669H86.8434L86.8983 83.5469L86.9533 78.657H86.1841L86.2061 81.1075Z" fill="white"/>
<path opacity="0.27" d="M109.645 61.5697C109.645 64.1081 109.656 65.1191 109.667 63.8224C109.689 62.5257 109.689 60.4489 109.667 59.2072C109.656 57.9655 109.645 59.0314 109.645 61.5697ZM149.083 70.5255C149.083 72.6133 149.105 73.4814 149.116 72.4485C149.138 71.4156 149.138 69.7123 149.116 68.6574C149.105 67.6025 149.083 68.4376 149.083 70.5255ZM94.25 70.9101C94.25 71.943 94.272 72.3826 94.283 71.8991C94.3049 71.4156 94.3049 70.5694 94.283 70.031C94.272 69.4925 94.25 69.8771 94.25 70.9101Z" fill="white"/>
<path opacity="0.34" d="M60.3388 78.7231C60.6904 78.767 60.6904 78.767 60.6904 79.4264V80.0857C61.3717 80.0417 61.5146 79.9758 61.5256 79.8659C61.5256 79.778 61.5146 79.767 61.4926 79.8439C61.4816 79.9099 61.3058 79.9758 61.13 79.9758C60.8003 79.9758 60.8003 79.9648 60.7673 79.3494L60.7454 78.7121C60.0091 78.6901 60.0091 78.6901 60.3388 78.7231ZM64.4705 79.7011C64.4705 80.2395 64.4815 80.4923 64.5035 80.2505C64.5254 80.0088 64.5254 79.5692 64.5035 79.2615C64.4815 78.9648 64.4705 79.1626 64.4705 79.7011Z" fill="white"/>
</svg>
