<svg width="183" height="110" viewBox="0 0 183 110" fill="none" xmlns="http://www.w3.org/2000/svg">
<path d="M66.3377 10.2345C66.0335 10.2429 65.2729 10.3021 64.6476 10.3443C64.0222 10.395 63.0673 10.488 62.5349 10.564C62.0025 10.6317 60.9293 10.8007 60.1434 10.9359C59.3659 11.0795 58.2504 11.3077 57.6589 11.4514C57.0589 11.5866 56.0448 11.857 55.3941 12.0514C54.7434 12.2373 53.7547 12.5415 53.1969 12.7274C52.6392 12.9133 51.4984 13.3359 50.6618 13.6654C49.8251 13.995 48.2871 14.6964 47.2393 15.2119C46.1914 15.7358 44.8055 16.4795 44.1548 16.8682C43.5041 17.257 42.6083 17.8232 42.1689 18.1189C41.7294 18.4147 40.9097 18.9978 40.352 19.4119C39.7942 19.8344 38.8985 20.5358 38.3661 20.9837C37.8337 21.4316 36.7436 22.4372 35.9577 23.2316C35.1633 24.0175 34.1577 25.1076 33.7098 25.64C33.2619 26.1724 32.5774 27.0513 32.1802 27.5837C31.783 28.116 31.1746 28.9949 30.8281 29.5273C30.4816 30.0597 29.9408 30.9555 29.6197 31.5132C29.2985 32.0709 28.7493 33.1357 28.3859 33.8794C28.031 34.623 27.4901 35.8568 27.1859 36.6259C26.8817 37.3949 26.476 38.5188 26.2817 39.1188C26.0873 39.7188 25.7662 40.8596 25.5634 41.654C25.3606 42.4483 25.0986 43.5638 24.9803 44.1469C24.862 44.73 24.7099 45.5835 24.6422 46.0483C24.5662 46.5131 24.4479 47.3497 24.3803 47.9075C24.3042 48.4652 24.1944 49.6483 24.1268 50.5272C24.0507 51.4821 24 53.2314 24 54.8539C24 56.4426 24.0507 58.3525 24.1268 59.4173C24.2028 60.4313 24.2704 61.3186 24.2873 61.3863C24.3042 61.4539 24.3211 60.4144 24.3296 59.0623C24.338 57.7102 24.3803 55.9863 24.4225 55.2173C24.4732 54.4483 24.5831 53.1215 24.6761 52.2596C24.769 51.3976 24.9465 50.1046 25.0648 49.3863C25.1746 48.668 25.3606 47.637 25.4789 47.1047C25.5887 46.5723 25.7577 45.7864 25.8591 45.3723C25.9605 44.9582 26.1549 44.2145 26.2901 43.7244C26.4338 43.2343 26.7211 42.3047 26.9324 41.654C27.1436 41.0033 27.5324 39.9216 27.8028 39.2456C28.0732 38.5695 28.4873 37.5808 28.7239 37.0484C28.969 36.516 29.4 35.6371 29.6788 35.1047C29.9661 34.5723 30.4394 33.7188 30.7436 33.2033C31.0478 32.6878 31.5971 31.8174 31.969 31.2597C32.3408 30.7019 32.9915 29.7893 33.414 29.2315C33.8365 28.6738 34.521 27.8203 34.9351 27.3301C35.3492 26.84 36.3379 25.7921 37.1323 25.0062C37.9266 24.2118 39.0506 23.1724 39.6337 22.6823C40.2168 22.2006 41.1801 21.44 41.7886 20.9837C42.397 20.5358 43.3435 19.8767 43.9012 19.5133C44.459 19.1499 45.4055 18.5668 46.0139 18.2203C46.6139 17.8739 47.6618 17.3161 48.3378 16.9781C49.0139 16.6401 50.0956 16.133 50.7463 15.8542C51.397 15.5668 52.4448 15.1527 53.0702 14.9161C53.6955 14.688 54.7603 14.333 55.4364 14.1218C56.1124 13.9105 57.2871 13.5809 58.0561 13.395C58.8251 13.2091 59.9659 12.964 60.5913 12.8457C61.2166 12.7274 62.1884 12.5753 62.7462 12.5077C63.3039 12.4316 64.2588 12.3387 64.8588 12.288C65.4588 12.2457 66.363 12.2035 66.8701 12.2035H67.7743C69.0081 14.7218 69.5827 15.9894 69.8531 16.6401C70.1151 17.2908 70.5377 18.4316 70.7827 19.1753L71.2306 20.5274C71.6954 20.5612 71.8306 20.5274 71.8306 20.4851C71.8306 20.4344 71.6362 19.8767 71.3996 19.2344C71.163 18.6006 70.7236 17.5274 70.4193 16.8513C70.1151 16.1753 69.6503 15.2035 69.3715 14.6964C69.101 14.1809 68.6701 13.4204 68.4165 13.0063C68.1377 12.5499 67.994 12.2373 68.0532 12.2204C68.1123 12.2035 68.3574 12.3894 68.6025 12.6429C68.8475 12.888 69.3123 13.395 69.625 13.7668C69.9461 14.1387 70.4278 14.7471 70.7067 15.1189C70.9855 15.4908 71.4419 16.133 71.7207 16.5556C71.9996 16.9696 72.5151 17.8063 72.8616 18.4147C73.2165 19.0147 73.5883 19.6823 73.6897 19.8936C73.8672 20.2654 73.8841 20.2738 74.2813 20.2738C74.6616 20.2738 74.6785 20.2654 74.594 20.1048C74.5517 20.0119 74.2644 19.5386 73.9602 19.0485C73.6644 18.5584 73.1404 17.764 72.8109 17.2739C72.4813 16.7837 71.8306 15.9133 71.3743 15.3302C70.9095 14.7471 70.0813 13.8175 69.532 13.2598C68.9827 12.7021 68.5433 12.2373 68.5518 12.2288C68.5687 12.2204 68.9996 12.4654 69.5067 12.7781C70.0137 13.0908 70.7743 13.5894 71.1968 13.8936C71.6109 14.1978 72.3714 14.7809 72.8869 15.2035C73.394 15.6175 74.3827 16.5133 75.0756 17.1894C75.7602 17.8654 76.7151 18.8541 77.1799 19.3865C77.6531 19.9189 78.0418 20.3753 78.0587 20.4006C78.0672 20.426 78.2531 20.3414 78.4644 20.2062C78.6756 20.0795 78.8446 19.9274 78.8446 19.8682C78.8446 19.8175 78.2277 19.1584 77.4672 18.4147C76.7151 17.671 75.7771 16.7922 75.3799 16.4626C74.9827 16.1246 74.163 15.4823 73.5545 15.026C72.9461 14.5612 71.9574 13.9021 71.3574 13.5387C70.7574 13.1837 70.0137 12.7697 69.6926 12.6091C69.3799 12.457 69.1264 12.3049 69.1264 12.2626C69.1264 12.2288 69.3292 12.2288 69.5743 12.2542C69.8109 12.288 70.1996 12.3725 70.4362 12.457C70.6729 12.5415 71.3574 12.8035 71.9574 13.0401C72.5574 13.2852 73.6813 13.7922 74.4503 14.1725C75.2193 14.5528 76.4193 15.2035 77.1122 15.626C77.8137 16.0485 78.9122 16.7584 79.5629 17.2063C80.2136 17.6541 81.2784 18.4485 81.9291 18.9724C82.5798 19.4879 83.3995 20.1724 83.746 20.4936C84.0925 20.8062 84.4474 21.0682 84.5319 21.0767C84.608 21.0767 84.853 20.9076 85.0728 20.6964L85.4784 20.3161C85.022 19.9105 84.3544 19.395 83.7037 18.8964C83.053 18.4062 82.0474 17.6964 81.4643 17.3161C80.8812 16.9358 80.0446 16.4203 79.6052 16.1584C79.1658 15.9049 78.439 15.4992 77.9996 15.2626C77.5601 15.026 76.6982 14.6119 76.0982 14.333C75.4982 14.0542 74.5602 13.657 74.0278 13.4457C73.4954 13.2429 72.625 12.9302 72.101 12.7612C71.5855 12.5922 71.1545 12.4316 71.1545 12.3894C71.1545 12.3556 71.4503 12.364 71.8053 12.3978C72.1686 12.4316 72.9038 12.5246 73.4362 12.5922C73.9686 12.6598 74.7714 12.7697 75.2109 12.8457C75.6503 12.9133 76.47 13.0739 77.0277 13.1922C77.5855 13.3021 78.4813 13.5133 79.0136 13.657C79.546 13.8006 80.5179 14.0795 81.1686 14.2908C81.8193 14.502 82.9263 14.8992 83.6192 15.1781C84.3122 15.457 85.4192 15.9387 86.0699 16.2513C86.7206 16.564 87.7685 17.1218 88.3938 17.4767C89.0192 17.8401 90.084 18.4992 90.76 18.9555C91.4361 19.4034 92.4248 20.1048 92.9572 20.5189C93.4896 20.933 94.3093 21.5921 94.7741 21.9893C95.2389 22.3865 96.2783 23.3668 97.0896 24.1527C97.8924 24.9471 99.0586 26.1639 99.667 26.8654C100.284 27.5583 100.85 28.1583 100.926 28.1921C101.002 28.2344 101.256 28.2597 101.492 28.2597C101.847 28.2597 101.957 28.2175 102.219 27.9808C102.397 27.8203 102.549 27.5837 102.599 27.3893C102.65 27.1865 102.642 26.9668 102.591 26.7555C102.523 26.5442 102.151 26.0541 101.374 25.1752C100.757 24.4738 99.5318 23.1978 98.6529 22.3274C97.7741 21.4569 96.6163 20.3753 96.0839 19.9189C95.5515 19.4626 94.7149 18.7865 94.2248 18.4062C93.7346 18.0344 92.9741 17.4767 92.5347 17.1725C92.0952 16.8682 91.2586 16.3358 90.6755 15.9894C90.0924 15.6429 89.2558 15.1612 88.8164 14.9246C88.3769 14.6964 87.4643 14.257 86.7882 13.9528C86.1122 13.6485 85.0389 13.2091 84.3967 12.9725C83.7629 12.7359 82.6559 12.3725 81.9545 12.1697C81.2446 11.9669 80.1629 11.6795 79.5629 11.5359C78.9629 11.3922 77.7967 11.164 76.9855 11.0288C76.1742 10.8852 75.008 10.7162 74.408 10.6486C73.8081 10.5725 72.87 10.4795 72.3376 10.4288C71.8052 10.3866 70.563 10.3105 69.5912 10.2598C68.6194 10.2176 67.6053 10.1838 67.3518 10.1922C67.0982 10.2007 66.6419 10.2176 66.3377 10.2345ZM105.168 77.3749C104.991 77.6707 104.56 78.3298 104.213 78.8368C103.867 79.3439 103.292 80.1467 102.946 80.6115C102.591 81.0763 101.94 81.896 101.501 82.4284C101.053 82.9608 100.267 83.8312 99.76 84.372C99.2445 84.9044 98.4079 85.741 97.9008 86.2312C97.3853 86.7213 96.498 87.5157 95.9149 88.0058C95.3318 88.4875 94.4361 89.1973 93.929 89.5776C93.422 89.9579 92.4502 90.6255 91.7741 91.0649C91.0981 91.5044 90.1516 92.0959 89.6614 92.3748C89.1713 92.6537 88.1319 93.2114 87.3375 93.6086C86.5432 93.9973 85.3854 94.5382 84.7601 94.8086C84.1347 95.0705 82.9516 95.51 82.1404 95.7888C81.3291 96.0677 80.1122 96.448 79.4362 96.6339C78.7601 96.8198 77.4672 97.1156 76.563 97.3015C75.6587 97.479 74.2897 97.7072 73.5207 97.8001C72.7517 97.8931 71.5433 98.0114 70.8419 98.0621C70.132 98.1043 69.0841 98.1466 68.518 98.1466L67.4785 98.155C66.2109 95.5607 65.6109 94.217 65.3236 93.4987C65.0363 92.7804 64.6138 91.6227 64.3771 90.9213C64.149 90.2283 63.794 88.9861 63.5828 88.1748C63.38 87.3635 63.211 86.6283 63.211 86.5523C63.1446 86.1129 63.1602 86.4086 63.0419 86.4424C62.949 86.4678 62.7969 86.5016 62.7039 86.5269C62.611 86.5523 62.5349 86.5438 62.5349 86.51C62.5349 86.4678 62.6363 86.434 62.7631 86.4171C62.8983 86.4086 63.025 86.3495 63.0588 86.2903C63.0926 86.2312 63.0588 86.1889 63.0588 86.1213C63.0588 86.0452 63.0842 86.0199 63.0335 86.1298C62.9912 86.2396 62.9152 86.2903 62.856 86.265C62.7715 86.2227 62.78 86.1889 62.8729 86.1298C62.9574 86.0847 62.9152 86.079 62.7462 86.1129C62.611 86.1467 62.4757 86.1805 62.4588 86.1974C62.4419 86.2143 62.5095 86.2312 62.6194 86.2312C62.7293 86.2312 62.7884 86.2565 62.7546 86.2988C62.7208 86.3326 62.6448 86.3579 62.5941 86.3579C62.5349 86.3579 62.5011 86.4678 62.5096 86.6114C62.5265 86.7551 62.5941 87.0762 62.6701 87.3298L62.8307 87.9382C62.6617 87.8561 62.8307 87.9358 62.8307 87.9382C62.8307 87.9297 62.8307 87.9466 62.8307 87.9382C62.8307 87.9382 63.2617 89.3917 63.5912 90.372C63.8109 90.9973 64.2166 92.0621 64.4954 92.7382C64.7828 93.4142 65.2898 94.4959 65.6194 95.1466C65.9574 95.7973 66.4644 96.7184 66.7433 97.2001C67.0306 97.6734 67.2673 98.079 67.2673 98.1043C67.2673 98.1297 67.2081 98.1466 67.1405 98.1466C67.0729 98.1466 66.7095 97.817 66.3377 97.4114C65.9743 96.9973 65.3828 96.3043 65.0278 95.8649C64.6729 95.4255 64.0307 94.5297 63.5997 93.879C63.1602 93.2283 62.5687 92.2734 62.2729 91.7663C61.9856 91.2593 61.4701 90.3044 61.1321 89.6537L60.5237 88.4706C59.9237 88.5044 59.7462 88.5382 59.7462 88.5804C59.7462 88.6142 60.0927 89.248 60.5152 89.9917C60.9377 90.7354 61.5715 91.7832 61.918 92.3156C62.2729 92.848 62.8222 93.6508 63.1518 94.0903C63.4814 94.5297 64.0307 95.2311 64.3856 95.6536C64.7405 96.0677 65.425 96.8029 65.9152 97.2846C66.4053 97.7579 66.7771 98.1466 66.7433 98.1466C66.7011 98.1466 66.3799 97.9691 66.0166 97.7494C65.6616 97.5381 64.9856 97.0987 64.5208 96.786C64.056 96.4734 63.1602 95.8057 62.5349 95.3072C61.9096 94.8001 60.6927 93.6931 59.8307 92.8311C58.9687 91.9607 57.8617 90.7861 57.38 90.203C56.8983 89.6199 56.1631 88.6903 55.749 88.1326C55.335 87.5748 54.8786 86.941 54.8448 86.9072C54.8195 86.8734 54.8786 87.2621 54.8617 87.5833L54.8448 88.1748C54.8448 88.1748 54.8448 88.3016 54.8448 88.3438V88.4283V88.4706C54.8448 88.4706 54.6927 88.5128 54.7181 88.5551C54.7434 88.5973 55.0983 89.0199 55.0983 89.0199L55.4364 89.4002C55.4364 89.4002 55.7744 89.8311 56.7378 90.879C57.3547 91.5551 58.3349 92.5269 58.9096 93.0508C59.4842 93.5663 60.3546 94.31 60.8448 94.6987C61.3349 95.0874 62.1293 95.6705 62.6194 96.0001C63.1095 96.3297 63.8701 96.8114 64.3095 97.0649C64.749 97.3269 65.3321 97.648 65.6025 97.7747C65.8645 97.91 66.0842 98.0367 66.0842 98.0621C66.0842 98.0874 65.8814 98.0874 65.6363 98.0705C65.3743 98.0536 64.7152 97.8593 63.9715 97.5804C63.2955 97.3269 61.9518 96.7269 60.9715 96.2452C59.9913 95.7635 58.7575 95.1128 58.2251 94.7917C57.6927 94.4705 56.78 93.8959 56.1969 93.5072C55.6138 93.1184 54.7012 92.4593 54.1688 92.0537C53.6364 91.648 52.8167 90.9973 52.3519 90.6086C51.8871 90.2283 51.0167 89.4509 50.4082 88.8847L49.3097 87.8621C48.8195 88.1833 48.7604 88.2762 48.7604 88.4959C48.7604 88.6396 48.7266 88.834 48.6759 88.9185C48.6083 89.0368 48.7435 89.1889 49.504 89.8311C50.0026 90.2537 50.7716 90.879 51.211 91.2255C51.6505 91.572 52.5885 92.2311 53.2815 92.7044C53.9744 93.1691 54.8702 93.7438 55.2674 93.9804C55.6645 94.217 56.442 94.6565 56.9997 94.9522C57.5575 95.248 58.487 95.7128 59.0701 95.9832C59.6532 96.2536 60.5828 96.6593 61.1405 96.879C61.6983 97.0987 62.5349 97.4029 62.9997 97.555C63.4645 97.7072 63.8617 97.8508 63.887 97.8677C63.9124 97.8762 63.9124 97.91 63.887 97.9269C63.8617 97.9522 63.1772 97.8762 62.3659 97.7663C61.5546 97.6564 60.2955 97.4536 59.5772 97.31C58.8589 97.1663 57.642 96.879 56.873 96.6762C56.104 96.4649 54.7941 96.0593 53.9575 95.7719C53.1209 95.4846 51.904 95.0283 51.2533 94.7494C50.6026 94.4705 49.4618 93.9382 48.7181 93.5663C47.9745 93.1945 47.104 92.7382 46.7745 92.5522C46.4449 92.3579 45.8364 91.9945 45.4224 91.741C45.0083 91.4875 44.2055 90.972 43.6477 90.5917C43.09 90.2114 42.1942 89.5692 41.6618 89.1551C41.1294 88.741 40.1999 87.972 39.5914 87.4481C38.983 86.9241 37.8675 85.8593 37.0985 85.0734C36.3295 84.296 35.383 83.2988 34.9858 82.8678C34.276 82.0903 34.2675 82.0903 33.8619 82.0903C33.6422 82.0903 33.3549 82.1495 33.2112 82.2171C33.0675 82.2847 32.8816 82.4706 32.7887 82.6227C32.6788 82.7917 32.6196 83.0453 32.6196 83.2988C32.6196 83.6368 32.6704 83.7551 32.9408 84.1016C33.1267 84.3213 33.7267 84.9974 34.2844 85.5974C34.8422 86.1974 35.7295 87.1016 36.2619 87.6002C36.7943 88.0903 37.5886 88.8086 38.0281 89.1889C38.4675 89.5692 39.3464 90.2706 39.9717 90.7438C40.597 91.217 41.5858 91.9269 42.1689 92.3156C42.752 92.7044 43.5463 93.2198 43.9435 93.4565C44.3407 93.6931 45.2364 94.2001 45.9294 94.5804C46.6308 94.9607 47.7125 95.5015 48.3378 95.7804C48.9632 96.0677 49.9942 96.5072 50.6195 96.7522C51.2449 96.9973 52.1744 97.3353 52.6899 97.5128C53.2054 97.6818 54.135 97.9691 54.7603 98.1466C55.3857 98.3241 56.4166 98.5776 57.042 98.7212C57.6673 98.8649 58.7744 99.0762 59.4927 99.1945C60.211 99.3128 61.3011 99.4649 61.9011 99.5409C62.5011 99.6085 63.8194 99.7015 64.8166 99.7522C66.1602 99.8283 67.1236 99.8283 68.5349 99.7522C69.5827 99.7015 70.9348 99.6001 71.5348 99.5325C72.1348 99.4649 73.3179 99.2959 74.1545 99.1607C74.9911 99.0255 76.301 98.755 77.07 98.5691C77.839 98.3747 78.7855 98.1297 79.1827 98.0114C79.5798 97.8931 80.2981 97.6649 80.7883 97.4959C81.2784 97.3353 82.3009 96.955 83.0699 96.6508C83.839 96.3466 85.2249 95.7297 86.1544 95.2734C87.084 94.817 88.5291 94.0311 89.3657 93.5241C90.2023 93.0255 91.3769 92.2734 91.9769 91.8508C92.5769 91.4283 93.5825 90.6762 94.2163 90.1692C94.8501 89.6621 95.8389 88.8255 96.422 88.2931C97.005 87.7692 97.8586 86.9495 98.3318 86.4678C98.7966 85.9861 99.5064 85.234 99.8952 84.7946C100.292 84.3551 100.935 83.5946 101.323 83.1044C101.721 82.6143 102.422 81.6847 102.887 81.034C103.351 80.3833 104.044 79.3523 104.416 78.7523C104.788 78.1523 105.202 77.4763 105.32 77.2566C105.447 77.0284 105.532 76.8509 105.515 76.8509C105.498 76.8509 105.337 77.0876 105.168 77.3833V77.3749Z" fill="white"/>
<path opacity="0.99" d="M156.827 67.7411C156.675 67.8087 156.456 67.9692 156.337 68.1044C156.194 68.2481 156.118 68.4256 156.126 68.6115C156.126 68.7551 156.168 68.958 156.211 69.0509C156.253 69.1439 156.396 69.2706 156.532 69.3382C156.658 69.4058 157.064 69.5411 157.436 69.6425C157.808 69.7439 158.18 69.8875 158.264 69.9636C158.349 70.0396 158.416 70.2087 158.408 70.3439C158.408 70.4875 158.34 70.6227 158.222 70.6988C158.104 70.7748 157.833 70.8255 157.563 70.8255C157.292 70.8255 157.022 70.7748 156.912 70.6988C156.802 70.6312 156.675 70.4791 156.633 70.3608C156.565 70.1918 156.489 70.1495 156.253 70.1495C156.092 70.1495 155.957 70.1918 155.957 70.234C155.957 70.2763 156.016 70.4368 156.084 70.572C156.151 70.7072 156.312 70.9016 156.447 70.9946C156.574 71.0875 156.87 71.2058 157.098 71.2565C157.394 71.3157 157.664 71.3157 157.985 71.2565C158.306 71.1974 158.534 71.0875 158.729 70.9101C158.949 70.7072 158.999 70.5889 158.999 70.2932C159.008 70.0143 158.957 69.8875 158.771 69.7016C158.636 69.5664 158.349 69.4058 158.112 69.3467C157.884 69.2791 157.537 69.1946 157.351 69.1439C157.165 69.1016 156.946 68.9918 156.861 68.9073C156.751 68.7974 156.718 68.6875 156.751 68.5185C156.785 68.3749 156.895 68.2397 157.056 68.1636C157.199 68.096 157.385 68.0368 157.478 68.0368C157.571 68.0368 157.782 68.096 157.943 68.1636C158.104 68.2312 158.289 68.3833 158.349 68.5016C158.425 68.6706 158.518 68.7213 158.729 68.7129C158.94 68.7129 158.999 68.6791 158.999 68.5439C158.999 68.4509 158.889 68.2481 158.754 68.096C158.627 67.9523 158.365 67.7749 158.188 67.7242C158.011 67.665 157.689 67.6143 157.478 67.6228C157.267 67.6228 156.971 67.6735 156.827 67.7411Z" fill="#E7E7E7"/>
<path opacity="0.99" d="M78.5319 20.1977L78.1263 20.4428C79.0812 21.6512 79.6474 22.4033 80.0024 22.8935C80.3488 23.3836 80.9235 24.2202 81.2784 24.7526C81.6249 25.285 82.2587 26.3329 82.6812 27.0765C83.1037 27.8202 83.4756 28.4793 83.5094 28.5469C83.5516 28.623 83.7037 28.6653 83.9573 28.6484C84.1685 28.6484 84.4643 28.5977 84.6164 28.5554C84.7601 28.5047 84.8868 28.4202 84.8868 28.3695C84.8868 28.3103 84.6671 27.8793 84.4051 27.4146C84.1432 26.9498 83.4418 25.8427 82.8502 24.9639C82.2587 24.085 81.2953 22.7667 80.7207 22.0484C80.1376 21.3301 79.4953 20.5611 79.2925 20.3414L78.9291 19.9526L78.5319 20.1977ZM74.1038 20.3414C74.0278 20.3836 74.163 20.7385 74.5517 21.5414C74.8559 22.1667 75.3207 23.1977 75.5911 23.823C75.8615 24.4484 76.2925 25.547 76.5545 26.2484C76.8165 26.9582 77.0362 27.5751 77.0362 27.6258C77.0362 27.6765 77.2728 27.7103 77.5855 27.7103C77.8812 27.7103 78.1348 27.685 78.1348 27.6427C78.1348 27.6089 77.9066 27.0343 77.6362 26.3582C77.3658 25.6822 76.9179 24.6596 76.6559 24.0766C76.3939 23.4935 75.8869 22.4709 75.5404 21.7949C75.1855 21.1188 74.839 20.5019 74.763 20.4174C74.6869 20.3329 74.5263 20.2653 74.4165 20.2738C74.2982 20.2738 74.1545 20.3076 74.1038 20.3414ZM85.1234 20.7385C84.9037 20.9498 84.6756 21.1188 84.6164 21.1188C84.5573 21.1188 85.1995 21.8118 86.0361 22.6568C86.8727 23.5104 87.9291 24.6427 88.3854 25.1751C88.8417 25.7075 89.6107 26.6625 90.084 27.2878C90.5572 27.9131 91.2164 28.8258 91.5375 29.316C91.8671 29.8061 92.3572 30.5667 92.6192 31.0061C92.8896 31.4455 93.3375 32.2483 93.6163 32.7807C93.8952 33.3131 94.2248 33.854 94.3515 33.9892C94.4698 34.1159 94.698 34.2427 94.867 34.268C95.0276 34.2934 95.2558 34.2765 95.3741 34.2258C95.4839 34.1751 95.6276 34.0483 95.6783 33.9469C95.7374 33.8371 95.805 33.6765 95.8304 33.5835C95.8642 33.4737 95.7374 33.1272 95.5093 32.654C95.3065 32.2314 94.9177 31.5131 94.6473 31.0483C94.3853 30.5836 93.8614 29.7469 93.4896 29.1892C93.1177 28.6315 92.56 27.8286 92.2473 27.4146C91.9347 26.992 91.284 26.1808 90.8023 25.5977C90.3121 25.0146 89.4079 24.0174 88.7826 23.3667C88.1488 22.7245 87.1685 21.778 86.6023 21.2794C86.0361 20.7723 85.5544 20.3583 85.546 20.3583C85.5375 20.3667 85.3432 20.5357 85.1234 20.7385ZM71.3151 20.7554C71.3489 20.84 71.5433 21.5921 71.7545 22.4287C71.9574 23.2653 72.2193 24.4653 72.3376 25.0906C72.4475 25.716 72.5912 26.6202 72.6503 27.0934L72.7686 27.9639C73.4954 27.9639 73.5714 27.9385 73.5714 27.8117C73.5714 27.7357 73.47 27.1188 73.3517 26.4427C73.2334 25.7667 73.0221 24.7188 72.8869 24.1188C72.7517 23.5104 72.4728 22.4794 72.2785 21.8118L71.9235 20.6118C71.3067 20.6118 71.2644 20.6371 71.3151 20.7554ZM39.9632 76.2086C39.8618 76.2509 39.7182 76.3776 39.6421 76.4875C39.5745 76.5889 39.5069 76.8171 39.5154 76.9776C39.5154 77.172 39.6759 77.5776 39.9886 78.1607C40.2506 78.6508 40.7745 79.5382 41.1379 80.1466C41.5097 80.7466 42.0759 81.6255 42.4055 82.0903C42.7351 82.555 43.1998 83.1804 43.428 83.4846C43.6646 83.7888 44.2393 84.4902 44.7125 85.048C45.1857 85.6057 46.0055 86.5184 46.5463 87.0761C47.0787 87.6339 47.7716 88.3184 48.0843 88.5973C48.5491 89.0029 48.7857 89.248 48.8448 89.1466C48.8871 89.0789 48.8026 88.7071 48.8026 88.5297C48.8026 88.3606 48.9378 88.3437 48.9716 88.3437C49.0054 88.3437 49.0308 88.1409 49.1491 88.0564L49.4364 87.9804C47.8561 86.2987 46.9604 85.2846 46.5209 84.7522C46.0731 84.2198 45.4815 83.4762 45.2026 83.1043C44.9238 82.7325 44.5012 82.1579 44.2731 81.8367C44.0449 81.5072 43.6055 80.8649 43.3097 80.4001C43.0139 79.9353 42.5998 79.2508 42.3801 78.879C42.1689 78.5072 41.7886 77.8058 41.5351 77.3241C41.2815 76.8424 41.0027 76.3945 40.9097 76.3269C40.8168 76.2678 40.6055 76.2002 40.4449 76.1748C40.2759 76.1495 40.0647 76.1664 39.9632 76.2086ZM51.0927 80.6959C51.0927 80.7382 50.9491 80.8058 50.7716 80.8311C50.5941 80.8565 50.3237 80.9241 50.1716 80.9748C50.0111 81.0255 49.8506 81.0931 49.859 81.1184C49.8675 81.1438 50.1209 81.5579 50.3829 82.048C50.6449 82.5381 51.0336 83.2226 51.2364 83.5691C51.4477 83.9156 51.9632 84.7184 52.3772 85.3438C52.7913 85.9691 53.4505 86.8987 53.8392 87.4142C54.2279 87.9212 54.6505 88.462 54.7772 88.6057L54.8871 88.555L54.8955 88.386V88.217L54.9209 86.9916C53.9998 85.6142 53.4505 84.7438 53.104 84.1607C52.7491 83.5776 52.1829 82.5466 51.8364 81.8536C51.4899 81.1691 51.1772 80.6114 51.1434 80.6114C51.1181 80.6114 51.0927 80.6452 51.0927 80.6959ZM61.656 81.5579C61.656 81.71 61.7321 82.3522 61.825 82.9776C61.918 83.6029 62.0955 84.6255 62.2222 85.2508C62.4081 86.1466 62.4166 86.6536 62.535 86.6705C62.6195 86.6874 63.1688 86.4592 63.1688 86.4592C63.1688 86.4592 63.1688 86.3747 63.1688 86.3325C63.1688 86.2649 63.1264 86.1888 63.0842 85.9353C63.0504 85.6818 62.9236 84.8452 62.8053 84.0762C62.6955 83.3072 62.5772 82.3691 62.5518 81.9804L62.5011 81.2874C61.6054 81.2198 61.5209 81.0086 61.656 81.5579ZM57.304 81.4311C57.0673 81.448 56.8476 81.4903 56.8138 81.5241C56.78 81.5579 56.8645 81.8874 56.9997 82.2593C57.1349 82.6311 57.4307 83.4086 57.6673 83.9917C57.8955 84.5747 58.1913 85.2762 58.3096 85.555C58.4363 85.8339 58.8082 86.6198 59.1462 87.3128L59.7546 88.555C60.3715 88.555 60.549 88.5297 60.549 88.4874C60.549 88.4536 60.287 87.8367 59.9659 87.1184C59.6532 86.4001 59.1377 85.1409 58.842 84.3297C58.5377 83.5184 58.1913 82.5212 58.0814 82.1072C57.9631 81.7015 57.8363 81.3804 57.7941 81.3889C57.7518 81.3973 57.5321 81.4142 57.304 81.4311Z" fill="white"/>
<path opacity="0.99" d="M77.1121 27.7951C77.1121 27.8289 77.2811 28.3697 77.484 28.995C77.6868 29.6204 78.0417 30.8964 78.2783 31.826C78.5065 32.7556 78.7685 33.888 78.853 34.3443C79.0135 35.1471 79.022 35.1725 79.2248 35.1218C79.3431 35.0964 79.5544 35.1133 79.6896 35.164C79.9177 35.2401 79.9093 35.2401 79.5797 35.2063C79.2332 35.164 79.2248 35.1725 79.2248 35.4175C79.2248 35.5696 79.267 35.6711 79.3346 35.6711C79.4023 35.6711 79.4783 35.6457 79.5121 35.6035C79.5459 35.5696 79.6304 35.5358 79.698 35.5189C79.7656 35.5105 79.8163 35.5358 79.8163 35.5865C79.8163 35.6373 79.8586 35.6542 79.9008 35.6288C79.9431 35.6035 79.9853 35.6204 79.9853 35.6711C79.9853 35.7218 80.0699 35.7556 80.1713 35.764C80.3572 35.7725 80.3572 35.7725 80.1544 35.8401C79.9684 35.8992 79.9684 35.9077 80.1206 35.9161C80.2135 35.9246 80.3149 35.8992 80.3487 35.857C80.3741 35.8232 80.3825 35.7471 80.3572 35.688C80.3403 35.6373 80.2642 35.6035 80.1966 35.6288C80.129 35.6542 80.053 35.6373 80.0276 35.5865C80.0022 35.5358 80.0699 35.502 80.1713 35.4936C80.2896 35.4936 80.3149 35.4767 80.2389 35.4429C80.1713 35.426 80.053 35.3837 79.9853 35.3668C79.8839 35.333 79.9008 35.2908 80.0614 35.1809L80.2558 35.0373C80.0361 33.9894 79.8248 33.0936 79.6389 32.3753C79.453 31.657 79.0473 30.3133 78.7347 29.3922L78.1685 27.719C77.3487 27.7274 77.1121 27.7528 77.1121 27.7866V27.7951ZM72.8192 28.5134C72.853 28.8091 72.9122 30.2542 72.946 31.7331C72.9882 33.4147 73.0474 34.4119 73.0981 34.4119C73.1403 34.4119 73.1234 34.4542 73.0558 34.4964C72.9713 34.5528 72.9629 34.5809 73.0305 34.5809C73.0896 34.5809 73.1403 34.6739 73.1403 34.7922C73.1403 34.995 73.1657 35.0035 73.5375 34.9781L73.9431 34.9612C73.9178 31.8852 73.8502 30.3809 73.7741 29.6373C73.7065 28.8936 73.622 28.2176 73.6051 28.1331C73.5713 28.0232 73.4699 27.9894 73.1572 27.9894H72.7601L72.8192 28.5134ZM84.6501 28.5387C84.498 28.6063 84.1938 28.6655 83.974 28.6739L83.5769 28.6908C84.4473 30.5331 84.8614 31.4711 85.0557 31.9528C85.2501 32.4429 85.5374 33.2035 85.6895 33.6429C85.8501 34.0908 86.0867 34.8513 86.2304 35.333C86.3656 35.8232 86.5599 36.626 86.6614 37.1077C86.7628 37.5978 86.898 38.0879 86.9656 38.1893C87.0416 38.3161 87.1599 38.3753 87.3374 38.3753C87.4726 38.3753 87.5909 38.4175 87.5909 38.4598C87.5909 38.5105 87.6754 38.5274 87.7768 38.502C87.8782 38.4682 88.0557 38.3584 88.1571 38.2485C88.2839 38.1133 88.3515 37.9358 88.3515 37.7415C88.3515 37.5809 88.267 37.0823 88.174 36.626C88.0726 36.1696 87.8613 35.3753 87.7092 34.8513C87.5487 34.3274 87.1937 33.3218 86.9149 32.6119C86.636 31.9021 86.0867 30.6683 85.6895 29.8655C85.2923 29.0626 84.9543 28.4119 84.9459 28.4119C84.9374 28.4204 84.8022 28.4796 84.6501 28.5387ZM47.3912 72.0088C47.2898 72.0511 47.1462 72.1779 47.0786 72.2793C47.0025 72.3891 46.9434 72.5919 46.9434 72.7356C46.9434 72.8708 47.0363 73.4032 47.1546 73.9187C47.2645 74.4257 47.5011 75.2792 47.6701 75.8201C47.8391 76.3525 48.1349 77.206 48.3293 77.7215C48.5321 78.2285 48.9546 79.2088 49.2757 79.8849L49.8588 81.1271C50.3152 80.9496 50.5856 80.8736 50.763 80.8482C50.9405 80.8229 51.1518 80.7722 51.1687 80.713C51.1856 80.6539 51.0419 80.3412 50.8983 80.0454C50.763 79.7412 50.3997 78.8792 50.1123 78.144C49.8166 77.4004 49.4194 76.2764 49.2335 75.6511C49.0476 75.0173 48.794 74.0285 48.6673 73.4539C48.5067 72.7102 48.3884 72.3384 48.2617 72.2032C48.1603 72.1018 47.9659 72.0004 47.8307 71.975C47.687 71.9497 47.4926 71.9666 47.3912 72.0088ZM62.4841 73.7666C62.4925 73.944 62.4503 73.9525 62.0024 73.9525H61.5207C61.4193 74.4511 61.3939 75.5243 61.3939 76.6652C61.3939 77.7975 61.4362 79.3102 61.4954 80.0201L61.6052 81.313L62.4925 81.3046C62.3996 80.8144 62.3742 79.4792 62.3742 78.0088C62.3742 76.3947 62.4165 75.0257 62.4841 74.5187C62.5432 74.0539 62.5686 73.6567 62.5348 73.6314C62.5094 73.5976 62.4841 73.6652 62.4841 73.7666ZM55.6475 74.6285C55.6475 74.7722 55.5799 74.806 55.3264 74.8229C55.0222 74.8398 55.0137 74.8567 55.0306 75.1356C55.0475 75.3046 55.1827 76.006 55.3433 76.699C55.4954 77.4004 55.7996 78.5581 56.0109 79.2764C56.2222 80.0032 56.4672 80.7975 56.5602 81.051L56.7123 81.5158C57.4221 81.4736 57.6588 81.4398 57.701 81.406C57.7348 81.3806 57.5912 80.7215 57.3799 79.9525C57.1686 79.1919 56.856 77.9328 56.6954 77.1637C56.5264 76.4032 56.3489 75.4821 56.2898 75.1187L56.1968 74.4595C55.6982 74.4595 55.6475 74.5018 55.6475 74.6285Z" fill="white"/>
<path opacity="0.99" d="M72.9377 34.699C72.9123 34.7666 72.887 35.0286 72.887 35.2737C72.887 35.5103 72.8278 36.2286 72.7602 36.8539C72.6842 37.4793 72.532 38.5272 72.4137 39.1779C72.3039 39.8286 72.1349 40.6821 72.0504 41.0793C71.9067 41.7131 71.9067 41.8314 72.0081 42.0764C72.0757 42.2201 72.2194 42.3807 72.3377 42.4314C72.4898 42.4905 72.6081 42.4821 72.7687 42.406C72.9039 42.3469 73.0053 42.1948 73.056 42.0088C73.0982 41.8483 73.1912 41.4511 73.2588 41.1215C73.3264 40.7919 73.4532 40.0145 73.5546 39.3891C73.6475 38.7638 73.7574 37.7751 73.8081 37.192C73.8588 36.6089 73.9095 35.8737 73.9264 35.5441L73.9433 34.9525C73.1658 34.9948 73.1405 34.9863 73.1405 34.7835C73.1405 34.6652 73.1067 34.5723 73.0644 34.5723C73.0222 34.5723 72.963 34.6314 72.9377 34.699ZM79.0982 35.13C78.9292 35.1723 78.9292 35.1723 79.1151 36.2032C79.2503 36.9384 79.3264 37.7497 79.3686 39.0511C79.4193 40.8088 79.4278 40.8764 79.6221 41.0624C79.7404 41.1722 79.9179 41.2483 80.07 41.2483C80.2475 41.2483 80.408 41.1722 80.5517 41.0117L80.7799 40.7835C80.6954 38.299 80.6024 37.192 80.5348 36.7272C80.4587 36.2624 80.3911 35.8483 80.3911 35.7976C80.3827 35.7469 80.2897 35.7216 80.1799 35.73C80.07 35.7469 79.9855 35.7216 79.9855 35.6709C79.9855 35.6201 79.9433 35.6032 79.901 35.6286C79.8587 35.6539 79.8165 35.637 79.8165 35.5863C79.8165 35.5356 79.7658 35.5103 79.6982 35.5187C79.6306 35.5356 79.5461 35.5694 79.5123 35.6032C79.4785 35.6455 79.4024 35.6709 79.3348 35.6709C79.2672 35.6709 79.2249 35.5694 79.2249 35.4173C79.2249 35.1723 79.2334 35.1638 79.5376 35.2145C79.7151 35.2399 79.901 35.299 79.9433 35.3413C79.9855 35.3835 80.0954 35.4173 80.1714 35.4173C80.2728 35.4173 80.3151 35.3666 80.2982 35.2652C80.2813 35.1892 80.2137 35.1385 80.1461 35.1554C80.0785 35.1723 79.9855 35.1892 79.9433 35.1892C79.901 35.1892 79.7235 35.1638 79.563 35.1385C79.4024 35.1131 79.1911 35.1131 79.0982 35.13ZM62.4927 68.096C62.349 68.2143 62.2645 68.4678 62.104 69.2199C61.9941 69.7523 61.8335 70.7241 61.7406 71.3748C61.6476 72.0255 61.5547 72.8706 61.5293 73.2509L61.4786 73.9523H62.4504C62.611 73.2002 62.6786 72.7861 62.704 72.5579C62.7378 72.3213 62.8138 71.8312 62.873 71.4593C62.9406 71.0875 63.0673 70.403 63.1687 69.9382C63.2701 69.4734 63.3716 68.958 63.3969 68.7974C63.4476 68.5439 63.4138 68.4594 63.1856 68.2228C63.0335 68.0791 62.8645 67.9523 62.7969 67.9523C62.7378 67.9523 62.6025 68.0199 62.4927 68.096ZM54.7773 69.4903L54.5068 69.7523C54.5998 71.865 54.6843 72.9129 54.7604 73.4453C54.828 73.9776 54.904 74.51 54.9294 74.6283C54.9716 74.8143 55.0139 74.8396 55.3096 74.8143C55.5801 74.7974 55.6477 74.7636 55.6477 74.6283C55.6477 74.4931 55.7068 74.4593 55.9181 74.4593H56.197C56.0871 73.572 56.028 72.8791 55.9857 72.3467C55.9434 71.8143 55.9012 70.9861 55.9012 70.5044C55.9012 69.7016 55.8843 69.6256 55.6899 69.4312C55.5716 69.3129 55.3773 69.2199 55.2589 69.2199C55.1322 69.2199 54.9378 69.3298 54.7773 69.4903Z" fill="white"/>
<path opacity="0.21" d="M75.4644 17.6711C75.7939 18.0007 76.0728 18.2627 76.0982 18.2627C76.1235 18.2627 75.8869 18.0007 75.5742 17.6711C75.2615 17.35 74.9742 17.0796 74.9404 17.0796C74.9066 17.0796 75.1348 17.3416 75.4644 17.6711ZM97.3938 24.5584C97.8332 24.9978 98.2135 25.3612 98.2388 25.3612C98.2642 25.3612 97.9346 24.9978 97.5036 24.5584C97.0726 24.119 96.6924 23.7556 96.6585 23.7556C96.6247 23.7556 96.9543 24.119 97.3938 24.5584ZM72.9207 32.502C72.9207 33.1527 72.9376 33.3978 72.9461 33.0513C72.963 32.7048 72.963 32.1725 72.9461 31.8682C72.9292 31.564 72.9207 31.8513 72.9207 32.502ZM74.0193 33.6429C74.0193 34.1753 74.0277 34.3865 74.0446 34.1076C74.0616 33.8288 74.0616 33.3893 74.0446 33.1358C74.0277 32.8823 74.0193 33.1105 74.0193 33.6429ZM24.4141 59.0793C24.4141 59.8483 24.431 60.1525 24.4394 59.7554C24.4563 59.3582 24.4563 58.7328 24.4394 58.361C24.431 57.9892 24.4141 58.3103 24.4141 59.0793ZM54.4983 70.6145C54.4983 71.0792 54.5068 71.2483 54.5237 70.9947C54.5406 70.7412 54.5406 70.3609 54.5237 70.1497C54.5068 69.9384 54.4983 70.1497 54.4983 70.6145ZM37.352 85.3608C37.8168 85.8256 38.214 86.2059 38.2393 86.2059C38.2647 86.2059 37.9097 85.8256 37.4618 85.3608C37.0055 84.8961 36.6083 84.5158 36.5745 84.5158C36.5407 84.5158 36.8872 84.8961 37.352 85.3608ZM57.6335 91.9523C58.0053 92.3242 58.3265 92.6284 58.3518 92.6284C58.3772 92.6284 58.0983 92.3242 57.7434 91.9523C57.3884 91.5805 57.0589 91.2763 57.0251 91.2763C56.9913 91.2763 57.2617 91.5805 57.6335 91.9523Z" fill="white"/>
<path opacity="0.8" d="M24.3379 61.3609C24.321 61.3947 24.3463 61.7835 24.3801 62.037L24.4393 62.5018C24.4562 61.6821 24.3632 59.9243 24.3379 59.9243C24.321 59.9243 24.3548 61.3187 24.3379 61.3609Z" fill="white"/>
<path fill-rule="evenodd" clip-rule="evenodd" d="M68.5348 45.9386C69.3545 45.9555 69.8362 46.0231 70.4362 46.1752C70.8756 46.2935 71.4841 46.4963 71.7883 46.6316C72.0925 46.7668 72.5658 47.0287 72.8446 47.2062C73.1235 47.3752 73.6137 47.7386 73.9348 48.0006C74.2559 48.2625 74.7629 48.778 75.0587 49.1499C75.3798 49.547 75.7855 50.2062 76.0559 50.7555C76.3094 51.271 76.5883 51.9893 76.6897 52.3611C76.7826 52.7329 76.901 53.4005 76.9432 53.84C76.9855 54.3301 76.9855 54.9554 76.9432 55.4456C76.901 55.885 76.7826 56.5526 76.6897 56.9245C76.5883 57.2963 76.3263 57.9808 76.0981 58.4456C75.8784 58.9104 75.4897 59.5526 75.2362 59.8822C74.9911 60.2118 74.577 60.6765 74.3235 60.9301C74.07 61.1751 73.6306 61.547 73.3517 61.7498C73.0728 61.9441 72.5404 62.2568 72.1686 62.4427C71.7968 62.6286 71.1883 62.8737 70.8165 62.992C70.4447 63.1103 69.8024 63.254 69.3799 63.3047C68.9405 63.3638 68.2729 63.3892 67.8165 63.3638C67.3771 63.3385 66.7517 63.254 66.4222 63.1864C66.0926 63.1188 65.6025 62.9836 65.3236 62.8822C65.0447 62.7892 64.5123 62.5441 64.1405 62.3498C63.7687 62.147 63.2363 61.8174 62.9574 61.6061C62.6785 61.3864 62.1884 60.9301 61.8588 60.592C61.5377 60.2456 61.0898 59.6794 60.8701 59.3329C60.6419 58.9864 60.3546 58.4371 60.2194 58.1075C60.0842 57.778 59.8898 57.2118 59.7884 56.8399C59.6532 56.3414 59.5856 55.8343 59.5602 54.9385C59.5264 53.9329 59.5518 53.5695 59.687 52.9104C59.78 52.471 59.9743 51.8034 60.118 51.4315C60.2617 51.0597 60.5743 50.4344 60.8194 50.0372C61.0645 49.64 61.5461 49.0231 61.9011 48.6513C62.2475 48.2879 62.7799 47.8062 63.0842 47.5865C63.3884 47.3668 63.9377 47.0287 64.3095 46.8428C64.6813 46.6569 65.3067 46.4034 65.7039 46.2851C66.101 46.1583 66.6503 46.0231 66.9292 45.9809C67.2081 45.9386 67.9348 45.9217 68.5348 45.9386ZM66.2109 50.9667C65.9996 51.0766 65.6447 51.3386 65.4165 51.5498C65.1884 51.7611 64.8841 52.1329 64.732 52.3611C64.5884 52.5977 64.4025 52.9526 64.318 53.1639C64.2334 53.3752 64.1405 53.7893 64.1067 54.0935C64.0644 54.3977 64.0729 54.9047 64.1067 55.2343C64.1574 55.623 64.2842 56.0456 64.487 56.4597C64.6982 56.9075 64.9433 57.2456 65.3151 57.6005C65.594 57.8794 66.0165 58.209 66.2532 58.3357C66.4813 58.4625 66.9039 58.623 67.1827 58.6906C67.4616 58.7667 67.9348 58.8258 68.239 58.8258C68.5433 58.8258 69.0081 58.7667 69.27 58.6991C69.5404 58.6315 69.963 58.4709 70.1996 58.3442C70.4447 58.2258 70.8503 57.9301 71.0954 57.6935C71.3489 57.4568 71.6616 57.0935 71.7883 56.8822C71.9235 56.6709 72.1094 56.2737 72.2108 55.9949C72.3038 55.716 72.4052 55.2597 72.4306 54.9808C72.4559 54.7019 72.439 54.2287 72.3799 53.9245C72.3292 53.6202 72.1855 53.1639 72.0756 52.9104C71.9573 52.6569 71.7123 52.2597 71.5348 52.0231C71.3573 51.7949 70.9686 51.4315 70.6728 51.2287C70.3855 51.0174 69.9292 50.7724 69.6757 50.6794C69.363 50.5696 68.932 50.5104 68.3658 50.4851C67.7151 50.4682 67.4109 50.4935 67.056 50.6118C66.8024 50.6963 66.4222 50.8569 66.2109 50.9667ZM30.8196 46.8935L34.9689 46.9273C38.9153 46.9611 39.1604 46.978 39.8027 47.147C40.1745 47.2485 40.766 47.4682 41.1125 47.6456C41.5604 47.8654 41.9153 48.1273 42.3463 48.5499C42.7519 48.9555 43.0308 49.3273 43.2083 49.6991C43.3519 50.0034 43.5378 50.4935 43.6139 50.7977C43.7153 51.1696 43.766 51.6681 43.766 52.3188C43.766 52.9949 43.7238 53.4597 43.6223 53.84C43.5378 54.1442 43.3435 54.6343 43.1998 54.9385C43.0224 55.2935 42.7181 55.6991 42.3379 56.0794C41.9576 56.4597 41.535 56.7808 41.1548 56.9836C40.8252 57.1526 40.2928 57.3723 39.9717 57.4822C39.4646 57.6428 39.1266 57.6766 35.7464 57.7695L35.7041 62.8822H30.8027L30.8196 46.8935ZM35.8309 53.7977C37.5294 53.7893 37.8421 53.747 38.028 53.654C38.1717 53.578 38.3492 53.4428 38.4337 53.3583C38.5097 53.2738 38.6196 52.9949 38.6703 52.7414C38.7463 52.378 38.7463 52.1921 38.6618 51.8963C38.6111 51.685 38.459 51.4146 38.3323 51.3048C38.2055 51.1865 37.9773 51.0597 37.8168 51.0259C37.6562 50.9921 37.1323 50.9583 36.659 50.9667H35.7886L35.8309 53.7977ZM45.4308 46.8935L49.7998 46.9273C53.9406 46.9611 54.2025 46.9696 54.8617 47.147C55.2504 47.2485 55.7828 47.4344 56.0448 47.5696C56.3152 47.6963 56.7039 47.9161 56.9152 48.0597C57.1265 48.2034 57.4814 48.5245 57.7011 48.778C57.9293 49.0231 58.225 49.4625 58.3603 49.7414C58.4955 50.0203 58.6645 50.4513 58.7321 50.7132C58.7997 50.9836 58.8588 51.5498 58.8588 52.0653C58.8588 52.5977 58.7997 53.1555 58.7236 53.4597C58.6476 53.7386 58.4701 54.1949 58.3265 54.4738C58.1743 54.7526 57.8279 55.209 57.549 55.4878C57.211 55.8343 56.8138 56.1132 56.3659 56.3414C55.9941 56.5273 55.6307 56.6963 55.5715 56.7132C55.4786 56.7385 55.918 57.5836 57.1011 59.6709C58.0138 61.2681 58.7828 62.654 58.8081 62.73C58.8588 62.8737 58.6898 62.8822 53.4927 62.8822L52.0223 60.0681C51.211 58.5216 50.5181 57.2202 50.4758 57.178C50.4336 57.1273 50.4082 58.2935 50.4082 62.8822L45.4646 62.8399L45.4308 46.8935ZM50.4843 53.747C52.4786 53.747 52.9434 53.7132 53.1293 53.6371C53.2814 53.5695 53.4758 53.4343 53.5687 53.3245C53.6955 53.1893 53.7547 52.9864 53.7716 52.5808C53.8054 52.1245 53.78 51.9639 53.6364 51.7188C53.5265 51.5329 53.3406 51.3724 53.1209 51.2794C52.842 51.1611 52.5293 51.1273 51.6251 51.1273H50.4843V53.747Z" fill="white"/>
<path opacity="0.99" fill-rule="evenodd" clip-rule="evenodd" d="M106.842 46.851C106.723 47.1383 105.058 50.9242 103.149 55.251C101.239 59.5861 99.6754 63.1777 99.6754 63.2199C99.6754 63.2706 100.149 63.3044 100.926 63.3044L102.168 63.3129L103.63 59.6284H110.518L111.971 63.3129C113.965 63.3044 114.532 63.2791 114.515 63.2368C114.498 63.203 112.825 59.3918 110.788 54.7693C108.751 50.1468 107.087 46.3524 107.078 46.344C107.07 46.3355 106.968 46.5637 106.842 46.851ZM105.692 54.6256C106.444 52.7158 107.087 51.1693 107.112 51.1862C107.137 51.2116 107.746 52.7749 109.799 58.1073L107.078 58.1242C105.591 58.1411 104.357 58.1411 104.34 58.1242C104.332 58.1157 104.94 56.5439 105.692 54.6256ZM78.2953 54.9383V63.3044H80.746V46.5721H78.2953V54.9383ZM94.3938 53.0791C92.2135 56.62 90.4051 59.5101 90.3797 59.5016C90.3544 59.5016 89.0445 57.4059 87.4643 54.8369C85.884 52.2763 84.1094 49.3947 83.5094 48.4397L82.4361 46.6989V63.3044L84.8446 63.2622C84.8446 56.6115 84.8615 54.6848 84.8868 54.6848C84.9122 54.6848 86.146 56.6538 87.6333 59.0707C89.1206 61.4875 90.3544 63.465 90.3797 63.4734C90.4051 63.4734 91.6389 61.496 93.1262 59.0791C94.6135 56.6707 95.8558 54.6932 95.898 54.6848C95.9318 54.6848 95.9572 56.6284 95.9572 58.9946V63.3044C98.0107 63.3044 98.3318 63.2791 98.3656 63.1946C98.3909 63.1439 98.3994 59.3918 98.3909 54.8707L98.3656 46.6567L94.3938 53.0791ZM154.723 53.0791C152.543 56.6115 150.743 59.5016 150.717 59.5016C150.692 59.5016 149.196 57.0932 147.379 54.1608C145.571 51.22 143.788 48.3468 143.433 47.7552L142.774 46.6989V63.3044L145.148 63.2622C145.14 56.6115 145.165 54.6763 145.207 54.6763C145.241 54.6763 146.484 56.6538 147.971 59.0707C149.458 61.4875 150.692 63.465 150.717 63.465C150.743 63.465 151.976 61.496 153.464 59.0791C154.951 56.6622 156.193 54.6848 156.236 54.6848C156.269 54.6848 156.295 56.62 156.295 58.9946V63.3044L158.703 63.2622C158.737 50.3918 158.737 46.6567 158.72 46.6567C158.703 46.6567 156.903 49.5468 154.723 53.0791ZM121.14 46.8172C120.836 46.8595 120.32 46.9524 119.999 47.0285C119.678 47.1045 119.12 47.2905 118.774 47.4426C118.427 47.5947 117.912 47.8651 117.633 48.051C117.354 48.2369 116.864 48.6341 116.543 48.9383C116.222 49.2341 115.799 49.7158 115.605 49.9947C115.402 50.2735 115.115 50.7637 114.946 51.0932C114.785 51.4144 114.574 51.9468 114.473 52.2763C114.371 52.5975 114.236 53.2059 114.168 53.6284C114.101 54.0425 114.042 54.6763 114.042 55.0397C114.042 55.4031 114.101 56.0622 114.168 56.5186C114.236 56.9749 114.388 57.634 114.506 57.9974C114.625 58.3608 114.853 58.927 115.022 59.265C115.191 59.603 115.52 60.1439 115.765 60.465C116.002 60.7861 116.391 61.2171 116.619 61.4284C116.856 61.6312 117.287 61.9692 117.591 62.1636C117.895 62.3664 118.427 62.6368 118.774 62.7805C119.12 62.9157 119.712 63.0932 120.084 63.1692C120.456 63.2453 121.157 63.3298 121.647 63.3551C122.146 63.3805 122.889 63.3636 123.337 63.3044C123.777 63.2537 124.503 63.0847 124.943 62.9411C125.382 62.7889 125.974 62.5185 126.253 62.3411C126.532 62.1636 126.946 61.8425 127.165 61.6227C127.394 61.403 127.732 61.0059 127.926 60.727C128.112 60.4481 128.374 59.9664 128.492 59.6707C128.619 59.3664 128.796 58.8171 128.881 58.4453C128.999 57.9214 129.041 57.4312 129.041 56.3326V54.896H123.16L123.126 56.9664C126.033 56.9664 126.734 56.9918 126.76 57.051C126.785 57.0932 126.768 57.4059 126.734 57.7439C126.684 58.1326 126.565 58.5636 126.396 58.927C126.236 59.2566 125.957 59.6707 125.72 59.8988C125.501 60.1185 125.078 60.4228 124.774 60.5749C124.47 60.727 123.937 60.9129 123.591 60.989C123.109 61.0904 122.695 61.1157 121.901 61.0819C121.157 61.0481 120.709 60.989 120.38 60.8706C120.126 60.7777 119.729 60.6087 119.492 60.4904C119.264 60.3636 118.884 60.1101 118.647 59.9157C118.419 59.7214 118.064 59.3664 117.861 59.1298C117.667 58.8932 117.371 58.4284 117.219 58.1073C117.058 57.7777 116.864 57.2876 116.788 57.0087C116.712 56.7214 116.627 56.0031 116.602 55.4031C116.568 54.5665 116.585 54.127 116.695 53.5862C116.788 53.1129 116.974 52.589 117.227 52.0651C117.549 51.4144 117.743 51.1355 118.258 50.62C118.622 50.2651 119.12 49.8763 119.408 49.7242C119.687 49.5721 120.202 49.3778 120.549 49.2764C121.013 49.1496 121.427 49.1073 122.112 49.1073C122.678 49.1073 123.236 49.158 123.548 49.2426C123.827 49.3102 124.284 49.4876 124.554 49.6397C124.833 49.7834 125.289 50.1214 125.568 50.3834L126.084 50.8651L127.816 49.5299C127.301 48.9045 126.988 48.5919 126.785 48.4228C126.582 48.2538 126.253 48.0003 126.041 47.8651C125.83 47.7214 125.433 47.5017 125.154 47.375C124.875 47.2482 124.343 47.0792 123.971 46.9862C123.599 46.9017 122.932 46.8088 122.492 46.7919C122.053 46.7665 121.444 46.7834 121.14 46.8172ZM131.365 55.1073V63.3044H141.337V60.9382H134.239V55.5298H139.562V53.2482H134.239V49.1073H141.337V46.9102H131.365V55.1073ZM80.915 67.1072C80.915 67.6143 80.8981 68.0368 80.8728 68.0368C80.8474 68.0368 80.7291 67.9523 80.6024 67.8593C80.4671 67.7664 80.1798 67.665 79.9432 67.6396C79.6136 67.5974 79.4362 67.6227 79.1319 67.7664C78.8531 67.8931 78.6672 68.0537 78.515 68.3072C78.3883 68.5185 78.2784 68.8565 78.2446 69.1354C78.2108 69.4142 78.2362 69.7861 78.2953 70.0649C78.3714 70.3861 78.4982 70.6227 78.7094 70.8509C78.8953 71.0452 79.1404 71.2058 79.3517 71.2565C79.5376 71.3072 79.8418 71.3241 80.0277 71.2987C80.2136 71.2649 80.4671 71.172 80.6024 71.079C80.7291 70.9861 80.8474 70.91 80.8728 70.91C80.8981 70.91 80.915 70.9861 80.915 71.079C80.915 71.2142 80.9742 71.248 81.2108 71.248H81.5066V66.1777H80.915V67.1072ZM79.5122 68.2396C79.6559 68.1805 79.7911 68.1213 79.8164 68.1213C79.8418 68.1213 79.9855 68.1467 80.146 68.1805C80.3066 68.2143 80.5263 68.3326 80.6362 68.434C80.8136 68.6114 80.8305 68.6959 80.8305 69.4481C80.8305 70.1579 80.8136 70.3016 80.6615 70.4621C80.5686 70.5635 80.3488 70.6903 80.1798 70.7326C79.9601 70.7833 79.7657 70.7833 79.5714 70.7072C79.4108 70.6565 79.1996 70.5044 79.1066 70.3692C78.9629 70.1748 78.9291 70.0142 78.9291 69.4819C78.9291 68.9748 78.9629 68.772 79.0897 68.5945C79.1827 68.4593 79.3686 68.3072 79.5122 68.2396ZM100.706 66.6171L100.377 67.065C100.766 67.1072 100.918 67.0143 101.281 66.6424L101.746 66.1777C101.061 66.1777 101.011 66.203 100.706 66.6171ZM137.171 66.6424L136.858 67.1072C137.264 67.1072 137.441 66.9805 137.779 66.6424L138.244 66.1777C137.509 66.1777 137.475 66.1946 137.171 66.6424ZM142.588 67.1072C142.596 67.6143 142.588 68.0368 142.562 68.0368C142.537 68.0368 142.419 67.9523 142.292 67.8593C142.157 67.7664 141.869 67.665 141.633 67.6396C141.295 67.5974 141.126 67.6227 140.813 67.7664C140.5 67.9016 140.357 68.0452 140.179 68.3495C140.027 68.6199 139.94 68.9241 139.917 69.2621C139.892 69.5917 139.926 69.9128 140.01 70.1917C140.086 70.4199 140.272 70.7326 140.424 70.8847C140.577 71.0368 140.838 71.1973 140.999 71.2396C141.16 71.2903 141.388 71.3325 141.506 71.3325C141.624 71.3325 141.912 71.2396 142.14 71.1213C142.377 71.003 142.571 70.91 142.588 70.91C142.596 70.91 142.605 70.9861 142.605 71.079C142.605 71.2142 142.664 71.248 142.9 71.248H143.196V66.1777L142.562 66.1692L142.588 67.1072ZM141.177 68.2734C141.337 68.1889 141.489 68.1213 141.515 68.1213C141.531 68.1213 141.684 68.1551 141.844 68.1889C141.996 68.2227 142.216 68.3495 142.326 68.4678C142.512 68.6537 142.529 68.7466 142.529 69.4819C142.529 70.2002 142.512 70.3016 142.334 70.4706C142.233 70.572 142.022 70.6987 141.869 70.741C141.667 70.8086 141.506 70.8002 141.286 70.7241C141.117 70.6649 140.898 70.5128 140.796 70.3776C140.669 70.2086 140.619 69.9889 140.593 69.5748C140.577 69.1607 140.61 68.9326 140.72 68.7213C140.813 68.5523 141.008 68.3579 141.177 68.2734ZM83.2052 66.4058C83.1291 66.4312 83.0868 66.541 83.0953 66.6931C83.1122 66.8875 83.1629 66.9551 83.3319 66.9889C83.4418 67.0058 83.5939 66.9805 83.6699 66.9213C83.7375 66.8622 83.7967 66.7607 83.7967 66.6931C83.7967 66.6171 83.746 66.5157 83.6868 66.4565C83.6277 66.3974 83.5263 66.3551 83.4587 66.3551C83.3826 66.3636 83.2728 66.3805 83.2052 66.4058ZM111.177 66.4565C111.109 66.5072 111.058 66.6086 111.067 66.6847C111.075 66.7607 111.135 66.8622 111.194 66.9213C111.253 66.9805 111.363 67.0312 111.439 67.0312C111.523 67.0312 111.642 66.972 111.718 66.9044C111.785 66.8283 111.853 66.7354 111.853 66.6931C111.853 66.6424 111.794 66.5495 111.726 66.4819C111.65 66.4058 111.523 66.3551 111.447 66.3551C111.363 66.3551 111.236 66.3974 111.177 66.4565ZM144.853 66.4819C144.776 66.5579 144.709 66.6509 144.717 66.6931C144.717 66.7354 144.785 66.8368 144.869 66.9044C144.954 66.9805 145.089 67.0312 145.174 67.0143C145.267 66.9974 145.376 66.9213 145.427 66.8368C145.503 66.7269 145.503 66.6509 145.427 66.541C145.376 66.4565 145.258 66.3805 145.165 66.3636C145.072 66.3551 144.929 66.4058 144.853 66.4819ZM108.456 67.2086L108.43 67.665C107.746 67.6988 107.712 67.7241 107.712 67.9185C107.712 68.1044 107.737 68.1297 108.092 68.1297H108.473C108.464 70.8171 108.473 70.8762 108.658 71.0621C108.76 71.1635 108.963 71.2734 109.106 71.2987C109.242 71.3325 109.461 71.3325 109.588 71.3072C109.766 71.2649 109.825 71.2058 109.825 71.0452C109.825 70.8593 109.782 70.834 109.546 70.834C109.394 70.834 109.225 70.7833 109.166 70.7241C109.089 70.648 109.056 70.2678 109.056 69.372L109.064 68.1297C109.706 68.1297 109.74 68.1044 109.74 67.9185C109.74 67.7241 109.706 67.7072 109.402 67.7072H109.064C109.022 66.8283 109.013 66.8115 108.751 66.7861C108.489 66.7607 108.489 66.7692 108.456 67.2086ZM86.2051 67.7241C86.0615 67.7833 85.8587 67.8762 85.7572 67.9354C85.6558 67.9945 85.5122 68.1551 85.4446 68.2988C85.3685 68.434 85.3178 68.5692 85.3178 68.5945C85.3178 68.6114 85.4446 68.6368 85.6136 68.6368C85.8333 68.6368 85.9347 68.5861 86.0361 68.4255C86.1037 68.2988 86.2981 68.172 86.4755 68.1129C86.653 68.0621 86.915 68.0452 87.0671 68.0706C87.2277 68.1044 87.4136 68.2227 87.515 68.3579C87.6079 68.4847 87.684 68.7128 87.684 68.865V69.1438C86.3741 69.1861 86.0277 69.2368 85.8418 69.3382C85.6896 69.4143 85.4953 69.6002 85.4023 69.7523C85.3094 69.9044 85.2333 70.1326 85.2333 70.2593C85.2333 70.3861 85.2756 70.5889 85.3347 70.7072C85.3939 70.834 85.5544 71.003 85.6981 71.0875C85.8333 71.172 86.0953 71.2649 86.2896 71.2987C86.4924 71.3325 86.7629 71.3156 86.991 71.2396C87.1939 71.1804 87.4051 71.079 87.4558 71.0199C87.5065 70.9523 87.5826 70.91 87.6164 70.91C87.6502 70.91 87.7009 70.9945 87.7262 71.0875C87.7516 71.2142 87.8361 71.2565 88.1065 71.2565H88.4445C88.3093 70.8255 88.2671 70.2002 88.2671 69.5833C88.2671 68.6706 88.2417 68.4171 88.1234 68.2143C88.0389 68.079 87.8615 67.9016 87.7262 67.8171C87.5826 67.741 87.2361 67.665 86.9657 67.6481C86.6868 67.6312 86.3403 67.665 86.2051 67.7241ZM86.4333 69.634C86.5347 69.6002 86.8389 69.5748 87.5995 69.5664V69.9889C87.5995 70.3692 87.5741 70.4199 87.3206 70.572C87.1516 70.6818 86.8981 70.741 86.6446 70.741C86.3572 70.741 86.1967 70.6987 86.0784 70.5804C85.977 70.4875 85.9094 70.31 85.9094 70.2002C85.9094 70.0818 85.9854 69.9213 86.0784 69.8368C86.1713 69.7523 86.3319 69.6678 86.4333 69.634ZM90.5741 67.7833C90.3375 67.9016 90.1431 68.079 89.9995 68.3157C89.8727 68.5354 89.7713 68.865 89.7375 69.1861C89.7037 69.5241 89.729 69.8368 89.8136 70.1579C89.915 70.4959 90.0417 70.6987 90.2952 70.9354C90.5403 71.1635 90.7431 71.2649 90.9966 71.2987C91.191 71.3325 91.5037 71.3156 91.698 71.2649C91.884 71.2142 92.0868 71.1213 92.1628 71.0452C92.2304 70.9692 92.3234 70.91 92.3741 70.91C92.4248 70.91 92.4332 71.0452 92.391 71.2734C92.3656 71.4678 92.2642 71.7297 92.1713 71.848C92.0868 71.9579 91.8671 72.1016 91.6896 72.1607C91.4868 72.2283 91.2417 72.2452 91.0642 72.2114C90.8952 72.1776 90.6417 72.0593 90.4896 71.9494C90.2192 71.7635 90.2107 71.7635 90.0924 71.9325C90.0164 72.0255 89.9826 72.1354 90.0079 72.1861C90.0248 72.2283 90.2107 72.3466 90.4051 72.448C90.5995 72.541 90.9375 72.6424 91.1488 72.6677C91.3516 72.6847 91.6896 72.6678 91.884 72.617C92.0783 72.5579 92.3825 72.3973 92.5431 72.2452C92.7121 72.0931 92.8811 71.8396 92.9234 71.679C92.9656 71.51 92.9994 70.5551 92.9994 69.541L93.0079 67.7072C92.467 67.7072 92.4163 67.7326 92.4163 67.8762C92.4163 67.9692 92.3825 68.0452 92.3487 68.0452C92.3149 68.0452 92.1797 67.9523 92.0445 67.8509C91.884 67.7241 91.6642 67.6565 91.3685 67.6396C91.0642 67.6227 90.8276 67.665 90.5741 67.7833ZM90.8952 68.3157C91.0473 68.2143 91.2671 68.1297 91.3685 68.1297C91.4783 68.1297 91.698 68.1805 91.8671 68.2565C92.0276 68.3241 92.1966 68.4593 92.2473 68.5523C92.2896 68.6452 92.3318 69.0762 92.3318 69.5241C92.3318 70.31 92.3234 70.3269 92.0783 70.5382C91.884 70.6903 91.7234 70.7495 91.4445 70.7495C91.2333 70.7495 90.9882 70.7072 90.8952 70.6649C90.7938 70.6142 90.6502 70.4114 90.5572 70.2171C90.4642 70.0142 90.3882 69.6847 90.3882 69.4819C90.3966 69.2706 90.4473 68.9664 90.5065 68.8058C90.5657 68.6368 90.7347 68.4255 90.8952 68.3157ZM95.7966 67.7157C95.6783 67.7664 95.4755 67.8762 95.3487 67.9607L95.1206 68.1297C95.1206 67.7326 95.0783 67.7072 94.8248 67.7072H94.529V71.2565H95.1206C95.1206 68.7551 95.1206 68.7128 95.3318 68.4678C95.4417 68.3241 95.6614 68.172 95.8135 68.1297C95.9825 68.0875 96.2107 68.0875 96.405 68.1297C96.5825 68.172 96.7769 68.2988 96.8529 68.4002C96.9459 68.5523 96.9797 68.8734 96.9797 69.9213V71.2565H97.5712C97.5628 68.7382 97.5374 68.4593 97.4191 68.2143C97.3346 68.0368 97.1487 67.8509 96.9797 67.7664C96.8107 67.6819 96.5318 67.6227 96.3459 67.6227C96.1515 67.6227 95.9065 67.665 95.7966 67.7157ZM100.064 67.7495C99.8698 67.8171 99.6501 67.9354 99.5656 68.0199C99.4811 68.1044 99.3374 68.265 99.2529 68.3833C99.1684 68.4931 99.0585 68.7889 99.0078 69.034C98.9487 69.3466 98.9487 69.6086 99.0078 69.9213C99.0585 70.1664 99.1853 70.4875 99.3036 70.6396C99.4135 70.7917 99.6332 70.9861 99.7853 71.079C99.9374 71.172 100.233 71.2734 100.444 71.2987C100.647 71.3241 100.968 71.3072 101.163 71.2649C101.349 71.2142 101.628 71.0875 101.788 70.9776C101.94 70.8762 102.151 70.6396 102.244 70.4537C102.337 70.2678 102.43 69.9044 102.456 69.6509C102.473 69.3889 102.439 69.0086 102.371 68.8058C102.312 68.5861 102.135 68.2903 101.966 68.1213C101.797 67.9607 101.518 67.7833 101.332 67.7241C101.137 67.665 100.859 67.6227 100.698 67.6227C100.529 67.6227 100.25 67.6819 100.064 67.7495ZM100.191 68.2565C100.301 68.1889 100.529 68.1297 100.698 68.1297C100.859 68.1297 101.104 68.1974 101.247 68.2819C101.382 68.3664 101.56 68.5692 101.644 68.7467C101.729 68.9157 101.788 69.2368 101.788 69.4565C101.788 69.6762 101.712 70.0227 101.619 70.2171C101.501 70.479 101.366 70.6142 101.137 70.7072C100.943 70.7917 100.706 70.8255 100.529 70.7917C100.36 70.7664 100.123 70.6396 100.005 70.5128C99.8783 70.3861 99.7431 70.1326 99.6923 69.9466C99.6501 69.7607 99.6501 69.4142 99.6839 69.1861C99.7177 68.9495 99.7938 68.679 99.8614 68.5776C99.9205 68.4678 100.073 68.3326 100.191 68.2565ZM104.594 67.7326C104.433 67.7833 104.197 67.9523 104.061 68.1044C103.909 68.2734 103.825 68.4762 103.825 68.6368C103.825 68.7804 103.909 68.9917 104.036 69.1438C104.171 69.3044 104.399 69.4396 104.687 69.5157C104.932 69.5917 105.295 69.6847 105.489 69.7269C105.718 69.7861 105.912 69.8959 106.022 70.048C106.115 70.1748 106.191 70.31 106.191 70.3438C106.191 70.3776 106.089 70.5044 105.98 70.6227C105.811 70.7917 105.692 70.834 105.304 70.834C105.042 70.834 104.763 70.7917 104.67 70.7495C104.568 70.6987 104.442 70.5466 104.374 70.4114C104.273 70.2086 104.188 70.1579 103.994 70.1579C103.766 70.1579 103.74 70.1833 103.74 70.3861C103.74 70.5382 103.842 70.7156 104.036 70.8931C104.239 71.079 104.467 71.1973 104.771 71.2565C105.084 71.3241 105.354 71.3241 105.701 71.2565C105.988 71.2058 106.292 71.079 106.444 70.9607C106.588 70.834 106.715 70.6311 106.74 70.4706C106.766 70.3185 106.749 70.0903 106.698 69.9635C106.647 69.8368 106.487 69.6593 106.335 69.5664C106.182 69.4734 105.743 69.3128 105.346 69.203C104.839 69.0678 104.602 68.9579 104.501 68.8143C104.391 68.6537 104.391 68.5861 104.475 68.4171C104.535 68.2903 104.712 68.172 104.898 68.1129C105.075 68.0621 105.329 68.0452 105.473 68.079C105.608 68.1044 105.811 68.2143 105.912 68.3157C106.022 68.4255 106.106 68.5523 106.106 68.6114C106.106 68.679 106.216 68.7213 106.402 68.7213C106.656 68.7213 106.698 68.6875 106.698 68.51C106.698 68.3833 106.588 68.1889 106.444 68.0452C106.301 67.9016 106.047 67.7495 105.87 67.7072C105.692 67.6565 105.405 67.6227 105.219 67.6312C105.025 67.6312 104.746 67.6819 104.594 67.7326ZM114.236 67.7326C114.084 67.7833 113.847 67.9438 113.695 68.0875C113.551 68.2227 113.382 68.4678 113.315 68.6368C113.247 68.7973 113.196 69.1776 113.196 69.4819C113.205 69.8199 113.264 70.1579 113.357 70.3692C113.442 70.5551 113.627 70.8086 113.78 70.9354C113.923 71.0621 114.211 71.2142 114.405 71.2649C114.675 71.3325 114.878 71.3325 115.233 71.2565C115.487 71.2058 115.799 71.0875 115.926 70.9945C116.053 70.9016 116.213 70.7156 116.289 70.5804C116.357 70.4368 116.416 70.2847 116.416 70.2424C116.416 70.1917 116.306 70.1579 116.18 70.1579C116.011 70.1579 115.884 70.2424 115.715 70.4537C115.58 70.6227 115.368 70.7748 115.208 70.8171C115.056 70.8509 114.802 70.8509 114.642 70.8171C114.473 70.7748 114.27 70.6818 114.185 70.5973C114.092 70.5128 113.974 70.3269 113.906 70.1748C113.847 70.0227 113.796 69.7016 113.796 69.4565C113.796 69.1945 113.864 68.865 113.965 68.6537C114.084 68.3917 114.219 68.2565 114.447 68.1551C114.65 68.0706 114.87 68.0452 115.064 68.079C115.225 68.1044 115.444 68.2143 115.554 68.3157C115.664 68.4171 115.791 68.5945 115.833 68.6959C115.884 68.8312 115.977 68.8903 116.163 68.8903C116.34 68.8903 116.416 68.8481 116.416 68.7382C116.416 68.6537 116.332 68.4593 116.222 68.2988C116.12 68.1297 115.858 67.91 115.647 67.8086C115.411 67.6903 115.132 67.6227 114.895 67.6227C114.684 67.6312 114.388 67.6734 114.236 67.7326ZM118.656 67.7495C118.461 67.8171 118.225 67.9607 118.115 68.0621C118.005 68.1636 117.844 68.4086 117.751 68.5945C117.65 68.8058 117.599 69.1185 117.599 69.4819C117.599 69.8283 117.658 70.1495 117.751 70.3692C117.836 70.5551 118.022 70.8086 118.174 70.9354C118.326 71.0706 118.63 71.2058 118.884 71.2649C119.222 71.341 119.425 71.3325 119.754 71.2565C119.982 71.1973 120.303 71.0537 120.464 70.9269C120.625 70.8086 120.819 70.5551 120.903 70.3692C120.996 70.1495 121.056 69.8199 121.056 69.4819C121.056 69.1269 120.996 68.8058 120.903 68.5945C120.819 68.4086 120.633 68.1467 120.481 68.0199C120.337 67.8931 120.075 67.7495 119.898 67.7072C119.72 67.6565 119.45 67.6227 119.289 67.6227C119.12 67.6227 118.841 67.6819 118.656 67.7495ZM118.867 68.2312C118.985 68.172 119.188 68.1297 119.332 68.1297C119.467 68.1297 119.703 68.2058 119.856 68.2988C120.008 68.3917 120.194 68.603 120.27 68.7804C120.354 68.9917 120.388 69.2706 120.371 69.6171C120.354 69.9804 120.287 70.2086 120.16 70.3776C120.067 70.5128 119.839 70.6734 119.653 70.741C119.374 70.8424 119.281 70.8424 118.994 70.741C118.782 70.6649 118.588 70.5044 118.461 70.3269C118.309 70.0903 118.267 69.9128 118.267 69.4819C118.267 69.0424 118.309 68.865 118.47 68.6368C118.571 68.4678 118.757 68.2903 118.867 68.2312ZM123.134 67.7748C122.94 67.8593 122.72 68.003 122.636 68.0959C122.551 68.1889 122.484 68.4002 122.467 68.6199C122.458 68.9326 122.492 69.0171 122.712 69.2114C122.872 69.3635 123.177 69.4988 123.599 69.6002C123.946 69.6847 124.334 69.803 124.461 69.8706C124.596 69.9382 124.715 70.0819 124.748 70.2171C124.791 70.403 124.757 70.4875 124.579 70.6396C124.402 70.7917 124.25 70.834 123.87 70.834C123.447 70.834 123.354 70.8086 123.151 70.5973C123.016 70.4706 122.915 70.3185 122.915 70.2593C122.915 70.1917 122.805 70.1579 122.627 70.1579C122.416 70.1579 122.332 70.1917 122.332 70.2847C122.332 70.3523 122.382 70.5213 122.458 70.6649C122.526 70.8002 122.737 70.9945 122.94 71.0959C123.21 71.2396 123.447 71.2818 123.895 71.2818C124.284 71.2818 124.571 71.2396 124.757 71.1382C124.909 71.0621 125.112 70.8931 125.205 70.7664C125.298 70.6396 125.374 70.4199 125.374 70.2847C125.374 70.141 125.315 69.9382 125.247 69.8368C125.171 69.7354 124.977 69.5748 124.799 69.4903C124.622 69.4058 124.275 69.2875 124.022 69.2283C123.76 69.1692 123.456 69.0678 123.346 69.0171C123.227 68.9579 123.101 68.8396 123.067 68.7467C123.025 68.6537 123.05 68.5185 123.126 68.4002C123.202 68.2988 123.363 68.172 123.489 68.1213C123.616 68.0706 123.853 68.0452 124.022 68.0706C124.216 68.1044 124.394 68.2143 124.571 68.4171C124.757 68.6368 124.884 68.7128 125.095 68.7128C125.34 68.7128 125.365 68.6959 125.315 68.5269C125.289 68.4255 125.213 68.2481 125.146 68.1467C125.087 68.0452 124.867 67.8847 124.672 67.7917C124.461 67.6903 124.132 67.6227 123.895 67.6227C123.658 67.6227 123.32 67.6903 123.134 67.7748ZM129.633 67.8255C129.405 67.9438 129.202 68.0368 129.194 68.0368C129.185 68.0368 129.177 67.9692 129.177 67.8762C129.177 67.741 129.117 67.7072 128.923 67.7072H128.67L128.627 71.2565H129.261C129.261 69.2199 129.286 68.5692 129.32 68.4931C129.354 68.4171 129.489 68.3072 129.616 68.2396C129.743 68.1805 130.022 68.1297 130.233 68.1297C130.52 68.1297 130.655 68.172 130.824 68.341C131.027 68.5438 131.036 68.5692 131.036 69.9044V71.2565L131.67 71.248V68.6199C132.168 68.172 132.286 68.1297 132.641 68.1297C132.979 68.1297 133.106 68.172 133.275 68.341C133.478 68.5438 133.486 68.5692 133.486 69.9044V71.2565H134.078C134.07 68.5692 134.053 68.3917 133.901 68.1467C133.808 67.9945 133.605 67.8171 133.444 67.7495C133.275 67.6734 133.022 67.6227 132.87 67.6227C132.717 67.6227 132.464 67.6565 132.303 67.6988C132.134 67.741 131.906 67.8762 131.796 67.9945L131.585 68.2143C131.255 67.8931 131.053 67.7579 130.926 67.7072C130.799 67.6565 130.554 67.6227 130.377 67.6227C130.199 67.6227 129.87 67.7157 129.633 67.8255ZM136.486 67.7748C136.292 67.8678 136.064 68.0283 135.962 68.1382C135.853 68.2481 135.717 68.4762 135.641 68.6537C135.565 68.8312 135.515 69.2114 135.515 69.5241C135.515 69.8199 135.548 70.1748 135.599 70.3016C135.65 70.4283 135.793 70.6396 135.92 70.7748C136.039 70.91 136.258 71.079 136.402 71.1466C136.562 71.2396 136.858 71.2818 137.247 71.2818C137.619 71.2818 137.923 71.2396 138.092 71.1466C138.227 71.079 138.422 70.9354 138.515 70.834L138.684 70.648C138.362 70.4283 138.303 70.4368 138.05 70.6227C137.822 70.7833 137.644 70.834 137.306 70.834C137.002 70.834 136.782 70.7748 136.613 70.6649C136.47 70.572 136.3 70.3776 136.233 70.2424C136.157 70.0987 136.106 69.9128 136.106 69.8199C136.106 69.6509 136.157 69.6509 137.416 69.6509H138.726C138.726 68.8988 138.667 68.6452 138.523 68.3833C138.379 68.1128 138.219 67.9438 137.957 67.8086C137.72 67.6903 137.433 67.6143 137.205 67.6227C136.993 67.6227 136.672 67.6903 136.486 67.7748ZM136.698 68.2481C136.808 68.1805 137.01 68.1297 137.137 68.1297C137.264 68.1297 137.475 68.1805 137.602 68.2396C137.729 68.3072 137.881 68.4593 137.94 68.5776C137.999 68.7044 138.05 68.8819 138.05 68.9748C138.05 69.1269 137.991 69.1438 137.12 69.1438C136.554 69.1438 136.191 69.11 136.191 69.0593C136.191 69.0086 136.25 68.8312 136.334 68.6621C136.419 68.4931 136.579 68.3072 136.698 68.2481ZM147.81 67.7748C147.616 67.8593 147.371 68.0368 147.253 68.172C147.134 68.3072 146.991 68.6283 146.923 68.8903C146.864 69.1438 146.83 69.5241 146.855 69.7354C146.881 69.9382 146.974 70.2593 147.058 70.4452C147.143 70.6227 147.329 70.8593 147.472 70.9692C147.607 71.079 147.929 71.2058 148.191 71.2649C148.545 71.341 148.74 71.3325 149.036 71.2565C149.255 71.1889 149.543 71.0199 149.729 70.8424C149.898 70.6734 150.041 70.4452 150.041 70.3438C150.041 70.1917 149.999 70.1579 149.796 70.1579C149.61 70.1579 149.526 70.2002 149.5 70.3269C149.475 70.4199 149.348 70.572 149.222 70.6649C149.061 70.7833 148.858 70.834 148.571 70.834C148.334 70.834 148.055 70.7748 147.954 70.7072C147.853 70.6311 147.709 70.4706 147.65 70.3438C147.582 70.2171 147.506 69.9635 147.472 69.7776C147.438 69.5917 147.455 69.2452 147.506 69.0171C147.557 68.7466 147.684 68.5016 147.827 68.3579C147.954 68.2312 148.191 68.1044 148.36 68.079C148.545 68.0452 148.765 68.0706 148.968 68.1551C149.171 68.2481 149.34 68.4002 149.433 68.5945C149.56 68.8396 149.627 68.8903 149.855 68.8903C150.1 68.8903 150.126 68.865 150.075 68.6959C150.05 68.5945 149.965 68.3917 149.889 68.2565C149.813 68.1213 149.576 67.9269 149.374 67.8171C149.112 67.6819 148.85 67.6143 148.571 67.6227C148.334 67.6227 147.996 67.6903 147.81 67.7748ZM152.374 67.7241C152.23 67.7748 152.002 67.8931 151.867 67.9861C151.731 68.0875 151.529 68.3748 151.41 68.6368C151.241 69.0086 151.207 69.1945 151.241 69.6086C151.267 69.9382 151.36 70.2424 151.503 70.4959C151.63 70.7156 151.85 70.9523 152.044 71.0621C152.221 71.1635 152.543 71.2734 152.754 71.2987C152.965 71.3325 153.295 71.3072 153.514 71.248C153.76 71.1889 154.013 71.0283 154.241 70.8002C154.52 70.5213 154.613 70.3523 154.698 69.9466C154.782 69.5241 154.782 69.3551 154.689 68.9748C154.621 68.6875 154.478 68.3917 154.317 68.2143C154.174 68.0621 153.912 67.8593 153.726 67.7748C153.531 67.6903 153.21 67.6227 153.007 67.6312C152.796 67.6312 152.509 67.6734 152.374 67.7241ZM152.458 68.2819C152.593 68.1974 152.83 68.1297 152.982 68.1297C153.134 68.1297 153.371 68.1889 153.506 68.2734C153.641 68.3579 153.81 68.5185 153.878 68.6368C153.945 68.7466 154.03 68.9748 154.064 69.1438C154.098 69.3128 154.072 69.6255 154.005 69.8959C153.929 70.1917 153.81 70.4199 153.658 70.5466C153.531 70.6565 153.303 70.7664 153.151 70.7917C152.982 70.8255 152.754 70.7917 152.56 70.7072C152.331 70.6142 152.196 70.479 152.078 70.2171C151.985 70.0227 151.909 69.6931 151.909 69.4988C151.909 69.3044 151.968 68.9833 152.052 68.7889C152.137 68.5776 152.306 68.3664 152.458 68.2819ZM83.1206 69.4819V71.2565H83.7122V67.7072H83.1206V69.4819ZM111.177 69.4819V71.2565H111.768V67.7072H111.177V69.4819ZM144.81 69.4819V71.2565H145.402V67.7072H144.81V69.4819Z" fill="#E7E7E7"/>
<path opacity="0.99" d="M79.208 34.4963C79.2165 34.5385 79.3094 34.5723 79.4193 34.5723C79.5207 34.5723 79.6981 34.5977 79.8165 34.6315C79.9686 34.6737 80.0108 34.6653 79.9686 34.5892C79.9263 34.5301 79.8587 34.5047 79.8165 34.5301C79.7742 34.5554 79.7319 34.547 79.7319 34.5047C79.7319 34.4709 79.6136 34.4456 79.4615 34.4371C79.3179 34.4287 79.208 34.4625 79.208 34.4963ZM79.2249 34.9103C79.2249 34.9526 79.3179 34.9864 79.4362 34.9695C79.546 34.961 79.6474 34.9779 79.6474 35.0118C79.6474 35.054 79.7066 35.0625 79.7742 35.0371C79.8418 35.0117 79.9179 35.0456 79.9348 35.0963C79.9601 35.1554 79.977 35.1385 79.977 35.054C79.9855 34.9695 79.9263 34.9103 79.8418 34.9019C79.7573 34.9019 79.5883 34.8765 79.4615 34.8596C79.3348 34.8343 79.2334 34.8596 79.2249 34.9103ZM79.4446 35.4343C79.4615 35.4765 79.4277 35.5019 79.377 35.5019C79.3179 35.5019 79.2925 35.5188 79.3348 35.5441C79.3686 35.5695 79.47 35.5357 79.5545 35.4765C79.6897 35.392 79.7573 35.4005 79.9348 35.5188C80.0531 35.6033 80.2052 35.6455 80.2643 35.6202C80.3235 35.5864 80.2305 35.5188 80.0277 35.4512C79.8418 35.392 79.6305 35.3498 79.546 35.3582C79.47 35.3667 79.4277 35.4005 79.4446 35.4343Z" fill="white"/>
<path opacity="0.4" d="M30.7603 54.8961C30.7603 59.3158 30.7687 61.1411 30.7772 58.9524C30.7941 56.7637 30.7941 53.1552 30.7772 50.9243C30.7687 48.6933 30.7603 50.4764 30.7603 54.8961Z" fill="white"/>
<path opacity="0.21" d="M50.3999 60.0511C50.3999 61.6313 50.4253 62.9074 50.4422 62.882C50.4675 62.8567 50.4844 61.5806 50.4929 60.0511C50.4929 58.5215 50.476 57.2454 50.4506 57.2201C50.4253 57.1947 50.3999 58.4708 50.3999 60.0511Z" fill="white"/>
<path opacity="0.8" d="M35.7551 57.8369C35.7382 57.896 35.7297 59.0622 35.7382 60.4312L35.7466 62.9241L35.7889 57.8115L38.2818 57.7608C36.0847 57.7355 35.7804 57.7523 35.7551 57.8369Z" fill="white"/>
<path opacity="0.82" d="M82.3938 54.9807C82.3938 59.5863 82.4023 61.4454 82.4107 59.1215C82.4276 56.7975 82.4276 53.0286 82.4107 50.7553C82.4023 48.4821 82.3938 50.3751 82.3938 54.9807ZM142.731 54.9807C142.731 59.5863 142.74 61.4454 142.748 59.1215C142.765 56.7975 142.765 53.0286 142.748 50.7553C142.74 48.4821 142.731 50.3751 142.731 54.9807ZM145.182 58.9102C145.182 61.2595 145.19 62.206 145.199 61.0229C145.216 59.8398 145.216 57.913 145.199 56.7553C145.19 55.5891 145.182 56.5609 145.182 58.9102ZM156.193 57.4905C156.202 59.037 156.219 60.9891 156.235 61.8257C156.244 62.6623 156.261 61.3947 156.278 59.0116C156.286 56.637 156.269 54.6849 156.227 54.6849C156.193 54.6849 156.176 55.9525 156.193 57.4905ZM95.9148 59.037C95.9148 61.3609 95.9233 62.2905 95.9318 61.1074C95.9487 59.9243 95.9487 58.0229 95.9318 56.8821C95.9233 55.7412 95.9148 56.713 95.9148 59.037ZM123.117 55.9525C123.117 56.4849 123.126 56.6961 123.143 56.4173C123.16 56.1384 123.16 55.699 123.143 55.4454C123.126 55.1919 123.117 55.4201 123.117 55.9525ZM135.591 55.5891C136.36 55.606 137.576 55.606 138.295 55.5891C139.013 55.5807 138.388 55.5638 136.9 55.5638C135.413 55.5638 134.822 55.5807 135.591 55.5891ZM124.875 57.0257L126.717 57.0511C126.785 57.4989 126.785 57.4905 126.768 57.2623L126.76 57.0088L123.041 57.0004L124.875 57.0257ZM80.8474 67.0482C80.8305 67.7411 80.8051 67.944 80.7206 67.9017C80.6361 67.8594 80.6361 67.8679 80.7206 67.9608C80.7798 68.0285 80.8389 68.0623 80.8643 68.0369C80.8896 68.0116 80.8981 67.5806 80.8896 67.0651L80.8643 66.1355L80.8474 67.0482ZM142.545 67.158C142.545 67.6651 142.562 67.8594 142.579 67.5806C142.596 67.3017 142.596 66.8792 142.579 66.651C142.562 66.4144 142.545 66.6425 142.545 67.158ZM128.61 69.4397C128.61 70.4115 128.619 70.7918 128.636 70.2848C128.653 69.7693 128.653 68.9749 128.636 68.5101C128.619 68.0454 128.61 68.4594 128.61 69.4397ZM108.413 69.3552C108.413 70.0482 108.422 70.3186 108.439 69.9468C108.456 69.5749 108.456 69.0003 108.439 68.6792C108.422 68.3496 108.413 68.6538 108.413 69.3552ZM111.118 69.6932C111.118 70.5721 111.126 70.9186 111.143 70.4538C111.16 69.989 111.16 69.2622 111.143 68.8482C111.126 68.4256 111.118 68.8059 111.118 69.6932ZM95.1458 69.989C95.1458 70.7073 95.1543 70.9946 95.1712 70.6228C95.1881 70.251 95.1881 69.6594 95.1712 69.313C95.1543 68.958 95.1458 69.2622 95.1458 69.989ZM131.653 70.0313C131.653 70.682 131.661 70.927 131.678 70.5806C131.695 70.2256 131.695 69.6932 131.678 69.3975C131.661 69.0932 131.653 69.3806 131.653 70.0313Z" fill="#E7E7E7"/>
<path opacity="0.2" d="M131.323 55.1073C131.323 59.6368 131.332 61.5044 131.34 59.2481C131.357 56.9918 131.357 53.282 131.34 51.0087C131.332 48.7355 131.323 50.5777 131.323 55.1073ZM141.371 48.0088C141.371 48.6341 141.379 48.8876 141.396 48.558C141.413 48.2285 141.413 47.7214 141.396 47.4172C141.379 47.113 141.371 47.3834 141.371 48.0088ZM134.272 51.8538C134.272 52.6482 134.289 52.9862 134.298 52.6144C134.315 52.2425 134.315 51.5918 134.298 51.1777C134.289 50.7637 134.272 51.0594 134.272 51.8538ZM113.983 55.065C113.983 55.3946 113.999 55.5045 114.016 55.3186C114.033 55.1326 114.033 54.8622 114.016 54.727C113.999 54.5918 113.983 54.7355 113.983 55.065ZM134.281 58.2509V60.896L135.549 60.9044L134.323 60.8537L134.281 55.6143V58.2509ZM105.38 59.6453C106.309 59.6622 107.847 59.6622 108.802 59.6453C109.757 59.6284 108.997 59.6199 107.112 59.6199C105.228 59.6199 104.45 59.6284 105.38 59.6453ZM140.687 60.9044L141.337 60.9298L141.388 63.2537L141.379 60.8875L140.036 60.8791L140.687 60.9044ZM121.774 63.4481C121.909 63.465 122.18 63.465 122.366 63.4481C122.551 63.4227 122.433 63.4143 122.112 63.4143C121.782 63.4143 121.63 63.4227 121.774 63.4481ZM81.5405 68.7044C81.5405 70.1241 81.5574 70.6987 81.5659 69.972C81.5828 69.2537 81.5828 68.0959 81.5659 67.3945C81.5574 66.7016 81.5405 67.2931 81.5405 68.7044ZM83.0701 69.4227V71.2818H83.7884L83.1123 71.2396L83.0616 67.5636L83.0701 69.4227ZM93.0418 69.5072C93.0418 70.5804 93.0503 70.9945 93.0672 70.4368C93.0841 69.879 93.0841 69.0086 93.0672 68.4931C93.0503 67.9861 93.0418 68.4424 93.0418 69.5072ZM94.4784 69.465C94.4784 70.4706 94.4869 70.8678 94.5038 70.3523C94.5207 69.8452 94.5207 69.0255 94.5038 68.5354C94.4869 68.0537 94.4784 68.4678 94.4784 69.465ZM111.785 69.448L111.768 71.2396L111.219 71.2987C111.642 71.3241 111.785 71.2818 111.811 71.2227C111.836 71.1635 111.845 70.3354 111.828 69.3804L111.802 67.6481L111.785 69.448ZM129.295 69.9382C129.295 70.6818 129.304 70.9692 129.32 70.572C129.337 70.1748 129.337 69.5664 129.32 69.2199C129.304 68.8734 129.295 69.1945 129.295 69.9382ZM130.985 69.9804C130.985 70.6987 130.994 70.9861 131.011 70.6142C131.027 70.2424 131.027 69.6509 131.011 69.3044C130.994 68.9579 130.985 69.2621 130.985 69.9804Z" fill="#E7E7E7"/>
<path opacity="0.63" d="M79.5041 46.5468L80.7464 46.5722L80.7886 63.3045V46.5299L78.2534 46.5215L79.5041 46.5468ZM133.825 46.8933C135.194 46.9018 137.459 46.9018 138.853 46.8933C140.247 46.8764 139.123 46.868 136.36 46.868C133.588 46.868 132.447 46.8764 133.825 46.8933ZM83.4337 67.6735L83.7125 67.6988L83.7548 71.2903V67.6566C83.1717 67.6397 83.1717 67.6397 83.4337 67.6735ZM109.377 67.6735C109.673 67.7073 109.732 67.7411 109.757 67.9185C109.774 68.0875 109.783 68.0875 109.783 67.8932C109.783 67.6735 109.757 67.6566 109.402 67.6481L109.031 67.6397L109.377 67.6735ZM145.123 67.6735L145.394 67.6988L145.444 71.2903L145.436 67.6566C144.861 67.6397 144.861 67.6397 145.123 67.6735ZM88.3012 69.6847C88.3012 70.2932 88.3181 70.5213 88.335 70.1918C88.3519 69.8706 88.3519 69.372 88.335 69.0932C88.3181 68.8143 88.3012 69.0847 88.3012 69.6847ZM134.104 69.9382C134.104 70.6819 134.121 70.9692 134.137 70.572C134.154 70.1749 134.154 69.5664 134.137 69.2199C134.121 68.8735 134.104 69.1946 134.104 69.9382Z" fill="#E7E7E7"/>
<path opacity="0.4" d="M136.098 49.1666C137.095 49.1835 138.692 49.1835 139.647 49.1666C140.602 49.1581 139.782 49.1497 137.83 49.1497C135.878 49.1497 135.1 49.1581 136.098 49.1666ZM134.264 49.868C134.264 50.2144 134.281 50.3666 134.298 50.206C134.314 50.0454 134.314 49.7581 134.298 49.5722C134.281 49.3863 134.264 49.5215 134.264 49.868ZM129.117 56.3327C129.117 56.7552 129.126 56.9412 129.143 56.7552C129.16 56.5693 129.16 56.2313 129.143 55.9947C129.126 55.7665 129.117 55.9102 129.117 56.3327ZM136.731 60.913C137.382 60.9299 138.405 60.9299 139.013 60.913C139.621 60.9045 139.081 60.8876 137.83 60.8876C136.579 60.8876 136.081 60.9045 136.731 60.913ZM137.796 66.1524L138.193 66.1862L137.323 67.1495C138.075 66.4312 138.295 66.1946 138.295 66.1608C138.295 66.1186 138.092 66.1017 137.855 66.1101L137.407 66.127L137.796 66.1524ZM107.653 67.7157C107.627 67.7749 107.619 67.8932 107.644 67.9862C107.67 68.1129 107.687 68.096 107.687 67.927C107.695 67.7157 107.737 67.6904 108.058 67.665L108.422 67.6397C107.839 67.6143 107.678 67.6481 107.653 67.7157ZM144.751 69.4904L144.759 71.2819C145.385 71.2819 145.385 71.2819 145.097 71.265L144.802 71.2397L144.751 67.6904V69.4904ZM97.5796 69.9129L97.5542 71.2481H96.9627L96.9204 68.7129V71.2904C97.4274 71.3242 97.5711 71.2904 97.6049 71.2228C97.6218 71.1636 97.6303 70.5467 97.6218 69.8537L97.5965 68.5862L97.5796 69.9129ZM133.427 69.9974L133.436 71.2819H134.154L133.478 71.2397L133.427 68.7045V69.9974Z" fill="#E7E7E7"/>
<path opacity="0.4" d="M36.1689 50.9414C36.4055 50.9583 36.8027 50.9583 37.0562 50.9414C37.3097 50.9245 37.1238 50.916 36.6337 50.916C36.1436 50.916 35.9323 50.9245 36.1689 50.9414ZM50.4505 51.1611C50.4336 51.2202 50.4251 51.8371 50.4336 52.5301L50.4505 53.7977L52.6476 53.8061L50.4927 53.7554V51.1357L52.6476 51.085C50.7463 51.0597 50.4843 51.0766 50.4505 51.1611Z" fill="white"/>
<path opacity="0.8" d="M35.7383 52.4032C35.7383 53.2145 35.7552 53.544 35.7636 53.1215C35.7805 52.7074 35.7805 52.0398 35.7636 51.6426C35.7552 51.2455 35.7383 51.5919 35.7383 52.4032Z" fill="white"/>
<path opacity="0.82" d="M92.3569 69.4735C92.3569 69.9637 92.3654 70.1496 92.3823 69.8961C92.3992 69.6425 92.3992 69.2369 92.3823 69.0087C92.3654 68.7721 92.3569 68.9834 92.3569 69.4735Z" fill="#E7E7E7"/>
<path opacity="0.2" d="M105.633 58.2087C106.428 58.2256 107.695 58.2256 108.464 58.2087C109.233 58.2002 108.582 58.1833 107.028 58.1833C105.473 58.1833 104.839 58.2002 105.633 58.2087Z" fill="#E7E7E7"/>
<path d="M67.6902 53.0033C67.5549 53.0624 67.3183 53.1807 67.1831 53.2821C67.0479 53.3836 66.8451 53.6371 66.7437 53.8483C66.6169 54.085 66.5493 54.3723 66.5493 54.6427C66.5493 54.9131 66.6169 55.2004 66.7437 55.4455C66.862 55.6906 67.0564 55.9018 67.3099 56.054C67.5211 56.1892 67.8254 56.3159 67.9859 56.3497C68.1465 56.3751 68.4507 56.3582 68.662 56.299C68.8732 56.2399 69.169 56.0962 69.3296 55.9695C69.4901 55.8427 69.693 55.5892 69.7775 55.4033C69.862 55.2089 69.9296 54.8624 69.9296 54.6004C69.9296 54.2709 69.8704 54.0343 69.7352 53.7976C69.6338 53.6202 69.3972 53.3582 69.2113 53.2314C68.9662 53.054 68.738 52.9779 68.4085 52.9526C68.1549 52.9272 67.8254 52.9526 67.6902 53.0033Z" fill="white"/>
</svg>
