<svg width="183" height="110" viewBox="0 0 183 110" fill="none" xmlns="http://www.w3.org/2000/svg">
<rect width="183" height="110" fill="#003357"/>
<g clip-path="url(#clip0_420_2157)">
<path d="M66.3403 10C66.0364 10.0085 65.2765 10.0679 64.6518 10.1103C64.027 10.1612 63.073 10.2545 62.5411 10.3308C62.0092 10.3987 60.9369 10.5683 60.1518 10.7041C59.375 10.8483 58.2606 11.0773 57.6696 11.2215C57.0701 11.3572 56.057 11.6287 55.4069 11.8238C54.7568 12.0104 53.769 12.3158 53.2118 12.5024C52.6546 12.689 51.5148 13.1131 50.679 13.4439C49.8431 13.7748 48.3065 14.4788 47.2596 14.9962C46.2127 15.5222 44.8281 16.2686 44.178 16.6588C43.5279 17.049 42.633 17.6174 42.194 17.9142C41.7549 18.2111 40.936 18.7964 40.3788 19.2121C39.8215 19.6362 38.9266 20.3403 38.3947 20.7898C37.8628 21.2394 36.7737 22.2488 35.9885 23.0462C35.1949 23.8351 34.1902 24.9293 33.7427 25.4637C33.2953 25.9981 32.6114 26.8803 32.2146 27.4147C31.8178 27.9491 31.2099 28.8313 30.8638 29.3657C30.5176 29.9001 29.9773 30.7993 29.6564 31.3591C29.3356 31.919 28.7868 32.9878 28.4238 33.7342C28.0692 34.4807 27.5289 35.7192 27.2249 36.4911C26.921 37.263 26.5157 38.3912 26.3215 38.9934C26.1274 39.5957 25.8065 40.7408 25.6039 41.5382C25.4013 42.3355 25.1396 43.4552 25.0214 44.0405C24.9032 44.6258 24.7512 45.4826 24.6836 45.9491C24.6077 46.4157 24.4895 47.2554 24.4219 47.8153C24.3459 48.3751 24.2362 49.5627 24.1686 50.4449C24.0926 51.4034 24.042 53.1593 24.042 54.788C24.042 56.3827 24.0926 58.2997 24.1686 59.3685C24.2446 60.3864 24.3122 61.2771 24.329 61.345C24.3459 61.4128 24.3628 60.3695 24.3713 59.0123C24.3797 57.6551 24.4219 55.9246 24.4641 55.1527C24.5148 54.3808 24.6245 53.049 24.7174 52.1838C24.8103 51.3186 24.9876 50.0208 25.1058 49.2997C25.2155 48.5787 25.4013 47.5438 25.5195 47.0094C25.6292 46.475 25.7981 45.6862 25.8994 45.2705C26.0007 44.8549 26.1949 44.1084 26.33 43.6164C26.4735 43.1244 26.7606 42.1913 26.9716 41.5382C27.1827 40.885 27.5711 39.7993 27.8412 39.1207C28.1114 38.4421 28.5251 37.4496 28.7615 36.9152C29.0063 36.3808 29.4369 35.4986 29.7155 34.9642C30.0026 34.4298 30.4754 33.5731 30.7793 33.0556C31.0833 32.5382 31.632 31.6645 32.0035 31.1046C32.375 30.5448 33.0251 29.6287 33.4472 29.0688C33.8694 28.509 34.5532 27.6522 34.9669 27.1602C35.3806 26.6683 36.3684 25.6164 37.1621 24.8275C37.9557 24.0302 39.0786 22.9868 39.6611 22.4948C40.2437 22.0113 41.2062 21.2479 41.814 20.7898C42.4219 20.3403 43.3675 19.6786 43.9247 19.3139C44.482 18.9491 45.4275 18.3638 46.0354 18.016C46.6349 17.6683 47.6818 17.1084 48.3572 16.7691C49.0326 16.4298 50.1133 15.9208 50.7634 15.6409C51.4135 15.3525 52.4604 14.9369 53.0851 14.6994C53.7099 14.4703 54.7737 14.1141 55.4491 13.902C56.1245 13.6899 57.2981 13.3591 58.0664 13.1725C58.8347 12.9859 59.9745 12.7399 60.5992 12.6211C61.224 12.5024 62.1949 12.3497 62.7521 12.2818C63.3093 12.2055 64.2634 12.1122 64.8628 12.0613C65.4623 12.0189 66.3656 11.9765 66.8722 11.9765H67.7756C69.0082 14.5043 69.5823 15.7766 69.8525 16.4298C70.1142 17.083 70.5364 18.2281 70.7812 18.9746L71.2287 20.3318C71.693 20.3657 71.8281 20.3318 71.8281 20.2894C71.8281 20.2385 71.6339 19.6786 71.3975 19.0339C71.1611 18.3978 70.7221 17.3205 70.4182 16.6419C70.1142 15.9633 69.6499 14.9878 69.3713 14.4788C69.1011 13.9614 68.6705 13.1979 68.4172 12.7823C68.1386 12.3242 67.9951 12.0104 68.0542 11.9934C68.1133 11.9765 68.3581 12.1631 68.603 12.4175C68.8478 12.6635 69.3122 13.1725 69.6245 13.5457C69.9454 13.919 70.4266 14.5297 70.7052 14.9029C70.9838 15.2762 71.4397 15.9208 71.7184 16.345C71.997 16.7606 72.512 17.6004 72.8581 18.2111C73.2127 18.8134 73.5842 19.4835 73.6855 19.6956C73.8628 20.0688 73.8797 20.0773 74.2765 20.0773C74.6564 20.0773 74.6733 20.0688 74.5889 19.9077C74.5467 19.8143 74.2596 19.3393 73.9557 18.8473C73.6602 18.3553 73.1367 17.558 72.8075 17.066C72.4782 16.574 71.8281 15.7003 71.3722 15.115C70.9078 14.5297 70.0805 13.5966 69.5317 13.0368C68.9829 12.4769 68.5439 12.0104 68.5523 12.0019C68.5692 11.9934 68.9998 12.2394 69.5063 12.5533C70.0129 12.8671 70.7728 13.3676 71.1949 13.673C71.6086 13.9783 72.3685 14.5636 72.8835 14.9878C73.39 15.4034 74.3778 16.3026 75.0701 16.9812C75.754 17.6598 76.708 18.6522 77.1724 19.1866C77.6452 19.721 78.0336 20.1791 78.0504 20.2045C78.0589 20.23 78.2446 20.1452 78.4557 20.0094C78.6668 19.8822 78.8356 19.7295 78.8356 19.6701C78.8356 19.6192 78.2193 18.9576 77.4594 18.2111C76.708 17.4647 75.7709 16.5825 75.3741 16.2517C74.9773 15.9124 74.1583 15.2677 73.5504 14.8096C72.9426 14.3431 71.9548 13.6814 71.3553 13.3167C70.7559 12.9604 70.0129 12.5448 69.6921 12.3836C69.3797 12.2309 69.1264 12.0782 69.1264 12.0358C69.1264 12.0019 69.329 12.0019 69.5739 12.0273C69.8103 12.0613 70.1987 12.1461 70.4351 12.2309C70.6715 12.3158 71.3553 12.5787 71.9548 12.8162C72.5542 13.0622 73.6771 13.5712 74.4454 13.9529C75.2137 14.3346 76.4125 14.9878 77.1048 15.4119C77.8056 15.836 78.9032 16.5486 79.5533 16.9981C80.2033 17.4477 81.2671 18.2451 81.9172 18.771C82.5673 19.2884 83.3863 19.9755 83.7324 20.2978C84.0786 20.6117 84.4332 20.8747 84.5176 20.8831C84.5936 20.8831 84.8384 20.7135 85.0579 20.5014L85.4632 20.1197C85.0073 19.7126 84.3403 19.1951 83.6902 18.6946C83.0401 18.2027 82.0354 17.4901 81.4529 17.1084C80.8703 16.7267 80.0345 16.2093 79.5955 15.9463C79.1564 15.6918 78.4304 15.2847 77.9913 15.0471C77.5523 14.8096 76.6912 14.394 76.0917 14.1141C75.4923 13.8341 74.5551 13.4355 74.0232 13.2234C73.4913 13.0198 72.6217 12.706 72.0983 12.5363C71.5833 12.3667 71.1527 12.2055 71.1527 12.1631C71.1527 12.1291 71.4482 12.1376 71.8028 12.1716C72.1658 12.2055 72.9003 12.2988 73.4322 12.3667C73.9641 12.4345 74.7662 12.5448 75.2052 12.6211C75.6442 12.689 76.4632 12.8502 77.0204 12.9689C77.5776 13.0792 78.4726 13.2913 79.0045 13.4355C79.5364 13.5797 80.5073 13.8596 81.1574 14.0716C81.8075 14.2837 82.9135 14.6824 83.6058 14.9623C84.2981 15.2422 85.4041 15.7257 86.0542 16.0396C86.7043 16.3535 87.7512 16.9133 88.376 17.2696C89.0007 17.6343 90.0645 18.296 90.7399 18.754C91.4154 19.2036 92.4032 19.9077 92.9351 20.3233C93.4669 20.7389 94.2859 21.4006 94.7503 21.7993C95.2146 22.1979 96.2531 23.1819 97.0636 23.9708C97.8656 24.7682 99.0307 25.9896 99.6386 26.6937C100.255 27.3893 100.821 27.9915 100.897 28.0255C100.973 28.0679 101.226 28.0933 101.462 28.0933C101.817 28.0933 101.927 28.0509 102.188 27.8134C102.366 27.6522 102.518 27.4147 102.568 27.2196C102.619 27.016 102.61 26.7955 102.56 26.5834C102.492 26.3714 102.121 25.8794 101.344 24.9972C100.728 24.2931 99.5035 23.0123 98.6255 22.1386C97.7474 21.2649 96.5908 20.1791 96.0589 19.721C95.527 19.263 94.6912 18.5844 94.2015 18.2027C93.7118 17.8294 92.9519 17.2696 92.5129 16.9642C92.0739 16.6588 91.2381 16.1244 90.6555 15.7766C90.073 15.4289 89.2371 14.9454 88.7981 14.7078C88.3591 14.4788 87.4473 14.0377 86.7718 13.7323C86.0964 13.427 85.0242 12.9859 84.3825 12.7484C83.7493 12.5109 82.6433 12.1461 81.9426 11.9425C81.2334 11.7389 80.1527 11.4505 79.5533 11.3063C78.9538 11.1621 77.7887 10.9331 76.9782 10.7974C76.1677 10.6532 75.0026 10.4835 74.4032 10.4157C73.8037 10.3393 72.8666 10.246 72.3347 10.1951C71.8028 10.1527 70.5617 10.0764 69.5908 10.0255C68.6199 9.98305 67.6067 9.94912 67.3534 9.9576C67.1002 9.96609 66.6442 9.98305 66.3403 10ZM105.135 77.394C104.958 77.6909 104.527 78.3525 104.181 78.8615C103.835 79.3704 103.261 80.1763 102.914 80.6428C102.56 81.1093 101.91 81.9322 101.471 82.4666C101.023 83.001 100.238 83.8747 99.7315 84.4175C99.2165 84.952 98.3806 85.7917 97.8741 86.2837C97.3591 86.7757 96.4726 87.5731 95.89 88.065C95.3075 88.5486 94.4125 89.2611 93.906 89.6428C93.3994 90.0245 92.4285 90.6946 91.7531 91.1357C91.0776 91.5768 90.1321 92.1706 89.6424 92.4505C89.1527 92.7305 88.1142 93.2903 87.3206 93.689C86.527 94.0792 85.3703 94.6221 84.7456 94.8935C84.1208 95.1565 82.9388 95.5976 82.1283 95.8775C81.3178 96.1574 80.102 96.5391 79.4266 96.7257C78.7512 96.9124 77.4594 97.2093 76.5561 97.3959C75.6527 97.574 74.285 97.803 73.5167 97.8963C72.7484 97.9897 71.5411 98.1084 70.8403 98.1593C70.1311 98.2017 69.0842 98.2441 68.5185 98.2441L67.4801 98.2526C66.2137 95.6485 65.6142 94.2997 65.3272 93.5787C65.0401 92.8577 64.618 91.6956 64.3816 90.9915C64.1536 90.296 63.799 89.049 63.588 88.2347C63.3853 87.4204 63.2165 86.6824 63.2165 86.606C63.1502 86.1649 63.1658 86.4618 63.0476 86.4958C62.9548 86.5212 62.8028 86.5552 62.7099 86.5806C62.617 86.606 62.5411 86.5976 62.5411 86.5636C62.5411 86.5212 62.6424 86.4873 62.769 86.4703C62.9041 86.4618 63.0307 86.4025 63.0645 86.3431C63.0983 86.2837 63.0645 86.2413 63.0645 86.1734C63.0645 86.0971 63.0898 86.0716 63.0392 86.1819C62.997 86.2922 62.921 86.3431 62.8619 86.3176C62.7775 86.2752 62.7859 86.2413 62.8788 86.1819C62.9632 86.1367 62.921 86.131 62.7521 86.1649C62.617 86.1989 62.482 86.2328 62.4651 86.2498C62.4482 86.2667 62.5157 86.2837 62.6255 86.2837C62.7352 86.2837 62.7943 86.3092 62.7606 86.3516C62.7268 86.3855 62.6508 86.4109 62.6002 86.4109C62.5411 86.4109 62.5073 86.5212 62.5157 86.6654C62.5326 86.8096 62.6002 87.132 62.6761 87.3864L62.8366 87.9972C62.6677 87.9148 62.8366 87.9947 62.8366 87.9972C62.8366 87.9887 62.8366 88.0057 62.8366 87.9972C62.8366 87.9972 63.2671 89.4562 63.5964 90.4402C63.8159 91.0679 64.2212 92.1367 64.4998 92.8153C64.7868 93.4939 65.2934 94.5797 65.6227 95.2328C65.9604 95.886 66.4669 96.8106 66.7456 97.2941C67.0326 97.7691 67.269 98.1763 67.269 98.2017C67.269 98.2272 67.2099 98.2441 67.1424 98.2441C67.0748 98.2441 66.7118 97.9133 66.3403 97.5061C65.9773 97.0905 65.3863 96.3949 65.0317 95.9538C64.6771 95.5127 64.0354 94.6136 63.6048 93.9604C63.1658 93.3073 62.5748 92.3487 62.2793 91.8398C61.9923 91.3308 61.4773 90.3723 61.1396 89.7191L60.5317 88.5316C59.9322 88.5655 59.7549 88.5994 59.7549 88.6419C59.7549 88.6758 60.1011 89.312 60.5232 90.0584C60.9454 90.8049 61.5786 91.8568 61.9247 92.3912C62.2793 92.9256 62.8281 93.7314 63.1574 94.1725C63.4866 94.6136 64.0354 95.3176 64.39 95.7418C64.7446 96.1574 65.4285 96.8954 65.9182 97.3789C66.4078 97.8539 66.7793 98.2441 66.7456 98.2441C66.7033 98.2441 66.3825 98.066 66.0195 97.8455C65.6649 97.6334 64.9895 97.1923 64.5251 96.8784C64.0608 96.5646 63.1658 95.8945 62.5411 95.394C61.9163 94.885 60.7005 93.7738 59.8394 92.9086C58.9782 92.0349 57.8722 90.8558 57.391 90.2705C56.9097 89.6852 56.1752 88.7521 55.7615 88.1923C55.3478 87.6324 54.8919 86.9962 54.8581 86.9623C54.8328 86.9284 54.8919 87.3186 54.875 87.6409L54.8581 88.2347C54.8581 88.2347 54.8581 88.3619 54.8581 88.4044V88.4892V88.5316C54.8581 88.5316 54.7062 88.574 54.7315 88.6164C54.7568 88.6588 55.1114 89.083 55.1114 89.083L55.4491 89.4647C55.4491 89.4647 55.7868 89.8973 56.7493 90.9491C57.3656 91.6277 58.345 92.6032 58.9191 93.1291C59.4932 93.6466 60.3628 94.393 60.8525 94.7832C61.3422 95.1734 62.1358 95.7587 62.6255 96.0896C63.1152 96.4204 63.875 96.9039 64.314 97.1584C64.7531 97.4213 65.3356 97.7437 65.6058 97.8709C65.8675 98.0066 66.087 98.1339 66.087 98.1593C66.087 98.1848 65.8844 98.1847 65.6396 98.1678C65.3778 98.1508 64.7193 97.9557 63.9763 97.6758C63.3009 97.4213 61.9585 96.8191 60.9791 96.3355C59.9998 95.852 58.7671 95.1989 58.2352 94.8765C57.7033 94.5542 56.7915 93.9774 56.209 93.5872C55.6264 93.197 54.7146 92.5354 54.1827 92.1282C53.6508 91.721 52.8319 91.0679 52.3675 90.6777C51.9032 90.296 51.0336 89.5156 50.4257 88.9472L49.3281 87.9208C48.8384 88.2432 48.7793 88.3365 48.7793 88.557C48.7793 88.7012 48.7456 88.8963 48.6949 88.9812C48.6274 89.0999 48.7624 89.2526 49.5223 89.8973C50.0204 90.3214 50.7887 90.9491 51.2277 91.2969C51.6668 91.6447 52.6039 92.3063 53.2962 92.7813C53.9885 93.2479 54.8835 93.8247 55.2803 94.0622C55.6771 94.2997 56.4538 94.7408 57.011 95.0377C57.5683 95.3346 58.497 95.8011 59.0795 96.0726C59.6621 96.344 60.5908 96.7512 61.148 96.9717C61.7052 97.1923 62.5411 97.4977 63.0054 97.6504C63.4698 97.803 63.8666 97.9472 63.8919 97.9642C63.9172 97.9727 63.9172 98.0066 63.8919 98.0236C63.8666 98.049 63.1827 97.9727 62.3722 97.8624C61.5617 97.7521 60.3037 97.5486 59.5861 97.4044C58.8685 97.2601 57.6527 96.9717 56.8844 96.7682C56.1161 96.5561 54.8075 96.1489 53.9716 95.8605C53.1358 95.5721 51.92 95.1141 51.2699 94.8341C50.6199 94.5542 49.4801 94.0198 48.7371 93.6466C47.9942 93.2733 47.1245 92.8153 46.7953 92.6287C46.466 92.4336 45.8581 92.0688 45.4444 91.8143C45.0307 91.5599 44.2287 91.0424 43.6714 90.6607C43.1142 90.279 42.2193 89.6343 41.6874 89.2187C41.1555 88.803 40.2268 88.0311 39.6189 87.5052C39.011 86.9793 37.8966 85.9105 37.1283 85.1216C36.36 84.3412 35.4144 83.3403 35.0176 82.9076C34.3084 82.1273 34.3 82.1273 33.8947 82.1273C33.6752 82.1273 33.3881 82.1866 33.2446 82.2545C33.1011 82.3223 32.9154 82.509 32.8225 82.6617C32.7127 82.8313 32.6536 83.0858 32.6536 83.3403C32.6536 83.6796 32.7043 83.7983 32.9745 84.1461C33.1602 84.3666 33.7596 85.0453 34.3169 85.6475C34.8741 86.2498 35.7606 87.1574 36.2925 87.6579C36.8244 88.1499 37.618 88.8709 38.057 89.2526C38.496 89.6343 39.3741 90.3384 39.9988 90.8134C40.6236 91.2884 41.6114 92.001 42.194 92.3912C42.7765 92.7813 43.5701 93.2988 43.9669 93.5363C44.3638 93.7738 45.2587 94.2828 45.951 94.6645C46.6518 95.0462 47.7324 95.5891 48.3572 95.869C48.982 96.1574 50.012 96.5985 50.6367 96.8445C51.2615 97.0905 52.1902 97.4298 52.7052 97.6079C53.2202 97.7776 54.1489 98.066 54.7737 98.2441C55.3985 98.4223 56.4285 98.6767 57.0533 98.8209C57.678 98.9651 58.784 99.1772 59.5017 99.296C60.2193 99.4147 61.3084 99.5674 61.9078 99.6438C62.5073 99.7116 63.8244 99.8049 64.8206 99.8558C66.163 99.9322 67.1255 99.9322 68.5354 99.8558C69.5823 99.8049 70.9332 99.7031 71.5326 99.6353C72.1321 99.5674 73.314 99.3978 74.1499 99.262C74.9857 99.1263 76.2943 98.8549 77.0626 98.6683C77.8309 98.4732 78.7765 98.2272 79.1733 98.1084C79.5701 97.9897 80.2878 97.7606 80.7775 97.591C81.2671 97.4298 82.2887 97.0481 83.057 96.7427C83.8253 96.4373 85.2099 95.8181 86.1386 95.3601C87.0673 94.902 88.511 94.1131 89.3469 93.6042C90.1827 93.1037 91.3563 92.3487 91.9557 91.9246C92.5551 91.5005 93.5598 90.7455 94.193 90.2366C94.8262 89.7276 95.814 88.8879 96.3966 88.3535C96.9791 87.8275 97.8319 87.0047 98.3047 86.5212C98.769 86.0377 99.4782 85.2828 99.8666 84.8417C100.263 84.4006 100.905 83.6371 101.293 83.1452C101.69 82.6532 102.391 81.7201 102.855 81.0669C103.32 80.4138 104.012 79.3789 104.383 78.7766C104.755 78.1744 105.169 77.4958 105.287 77.2752C105.413 77.0462 105.498 76.8681 105.481 76.8681C105.464 76.8681 105.304 77.1056 105.135 77.4025V77.394Z" fill="#0071C1"/>
<path opacity="0.99" d="M156.746 67.7239C156.594 67.7918 156.374 67.953 156.256 68.0887C156.112 68.2329 156.036 68.411 156.045 68.5976C156.045 68.7418 156.087 68.9454 156.129 69.0387C156.171 69.132 156.315 69.2593 156.45 69.3271C156.577 69.395 156.982 69.5307 157.353 69.6325C157.725 69.7343 158.096 69.8785 158.181 69.9548C158.265 70.0312 158.333 70.2008 158.324 70.3366C158.324 70.4808 158.257 70.6165 158.139 70.6928C158.02 70.7692 157.75 70.8201 157.48 70.8201C157.21 70.8201 156.94 70.7692 156.83 70.6928C156.72 70.625 156.594 70.4723 156.551 70.3535C156.484 70.1839 156.408 70.1415 156.171 70.1415C156.011 70.1415 155.876 70.1839 155.876 70.2263C155.876 70.2687 155.935 70.4299 156.003 70.5656C156.07 70.7013 156.231 70.8964 156.366 70.9897C156.492 71.083 156.788 71.2018 157.016 71.2527C157.311 71.3121 157.581 71.3121 157.902 71.2527C158.223 71.1933 158.451 71.083 158.645 70.9049C158.865 70.7013 158.915 70.5826 158.915 70.2857C158.924 70.0057 158.873 69.8785 158.687 69.6919C158.552 69.5562 158.265 69.395 158.029 69.3356C157.801 69.2678 157.455 69.1829 157.269 69.132C157.083 69.0896 156.864 68.9794 156.779 68.8945C156.67 68.7843 156.636 68.674 156.67 68.5043C156.703 68.3601 156.813 68.2244 156.974 68.1481C157.117 68.0802 157.303 68.0208 157.396 68.0208C157.489 68.0208 157.7 68.0802 157.86 68.1481C158.02 68.2159 158.206 68.3686 158.265 68.4874C158.341 68.657 158.434 68.7079 158.645 68.6994C158.856 68.6994 158.915 68.6655 158.915 68.5298C158.915 68.4365 158.806 68.2329 158.671 68.0802C158.544 67.936 158.282 67.7579 158.105 67.707C157.928 67.6476 157.607 67.5967 157.396 67.6052C157.185 67.6052 156.889 67.6561 156.746 67.7239Z" fill="#849EAB"/>
<path opacity="0.99" d="M78.523 20.0009L78.1178 20.2469C79.0718 21.4599 79.6375 22.2148 79.9921 22.7068C80.3382 23.1988 80.9123 24.0386 81.2669 24.573C81.6131 25.1074 82.2463 26.1592 82.6684 26.9057C83.0905 27.6521 83.462 28.3138 83.4958 28.3816C83.538 28.458 83.69 28.5004 83.9433 28.4834C84.1543 28.4834 84.4498 28.4325 84.6018 28.3901C84.7453 28.3392 84.872 28.2544 84.872 28.2035C84.872 28.1441 84.6525 27.7115 84.3907 27.245C84.129 26.7784 83.4283 25.6672 82.8373 24.785C82.2463 23.9029 81.2838 22.5796 80.7097 21.8586C80.1271 21.1375 79.4855 20.3656 79.2829 20.1451L78.9198 19.7549L78.523 20.0009ZM74.099 20.1451C74.023 20.1875 74.1581 20.5438 74.5465 21.3496C74.8504 21.9773 75.3148 23.0122 75.5849 23.6399C75.8551 24.2676 76.2857 25.3703 76.5474 26.0744C76.8091 26.7869 77.0286 27.4062 77.0286 27.4571C77.0286 27.5079 77.265 27.5419 77.5774 27.5419C77.8729 27.5419 78.1262 27.5164 78.1262 27.474C78.1262 27.4401 77.8982 26.8633 77.6281 26.1847C77.3579 25.5061 76.9104 24.4797 76.6487 23.8944C76.387 23.3091 75.8804 22.2827 75.5343 21.6041C75.1797 20.9255 74.8335 20.3062 74.7575 20.2214C74.6815 20.1366 74.5211 20.0687 74.4114 20.0772C74.2932 20.0772 74.1497 20.1112 74.099 20.1451ZM85.1084 20.5438C84.8889 20.7558 84.6609 20.9255 84.6018 20.9255C84.5427 20.9255 85.1844 21.621 86.0202 22.4693C86.856 23.326 87.9114 24.4627 88.3673 24.9971C88.8232 25.5315 89.5915 26.49 90.0643 27.1177C90.5371 27.7455 91.1956 28.6616 91.5164 29.1536C91.8457 29.6456 92.3354 30.409 92.5971 30.8501C92.8673 31.2912 93.3148 32.097 93.5934 32.6314C93.872 33.1658 94.2012 33.7087 94.3279 33.8444C94.4461 33.9717 94.674 34.0989 94.8429 34.1243C95.0033 34.1498 95.2313 34.1328 95.3495 34.0819C95.4592 34.031 95.6027 33.9038 95.6534 33.802C95.7125 33.6917 95.78 33.5306 95.8054 33.4373C95.8391 33.327 95.7125 32.9792 95.4846 32.5042C95.2819 32.08 94.8936 31.359 94.6234 30.8925C94.3617 30.4259 93.8382 29.5862 93.4667 29.0263C93.0952 28.4665 92.538 27.6606 92.2256 27.245C91.9132 26.8209 91.2632 26.0065 90.7819 25.4212C90.2922 24.8359 89.3889 23.835 88.7641 23.1818C88.1309 22.5372 87.1515 21.5871 86.5859 21.0866C86.0202 20.5777 85.539 20.162 85.5305 20.162C85.5221 20.1705 85.3279 20.3402 85.1084 20.5438ZM71.3129 20.5607C71.3466 20.6456 71.5408 21.4005 71.7519 22.2403C71.9545 23.08 72.2163 24.2846 72.3344 24.9123C72.4442 25.54 72.5877 26.4476 72.6468 26.9226L72.765 27.7964C73.4911 27.7964 73.5671 27.7709 73.5671 27.6437C73.5671 27.5673 73.4658 26.9481 73.3476 26.2695C73.2294 25.5909 73.0183 24.539 72.8832 23.9368C72.7481 23.326 72.4695 22.2912 72.2753 21.621L71.9208 20.4165C71.3044 20.4165 71.2622 20.442 71.3129 20.5607ZM39.9902 76.2233C39.8889 76.2657 39.7453 76.393 39.6694 76.5032C39.6018 76.605 39.5343 76.8341 39.5427 76.9952C39.5427 77.1903 39.7031 77.5975 40.0155 78.1828C40.2772 78.6748 40.8007 79.5654 41.1637 80.1762C41.5352 80.7784 42.1009 81.6606 42.4301 82.1272C42.7594 82.5937 43.2238 83.2214 43.4517 83.5268C43.6881 83.8322 44.2622 84.5362 44.735 85.0961C45.2078 85.6559 46.0268 86.572 46.5671 87.1319C47.099 87.6917 47.7913 88.3788 48.1037 88.6587C48.568 89.0659 48.8044 89.3119 48.8635 89.2101C48.9057 89.1423 48.8213 88.769 48.8213 88.5909C48.8213 88.4212 48.9564 88.4043 48.9902 88.4043C49.0239 88.4043 49.0493 88.2007 49.1675 88.1159L49.4545 88.0395C47.8757 86.3515 46.9808 85.3336 46.5418 84.7992C46.0943 84.2648 45.5033 83.5183 45.2247 83.1451C44.9461 82.7718 44.5239 82.195 44.296 81.8727C44.068 81.5419 43.629 80.8972 43.3335 80.4307C43.038 79.9641 42.6243 79.277 42.4048 78.9038C42.1937 78.5306 41.8138 77.8265 41.5605 77.343C41.3072 76.8595 41.0286 76.4099 40.9358 76.3421C40.8429 76.2827 40.6318 76.2148 40.4714 76.1894C40.3026 76.1639 40.0915 76.1809 39.9902 76.2233ZM51.1093 80.7275C51.1093 80.77 50.9658 80.8378 50.7885 80.8633C50.6112 80.8887 50.341 80.9566 50.1891 81.0075C50.0286 81.0584 49.8683 81.1262 49.8767 81.1517C49.8852 81.1771 50.1384 81.5928 50.4001 82.0848C50.6618 82.5767 51.0502 83.2638 51.2528 83.6116C51.4639 83.9594 51.9789 84.7653 52.3926 85.393C52.8063 86.0207 53.4648 86.9538 53.8532 87.4712C54.2416 87.9801 54.6637 88.523 54.7904 88.6672L54.9002 88.6163L54.9086 88.4467V88.277L54.9339 87.0471C54.0136 85.6644 53.4648 84.7907 53.1187 84.2054C52.7641 83.6201 52.1984 82.5852 51.8523 81.8897C51.5061 81.2026 51.1937 80.6427 51.16 80.6427C51.1346 80.6427 51.1093 80.6767 51.1093 80.7275ZM61.6628 81.5928C61.6628 81.7455 61.7388 82.3901 61.8316 83.0178C61.9245 83.6455 62.1018 84.6719 62.2284 85.2997C62.4142 86.1988 62.4227 86.7078 62.5409 86.7247C62.6253 86.7417 63.1741 86.5127 63.1741 86.5127C63.1741 86.5127 63.1741 86.4278 63.1741 86.3854C63.1741 86.3176 63.1318 86.2412 63.0896 85.9867C63.0558 85.7323 62.9292 84.8925 62.811 84.1206C62.7012 83.3487 62.583 82.4071 62.5577 82.0169L62.5071 81.3213C61.6122 81.2535 61.5278 81.0414 61.6628 81.5928ZM57.3148 81.4655C57.0784 81.4825 56.8588 81.5249 56.8251 81.5588C56.7913 81.5928 56.8757 81.9236 57.0108 82.2968C57.1459 82.6701 57.4414 83.4505 57.6778 84.0358C57.9057 84.621 58.2012 85.3251 58.3194 85.605C58.4461 85.8849 58.8176 86.6738 59.1553 87.3694L59.7632 88.6163C60.3795 88.6163 60.5568 88.5909 60.5568 88.5485C60.5568 88.5145 60.2951 87.8953 59.9742 87.1743C59.6618 86.4533 59.1468 85.1894 58.8513 84.3751C58.5474 83.5607 58.2012 82.5598 58.0915 82.1441C57.9733 81.737 57.8466 81.4146 57.8044 81.4231C57.7622 81.4316 57.5427 81.4486 57.3148 81.4655Z" fill="#027FC9"/>
<path opacity="0.99" d="M77.1051 27.6269C77.1051 27.6608 77.2739 28.2037 77.4766 28.8314C77.6792 29.4591 78.0338 30.74 78.2702 31.6731C78.4981 32.6061 78.7598 33.7428 78.8443 34.2009C79.0047 35.0067 79.0131 35.0322 79.2158 34.9813C79.334 34.9558 79.545 34.9728 79.6801 35.0237C79.9081 35.1 79.8996 35.1 79.5704 35.0661C79.2242 35.0237 79.2158 35.0322 79.2158 35.2782C79.2158 35.4308 79.258 35.5326 79.3255 35.5326C79.3931 35.5326 79.469 35.5072 79.5028 35.4648C79.5366 35.4308 79.621 35.3969 79.6886 35.3799C79.7561 35.3715 79.8068 35.3969 79.8068 35.4478C79.8068 35.4987 79.849 35.5157 79.8912 35.4902C79.9334 35.4648 79.9756 35.4817 79.9756 35.5326C79.9756 35.5835 80.06 35.6175 80.1614 35.6259C80.3471 35.6344 80.3471 35.6344 80.1445 35.7023C79.9587 35.7617 79.9587 35.7701 80.1107 35.7786C80.2036 35.7871 80.3049 35.7617 80.3386 35.7192C80.364 35.6853 80.3724 35.609 80.3471 35.5496C80.3302 35.4987 80.2542 35.4648 80.1867 35.4902C80.1191 35.5157 80.0432 35.4987 80.0178 35.4478C79.9925 35.3969 80.06 35.363 80.1614 35.3545C80.2796 35.3545 80.3049 35.3375 80.2289 35.3036C80.1614 35.2866 80.0432 35.2442 79.9756 35.2273C79.8743 35.1933 79.8912 35.1509 80.0516 35.0406L80.2458 34.8964C80.0263 33.8446 79.8152 32.9454 79.6295 32.2244C79.4437 31.5034 79.0385 30.1547 78.7261 29.2301L78.1604 27.5505C77.3415 27.559 77.1051 27.5845 77.1051 27.6184V27.6269ZM72.8161 28.3479C72.8499 28.6448 72.909 30.0953 72.9428 31.5798C72.985 33.2678 73.0441 34.2687 73.0947 34.2687C73.137 34.2687 73.1201 34.3111 73.0525 34.3536C72.9681 34.4101 72.9597 34.4384 73.0272 34.4384C73.0863 34.4384 73.137 34.5317 73.137 34.6504C73.137 34.854 73.1623 34.8625 73.5338 34.8371L73.939 34.8201C73.9137 31.7324 73.8462 30.2225 73.7702 29.4761C73.7026 28.7296 73.6182 28.051 73.6013 27.9662C73.5675 27.8559 73.4662 27.822 73.1539 27.822H72.757L72.8161 28.3479ZM84.636 28.3733C84.4841 28.4412 84.1801 28.5006 83.9606 28.5091L83.5638 28.526C84.4334 30.3752 84.8471 31.3168 85.0413 31.8003C85.2355 32.2923 85.5225 33.0557 85.6745 33.4968C85.8349 33.9464 86.0713 34.7098 86.2148 35.1933C86.3499 35.6853 86.5441 36.4912 86.6454 36.9747C86.7467 37.4667 86.8818 37.9586 86.9493 38.0604C87.0253 38.1877 87.1435 38.2471 87.3208 38.2471C87.4559 38.2471 87.5741 38.2895 87.5741 38.3319C87.5741 38.3828 87.6585 38.3997 87.7599 38.3743C87.8612 38.3404 88.0385 38.2301 88.1398 38.1198C88.2664 37.9841 88.334 37.806 88.334 37.6109C88.334 37.4497 88.2495 36.9492 88.1567 36.4912C88.0554 36.0331 87.8443 35.2357 87.6923 34.7098C87.5319 34.1839 87.1773 33.1745 86.8987 32.4619C86.6201 31.7494 86.0713 30.511 85.6745 29.7051C85.2777 28.8993 84.94 28.2461 84.9315 28.2461C84.9231 28.2546 84.788 28.314 84.636 28.3733ZM47.4118 72.0077C47.3105 72.0501 47.167 72.1773 47.0994 72.2791C47.0235 72.3894 46.9644 72.5929 46.9644 72.7372C46.9644 72.8729 47.0572 73.4073 47.1754 73.9247C47.2852 74.4337 47.5216 75.2904 47.6904 75.8333C47.8593 76.3677 48.1548 77.2244 48.349 77.7419C48.5516 78.2508 48.9737 79.2348 49.2946 79.9134L49.8771 81.1603C50.333 80.9822 50.6032 80.9059 50.7805 80.8804C50.9578 80.855 51.1689 80.8041 51.1857 80.7447C51.2026 80.6853 51.0591 80.3715 50.9156 80.0746C50.7805 79.7692 50.4175 78.904 50.1304 78.166C49.8349 77.4195 49.4381 76.2913 49.2523 75.6636C49.0666 75.0274 48.8133 74.035 48.6867 73.4582C48.5263 72.7117 48.4081 72.3385 48.2814 72.2028C48.1801 72.101 47.9859 71.9992 47.8508 71.9737C47.7073 71.9483 47.5131 71.9652 47.4118 72.0077ZM62.4906 73.772C62.4991 73.9502 62.4569 73.9586 62.0094 73.9586H61.5281C61.4268 74.4591 61.4015 75.5364 61.4015 76.6815C61.4015 77.8182 61.4437 79.3366 61.5028 80.0491L61.6126 81.347L62.4991 81.3385C62.4062 80.8465 62.3809 79.5062 62.3809 78.0303C62.3809 76.4101 62.4231 75.0359 62.4906 74.527C62.5497 74.0604 62.575 73.6618 62.5413 73.6363C62.516 73.6024 62.4906 73.6702 62.4906 73.772ZM55.6604 74.6372C55.6604 74.7815 55.5929 74.8154 55.3396 74.8324C55.0357 74.8493 55.0272 74.8663 55.0441 75.1462C55.061 75.3159 55.1961 76.0199 55.3565 76.7155C55.5084 77.4195 55.8124 78.5816 56.0235 79.3027C56.2345 80.0322 56.4794 80.8295 56.5722 81.084L56.7242 81.5505C57.4334 81.5081 57.6698 81.4742 57.712 81.4403C57.7458 81.4148 57.6023 80.7532 57.3912 79.9813C57.1801 79.2178 56.8677 77.9539 56.7073 77.182C56.5385 76.4186 56.3612 75.494 56.3021 75.1292L56.2092 74.4676C55.7111 74.4676 55.6604 74.51 55.6604 74.6372Z" fill="#058FD2"/>
<path opacity="0.99" d="M72.9342 34.5569C72.9089 34.6248 72.8835 34.8877 72.8835 35.1337C72.8835 35.3713 72.8244 36.0923 72.7569 36.72C72.6809 37.3477 72.529 38.3995 72.4108 39.0527C72.301 39.7058 72.1321 40.5626 72.0477 40.9613C71.9042 41.5975 71.9042 41.7162 72.0055 41.9622C72.073 42.1064 72.2166 42.2676 72.3348 42.3185C72.4867 42.3778 72.6049 42.3694 72.7653 42.293C72.9004 42.2336 73.0017 42.081 73.0524 41.8943C73.0946 41.7332 73.1875 41.3345 73.255 41.0037C73.3226 40.6729 73.4492 39.8925 73.5505 39.2647C73.6434 38.637 73.7532 37.6446 73.8038 37.0593C73.8545 36.474 73.9051 35.736 73.922 35.4052L73.9389 34.8114C73.1622 34.8538 73.1368 34.8453 73.1368 34.6418C73.1368 34.523 73.1031 34.4297 73.0608 34.4297C73.0186 34.4297 72.9595 34.4891 72.9342 34.5569ZM79.089 34.9895C78.9201 35.0319 78.9201 35.0319 79.1059 36.0668C79.241 36.8048 79.3169 37.6191 79.3592 38.9254C79.4098 40.6898 79.4183 40.7577 79.6124 40.9443C79.7306 41.0546 79.9079 41.1309 80.0599 41.1309C80.2372 41.1309 80.3976 41.0546 80.5411 40.8934L80.7691 40.6644C80.6847 38.1705 80.5918 37.0593 80.5243 36.5927C80.4483 36.1262 80.3807 35.7106 80.3807 35.6597C80.3723 35.6088 80.2794 35.5833 80.1697 35.5918C80.0599 35.6088 79.9755 35.5833 79.9755 35.5324C79.9755 35.4815 79.9333 35.4646 79.8911 35.49C79.8488 35.5155 79.8066 35.4985 79.8066 35.4476C79.8066 35.3967 79.756 35.3713 79.6884 35.3797C79.6209 35.3967 79.5365 35.4306 79.5027 35.4646C79.4689 35.507 79.3929 35.5324 79.3254 35.5324C79.2578 35.5324 79.2156 35.4306 79.2156 35.2779C79.2156 35.0319 79.2241 35.0235 79.528 35.0744C79.7053 35.0998 79.8911 35.1592 79.9333 35.2016C79.9755 35.244 80.0852 35.2779 80.1612 35.2779C80.2625 35.2779 80.3047 35.227 80.2879 35.1253C80.271 35.0489 80.2034 34.998 80.1359 35.015C80.0684 35.0319 79.9755 35.0489 79.9333 35.0489C79.8911 35.0489 79.7138 35.0235 79.5533 34.998C79.3929 34.9726 79.1819 34.9726 79.089 34.9895ZM62.4989 68.08C62.3554 68.1988 62.271 68.4532 62.1106 69.2082C62.0008 69.7426 61.8404 70.7181 61.7475 71.3713C61.6547 72.0244 61.5618 72.8727 61.5365 73.2544L61.4858 73.9584H62.4567C62.6171 73.2035 62.6847 72.7878 62.71 72.5588C62.7438 72.3213 62.8198 71.8293 62.8789 71.4561C62.9464 71.0828 63.073 70.3958 63.1744 69.9292C63.2757 69.4627 63.377 68.9452 63.4023 68.7841C63.453 68.5296 63.4192 68.4448 63.1912 68.2073C63.0393 68.063 62.8704 67.9358 62.8029 67.9358C62.7438 67.9358 62.6087 68.0037 62.4989 68.08ZM54.7907 69.4796L54.5205 69.7426C54.6134 71.8632 54.6978 72.9151 54.7738 73.4495C54.8413 73.9839 54.9173 74.5183 54.9426 74.637C54.9849 74.8237 55.0271 74.8491 55.3226 74.8237C55.5927 74.8067 55.6603 74.7728 55.6603 74.637C55.6603 74.5013 55.7194 74.4674 55.9305 74.4674H56.2091C56.0993 73.5767 56.0402 72.8811 55.998 72.3467C55.9558 71.8123 55.9136 70.9811 55.9136 70.4975C55.9136 69.6917 55.8967 69.6154 55.7025 69.4203C55.5843 69.3015 55.3901 69.2082 55.2719 69.2082C55.1453 69.2082 54.9511 69.3185 54.7907 69.4796Z" fill="#089CD9"/>
<path opacity="0.21" d="M75.4584 17.4646C75.7877 17.7954 76.0663 18.0584 76.0916 18.0584C76.1169 18.0584 75.8805 17.7954 75.5681 17.4646C75.2558 17.1423 74.9687 16.8708 74.9349 16.8708C74.9012 16.8708 75.1291 17.1338 75.4584 17.4646ZM97.3674 24.3779C97.8064 24.819 98.1863 25.1838 98.2117 25.1838C98.237 25.1838 97.9077 24.819 97.4771 24.3779C97.0466 23.9368 96.6666 23.5721 96.6329 23.5721C96.5991 23.5721 96.9284 23.9368 97.3674 24.3779ZM72.9171 32.3515C72.9171 33.0047 72.934 33.2507 72.9424 32.9029C72.9593 32.5551 72.9593 32.0207 72.9424 31.7153C72.9255 31.41 72.9171 31.6984 72.9171 32.3515ZM74.0147 33.4967C74.0147 34.0311 74.0231 34.2431 74.04 33.9632C74.0569 33.6833 74.0569 33.2422 74.04 32.9877C74.0231 32.7332 74.0147 32.9623 74.0147 33.4967ZM24.4556 59.0292C24.4556 59.8011 24.4725 60.1065 24.4809 59.7078C24.4978 59.3091 24.4978 58.6814 24.4809 58.3082C24.4725 57.9349 24.4556 58.2573 24.4556 59.0292ZM54.5119 70.6079C54.5119 71.0744 54.5203 71.2441 54.5372 70.9896C54.5541 70.7351 54.5541 70.3534 54.5372 70.1413C54.5203 69.9293 54.5119 70.1413 54.5119 70.6079ZM37.3815 85.41C37.8458 85.8765 38.2426 86.2582 38.268 86.2582C38.2933 86.2582 37.9387 85.8765 37.4912 85.41C37.0353 84.9434 36.6385 84.5617 36.6047 84.5617C36.571 84.5617 36.9171 84.9434 37.3815 85.41ZM57.6441 92.0264C58.0156 92.3996 58.3364 92.705 58.3618 92.705C58.3871 92.705 58.1085 92.3996 57.7539 92.0264C57.3993 91.6531 57.07 91.3477 57.0362 91.3477C57.0025 91.3477 57.2726 91.6531 57.6441 92.0264Z" fill="#0179C6"/>
<path opacity="0.8" d="M24.3799 61.3195C24.363 61.3534 24.3883 61.7436 24.4221 61.9981L24.4812 62.4646C24.498 61.6418 24.4052 59.8774 24.3799 59.8774C24.363 59.8774 24.3968 61.2771 24.3799 61.3195Z" fill="#0178C5"/>
<path fill-rule="evenodd" clip-rule="evenodd" d="M68.5354 45.8388C69.3543 45.8557 69.8356 45.9236 70.435 46.0763C70.874 46.195 71.4819 46.3986 71.7858 46.5343C72.0898 46.6701 72.5626 46.933 72.8412 47.1112C73.1198 47.2808 73.6095 47.6456 73.9303 47.9085C74.2511 48.1715 74.7577 48.6889 75.0532 49.0622C75.374 49.4608 75.7793 50.1225 76.0494 50.6738C76.3027 51.1913 76.5813 51.9123 76.6827 52.2855C76.7755 52.6588 76.8937 53.3289 76.9359 53.77C76.9782 54.262 76.9782 54.8897 76.9359 55.3817C76.8937 55.8228 76.7755 56.4929 76.6827 56.8661C76.5813 57.2393 76.3196 57.9264 76.0917 58.393C75.8722 58.8595 75.4838 59.5042 75.2305 59.835C74.9857 60.1658 74.572 60.6324 74.3187 60.8868C74.0654 61.1328 73.6264 61.5061 73.3478 61.7097C73.0691 61.9048 72.5373 62.2186 72.1658 62.4052C71.7943 62.5918 71.1864 62.8378 70.8149 62.9566C70.4434 63.0753 69.8018 63.2195 69.3797 63.2704C68.9406 63.3298 68.2737 63.3553 67.8177 63.3298C67.3787 63.3044 66.754 63.2195 66.4247 63.1517C66.0954 63.0838 65.6057 62.9481 65.3271 62.8463C65.0485 62.753 64.5166 62.507 64.1451 62.3119C63.7737 62.1083 63.2418 61.7775 62.9631 61.5655C62.6845 61.3449 62.1949 60.8868 61.8656 60.5475C61.5448 60.1998 61.0973 59.6314 60.8778 59.2836C60.6498 58.9359 60.3628 58.3845 60.2277 58.0537C60.0926 57.7228 59.8984 57.1545 59.7971 56.7813C59.662 56.2808 59.5945 55.7719 59.5691 54.8727C59.5354 53.8633 59.5607 53.4985 59.6958 52.8369C59.7887 52.3958 59.9828 51.7257 60.1264 51.3524C60.2699 50.9792 60.5823 50.3515 60.8271 49.9528C61.072 49.5541 61.5532 48.9349 61.9078 48.5617C62.254 48.1969 62.7858 47.7134 63.0898 47.4929C63.3937 47.2723 63.9425 46.933 64.314 46.7464C64.6855 46.5598 65.3102 46.3053 65.707 46.1866C66.1039 46.0593 66.6526 45.9236 66.9312 45.8812C67.2099 45.8388 67.9359 45.8218 68.5354 45.8388ZM66.2136 50.8859C66.0025 50.9962 65.6479 51.2591 65.42 51.4712C65.192 51.6833 64.8881 52.0565 64.7361 52.2855C64.5926 52.523 64.4069 52.8793 64.3224 53.0914C64.238 53.3034 64.1451 53.7191 64.1114 54.0245C64.0691 54.3298 64.0776 54.8388 64.1114 55.1696C64.162 55.5598 64.2887 55.9839 64.4913 56.3996C64.7024 56.8491 64.9472 57.1884 65.3187 57.5447C65.5973 57.8246 66.0194 58.1555 66.2558 58.2827C66.4838 58.4099 66.9059 58.5711 67.1845 58.639C67.4631 58.7153 67.9359 58.7747 68.2399 58.7747C68.5438 58.7747 69.0082 58.7153 69.2699 58.6474C69.5401 58.5796 69.9622 58.4184 70.1986 58.2912C70.4434 58.1724 70.8487 57.8755 71.0935 57.638C71.3468 57.4005 71.6592 57.0358 71.7858 56.8237C71.9209 56.6116 72.1067 56.213 72.208 55.933C72.3009 55.6531 72.4022 55.195 72.4275 54.9151C72.4528 54.6352 72.4359 54.1602 72.3768 53.8548C72.3262 53.5494 72.1827 53.0914 72.0729 52.8369C71.9547 52.5824 71.7099 52.1837 71.5326 51.9462C71.3553 51.7172 70.9669 51.3524 70.6714 51.1489C70.3843 50.9368 69.9284 50.6908 69.6752 50.5975C69.3628 50.4872 68.9322 50.4278 68.3665 50.4024C67.7164 50.3854 67.4125 50.4109 67.0579 50.5296C66.8046 50.6145 66.4247 50.7756 66.2136 50.8859ZM30.8553 46.7973L35.0007 46.8312C38.9434 46.8652 39.1883 46.8821 39.8299 47.0518C40.2014 47.1536 40.7924 47.3741 41.1386 47.5523C41.586 47.7728 41.9406 48.0358 42.3712 48.4599C42.7765 48.8671 43.0551 49.2403 43.2324 49.6135C43.3759 49.9189 43.5616 50.4109 43.6376 50.7163C43.7389 51.0895 43.7896 51.59 43.7896 52.2431C43.7896 52.9217 43.7474 53.3883 43.6461 53.77C43.5616 54.0753 43.3675 54.5673 43.2239 54.8727C43.0466 55.229 42.7427 55.6361 42.3628 56.0179C41.9828 56.3996 41.5607 56.7219 41.1808 56.9255C40.8515 57.0951 40.3196 57.3157 39.9988 57.426C39.4922 57.5871 39.1545 57.6211 35.7774 57.7144L35.7352 62.8463H30.8384L30.8553 46.7973ZM35.8618 53.7276C37.5588 53.7191 37.8712 53.6767 38.057 53.5834C38.2005 53.507 38.3778 53.3713 38.4622 53.2865C38.5382 53.2016 38.6479 52.9217 38.6986 52.6672C38.7746 52.3025 38.7746 52.1159 38.6902 51.819C38.6395 51.6069 38.4875 51.3355 38.3609 51.2252C38.2343 51.1064 38.0063 50.9792 37.8459 50.9453C37.6855 50.9114 37.162 50.8774 36.6892 50.8859H35.8196L35.8618 53.7276ZM45.4528 46.7973L49.8177 46.8312C53.9547 46.8652 54.2164 46.8736 54.875 47.0518C55.2633 47.1536 55.7952 47.3402 56.057 47.4759C56.3271 47.6031 56.7155 47.8237 56.9266 47.9679C57.1376 48.1121 57.4922 48.4344 57.7117 48.6889C57.9397 48.9349 58.2352 49.376 58.3703 49.6559C58.5054 49.9359 58.6742 50.3685 58.7418 50.6314C58.8093 50.9029 58.8684 51.4712 58.8684 51.9886C58.8684 52.523 58.8093 53.0829 58.7333 53.3883C58.6573 53.6682 58.48 54.1262 58.3365 54.4062C58.1845 54.6861 57.8384 55.1441 57.5598 55.4241C57.2221 55.7719 56.8252 56.0518 56.3778 56.2808C56.0063 56.4674 55.6433 56.6371 55.5842 56.654C55.4913 56.6795 55.9303 57.5277 57.1123 59.6229C58.0241 61.2261 58.7924 62.6173 58.8177 62.6936C58.8684 62.8378 58.6995 62.8463 53.5072 62.8463L52.0382 60.0216C51.2277 58.4693 50.5354 57.163 50.4932 57.1206C50.4509 57.0697 50.4256 58.2403 50.4256 62.8463L45.4866 62.8039L45.4528 46.7973ZM50.5016 53.6767C52.4941 53.6767 52.9585 53.6427 53.1442 53.5664C53.2962 53.4985 53.4903 53.3628 53.5832 53.2525C53.7099 53.1168 53.769 52.9132 53.7858 52.5061C53.8196 52.048 53.7943 51.8868 53.6508 51.6408C53.541 51.4542 53.3553 51.2931 53.1358 51.1998C52.8571 51.081 52.5448 51.0471 51.6414 51.0471H50.5016V53.6767Z" fill="#0071C1"/>
<path opacity="0.99" fill-rule="evenodd" clip-rule="evenodd" d="M106.807 46.755C106.688 47.0434 105.025 50.8436 103.117 55.1867C101.209 59.5383 99.6472 63.1433 99.6472 63.1858C99.6472 63.2367 100.12 63.2706 100.897 63.2706L102.138 63.2791L103.598 59.5807H110.479L111.931 63.2791C113.924 63.2706 114.49 63.2451 114.473 63.2027C114.456 63.1688 112.784 59.3432 110.749 54.7032C108.715 50.0632 107.052 46.2546 107.043 46.2461C107.035 46.2376 106.933 46.4666 106.807 46.755ZM105.658 54.559C106.41 52.6419 107.052 51.0896 107.077 51.1066C107.102 51.132 107.71 52.7013 109.762 58.0538L107.043 58.0708C105.557 58.0877 104.324 58.0877 104.308 58.0708C104.299 58.0623 104.907 56.4845 105.658 54.559ZM78.287 54.8728V63.2706H80.7354V46.4751H78.287V54.8728ZM94.3705 53.0067C92.1922 56.5609 90.3855 59.4619 90.3601 59.4534C90.3348 59.4534 89.0262 57.3498 87.4474 54.7711C85.8686 52.2008 84.0956 49.3083 83.4962 48.3498L82.4239 46.6023V63.2706L84.8301 63.2282C84.8301 56.5524 84.847 54.6184 84.8723 54.6184C84.8977 54.6184 86.1303 56.5948 87.6162 59.0208C89.1022 61.4468 90.3348 63.4318 90.3601 63.4402C90.3855 63.4402 91.6181 61.4553 93.104 59.0293C94.59 56.6118 95.8311 54.6269 95.8733 54.6184C95.907 54.6184 95.9324 56.5694 95.9324 58.9445V63.2706C97.984 63.2706 98.3048 63.2451 98.3386 63.1603C98.3639 63.1094 98.3723 59.3432 98.3639 54.805L98.3386 46.5599L94.3705 53.0067ZM154.643 53.0067C152.465 56.5524 150.667 59.4534 150.642 59.4534C150.616 59.4534 149.122 57.0359 147.307 54.0925C145.5 51.1405 143.718 48.2564 143.364 47.6627L142.705 46.6023V63.2706L145.078 63.2282C145.069 56.5524 145.095 54.6099 145.137 54.6099C145.171 54.6099 146.412 56.5948 147.898 59.0208C149.384 61.4468 150.616 63.4318 150.642 63.4318C150.667 63.4318 151.9 61.4553 153.385 59.0293C154.871 56.6033 156.112 54.6184 156.155 54.6184C156.188 54.6184 156.214 56.5609 156.214 58.9445V63.2706L158.62 63.2282C158.654 50.3092 158.654 46.5599 158.637 46.5599C158.62 46.5599 156.822 49.461 154.643 53.0067ZM121.092 46.7211C120.788 46.7635 120.273 46.8568 119.952 46.9332C119.631 47.0095 119.074 47.1961 118.728 47.3488C118.382 47.5015 117.867 47.7729 117.588 47.9596C117.309 48.1462 116.82 48.5449 116.499 48.8502C116.178 49.1471 115.756 49.6306 115.562 49.9105C115.359 50.1905 115.072 50.6825 114.903 51.0133C114.743 51.3356 114.532 51.87 114.43 52.2008C114.329 52.5232 114.194 53.1339 114.127 53.558C114.059 53.9737 114 54.6099 114 54.9746C114 55.3394 114.059 56.001 114.127 56.4591C114.194 56.9171 114.346 57.5788 114.464 57.9435C114.582 58.3083 114.81 58.8766 114.979 59.2159C115.148 59.5552 115.477 60.0981 115.722 60.4204C115.959 60.7428 116.347 61.1754 116.575 61.3875C116.811 61.591 117.242 61.9303 117.546 62.1254C117.85 62.329 118.382 62.6005 118.728 62.7447C119.074 62.8804 119.665 63.0585 120.036 63.1349C120.408 63.2112 121.109 63.296 121.598 63.3215C122.097 63.3469 122.84 63.33 123.287 63.2706C123.726 63.2197 124.452 63.05 124.891 62.9058C125.33 62.7531 125.921 62.4817 126.2 62.3036C126.478 62.1254 126.892 61.8031 127.112 61.5826C127.34 61.362 127.677 60.9633 127.871 60.6834C128.057 60.4035 128.319 59.92 128.437 59.6231C128.564 59.3177 128.741 58.7663 128.825 58.3931C128.944 57.8672 128.986 57.3752 128.986 56.2725V54.8304H123.11L123.076 56.9087C125.98 56.9087 126.681 56.9341 126.706 56.9935C126.732 57.0359 126.715 57.3498 126.681 57.6891C126.63 58.0793 126.512 58.5119 126.343 58.8766C126.183 59.2074 125.904 59.6231 125.668 59.8521C125.448 60.0727 125.026 60.378 124.722 60.5307C124.418 60.6834 123.886 60.87 123.54 60.9464C123.059 61.0482 122.645 61.0736 121.852 61.0397C121.109 61.0057 120.661 60.9464 120.332 60.8276C120.079 60.7343 119.682 60.5646 119.446 60.4459C119.218 60.3187 118.838 60.0642 118.601 59.8691C118.373 59.674 118.019 59.3177 117.816 59.0802C117.622 58.8427 117.326 58.3761 117.174 58.0538C117.014 57.723 116.82 57.231 116.744 56.9511C116.668 56.6627 116.583 55.9417 116.558 55.3394C116.524 54.4996 116.541 54.0585 116.651 53.5156C116.744 53.0406 116.93 52.5147 117.183 51.9888C117.504 51.3356 117.698 51.0557 118.213 50.5383C118.576 50.182 119.074 49.7918 119.361 49.6391C119.64 49.4864 120.155 49.2913 120.501 49.1895C120.965 49.0623 121.379 49.0199 122.063 49.0199C122.628 49.0199 123.186 49.0708 123.498 49.1556C123.777 49.2235 124.233 49.4016 124.503 49.5543C124.781 49.6985 125.237 50.0378 125.516 50.3007L126.031 50.7842L127.762 49.444C127.247 48.8163 126.934 48.5024 126.732 48.3328C126.529 48.1631 126.2 47.9087 125.989 47.7729C125.778 47.6287 125.381 47.4082 125.102 47.281C124.824 47.1537 124.292 46.9841 123.92 46.8908C123.549 46.8059 122.882 46.7126 122.443 46.6957C122.004 46.6702 121.396 46.6872 121.092 46.7211ZM131.308 55.0425V63.2706H141.27V60.8955H134.178V55.4666H139.497V53.1763H134.178V49.0199H141.27V46.8144H131.308V55.0425ZM80.9042 67.0877C80.9042 67.5967 80.8873 68.0208 80.862 68.0208C80.8367 68.0208 80.7185 67.936 80.5918 67.8427C80.4568 67.7494 80.1697 67.6476 79.9333 67.6221C79.604 67.5797 79.4267 67.6052 79.1228 67.7494C78.8442 67.8766 78.6585 68.0378 78.5065 68.2923C78.3798 68.5043 78.2701 68.8436 78.2363 69.1236C78.2025 69.4035 78.2279 69.7767 78.287 70.0566C78.363 70.379 78.4896 70.6165 78.7007 70.8455C78.8864 71.0406 79.1313 71.2018 79.3423 71.2527C79.5281 71.3036 79.832 71.3205 80.0177 71.2951C80.2035 71.2612 80.4568 71.1679 80.5918 71.0745C80.7185 70.9812 80.8367 70.9049 80.862 70.9049C80.8873 70.9049 80.9042 70.9812 80.9042 71.0745C80.9042 71.2103 80.9633 71.2442 81.1997 71.2442H81.4952V66.1547H80.9042V67.0877ZM79.5027 68.2244C79.6463 68.165 79.7813 68.1056 79.8067 68.1056C79.832 68.1056 79.9755 68.1311 80.1359 68.165C80.2964 68.199 80.5159 68.3177 80.6256 68.4195C80.8029 68.5976 80.8198 68.6825 80.8198 69.4374C80.8198 70.1499 80.8029 70.2941 80.6509 70.4553C80.5581 70.5571 80.3386 70.6843 80.1697 70.7268C79.9502 70.7777 79.756 70.7777 79.5618 70.7013C79.4014 70.6504 79.1903 70.4977 79.0975 70.362C78.9539 70.1669 78.9202 70.0057 78.9202 69.4713C78.9202 68.9624 78.954 68.7588 79.0806 68.5807C79.1735 68.4449 79.3592 68.2923 79.5027 68.2244ZM100.677 66.5958L100.348 67.0453C100.736 67.0877 100.888 66.9944 101.251 66.6212L101.716 66.1547C101.032 66.1547 100.981 66.1801 100.677 66.5958ZM137.108 66.6212L136.795 67.0877C137.201 67.0877 137.378 66.9605 137.716 66.6212L138.18 66.1547C137.446 66.1547 137.412 66.1716 137.108 66.6212ZM142.52 67.0877C142.528 67.5967 142.52 68.0208 142.494 68.0208C142.469 68.0208 142.351 67.936 142.224 67.8427C142.089 67.7494 141.802 67.6476 141.566 67.6221C141.228 67.5797 141.059 67.6052 140.747 67.7494C140.434 67.8851 140.291 68.0293 140.113 68.3347C139.961 68.6061 139.874 68.9115 139.852 69.2508C139.826 69.5816 139.86 69.9039 139.945 70.1839C140.021 70.4129 140.206 70.7268 140.358 70.8794C140.51 71.0321 140.772 71.1933 140.932 71.2357C141.093 71.2866 141.321 71.329 141.439 71.329C141.557 71.329 141.844 71.2357 142.072 71.117C142.309 70.9982 142.503 70.9049 142.52 70.9049C142.528 70.9049 142.536 70.9812 142.536 71.0745C142.536 71.2103 142.596 71.2442 142.832 71.2442H143.127V66.1547L142.494 66.1462L142.52 67.0877ZM141.11 68.2583C141.27 68.1735 141.422 68.1056 141.447 68.1056C141.464 68.1056 141.616 68.1396 141.777 68.1735C141.929 68.2074 142.148 68.3347 142.258 68.4534C142.444 68.64 142.461 68.7334 142.461 69.4713C142.461 70.1924 142.444 70.2941 142.266 70.4638C142.165 70.5656 141.954 70.6928 141.802 70.7352C141.599 70.8031 141.439 70.7946 141.219 70.7183C141.051 70.6589 140.831 70.5062 140.73 70.3705C140.603 70.2008 140.552 69.9803 140.527 69.5646C140.51 69.149 140.544 68.92 140.654 68.7079C140.747 68.5383 140.941 68.3432 141.11 68.2583ZM83.1922 66.3837C83.1162 66.4091 83.074 66.5194 83.0825 66.6721C83.0994 66.8672 83.15 66.9351 83.3189 66.969C83.4286 66.9859 83.5806 66.9605 83.6566 66.9011C83.7241 66.8417 83.7832 66.74 83.7832 66.6721C83.7832 66.5957 83.7326 66.494 83.6735 66.4346C83.6144 66.3752 83.513 66.3328 83.4455 66.3328C83.3695 66.3413 83.2598 66.3582 83.1922 66.3837ZM111.138 66.4346C111.07 66.4855 111.02 66.5873 111.028 66.6636C111.037 66.74 111.096 66.8417 111.155 66.9011C111.214 66.9605 111.324 67.0114 111.4 67.0114C111.484 67.0114 111.602 66.952 111.678 66.8842C111.746 66.8078 111.813 66.7145 111.813 66.6721C111.813 66.6212 111.754 66.5279 111.687 66.46C111.611 66.3837 111.484 66.3328 111.408 66.3328C111.324 66.3328 111.197 66.3752 111.138 66.4346ZM144.782 66.46C144.706 66.5364 144.639 66.6297 144.647 66.6721C144.647 66.7145 144.715 66.8163 144.799 66.8842C144.884 66.9605 145.019 67.0114 145.103 66.9944C145.196 66.9775 145.306 66.9011 145.356 66.8163C145.432 66.706 145.432 66.6297 145.356 66.5194C145.306 66.4346 145.188 66.3582 145.095 66.3413C145.002 66.3328 144.858 66.3837 144.782 66.46ZM108.419 67.1895L108.394 67.6476C107.71 67.6815 107.676 67.707 107.676 67.9021C107.676 68.0887 107.702 68.1141 108.056 68.1141H108.436C108.428 70.8116 108.436 70.871 108.622 71.0576C108.723 71.1594 108.926 71.2696 109.069 71.2951C109.204 71.329 109.424 71.329 109.551 71.3036C109.728 71.2612 109.787 71.2018 109.787 71.0406C109.787 70.854 109.745 70.8285 109.508 70.8285C109.356 70.8285 109.188 70.7777 109.128 70.7183C109.052 70.6419 109.019 70.2602 109.019 69.3611L109.027 68.1141C109.669 68.1141 109.703 68.0887 109.703 67.9021C109.703 67.707 109.669 67.69 109.365 67.69H109.027C108.985 66.8078 108.976 66.7908 108.715 66.7654C108.453 66.74 108.453 66.7484 108.419 67.1895ZM86.1894 67.707C86.0459 67.7663 85.8433 67.8597 85.7419 67.919C85.6406 67.9784 85.4971 68.1396 85.4296 68.2838C85.3536 68.4195 85.3029 68.5552 85.3029 68.5807C85.3029 68.5976 85.4296 68.6231 85.5984 68.6231C85.8179 68.6231 85.9192 68.5722 86.0206 68.411C86.0881 68.2838 86.2823 68.1565 86.4596 68.0972C86.6369 68.0463 86.8986 68.0293 87.0506 68.0548C87.211 68.0887 87.3967 68.2074 87.498 68.3432C87.5909 68.4704 87.6669 68.6994 87.6669 68.8521V69.132C86.3583 69.1744 86.0121 69.2253 85.8264 69.3271C85.6744 69.4035 85.4802 69.5901 85.3873 69.7428C85.2945 69.8955 85.2185 70.1245 85.2185 70.2517C85.2185 70.379 85.2607 70.5826 85.3198 70.7013C85.3789 70.8285 85.5393 70.9982 85.6828 71.083C85.8179 71.1679 86.0797 71.2612 86.2738 71.2951C86.4765 71.329 86.7466 71.3121 86.9746 71.2357C87.1772 71.1763 87.3883 71.0745 87.4389 71.0152C87.4896 70.9473 87.5656 70.9049 87.5994 70.9049C87.6331 70.9049 87.6838 70.9897 87.7091 71.083C87.7344 71.2103 87.8189 71.2527 88.089 71.2527H88.4267C88.2917 70.8201 88.2494 70.1924 88.2494 69.5731C88.2494 68.657 88.2241 68.4025 88.1059 68.199C88.0215 68.0632 87.8442 67.8851 87.7091 67.8003C87.5656 67.7239 87.2194 67.6476 86.9493 67.6306C86.6706 67.6137 86.3245 67.6476 86.1894 67.707ZM86.4174 69.624C86.5187 69.5901 86.8226 69.5646 87.5825 69.5562V69.9803C87.5825 70.362 87.5571 70.4129 87.3039 70.5656C87.135 70.6759 86.8817 70.7352 86.6284 70.7352C86.3414 70.7352 86.181 70.6928 86.0628 70.5741C85.9615 70.4808 85.8939 70.3026 85.8939 70.1924C85.8939 70.0736 85.9699 69.9124 86.0628 69.8276C86.1556 69.7428 86.3161 69.658 86.4174 69.624ZM90.5543 67.7663C90.3179 67.8851 90.1237 68.0632 89.9802 68.3007C89.8536 68.5213 89.7523 68.8521 89.7185 69.1744C89.6847 69.5138 89.71 69.8276 89.7945 70.1499C89.8958 70.4892 90.0224 70.6928 90.2757 70.9303C90.5206 71.1594 90.7232 71.2612 90.9765 71.2951C91.1706 71.329 91.483 71.3121 91.6772 71.2612C91.863 71.2103 92.0656 71.117 92.1416 71.0406C92.2091 70.9643 92.302 70.9049 92.3526 70.9049C92.4033 70.9049 92.4117 71.0406 92.3695 71.2696C92.3442 71.4647 92.2429 71.7277 92.15 71.8465C92.0656 71.9567 91.8461 72.1009 91.6688 72.1603C91.4661 72.2282 91.2213 72.2451 91.044 72.2112C90.8751 72.1773 90.6219 72.0585 90.4699 71.9482C90.1997 71.7616 90.1913 71.7616 90.0731 71.9313C89.9971 72.0246 89.9633 72.1349 89.9887 72.1858C90.0055 72.2282 90.1913 72.3469 90.3855 72.4487C90.5797 72.542 90.9174 72.6438 91.1284 72.6693C91.3311 72.6862 91.6688 72.6693 91.863 72.6184C92.0571 72.559 92.3611 72.3978 92.5215 72.2451C92.6903 72.0925 92.8592 71.838 92.9014 71.6768C92.9436 71.5072 92.9774 70.5486 92.9774 69.5307L92.9858 67.69C92.4455 67.69 92.3948 67.7154 92.3948 67.8596C92.3948 67.953 92.3611 68.0293 92.3273 68.0293C92.2935 68.0293 92.1585 67.936 92.0234 67.8342C91.863 67.707 91.6434 67.6391 91.3479 67.6221C91.044 67.6052 90.8076 67.6476 90.5543 67.7663ZM90.8751 68.3007C91.0271 68.199 91.2466 68.1141 91.3479 68.1141C91.4577 68.1141 91.6772 68.165 91.8461 68.2414C92.0065 68.3092 92.1753 68.4449 92.226 68.5383C92.2682 68.6316 92.3104 69.0642 92.3104 69.5138C92.3104 70.3026 92.302 70.3196 92.0571 70.5317C91.863 70.6843 91.7025 70.7437 91.4239 70.7437C91.2129 70.7437 90.968 70.7013 90.8751 70.6589C90.7738 70.608 90.6303 70.4044 90.5374 70.2093C90.4446 70.0057 90.3686 69.6749 90.3686 69.4713C90.377 69.2593 90.4277 68.9539 90.4868 68.7927C90.5459 68.6231 90.7147 68.411 90.8751 68.3007ZM95.772 67.6985C95.6538 67.7494 95.4511 67.8596 95.3245 67.9445L95.0965 68.1141C95.0965 67.7154 95.0543 67.69 94.801 67.69H94.5055V71.2527H95.0965C95.0965 68.7418 95.0965 68.6994 95.3076 68.4534C95.4174 68.3092 95.6369 68.1565 95.7888 68.1141C95.9577 68.0717 96.1857 68.0717 96.3798 68.1141C96.5571 68.1565 96.7513 68.2838 96.8273 68.3856C96.9202 68.5383 96.9539 68.8606 96.9539 69.9124V71.2527H97.5449C97.5365 68.7249 97.5112 68.4449 97.393 68.199C97.3085 68.0208 97.1228 67.8342 96.9539 67.7494C96.7851 67.6646 96.5065 67.6052 96.3207 67.6052C96.1266 67.6052 95.8817 67.6476 95.772 67.6985ZM100.036 67.7324C99.8414 67.8003 99.6219 67.919 99.5374 68.0039C99.453 68.0887 99.3095 68.2498 99.2251 68.3686C99.1406 68.4789 99.0309 68.7758 98.9802 69.0218C98.9211 69.3356 98.9211 69.5986 98.9802 69.9124C99.0309 70.1584 99.1575 70.4808 99.2757 70.6334C99.3855 70.7861 99.605 70.9812 99.757 71.0745C99.9089 71.1679 100.204 71.2696 100.415 71.2951C100.618 71.3205 100.939 71.3036 101.133 71.2612C101.319 71.2103 101.597 71.083 101.758 70.9728C101.91 70.871 102.121 70.6334 102.214 70.4468C102.307 70.2602 102.4 69.8955 102.425 69.641C102.442 69.378 102.408 68.9963 102.34 68.7927C102.281 68.5722 102.104 68.2753 101.935 68.1056C101.766 67.9445 101.488 67.7663 101.302 67.707C101.108 67.6476 100.829 67.6052 100.669 67.6052C100.5 67.6052 100.221 67.6646 100.036 67.7324ZM100.162 68.2414C100.272 68.1735 100.5 68.1141 100.669 68.1141C100.829 68.1141 101.074 68.182 101.218 68.2668C101.353 68.3516 101.53 68.5552 101.614 68.7334C101.699 68.903 101.758 69.2253 101.758 69.4459C101.758 69.6664 101.682 70.0142 101.589 70.2093C101.471 70.4723 101.336 70.608 101.108 70.7013C100.914 70.7861 100.677 70.8201 100.5 70.7861C100.331 70.7607 100.095 70.6334 99.9765 70.5062C99.8498 70.379 99.7147 70.1245 99.6641 69.9379C99.6219 69.7513 99.6219 69.4035 99.6556 69.1744C99.6894 68.9369 99.7654 68.6655 99.8329 68.5637C99.892 68.4534 100.044 68.3177 100.162 68.2414ZM104.561 67.7155C104.4 67.7663 104.164 67.936 104.029 68.0887C103.877 68.2583 103.793 68.4619 103.793 68.6231C103.793 68.7673 103.877 68.9793 104.004 69.132C104.139 69.2932 104.367 69.4289 104.654 69.5053C104.899 69.5816 105.262 69.6749 105.456 69.7173C105.684 69.7767 105.878 69.887 105.988 70.0397C106.081 70.1669 106.157 70.3026 106.157 70.3366C106.157 70.3705 106.055 70.4977 105.946 70.6165C105.777 70.7861 105.658 70.8285 105.27 70.8285C105.008 70.8285 104.73 70.7861 104.637 70.7437C104.536 70.6928 104.409 70.5401 104.341 70.4044C104.24 70.2008 104.156 70.1499 103.961 70.1499C103.733 70.1499 103.708 70.1754 103.708 70.379C103.708 70.5317 103.809 70.7098 104.004 70.8879C104.206 71.0745 104.434 71.1933 104.738 71.2527C105.051 71.3205 105.321 71.3205 105.667 71.2527C105.954 71.2018 106.258 71.0745 106.41 70.9558C106.553 70.8285 106.68 70.625 106.705 70.4638C106.731 70.3111 106.714 70.0821 106.663 69.9548C106.612 69.8276 106.452 69.6495 106.3 69.5562C106.148 69.4629 105.709 69.3017 105.312 69.1914C104.806 69.0557 104.569 68.9454 104.468 68.8012C104.358 68.64 104.358 68.5722 104.443 68.4025C104.502 68.2753 104.679 68.1565 104.865 68.0972C105.042 68.0463 105.295 68.0293 105.439 68.0632C105.574 68.0887 105.777 68.199 105.878 68.3007C105.988 68.411 106.072 68.5383 106.072 68.5976C106.072 68.6655 106.182 68.7079 106.368 68.7079C106.621 68.7079 106.663 68.674 106.663 68.4958C106.663 68.3686 106.553 68.1735 106.41 68.0293C106.266 67.8851 106.013 67.7324 105.836 67.69C105.658 67.6391 105.371 67.6052 105.186 67.6137C104.991 67.6137 104.713 67.6646 104.561 67.7155ZM114.194 67.7155C114.042 67.7663 113.806 67.9275 113.654 68.0717C113.51 68.2074 113.341 68.4534 113.274 68.6231C113.206 68.7843 113.156 69.166 113.156 69.4713C113.164 69.8106 113.223 70.1499 113.316 70.362C113.4 70.5486 113.586 70.8031 113.738 70.9303C113.882 71.0576 114.169 71.2103 114.363 71.2612C114.633 71.329 114.836 71.329 115.19 71.2527C115.444 71.2018 115.756 71.083 115.883 70.9897C116.009 70.8964 116.17 70.7098 116.246 70.5741C116.313 70.4299 116.372 70.2772 116.372 70.2348C116.372 70.1839 116.263 70.1499 116.136 70.1499C115.967 70.1499 115.84 70.2348 115.672 70.4468C115.537 70.6165 115.325 70.7692 115.165 70.8116C115.013 70.8455 114.76 70.8455 114.599 70.8116C114.43 70.7692 114.228 70.6759 114.143 70.591C114.051 70.5062 113.932 70.3196 113.865 70.1669C113.806 70.0142 113.755 69.6919 113.755 69.4459C113.755 69.1829 113.823 68.8521 113.924 68.64C114.042 68.3771 114.177 68.2414 114.405 68.1396C114.608 68.0548 114.827 68.0293 115.021 68.0632C115.182 68.0887 115.401 68.199 115.511 68.3007C115.621 68.4025 115.748 68.5807 115.79 68.6825C115.84 68.8182 115.933 68.8776 116.119 68.8776C116.296 68.8776 116.372 68.8351 116.372 68.7249C116.372 68.64 116.288 68.4449 116.178 68.2838C116.077 68.1141 115.815 67.8936 115.604 67.7918C115.368 67.673 115.089 67.6052 114.853 67.6052C114.642 67.6137 114.346 67.6561 114.194 67.7155ZM118.61 67.7324C118.415 67.8003 118.179 67.9445 118.069 68.0463C117.96 68.1481 117.799 68.3941 117.706 68.5807C117.605 68.7927 117.554 69.1066 117.554 69.4713C117.554 69.8191 117.613 70.1415 117.706 70.362C117.791 70.5486 117.976 70.8031 118.128 70.9303C118.28 71.0661 118.584 71.2018 118.838 71.2612C119.175 71.3375 119.378 71.329 119.707 71.2527C119.935 71.1933 120.256 71.0491 120.416 70.9219C120.577 70.8031 120.771 70.5486 120.855 70.362C120.948 70.1415 121.007 69.8106 121.007 69.4713C121.007 69.1151 120.948 68.7927 120.855 68.5807C120.771 68.3941 120.585 68.1311 120.433 68.0039C120.29 67.8766 120.028 67.7324 119.851 67.69C119.673 67.6391 119.403 67.6052 119.243 67.6052C119.074 67.6052 118.795 67.6646 118.61 67.7324ZM118.821 68.2159C118.939 68.1565 119.142 68.1141 119.285 68.1141C119.42 68.1141 119.657 68.1905 119.809 68.2838C119.961 68.3771 120.146 68.5892 120.222 68.7673C120.307 68.9793 120.34 69.2593 120.324 69.6071C120.307 69.9718 120.239 70.2008 120.112 70.3705C120.02 70.5062 119.792 70.6674 119.606 70.7352C119.327 70.837 119.234 70.837 118.947 70.7352C118.736 70.6589 118.542 70.4977 118.415 70.3196C118.264 70.0821 118.221 69.9039 118.221 69.4713C118.221 69.0302 118.264 68.8521 118.424 68.6231C118.525 68.4534 118.711 68.2753 118.821 68.2159ZM123.084 67.7579C122.89 67.8427 122.671 67.9869 122.586 68.0802C122.502 68.1735 122.434 68.3856 122.417 68.6061C122.409 68.92 122.443 69.0048 122.662 69.1999C122.823 69.3526 123.127 69.4883 123.549 69.5901C123.895 69.6749 124.283 69.7937 124.41 69.8615C124.545 69.9294 124.663 70.0736 124.697 70.2093C124.739 70.3959 124.705 70.4808 124.528 70.6334C124.351 70.7861 124.199 70.8285 123.819 70.8285C123.397 70.8285 123.304 70.8031 123.101 70.591C122.966 70.4638 122.865 70.3111 122.865 70.2517C122.865 70.1839 122.755 70.1499 122.578 70.1499C122.367 70.1499 122.282 70.1839 122.282 70.2772C122.282 70.345 122.333 70.5147 122.409 70.6589C122.476 70.7946 122.688 70.9897 122.89 71.0915C123.16 71.2357 123.397 71.2781 123.844 71.2781C124.233 71.2781 124.52 71.2357 124.705 71.1339C124.857 71.0576 125.06 70.8879 125.153 70.7607C125.246 70.6334 125.322 70.4129 125.322 70.2772C125.322 70.133 125.263 69.9294 125.195 69.8276C125.119 69.7258 124.925 69.5646 124.748 69.4798C124.57 69.395 124.224 69.2762 123.971 69.2169C123.709 69.1575 123.405 69.0557 123.295 69.0048C123.177 68.9454 123.051 68.8267 123.017 68.7334C122.975 68.6401 123 68.5043 123.076 68.3856C123.152 68.2838 123.312 68.1565 123.439 68.1056C123.566 68.0548 123.802 68.0293 123.971 68.0548C124.165 68.0887 124.342 68.199 124.52 68.4025C124.705 68.6231 124.832 68.6994 125.043 68.6994C125.288 68.6994 125.313 68.6825 125.263 68.5128C125.237 68.411 125.161 68.2329 125.094 68.1311C125.035 68.0293 124.815 67.8681 124.621 67.7748C124.41 67.673 124.081 67.6052 123.844 67.6052C123.608 67.6052 123.27 67.673 123.084 67.7579ZM129.577 67.8088C129.349 67.9275 129.146 68.0208 129.138 68.0208C129.129 68.0208 129.121 67.953 129.121 67.8596C129.121 67.7239 129.062 67.69 128.868 67.69H128.614L128.572 71.2527H129.205C129.205 69.2084 129.231 68.5552 129.264 68.4789C129.298 68.4025 129.433 68.2923 129.56 68.2244C129.687 68.165 129.965 68.1141 130.176 68.1141C130.463 68.1141 130.598 68.1565 130.767 68.3262C130.97 68.5298 130.978 68.5552 130.978 69.8955V71.2527L131.612 71.2442V68.6061C132.11 68.1565 132.228 68.1141 132.582 68.1141C132.92 68.1141 133.047 68.1565 133.216 68.3262C133.418 68.5298 133.427 68.5552 133.427 69.8955V71.2527H134.018C134.009 68.5552 133.992 68.3771 133.84 68.1311C133.748 67.9784 133.545 67.8003 133.385 67.7324C133.216 67.6561 132.962 67.6052 132.81 67.6052C132.658 67.6052 132.405 67.6391 132.245 67.6815C132.076 67.7239 131.848 67.8597 131.738 67.9784L131.527 68.199C131.198 67.8766 130.995 67.7409 130.869 67.69C130.742 67.6391 130.497 67.6052 130.32 67.6052C130.143 67.6052 129.813 67.6985 129.577 67.8088ZM136.424 67.7579C136.23 67.8512 136.002 68.0123 135.9 68.1226C135.791 68.2329 135.656 68.4619 135.58 68.64C135.504 68.8182 135.453 69.1999 135.453 69.5138C135.453 69.8106 135.487 70.1669 135.537 70.2941C135.588 70.4214 135.732 70.6335 135.858 70.7692C135.976 70.9049 136.196 71.0745 136.339 71.1424C136.5 71.2357 136.795 71.2781 137.184 71.2781C137.555 71.2781 137.859 71.2357 138.028 71.1424C138.163 71.0745 138.357 70.9303 138.45 70.8285L138.619 70.6419C138.298 70.4214 138.239 70.4299 137.986 70.6165C137.758 70.7777 137.581 70.8285 137.243 70.8285C136.939 70.8285 136.719 70.7692 136.551 70.6589C136.407 70.5656 136.238 70.3705 136.171 70.2348C136.095 70.0906 136.044 69.9039 136.044 69.8106C136.044 69.641 136.095 69.641 137.353 69.641H138.661C138.661 68.886 138.602 68.6316 138.459 68.3686C138.315 68.0972 138.155 67.9275 137.893 67.7918C137.657 67.673 137.37 67.5967 137.142 67.6052C136.93 67.6052 136.61 67.673 136.424 67.7579ZM136.635 68.2329C136.745 68.165 136.947 68.1141 137.074 68.1141C137.201 68.1141 137.412 68.165 137.538 68.2244C137.665 68.2923 137.817 68.445 137.876 68.5637C137.935 68.6909 137.986 68.8691 137.986 68.9624C137.986 69.1151 137.927 69.132 137.057 69.132C136.491 69.132 136.128 69.0981 136.128 69.0472C136.128 68.9963 136.188 68.8182 136.272 68.6485C136.356 68.4789 136.517 68.2923 136.635 68.2329ZM147.737 67.7579C147.543 67.8427 147.298 68.0208 147.18 68.1565C147.062 68.2923 146.918 68.6146 146.851 68.8776C146.792 69.132 146.758 69.5138 146.783 69.7258C146.809 69.9294 146.901 70.2517 146.986 70.4384C147.07 70.6165 147.256 70.854 147.4 70.9643C147.535 71.0745 147.855 71.2018 148.117 71.2612C148.472 71.3375 148.666 71.329 148.961 71.2527C149.181 71.1848 149.468 71.0152 149.654 70.837C149.823 70.6674 149.966 70.4384 149.966 70.3366C149.966 70.1839 149.924 70.1499 149.721 70.1499C149.536 70.1499 149.451 70.1924 149.426 70.3196C149.4 70.4129 149.274 70.5656 149.147 70.6589C148.987 70.7777 148.784 70.8285 148.497 70.8285C148.261 70.8285 147.982 70.7692 147.881 70.7013C147.779 70.625 147.636 70.4638 147.577 70.3366C147.509 70.2093 147.433 69.9548 147.4 69.7682C147.366 69.5816 147.383 69.2338 147.433 69.0048C147.484 68.7334 147.611 68.4874 147.754 68.3432C147.881 68.2159 148.117 68.0887 148.286 68.0632C148.472 68.0293 148.691 68.0548 148.894 68.1396C149.097 68.2329 149.265 68.3856 149.358 68.5807C149.485 68.8267 149.552 68.8776 149.78 68.8776C150.025 68.8776 150.051 68.8521 150 68.6825C149.975 68.5807 149.89 68.3771 149.814 68.2414C149.738 68.1056 149.502 67.9105 149.299 67.8003C149.037 67.6646 148.776 67.5967 148.497 67.6052C148.261 67.6052 147.923 67.673 147.737 67.7579ZM152.296 67.707C152.153 67.7579 151.925 67.8766 151.79 67.9699C151.655 68.0717 151.452 68.3601 151.334 68.6231C151.165 68.9963 151.131 69.1829 151.165 69.5986C151.19 69.9294 151.283 70.2348 151.427 70.4892C151.553 70.7098 151.773 70.9473 151.967 71.0576C152.144 71.1594 152.465 71.2696 152.676 71.2951C152.887 71.329 153.217 71.3036 153.436 71.2442C153.681 71.1848 153.934 71.0236 154.162 70.7946C154.441 70.5147 154.534 70.345 154.618 69.9379C154.703 69.5138 154.703 69.3441 154.61 68.9624C154.542 68.674 154.399 68.3771 154.238 68.199C154.095 68.0463 153.833 67.8427 153.647 67.7579C153.453 67.673 153.132 67.6052 152.93 67.6137C152.718 67.6137 152.431 67.6561 152.296 67.707ZM152.381 68.2668C152.516 68.182 152.752 68.1141 152.904 68.1141C153.056 68.1141 153.293 68.1735 153.428 68.2583C153.563 68.3432 153.732 68.5043 153.799 68.6231C153.867 68.7334 153.951 68.9624 153.985 69.132C154.019 69.3017 153.993 69.6155 153.926 69.887C153.85 70.1839 153.732 70.4129 153.58 70.5401C153.453 70.6504 153.225 70.7607 153.073 70.7861C152.904 70.8201 152.676 70.7861 152.482 70.7013C152.254 70.608 152.119 70.4723 152.001 70.2093C151.908 70.0142 151.832 69.6834 151.832 69.4883C151.832 69.2932 151.891 68.9709 151.976 68.7758C152.06 68.5637 152.229 68.3516 152.381 68.2668ZM83.1078 69.4713V71.2527H83.6988V67.69H83.1078V69.4713ZM111.138 69.4713V71.2527H111.729V67.69H111.138V69.4713ZM144.74 69.4713V71.2527H145.331V67.69H144.74V69.4713Z" fill="#849EAB"/>
<path opacity="0.99" d="M79.1987 34.3534C79.2072 34.3958 79.3 34.4298 79.4098 34.4298C79.5111 34.4298 79.6884 34.4552 79.8066 34.4891C79.9586 34.5316 80.0008 34.5231 79.9586 34.4467C79.9164 34.3874 79.8488 34.3619 79.8066 34.3874C79.7644 34.4128 79.7222 34.4043 79.7222 34.3619C79.7222 34.328 79.604 34.3025 79.452 34.294C79.3085 34.2856 79.1987 34.3195 79.1987 34.3534ZM79.2156 34.7691C79.2156 34.8115 79.3085 34.8454 79.4267 34.8284C79.5364 34.82 79.6378 34.8369 79.6378 34.8709C79.6378 34.9133 79.6969 34.9218 79.7644 34.8963C79.8319 34.8709 79.9079 34.9048 79.9248 34.9557C79.9501 35.0151 79.967 34.9981 79.967 34.9133C79.9755 34.8284 79.9164 34.7691 79.8319 34.7606C79.7475 34.7606 79.5787 34.7351 79.452 34.7182C79.3254 34.6927 79.2241 34.7182 79.2156 34.7691ZM79.4351 35.295C79.452 35.3374 79.4182 35.3628 79.3676 35.3628C79.3085 35.3628 79.2832 35.3798 79.3254 35.4053C79.3591 35.4307 79.4605 35.3968 79.5449 35.3374C79.68 35.2526 79.7475 35.2611 79.9248 35.3798C80.043 35.4646 80.195 35.5071 80.2541 35.4816C80.3132 35.4477 80.2203 35.3798 80.0177 35.312C79.8319 35.2526 79.6209 35.2102 79.5364 35.2186C79.4605 35.2271 79.4182 35.2611 79.4351 35.295Z" fill="#089CD9"/>
<path opacity="0.4" d="M30.7964 54.8305C30.7964 59.2669 30.8048 61.0991 30.8133 58.9021C30.8302 56.7051 30.8302 53.0831 30.8133 50.8437C30.8048 48.6043 30.7964 50.3941 30.7964 54.8305Z" fill="#0177C5"/>
<path opacity="0.21" d="M50.417 60.0046C50.417 61.5909 50.4423 62.8717 50.4592 62.8463C50.4845 62.8208 50.5014 61.54 50.5099 60.0046C50.5099 58.4693 50.493 57.1884 50.4676 57.163C50.4423 57.1375 50.417 58.4184 50.417 60.0046Z" fill="#0179C6"/>
<path opacity="0.8" d="M35.7858 57.7823C35.7689 57.8416 35.7605 59.0122 35.7689 60.3864L35.7774 62.8888L35.8196 57.7568L38.3102 57.7059C36.1151 57.6805 35.8112 57.6974 35.7858 57.7823Z" fill="#0178C5"/>
<path opacity="0.82" d="M82.3815 54.9153C82.3815 59.5383 82.3899 61.4044 82.3984 59.0717C82.4152 56.739 82.4152 52.9558 82.3984 50.674C82.3899 48.3922 82.3815 50.2923 82.3815 54.9153ZM142.663 54.9153C142.663 59.5383 142.671 61.4044 142.68 59.0717C142.697 56.739 142.697 52.9558 142.68 50.674C142.671 48.3922 142.663 50.2923 142.663 54.9153ZM145.111 58.8597C145.111 61.2178 145.12 62.1679 145.128 60.9803C145.145 59.7928 145.145 57.8587 145.128 56.6966C145.12 55.526 145.111 56.5015 145.111 58.8597ZM156.112 57.4346C156.121 58.9869 156.138 60.9464 156.154 61.7862C156.163 62.6259 156.18 61.3536 156.197 58.9615C156.205 56.5779 156.188 54.6184 156.146 54.6184C156.112 54.6184 156.095 55.8908 156.112 57.4346ZM95.8899 58.9869C95.8899 61.3196 95.8984 62.2527 95.9068 61.0651C95.9237 59.8776 95.9237 57.969 95.9068 56.8239C95.8984 55.6787 95.8899 56.6542 95.8899 58.9869ZM123.067 55.8908C123.067 56.4252 123.076 56.6372 123.093 56.3573C123.109 56.0774 123.109 55.6363 123.093 55.3818C123.076 55.1273 123.067 55.3564 123.067 55.8908ZM135.529 55.526C136.297 55.543 137.513 55.543 138.23 55.526C138.948 55.5175 138.323 55.5006 136.837 55.5006C135.351 55.5006 134.76 55.5175 135.529 55.526ZM124.823 56.9681L126.664 56.9935C126.731 57.4431 126.731 57.4346 126.714 57.2056L126.706 56.9511L122.991 56.9426L124.823 56.9681ZM80.8364 67.0284C80.8196 67.724 80.7942 67.9275 80.7098 67.8851C80.6254 67.8427 80.6254 67.8512 80.7098 67.9445C80.7689 68.0124 80.828 68.0463 80.8533 68.0208C80.8787 67.9954 80.8871 67.5628 80.8787 67.0453L80.8533 66.1123L80.8364 67.0284ZM142.477 67.1387C142.477 67.6476 142.494 67.8427 142.511 67.5628C142.528 67.2829 142.528 66.8587 142.511 66.6297C142.494 66.3922 142.477 66.6212 142.477 67.1387ZM128.555 69.4289C128.555 70.4044 128.563 70.7862 128.58 70.2772C128.597 69.7598 128.597 68.9624 128.58 68.4959C128.563 68.0293 128.555 68.445 128.555 69.4289ZM108.377 69.3441C108.377 70.0397 108.385 70.3111 108.402 69.9379C108.419 69.5647 108.419 68.9879 108.402 68.6655C108.385 68.3347 108.377 68.6401 108.377 69.3441ZM111.078 69.6834C111.078 70.5656 111.087 70.9134 111.104 70.4469C111.121 69.9803 111.121 69.2508 111.104 68.8352C111.087 68.411 111.078 68.7928 111.078 69.6834ZM95.1216 69.9803C95.1216 70.7013 95.1301 70.9897 95.147 70.6165C95.1638 70.2433 95.1638 69.6495 95.147 69.3017C95.1301 68.9454 95.1216 69.2508 95.1216 69.9803ZM131.594 70.0227C131.594 70.6759 131.603 70.9219 131.62 70.5741C131.637 70.2178 131.637 69.6834 131.62 69.3865C131.603 69.0812 131.594 69.3696 131.594 70.0227Z" fill="#849EAB"/>
<path opacity="0.2" d="M131.265 55.0423C131.265 59.589 131.274 61.4636 131.282 59.1988C131.299 56.9339 131.299 53.2101 131.282 50.9283C131.274 48.6465 131.265 50.4957 131.265 55.0423ZM141.304 47.917C141.304 48.5447 141.312 48.7992 141.329 48.4683C141.346 48.1375 141.346 47.6286 141.329 47.3232C141.312 47.0178 141.304 47.2893 141.304 47.917ZM134.212 51.7765C134.212 52.5739 134.229 52.9132 134.237 52.54C134.254 52.1667 134.254 51.5136 134.237 51.0979C134.229 50.6823 134.212 50.9792 134.212 51.7765ZM113.941 54.9999C113.941 55.3307 113.958 55.441 113.974 55.2544C113.991 55.0678 113.991 54.7963 113.974 54.6606C113.958 54.5249 113.941 54.6691 113.941 54.9999ZM134.22 58.1978V60.8529L135.487 60.8614L134.262 60.8105L134.22 55.5513V58.1978ZM105.346 59.5975C106.275 59.6144 107.811 59.6144 108.765 59.5975C109.719 59.5805 108.959 59.572 107.077 59.572C105.194 59.572 104.417 59.5805 105.346 59.5975ZM140.62 60.8614L141.27 60.8868L141.321 63.2195L141.312 60.8444L139.97 60.8359L140.62 60.8614ZM121.725 63.4146C121.86 63.4316 122.13 63.4316 122.316 63.4146C122.502 63.3892 122.383 63.3807 122.063 63.3807C121.733 63.3807 121.581 63.3892 121.725 63.4146ZM81.5288 68.6908C81.5288 70.1158 81.5457 70.6927 81.5541 69.9632C81.571 69.2421 81.571 68.08 81.5541 67.376C81.5457 66.6804 81.5288 67.2742 81.5288 68.6908ZM83.0569 69.4118V71.278H83.7746L83.0992 71.2355L83.0485 67.5456L83.0569 69.4118ZM93.0194 69.4966C93.0194 70.5739 93.0279 70.9896 93.0448 70.4297C93.0616 69.8699 93.0616 68.9961 93.0448 68.4787C93.0279 67.9698 93.0194 68.4278 93.0194 69.4966ZM94.4547 69.4542C94.4547 70.4636 94.4631 70.8623 94.48 70.3449C94.4969 69.8359 94.4969 69.0131 94.48 68.5211C94.4631 68.0376 94.4547 68.4533 94.4547 69.4542ZM111.746 69.4372L111.729 71.2355L111.18 71.2949C111.602 71.3204 111.746 71.278 111.771 71.2186C111.796 71.1592 111.805 70.3279 111.788 69.3694L111.762 67.6305L111.746 69.4372ZM129.239 69.9292C129.239 70.6757 129.247 70.9641 129.264 70.5654C129.281 70.1667 129.281 69.556 129.264 69.2082C129.247 68.8604 129.239 69.1828 129.239 69.9292ZM130.927 69.9716C130.927 70.6927 130.936 70.9811 130.953 70.6078C130.97 70.2346 130.97 69.6408 130.953 69.293C130.936 68.9453 130.927 69.2506 130.927 69.9716Z" fill="#849EAB"/>
<path opacity="0.63" d="M79.4942 46.4495L80.7352 46.475L80.7775 63.2704V46.4326L78.2446 46.4241L79.4942 46.4495ZM133.764 46.7973C135.132 46.8058 137.395 46.8058 138.788 46.7973C140.181 46.7803 139.058 46.7719 136.297 46.7719C133.528 46.7719 132.388 46.7803 133.764 46.7973ZM83.42 67.6559L83.6987 67.6814L83.7409 71.2865V67.639C83.1583 67.622 83.1583 67.622 83.42 67.6559ZM109.339 67.6559C109.635 67.6899 109.694 67.7238 109.719 67.9019C109.736 68.0716 109.745 68.0716 109.745 67.8765C109.745 67.6559 109.719 67.639 109.365 67.6305L108.993 67.622L109.339 67.6559ZM145.052 67.6559L145.322 67.6814L145.373 71.2865L145.365 67.639C144.791 67.622 144.791 67.622 145.052 67.6559ZM88.2831 69.6748C88.2831 70.2855 88.3 70.5146 88.3169 70.1837C88.3337 69.8614 88.3337 69.3609 88.3169 69.081C88.3 68.8011 88.2831 69.0725 88.2831 69.6748ZM134.043 69.9293C134.043 70.6757 134.06 70.9641 134.077 70.5655C134.094 70.1668 134.094 69.556 134.077 69.2082C134.06 68.8605 134.043 69.1828 134.043 69.9293Z" fill="#849EAB"/>
<path opacity="0.4" d="M136.035 49.0792C137.031 49.0962 138.627 49.0962 139.581 49.0792C140.535 49.0707 139.716 49.0623 137.766 49.0623C135.816 49.0623 135.039 49.0707 136.035 49.0792ZM134.203 49.7833C134.203 50.1311 134.22 50.2837 134.237 50.1226C134.254 49.9614 134.254 49.673 134.237 49.4864C134.22 49.2998 134.203 49.4355 134.203 49.7833ZM129.062 56.2724C129.062 56.6966 129.07 56.8832 129.087 56.6966C129.104 56.5099 129.104 56.1706 129.087 55.9331C129.07 55.7041 129.062 55.8483 129.062 56.2724ZM136.668 60.87C137.319 60.887 138.34 60.887 138.948 60.87C139.556 60.8615 139.016 60.8445 137.766 60.8445C136.516 60.8445 136.018 60.8615 136.668 60.87ZM137.732 66.1292L138.129 66.1631L137.259 67.1301C138.011 66.4091 138.23 66.1716 138.23 66.1377C138.23 66.0952 138.028 66.0783 137.791 66.0868L137.344 66.1037L137.732 66.1292ZM107.617 67.6985C107.592 67.7578 107.583 67.8766 107.608 67.9699C107.634 68.0971 107.651 68.0802 107.651 67.9105C107.659 67.6985 107.701 67.673 108.022 67.6476L108.385 67.6221C107.803 67.5967 107.642 67.6306 107.617 67.6985ZM144.681 69.4798L144.689 71.2781C145.314 71.2781 145.314 71.2781 145.027 71.2611L144.731 71.2357L144.681 67.673V69.4798ZM97.5531 69.9039L97.5277 71.2442H96.9367L96.8945 68.6994V71.2866C97.4011 71.3205 97.5446 71.2866 97.5784 71.2187C97.5953 71.1593 97.6037 70.5401 97.5953 69.8445L97.57 68.5722L97.5531 69.9039ZM133.367 69.9887L133.376 71.2781H134.093L133.418 71.2357L133.367 68.6909V69.9887Z" fill="#849EAB"/>
<path opacity="0.4" d="M36.1996 50.8604C36.436 50.8774 36.8328 50.8774 37.0861 50.8604C37.3394 50.8434 37.1536 50.835 36.6639 50.835C36.1742 50.835 35.9632 50.8434 36.1996 50.8604ZM50.4679 51.081C50.451 51.1403 50.4425 51.7596 50.451 52.4551L50.4679 53.7275L52.663 53.736L50.5101 53.6851V51.0555L52.663 51.0046C50.7634 50.9792 50.5016 50.9961 50.4679 51.081Z" fill="#0177C5"/>
<path opacity="0.8" d="M35.769 52.3281C35.769 53.1424 35.7859 53.4732 35.7944 53.0491C35.8113 52.6334 35.8113 51.9633 35.7944 51.5646C35.7859 51.166 35.769 51.5138 35.769 52.3281Z" fill="#0178C5"/>
<path opacity="0.82" d="M92.3354 69.4627C92.3354 69.9547 92.3439 70.1413 92.3608 69.8868C92.3777 69.6324 92.3777 69.2252 92.3608 68.9962C92.3439 68.7587 92.3354 68.9707 92.3354 69.4627Z" fill="#849EAB"/>
<path opacity="0.2" d="M105.599 58.1556C106.393 58.1725 107.659 58.1725 108.428 58.1556C109.196 58.1471 108.546 58.1301 106.992 58.1301C105.439 58.1301 104.806 58.1471 105.599 58.1556Z" fill="#849EAB"/>
<path d="M67.691 52.9303C67.556 52.9896 67.3196 53.1084 67.1845 53.2102C67.0494 53.312 66.8468 53.5665 66.7455 53.7785C66.6188 54.016 66.5513 54.3044 66.5513 54.5759C66.5513 54.8473 66.6188 55.1357 66.7455 55.3817C66.8637 55.6277 67.0578 55.8398 67.3111 55.9925C67.5222 56.1282 67.8261 56.2554 67.9865 56.2894C68.147 56.3148 68.4509 56.2978 68.662 56.2385C68.873 56.1791 69.1685 56.0349 69.3289 55.9076C69.4894 55.7804 69.692 55.5259 69.7764 55.3393C69.8608 55.1442 69.9284 54.7964 69.9284 54.5335C69.9284 54.2026 69.8693 53.9651 69.7342 53.7276C69.6329 53.5495 69.3965 53.2865 69.2107 53.1593C68.9659 52.9812 68.738 52.9048 68.4087 52.8794C68.1554 52.8539 67.8261 52.8794 67.691 52.9303Z" fill="#0CB6E7"/>
</g>
<defs>
<clipPath id="clip0_420_2157">
<rect width="135" height="90" fill="white" transform="translate(24 10)"/>
</clipPath>
</defs>
</svg>
