<svg width="183" height="110" viewBox="0 0 183 110" fill="none" xmlns="http://www.w3.org/2000/svg">
<g clip-path="url(#clip0_376_1709)">
<path d="M32.0024 35.1823L43.4497 36.9621C44.0051 37.0483 44.5723 37.2612 45.0342 37.601C45.4439 37.9027 45.7722 38.3046 45.939 38.8081L55.5441 67.778C55.6297 68.0361 55.6474 68.3545 55.6099 68.6646C55.5784 68.9272 55.5073 69.1878 55.4047 69.4045C55.2656 69.7475 54.8936 70.6318 54.4734 71.355C53.9203 72.3074 52.8412 72.0593 52.7191 72.0277C51.4262 71.835 50.1329 71.6439 48.8398 71.453C47.2927 71.2247 45.7456 70.9959 44.199 70.7646C43.9348 70.7251 43.693 70.6926 43.4492 70.66C42.9029 70.5869 42.3448 70.5122 41.8329 70.406H41.8311C40.8769 70.1996 40.1362 69.8142 39.5579 69.2511C38.9818 68.6898 38.5705 67.9555 38.273 67.0487C37.2786 64.0201 36.2853 60.9911 35.2948 57.9613C34.3044 54.9316 33.3164 51.9007 32.3327 48.8687C32.0147 47.8875 31.6996 46.9054 31.3846 45.9237C30.902 44.4193 30.4195 42.9148 29.9035 41.348C29.8595 41.2147 29.8027 41.0554 29.7442 40.8908C29.5104 40.2335 29.2466 39.4929 29.2403 38.8419C29.2351 38.3153 29.5903 37.3747 29.8513 36.684L29.8976 36.5617C29.9274 36.4477 29.9682 36.3365 30.02 36.2291L30.0218 36.2241L30.0225 36.2244C30.0912 36.0825 30.1791 35.9475 30.2851 35.8224C30.4984 35.5707 30.7647 35.3852 31.0598 35.2754C31.3542 35.1657 31.6769 35.1315 32.0031 35.1821L32.0024 35.1823ZM39.9635 37.5529C40.1142 37.5729 40.2363 37.7063 40.2363 37.8511C40.2363 37.9959 40.1142 38.097 39.9635 38.077C39.8128 38.057 39.6907 37.9233 39.6907 37.7787C39.6907 37.6341 39.8128 37.5329 39.9635 37.5529ZM37.0323 37.5638C36.9558 37.5527 36.8872 37.4714 36.8795 37.3826C36.8718 37.2937 36.9277 37.2308 37.0044 37.2419L39.3084 37.5785C39.3852 37.5897 39.4535 37.6709 39.4612 37.7597C39.4689 37.8486 39.4131 37.9115 39.3364 37.9004L37.0323 37.5638ZM32.7844 48.6828C32.7446 48.5623 32.8177 48.4102 32.9478 48.3431C33.0778 48.2761 33.2156 48.3192 33.2553 48.4398L34.4522 52.0608C34.4919 52.1813 34.4188 52.3334 34.2888 52.4006C34.1587 52.4675 34.0209 52.4244 33.9812 52.3039L32.7844 48.6828ZM31.2368 43.966C31.1971 43.8454 31.2702 43.6934 31.4002 43.6262C31.5303 43.5592 31.6681 43.6024 31.7078 43.7229L32.9047 47.3439C32.9444 47.4644 32.8713 47.6165 32.7412 47.6837C32.6112 47.7506 32.4734 47.7075 32.4337 47.587L31.2368 43.966ZM31.8889 35.9129L34.1966 36.2718H34.1971L34.393 36.3022C34.5553 36.3444 34.7727 36.445 34.8585 36.684C34.863 36.6967 34.8692 36.7094 34.8764 36.7217C34.9216 36.8263 34.9334 36.9414 34.9459 37.0642C34.964 37.2424 34.9847 37.4439 35.1965 37.6441C35.4832 37.8752 36.1278 37.9453 36.6258 37.9994C36.7429 38.0121 36.8523 38.0241 36.9515 38.0375C37.4719 38.1081 37.9547 38.1768 38.4375 38.2456C39.2832 38.3662 40.1297 38.4867 40.9854 38.5913C41.0684 38.6013 41.1411 38.6029 41.204 38.597C41.3299 38.5852 41.4209 38.5448 41.4813 38.4871C41.5378 38.4331 41.5698 38.36 41.5796 38.279C41.5839 38.2431 41.5844 38.2073 41.581 38.1721C41.5776 38.1339 41.5683 38.0817 41.5594 38.0318C41.5281 37.8725 41.4566 37.4818 41.7069 37.4678C41.9607 37.4537 42.4909 37.5599 42.7647 37.604C42.9451 37.6321 43.1253 37.66 43.3058 37.6882L43.3358 37.6929C43.8431 37.7717 44.2353 37.9424 44.5299 38.1485C44.9237 38.424 45.1455 38.7656 45.2367 39.041L54.8418 68.0109C54.897 68.1773 54.9004 68.3786 54.8759 68.569C54.845 68.8096 54.7685 69.0414 54.6972 69.1621L54.6804 69.1907C54.5465 69.4225 54.2857 69.8739 53.3297 69.7434L44.0952 68.4823C44.0659 68.4785 44.0269 68.4746 43.9774 68.4701C43.2926 68.4049 40.8004 68.1679 39.9699 65.653L30.636 37.3901C30.5727 37.1981 30.56 37.0031 30.5963 36.8172C30.6324 36.6311 30.7173 36.455 30.8482 36.3004C30.979 36.1461 31.1388 36.0337 31.3165 35.9674C31.494 35.9014 31.6883 35.8816 31.8882 35.9127L31.8889 35.9129ZM42.0304 37.7992C41.8259 37.7783 41.8331 37.8332 41.862 37.9791C41.8706 38.0289 41.8799 38.0804 41.8858 38.1435C41.8915 38.203 41.891 38.2608 41.8844 38.3158C41.8663 38.4651 41.8041 38.6027 41.6926 38.7091C41.5851 38.8117 41.4332 38.8825 41.233 38.9014C41.1461 38.9098 41.051 38.9082 40.9486 38.8957C40.1051 38.7926 39.2497 38.6708 38.3948 38.5489C37.8873 38.4767 37.3798 38.4043 36.9111 38.3407C36.8194 38.3285 36.7102 38.3164 36.5938 38.3037C36.0531 38.2449 35.3522 38.1689 34.9976 37.8761L34.9899 37.8695C34.6928 37.5908 34.6658 37.3273 34.6422 37.0942C34.6243 36.9187 34.5798 36.7037 34.3501 36.6048L31.8428 36.2148C31.6953 36.1919 31.5532 36.206 31.4245 36.2539C31.2963 36.3018 31.1798 36.3842 31.0831 36.4981C30.9867 36.6118 30.9245 36.7403 30.8984 36.8747C30.8723 37.0095 30.8816 37.152 30.9286 37.2941L40.2622 65.557C41.0303 67.8824 43.3655 68.1046 44.0072 68.1655C44.0639 68.1709 44.1086 68.1752 44.137 68.1791L53.3714 69.4402C54.1257 69.5432 54.3182 69.2091 54.4167 69.038L54.4346 69.0062C54.4889 68.9145 54.5483 68.7295 54.5735 68.5307C54.5928 68.3797 54.5919 68.2251 54.5527 68.1067L44.9475 39.1367C44.8733 38.9127 44.6883 38.6317 44.3558 38.3991C44.0957 38.217 43.7461 38.0659 43.2899 37.9948L42.0308 37.7989L42.0304 37.7992ZM54.7156 70.2192C54.495 70.3592 54.2546 70.4405 54.0072 70.4786C53.7519 70.5179 53.4883 70.5113 53.2303 70.4761L43.9958 69.2152C43.9016 69.2023 43.8081 69.1925 43.7148 69.1825C43.5791 69.1682 43.4429 69.1537 43.3028 69.1306C43.0677 69.0918 42.8339 69.0409 42.6037 68.9765C42.3829 68.9147 42.1654 68.8407 41.9534 68.7531C41.297 68.4823 40.7355 68.1008 40.2822 67.6164C39.8323 67.1359 39.4903 66.5564 39.2687 65.885L29.9349 37.6221C29.9174 37.5695 29.9024 37.5163 29.8897 37.4632C29.7054 37.9828 29.5426 38.5164 29.546 38.8399C29.5519 39.4368 29.8068 40.1534 30.0334 40.7894C30.0881 40.9431 30.1412 41.092 30.1945 41.252L30.1952 41.2527C30.6823 42.7319 31.1794 44.2815 31.6762 45.8306C31.9911 46.8123 32.3061 47.7942 32.6241 48.7748C33.6078 51.8068 34.5959 54.8374 35.5864 57.8674C36.5767 60.8971 37.5702 63.9261 38.5646 66.9547C38.8472 67.815 39.2335 68.5082 39.7717 69.0325C40.3081 69.5548 41.0001 69.9134 41.8962 70.1073C42.3967 70.2112 42.949 70.2852 43.4892 70.3576C43.7559 70.3933 44.0199 70.4287 44.2437 70.4623C45.7901 70.6936 47.3374 70.9221 48.8845 71.1507C50.1801 71.342 51.4759 71.5334 52.7715 71.7265L52.7908 71.7309C52.7936 71.7315 53.7435 72.0046 54.2092 71.2027C54.3926 70.8867 54.5672 70.5385 54.7161 70.2201L54.7156 70.2192ZM30.3032 36.3469C30.2717 36.4355 30.2331 36.5392 30.1902 36.6527C30.1834 36.6795 30.1775 36.7067 30.172 36.7337C30.1219 36.9909 30.1387 37.2619 30.2258 37.5259L39.5597 65.7887C39.7679 66.4191 40.0868 66.9609 40.5049 67.4076C40.9275 67.859 41.4532 68.2156 42.0694 68.4698C42.2703 68.5527 42.4762 68.6228 42.6852 68.6811C42.904 68.7424 43.1272 68.7908 43.3519 68.828C43.4844 68.85 43.6154 68.8639 43.7459 68.8777C43.8426 68.8877 43.9393 68.8981 44.0364 68.9113L53.2709 70.1722C53.5004 70.2035 53.7346 70.2096 53.9602 70.1749C54.1804 70.1409 54.3913 70.0682 54.5799 69.942C54.6936 69.866 54.7805 69.7863 54.8557 69.6976C54.9324 69.6068 54.9991 69.5028 55.0708 69.3818C55.089 69.351 55.1063 69.3187 55.1226 69.2849C55.1573 69.1993 55.1764 69.1501 55.1766 69.1494L55.1803 69.1508C55.2406 68.9917 55.2838 68.8112 55.3058 68.6283C55.3382 68.3582 55.3248 68.0865 55.2542 67.8736L45.6491 38.9036C45.5041 38.4662 45.2154 38.114 44.8533 37.8477C44.4318 37.5374 43.9125 37.3432 43.4032 37.2639L31.9559 35.4842C31.6824 35.4415 31.412 35.4701 31.166 35.5618C30.9202 35.6533 30.6975 35.8088 30.5184 36.0201C30.4319 36.1222 30.36 36.2319 30.303 36.3469H30.3032Z" fill="#D9D9D9"/>
<path d="M118.064 42.9739H115.192C114.929 42.9739 114.717 43.187 114.717 43.4496V47.5005V51.5396V54.9868C114.717 55.2492 114.929 55.4623 115.192 55.4623H118.064C118.327 55.4623 118.54 55.2494 118.54 54.9868V51.3989V47.4547V43.4496C118.54 43.1868 118.327 42.9739 118.064 42.9739Z" fill="#D9D9D9"/>
<path d="M119.795 47.2217V52.6728C120.375 53.4016 120.717 54.3913 120.717 55.5904C120.717 58.2699 119.015 59.9087 116.745 59.9087C114.475 59.9087 112.773 58.2699 112.773 55.5904C112.773 54.5624 113.024 53.6888 113.461 53.0006V47.2986C110.042 48.4775 107.729 51.5254 107.729 55.5902C107.729 60.8543 111.607 64.4163 116.745 64.4163C121.883 64.4163 125.76 60.8543 125.76 55.5902C125.76 51.4333 123.341 48.34 119.795 47.2214L119.795 47.2217Z" fill="white"/>
<path fill-rule="evenodd" clip-rule="evenodd" d="M46.644 63.747H51.7202C51.788 63.747 51.8436 63.6916 51.8436 63.6235V55.2661C51.8436 55.1982 51.899 55.1426 51.9671 55.1426H54.3245C54.3706 55.1426 54.4099 55.1658 54.4324 55.2059L59.1458 63.6834C59.1683 63.7236 59.2076 63.7467 59.2536 63.7467H65.3719C65.4177 63.7467 65.4568 63.7238 65.4792 63.6841C65.5017 63.6444 65.501 63.599 65.4777 63.5599L60.182 54.7567C60.1627 54.7247 60.1588 54.6898 60.1704 54.6544C60.1822 54.619 60.206 54.5933 60.2405 54.579C62.9852 53.4487 64.9302 50.7415 64.9302 47.6012V46.7076C64.9302 42.7652 61.7046 39.5396 57.7621 39.5396H51.8434H46.644C46.5761 39.5396 46.5205 39.5949 46.5205 39.663V55.1424V63.6233C46.5205 63.6911 46.5759 63.7467 46.644 63.7467V63.747ZM51.8434 49.8227V44.7394C51.8434 44.6716 51.8988 44.6162 51.9669 44.6162H56.7814C58.247 44.6162 59.4463 45.8153 59.4463 47.2812C59.4463 48.747 58.2472 49.9461 56.7814 49.9461H51.9669C51.899 49.9461 51.8434 49.8907 51.8434 49.8227Z" fill="white"/>
<path fill-rule="evenodd" clip-rule="evenodd" d="M72.7191 46.8745H73.8589C78.4923 46.8745 82.2831 50.6653 82.2831 55.2986V55.8913C82.2831 60.5246 78.4923 64.3154 73.8589 64.3154H72.7191C68.0857 64.3154 64.2949 60.5246 64.2949 55.8913V55.2986C64.2949 50.6653 68.0857 46.8745 72.7191 46.8745ZM73.289 51.2666C75.4637 51.2666 77.2428 53.0456 77.2428 55.2203V55.9698C77.2428 58.1445 75.4637 59.9236 73.289 59.9236C71.1143 59.9236 69.3352 58.1445 69.3352 55.9698V55.2203C69.3352 53.0456 71.1143 51.2666 73.289 51.2666Z" fill="white"/>
<path d="M87.8394 38.7903H83.5477C83.3857 38.7903 83.2544 38.9216 83.2544 39.0835V63.5513C83.2544 63.7133 83.3857 63.8446 83.5477 63.8446H87.8394C88.0014 63.8446 88.1327 63.7133 88.1327 63.5513V39.0835C88.1327 38.9216 88.0014 38.7903 87.8394 38.7903Z" fill="white"/>
<path fill-rule="evenodd" clip-rule="evenodd" d="M102.306 38.7903H106.733C106.834 38.7903 106.917 38.8734 106.917 38.975V55.4073V60.0347V63.6028C106.917 63.7047 106.834 63.7876 106.733 63.7876H103.103C103.001 63.7876 102.918 63.7047 102.918 63.6028V61.2969C102.918 61.213 102.864 61.1419 102.783 61.1192C102.703 61.0965 102.62 61.129 102.576 61.2005C101.531 62.9056 99.7723 64.2493 96.8643 64.291C96.8634 64.291 96.8625 64.291 96.8615 64.291C92.5648 64.2904 89.082 60.673 89.082 55.5512C89.082 50.4289 92.7017 46.8113 96.8629 46.8113C99.1298 46.8347 100.711 47.7097 101.799 48.9399C101.85 48.9987 101.929 49.018 102.002 48.9903C102.076 48.9626 102.122 48.8959 102.122 48.8176V38.9753C102.122 38.8736 102.205 38.7905 102.307 38.7905L102.306 38.7903ZM97.843 51.3927H98.39C100.392 51.3927 102.03 53.0306 102.03 55.0323V56.1509C102.03 58.1526 100.392 59.7905 98.39 59.7905H97.843C95.8413 59.7905 94.2034 58.1526 94.2034 56.1509V55.0323C94.2034 53.0306 95.8413 51.3927 97.843 51.3927Z" fill="white"/>
<path fill-rule="evenodd" clip-rule="evenodd" d="M126.778 47.3304H130.493C130.588 47.3304 130.666 47.4078 130.666 47.5027V50.3942C131.263 48.9384 132.787 46.7451 136.549 46.7623C142.176 46.7882 142.645 51.8122 142.645 51.8122L141.322 53.2385L137.964 55.0537C137.964 55.0537 138.418 51.2418 135.124 51.2159C131.831 51.19 131.432 54.0425 131.432 54.0425V63.5184C131.432 63.631 131.34 63.7232 131.228 63.7232H126.811C126.699 63.7232 126.606 63.631 126.606 63.5184V59.5059V51.5804V47.5027C126.606 47.4078 126.684 47.3304 126.779 47.3304H126.778Z" fill="white"/>
<path d="M142.447 51.3755H138.162C138.053 51.3755 137.964 51.4475 137.964 51.5364V63.5623C137.964 63.6512 138.053 63.7232 138.162 63.7232H142.447C142.557 63.7232 142.646 63.6512 142.646 63.5623V51.5364C142.646 51.4475 142.557 51.3755 142.447 51.3755Z" fill="white"/>
<path fill-rule="evenodd" clip-rule="evenodd" d="M132.291 64.3262H132.663C135.098 64.3262 136.942 66.1629 137.008 68.5192H134.574C134.482 67.281 133.452 66.4845 132.292 66.4845H132.108C130.428 66.4845 129.12 67.7937 128.953 69.4584L128.939 69.6016C128.791 71.0845 129.762 72.682 131.26 72.682H131.503C132.751 72.682 133.814 71.8574 134.262 70.7336H136.752C136.118 73.0472 133.911 74.821 131.487 74.821H131.24C128.394 74.821 126.299 72.4925 126.584 69.6464L126.598 69.5009C126.883 66.6548 129.445 64.3262 132.291 64.3262H132.291Z" fill="#D9D9D9"/>
<path fill-rule="evenodd" clip-rule="evenodd" d="M142.491 64.4305C144.949 64.4453 146.817 66.1848 146.921 68.5407C146.93 69.2497 146.878 69.9264 146.566 70.4607H139.689C139.734 71.621 140.315 72.3739 141.538 72.3739H141.768C142.948 72.3739 143.569 72.116 143.893 71.35L146.529 71.3325C146.402 72.9318 144.209 74.6153 141.777 74.6153H141.544C138.722 74.6153 137.06 73.2271 137.057 69.7137C137.054 66.7666 139.725 64.4139 142.491 64.4305H142.491ZM144.057 68.3085C143.992 67.1858 143.111 66.5771 142.477 66.5786L142.247 66.5793C141.16 66.5793 140.353 67.2743 140.02 68.3806L144.057 68.3085H144.057Z" fill="#D9D9D9"/>
<path fill-rule="evenodd" clip-rule="evenodd" d="M147.466 74.6642H149.344C149.376 74.6642 149.402 74.6406 149.406 74.609L150.527 64.5849C150.529 64.5667 150.524 64.5504 150.511 64.5368C150.499 64.5232 150.483 64.5161 150.465 64.5161H148.587C148.556 64.5161 148.529 64.5397 148.526 64.5713L147.405 74.5954C147.403 74.6135 147.408 74.6299 147.42 74.6435C147.432 74.6571 147.448 74.6642 147.466 74.6642Z" fill="#D9D9D9"/>
<path fill-rule="evenodd" clip-rule="evenodd" d="M150.684 74.6642H152.562C152.594 74.6642 152.62 74.6406 152.624 74.609L153.745 64.5849C153.747 64.5667 153.741 64.5504 153.729 64.5368C153.717 64.5232 153.701 64.5161 153.683 64.5161H151.805C151.773 64.5161 151.747 64.5397 151.744 64.5713L150.623 74.5954C150.62 74.6135 150.626 74.6299 150.638 74.6435C150.65 74.6571 150.666 74.6642 150.684 74.6642Z" fill="#D9D9D9"/>
</g>
<defs>
<clipPath id="clip0_376_1709">
<rect width="135" height="50.1597" fill="white" transform="translate(24 29.9202)"/>
</clipPath>
</defs>
</svg>
