<svg width="183" height="110" viewBox="0 0 183 110" fill="none" xmlns="http://www.w3.org/2000/svg">
<rect width="183" height="110" fill="#49007A"/>
<path fill-rule="evenodd" clip-rule="evenodd" d="M151.134 59.3038C151.354 59.2759 151.578 59.2616 151.806 59.2616H153.683C155.199 59.2616 156.641 59.9076 157.65 61.0382C158.653 62.1619 159.135 63.6725 158.967 65.1694L157.846 75.1935C157.546 77.8834 155.269 79.9194 152.562 79.9194H150.684C150.459 79.9194 150.236 79.9051 150.015 79.8772C149.795 79.9051 149.571 79.9194 149.344 79.9194H147.466C146.62 79.9194 145.796 79.7181 145.058 79.3431C143.986 79.6876 142.87 79.8706 141.776 79.8706H141.543C139.64 79.8706 137.979 79.4702 136.592 78.7373C135.055 79.5916 133.307 80.0762 131.487 80.0762H131.241C126.411 79.8538 122.164 76.8043 121.441 71.8514C121.354 71.254 121.538 69.3681 121.038 69.1699C120.489 69.0709 118.466 69.6028 117.598 69.662C114.961 69.8195 113.383 69.3839 110.942 68.508C109.114 67.8525 109.128 68.7879 107.285 68.9733C105.732 69.1295 102.917 69.1813 101.427 68.7795C101.231 68.7266 100.235 69.0955 99.9617 69.1636C97.1463 69.8658 94.4112 69.5989 91.7471 68.4799C90.6706 68.0278 91.2323 68.0988 90.1749 68.5643C88.2789 69.3508 86.1868 69.1107 84.1649 69.1102C82.2127 69.11 82.2808 68.9556 80.5814 68.2348C79.8916 67.9422 79.3418 68.393 78.6446 68.6631C75.2244 69.9873 71.0499 69.8971 67.6406 68.5891C67.3515 68.5223 66.9851 68.777 66.5977 68.8458C64.7746 69.1699 63.2904 68.8739 61.546 68.9699C60.5074 69.0271 60.7786 69.5381 60.5464 70.5C59.7372 73.8529 57.3678 77.1026 53.6519 77.2846C51.675 77.3815 48.9058 76.7678 46.8666 76.4766C44.9176 76.1981 42.6501 75.9457 40.7491 75.5575C36.4254 74.6235 34.3513 71.9497 33.0243 67.9115C30.196 59.3013 27.4048 50.675 24.5882 42.0598C23.5913 38.8467 23.9155 37.2839 25.1539 34.2231C26.3873 31.1744 29.6047 29.5792 32.8042 29.9866C35.4639 30.3252 38.1704 30.8334 40.8467 31.2148C43.6513 31.6145 45.8346 31.7459 48.2047 33.4569C49.7817 34.5952 50.1208 34.3146 52.0275 34.2874C53.9368 34.2601 55.8525 34.284 57.7625 34.2851C62.4306 34.3754 66.444 36.6904 68.6634 40.8287C69.5788 42.4582 69.8564 41.8753 71.6114 41.6821C73.7373 41.4751 74.7714 41.6036 76.8421 42.0112C78.0957 42.2577 78.0615 41.8346 78.0388 40.6712C77.9988 38.6202 77.8821 37.197 79.3146 35.4929C81.2882 33.1445 83.8794 33.5397 86.6131 33.5338C88.6475 33.5295 90.1147 33.5706 91.6908 35.0918C93.5462 37.1523 93.3455 38.0541 93.3501 40.6435C93.3532 42.3887 93.9935 42.0323 95.4423 41.7402C97.0725 41.4116 96.9268 41.0611 96.9136 39.4076C96.9059 38.4329 96.9082 38.0119 97.1964 37.0701C97.4947 36.2053 97.9543 35.6209 98.6039 34.991C99.651 34.0173 100.888 33.5672 102.306 33.5352H106.733C109.304 33.6888 111.088 34.9027 111.888 37.3927C112.317 38.7259 112.663 38.2563 113.9 37.9308C115.168 37.5972 116.929 37.6728 118.263 37.7232C123.669 38.2161 123.088 42.6754 124.23 42.6495C124.468 42.644 125.572 42.2446 126.05 42.1678C127.376 41.9552 130.256 42.0219 131.724 42.2044C132.312 42.2775 133.291 41.8841 133.922 41.7566C134.815 41.5759 135.664 41.511 136.574 41.5073C143.531 41.6739 148.357 46.6325 147.982 53.6677C147.959 54.1078 147.791 59.1227 147.942 59.2528C147.994 59.2977 150.647 59.2448 151.134 59.3029L151.134 59.3038Z" fill="#FEFEFE"/>
<path d="M32.0034 35.183L43.4506 36.9628C44.006 37.049 44.5732 37.2619 45.0351 37.6017C45.4448 37.9034 45.773 38.3054 45.9399 38.8088L55.5449 67.7785C55.6305 68.0366 55.6482 68.3551 55.6107 68.6651C55.5792 68.9277 55.5081 69.1883 55.4056 69.4051C55.2664 69.748 54.8944 70.6323 54.4743 71.3555C53.9211 72.3079 52.8421 72.0598 52.7199 72.0283C51.4271 71.8355 50.1337 71.6444 48.8406 71.4535C47.2936 71.2252 45.7465 70.9964 44.1998 70.7651C43.9356 70.7256 43.6939 70.6932 43.4501 70.6605C42.9038 70.5874 42.3457 70.5127 41.8338 70.4065H41.832C40.8778 70.2002 40.1372 69.8148 39.5588 69.2516C38.9827 68.6903 38.5715 67.956 38.2739 67.0492C37.2795 64.0207 36.2862 60.9916 35.2957 57.9619C34.3054 54.9322 33.3174 51.9014 32.3336 48.8694C32.0156 47.8882 31.7006 46.906 31.3855 45.9243C30.903 44.4199 30.4204 42.9155 29.9045 41.3487C29.8605 41.2154 29.8037 41.0561 29.7452 40.8915C29.5114 40.2342 29.2476 39.4936 29.2413 38.8426C29.236 38.316 29.5913 37.3754 29.8523 36.6847L29.8986 36.5624C29.9283 36.4484 29.9692 36.3372 30.0209 36.2299L30.0228 36.2249L30.0234 36.2251C30.0922 36.0832 30.1801 35.9482 30.2861 35.8231C30.4994 35.5714 30.7657 35.386 31.0607 35.2761C31.3551 35.1665 31.6779 35.1322 32.0041 35.1828L32.0034 35.183ZM39.9644 37.5536C40.1151 37.5736 40.2372 37.707 40.2372 37.8518C40.2372 37.9967 40.1151 38.0977 39.9644 38.0777C39.8137 38.0577 39.6916 37.924 39.6916 37.7794C39.6916 37.6349 39.8137 37.5336 39.9644 37.5536ZM37.0332 37.5645C36.9567 37.5534 36.8882 37.4721 36.8805 37.3834C36.8727 37.2944 36.9286 37.2315 37.0053 37.2426L39.3094 37.5792C39.3861 37.5904 39.4544 37.6716 39.4621 37.7604C39.4698 37.8494 39.414 37.9122 39.3373 37.9011L37.0332 37.5645ZM32.7853 48.6835C32.7456 48.563 32.8187 48.4109 32.9487 48.3437C33.0788 48.2768 33.2166 48.3199 33.2563 48.4404L34.4532 52.0614C34.4929 52.1819 34.4198 52.334 34.2897 52.4012C34.1597 52.4681 34.0219 52.425 33.9822 52.3045L32.7853 48.6835ZM31.2378 43.9667C31.1981 43.8461 31.2711 43.6941 31.4012 43.6269C31.5313 43.5599 31.669 43.603 31.7088 43.7236L32.9056 47.3445C32.9453 47.4651 32.8722 47.6172 32.7422 47.6843C32.6121 47.7513 32.4744 47.7082 32.4346 47.5876L31.2378 43.9667ZM31.8899 35.9137L34.1976 36.2725H34.198L34.3939 36.3029C34.5562 36.3452 34.7736 36.4457 34.8594 36.6847C34.864 36.6974 34.8701 36.7101 34.8774 36.7224C34.9225 36.827 34.9343 36.9421 34.9468 37.0649C34.965 37.2431 34.9856 37.4446 35.1974 37.6448C35.4841 37.8759 36.1287 37.946 36.6267 38.0001C36.7438 38.0128 36.8532 38.0248 36.9524 38.0382C37.4729 38.1088 37.9557 38.1776 38.4384 38.2463C39.2842 38.3669 40.1306 38.4874 40.9863 38.592C41.0694 38.602 41.142 38.6036 41.2049 38.5977C41.3308 38.5859 41.4219 38.5455 41.4822 38.4878C41.5387 38.4338 41.5707 38.3607 41.5805 38.2797C41.5848 38.2438 41.5853 38.208 41.5819 38.1728C41.5785 38.1347 41.5692 38.0825 41.5603 38.0325C41.529 37.8732 41.4575 37.4826 41.7078 37.4685C41.9616 37.4544 42.4918 37.5606 42.7656 37.6047C42.946 37.6328 43.1262 37.6607 43.3067 37.6889L43.3366 37.6936C43.8439 37.7724 44.2362 37.9431 44.5308 38.1492C44.9246 38.4247 45.1463 38.7663 45.2376 39.0417L54.8426 68.0114C54.8978 68.1778 54.9012 68.3791 54.8767 68.5695C54.8458 68.8101 54.7693 69.0419 54.6981 69.1626L54.6813 69.1912C54.5473 69.423 54.2865 69.8745 53.3305 69.7439L44.0961 68.4828C44.0668 68.479 44.0278 68.4751 43.9783 68.4706C43.2935 68.4054 40.8013 68.1685 39.9708 65.6536L30.637 37.3909C30.5736 37.1988 30.5609 37.0039 30.5972 36.818C30.6333 36.6318 30.7182 36.4557 30.8492 36.3011C30.9799 36.1468 31.1397 36.0344 31.3174 35.9682C31.4949 35.9021 31.6892 35.8824 31.8892 35.9135L31.8899 35.9137ZM42.0313 37.7999C41.8268 37.779 41.834 37.8339 41.8629 37.9799C41.8715 38.0296 41.8808 38.0811 41.8867 38.1442C41.8924 38.2037 41.8919 38.2615 41.8853 38.3165C41.8672 38.4658 41.805 38.6034 41.6935 38.7098C41.586 38.8124 41.4341 38.8832 41.2339 38.9021C41.147 38.9105 41.0519 38.9089 40.9495 38.8964C40.1061 38.7934 39.2506 38.6715 38.3958 38.5496C37.8882 38.4774 37.3807 38.405 36.912 38.3414C36.8203 38.3292 36.7111 38.3172 36.5947 38.3044C36.054 38.2457 35.3531 38.1696 34.9986 37.8768L34.9909 37.8702C34.6937 37.5915 34.6667 37.328 34.6431 37.0949C34.6252 36.9194 34.5807 36.7045 34.351 36.6055L31.8438 36.2156C31.6963 36.1926 31.5542 36.2067 31.4255 36.2546C31.2972 36.3025 31.1808 36.3849 31.0841 36.4988C30.9876 36.6125 30.9254 36.741 30.8993 36.8754C30.8732 37.0102 30.8826 37.1528 30.9295 37.2948L40.2631 65.5575C41.0312 67.8829 43.3664 68.1052 44.008 68.166C44.0648 68.1714 44.1095 68.1757 44.1379 68.1796L53.3723 69.4407C54.1265 69.5437 54.319 69.2096 54.4175 69.0385L54.4354 69.0067C54.4897 68.915 54.5492 68.73 54.5744 68.5312C54.5937 68.3803 54.5927 68.2257 54.5535 68.1072L44.9484 39.1375C44.8742 38.9134 44.6892 38.6324 44.3567 38.3998C44.0966 38.2177 43.747 38.0666 43.2908 37.9955L42.0317 37.7996L42.0313 37.7999ZM54.7164 70.2197C54.4958 70.3597 54.2555 70.441 54.008 70.4791C53.7527 70.5184 53.4892 70.5118 53.2311 70.4766L43.9967 69.2158C43.9025 69.2028 43.809 69.1931 43.7157 69.1831C43.58 69.1688 43.4438 69.1542 43.3037 69.1311C43.0686 69.0923 42.8348 69.0414 42.6046 68.977C42.3838 68.9152 42.1663 68.8412 41.9543 68.7536C41.2979 68.4828 40.7364 68.1013 40.2831 67.6169C39.8332 67.1364 39.4912 66.5569 39.2696 65.8855L29.9358 37.6228C29.9183 37.5702 29.9034 37.5171 29.8907 37.4639C29.7063 37.9835 29.5436 38.5171 29.547 38.8406C29.5529 39.4375 29.8078 40.1541 30.0343 40.7901C30.089 40.9438 30.1421 41.0926 30.1955 41.2527L30.1962 41.2534C30.6833 42.7326 31.1803 44.2822 31.6772 45.8313C31.992 46.813 32.3071 47.7949 32.6251 48.7754C33.6088 51.8074 34.5968 54.838 35.5874 57.868C36.5777 60.8977 37.5712 63.9267 38.5656 66.9553C38.8481 67.8155 39.2345 68.5087 39.7726 69.033C40.309 69.5553 41.001 69.9139 41.8971 70.1078C42.3976 70.2117 42.9499 70.2857 43.4901 70.3581C43.7568 70.3938 44.0208 70.4292 44.2446 70.4628C45.791 70.6941 47.3383 70.9226 48.8854 71.1512C50.181 71.3425 51.4768 71.5339 52.7724 71.7271L52.7917 71.7314C52.7944 71.732 53.7443 72.0051 54.2101 71.2032C54.3935 70.8872 54.568 70.539 54.7169 70.2206L54.7164 70.2197ZM30.3042 36.3477C30.2727 36.4362 30.2341 36.5399 30.1912 36.6534C30.1844 36.6802 30.1785 36.7074 30.173 36.7344C30.1229 36.9916 30.1396 37.2626 30.2268 37.5266L39.5606 65.7893C39.7688 66.4196 40.0877 66.9614 40.5058 67.4081C40.9284 67.8596 41.4541 68.2161 42.0703 68.4704C42.2712 68.5532 42.4771 68.6233 42.6861 68.6817C42.9049 68.743 43.128 68.7913 43.3528 68.8285C43.4853 68.8506 43.6163 68.8644 43.7468 68.8782C43.8435 68.8882 43.9402 68.8987 44.0373 68.9118L53.2717 70.1727C53.5012 70.204 53.7354 70.2102 53.9611 70.1754C54.1812 70.1414 54.3921 70.0687 54.5807 69.9425C54.6944 69.8665 54.7814 69.7868 54.8565 69.6981C54.9332 69.6073 54.9999 69.5033 55.0717 69.3824C55.0898 69.3515 55.1071 69.3193 55.1234 69.2854C55.1581 69.1999 55.1772 69.1506 55.1774 69.1499L55.1811 69.1513C55.2414 68.9922 55.2846 68.8117 55.3066 68.6288C55.339 68.3587 55.3257 68.087 55.2551 67.8741L45.65 38.9043C45.505 38.467 45.2163 38.1147 44.8542 37.8484C44.4327 37.5382 43.9134 37.3439 43.4041 37.2647L31.9568 35.4849C31.6833 35.4422 31.413 35.4708 31.167 35.5625C30.9211 35.654 30.6985 35.8095 30.5194 36.0208C30.4329 36.123 30.361 36.2326 30.304 36.3477H30.3042Z" fill="#8C8898"/>
<path d="M118.065 42.9746H115.193C114.93 42.9746 114.717 43.1877 114.717 43.4504V47.5012V51.5403V54.9875C114.717 55.2498 114.93 55.463 115.193 55.463H118.065C118.327 55.463 118.54 55.2501 118.54 54.9875V51.3996V47.4554V43.4504C118.54 43.1875 118.327 42.9746 118.065 42.9746Z" fill="#800080"/>
<path d="M119.796 47.2222V52.6733C120.376 53.4021 120.717 54.3917 120.717 55.5909C120.717 58.2703 119.015 59.9091 116.745 59.9091C114.476 59.9091 112.773 58.2703 112.773 55.5909C112.773 54.5629 113.025 53.6892 113.461 53.001V47.2991C110.043 48.478 107.73 51.5259 107.73 55.5906C107.73 60.8547 111.607 64.4167 116.745 64.4167C121.883 64.4167 125.76 60.8547 125.76 55.5906C125.76 51.4337 123.342 48.3405 119.795 47.2219L119.796 47.2222Z" fill="#0C0014"/>
<path fill-rule="evenodd" clip-rule="evenodd" d="M46.645 63.7476H51.7211C51.789 63.7476 51.8446 63.6922 51.8446 63.6241V55.2667C51.8446 55.1989 51.9 55.1432 51.9681 55.1432H54.3255C54.3715 55.1432 54.4108 55.1664 54.4333 55.2066L59.1467 63.684C59.1692 63.7242 59.2085 63.7473 59.2545 63.7473H65.3727C65.4186 63.7473 65.4576 63.7244 65.4801 63.6847C65.5026 63.645 65.5019 63.5996 65.4785 63.5605L60.1829 54.7574C60.1636 54.7254 60.1597 54.6904 60.1713 54.655C60.1831 54.6196 60.2069 54.594 60.2414 54.5797C62.9861 53.4493 64.931 50.7421 64.931 47.6019V46.7083C64.931 42.7659 61.7054 39.5403 57.7631 39.5403H51.8444H46.645C46.5771 39.5403 46.5215 39.5957 46.5215 39.6638V55.143V63.6238C46.5215 63.6917 46.5769 63.7473 46.645 63.7473V63.7476ZM51.8444 49.8233V44.7401C51.8444 44.6723 51.8997 44.6169 51.9678 44.6169H56.7823C58.2479 44.6169 59.4472 45.816 59.4472 47.2818C59.4472 48.7477 58.2481 49.9468 56.7823 49.9468H51.9678C51.9 49.9468 51.8444 49.8914 51.8444 49.8233Z" fill="#0C0014"/>
<path fill-rule="evenodd" clip-rule="evenodd" d="M72.72 46.8752H73.8599C78.4932 46.8752 82.284 50.666 82.284 55.2993V55.892C82.284 60.5253 78.4932 64.3161 73.8599 64.3161H72.72C68.0867 64.3161 64.2959 60.5253 64.2959 55.892V55.2993C64.2959 50.666 68.0867 46.8752 72.72 46.8752ZM73.2899 51.2673C75.4646 51.2673 77.2437 53.0463 77.2437 55.221V55.9705C77.2437 58.1452 75.4646 59.9242 73.2899 59.9242C71.1152 59.9242 69.3362 58.1452 69.3362 55.9705V55.221C69.3362 53.0463 71.1152 51.2673 73.2899 51.2673Z" fill="#0C0014"/>
<path d="M87.8399 38.7908H83.5481C83.3862 38.7908 83.2549 38.9221 83.2549 39.084V63.5516C83.2549 63.7136 83.3862 63.8449 83.5481 63.8449H87.8399C88.0018 63.8449 88.1331 63.7136 88.1331 63.5516V39.084C88.1331 38.9221 88.0018 38.7908 87.8399 38.7908Z" fill="#0C0014"/>
<path fill-rule="evenodd" clip-rule="evenodd" d="M102.307 38.7908H106.733C106.835 38.7908 106.918 38.8738 106.918 38.9755V55.4076V60.0351V63.6032C106.918 63.7051 106.835 63.7879 106.733 63.7879H103.103C103.001 63.7879 102.918 63.7051 102.918 63.6032V61.2973C102.918 61.2133 102.865 61.1423 102.784 61.1196C102.703 61.0969 102.62 61.1293 102.576 61.2008C101.531 62.9059 99.7728 64.2496 96.8647 64.2914C96.8638 64.2914 96.8629 64.2914 96.862 64.2914C92.5653 64.2907 89.0825 60.6733 89.0825 55.5516C89.0825 50.4293 92.7021 46.8117 96.8633 46.8117C99.1302 46.8351 100.711 47.7101 101.799 48.9403C101.851 48.9991 101.93 49.0184 102.003 48.9907C102.076 48.963 102.122 48.8963 102.122 48.818V38.9758C102.122 38.8741 102.205 38.791 102.307 38.791L102.307 38.7908ZM97.8434 51.3931H98.3905C100.392 51.3931 102.03 53.031 102.03 55.0327V56.1512C102.03 58.153 100.392 59.7908 98.3905 59.7908H97.8434C95.8417 59.7908 94.2038 58.153 94.2038 56.1512V55.0327C94.2038 53.031 95.8417 51.3931 97.8434 51.3931Z" fill="#0C0014"/>
<path fill-rule="evenodd" clip-rule="evenodd" d="M126.779 47.3312H130.494C130.589 47.3312 130.666 47.4086 130.666 47.5034V50.3949C131.263 48.9391 132.788 46.7458 136.55 46.763C142.177 46.7889 142.646 51.8129 142.646 51.8129L141.322 53.2392L137.964 55.0543C137.964 55.0543 138.418 51.2425 135.125 51.2166C131.831 51.1907 131.433 54.0432 131.433 54.0432V63.5191C131.433 63.6316 131.341 63.7238 131.228 63.7238H126.812C126.699 63.7238 126.607 63.6316 126.607 63.5191V59.5065V51.5811V47.5034C126.607 47.4086 126.684 47.3312 126.779 47.3312H126.779Z" fill="#0C0014"/>
<path d="M142.447 51.3762H138.162C138.053 51.3762 137.964 51.4483 137.964 51.5371V63.5629C137.964 63.6518 138.053 63.7239 138.162 63.7239H142.447C142.557 63.7239 142.646 63.6518 142.646 63.5629V51.5371C142.646 51.4483 142.557 51.3762 142.447 51.3762Z" fill="#0C0014"/>
<path fill-rule="evenodd" clip-rule="evenodd" d="M132.292 64.3267H132.664C135.099 64.3267 136.942 66.1634 137.008 68.5196H134.574C134.482 67.2815 133.452 66.485 132.293 66.485H132.109C130.429 66.485 129.121 67.7942 128.954 69.4589L128.94 69.6021C128.791 71.0849 129.763 72.6824 131.261 72.6824H131.504C132.751 72.6824 133.815 71.8578 134.262 70.734H136.752C136.118 73.0476 133.911 74.8215 131.487 74.8215H131.241C128.395 74.8215 126.299 72.4929 126.584 69.6468L126.599 69.5013C126.884 66.6552 129.445 64.3267 132.291 64.3267H132.292Z" fill="#800080"/>
<path fill-rule="evenodd" clip-rule="evenodd" d="M142.491 64.431C144.949 64.4457 146.817 66.1853 146.921 68.5411C146.93 69.2502 146.878 69.9268 146.566 70.4611H139.689C139.734 71.6215 140.315 72.3743 141.538 72.3743H141.768C142.948 72.3743 143.569 72.1165 143.893 71.3504L146.529 71.333C146.402 72.9323 144.209 74.6158 141.777 74.6158H141.544C138.722 74.6158 137.06 73.2276 137.057 69.7142C137.054 66.7671 139.725 64.4144 142.491 64.431H142.491ZM144.057 68.3089C143.992 67.1863 143.111 66.5775 142.477 66.5791L142.247 66.5798C141.16 66.5798 140.353 67.2748 140.02 68.3811L144.057 68.3089H144.057Z" fill="#800080"/>
<path fill-rule="evenodd" clip-rule="evenodd" d="M147.466 74.6646H149.344C149.376 74.6646 149.402 74.641 149.406 74.6094L150.527 64.5854C150.529 64.5672 150.524 64.5509 150.511 64.5373C150.499 64.5236 150.483 64.5166 150.465 64.5166H148.587C148.556 64.5166 148.529 64.5402 148.526 64.5718L147.405 74.5958C147.403 74.614 147.408 74.6303 147.42 74.6439C147.432 74.6576 147.448 74.6646 147.466 74.6646Z" fill="#800080"/>
<path fill-rule="evenodd" clip-rule="evenodd" d="M150.685 74.6646H152.563C152.594 74.6646 152.621 74.641 152.624 74.6094L153.745 64.5854C153.747 64.5672 153.742 64.5509 153.73 64.5373C153.717 64.5236 153.702 64.5166 153.683 64.5166H151.806C151.774 64.5166 151.747 64.5402 151.744 64.5718L150.623 74.5958C150.621 74.614 150.626 74.6303 150.638 74.6439C150.651 74.6576 150.666 74.6646 150.685 74.6646Z" fill="#800080"/>
</svg>
