<svg width="183" height="110" viewBox="0 0 183 110" fill="none" xmlns="http://www.w3.org/2000/svg">
<rect width="183" height="110" fill="#00A4B8"/>
<g clip-path="url(#clip0_430_3202)">
<path d="M135.09 71.6074C135.021 71.8318 135.038 72.1253 135.107 72.2806C135.245 72.5223 135.297 72.5396 135.47 72.3324C135.591 72.1943 135.608 72.0908 135.521 72.0908C135.435 72.0908 135.383 71.9354 135.435 71.7455C135.487 71.5556 135.452 71.3657 135.366 71.3139C135.28 71.2621 135.159 71.383 135.09 71.6074Z" fill="#00A4B8"/>
<path d="M31.1471 71.193C31.0435 71.2621 30.9227 71.4347 30.8709 71.5728C30.8191 71.7109 30.8882 71.9353 31.009 72.0562C31.2162 72.2288 31.268 72.1598 31.3198 71.7109C31.3543 71.4002 31.3716 71.124 31.3543 71.1067C31.3198 71.0894 31.2334 71.124 31.1471 71.193Z" fill="#00A4B8"/>
<path d="M75.7212 71.2794C75.6694 71.4865 75.704 71.6937 75.773 71.7455C75.8593 71.7973 75.9629 71.9872 76.0147 72.1771C76.0838 72.436 76.101 72.4187 76.1183 72.0562C76.1183 71.78 76.1873 71.4693 76.2391 71.3657C76.2909 71.2448 76.2046 71.0895 76.0665 71.0204C75.8766 70.9341 75.773 71.0204 75.7212 71.2794Z" fill="#00A4B8"/>
<path d="M127.857 70.9686C127.77 71.3139 127.805 71.5211 127.96 71.6074C128.098 71.6764 128.254 71.6074 128.34 71.4347C128.426 71.2621 128.409 71.1067 128.323 71.0549C128.219 71.0032 128.116 70.8478 128.064 70.7097C128.012 70.5543 127.943 70.6406 127.857 70.9686Z" fill="#00A4B8"/>
<path d="M135.712 70.6232C135.487 70.7786 135.314 71.0203 135.332 71.1584C135.332 71.2965 135.435 71.4001 135.522 71.4001C135.608 71.4001 136.005 71.2447 136.385 71.0548C136.765 70.8649 137.075 70.6232 137.075 70.5369C137.075 70.4506 136.868 70.3643 136.592 70.3643C136.333 70.3643 135.936 70.4851 135.712 70.6232Z" fill="#00A4B8"/>
<path d="M151.318 70.1054C151.093 70.3298 150.903 70.7269 150.886 70.9686C150.886 71.3311 151.042 71.4692 151.749 71.7972C152.233 72.0044 152.613 72.2806 152.613 72.4014C152.613 72.505 152.354 72.6431 152.043 72.6949C151.749 72.7467 151.214 72.7985 150.886 72.8158C150.472 72.8503 150.265 72.9539 150.247 73.1783C150.196 73.4373 150.351 73.4718 151.37 73.4718C152.008 73.4718 152.716 73.3682 152.958 73.2474C153.2 73.1265 153.476 72.8158 153.562 72.5568C153.683 72.2288 153.683 71.9871 153.545 71.78C153.441 71.6246 153.01 71.3656 152.595 71.2103C152.181 71.0549 151.836 70.8132 151.836 70.6924C151.836 70.5197 152.129 70.4334 152.872 70.3989C153.441 70.3644 153.959 70.2435 154.028 70.1399C154.097 70.0191 154.166 69.881 154.166 69.8119C154.166 69.7256 153.614 69.6738 152.958 69.6738C151.888 69.6738 151.68 69.7256 151.318 70.1054Z" fill="#FBFDFD"/>
<path d="M144.706 70.0018C144.395 70.1745 143.981 70.5543 143.791 70.8132C143.584 71.124 143.446 71.5901 143.463 72.0562C143.463 72.6431 143.549 72.8503 143.929 73.1265C144.205 73.3337 144.671 73.489 144.965 73.4718C145.31 73.4718 145.569 73.3682 145.621 73.2128C145.673 73.0747 145.707 72.9194 145.707 72.8676C145.707 72.8158 145.517 72.7812 145.276 72.7812C145.034 72.7812 144.689 72.6259 144.499 72.436C144.257 72.1943 144.188 71.9699 144.257 71.7109C144.326 71.4865 144.533 71.1412 144.74 70.9168C144.93 70.7096 145.414 70.4679 145.793 70.3989C146.242 70.3126 146.501 70.1745 146.519 69.9673C146.553 69.7429 146.432 69.6738 145.914 69.6738C145.569 69.6738 145.017 69.8292 144.706 70.0018Z" fill="#FBFDFD"/>
<path d="M142.203 69.8119C142.151 69.881 141.927 70.6751 141.668 71.5728C141.426 72.4705 141.219 73.2646 141.219 73.3509C141.219 73.42 141.391 73.4718 141.599 73.4718C141.961 73.4718 142.047 73.2991 142.427 71.7972C142.669 70.865 142.859 70.0018 142.859 69.8983C142.859 69.7774 142.738 69.6738 142.565 69.6738C142.41 69.6738 142.237 69.7256 142.203 69.8119Z" fill="#FBFDFD"/>
<path d="M124.939 69.8119C124.887 69.881 124.714 70.5197 124.542 71.2275C124.266 72.4015 124.266 72.5568 124.49 72.9539C124.645 73.1956 124.991 73.4373 125.267 73.5063C125.543 73.5581 126.026 73.5063 126.372 73.3682C126.7 73.2474 127.097 72.9711 127.252 72.7467C127.408 72.5223 127.649 71.8835 127.805 71.3139C127.96 70.7442 128.115 70.1399 128.167 69.9846C128.253 69.7429 128.167 69.6738 127.874 69.6738C127.546 69.6738 127.442 69.8292 127.166 70.8305C126.993 71.4865 126.682 72.177 126.475 72.4014C126.285 72.6086 125.992 72.7985 125.854 72.7985C125.716 72.7985 125.474 72.6604 125.336 72.505C125.111 72.2633 125.111 72.108 125.37 71.124C125.543 70.5197 125.681 69.95 125.681 69.8465C125.681 69.7601 125.526 69.6738 125.336 69.6738C125.163 69.6738 124.973 69.7256 124.939 69.8119Z" fill="#FBFDFD"/>
<path d="M117.326 70.0364C117.004 70.2665 116.848 70.537 116.86 70.8477C116.86 71.1067 116.964 71.4002 117.084 71.5037C117.205 71.6073 117.602 71.78 117.948 71.9008C118.414 72.0389 118.586 72.177 118.552 72.3842C118.517 72.6431 118.31 72.6949 117.343 72.7295C116.342 72.7812 116.169 72.833 116.1 73.1265C116.014 73.4545 116.1 73.4718 117.257 73.4718C118.258 73.489 118.621 73.42 118.983 73.1265C119.346 72.8848 119.467 72.6259 119.467 72.2116C119.467 71.8145 119.363 71.6073 119.087 71.452C118.862 71.3311 118.483 71.1585 118.206 71.0549C117.948 70.9686 117.758 70.7787 117.792 70.6578C117.827 70.537 118.241 70.4334 118.914 70.3989C119.846 70.3644 119.985 70.3298 119.985 70.0191C119.985 69.7084 119.864 69.6738 118.897 69.6738C118.051 69.6738 117.689 69.7601 117.326 70.0364Z" fill="#FBFDFD"/>
<path d="M102.22 71.1067C101.841 72.505 101.841 72.5223 102.169 72.9539C102.428 73.2819 102.669 73.4027 103.308 73.4373C103.981 73.4718 104.188 73.4027 104.603 73.0057C104.913 72.6949 105.224 72.0907 105.449 71.3139C105.656 70.6578 105.828 70.0018 105.828 69.8983C105.828 69.7601 105.656 69.6911 105.431 69.7256C105.121 69.7601 105 69.95 104.758 70.9686C104.551 71.7742 104.321 72.2806 104.068 72.4878C103.843 72.6604 103.532 72.7985 103.36 72.7812C103.204 72.7812 103.015 72.6431 102.945 72.4878C102.894 72.3151 102.928 71.7109 103.049 71.1412C103.17 70.5715 103.308 70.0018 103.343 69.8983C103.377 69.7601 103.256 69.6738 102.997 69.6738C102.635 69.6738 102.548 69.8292 102.22 71.1067Z" fill="#FBFDFD"/>
<path d="M100.339 70.0018C100.028 70.1745 99.6136 70.5543 99.4237 70.8132C99.2165 71.124 99.0784 71.5901 99.0957 72.0562C99.0957 72.6431 99.182 72.8503 99.5791 73.1265C99.838 73.3337 100.304 73.489 100.615 73.4718C100.926 73.4718 101.219 73.3682 101.305 73.2128C101.374 73.0747 101.392 72.9194 101.34 72.8676C101.288 72.8158 100.977 72.7122 100.649 72.6431C100.114 72.5223 100.045 72.436 99.9934 71.9181C99.9589 71.4692 100.062 71.2103 100.339 70.9168C100.563 70.7096 101.012 70.4852 101.34 70.4162C101.668 70.3644 101.996 70.2263 102.065 70.1227C102.134 70.0191 102.203 69.881 102.203 69.8119C102.203 69.7256 101.91 69.6738 101.564 69.6738C101.202 69.6738 100.649 69.8292 100.339 70.0018Z" fill="#FBFDFD"/>
<path d="M96.368 69.8981C96.1608 70.019 95.8846 70.3124 95.7637 70.5714C95.5911 70.9857 95.6084 71.1066 95.8328 71.3482C96.0054 71.5209 96.437 71.7626 96.8341 71.8834C97.2311 71.987 97.5419 72.1941 97.5419 72.315C97.5419 72.4186 97.3002 72.5739 96.9894 72.6603C96.6787 72.7293 96.1263 72.7811 95.781 72.7811C95.2458 72.7811 95.125 72.8502 95.125 73.1264C95.125 73.4371 95.2458 73.4716 96.2989 73.4716C97.1966 73.4889 97.5591 73.4026 97.9389 73.1264C98.2497 72.902 98.405 72.6257 98.405 72.315C98.4223 72.0388 98.2842 71.7108 98.1116 71.5554C97.9389 71.4 97.5591 71.1929 97.2829 71.1066C97.0067 71.0202 96.765 70.8303 96.765 70.6922C96.765 70.5196 97.0585 70.4333 97.8008 70.3642C98.6122 70.2952 98.8366 70.2089 98.8712 69.9844C98.923 69.7082 98.7848 69.6737 97.8526 69.6909C97.2484 69.6909 96.5924 69.7945 96.368 69.8981Z" fill="#FBFDFD"/>
<path d="M91.9658 70.796C91.8105 71.4174 91.6724 72.1252 91.6724 72.4014C91.6551 72.6604 91.7932 72.9884 91.9658 73.1438C92.1385 73.2991 92.3974 73.4718 92.5355 73.5236C92.6736 73.5754 93.0707 73.5581 93.3987 73.4718C93.7267 73.3855 94.1756 73.1438 94.4 72.9194C94.6071 72.6949 94.9351 71.9871 95.125 71.3139C95.3149 70.6406 95.4703 70.0018 95.4703 69.881C95.4703 69.7774 95.3149 69.6738 95.125 69.6738C94.8488 69.6738 94.7107 69.9155 94.3827 71.0204C94.0892 72.0044 93.8821 72.4187 93.5713 72.5914C93.3296 72.7295 93.0016 72.7812 92.8463 72.7295C92.6218 72.6431 92.5355 72.4187 92.5355 72.0044C92.5355 71.6764 92.6046 71.2275 92.6909 71.0204C92.76 70.7959 92.8808 70.4162 92.9499 70.1572C93.0362 69.7429 93.0016 69.6738 92.6564 69.6738C92.2938 69.6738 92.2075 69.8119 91.9658 70.796Z" fill="#FBFDFD"/>
<path d="M81.0555 70.1054C80.831 70.3298 80.6411 70.6578 80.6411 70.8305C80.6239 71.0031 80.6929 71.2275 80.762 71.3484C80.831 71.452 81.2454 71.7109 81.7115 71.9008C82.1603 72.108 82.5229 72.3497 82.5229 72.436C82.5229 72.5223 82.3502 72.6431 82.1258 72.6949C81.9186 72.7467 81.3662 72.7985 80.8828 72.8158C80.2096 72.8503 80.0197 72.9366 79.9851 73.161C79.9333 73.4373 80.0887 73.4718 81.2281 73.4718C82.402 73.4718 82.5919 73.42 82.9544 73.0402C83.1961 72.7985 83.386 72.436 83.386 72.2116C83.4033 72.0044 83.2997 71.7454 83.1789 71.6246C83.058 71.5037 82.6437 71.3139 82.2639 71.1757C81.8841 71.0376 81.5734 70.8305 81.5734 70.6924C81.5734 70.5197 81.8668 70.4334 82.6092 70.3989C83.1789 70.3644 83.6968 70.2435 83.7658 70.1399C83.8349 70.0191 83.9039 69.881 83.9039 69.7947C83.9039 69.7256 83.3515 69.6738 82.6955 69.6738C81.6252 69.6738 81.418 69.7256 81.0555 70.1054Z" fill="#FBFDFD"/>
<path d="M70.1969 71.3656C69.9552 72.2806 69.748 73.1438 69.748 73.2646C69.748 73.3682 69.9034 73.4718 70.0933 73.4718C70.335 73.4718 70.4904 73.2991 70.6112 72.9194C70.6975 72.6086 70.8874 71.8835 71.0255 71.3139C71.1636 70.7442 71.319 70.1399 71.3708 69.9846C71.4571 69.7429 71.3708 69.6738 71.0601 69.6738C70.6803 69.6738 70.6112 69.8292 70.1969 71.3656Z" fill="#FBFDFD"/>
<path d="M68.0906 70.0018C67.7971 70.1745 67.331 70.6751 67.072 71.0894C66.7095 71.6419 66.6232 71.9699 66.6922 72.3497C66.744 72.6431 66.8994 72.9711 67.0203 73.092C67.1411 73.1956 67.5727 73.3509 67.987 73.4373C68.5567 73.5236 68.7639 73.5063 68.8847 73.2991C68.9883 73.161 69.0573 72.9884 69.0573 72.9194C69.0573 72.833 68.8847 72.7812 68.6775 72.7812C68.4531 72.7812 68.1079 72.6604 67.9007 72.5223C67.6763 72.3842 67.5036 72.0907 67.5036 71.8835C67.4864 71.6591 67.6935 71.2793 67.9352 71.0204C68.1942 70.7269 68.643 70.4852 69.0573 70.4162C69.558 70.3126 69.7479 70.1917 69.7479 69.9846C69.7479 69.7429 69.6098 69.6738 69.1954 69.6738C68.8847 69.6738 68.3841 69.8292 68.0906 70.0018Z" fill="#FBFDFD"/>
<path d="M40.8319 70.0018C40.5384 70.1745 40.1241 70.5715 39.9169 70.865C39.6752 71.2103 39.5371 71.6591 39.5371 72.0907C39.5371 72.6431 39.6234 72.8503 40.0205 73.1265C40.2967 73.3509 40.7455 73.489 41.1426 73.4718C41.6605 73.4718 41.7814 73.4027 41.7814 73.1265C41.7814 72.8676 41.626 72.7467 41.1253 72.6431C40.5729 72.5223 40.4866 72.436 40.4348 72.0044C40.4003 71.6591 40.5039 71.3311 40.7628 71.0204C41.0045 70.7442 41.4188 70.5025 41.8504 70.4162C42.3165 70.3126 42.5755 70.1572 42.5927 69.9673C42.6273 69.7429 42.5064 69.6738 42.0058 69.6738C41.6432 69.6738 41.1081 69.8292 40.8319 70.0018Z" fill="#FBFDFD"/>
<path d="M147.779 69.8809C147.209 70.1744 146.898 70.4851 146.605 71.0548C146.328 71.5727 146.242 72.0043 146.311 72.3496C146.363 72.6258 146.57 73.0056 146.795 73.1782C147.019 73.3681 147.451 73.4889 147.865 73.4717C148.245 73.4717 148.814 73.3163 149.125 73.1264C149.419 72.9365 149.833 72.5222 150.023 72.2115C150.213 71.918 150.368 71.4001 150.368 71.0893C150.368 70.7613 150.213 70.3643 149.971 70.1053C149.764 69.8636 149.35 69.6392 149.073 69.5701C148.728 69.5184 148.297 69.6047 147.779 69.8809Z" fill="#FBFDFD"/>
<path d="M147.934 70.5542C147.778 70.6405 147.537 70.9512 147.364 71.2274C147.209 71.5209 147.088 71.8662 147.088 72.0043C147.088 72.1424 147.209 72.3841 147.347 72.5222C147.485 72.6603 147.813 72.7811 148.055 72.7811C148.314 72.7811 148.693 72.574 149.004 72.2632C149.315 71.9525 149.505 71.5554 149.505 71.262C149.505 71.003 149.418 70.6923 149.298 70.5714C149.177 70.4506 148.883 70.3643 148.642 70.3643C148.4 70.3643 148.089 70.4506 147.934 70.5542Z" fill="#00A4B8"/>
<path d="M136.212 69.6564C135.971 69.7255 135.556 69.9326 135.28 70.1225C135.004 70.2952 134.641 70.744 134.469 71.1066C134.279 71.4518 134.141 71.9179 134.141 72.1424C134.141 72.3495 134.261 72.6948 134.4 72.9192C134.538 73.1264 134.917 73.3681 135.228 73.4717C135.597 73.5867 135.982 73.5867 136.385 73.4717C136.713 73.3681 137.248 73.0401 137.559 72.7293C137.87 72.4359 138.111 72.0733 138.111 71.9697C138.111 71.8489 138.008 71.7108 137.904 71.6763C137.783 71.6417 137.386 71.8834 137.041 72.1942C136.661 72.5394 136.195 72.7811 135.953 72.7811C135.712 72.7811 135.401 72.6603 135.263 72.5222C135.125 72.3841 135.004 72.1424 135.004 72.0043C135.004 71.8662 135.125 71.5036 135.263 71.2274C135.401 70.9512 135.677 70.6232 135.867 70.5369C136.057 70.4506 136.402 70.3642 136.644 70.3642C136.886 70.3642 137.075 70.4506 137.075 70.5369C137.075 70.6232 136.678 70.8994 136.212 71.1411C135.729 71.3828 135.349 71.6935 135.349 71.8316C135.349 71.9697 135.435 72.0906 135.522 72.0906C135.608 72.0906 136.281 71.8144 136.989 71.4864C137.697 71.1584 138.284 70.7786 138.284 70.675C138.284 70.5541 138.18 70.3297 138.059 70.1571C137.939 70.0017 137.645 69.7945 137.386 69.691C137.11 69.5874 136.851 69.5011 136.782 69.5183C136.696 69.5183 136.454 69.5874 136.212 69.6564Z" fill="#FBFDFD"/>
<path d="M129.652 69.8983C129.065 70.209 128.771 70.5198 128.461 71.1585C128.219 71.6764 128.098 72.1598 128.167 72.4015C128.219 72.6086 128.426 72.9366 128.616 73.1265C128.858 73.3682 129.186 73.4718 129.79 73.4718C130.273 73.4718 130.774 73.351 131.033 73.1783C131.275 73.0057 131.603 72.7122 131.758 72.5223C131.931 72.3324 132.051 72.0735 132.069 71.9699C132.069 71.849 131.948 71.7109 131.81 71.6591C131.654 71.6074 131.309 71.8318 130.981 72.1771C130.653 72.5396 130.256 72.764 129.997 72.764C129.755 72.7813 129.445 72.7122 129.307 72.6086C129.168 72.5223 129.082 72.4187 129.134 72.3669C129.186 72.3324 129.894 71.9699 130.739 71.5901C131.568 71.193 132.241 70.7787 132.241 70.6751C132.241 70.5543 132.138 70.3299 132.017 70.1572C131.896 70.0019 131.603 69.7947 131.326 69.6911C131.067 69.5875 130.757 69.5012 130.636 69.5012C130.515 69.5012 130.066 69.6911 129.652 69.8983Z" fill="#FBFDFD"/>
<path d="M129.566 70.7958C129.341 71.0203 129.152 71.2965 129.134 71.4001C129.134 71.4864 129.169 71.5727 129.221 71.5727C129.272 71.5727 129.704 71.3828 130.17 71.1411C130.653 70.8994 131.033 70.6232 131.033 70.5369C131.033 70.4506 130.792 70.3643 130.515 70.3643C130.17 70.3643 129.825 70.5196 129.566 70.7958Z" fill="#00A4B8"/>
<path d="M121.711 69.6911C121.469 69.7947 121.089 70.0364 120.882 70.2435C120.658 70.4507 120.364 70.8305 120.226 71.0895C120.088 71.3657 119.984 71.849 119.984 72.1771C119.984 72.5799 120.111 72.9079 120.364 73.1611C120.692 73.4545 120.917 73.5063 121.676 73.4546L122.591 73.3855C122.419 74.1796 122.315 74.6112 122.246 74.8356C122.16 75.1982 122.194 75.2327 122.574 75.1809C122.971 75.1118 123.057 74.9392 123.472 73.3855C123.713 72.436 123.938 71.4002 123.938 71.0895C123.955 70.796 123.903 70.4162 123.817 70.2608C123.748 70.1054 123.489 69.8638 123.213 69.7429C122.954 69.6048 122.608 69.5012 122.436 69.5185C122.28 69.5185 121.952 69.6048 121.711 69.6911Z" fill="#FBFDFD"/>
<path d="M121.383 70.8476C121.107 71.1066 120.83 71.4691 120.761 71.659C120.709 71.8662 120.779 72.1596 120.968 72.4013C121.245 72.7811 121.348 72.7984 122.091 72.6603C122.695 72.5567 122.936 72.4359 123.006 72.1769C123.04 71.987 123.092 71.6072 123.092 71.3137C123.092 71.0375 123.006 70.6923 122.885 70.5714C122.764 70.4506 122.488 70.3643 122.28 70.3643C122.056 70.3643 121.659 70.5714 121.383 70.8476Z" fill="#00A4B8"/>
<path d="M114.201 69.622C114.012 69.6738 113.597 69.8982 113.286 70.1227C112.993 70.3471 112.613 70.7614 112.475 71.0549C112.337 71.3311 112.216 71.78 112.216 72.0389C112.199 72.3151 112.354 72.7294 112.561 72.9884C112.855 73.3855 113.045 73.4718 113.684 73.4718C114.115 73.4718 114.702 73.3509 114.978 73.2128C115.255 73.0747 115.652 72.7467 115.841 72.4705C116.049 72.2115 116.204 71.9526 116.187 71.8663C116.187 71.7972 116.066 71.7109 115.928 71.6591C115.772 71.6073 115.427 71.8317 115.099 72.177C114.719 72.5913 114.391 72.764 114.029 72.7812C113.753 72.7812 113.407 72.6949 113.286 72.5741C113.166 72.4532 113.079 72.1425 113.079 71.8663C113.079 71.5901 113.269 71.193 113.58 70.8823C113.925 70.5197 114.253 70.3643 114.616 70.3643C114.909 70.3643 115.151 70.4334 115.151 70.537C115.151 70.6233 114.719 70.8995 114.201 71.1412C113.511 71.4519 113.252 71.6591 113.252 71.9181C113.252 72.108 113.286 72.2633 113.338 72.2633C113.39 72.2633 114.081 71.9353 114.892 71.521C115.703 71.1239 116.377 70.7441 116.359 70.6578C116.359 70.5888 116.187 70.3471 115.962 70.1054C115.755 69.8637 115.341 69.6393 115.065 69.6048C114.788 69.553 114.391 69.5702 114.201 69.622Z" fill="#FBFDFD"/>
<path d="M109.298 69.6911C108.97 69.7602 108.47 70.0882 108.211 70.3989C107.883 70.7615 107.676 71.2621 107.589 71.78C107.486 72.5051 107.52 72.6432 107.9 73.0402C108.245 73.3855 108.487 73.4718 109.109 73.4718C109.54 73.4718 110.11 73.3165 110.403 73.1438C110.68 72.9712 111.094 72.4878 111.301 72.0735C111.525 71.6592 111.698 71.2103 111.698 71.0895C111.698 70.9859 111.595 70.6752 111.456 70.3989C111.336 70.14 111.025 69.8292 110.766 69.7084C110.524 69.6048 110.213 69.5012 110.093 69.5185C109.989 69.5185 109.626 69.6048 109.298 69.6911Z" fill="#FBFDFD"/>
<path d="M108.936 70.8649C108.66 71.1584 108.435 71.5727 108.418 71.8662C108.418 72.1251 108.522 72.4531 108.677 72.574C108.832 72.6948 109.195 72.7466 109.54 72.6948C109.989 72.6258 110.231 72.4704 110.49 72.0561C110.679 71.7453 110.835 71.3483 110.835 71.1929C110.835 71.0203 110.714 70.7613 110.576 70.6232C110.438 70.4851 110.11 70.3643 109.868 70.3643C109.609 70.3643 109.229 70.5714 108.936 70.8649Z" fill="#00A4B8"/>
<path d="M87.1669 69.8983C86.7525 70.1745 86.4936 70.537 86.3037 71.1412C86.1483 71.6246 85.9584 72.3324 85.9066 72.7467C85.8203 73.3855 85.8376 73.4718 86.1483 73.4718C86.4073 73.4718 86.5454 73.2992 86.6835 72.7467C86.7698 72.3324 86.9424 71.7282 87.046 71.4002C87.1496 71.0722 87.3222 70.6924 87.4258 70.5716C87.5294 70.4507 87.7538 70.3471 87.9265 70.3644C88.0818 70.3644 88.2717 70.5025 88.3235 70.6751C88.3926 70.8305 88.2717 71.5383 88.0646 72.2288L87.702 73.4718C88.4789 73.4718 88.5997 73.351 88.7206 72.9194C88.8242 72.6086 88.9795 72.0044 89.0831 71.5728C89.204 71.1412 89.3766 70.6924 89.4802 70.5716C89.601 70.4507 89.86 70.3471 90.0844 70.3644C90.3606 70.3644 90.4642 70.468 90.4642 70.7614C90.4642 70.9686 90.3433 71.5728 90.2052 72.0907C90.0671 72.6086 89.9463 73.1438 89.9463 73.2646C89.9463 73.3682 90.1189 73.4545 90.3088 73.4373C90.6196 73.3855 90.7404 73.1611 90.9994 72.1771C91.172 71.521 91.3274 70.7614 91.3274 70.5025C91.3274 70.1918 91.1892 69.9328 90.9476 69.7602C90.7231 69.6221 90.4297 69.5012 90.2915 69.5012C90.1534 69.5012 89.8254 69.6221 89.5665 69.7602C89.1349 69.9846 89.0313 69.9846 88.7033 69.7602C88.4789 69.6221 88.1854 69.5012 88.03 69.5012C87.8919 69.5012 87.4949 69.6739 87.1669 69.8983Z" fill="#FBFDFD"/>
<path d="M77.5163 69.8983C77.0157 70.1572 76.6359 70.5198 76.446 70.8996C76.2734 71.2103 76.1353 71.78 76.1353 72.1425C76.1353 72.5741 76.2561 72.9021 76.5323 73.1611C76.8431 73.4545 77.0675 73.5063 77.8098 73.4545C78.4486 73.4028 78.8111 73.2646 79.1564 72.9539C79.4153 72.7122 79.726 72.3152 79.8642 72.0562C80.0023 71.78 80.1058 71.3484 80.1058 71.0549C80.1058 70.7787 80.0541 70.4162 79.985 70.2608C79.8987 70.1054 79.6397 69.8638 79.3808 69.7429C79.1046 69.6048 78.7593 69.5012 78.5867 69.5012C78.414 69.5012 77.9307 69.6739 77.5163 69.8983Z" fill="#FBFDFD"/>
<path d="M77.43 70.8131C77.0847 71.1411 76.9639 71.4346 76.9639 71.8144C76.9811 72.1079 77.0847 72.4531 77.2056 72.574C77.3264 72.6948 77.6026 72.7811 77.827 72.7811C78.0342 72.7811 78.4485 72.5912 78.7247 72.3496C79.1045 72.0388 79.2426 71.7626 79.2426 71.3483C79.2426 71.0548 79.1563 70.6923 79.0355 70.5714C78.9146 70.4506 78.6039 70.3643 78.3622 70.3643C78.1033 70.3643 77.6889 70.5714 77.43 70.8131Z" fill="#00A4B8"/>
<path d="M64.0683 69.6911C63.6885 69.7774 63.2397 70.1054 62.8944 70.537C62.4283 71.0895 62.3247 71.3829 62.3247 72.0044C62.3247 72.5569 62.4283 72.8849 62.67 73.1265C62.9289 73.3855 63.2397 73.4718 63.8266 73.4718C64.3273 73.4718 64.8624 73.3337 65.1732 73.1438C65.4494 72.9539 65.8119 72.6086 65.95 72.3497C66.1745 71.9526 66.1745 71.8836 65.95 71.7455C65.7601 71.6246 65.5357 71.7455 65.0869 72.1943C64.7071 72.5741 64.3273 72.7985 64.051 72.7985C63.8094 72.7813 63.5159 72.695 63.395 72.5741C63.2742 72.4533 63.1879 72.2979 63.1879 72.2116C63.1879 72.1425 63.2569 72.1253 63.3605 72.1771C63.4468 72.2288 64.1546 71.9526 64.9142 71.5728C65.6738 71.193 66.2953 70.796 66.2953 70.7097C66.2953 70.6233 66.2435 70.4162 66.1572 70.2608C66.0881 70.1054 65.8292 69.8638 65.553 69.7429C65.294 69.6048 64.9833 69.5012 64.8624 69.5185C64.7589 69.5185 64.3791 69.6048 64.0683 69.6911Z" fill="#FBFDFD"/>
<path d="M63.602 70.8822C63.3258 71.1584 63.1359 71.4346 63.1877 71.4864C63.2395 71.5382 63.7229 71.3655 64.2581 71.1066C64.7932 70.8476 65.2075 70.5714 65.1558 70.5024C65.1212 70.416 64.8623 70.3643 64.6033 70.3643C64.2926 70.3643 63.9301 70.5542 63.602 70.8822Z" fill="#00A4B8"/>
<path d="M54.7458 69.8809C54.3142 70.1053 53.8309 70.4678 53.6582 70.7095C53.4856 70.9512 53.2957 71.4519 53.2439 71.8317C53.1576 72.3668 53.2266 72.6258 53.5029 72.9883C53.7963 73.3854 54.0035 73.4717 54.6422 73.4717C55.0738 73.4717 55.6435 73.3508 55.937 73.2127C56.2305 73.0746 56.6103 72.7466 56.8002 72.4704C57.0073 72.2115 57.1627 71.9525 57.1454 71.8662C57.1454 71.7971 57.0246 71.7108 56.8865 71.659C56.7311 71.6072 56.3859 71.8317 56.0751 72.1769C55.6781 72.5912 55.35 72.7639 54.9875 72.7811C54.7113 72.7811 54.366 72.6948 54.2452 72.574C54.1243 72.4531 54.038 72.1424 54.038 71.8662C54.038 71.59 54.2279 71.1929 54.5387 70.8822C54.8839 70.5196 55.2119 70.3643 55.5745 70.3643C55.868 70.3643 56.1096 70.4333 56.1096 70.5369C56.1096 70.6232 55.6781 70.8994 55.1602 71.1411C54.6422 71.3828 54.2107 71.6763 54.2107 71.7799C54.2107 71.9007 54.2452 72.0561 54.297 72.1251C54.3488 72.2115 55.022 71.9525 55.8162 71.59C56.593 71.2102 57.249 70.8131 57.2836 70.7268C57.3008 70.6232 57.1454 70.347 56.9383 70.1053C56.7139 69.8636 56.3168 69.6392 56.0233 69.5701C55.6781 69.5184 55.2637 69.6047 54.7458 69.8809Z" fill="#FBFDFD"/>
<path d="M44.0254 69.7429C43.6974 69.8638 43.214 70.2436 42.9551 70.6061C42.5925 71.0722 42.4717 71.4175 42.4717 72.0044C42.4717 72.5914 42.5753 72.8676 42.8687 73.1611C43.1967 73.4718 43.3866 73.5063 44.198 73.4373C45.0439 73.351 45.2166 73.2646 45.8035 72.6259C46.3214 72.0562 46.4423 71.78 46.4423 71.2276C46.4423 70.8478 46.3905 70.4162 46.3042 70.2608C46.2351 70.1054 45.9762 69.8638 45.6999 69.7429C45.441 69.6048 45.0957 69.5012 44.9231 69.5012C44.7677 69.5185 44.3534 69.6221 44.0254 69.7429Z" fill="#FBFDFD"/>
<path d="M43.7665 70.8476C43.404 71.1929 43.2832 71.4864 43.3004 71.8489C43.3177 72.1251 43.4213 72.4531 43.5421 72.574C43.663 72.6948 43.9392 72.7811 44.1636 72.7811C44.3708 72.7811 44.7678 72.5912 45.0613 72.3496C45.4411 72.0388 45.5792 71.7626 45.5792 71.3655C45.5792 71.0548 45.4929 70.6923 45.372 70.5714C45.2512 70.4506 44.9404 70.3643 44.6988 70.3643C44.4571 70.3643 44.0427 70.5714 43.7665 70.8476Z" fill="#00A4B8"/>
<path d="M37.0166 69.7602C36.7231 69.881 36.3606 70.1745 36.2052 70.3989C36.0498 70.6233 35.7564 71.3311 35.5665 72.0044C35.3766 72.6777 35.2212 73.2647 35.2212 73.3337C35.2212 73.42 35.3938 73.4718 35.601 73.4718C35.9463 73.4718 36.0498 73.2992 36.326 72.2288C36.5159 71.5383 36.8094 70.8305 36.9821 70.6579C37.1547 70.5025 37.4309 70.3644 37.5863 70.3644C37.7589 70.3471 38.0006 70.468 38.1042 70.6233C38.2941 70.8305 38.2768 71.0722 38.0697 71.8663C37.9315 72.4187 37.8107 73.0057 37.8107 73.1611C37.8107 73.351 37.9488 73.4718 38.156 73.4718C38.4322 73.4718 38.553 73.2647 38.7775 72.4705C38.9328 71.9354 39.1055 71.2448 39.1573 70.9686C39.2263 70.5716 39.14 70.3471 38.7947 69.9673C38.5358 69.7084 38.156 69.5012 37.9315 69.5012C37.7244 69.5185 37.3101 69.6221 37.0166 69.7602Z" fill="#FBFDFD"/>
<path d="M32.6316 69.881C32.1309 70.14 31.7511 70.4852 31.5612 70.8823C31.3886 71.2103 31.2505 71.78 31.2505 72.1253C31.2505 72.5568 31.3713 72.9021 31.5958 73.1265C31.8029 73.3337 32.1654 73.4718 32.5452 73.4718C32.8733 73.4718 33.3048 73.3855 33.4947 73.2992C33.7249 73.1841 33.84 73.1841 33.84 73.2992C33.84 73.3855 34.0299 73.4718 34.2716 73.4718C34.6686 73.4718 34.7204 73.3682 34.9794 72.2116C35.152 71.5383 35.2211 70.7615 35.152 70.4852C35.1002 70.209 34.8413 69.9155 34.5305 69.7602C34.2371 69.6221 33.8745 69.5012 33.7192 69.5012C33.5465 69.5012 33.0631 69.6739 32.6316 69.881Z" fill="#FBFDFD"/>
<path d="M32.5797 70.7958C32.3207 71.0375 32.0618 71.4346 32.01 71.7108C31.941 72.0388 32.01 72.2632 32.2344 72.4877C32.4071 72.6603 32.666 72.7811 32.8041 72.7811C32.9422 72.7811 33.3048 72.6776 33.6155 72.5567C33.9262 72.4531 34.2197 72.1942 34.2715 72.0043C34.306 71.8144 34.3578 71.4001 34.3578 71.0893C34.3578 70.7441 34.2543 70.5024 34.0989 70.4506C33.9608 70.3988 33.65 70.3643 33.4429 70.3643C33.2184 70.3643 32.8214 70.5542 32.5797 70.7958Z" fill="#00A4B8"/>
<path d="M60.2015 70.5887C59.9425 71.5554 59.7354 72.5049 59.7354 72.6948C59.7354 72.8847 59.8217 73.1437 59.9425 73.2645C60.0634 73.3854 60.4949 73.4717 60.9093 73.4717C61.479 73.4717 61.6343 73.4026 61.6343 73.1782C61.6343 72.971 61.4617 72.8157 61.1164 72.7466C60.8402 72.6603 60.5985 72.5049 60.5985 72.4013C60.5985 72.2805 60.7194 71.7626 60.8575 71.2792C61.1164 70.3643 61.1164 70.3643 61.807 70.3643C62.3767 70.3643 62.4975 70.3125 62.4975 70.019C62.4975 69.7428 62.3767 69.6737 61.9796 69.6737C61.548 69.6737 61.4617 69.6047 61.4617 69.2421C61.4617 68.9141 61.3754 68.8105 61.0646 68.8105C60.7194 68.8105 60.6331 68.9832 60.2015 70.5887Z" fill="#FBFDFD"/>
<path d="M139.492 69.104C139.388 69.363 139.147 70.1916 138.957 70.9167C138.784 71.659 138.629 72.4359 138.629 72.643C138.629 72.8675 138.715 73.1437 138.836 73.2645C138.957 73.3854 139.388 73.4717 139.786 73.4717C140.407 73.4717 140.528 73.4199 140.528 73.1264C140.528 72.8675 140.407 72.7812 140.096 72.7812C139.837 72.7812 139.613 72.6603 139.561 72.4704C139.492 72.315 139.561 71.7799 139.682 71.3138C139.906 70.4851 139.958 70.4506 140.614 70.3643C141.098 70.2952 141.322 70.1916 141.339 69.9672C141.374 69.7428 141.27 69.6737 140.787 69.6737C140.234 69.6737 140.183 69.6219 140.217 69.2076C140.217 68.8969 140.131 68.7242 139.958 68.6725C139.786 68.6379 139.613 68.7933 139.492 69.104Z" fill="#FBFDFD"/>
<path d="M142.41 68.7243C142.22 68.9487 142.202 69.035 142.392 69.2077C142.548 69.363 142.686 69.363 142.91 69.2249C143.066 69.1213 143.204 68.8969 143.204 68.7415C143.204 68.5862 143.083 68.4653 142.928 68.4653C142.772 68.4653 142.53 68.5862 142.41 68.7243Z" fill="#FBFDFD"/>
<path d="M70.8356 68.7244C70.7493 68.8797 70.7838 69.0696 70.922 69.2077C71.0773 69.3631 71.2154 69.3631 71.4399 69.225C71.5952 69.1214 71.7333 68.9315 71.7333 68.7934C71.7333 68.6553 71.5607 68.5345 71.3535 68.4999C71.1291 68.4654 70.922 68.5517 70.8356 68.7244Z" fill="#FBFDFD"/>
<path d="M136.816 68.6035C136.54 68.8624 136.333 69.1387 136.35 69.2077C136.367 69.2768 136.523 69.3286 136.695 69.3286C136.851 69.3286 137.248 69.0696 137.576 68.7243C138.163 68.1201 138.163 68.1201 137.731 68.1201C137.507 68.1201 137.092 68.3445 136.816 68.6035Z" fill="#FBFDFD"/>
<path d="M133.605 68.6898C133.502 69.0869 133.191 70.2263 132.915 71.2276C132.638 72.2288 132.414 73.1438 132.414 73.2646C132.414 73.3682 132.587 73.4545 132.777 73.4373C133.105 73.3855 133.243 73.0748 133.812 70.9686C134.175 69.6393 134.486 68.4136 134.486 68.2582C134.486 68.0684 134.348 67.9475 134.14 67.9475C133.899 67.9475 133.761 68.1374 133.605 68.6898Z" fill="#FBFDFD"/>
<path d="M106.985 68.3446C106.951 68.5517 106.657 69.6566 106.364 70.796C106.053 71.9354 105.777 73.0057 105.742 73.1783C105.673 73.3855 105.76 73.4718 106.036 73.4718C106.398 73.4718 106.502 73.2474 107.089 71.1067C107.451 69.7947 107.779 68.5517 107.814 68.3446C107.883 68.0166 107.831 67.9475 107.486 67.9475C107.193 67.9475 107.054 68.0684 106.985 68.3446Z" fill="#FBFDFD"/>
<path d="M75.5828 68.8625C75.4101 69.5012 75.272 69.7429 75.0821 69.6911C74.944 69.6393 74.5297 69.6048 74.1499 69.6048C73.7183 69.6048 73.2522 69.7429 72.8897 69.9846C72.5962 70.1918 72.2164 70.6061 72.0783 70.8823C71.9402 71.1758 71.8193 71.7455 71.8193 72.1771C71.8193 72.7985 71.9057 73.0057 72.1991 73.2129C72.4236 73.351 72.9069 73.4718 73.2867 73.4718C73.6665 73.4718 74.219 73.3164 74.5297 73.1265C74.8404 72.9366 75.203 72.5741 75.3411 72.3152C75.4792 72.0389 75.8244 71.0031 76.1179 69.9846C76.4114 68.9488 76.6531 68.0856 76.6531 68.0338C76.6531 67.982 76.4632 67.9475 76.2388 67.9475C75.8935 67.9475 75.7899 68.0856 75.5828 68.8625Z" fill="#FBFDFD"/>
<path d="M73.1314 70.7613C72.8898 70.9685 72.6308 71.3828 72.579 71.659C72.51 72.0043 72.5617 72.2805 72.7516 72.4877C72.907 72.643 73.2005 72.7811 73.4077 72.7811C73.6321 72.7984 74.0119 72.643 74.2708 72.4359C74.547 72.246 74.8233 71.8144 74.9268 71.4519C75.0649 70.8994 75.0477 70.7613 74.7887 70.5714C74.6334 70.4506 74.2881 70.3643 74.0291 70.3643C73.7702 70.3643 73.3731 70.5369 73.1314 70.7613Z" fill="#00A4B8"/>
<path d="M52.7436 68.9833C52.4847 70.0019 52.4847 70.0191 52.0876 69.7429C51.8287 69.5703 51.5007 69.5012 51.0518 69.5703C50.7066 69.6221 50.1714 69.881 49.8779 70.14C49.5672 70.4162 49.2219 70.8305 49.1011 71.0895C48.963 71.3657 48.8594 71.8318 48.8594 72.1253C48.8594 72.5051 48.9975 72.8331 49.2392 73.0748C49.4636 73.2819 49.8261 73.4718 50.0678 73.4891C50.3095 73.5063 50.672 73.5063 50.8965 73.5063C51.1036 73.4891 51.5525 73.2129 51.8977 72.9021C52.243 72.6086 52.5883 72.2288 52.6573 72.0907C52.7436 71.9526 53.0026 71.0549 53.2443 70.1054C53.486 69.1559 53.6931 68.2755 53.6931 68.1547C53.6931 68.0511 53.5378 67.9475 53.3479 67.9475C53.0889 67.9475 52.9681 68.1547 52.7436 68.9833Z" fill="#FBFDFD"/>
<path d="M50.2401 70.8649C49.9467 71.1584 49.7395 71.5727 49.7395 71.8662C49.7222 72.1251 49.8086 72.4531 49.9294 72.574C50.0502 72.6948 50.3265 72.7811 50.5336 72.7811C50.758 72.7811 51.1551 72.5912 51.4486 72.3496C51.7421 72.1079 52.0183 71.6763 52.0701 71.3655C52.1564 70.9339 52.1046 70.7441 51.8629 70.5714C51.673 70.4506 51.3623 70.3643 51.1378 70.3643C50.9134 70.3643 50.5164 70.5887 50.2401 70.8649Z" fill="#00A4B8"/>
<path d="M27.7977 68.6898C27.6941 69.0869 27.4869 69.7602 27.3661 70.1918C27.228 70.6233 27.0554 71.3139 27.0036 71.7455C26.9173 72.3669 26.969 72.6086 27.2625 73.0057C27.5733 73.4028 27.7459 73.4718 28.4364 73.4718C28.9371 73.4718 29.4722 73.3337 29.783 73.1438C30.0765 72.9712 30.4563 72.5223 30.6289 72.1598C30.8188 71.78 30.9742 71.2276 30.9742 70.9168C30.9914 70.468 30.8706 70.2263 30.4735 69.8983C30.0419 69.5357 29.852 69.484 29.3514 69.5875C29.0234 69.6566 28.6263 69.7602 28.4882 69.8292C28.2983 69.9155 28.2638 69.8465 28.3674 69.5875C28.4364 69.3976 28.5228 68.9488 28.5573 68.6035C28.5918 68.0684 28.5573 67.9475 28.2983 67.9475C28.0739 67.9475 27.9358 68.1547 27.7977 68.6898Z" fill="#FBFDFD"/>
<path d="M28.8163 70.4506C28.7818 70.5024 28.5919 70.5714 28.402 70.5887C28.1431 70.6405 28.005 70.8649 27.8841 71.4519C27.7287 72.1424 27.7633 72.2978 28.0222 72.5567C28.2639 72.8157 28.4193 72.8329 28.9717 72.6948C29.4378 72.574 29.6968 72.3668 29.9557 71.8834C30.2492 71.3483 30.2665 71.1929 30.0766 70.8131C29.9212 70.4851 29.7313 70.3643 29.386 70.3643C29.1098 70.3643 28.8509 70.3988 28.8163 70.4506Z" fill="#00A4B8"/>
<path d="M66.692 63.3726C66.7266 63.6834 66.8819 63.7179 67.9523 63.7697C68.6428 63.8042 69.2988 63.7352 69.4197 63.6316C69.575 63.5107 69.247 63.4589 68.2285 63.4589C67.2617 63.4589 66.7784 63.3899 66.7266 63.2518C66.692 63.1309 66.6575 63.1827 66.692 63.3726Z" fill="#00A4B8"/>
<path d="M147.261 43.8822C146.639 44.003 145.672 44.3483 145.103 44.6245C144.533 44.9007 143.756 45.4359 143.376 45.7984C142.996 46.1609 142.444 46.9205 142.168 47.4902C141.823 48.198 141.65 48.8886 141.598 49.6482C141.529 50.5113 141.598 50.9602 141.857 51.5471C142.099 52.0996 142.427 52.4794 143.048 52.8937C143.514 53.2044 145.258 54.1539 146.915 54.9998C148.987 56.0356 150.109 56.7262 150.506 57.1405C150.8 57.4858 151.11 57.9691 151.162 58.2281C151.214 58.5043 151.231 58.8668 151.179 59.0567C151.11 59.2466 150.817 59.7473 150.506 60.1616C150.195 60.5759 149.626 61.0765 149.246 61.2837C148.59 61.629 148.262 61.6462 143.29 61.698L138.025 61.7498C137.559 63.01 137.42 63.4244 137.42 63.4934C137.42 63.5797 140.321 63.6143 143.86 63.5797L150.282 63.5452C152.112 62.613 153.078 61.9397 153.614 61.4736C154.252 60.9039 154.736 60.2652 155.064 59.5746C155.409 58.8496 155.547 58.2626 155.547 57.6239C155.547 57.0887 155.409 56.4327 155.202 55.9838C155.012 55.5868 154.615 55.0171 154.304 54.7063C153.993 54.4129 152.491 53.4634 150.972 52.6175C149.453 51.7716 147.848 50.8566 147.381 50.5804C146.898 50.2869 146.466 49.8553 146.311 49.5101C146.156 49.1993 146.087 48.7159 146.138 48.3879C146.19 48.0944 146.484 47.5248 146.794 47.145C147.14 46.7479 147.778 46.2645 148.314 46.0228C149.229 45.6085 149.349 45.5913 153.855 45.5395L158.482 45.5049C158.741 44.7626 158.862 44.3483 158.913 44.0721L159 43.606C149.816 43.6232 148.072 43.6923 147.261 43.8822Z" fill="#FBFDFD"/>
<path d="M128.271 43.7959C127.839 43.8822 127.063 44.1066 126.545 44.2965C126.027 44.4864 125.146 45.0043 124.594 45.4186C123.817 46.0401 123.489 46.4544 123.006 47.4384C122.678 48.129 122.367 49.0439 122.298 49.4755C122.246 49.9071 122.281 50.5804 122.384 50.9774C122.488 51.3918 122.747 51.9269 122.971 52.1859C123.196 52.4621 123.869 52.9455 124.49 53.2907C125.095 53.636 126.717 54.4992 128.098 55.1897C129.583 55.9493 130.86 56.7262 131.24 57.106C131.793 57.6584 131.896 57.8828 131.896 58.487C131.896 59.0222 131.775 59.4193 131.413 59.9199C131.154 60.2997 130.705 60.7831 130.412 61.0075C130.135 61.2146 129.548 61.4736 129.1 61.5599C128.634 61.6635 126.13 61.7326 123.524 61.7326H118.776C118.483 62.4749 118.345 62.9065 118.293 63.1654L118.172 63.6488C130.809 63.5452 130.964 63.528 131.81 63.1482C132.276 62.9237 133.087 62.4576 133.588 62.1124C134.106 61.7671 134.814 61.0765 135.176 60.6104C135.539 60.1271 135.919 59.5401 136.022 59.2639C136.126 59.0049 136.212 58.2971 136.212 57.6756C136.212 57.0542 136.109 56.2946 135.97 55.9838C135.85 55.6904 135.401 55.1034 134.986 54.7236C134.572 54.3265 133.174 53.4288 131.896 52.7038C130.619 51.996 129.082 51.1328 128.478 50.7875C127.891 50.4423 127.287 49.9934 127.149 49.769C127.011 49.5618 126.89 49.1303 126.89 48.8195C126.89 48.526 126.976 48.0772 127.063 47.8355C127.149 47.5938 127.442 47.1967 127.701 46.9551C127.978 46.7134 128.564 46.2991 129.048 46.0401C129.911 45.5913 129.928 45.5913 134.486 45.5395C137.006 45.5049 139.112 45.4359 139.181 45.3668C139.251 45.2978 139.423 44.8835 139.579 44.4173L139.837 43.606C131.482 43.6405 128.703 43.7095 128.271 43.7959Z" fill="#FBFDFD"/>
<path d="M72.8033 46.2473C72.2854 47.6801 71.3705 50.2351 70.7835 51.8924C70.1966 53.5497 69.2471 56.191 68.6774 57.762C68.1077 59.3329 67.4344 61.2147 67.1755 61.9397C66.9338 62.6648 66.7611 63.3035 66.8129 63.3381C66.8647 63.3898 67.7797 63.4416 68.8673 63.4762L70.8353 63.5452C72.4063 59.2639 73.1659 57.1577 73.5284 56.1219C73.9082 55.0689 75.0303 51.9615 76.0143 49.2166C77.0156 46.4544 77.8615 44.0721 77.9306 43.8994C78.0169 43.6232 77.8615 43.606 75.8935 43.606H73.7701L72.8033 46.2473Z" fill="#FBFDFD"/>
<path d="M51.1205 43.9167C50.7925 44.0721 50.3091 44.4864 50.0329 44.8144C49.7222 45.1942 49.2215 46.3681 48.6864 47.9218C48.2202 49.3029 46.8737 53.3425 45.6653 56.8988C44.4741 60.4551 43.5073 63.4244 43.5073 63.4934C43.5073 63.5797 44.5431 63.6315 45.8034 63.6315H48.0821C49.5841 59.0222 50.6199 55.8457 51.3449 53.6187C52.0872 51.3918 52.7087 49.5273 52.7605 49.4755C52.795 49.4237 52.8641 49.51 52.8986 49.6482C52.9332 49.7863 53.382 51.2709 53.8654 52.9282C54.366 54.5855 55.1083 57.106 55.5399 58.5388C55.9543 59.9544 56.4204 61.4736 56.5412 61.9052C56.6793 62.3368 56.9383 62.8892 57.1454 63.1482C57.3353 63.4244 57.7324 63.7524 58.0086 63.8905C58.3021 64.0286 58.9926 64.1494 59.5623 64.1494C60.132 64.1494 60.8571 64.0459 61.1678 63.925C61.4613 63.8042 61.9274 63.4244 62.1691 63.0964C62.4453 62.7511 63.1358 60.973 63.93 58.6251C64.655 56.4845 66.0534 52.3067 67.0546 49.3374C68.0559 46.3854 68.8846 43.8649 68.8846 43.7786C68.8846 43.675 68.1595 43.6232 66.9511 43.6405L65.0348 43.6923C63.4638 48.1117 62.6179 50.4768 62.1346 51.8061C61.6512 53.1354 61.0297 54.9135 60.7362 55.7767C60.46 56.6226 60.1493 57.3994 60.0802 57.503C59.9939 57.6066 59.8558 57.434 59.7695 57.0714C59.6659 56.7434 59.148 54.948 58.6128 53.1008C58.0604 51.2537 57.3181 48.6814 56.9555 47.4039C56.5757 46.1264 56.1442 44.8835 55.9715 44.6418C55.7989 44.4001 55.3846 44.0721 55.0566 43.9167C54.6422 43.6923 54.0553 43.606 53.0885 43.606C52.1218 43.606 51.5348 43.6923 51.1205 43.9167Z" fill="#FBFDFD"/>
<path d="M28.7474 43.8304C28.7129 43.934 27.7634 46.7997 26.6586 50.1661C25.571 53.5324 24.5179 56.8815 24.328 57.5893C24.1381 58.2971 24 59.1603 24 59.4883C24 59.8163 24.0863 60.4033 24.2072 60.7831C24.3107 61.1974 24.7078 61.7843 25.1912 62.2677C25.6918 62.7511 26.3133 63.1654 26.8485 63.3381C27.3318 63.5107 28.5058 63.7178 29.4898 63.8042C30.6292 63.925 31.9066 63.925 33.0978 63.8042C34.1336 63.7178 35.4629 63.4934 36.0844 63.3035C36.7059 63.1136 37.7072 62.6303 38.3114 62.2159C39.1055 61.6808 39.6234 61.1629 40.1413 60.3515C40.5729 59.6955 41.2462 58.2108 41.7468 56.8125C42.2302 55.4832 43.1279 52.9627 43.7666 51.2019C44.3881 49.441 45.1995 47.1967 45.562 46.1955C45.9246 45.1942 46.2871 44.2102 46.3389 43.9858L46.4425 43.606L42.2129 43.6923C41.0045 47.0414 40.3312 48.9058 39.9341 49.9934C39.5371 51.081 38.6912 53.4461 38.0524 55.2588C37.3446 57.2095 36.6196 58.9186 36.2398 59.4883C35.86 60.0753 35.2212 60.6968 34.5997 61.1283C34.0301 61.5081 33.1841 61.9397 32.718 62.0606C32.2347 62.1987 31.5441 62.2677 31.1643 62.2159C30.7845 62.1641 30.2494 62.026 29.9559 61.8879C29.6797 61.7498 29.2653 61.37 29.0582 61.042C28.7474 60.5932 28.6611 60.1961 28.6611 59.4883C28.6611 58.9704 28.7992 58.0382 28.9891 57.4167C29.1618 56.7952 29.835 54.62 30.4738 52.5829C31.1125 50.5459 31.9412 47.8528 32.3382 46.6271C32.718 45.4014 33.046 44.2102 33.0806 43.9858C33.1496 43.606 33.1324 43.606 30.9917 43.606C29.4207 43.606 28.7992 43.6577 28.7474 43.8131V43.8304Z" fill="#FBFDFD"/>
<path d="M100.908 35.0607C100.149 35.1815 99.0265 35.406 98.405 35.5786C97.7835 35.734 96.7477 36.062 96.0745 36.3037C95.4012 36.5454 94.0892 37.1323 93.1397 37.6157C92.1902 38.0818 90.7573 38.9277 89.9459 39.4629C89.1346 40.0153 87.9779 40.8785 87.3564 41.3964C86.735 41.9143 85.6819 42.9501 85.0259 43.7097C84.3526 44.452 83.4894 45.5396 83.0924 46.1093C82.7126 46.679 82.0738 47.7666 81.694 48.5262C81.3142 49.2858 80.8309 50.4424 80.6237 51.1157C80.382 51.9098 80.2094 52.9801 80.1576 54.2231C80.1058 55.3625 80.1403 56.5019 80.2612 57.0716C80.3647 57.5895 80.641 58.4526 80.8481 58.9705C81.0553 59.5057 81.5387 60.3344 81.9185 60.8523C82.2982 61.3529 83.0751 62.1125 83.6448 62.5441C84.2145 62.9757 85.2676 63.6144 85.9754 63.9424C86.6832 64.2704 88.0124 64.7365 88.9101 64.9782C90.4466 65.3925 90.7919 65.4271 94.6071 65.4271C98.1979 65.4271 98.8711 65.3925 100.39 65.0473C101.34 64.8401 102.928 64.374 103.929 64.046C104.931 63.7007 106.329 63.131 107.037 62.7685C107.745 62.406 109.022 61.6464 109.885 61.0767C110.748 60.507 111.94 59.6266 112.561 59.1087C113.183 58.5908 114.149 57.6413 114.719 56.9853C115.289 56.312 116.1 55.2762 116.532 54.6547C116.946 54.0332 117.585 52.9111 117.93 52.1515C118.292 51.3919 118.759 50.1489 118.949 49.3893C119.225 48.4053 119.328 47.4558 119.346 46.1093C119.346 44.8318 119.259 43.8478 119.069 43.0882C118.897 42.4667 118.551 41.5 118.275 40.9303C117.999 40.3606 117.395 39.4801 116.929 38.9622C116.48 38.4616 115.703 37.7538 115.237 37.4085C114.753 37.0633 113.7 36.4936 112.855 36.1483C112.026 35.7858 110.576 35.3369 109.626 35.147C108.297 34.8881 107.261 34.8018 105.086 34.819C103.55 34.8363 101.668 34.9399 100.908 35.0607Z" fill="#FBFDFD"/>
<path d="M101.34 38.9449C100.529 39.1176 99.372 39.4456 98.7505 39.67C98.129 39.9117 97.2831 40.2742 96.8515 40.4987C96.4199 40.7231 95.5395 41.2582 94.8662 41.6898C94.2102 42.1214 93.1226 42.9846 92.4666 43.6061C91.8106 44.2276 90.9129 45.1943 90.4641 45.764C90.0152 46.3337 89.2902 47.4213 88.8586 48.1809C88.427 48.9405 87.8746 50.218 87.6156 51.0293C87.3739 51.8407 87.115 53.0319 87.0632 53.7052C86.9941 54.4302 87.0459 55.3625 87.184 56.0357C87.3049 56.6572 87.5983 57.5894 87.8573 58.1073C88.099 58.608 88.6514 59.3848 89.083 59.7992C89.5146 60.2135 90.2569 60.7314 90.723 60.9558C91.2064 61.163 92.0178 61.4392 92.5357 61.56C93.1572 61.6981 94.2793 61.7499 95.8157 61.6809C97.3349 61.6291 98.5951 61.4737 99.441 61.2493C100.149 61.0594 101.392 60.6105 102.203 60.2653C103.015 59.9027 104.413 59.1259 105.311 58.5389C106.398 57.8311 107.451 56.9334 108.418 55.9149C109.229 55.0517 110.248 53.7397 110.714 52.9974C111.163 52.2378 111.715 51.0984 111.94 50.4251C112.181 49.7519 112.458 48.5089 112.579 47.663C112.751 46.3337 112.751 45.9021 112.509 44.7282C112.337 43.9686 112.026 42.9501 111.802 42.4839C111.577 42.0006 111.042 41.2755 110.628 40.8439C110.196 40.4123 109.471 39.8599 109.005 39.601C108.539 39.342 107.624 39.014 106.951 38.8759C106.277 38.7205 105.086 38.6169 104.275 38.6169C103.463 38.6169 102.151 38.7723 101.34 38.9449Z" fill="#00A4B8"/>
</g>
<defs>
<clipPath id="clip0_430_3202">
<rect width="135" height="40.3964" fill="white" transform="translate(24 34.8018)"/>
</clipPath>
</defs>
</svg>
