<svg width="183" height="110" viewBox="0 0 183 110" fill="none" xmlns="http://www.w3.org/2000/svg">
<g clip-path="url(#clip0_405_3224)">
<path d="M112.405 43.3745C112.543 43.2827 112.911 43.1796 113.232 43.1222C113.543 43.0764 116.625 43.0534 120.074 43.0764C125.26 43.1108 126.445 43.1452 126.916 43.2942C127.226 43.3859 127.64 43.6038 127.813 43.7872C128.077 44.0509 128.135 44.2114 128.123 44.6471C128.123 44.9566 127.962 45.805 127.767 46.5388C127.548 47.3987 127.318 47.9834 127.169 48.1554C126.997 48.3273 126.686 48.4534 126.226 48.5222C125.847 48.591 123.236 48.6713 120.419 48.7057C116.947 48.763 114.865 48.7401 113.945 48.6484C113.209 48.5796 112.439 48.442 112.255 48.3503C112.06 48.2585 111.784 48.0063 111.623 47.7999C111.427 47.5477 111.335 47.284 111.335 46.9401C111.335 46.6764 111.439 45.9312 111.577 45.2777C111.703 44.6356 111.887 43.9821 111.979 43.8216C112.071 43.6611 112.267 43.4662 112.405 43.3745Z" fill="white"/>
<path d="M104.091 66.0063C104.275 65.9146 104.735 65.7885 105.091 65.7312C105.482 65.6624 108.966 65.6394 113.347 65.6624C119.545 65.6853 121.04 65.7312 121.512 65.8573C121.822 65.949 122.294 66.1324 122.546 66.2585C122.845 66.4076 123.064 66.6254 123.167 66.8777C123.282 67.1413 123.305 67.4624 123.259 67.898C123.213 68.242 123.006 69.1706 122.776 69.9617C122.558 70.7528 122.282 71.521 122.167 71.6815C122.052 71.842 121.753 72.0713 121.5 72.1859C121.167 72.3464 120.649 72.4267 119.499 72.4955C118.648 72.5413 115.774 72.5872 113.118 72.5872C110.461 72.5872 107.495 72.5413 106.529 72.484C105.241 72.4038 104.643 72.312 104.229 72.1401C103.93 72.014 103.505 71.7273 103.286 71.5095C102.895 71.1082 102.884 71.0624 102.895 70.2713C102.895 69.8127 102.987 68.9872 103.102 68.414C103.217 67.8407 103.413 67.107 103.528 66.7745C103.689 66.3388 103.838 66.1324 104.091 66.0063Z" fill="white"/>
<path fill-rule="evenodd" clip-rule="evenodd" d="M87.8778 13.4395C87.9468 13.4395 87.9927 13.4738 87.9927 13.5312C87.9927 13.577 87.2913 15.1363 86.4289 16.9936C85.5665 18.8509 84.1292 21.8662 83.2438 23.7006C82.3584 25.5235 81.312 27.7248 80.921 28.5732C80.5186 29.4216 79.5642 31.4395 78.7937 33.0445C78.0233 34.6496 76.563 37.7223 75.5511 39.8662C74.5392 42.0102 73.3088 44.5668 72.8029 45.5414C72.3085 46.5159 71.6875 47.6509 71.423 48.0637C70.9746 48.7745 70.9401 48.7974 70.7906 48.5796C70.6986 48.4535 70.3882 47.7885 70.1007 47.0891C69.6177 45.9312 69.5832 45.7936 69.6982 45.3923C69.7672 45.163 69.8707 44.9452 69.9397 44.9108C70.0087 44.8764 70.5031 44.9681 72.0325 45.3694L72.2395 45.0828C72.3659 44.9223 73.1134 43.4318 73.9183 41.7579C74.7232 40.084 77.0574 35.3605 79.1042 31.2675C81.151 27.163 82.8183 23.735 82.8183 23.6433C82.8183 23.4942 82.8068 23.4942 82.6688 23.6433C82.5768 23.735 81.8984 25.0764 81.151 26.6242C80.4036 28.1719 78.0693 32.884 75.9766 37.1146C73.8723 41.3452 72.067 44.8649 71.9635 44.9452C71.814 45.0598 71.63 45.0369 70.9746 44.8535C70.5376 44.7274 70.1697 44.6012 70.1697 44.5668C70.1697 44.5324 71.3311 42.4802 72.7454 40.0152C74.1597 37.5388 76.8505 32.7235 78.7363 29.3184C80.622 25.9133 83.0138 21.6369 84.0487 19.8025C85.0951 17.9796 86.2334 15.9847 86.5899 15.3885C86.9349 14.7923 87.3488 14.1044 87.4983 13.8751C87.6478 13.6344 87.8203 13.4395 87.8778 13.4395ZM91.8103 19.4127C93.1327 19.4127 94.708 19.4586 95.3175 19.5274C95.9384 19.5847 97.3527 19.8254 98.4566 20.0433C99.5605 20.2611 101.067 20.5936 101.791 20.7885C102.516 20.9719 103.792 21.3961 104.608 21.7172C105.425 22.0382 106.782 22.6229 107.598 23.0127C108.461 23.414 110.093 24.3656 111.45 25.2369C112.75 26.0853 114.003 26.9337 114.233 27.1286C114.578 27.4152 114.67 27.5643 114.67 27.8853C114.67 28.1031 114.612 28.3554 114.532 28.4356C114.451 28.5044 114.279 28.5732 114.129 28.5732C113.98 28.5732 113.75 28.5159 113.6 28.4471C113.462 28.3668 113.037 28.0688 112.658 27.7707C112.278 27.4726 111.37 26.842 110.645 26.3605C109.921 25.8904 108.782 25.214 108.116 24.87C107.449 24.5146 106.31 23.9758 105.586 23.6662C104.861 23.3566 103.792 22.9439 103.229 22.749C102.654 22.5541 101.285 22.1643 100.181 21.8891C99.02 21.591 97.3412 21.27 96.2144 21.121C94.501 20.9031 93.8916 20.8688 91.2699 20.9146C88.9471 20.9605 87.9123 21.0293 86.6129 21.2242C85.693 21.3732 84.9111 21.442 84.8536 21.3847C84.8076 21.3388 84.8996 20.9949 85.0606 20.6395C85.233 20.2382 85.4515 19.9286 85.601 19.8598C85.7505 19.8025 86.6704 19.6764 87.6478 19.5961C88.6252 19.5044 90.4995 19.4242 91.8103 19.4127ZM83.0138 20.4331C83.0943 20.4331 83.1633 20.5019 83.1633 20.5821C83.1633 20.6509 83.0023 21.0063 82.4159 21.9809L80.2311 22.7261C79.0237 23.1388 77.3219 23.8267 76.4365 24.2509C75.5511 24.6866 74.2862 25.363 73.6193 25.7643C72.9524 26.1656 71.8945 26.8649 71.2621 27.3121C70.6296 27.7707 69.6407 28.5503 69.0773 29.0433C68.5024 29.5248 67.6745 30.3044 67.2145 30.7745C66.7546 31.2331 65.8577 32.2305 65.2022 32.9758C64.5468 33.7324 63.9604 34.363 63.9029 34.3859C63.8339 34.4089 63.6729 34.2025 63.5234 33.9388C63.3854 33.6637 63.2704 33.3426 63.2704 33.2165C63.2819 33.0904 63.7879 32.4254 64.4088 31.7261C65.0412 31.0267 66.0071 30.0178 66.5706 29.4789C67.1225 28.9401 68.0194 28.1375 68.5599 27.6904C69.1003 27.2433 70.1007 26.4866 70.8021 25.9936C71.492 25.5121 72.7684 24.721 73.6193 24.2395C74.4702 23.7579 75.8156 23.07 76.609 22.7146C77.4024 22.3592 78.5638 21.8777 79.1962 21.6484C79.8286 21.4076 80.9095 21.0407 81.6109 20.8344C82.3009 20.6165 82.9448 20.4445 83.0138 20.4331ZM92.3048 21.4191C93.0637 21.4535 94.3861 21.5452 95.237 21.6369C96.0879 21.7286 97.2837 21.8777 97.8817 21.9694C98.4796 22.0611 99.71 22.3477 100.607 22.6114C101.515 22.8637 102.838 23.2764 103.539 23.5401C104.252 23.8038 105.517 24.3312 106.333 24.7324C107.15 25.1337 108.369 25.7872 109.035 26.1885C109.702 26.5783 110.76 27.2777 111.393 27.7248C112.025 28.1834 112.669 28.6764 112.83 28.8484C113.06 29.0891 113.083 29.1579 112.945 29.2152C112.853 29.2496 112.669 29.2267 112.543 29.1694C112.416 29.1121 111.853 28.7108 111.278 28.2866C110.703 27.8624 109.806 27.2433 109.265 26.9223C108.725 26.5898 107.748 26.028 107.081 25.6726C106.414 25.3286 105.149 24.7554 104.263 24.4C103.378 24.056 101.952 23.563 101.101 23.2993C100.25 23.0471 98.9051 22.7146 98.1116 22.5541C97.3182 22.4051 95.9154 22.1987 94.9725 22.0955C94.0411 22.0038 92.4888 21.9235 91.5229 21.935C90.5685 21.935 89.2576 21.9809 88.6252 22.0267C87.9927 22.084 86.7969 22.2445 85.9575 22.3936C85.1296 22.5426 84.4051 22.6229 84.3476 22.577C84.3016 22.5312 84.3591 22.3936 84.4856 22.2675C84.6581 22.0955 85.0836 21.9809 86.2679 21.8089C87.1188 21.6828 88.5217 21.5337 89.3726 21.4764C90.2235 21.4191 91.5459 21.3961 92.3048 21.4191ZM81.6914 22.8407C81.7489 22.8407 81.8179 22.9095 81.8524 22.9898C81.8984 23.0586 81.8294 23.2076 81.7144 23.3108C81.5879 23.414 80.852 23.7121 80.0586 23.9872C79.2652 24.2509 78.0233 24.7439 77.2989 25.0649C76.5745 25.3859 75.3556 26.028 74.5967 26.4751C73.8378 26.9223 72.7914 27.5872 72.274 27.9541C71.768 28.3324 70.8366 29.0547 70.2042 29.5592C69.5832 30.0751 68.4794 31.107 67.7549 31.8522C67.0305 32.6089 66.1221 33.6063 65.7427 34.0764C65.3632 34.5465 64.9493 35.0853 64.8228 35.2688C64.6618 35.4981 64.5353 35.5783 64.3858 35.521C64.2133 35.4637 64.2018 35.4178 64.3513 35.1426C64.4318 34.9592 64.8343 34.4089 65.2367 33.9044C65.6392 33.4 66.6971 32.2649 67.5825 31.3707C68.4679 30.4764 69.7327 29.3184 70.3997 28.8025C71.0666 28.2751 72.228 27.4382 72.9869 26.9452C73.7458 26.4407 75.2981 25.5694 76.4365 25.0076C77.5749 24.4458 79.2077 23.7235 80.0586 23.414C80.9095 23.1044 81.6454 22.8522 81.6914 22.8407ZM58.4525 25.2025C58.487 25.2598 59.6598 27.5528 61.0512 30.293C62.454 33.0331 64.1903 36.4152 64.9148 37.8025C65.6392 39.1898 66.812 41.3566 67.502 42.6178C68.2034 43.8789 68.7553 44.9337 68.7438 44.9681C68.7208 45.0025 68.3644 45.1286 67.9504 45.2547C67.2835 45.4611 67.18 45.4611 66.996 45.3121C66.8925 45.2203 66.5016 44.5439 66.1451 43.8216C65.7772 43.0993 65.1447 41.7006 64.7308 40.7261C64.3168 39.7516 63.6614 38.135 63.2819 37.149C62.891 36.1516 62.523 35.3605 62.4655 35.3949C62.3965 35.4293 62.4425 35.6586 62.569 36.0025C62.6955 36.3006 63.2934 37.7337 63.9029 39.1783C64.5123 40.6229 65.3977 42.6178 65.8577 43.5923C66.3291 44.5668 66.8006 45.4382 66.9155 45.507C67.088 45.6216 67.2835 45.6102 67.9504 45.4267C68.4104 45.3006 68.8128 45.1974 68.8473 45.1974C68.8818 45.1974 69.1233 45.6789 69.3993 46.2637C69.6752 46.8369 70.2962 48.2242 70.7906 49.3248C71.3426 50.5859 71.883 51.6178 72.2395 52.1108C72.6419 52.6382 73.1019 53.0853 74.7117 54.2089L74.7347 54.8624C74.7577 55.2178 74.8152 55.5159 74.8842 55.5159C74.9532 55.5159 75.0107 54.4726 75.0567 49.8407H79.1962L79.9436 50.1961C80.3921 50.414 80.8635 50.7579 81.128 51.056C81.381 51.3312 81.6914 51.7898 81.8409 52.0764C81.9904 52.363 82.1629 52.9248 82.2434 53.3375C82.3124 53.7503 82.3469 54.2662 82.3009 54.484C82.2664 54.7019 82.1514 55.149 82.0364 55.4586C81.9329 55.7796 81.6684 56.2611 81.4385 56.5477C81.2085 56.8344 80.7715 57.2356 80.4496 57.4305C80.1391 57.6369 79.6907 57.8433 79.4377 57.8891C79.1962 57.9465 78.9777 58.0152 78.9547 58.0726C78.9317 58.1184 79.2882 58.2445 79.7366 58.3477C80.2426 58.4624 80.783 58.6917 81.0935 58.898C81.381 59.1044 81.7604 59.4598 81.9329 59.7121C82.1169 59.9528 82.3009 60.3885 82.3584 60.6751C82.4159 60.9617 82.4618 61.5809 82.4618 62.0509C82.4733 62.521 82.4274 62.9796 82.3814 63.0598C82.3354 63.1401 82.1514 63.1974 81.6109 63.1401L81.6569 62.1082C81.6914 61.2025 81.6684 61.0076 81.427 60.5146C81.2545 60.1592 80.9785 59.8267 80.691 59.6318C80.4381 59.4713 79.9436 59.242 79.5987 59.1388C79.1502 59.0012 78.7822 58.9668 78.3338 59.0242C77.9888 59.0586 77.5174 59.1732 77.2989 59.2649C77.0804 59.3567 76.77 59.5401 76.632 59.6777C76.4825 59.8152 76.2755 60.0904 76.1835 60.2738C76.0685 60.4917 75.9766 61.0879 75.8616 63.1974H75.1716L75.0797 61.2254C75.0337 60.1363 74.9532 58.8293 74.8957 58.3248C74.8382 57.8203 74.6772 57.0751 74.5392 56.6624C74.4012 56.2496 74.1253 55.6879 73.9298 55.4012C73.7343 55.1146 73.3548 54.6789 73.1019 54.4267C72.8489 54.1745 71.9405 53.3719 71.0896 52.6382C70.1582 51.8356 69.2843 50.9643 68.8933 50.4598C68.5369 49.9898 67.9504 49.0726 67.5825 48.4076C67.2145 47.7426 66.5591 46.4815 66.1336 45.5987C65.7082 44.7159 64.8688 42.7554 64.2708 41.242C63.6614 39.7286 62.6265 37.0688 61.9711 35.3375C61.3041 33.6063 60.1888 30.6598 59.4758 28.8025C58.6709 26.67 58.234 25.363 58.2915 25.2598C58.3375 25.1681 58.4065 25.1452 58.4525 25.2025ZM122.684 27.6675C123.144 27.656 123.903 27.7248 124.352 27.8165C124.812 27.9082 125.502 28.1031 125.881 28.2522C126.261 28.4012 126.882 28.7452 127.261 28.9974C127.64 29.2611 128.112 29.6395 128.319 29.8458C128.514 30.0637 128.871 30.5452 129.101 30.9235C129.319 31.3019 129.618 31.8981 129.756 32.242C129.929 32.7006 130.009 33.2509 130.136 35.7388L131.584 36.4267L131.55 36.8853C131.516 37.2751 131.47 37.3439 131.228 37.3783C131.067 37.4012 130.423 37.2751 129.791 37.1146C129.158 36.9426 126.985 36.3121 124.961 35.7159C122.937 35.1082 120.27 34.3286 119.039 33.9617C117.809 33.6063 116.257 33.1363 115.613 32.9184C114.957 32.7006 114.325 32.4369 114.198 32.3337C114.083 32.2191 113.98 32.0012 113.98 31.8407C113.98 31.6802 114.06 31.4738 114.164 31.3821C114.256 31.2904 114.509 31.2102 114.704 31.2102C114.911 31.2102 115.245 31.256 115.44 31.3248C115.647 31.3821 115.9 31.4051 115.992 31.3707C116.084 31.3248 116.406 30.9579 116.717 30.5452C117.016 30.1324 117.51 29.5707 117.832 29.2955C118.142 29.0318 118.74 28.642 119.154 28.4356C119.568 28.2407 120.339 27.9885 120.879 27.8738C121.42 27.7592 122.236 27.6675 122.684 27.6675ZM107.633 33.87C108.058 33.9044 108.058 33.9044 108.081 34.4547C108.104 34.8331 108.035 35.1541 107.84 35.5439C107.69 35.842 107.288 36.3465 106.954 36.6675C106.609 36.9885 106.161 37.3324 105.954 37.4356C105.758 37.5503 105.505 37.6305 105.413 37.6305C105.321 37.6305 105.264 37.5961 105.287 37.5388C105.31 37.493 105.62 37.2866 105.977 37.0802C106.414 36.828 106.621 36.6445 106.621 36.484C106.621 36.3465 106.506 36.2089 106.333 36.1401C106.172 36.0713 106.011 35.9337 105.977 35.8191C105.931 35.7159 105.954 35.4407 106.023 35.2229C106.092 35.0051 106.379 34.6038 106.678 34.3286C107.127 33.9044 107.265 33.8356 107.633 33.87ZM87.3143 34.191H88.1652C88.6367 34.191 89.0276 34.214 89.0276 34.2484C89.0276 34.2828 87.4868 36.8738 85.6125 40.0152C83.7267 43.1452 81.9904 46.1605 81.266 47.7082L81.496 47.949C81.6224 48.0751 81.8639 48.1898 82.0364 48.1783C82.2204 48.1783 82.3584 48.2242 82.3584 48.293C82.3584 48.3617 82.1169 48.4076 81.8064 48.4076C81.5075 48.4076 81.1625 48.3388 81.036 48.2586C80.9095 48.1668 80.714 47.9146 80.5991 47.6853C80.4611 47.3758 80.4151 47.0891 80.4611 46.6305C80.4956 46.2866 80.4841 46 80.4266 46C80.3806 46 79.8056 46.5388 77.9313 48.3961L77.2069 48.4076C76.6205 48.4076 76.4365 48.3617 76.172 48.1439C75.9996 47.9949 75.7926 47.6968 75.7006 47.4789C75.6086 47.2496 75.5626 46.8942 75.5971 46.6305C75.6316 46.3783 75.8501 45.7821 76.08 45.3121C76.3215 44.842 76.9884 43.6611 77.5634 42.6866C78.1498 41.7121 78.6673 40.898 78.7363 40.8751C78.7937 40.8522 79.1962 40.8522 80.4036 40.8981L78.7822 43.5923C77.8853 45.0713 77.0574 46.4815 76.9424 46.7223C76.8275 46.9516 76.724 47.3184 76.724 47.5248C76.724 47.7197 76.7815 47.9605 76.862 48.0407C76.9424 48.121 77.1609 48.1783 77.3564 48.1783C77.5979 48.1783 77.8968 48.0178 78.3338 47.6624C78.6788 47.3758 79.2882 46.7681 79.6906 46.3095C80.0931 45.8624 80.9555 44.6815 81.6109 43.707C82.2664 42.7324 83.6002 40.5656 84.5776 38.8917C85.5435 37.2178 86.5669 35.4751 86.8314 35.028L87.3143 34.191ZM91.8448 34.191H92.6842C93.2937 34.191 93.5006 34.2254 93.4777 34.3286C93.4547 34.4089 91.8678 37.1031 89.9475 40.3248C88.0387 43.535 86.3369 46.5044 86.1874 46.9172C85.946 47.5133 85.923 47.7082 86.0265 47.9146C86.1185 48.0866 86.2564 48.1668 86.4749 48.1668C86.6474 48.1668 87.0154 47.9949 87.3028 47.777C87.5903 47.5707 88.0847 47.0891 88.4067 46.7223C88.7287 46.3554 89.3381 45.5643 89.7751 44.9681C90.212 44.3605 90.7984 43.6267 91.0859 43.3172C91.3734 43.0076 91.9023 42.5719 92.2473 42.3312C92.5922 42.0904 93.4202 41.6318 94.0871 41.2993C95.214 40.749 95.3519 40.7146 96.0304 40.749C96.5363 40.7719 96.7893 40.8293 96.8583 40.9554C96.9043 41.0471 96.9733 41.2191 97.0193 41.3566C97.0883 41.563 97.1113 41.5401 97.3182 41.2076C97.5367 40.8407 97.5482 40.8407 98.3991 40.8407C99.2615 40.8407 99.2615 40.8407 99.135 41.093C99.0545 41.2305 98.3531 42.4344 97.5597 43.7643C96.7663 45.0828 95.9959 46.4586 95.8464 46.8254C95.7084 47.1923 95.5819 47.5821 95.5819 47.7197C95.5819 47.8458 95.7084 48.0063 95.8694 48.0866C96.0994 48.2012 96.2144 48.2012 96.4443 48.0866C96.6053 48.0063 96.8238 47.949 96.9388 47.949C97.0998 47.949 97.0883 47.9949 96.8468 48.1783C96.6398 48.3388 96.3868 48.4076 95.9844 48.4076C95.5129 48.4076 95.3634 48.3503 95.1105 48.0866C94.938 47.9146 94.7425 47.6509 94.6735 47.5133C94.6045 47.3758 94.547 46.963 94.5355 45.9426L94.2826 46.2866C94.1446 46.47 93.6731 46.9974 93.2247 47.4445C92.6727 48.0063 92.2818 48.3044 91.9598 48.4076C91.6953 48.4879 91.3504 48.5108 91.1549 48.4649C90.9709 48.4191 90.626 48.1898 90.396 47.9605C90.166 47.7312 89.9245 47.3414 89.844 47.0891C89.7751 46.8369 89.7176 46.3898 89.7061 45.5987L89.4186 45.9426C89.2576 46.1261 88.8322 46.6076 88.4757 47.0203C88.1192 47.4216 87.5903 47.9031 87.3028 48.0866C86.9349 48.3159 86.6359 48.4076 86.2679 48.4076C85.854 48.4076 85.693 48.3503 85.4515 48.0866C85.279 47.9146 85.0836 47.6395 85.0031 47.4904C84.9111 47.2955 84.8881 46.986 84.9341 46.5961C84.9686 46.2637 84.9801 46 84.9456 46C84.9111 46 84.4396 46.4586 83.8877 47.0318C83.3243 47.5936 82.7953 48.0637 82.7033 48.0637C82.6113 48.0637 83.0598 47.5248 83.7152 46.8598C84.5891 45.9656 85.21 45.163 86.1299 43.7758C86.8084 42.7439 88.3722 40.1758 89.6026 38.0547L91.8448 34.191ZM61.3386 36.1286C61.4766 36.1286 61.6261 36.3006 62.0286 37.2178L61.7526 37.7337C61.6031 38.0203 61.0052 39.1783 60.4302 40.3133C59.8553 41.4484 59.1654 42.9961 58.9009 43.7528C58.6364 44.5095 58.2455 45.7707 58.0385 46.5617C57.7855 47.456 57.5671 48.0522 57.4406 48.1324C57.3256 48.2127 57.1301 48.2815 57.0036 48.2815C56.8771 48.2815 56.7161 48.2356 56.6472 48.1898C56.5782 48.1439 56.4632 47.9949 56.3942 47.8458C56.2792 47.6395 56.3252 47.3528 56.5897 46.298C56.7851 45.5872 57.1186 44.4751 57.3601 43.8102C57.5901 43.1452 58.0615 41.9643 58.4065 41.1732C58.7514 40.3821 59.4299 39.0178 59.9013 38.135C60.3842 37.2522 60.8557 36.4382 60.9477 36.3235C61.0397 36.2203 61.2122 36.1286 61.3386 36.1286ZM81.2085 37.5732C81.3695 37.6076 81.5305 37.6993 81.5764 37.7681C81.6224 37.8484 81.6684 38.0547 81.6684 38.2496C81.6569 38.4904 81.5304 38.7197 81.22 39.0178C80.8865 39.3388 80.6795 39.4535 80.3921 39.4535C80.1736 39.4535 79.9321 39.3847 79.8516 39.3044C79.7711 39.2356 79.7136 39.0063 79.7136 38.8229C79.7021 38.628 79.8056 38.3299 79.9321 38.1465C80.0586 37.963 80.3346 37.7452 80.5416 37.6649C80.7485 37.5732 81.0475 37.5388 81.2085 37.5732ZM62.5115 38.1121C62.5805 38.135 62.6495 38.2382 62.6725 38.3414C62.684 38.4445 62.4885 38.8802 62.2355 39.3044C61.9826 39.7286 61.4996 40.7261 61.1432 41.5172C60.7982 42.3082 60.2348 43.8216 59.8783 44.8993C59.5333 45.9656 59.1999 47.0662 59.1309 47.3299C59.0619 47.6395 58.9469 47.8229 58.8434 47.8229C58.7169 47.8229 58.6709 47.6968 58.6709 47.3643C58.6709 47.1121 59.0044 45.8968 59.4184 44.6356C59.9473 43.0305 60.4532 41.7923 61.1547 40.3707C61.6951 39.27 62.2011 38.2955 62.27 38.2152C62.3275 38.135 62.4425 38.0891 62.5115 38.1121ZM108.897 38.2955C109.001 38.2955 109.173 38.3758 109.265 38.4789C109.415 38.6395 109.415 38.6968 109.265 38.9605C109.173 39.121 108.782 39.591 108.403 40.0152C107.863 40.6114 107.713 40.8637 107.679 41.2305C107.644 41.563 107.771 42.1019 108.162 43.2369C108.553 44.3949 108.69 44.9566 108.69 45.4726C108.69 46.0344 108.633 46.2522 108.369 46.6764C108.185 46.963 107.84 47.3414 107.587 47.5363C107.345 47.7197 106.851 47.9834 106.506 48.1324C106.011 48.3274 105.655 48.3847 104.838 48.3847C104.034 48.3847 103.723 48.3388 103.459 48.1783C103.275 48.0522 103.033 47.8344 102.93 47.6853C102.826 47.5363 102.677 47.1923 102.608 46.9057C102.493 46.4815 102.504 46.2866 102.642 45.8165C102.734 45.4955 102.964 45.014 103.148 44.7273C103.321 44.4407 103.677 44.0509 103.919 43.8675C104.16 43.6726 104.551 43.4891 104.781 43.4662C105.126 43.4089 105.333 43.2254 106.195 42.2051C106.816 41.4598 107.368 40.6688 107.621 40.1414C107.84 39.6713 108.185 39.0637 108.369 38.7885C108.553 38.5248 108.794 38.307 108.897 38.2955ZM67.8929 49.6573C67.9389 49.6573 68.2379 50.0012 68.5599 50.4254C68.8703 50.8496 69.1348 51.2395 69.1348 51.2853C69.1348 51.3312 68.4794 52.1567 67.686 53.1197C66.8925 54.0828 66.0416 55.2063 65.8002 55.6191C65.5587 56.0318 65.2482 56.6853 65.1217 57.0751C64.9148 57.6828 64.8803 58.084 64.8803 61.4662L65.2252 61.6955C65.4437 61.8331 65.5702 62.0165 65.5702 62.177C65.5702 62.3261 65.4782 62.5324 65.3632 62.6471C65.2597 62.7503 65.0412 62.842 64.8803 62.842C64.7193 62.842 64.4893 62.7388 64.3628 62.6012C64.2018 62.4407 64.0523 62.3834 63.8454 62.4293C63.6844 62.4751 63.075 62.7503 61.4076 63.5872L56.2562 63.6445V49.7719H58.6479C60.7982 49.7719 61.0857 49.7949 61.5456 50.0127C61.8331 50.1388 62.2125 50.3796 62.3965 50.5516C62.569 50.7235 62.822 51.0675 62.96 51.3197C63.1439 51.6637 63.2014 51.9961 63.2014 52.6382C63.2129 53.2573 63.1554 53.6012 62.9945 53.8993C62.8795 54.1172 62.661 54.4267 62.224 54.8738L62.868 55.3554C63.2129 55.6305 63.5809 55.8713 63.6729 55.9057C63.7764 55.9401 64.1443 55.6649 64.6273 55.1834C65.0527 54.7592 65.6392 54.0484 65.9381 53.6012C66.2371 53.1656 66.6856 52.3745 66.927 51.8356C67.18 51.2968 67.479 50.5859 67.594 50.2535C67.709 49.921 67.8354 49.6573 67.8929 49.6573ZM84.4281 50.2305H86.7279C88.5447 50.2305 89.1196 50.2649 89.4646 50.4025C89.6946 50.5057 90.0395 50.7235 90.2235 50.8955C90.396 51.0675 90.649 51.4114 90.7754 51.6637C90.9019 51.9159 91.0399 52.3745 91.0744 52.6955C91.0974 53.0051 91.0744 53.4522 91.0054 53.67C90.9364 53.8879 90.695 54.3121 90.0625 55.1605L90.442 55.3783C90.6375 55.493 91.0514 55.8484 91.3389 56.1465C91.6264 56.456 91.9828 56.9261 92.1093 57.1898C92.2473 57.4649 92.4198 58.0267 92.4888 58.4509C92.5807 59.0356 92.5807 59.4025 92.4773 59.9184C92.3968 60.2968 92.2358 60.8127 92.0978 61.0649C91.9713 61.3172 91.6034 61.7987 91.2814 62.1312C90.9594 62.4637 90.4075 62.8764 90.0625 63.0484C89.4416 63.3465 89.3841 63.3579 84.4281 63.4152V50.2305ZM93.9721 50.2305H100.641V50.5745C100.641 50.7579 100.63 50.9299 100.618 50.9414C100.595 50.9528 99.296 50.9872 94.8345 51.0904V56.3643L100.699 56.4789V57.1668L94.892 57.2242V62.6127H100.756L100.699 63.3579H94.0296L93.9721 50.2305ZM106.966 50.2305C107.299 50.2305 107.449 50.2879 107.495 50.4254C107.529 50.5401 107.989 51.8127 108.518 53.2687C109.047 54.7133 110.07 57.5452 110.806 59.5401C111.542 61.5465 112.14 63.2318 112.14 63.3006C112.14 63.3579 111.968 63.4152 111.738 63.4152C111.393 63.4152 111.312 63.3579 111.186 63.0369C111.105 62.8305 110.622 61.5465 109.208 57.6713H107.023C105.379 57.6713 104.804 57.7057 104.712 57.8203C104.631 57.9006 104.114 59.1961 102.539 63.4152H102.113C101.688 63.4152 101.688 63.4038 101.78 63.0942C101.837 62.9223 102.355 61.5235 102.941 59.9758C103.528 58.428 104.539 55.6649 105.206 53.842C105.862 52.0076 106.425 50.4484 106.448 50.3681C106.483 50.2879 106.701 50.2305 106.966 50.2305ZM113.175 50.2305H115.107C116.487 50.2305 117.188 50.2764 117.602 50.4025C117.924 50.4942 118.441 50.7465 118.752 50.9643C119.074 51.1821 119.522 51.6293 119.752 51.9617C119.982 52.3057 120.27 52.8904 120.373 53.2687C120.511 53.7503 120.546 54.2203 120.511 54.8738C120.477 55.5847 120.385 55.9401 120.132 56.4675C119.936 56.8458 119.534 57.3732 119.212 57.6713C118.901 57.9579 118.361 58.3248 118.027 58.4853C117.694 58.6458 117.441 58.8178 117.476 58.8866C117.499 58.9439 118.142 59.9643 118.913 61.1452C119.683 62.3261 120.304 63.3235 120.304 63.3579C120.304 63.3923 120.086 63.4038 119.338 63.3579L117.958 61.2025C117.2 60.0216 116.475 59.0012 116.372 58.9324C116.257 58.8751 115.716 58.8407 114.152 58.8866L114.037 63.3579L113.175 63.4152V50.2305ZM122.374 50.2305H122.719C122.926 50.2305 123.087 50.2993 123.121 50.4025C123.156 50.4942 123.144 53.4637 123.006 63.4152H122.374V50.2305ZM129.457 50.2305C129.676 50.2305 129.894 50.2879 129.94 50.3681C129.986 50.4484 130.32 51.3426 130.665 52.3516C131.021 53.3605 131.872 55.7108 132.55 57.5681C133.229 59.4254 133.976 61.5006 134.678 63.4152L134.367 63.484C134.137 63.5414 133.999 63.507 133.873 63.3465C133.781 63.2203 133.482 62.5324 133.217 61.8102C132.941 61.0879 132.504 59.8726 131.745 57.7401L129.48 57.7057C127.226 57.6828 127.203 57.6828 127.088 57.935C127.02 58.084 126.537 59.3566 125.076 63.3579L124.651 63.3809C124.409 63.4038 124.214 63.3694 124.214 63.3235C124.214 63.2777 124.892 61.4089 125.72 59.1732C126.548 56.9375 127.376 54.6904 127.548 54.1859C127.721 53.6815 128.112 52.6267 128.411 51.8356C128.71 51.0445 128.974 50.3567 129.009 50.3108C129.032 50.2649 129.239 50.2305 129.457 50.2305ZM49.5524 63.6445C49.8744 63.6445 50.0584 63.7707 50.7483 64.47C51.3117 65.0433 51.7717 65.3872 52.2661 65.6165C52.8296 65.8688 53.255 65.9605 54.3014 66.0522C55.0373 66.121 55.6928 66.1439 55.7733 66.1095C55.8537 66.0751 55.9112 65.8917 55.9112 65.7082C55.9112 65.5133 56.0032 65.1694 56.1182 64.9401C56.2217 64.6993 56.5207 64.3668 56.7736 64.1949C57.0841 63.9656 57.3716 63.8624 57.6705 63.8738C57.9005 63.8738 58.2915 63.9656 58.5329 64.0917C58.7629 64.2063 59.3379 64.6993 60.6257 66.0522H98.6291L99.135 66.3044C99.411 66.4535 99.7445 66.7057 100.124 67.1872L99.434 68.1503V72.1745L99.1465 72.335C98.9166 72.4611 98.0886 72.4726 94.777 72.4152C92.5348 72.3809 89.4531 72.3006 87.9353 72.2318C86.4174 72.1745 83.2093 72.0484 80.806 71.9566C78.4028 71.8649 75.6891 71.7273 74.7692 71.6586C73.8608 71.5898 72.9984 71.4981 72.8719 71.4522C72.7224 71.3834 72.4349 70.856 71.3196 68.2305H66.835C64.3743 68.2305 62.3505 68.2649 62.3505 68.3108C62.3505 68.3566 62.9715 69.2051 63.7419 70.1796C64.5008 71.1541 65.4782 72.3694 65.9151 72.8738C66.3406 73.3783 67.318 74.3872 68.0654 75.1095C68.8128 75.8318 69.8707 76.7719 70.3997 77.2076C70.9401 77.6318 71.8945 78.3312 72.5269 78.7439C73.1594 79.1681 74.4817 79.9248 75.4591 80.4293C76.448 80.9337 78.0463 81.6445 79.0237 82.0114C80.0126 82.3783 81.22 82.8025 81.7259 82.963C82.2319 83.1121 83.2553 83.3643 84.0027 83.5248C84.7386 83.6853 85.831 83.8688 86.4174 83.9375C87.0039 84.0063 88.3147 84.1324 89.3496 84.2242C90.373 84.3159 91.8678 84.4993 92.6497 84.6254C93.4432 84.7516 94.2826 84.935 94.524 85.0267C94.754 85.1299 95.076 85.3248 95.2255 85.4624C95.3749 85.6 95.5934 85.9095 95.7084 86.1388C95.8579 86.4254 95.9499 86.9414 96.0074 87.6866C96.0534 88.4433 96.0304 89.0738 95.9269 89.6127C95.8234 90.1286 95.6509 90.5987 95.4209 90.9197C95.214 91.2293 94.8575 91.5388 94.547 91.6993C94.2711 91.8484 93.5696 92.0433 92.9947 92.1465C92.1783 92.2955 91.4654 92.3184 89.6026 92.2726C87.7858 92.2267 86.8429 92.135 85.463 91.9057C84.4856 91.7337 83.2093 91.47 82.6228 91.321C82.0364 91.1719 80.737 90.7707 79.7481 90.4496C78.5638 90.0598 77.2759 89.521 76.034 88.9133C74.9992 88.3859 73.4123 87.4917 72.5269 86.907C71.6415 86.3223 70.5031 85.5426 69.9972 85.1643C69.4913 84.7745 68.4909 83.9719 67.7549 83.3758C67.0305 82.7681 65.9036 81.7592 65.2367 81.1286C64.5813 80.4981 63.6384 79.4891 63.1324 78.893C62.638 78.2968 61.8676 77.2879 61.4421 76.6573C61.0052 76.0267 60.2923 74.8688 59.8553 74.0777C59.4069 73.2866 58.5444 71.6471 56.8311 68.2305L54.9683 68.1961C53.2895 68.1617 53.0136 68.1273 52.3466 67.8637C51.9442 67.7031 51.2887 67.3821 50.9093 67.1414C50.5298 66.9006 49.9204 66.4191 49.5524 66.0637C49.1845 65.7082 48.805 65.2611 48.7015 65.0777C48.575 64.8025 48.5635 64.6649 48.667 64.3898C48.736 64.1949 48.874 63.9541 48.9775 63.8395C49.081 63.7248 49.334 63.6445 49.5524 63.6445ZM95.3519 80.7961C95.5819 80.8305 97.0308 81.2777 98.5716 81.7821C100.124 82.2866 103.183 83.3184 105.356 84.0522C107.541 84.7974 112.094 86.3108 115.475 87.4344C118.867 88.5465 121.742 89.5324 121.891 89.6242C122.029 89.7044 122.179 89.8993 122.213 90.0369C122.259 90.1859 122.259 90.4382 122.213 90.6101C122.179 90.7821 122.052 91.0229 121.949 91.1375C121.788 91.298 121.489 91.3554 120.592 91.4127C119.729 91.4586 119.281 91.5503 118.809 91.7566C118.349 91.963 117.958 92.2726 117.372 92.9031C116.935 93.3847 116.05 94.1528 115.417 94.6229C114.75 95.1044 113.888 95.6318 113.347 95.8496C112.842 96.0675 112.014 96.3656 111.508 96.5146C110.921 96.6866 110.013 96.8242 108.978 96.9044C107.759 97.0076 107.127 96.9961 106.333 96.893C105.77 96.8127 104.861 96.6178 104.321 96.4688C103.792 96.3197 102.93 95.9758 102.424 95.7235C101.918 95.4713 101.228 95.0471 100.871 94.7719C100.526 94.5082 100.032 94.0611 99.779 93.7859C99.526 93.5108 99.158 93.0522 98.9626 92.7656C98.7671 92.4789 98.4221 91.8713 98.1921 91.4127C97.9622 90.9541 97.6402 90.163 97.4907 89.6356C97.3412 89.1197 97.1572 88.3057 97.0883 87.8356C97.0193 87.3656 96.8813 86.2076 96.7893 85.2789C96.6973 84.3503 96.5938 83.5363 96.5593 83.4789C96.5363 83.4102 96.3063 83.2611 96.0764 83.1465C95.8349 83.0203 95.4324 82.8828 95.1795 82.8369C94.9265 82.7796 94.6045 82.642 94.4665 82.5388C94.2711 82.3783 94.2021 82.2063 94.2021 81.8738C94.2021 81.6216 94.2711 81.3121 94.3401 81.1745C94.4205 81.0484 94.593 80.8993 94.7195 80.842C94.846 80.7847 95.1335 80.7617 95.3519 80.7961Z" fill="white"/>
<path d="M58.027 24.9618C58.119 25.2484 58.188 25.3287 58.2915 25.2484C58.4065 25.1567 58.4065 25.0765 58.2685 24.8472C58.1765 24.6867 58.05 24.5605 57.9925 24.5605C57.9351 24.5605 57.9581 24.744 58.027 24.9618ZM99.756 44.6586C99.365 45.1746 98.7441 45.9198 98.3877 46.3096C98.0197 46.6994 97.5022 47.2268 97.2263 47.4905C96.8238 47.8574 96.7663 47.9605 96.9273 47.9949C97.0653 48.0293 97.4333 47.7427 98.0542 47.1121C98.5716 46.5962 99.2386 45.8395 99.5605 45.4268C99.8825 45.014 100.262 44.5096 100.423 44.3032C100.607 44.0395 100.664 43.8905 100.584 43.8102C100.503 43.7414 100.216 44.0281 99.756 44.6586ZM84.3707 56.8344C84.3707 60.4918 84.3822 62.0166 84.3937 60.2166C84.4167 58.4166 84.4167 55.4242 84.3937 53.5669C84.3822 51.7096 84.3707 53.1771 84.3707 56.8344ZM94.823 55.9975L94.8345 56.3758H97.8817L94.892 56.3185C94.8115 55.6535 94.8115 55.6535 94.823 55.9975ZM77.7589 66.0293C78.9893 66.0523 81.036 66.0523 82.3009 66.0293C83.5658 66.0179 82.5539 66.0064 80.0586 66.0064C77.5634 66.0064 76.5285 66.0179 77.7589 66.0293Z" fill="white"/>
<path d="M115.843 34.7987C115.774 34.8675 115.521 35.5783 115.268 36.3694C115.015 37.1605 114.773 38.0089 114.727 38.2611C114.67 38.5936 114.693 38.7427 114.796 38.8C114.888 38.8458 117.867 38.8917 121.42 38.8917C126.928 38.8917 127.951 38.8688 128.296 38.7197C128.514 38.628 128.698 38.4675 128.698 38.3758C128.698 38.2611 128.353 38.0891 127.629 37.8713C127.054 37.6764 126.054 37.3898 125.421 37.2293C124.789 37.0688 123.467 36.6904 122.489 36.4038C121.512 36.1172 120.293 35.7618 119.787 35.6013C119.281 35.4522 118.269 35.1656 117.545 34.9821C116.82 34.7987 116.165 34.6497 116.096 34.6497C116.015 34.6497 115.912 34.7184 115.843 34.7872V34.7987ZM99.4341 78.3312C99.2386 78.377 98.9512 78.4917 98.7672 78.6063C98.5947 78.721 98.4682 78.8815 98.4797 79.0076C98.5027 79.1223 98.7787 79.3286 99.1467 79.5121C99.4916 79.6726 101.021 80.2229 102.539 80.7274C104.057 81.2318 106.379 81.9541 107.713 82.3439C109.036 82.7223 110.933 83.2611 111.91 83.5363C112.888 83.8229 114.865 84.3847 116.303 84.8089C118.752 85.5197 118.948 85.5541 119.212 85.3936C119.373 85.3019 119.58 85.0267 119.672 84.7974C119.775 84.5567 120.189 83.3643 120.592 82.1605C121.006 80.9452 121.374 79.7299 121.408 79.4662C121.454 79.1223 121.431 78.9274 121.328 78.8356C121.213 78.7325 119.626 78.6637 115.475 78.5719C112.347 78.5032 107.817 78.4 105.413 78.3426C103.01 78.2739 100.756 78.228 100.412 78.2395C100.067 78.2509 99.6181 78.2853 99.4341 78.3312Z" fill="#BEBEBE"/>
<path opacity="0.99" d="M95.0646 41.3337C94.7542 41.5286 94.1102 42.0904 93.6273 42.5604C93.1558 43.0305 92.4659 43.856 92.1095 44.3948C91.753 44.9337 91.3391 45.633 91.2011 45.9426C91.0631 46.2636 90.9251 46.8025 90.8906 47.1464C90.8446 47.6279 90.8791 47.8228 91.0286 47.9833C91.1321 48.0865 91.3735 48.1783 91.5575 48.1783C91.776 48.1783 92.0865 48.0407 92.3854 47.8114C92.6499 47.605 93.2823 46.94 93.7998 46.3439C94.3172 45.7477 94.9612 44.9451 95.2486 44.5668C95.5246 44.1884 95.973 43.4547 96.2375 42.9388C96.5135 42.4114 96.732 41.8611 96.732 41.7005C96.732 41.54 96.6745 41.3107 96.617 41.1846C96.5365 41.0126 96.387 40.9553 96.065 40.9553C95.7661 40.9553 95.4556 41.07 95.0646 41.3337ZM106.379 42.354C105.908 42.9273 105.494 43.4662 105.437 43.5579C105.391 43.6381 105.414 43.8674 105.471 44.0509C105.563 44.3146 105.54 44.4636 105.414 44.6814C105.299 44.8725 104.98 45.0598 104.459 45.2432C103.942 45.4381 103.562 45.656 103.309 45.9311C103.022 46.2521 102.941 46.447 102.941 46.8025C102.941 47.1464 103.022 47.3528 103.252 47.605C103.447 47.8228 103.735 47.9833 103.976 48.0177C104.195 48.0521 104.609 48.0177 104.896 47.949C105.23 47.8572 105.609 47.6165 105.988 47.2611C106.322 46.9515 106.724 46.4012 106.931 45.9884C107.127 45.5872 107.345 44.9681 107.403 44.6241C107.472 44.2802 107.495 43.3859 107.46 42.6521C107.426 41.9069 107.368 41.2993 107.322 41.2993C107.276 41.2993 106.851 41.7693 106.379 42.354ZM69.089 48.9349C68.905 49.0267 68.7555 49.1528 68.767 49.2101C68.7785 49.2789 68.8935 49.3247 69.02 49.3247C69.1465 49.3247 69.3534 49.2789 69.4799 49.2101C69.6064 49.1528 69.7099 49.0152 69.7099 48.9235C69.7099 48.8318 69.6409 48.7515 69.5604 48.7515C69.4914 48.763 69.273 48.8432 69.089 48.9349ZM75.9767 50.6662C75.9192 50.7005 75.8847 52.2254 75.8962 54.0483L75.9192 57.3502C78.7594 57.2814 79.0469 57.2356 79.5873 56.9948C79.9553 56.8343 80.4037 56.5018 80.6797 56.2037C80.9787 55.8712 81.2316 55.4241 81.3696 54.9999C81.5191 54.5298 81.5651 54.1286 81.5306 53.7388C81.4961 53.4292 81.3696 52.9362 81.2431 52.6496C81.1167 52.363 80.8407 51.9388 80.6222 51.6865C80.4037 51.4458 80.0358 51.1477 79.7943 51.033C79.5643 50.9069 79.0469 50.7693 78.6444 50.7005C78.2535 50.6432 77.5176 50.5859 77.0001 50.5859C76.4942 50.5859 76.0342 50.6203 75.9767 50.6662ZM57.1763 52.684V54.656C60.8904 54.5413 61.1893 54.4954 61.5458 54.2891C61.7643 54.163 62.0402 53.8649 62.1437 53.6356C62.2587 53.4063 62.3507 52.9821 62.3507 52.684C62.3507 52.34 62.2472 51.9388 62.0862 51.6292C61.9482 51.354 61.6723 51.033 61.4883 50.9184C61.1893 50.7349 60.8789 50.712 59.1541 50.7005H57.1763V52.684ZM114.107 54.484L114.095 58.0496C116.935 58.0381 117.073 58.0267 117.717 57.7171C118.154 57.5107 118.591 57.1897 118.902 56.8343C119.201 56.4904 119.465 56.0432 119.568 55.6993C119.66 55.3783 119.729 54.8279 119.729 54.4611C119.729 54.0598 119.626 53.5439 119.476 53.1426C119.338 52.7757 119.086 52.34 118.925 52.1566C118.764 51.9732 118.43 51.7095 118.177 51.5604C117.924 51.4228 117.43 51.2509 117.085 51.1821C116.74 51.1133 115.923 51.033 115.279 50.9872L114.118 50.9184L114.107 54.484ZM85.1182 52.8904V54.7247C88.5793 54.7247 89.1083 54.6789 89.3728 54.5528C89.5567 54.4496 89.8327 54.1859 89.9707 53.9451C90.1432 53.6585 90.2237 53.326 90.2352 52.9362C90.2352 52.5005 90.1547 52.2369 89.9362 51.9044C89.7752 51.6521 89.4533 51.3655 89.2233 51.2509C88.8668 51.0904 88.4759 51.056 86.958 51.056H85.1182V52.8904ZM105.965 54.1744L105.046 56.7311C105.862 56.8458 106.713 56.8802 107.449 56.8916C108.196 56.8916 108.829 56.8572 108.852 56.8114C108.875 56.7655 108.495 55.5846 108.001 54.1744C107.506 52.7757 107.058 51.6292 107 51.6292C106.931 51.6292 106.471 52.7757 105.965 54.1744ZM129.319 51.87C129.25 52.019 128.825 53.154 128.365 54.3808C127.905 55.619 127.537 56.6853 127.537 56.7655C127.549 56.8572 128.055 56.9031 129.446 56.9031C130.492 56.9031 131.343 56.8572 131.343 56.8114C131.343 56.7655 130.952 55.619 130.458 54.2662C129.975 52.9018 129.549 51.7553 129.515 51.698C129.469 51.6407 129.388 51.7095 129.319 51.87ZM57.1763 59.1388V62.7502C61.2583 62.6929 61.4078 62.67 61.9368 62.4063C62.2357 62.2458 62.6957 61.9018 62.9371 61.6267C63.1786 61.363 63.4891 60.9273 63.6271 60.6521C63.7651 60.3884 63.903 59.9069 63.926 59.5974C63.9605 59.2763 63.926 58.7375 63.8455 58.3935C63.7651 58.0381 63.6156 57.6025 63.5236 57.419C63.4316 57.2241 63.1901 56.8687 62.9946 56.6279C62.7877 56.3757 62.3507 56.0432 61.9482 55.8598C61.2583 55.5273 61.2353 55.5158 59.2115 55.5158L57.1763 55.5273V59.1388ZM85.2102 55.619C85.1067 55.6419 85.0722 56.3184 85.0952 58.1986C85.1067 59.5974 85.1527 61.1681 85.1987 61.684L85.2907 62.6356C88.9128 62.6356 88.9933 62.6241 89.6602 62.3031C90.0397 62.1311 90.5456 61.7642 90.7756 61.5005C91.0171 61.2369 91.2931 60.8585 91.408 60.6521C91.5115 60.4343 91.615 59.9069 91.6495 59.3681C91.684 58.6802 91.638 58.3247 91.4885 57.9349C91.385 57.6483 91.1436 57.2126 90.9596 56.9604C90.7756 56.7082 90.4077 56.3528 90.1432 56.1808C89.8787 55.9974 89.4763 55.8139 89.2578 55.7566C89.0393 55.6993 88.0619 55.6305 87.096 55.619C86.1301 55.5961 85.2792 55.5961 85.2102 55.619Z" fill="#0C0014"/>
<g opacity="0.99">
<path d="M118.982 29.7198C119.235 29.5364 119.775 29.2727 120.189 29.1122C120.603 28.9517 121.362 28.6306 121.512 28.6306C121.65 28.6192 121.799 28.8026 121.799 28.8599C121.799 28.9287 121.075 29.2039 120.626 29.4103C120.097 29.651 119.522 30.0408 119.074 30.4536C118.683 30.8205 118.361 31.2217 118.361 31.3364C118.349 31.5084 118.579 31.6345 119.442 31.9555C120.247 32.2536 122.144 33.0103 122.144 33.1593C122.144 33.3198 120.477 32.7466 120.224 32.6778C120.04 32.6205 119.361 32.4141 118.694 32.2077C118.028 32.0013 117.418 31.795 117.349 31.7491C117.249 31.6956 117.234 31.6039 117.303 31.474C117.361 31.3593 117.66 30.9924 117.959 30.6485C118.269 30.3045 118.729 29.8918 118.982 29.7198Z" fill="#0C0014"/>
<path d="M73.0444 68.6205C73.0444 67.9211 73.0559 67.9096 73.3549 67.8638C73.5389 67.8408 79.0583 67.8294 85.6356 67.8408C96.0764 67.8523 97.6403 67.8752 97.9392 68.0243C98.1232 68.116 98.3417 68.3224 98.4222 68.4829C98.4912 68.6434 98.5947 69.3083 98.6291 69.9733C98.7096 71.0854 98.6981 71.2001 98.4682 71.4867C98.2267 71.7962 98.2037 71.8077 96.9273 71.8077C96.2259 71.8077 94.3976 71.7504 92.8798 71.6931C91.3619 71.6357 88.6942 71.5326 86.9579 71.4638C85.2216 71.395 82.0824 71.2689 80.0012 71.1771C77.9084 71.074 75.6317 70.9478 74.9417 70.8791C74.0333 70.7988 73.6194 70.7071 73.4699 70.5695C73.3549 70.4548 73.2169 70.1338 73.1594 69.8587C73.1019 69.572 73.0559 69.0217 73.0444 68.6205Z" fill="#0C0014"/>
<path d="M98.1117 85.3364C98.1117 84.8548 98.1462 84.3619 98.1807 84.2128C98.2152 84.0752 98.2957 83.9606 98.3532 83.9606C98.4107 83.9606 99.5261 84.2931 100.837 84.6943C102.159 85.0956 104.206 85.772 105.413 86.1962C106.609 86.6205 108.576 87.2969 109.783 87.6867C110.979 88.0765 113.164 88.7529 113.175 88.8217C113.198 88.902 112.715 88.9822 111.853 88.7071C111.692 88.7071 110.898 88.5236 110.208 88.3631C109.53 88.2026 107.966 87.7899 106.736 87.4345C105.505 87.0905 103.758 86.609 102.849 86.3568C101.86 86.0816 100.963 85.9096 100.584 85.9096C100.066 85.9096 99.917 85.9555 99.7445 86.1619C99.6295 86.3109 99.5031 86.7351 99.4571 87.1708C99.3881 87.6752 99.4226 88.2255 99.5375 88.8905C99.641 89.4408 99.8825 90.209 100.101 90.6676C100.308 91.1033 100.653 91.7224 100.871 92.0434C101.078 92.3529 101.504 92.8918 101.803 93.2472C102.102 93.5912 102.55 94.0268 102.815 94.2217C103.068 94.4052 103.286 94.6001 103.286 94.6459C103.286 94.6918 103.148 94.6803 102.964 94.6115C102.792 94.5427 102.297 94.2217 101.86 93.8892C101.423 93.5682 100.814 93.0179 100.503 92.674C100.193 92.3185 99.7215 91.5962 99.4456 91.0689C99.1696 90.53 98.8131 89.6816 98.6521 89.1771C98.4912 88.6727 98.3072 87.7899 98.2382 87.2281C98.1692 86.6548 98.1117 85.8064 98.1117 85.3364Z" fill="#0C0014"/>
<path d="M91.4884 88.3746C91.5229 88.1224 91.6609 87.8013 91.7989 87.6523C91.9944 87.4574 92.1784 87.4001 92.6383 87.4001C92.9603 87.4001 93.2822 87.4345 93.3397 87.4803C93.4087 87.5262 93.5582 87.6982 93.6617 87.8587C93.7652 88.0077 93.8572 88.3173 93.8572 88.5466C93.8572 88.7644 93.7882 89.051 93.6962 89.1771C93.6157 89.3033 93.3742 89.4752 93.1557 89.567C92.8453 89.6931 92.6728 89.6931 92.3278 89.5899C92.0979 89.5211 91.7874 89.3147 91.6609 89.1427C91.4769 88.902 91.4309 88.73 91.4884 88.3746Z" fill="#0C0014"/>
</g>
<g opacity="0.99">
<path d="M115.82 37.9172C115.82 37.8599 115.958 37.2981 116.131 36.6905C116.303 36.0714 116.487 35.5669 116.533 35.5669C116.579 35.5669 116.625 35.8077 116.625 36.1172C116.625 36.4153 116.579 36.8395 116.51 37.0573C116.453 37.2752 116.269 37.5847 116.108 37.7452C115.947 37.9057 115.82 37.986 115.82 37.9172Z" fill="#0C0014"/>
<path d="M112.819 46.837C112.784 46.7911 112.934 46.1835 113.152 45.507C113.394 44.7733 113.601 44.2803 113.681 44.3147C113.75 44.3376 113.808 44.5898 113.796 44.865C113.796 45.1401 113.704 45.6675 113.601 46.0344C113.463 46.4815 113.325 46.7223 113.141 46.814C113.003 46.8828 112.853 46.8943 112.819 46.837Z" fill="#0C0014"/>
</g>
<path opacity="0.99" d="M104.655 69.0561C104.896 68.265 105.161 67.4625 105.23 67.279C105.356 66.958 105.379 66.9465 105.494 67.1415C105.563 67.2676 105.598 67.6459 105.563 68.0013C105.54 68.4255 105.391 68.9185 105.161 69.4C104.965 69.8013 104.689 70.2485 104.563 70.3746C104.425 70.5007 104.298 70.5695 104.264 70.5465C104.229 70.5122 104.402 69.8357 104.655 69.0561Z" fill="#0C0014"/>
<path d="M86.268 55.5962C86.682 55.6191 87.3719 55.6191 87.8204 55.5962C88.2688 55.5732 87.9239 55.5618 87.0729 55.5618C86.222 55.5618 85.8541 55.5732 86.268 55.5962Z" fill="#2C4866"/>
<path d="M121.661 28.5846C121.293 28.6763 121.247 28.7107 121.374 28.8483C121.489 28.9859 121.604 28.9859 122.167 28.8254C122.523 28.7222 122.845 28.5961 122.903 28.5502C122.949 28.4929 122.788 28.4585 122.535 28.47C122.293 28.4814 121.891 28.5273 121.661 28.5846ZM120.5 32.563C120.454 32.7235 120.822 32.884 122.477 33.4228C123.593 33.7897 124.524 34.0649 124.559 34.0305C124.593 33.9961 124.49 33.9158 124.329 33.8585C124.168 33.8012 123.374 33.4916 122.546 33.1706C121.73 32.8496 120.937 32.5286 120.799 32.4712C120.603 32.391 120.534 32.4139 120.5 32.563ZM68.7438 48.4305C68.6058 48.6254 68.5943 48.7056 68.6978 48.7286C68.7783 48.7515 68.9968 48.7056 69.1692 48.6139C69.3417 48.5337 69.4682 48.419 69.4452 48.3502C69.4222 48.2814 69.2957 48.2241 69.1692 48.2012C69.0198 48.1783 68.8588 48.27 68.7438 48.4305ZM58.0384 50.6661C58.5444 50.6891 59.3493 50.6891 59.8208 50.6661C60.2922 50.6547 59.8782 50.6318 58.9009 50.6318C57.9235 50.6318 57.5325 50.6547 58.0384 50.6661ZM57.13 55.5502C57.107 55.6305 57.0956 57.2585 57.1071 59.1846L57.1185 62.6814L57.176 55.5158L60.7981 55.447C57.6015 55.4126 57.1645 55.4356 57.13 55.5502ZM111.968 88.5808C111.876 88.6954 111.991 88.7642 112.485 88.8674C112.83 88.9477 113.221 88.9935 113.347 88.9706C113.508 88.9362 113.382 88.856 112.945 88.7184C112.6 88.5923 112.267 88.4891 112.198 88.4661C112.14 88.4432 112.037 88.5005 111.968 88.5808Z" fill="#0C0014"/>
<path d="M76.6436 68.6664C75.1717 68.7008 74.8843 68.7237 74.8843 68.8727C74.8843 69.0218 75.1717 69.0332 77.0345 68.9759C78.2304 68.9415 80.0242 68.9644 80.1162 68.93C80.2542 68.8842 81.5651 68.7351 81.3811 68.6664C81.2546 68.609 78.9203 68.609 78.7364 68.6205C78.5524 68.632 77.598 68.6549 76.6321 68.6664H76.6436Z" fill="white"/>
<path d="M82.186 68.586C80.4726 68.6204 79.1733 68.6662 79.2768 68.6777C79.4033 68.6892 79.4493 68.758 79.4033 68.8382C79.3343 68.9414 79.7482 68.9529 81.1511 68.8955C82.163 68.8497 85.4976 68.7579 88.5678 68.6892C91.6379 68.6204 94.1906 68.5516 94.2596 68.5286C94.3286 68.5057 92.3279 68.4943 89.8326 68.5057C87.3374 68.5172 83.8993 68.5516 82.186 68.586Z" fill="white"/>
</g>
<defs>
<clipPath id="clip0_405_3224">
<rect width="91.875" height="90" fill="white" transform="translate(45.5625 10)"/>
</clipPath>
</defs>
</svg>
