<svg width="183" height="110" viewBox="0 0 183 110" fill="none" xmlns="http://www.w3.org/2000/svg">
<rect width="183" height="110" fill="#AC232A"/>
<path opacity="0.99" fill-rule="evenodd" clip-rule="evenodd" d="M88.1313 10C88.8536 10 89.0944 10.0459 89.6103 10.3096C89.9542 10.493 90.3785 10.814 90.5504 11.0318C90.7224 11.2497 90.9517 11.6968 91.0663 12.0064C91.2039 12.4076 91.2383 12.786 91.2039 13.2675C91.1581 13.7261 90.9861 14.2879 90.2065 16.0191L92.5224 16.0879C93.795 16.1338 95.5606 16.2484 96.4434 16.3631C97.3262 16.4662 98.6906 16.6726 99.4816 16.8217C100.273 16.9822 101.649 17.3146 102.543 17.5669C103.449 17.8191 104.767 18.2433 105.466 18.4955C106.177 18.7592 107.461 19.2866 108.31 19.6764C109.158 20.0662 110.396 20.6854 111.061 21.0637C111.726 21.4306 112.964 22.1987 113.813 22.772C114.661 23.3452 115.888 24.2395 117.711 25.707L118.708 25.3631C119.27 25.1796 120.233 24.9503 120.864 24.8471C121.494 24.7554 122.308 24.6752 122.664 24.6752C123.031 24.6752 123.73 24.7325 124.212 24.8013C124.705 24.8586 125.599 25.0879 126.195 25.2828C126.791 25.4892 127.697 25.879 128.19 26.1656C128.683 26.4522 129.485 27.0484 129.956 27.4841C130.426 27.9197 131.045 28.6535 131.343 29.0892C131.641 29.5248 132.042 30.2815 132.237 30.7516C132.432 31.2217 132.673 32.0127 132.776 32.4943C132.879 32.9873 132.959 33.5032 132.959 33.6408C132.971 33.7898 133.177 34.0994 133.441 34.3631C133.705 34.6153 134.026 35.051 134.152 35.3376C134.347 35.7389 134.392 36.0828 134.392 36.9427C134.392 37.8943 134.358 38.1006 134.094 38.6051C133.922 38.9146 133.544 39.3962 133.235 39.6713C132.925 39.935 132.443 40.2331 132.157 40.3248C131.87 40.428 131.457 40.4968 131.24 40.4968C130.964 40.4968 130.758 40.5771 130.586 40.749C130.46 40.8981 130.162 41.1159 129.531 41.4713L130.013 41.9873C130.265 42.2739 130.586 42.7325 130.712 43.0191C130.827 43.3057 130.953 43.8904 130.987 44.3376C131.022 44.842 130.964 45.4841 130.85 46.0573C130.747 46.5618 130.632 47.0777 130.598 47.2038C130.552 47.3873 130.632 47.479 131.01 47.6624C131.285 47.7885 131.71 48.121 131.973 48.4076C132.237 48.6943 132.512 49.0841 132.581 49.2675C132.661 49.451 133.739 52.4204 137.247 62.1083L137.282 63.335C137.305 64.1032 137.27 64.5732 137.201 64.5732C137.144 64.5732 137.11 64.6191 137.144 64.6879C137.178 64.7567 137.029 65.0204 136.823 65.2841C136.617 65.5592 136.261 65.8917 136.043 66.0408C135.837 66.1898 135.39 66.3847 135.08 66.4764C134.656 66.5911 133.899 66.6369 129.921 66.6255L129.428 68.093C129.153 68.907 128.671 70.1796 128.35 70.9363C128.029 71.693 127.559 72.7478 127.284 73.2866C127.02 73.8255 126.493 74.7771 126.138 75.4076C125.771 76.0382 125.22 76.9439 124.899 77.414C124.338 78.2395 124.326 78.2968 124.349 79.0191C124.361 79.5236 124.269 80.1083 124.063 80.8535C123.902 81.4497 123.432 82.8943 123.019 84.0637C122.606 85.2331 122.228 86.265 122.182 86.3567C122.102 86.4943 122.217 86.5745 122.652 86.7236C122.985 86.8497 123.478 87.1707 123.868 87.5376C124.28 87.9274 124.636 88.386 124.819 88.7758C125.06 89.2917 125.106 89.5669 125.106 90.4268C125.106 91.3554 125.071 91.5389 124.739 92.2038C124.533 92.628 124.166 93.144 123.879 93.3962C123.615 93.6484 123.099 93.9809 122.756 94.1414C122.285 94.3478 121.85 94.4395 119.901 94.5541L119.293 95.2306C118.961 95.6089 118.066 96.3771 117.31 96.9503C116.496 97.558 115.475 98.2 114.787 98.521C114.157 98.8191 113.045 99.2433 112.322 99.4497C111.6 99.6561 110.992 99.8624 110.97 99.9083C110.958 99.9656 109.777 100 108.333 100C106.166 100 105.558 99.9541 104.698 99.7707C104.136 99.6446 103.277 99.4153 102.806 99.2548C102.336 99.0943 101.477 98.7389 100.915 98.4408C100.353 98.1541 99.5275 97.6497 99.0918 97.3287C98.6562 96.9962 97.9339 96.3312 96.6727 94.944L96.1568 95.0127C95.8702 95.0471 94.609 95.1503 93.3479 95.242C92.0867 95.3338 90.5619 95.414 89.9657 95.414C89.3695 95.414 88.3148 95.3567 87.6154 95.2994C86.916 95.2306 85.7122 95.0701 84.9211 94.944C84.13 94.8178 82.9492 94.5885 82.2842 94.428C81.6192 94.2675 80.1746 93.8318 79.074 93.465C77.9734 93.1096 76.5288 92.5592 75.8638 92.2611C75.1988 91.9631 74.1441 91.4357 73.5135 91.0917C72.8829 90.7478 71.4842 89.8764 70.4179 89.1656C69.3517 88.4433 67.9071 87.4115 67.2078 86.8612C66.5084 86.3108 65.3848 85.3592 64.6855 84.7516C63.9861 84.1325 62.9313 83.1236 62.3351 82.5045C61.7275 81.8739 60.9249 80.9796 60.5466 80.5096C60.1568 80.0395 59.4574 79.0764 58.9874 78.3885C58.5058 77.7006 57.7835 76.5312 57.3708 75.8089C56.9695 75.0866 56.2702 73.7796 55.0549 71.3376H54.3899C54.0345 71.3376 53.3581 71.2688 52.8995 71.1771C52.4523 71.0854 51.6842 70.8675 51.2141 70.6841C50.7441 70.5121 49.9415 70.0994 49.4371 69.7898C48.8638 69.4459 48.0842 68.7924 47.3619 68.0815C46.7084 67.4166 46.1007 66.7057 45.9632 66.4076C45.7568 65.9834 45.7109 65.6854 45.7109 64.7452C45.7109 63.6331 45.7224 63.5758 46.1122 62.9108C46.3415 62.5325 46.7199 62.028 46.9492 61.7873C47.1785 61.5465 47.66 61.214 48.0039 61.0535C48.4396 60.8357 48.8753 60.7325 49.4371 60.6981C50.0791 60.6637 50.3772 60.7096 50.9275 60.9159C51.3058 61.065 51.8562 61.3745 52.1542 61.6153C52.5326 61.9134 52.7046 61.9936 52.7046 61.879C52.7046 61.7873 52.6128 61.0535 52.5097 60.2395C52.3721 59.2191 52.3148 57.9006 52.3148 55.8025C52.3148 54.0369 52.3721 52.3057 52.4523 51.5605C52.5326 50.8611 52.7046 49.7032 52.8307 48.9809C52.9453 48.2586 53.232 46.9401 53.4498 46.0573C53.6676 45.1745 54.0689 43.7758 54.3555 42.9618C54.6307 42.1478 55.1007 40.9096 55.3988 40.2102C55.6969 39.5108 56.1899 38.4446 56.4995 37.8255C56.809 37.2178 57.3708 36.1975 58.4371 34.4204L57.1071 30.9465C56.3734 29.0433 55.5937 26.9911 55.3759 26.3949C55.0434 25.4662 54.9976 25.1911 55.032 24.5605C55.0549 24.1248 55.1695 23.6318 55.3071 23.3567C55.4447 23.1045 55.7772 22.6803 56.0753 22.4166C56.4421 22.0726 56.7976 21.8662 57.2562 21.7401C57.7033 21.614 58.0931 21.5796 58.4371 21.6369C58.7237 21.6828 59.2052 21.8548 59.5148 22.0153C59.8243 22.1873 60.26 22.5312 60.4893 22.7949C60.7186 23.0471 61.4523 24.3541 63.367 28.1147L64.4791 27.0713C65.0982 26.4866 66.1186 25.5924 66.7492 25.0764C67.3797 24.549 68.4574 23.735 69.1568 23.242C69.8562 22.7605 70.9683 22.0268 71.6447 21.6255C72.3326 21.2242 73.4676 20.6051 74.167 20.2497C74.8778 19.8943 76.0816 19.3439 76.8383 19.0344C77.595 18.7248 78.9135 18.2548 79.7619 17.9796C80.6103 17.7045 81.4816 17.4522 81.6765 17.4064C82.009 17.349 82.1237 17.2229 82.5937 16.3401C82.8804 15.7783 83.6829 14.4025 84.3593 13.2675C85.0358 12.1325 85.7925 11.0089 86.0332 10.7796C86.274 10.5503 86.6523 10.2752 86.8702 10.1834C87.0995 10.0803 87.6269 10.0115 88.1313 10ZM89.1632 20.972C88.9453 20.9949 88.6014 21.0408 88.4065 21.0752C88.2116 21.0981 88.0396 21.2013 88.0281 21.293C88.0167 21.4306 88.2001 21.465 88.9568 21.465C89.4842 21.465 90.0804 21.4306 90.2867 21.3847C90.5313 21.3236 90.6536 21.228 90.6536 21.0981C90.6536 20.9261 90.5619 20.8917 90.1033 20.9146C89.8052 20.9146 89.381 20.949 89.1632 20.972ZM86.4689 21.3159C86.4116 21.3503 86.3772 21.4535 86.3886 21.5452C86.4001 21.6255 86.5377 21.6943 86.6982 21.6943C86.8587 21.6943 87.0651 21.6713 87.1568 21.6369C87.2485 21.6025 87.3288 21.4994 87.3288 21.4076C87.3288 21.293 87.2141 21.2357 86.9504 21.2357C86.7326 21.2357 86.5262 21.2701 86.4689 21.3159Z" fill="white"/>
<path fill-rule="evenodd" clip-rule="evenodd" d="M87.902 13.4395C87.9708 13.4395 88.0167 13.4738 88.0167 13.5312C88.0167 13.577 87.3173 15.1363 86.4574 16.9936C85.5975 18.8509 84.1644 21.8662 83.2816 23.7006C82.3988 25.5235 81.3555 27.7248 80.9657 28.5732C80.5644 29.4216 79.6128 31.4395 78.8447 33.0445C78.0765 34.6496 76.6205 37.7223 75.6116 39.8662C74.6026 42.0102 73.3759 44.5668 72.8714 45.5414C72.3784 46.5159 71.7593 47.6509 71.4956 48.0637C71.0485 48.7745 71.0141 48.7974 70.8651 48.5796C70.7733 48.4535 70.4638 47.7885 70.1772 47.0891C69.6956 45.9312 69.6612 45.7936 69.7759 45.3923C69.8447 45.163 69.9479 44.9452 70.0167 44.9108C70.0854 44.8764 70.5784 44.9681 72.1033 45.3694L72.3096 45.0828C72.4358 44.9223 73.181 43.4318 73.9835 41.7579C74.7861 40.084 77.1135 35.3605 79.1542 31.2675C81.195 27.163 82.8574 23.735 82.8574 23.6433C82.8574 23.4942 82.846 23.4942 82.7084 23.6433C82.6167 23.735 81.9402 25.0764 81.195 26.6242C80.4498 28.1719 78.1224 32.884 76.0358 37.1146C73.9377 41.3452 72.1377 44.8649 72.0345 44.9452C71.8854 45.0598 71.702 45.0369 71.0485 44.8535C70.6128 44.7274 70.246 44.6012 70.246 44.5668C70.246 44.5324 71.4039 42.4802 72.8141 40.0152C74.2243 37.5388 76.9071 32.7235 78.7874 29.3184C80.6676 25.9133 83.0523 21.6369 84.0842 19.8025C85.1275 17.9796 86.2625 15.9847 86.6179 15.3885C86.9619 14.7923 87.3746 14.1044 87.5237 13.8751C87.6727 13.6344 87.8447 13.4395 87.902 13.4395ZM91.823 19.4127C93.1415 19.4127 94.7122 19.4586 95.3198 19.5274C95.9389 19.5847 97.3491 19.8254 98.4498 20.0433C99.5504 20.2611 101.052 20.5936 101.775 20.7885C102.497 20.9719 103.77 21.3961 104.584 21.7172C105.398 22.0382 106.75 22.6229 107.564 23.0127C108.424 23.414 110.052 24.3656 111.405 25.2369C112.701 26.0853 113.95 26.9337 114.18 27.1286C114.524 27.4152 114.615 27.5643 114.615 27.8853C114.615 28.1031 114.558 28.3554 114.478 28.4356C114.398 28.5044 114.226 28.5732 114.077 28.5732C113.927 28.5732 113.698 28.5159 113.549 28.4471C113.412 28.3668 112.987 28.0688 112.609 27.7707C112.231 27.4726 111.325 26.842 110.603 26.3605C109.88 25.8904 108.745 25.214 108.08 24.87C107.415 24.5146 106.28 23.9758 105.558 23.6662C104.836 23.3566 103.77 22.9439 103.208 22.749C102.634 22.5541 101.27 22.1643 100.17 21.8891C99.0116 21.591 97.3377 21.27 96.2141 21.121C94.5058 20.9031 93.8982 20.8688 91.2842 20.9146C88.9683 20.9605 87.9364 21.0293 86.6409 21.2242C85.7237 21.3732 84.944 21.442 84.8867 21.3847C84.8409 21.3388 84.9326 20.9949 85.0931 20.6395C85.2651 20.2382 85.4829 19.9286 85.6319 19.8598C85.781 19.8025 86.6982 19.6764 87.6727 19.5961C88.6472 19.5044 90.516 19.4242 91.823 19.4127ZM83.0523 20.4331C83.1326 20.4331 83.2014 20.5019 83.2014 20.5821C83.2014 20.6509 83.0409 21.0063 82.4561 21.9809L80.2778 22.7261C79.074 23.1388 77.3772 23.8267 76.4944 24.2509C75.6116 24.6866 74.3504 25.363 73.6854 25.7643C73.0205 26.1656 71.9657 26.8649 71.3351 27.3121C70.7046 27.7707 69.7186 28.5503 69.1568 29.0433C68.5835 29.5248 67.7581 30.3044 67.2995 30.7745C66.8409 31.2331 65.9466 32.2305 65.2931 32.9758C64.6396 33.7324 64.0549 34.363 63.9975 34.3859C63.9288 34.4089 63.7682 34.2025 63.6192 33.9388C63.4816 33.6637 63.367 33.3426 63.367 33.2165C63.3784 33.0904 63.8829 32.4254 64.502 31.7261C65.1326 31.0267 66.0956 30.0178 66.6574 29.4789C67.2077 28.9401 68.102 28.1375 68.6409 27.6904C69.1797 27.2433 70.1772 26.4866 70.8765 25.9936C71.5644 25.5121 72.837 24.721 73.6854 24.2395C74.5339 23.7579 75.8753 23.07 76.6663 22.7146C77.4574 22.3592 78.6154 21.8777 79.246 21.6484C79.8765 21.4076 80.9542 21.0407 81.6536 20.8344C82.3415 20.6165 82.9835 20.4445 83.0523 20.4331ZM92.316 21.4191C93.0727 21.4535 94.3912 21.5452 95.2396 21.6369C96.088 21.7286 97.2803 21.8777 97.8765 21.9694C98.4727 22.0611 99.6995 22.3477 100.594 22.6114C101.499 22.8637 102.818 23.2764 103.517 23.5401C104.228 23.8038 105.489 24.3312 106.303 24.7324C107.117 25.1337 108.333 25.7872 108.998 26.1885C109.663 26.5783 110.717 27.2777 111.348 27.7248C111.978 28.1834 112.62 28.6764 112.781 28.8484C113.01 29.0891 113.033 29.1579 112.896 29.2152C112.804 29.2496 112.62 29.2267 112.494 29.1694C112.368 29.1121 111.806 28.7108 111.233 28.2866C110.66 27.8624 109.766 27.2433 109.227 26.9223C108.688 26.5898 107.713 26.028 107.049 25.6726C106.384 25.3286 105.122 24.7554 104.24 24.4C103.357 24.056 101.935 23.563 101.087 23.2993C100.238 23.0471 98.8969 22.7146 98.1058 22.5541C97.3147 22.4051 95.916 22.1987 94.9759 22.0955C94.0472 22.0038 92.4995 21.9235 91.5364 21.935C90.5848 21.935 89.2778 21.9809 88.6472 22.0267C88.0167 22.084 86.8243 22.2445 85.9874 22.3936C85.1619 22.5426 84.4396 22.6229 84.3823 22.577C84.3364 22.5312 84.3937 22.3936 84.5198 22.2675C84.6918 22.0955 85.116 21.9809 86.2969 21.8089C87.1453 21.6828 88.544 21.5337 89.3925 21.4764C90.2409 21.4191 91.5593 21.3961 92.316 21.4191ZM81.7339 22.8407C81.7912 22.8407 81.86 22.9095 81.8944 22.9898C81.9402 23.0586 81.8714 23.2076 81.7568 23.3108C81.6307 23.414 80.8969 23.7121 80.1058 23.9872C79.3147 24.2509 78.0765 24.7439 77.3542 25.0649C76.6319 25.3859 75.4167 26.028 74.66 26.4751C73.9033 26.9223 72.86 27.5872 72.344 27.9541C71.8396 28.3324 70.9109 29.0547 70.2803 29.5592C69.6612 30.0751 68.5606 31.107 67.8383 31.8522C67.116 32.6089 66.2103 33.6063 65.8319 34.0764C65.4536 34.5465 65.0409 35.0853 64.9147 35.2688C64.7542 35.4981 64.6281 35.5783 64.4791 35.521C64.3071 35.4637 64.2956 35.4178 64.4447 35.1426C64.5249 34.9592 64.9262 34.4089 65.3275 33.9044C65.7288 33.4 66.7835 32.2649 67.6663 31.3707C68.5491 30.4764 69.8103 29.3184 70.4753 28.8025C71.1402 28.2751 72.2982 27.4382 73.0549 26.9452C73.8116 26.4407 75.3593 25.5694 76.4944 25.0076C77.6294 24.4458 79.2574 23.7235 80.1058 23.414C80.9542 23.1044 81.688 22.8522 81.7339 22.8407ZM58.5632 25.2025C58.5975 25.2598 59.767 27.5528 61.1542 30.293C62.553 33.0331 64.2842 36.4152 65.0065 37.8025C65.7288 39.1898 66.8982 41.3566 67.5861 42.6178C68.2854 43.8789 68.8358 44.9337 68.8243 44.9681C68.8014 45.0025 68.446 45.1286 68.0332 45.2547C67.3682 45.4611 67.2651 45.4611 67.0816 45.3121C66.9784 45.2203 66.5886 44.5439 66.2332 43.8216C65.8663 43.0993 65.2358 41.7006 64.823 40.7261C64.4103 39.7516 63.7568 38.135 63.3784 37.149C62.9886 36.1516 62.6218 35.3605 62.5644 35.3949C62.4956 35.4293 62.5415 35.6586 62.6676 36.0025C62.7937 36.3006 63.3899 37.7337 63.9975 39.1783C64.6052 40.6229 65.488 42.6178 65.9466 43.5923C66.4167 44.5668 66.8867 45.4382 67.0014 45.507C67.1733 45.6216 67.3682 45.6102 68.0332 45.4267C68.4918 45.3006 68.8931 45.1974 68.9275 45.1974C68.9619 45.1974 69.2026 45.6789 69.4778 46.2637C69.753 46.8369 70.3721 48.2242 70.8651 49.3248C71.4154 50.5859 71.9542 51.6178 72.3096 52.1108C72.7109 52.6382 73.1695 53.0853 74.7746 54.2089L74.7975 54.8624C74.8205 55.2178 74.8778 55.5159 74.9466 55.5159C75.0154 55.5159 75.0727 54.4726 75.1186 49.8407H79.246L79.9912 50.1961C80.4383 50.414 80.9084 50.7579 81.1721 51.056C81.4243 51.3312 81.7339 51.7898 81.8829 52.0764C82.0319 52.363 82.2039 52.9248 82.2842 53.3375C82.353 53.7503 82.3874 54.2662 82.3415 54.484C82.3071 54.7019 82.1925 55.149 82.0778 55.4586C81.9746 55.7796 81.7109 56.2611 81.4816 56.5477C81.2523 56.8344 80.8167 57.2356 80.4956 57.4305C80.1861 57.6369 79.739 57.8433 79.4867 57.8891C79.246 57.9465 79.0281 58.0152 79.0052 58.0726C78.9823 58.1184 79.3377 58.2445 79.7848 58.3477C80.2893 58.4624 80.8281 58.6917 81.1377 58.898C81.4243 59.1044 81.8026 59.4598 81.9746 59.7121C82.1581 59.9528 82.3415 60.3885 82.3988 60.6751C82.4561 60.9617 82.502 61.5809 82.502 62.0509C82.5135 62.521 82.4676 62.9796 82.4218 63.0598C82.3759 63.1401 82.1925 63.1974 81.6536 63.1401L81.6995 62.1082C81.7339 61.2025 81.7109 61.0076 81.4702 60.5146C81.2982 60.1592 81.023 59.8267 80.7364 59.6318C80.4842 59.4713 79.9912 59.242 79.6472 59.1388C79.2001 59.0012 78.8332 58.9668 78.3861 59.0242C78.0421 59.0586 77.5721 59.1732 77.3542 59.2649C77.1364 59.3567 76.8268 59.5401 76.6893 59.6777C76.5402 59.8152 76.3339 60.0904 76.2421 60.2738C76.1275 60.4917 76.0358 61.0879 75.9211 63.1974H75.2332L75.1415 61.2254C75.0956 60.1363 75.0154 58.8293 74.9581 58.3248C74.9007 57.8203 74.7402 57.0751 74.6026 56.6624C74.4651 56.2496 74.1899 55.6879 73.995 55.4012C73.8001 55.1146 73.4218 54.6789 73.1695 54.4267C72.9173 54.1745 72.0116 53.3719 71.1632 52.6382C70.2345 51.8356 69.3632 50.9643 68.9733 50.4598C68.6179 49.9898 68.0332 49.0726 67.6663 48.4076C67.2995 47.7426 66.646 46.4815 66.2218 45.5987C65.7975 44.7159 64.9606 42.7554 64.3644 41.242C63.7568 39.7286 62.7249 37.0688 62.0714 35.3375C61.4065 33.6063 60.2944 30.6598 59.5835 28.8025C58.781 26.67 58.3453 25.363 58.4026 25.2598C58.4485 25.1681 58.5173 25.1452 58.5632 25.2025ZM122.606 27.6675C123.065 27.656 123.822 27.7248 124.269 27.8165C124.727 27.9082 125.415 28.1031 125.794 28.2522C126.172 28.4012 126.791 28.7452 127.17 28.9974C127.548 29.2611 128.018 29.6395 128.224 29.8458C128.419 30.0637 128.775 30.5452 129.004 30.9235C129.222 31.3019 129.52 31.8981 129.657 32.242C129.829 32.7006 129.91 33.2509 130.036 35.7388L131.48 36.4267L131.446 36.8853C131.412 37.2751 131.366 37.3439 131.125 37.3783C130.964 37.4012 130.322 37.2751 129.692 37.1146C129.061 36.9426 126.894 36.3121 124.877 35.7159C122.859 35.1082 120.199 34.3286 118.972 33.9617C117.745 33.6063 116.198 33.1363 115.556 32.9184C114.902 32.7006 114.271 32.4369 114.145 32.3337C114.031 32.2191 113.927 32.0012 113.927 31.8407C113.927 31.6802 114.008 31.4738 114.111 31.3821C114.203 31.2904 114.455 31.2102 114.65 31.2102C114.856 31.2102 115.189 31.256 115.384 31.3248C115.59 31.3821 115.842 31.4051 115.934 31.3707C116.026 31.3248 116.347 30.9579 116.656 30.5452C116.954 30.1324 117.447 29.5707 117.768 29.2955C118.078 29.0318 118.674 28.642 119.087 28.4356C119.499 28.2407 120.268 27.9885 120.806 27.8738C121.345 27.7592 122.159 27.6675 122.606 27.6675ZM107.599 33.87C108.023 33.9044 108.023 33.9044 108.046 34.4547C108.069 34.8331 108 35.1541 107.805 35.5439C107.656 35.842 107.255 36.3465 106.922 36.6675C106.578 36.9885 106.131 37.3324 105.925 37.4356C105.73 37.5503 105.478 37.6305 105.386 37.6305C105.294 37.6305 105.237 37.5961 105.26 37.5388C105.283 37.493 105.592 37.2866 105.948 37.0802C106.384 36.828 106.59 36.6445 106.59 36.484C106.59 36.3465 106.475 36.2089 106.303 36.1401C106.143 36.0713 105.982 35.9337 105.948 35.8191C105.902 35.7159 105.925 35.4407 105.994 35.2229C106.063 35.0051 106.349 34.6038 106.647 34.3286C107.094 33.9044 107.232 33.8356 107.599 33.87ZM87.3402 34.191H88.1886C88.6587 34.191 89.0485 34.214 89.0485 34.2484C89.0485 34.2828 87.5122 36.8738 85.6434 40.0152C83.7632 43.1452 82.0319 46.1605 81.3097 47.7082L81.539 47.949C81.6651 48.0751 81.9058 48.1898 82.0778 48.1783C82.2612 48.1783 82.3988 48.2242 82.3988 48.293C82.3988 48.3617 82.1581 48.4076 81.8485 48.4076C81.5504 48.4076 81.2065 48.3388 81.0804 48.2586C80.9542 48.1668 80.7593 47.9146 80.6447 47.6853C80.5071 47.3758 80.4612 47.0891 80.5071 46.6305C80.5415 46.2866 80.53 46 80.4727 46C80.4268 46 79.8536 46.5388 77.9848 48.3961L77.2625 48.4076C76.6778 48.4076 76.4944 48.3617 76.2307 48.1439C76.0587 47.9949 75.8523 47.6968 75.7606 47.4789C75.6689 47.2496 75.623 46.8942 75.6574 46.6305C75.6918 46.3783 75.9096 45.7821 76.1389 45.3121C76.3797 44.842 77.0447 43.6611 77.6179 42.6866C78.2026 41.7121 78.7186 40.898 78.7874 40.8751C78.8447 40.8522 79.246 40.8522 80.4498 40.8981L78.8332 43.5923C77.9389 45.0713 77.1135 46.4815 76.9988 46.7223C76.8842 46.9516 76.781 47.3184 76.781 47.5248C76.781 47.7197 76.8383 47.9605 76.9186 48.0407C76.9988 48.121 77.2167 48.1783 77.4116 48.1783C77.6523 48.1783 77.9504 48.0178 78.3861 47.6624C78.73 47.3758 79.3377 46.7681 79.7389 46.3095C80.1402 45.8624 81.0001 44.6815 81.6536 43.707C82.3071 42.7324 83.637 40.5656 84.6116 38.8917C85.5746 37.2178 86.595 35.4751 86.8587 35.028L87.3402 34.191ZM91.8574 34.191H92.6944C93.302 34.191 93.5084 34.2254 93.4854 34.3286C93.4625 34.4089 91.8804 37.1031 89.9657 40.3248C88.0625 43.535 86.3657 46.5044 86.2167 46.9172C85.9759 47.5133 85.953 47.7082 86.0561 47.9146C86.1479 48.0866 86.2854 48.1668 86.5033 48.1668C86.6753 48.1668 87.0421 47.9949 87.3288 47.777C87.6154 47.5707 88.1084 47.0891 88.4294 46.7223C88.7504 46.3554 89.3581 45.5643 89.7937 44.9681C90.2294 44.3605 90.8141 43.6267 91.1007 43.3172C91.3874 43.0076 91.9147 42.5719 92.2587 42.3312C92.6026 42.0904 93.4281 41.6318 94.0931 41.2993C95.2167 40.749 95.3542 40.7146 96.0307 40.749C96.5351 40.7719 96.7874 40.8293 96.8561 40.9554C96.902 41.0471 96.9708 41.2191 97.0167 41.3566C97.0854 41.563 97.1084 41.5401 97.3147 41.2076C97.5326 40.8407 97.544 40.8407 98.3925 40.8407C99.2523 40.8407 99.2523 40.8407 99.1262 41.093C99.046 41.2305 98.3466 42.4344 97.5555 43.7643C96.7644 45.0828 95.9963 46.4586 95.8472 46.8254C95.7096 47.1923 95.5835 47.5821 95.5835 47.7197C95.5835 47.8458 95.7096 48.0063 95.8702 48.0866C96.0995 48.2012 96.2141 48.2012 96.4434 48.0866C96.6039 48.0063 96.8218 47.949 96.9364 47.949C97.0969 47.949 97.0854 47.9949 96.8447 48.1783C96.6383 48.3388 96.3861 48.4076 95.9848 48.4076C95.5147 48.4076 95.3657 48.3503 95.1135 48.0866C94.9415 47.9146 94.7466 47.6509 94.6778 47.5133C94.609 47.3758 94.5517 46.963 94.5402 45.9426L94.288 46.2866C94.1504 46.47 93.6804 46.9974 93.2332 47.4445C92.6829 48.0063 92.2931 48.3044 91.9721 48.4076C91.7084 48.4879 91.3644 48.5108 91.1695 48.4649C90.9861 48.4191 90.6421 48.1898 90.4128 47.9605C90.1835 47.7312 89.9428 47.3414 89.8625 47.0891C89.7937 46.8369 89.7364 46.3898 89.7249 45.5987L89.4383 45.9426C89.2778 46.1261 88.8536 46.6076 88.4982 47.0203C88.1428 47.4216 87.6154 47.9031 87.3288 48.0866C86.9619 48.3159 86.6638 48.4076 86.2969 48.4076C85.8842 48.4076 85.7237 48.3503 85.4829 48.0866C85.3109 47.9146 85.116 47.6395 85.0358 47.4904C84.944 47.2955 84.9211 46.986 84.967 46.5961C85.0014 46.2637 85.0128 46 84.9784 46C84.944 46 84.474 46.4586 83.9237 47.0318C83.3619 47.5936 82.8345 48.0637 82.7428 48.0637C82.6511 48.0637 83.0982 47.5248 83.7517 46.8598C84.623 45.9656 85.2421 45.163 86.1593 43.7758C86.8358 42.7439 88.395 40.1758 89.6218 38.0547L91.8574 34.191ZM61.4409 36.1286C61.5784 36.1286 61.7275 36.3006 62.1288 37.2178L61.8536 37.7337C61.7046 38.0203 61.1084 39.1783 60.5351 40.3133C59.9619 41.4484 59.274 42.9961 59.0103 43.7528C58.7466 44.5095 58.3568 45.7707 58.1504 46.5617C57.8982 47.456 57.6804 48.0522 57.5542 48.1324C57.4396 48.2127 57.2447 48.2815 57.1186 48.2815C56.9925 48.2815 56.8319 48.2356 56.7632 48.1898C56.6944 48.1439 56.5797 47.9949 56.5109 47.8458C56.3963 47.6395 56.4421 47.3528 56.7058 46.298C56.9007 45.5872 57.2332 44.4751 57.474 43.8102C57.7033 43.1452 58.1733 41.9643 58.5173 41.1732C58.8612 40.3821 59.5377 39.0178 60.0077 38.135C60.4893 37.2522 60.9593 36.4382 61.0511 36.3235C61.1428 36.2203 61.3147 36.1286 61.4409 36.1286ZM81.2523 37.5732C81.4128 37.6076 81.5733 37.6993 81.6192 37.7681C81.6651 37.8484 81.7109 38.0547 81.7109 38.2496C81.6995 38.4904 81.5733 38.7197 81.2638 39.0178C80.9313 39.3388 80.7249 39.4535 80.4383 39.4535C80.2205 39.4535 79.9797 39.3847 79.8995 39.3044C79.8192 39.2356 79.7619 39.0063 79.7619 38.8229C79.7504 38.628 79.8536 38.3299 79.9797 38.1465C80.1058 37.963 80.381 37.7452 80.5874 37.6649C80.7937 37.5732 81.0918 37.5388 81.2523 37.5732ZM62.6103 38.1121C62.6791 38.135 62.7479 38.2382 62.7708 38.3414C62.7823 38.4445 62.5874 38.8802 62.3351 39.3044C62.0829 39.7286 61.6014 40.7261 61.246 41.5172C60.902 42.3082 60.3402 43.8216 59.9848 44.8993C59.6409 45.9656 59.3084 47.0662 59.2396 47.3299C59.1708 47.6395 59.0561 47.8229 58.953 47.8229C58.8268 47.8229 58.781 47.6968 58.781 47.3643C58.781 47.1121 59.1135 45.8968 59.5262 44.6356C60.0536 43.0305 60.5581 41.7923 61.2574 40.3707C61.7963 39.27 62.3007 38.2955 62.3695 38.2152C62.4268 38.135 62.5415 38.0891 62.6103 38.1121ZM108.86 38.2955C108.963 38.2955 109.135 38.3758 109.227 38.4789C109.376 38.6395 109.376 38.6968 109.227 38.9605C109.135 39.121 108.745 39.591 108.367 40.0152C107.828 40.6114 107.679 40.8637 107.645 41.2305C107.61 41.563 107.736 42.1019 108.126 43.2369C108.516 44.3949 108.654 44.9566 108.654 45.4726C108.654 46.0344 108.596 46.2522 108.333 46.6764C108.149 46.963 107.805 47.3414 107.553 47.5363C107.312 47.7197 106.819 47.9834 106.475 48.1324C105.982 48.3274 105.627 48.3847 104.813 48.3847C104.01 48.3847 103.701 48.3388 103.437 48.1783C103.254 48.0522 103.013 47.8344 102.91 47.6853C102.806 47.5363 102.657 47.1923 102.589 46.9057C102.474 46.4815 102.485 46.2866 102.623 45.8165C102.715 45.4955 102.944 45.014 103.127 44.7273C103.299 44.4407 103.655 44.0509 103.896 43.8675C104.136 43.6726 104.526 43.4891 104.756 43.4662C105.099 43.4089 105.306 43.2254 106.166 42.2051C106.785 41.4598 107.335 40.6688 107.587 40.1414C107.805 39.6713 108.149 39.0637 108.333 38.7885C108.516 38.5248 108.757 38.307 108.86 38.2955ZM67.9759 49.6573C68.0218 49.6573 68.3198 50.0012 68.6409 50.4254C68.9504 50.8496 69.2141 51.2395 69.2141 51.2853C69.2141 51.3312 68.5606 52.1567 67.7695 53.1197C66.9784 54.0828 66.13 55.2063 65.8893 55.6191C65.6485 56.0318 65.3389 56.6853 65.2128 57.0751C65.0065 57.6828 64.9721 58.084 64.9721 61.4662L65.316 61.6955C65.5339 61.8331 65.66 62.0165 65.66 62.177C65.66 62.3261 65.5682 62.5324 65.4536 62.6471C65.3504 62.7503 65.1326 62.842 64.9721 62.842C64.8116 62.842 64.5823 62.7388 64.4561 62.6012C64.2956 62.4407 64.1466 62.3834 63.9402 62.4293C63.7797 62.4751 63.1721 62.7503 61.5097 63.5872L56.3733 63.6445V49.7719H58.7581C60.902 49.7719 61.1886 49.7949 61.6472 50.0127C61.9339 50.1388 62.3122 50.3796 62.4956 50.5516C62.6676 50.7235 62.9198 51.0675 63.0574 51.3197C63.2409 51.6637 63.2982 51.9961 63.2982 52.6382C63.3096 53.2573 63.2523 53.6012 63.0918 53.8993C62.9772 54.1172 62.7593 54.4267 62.3237 54.8738L62.9657 55.3554C63.3096 55.6305 63.6765 55.8713 63.7682 55.9057C63.8714 55.9401 64.2383 55.6649 64.7198 55.1834C65.144 54.7592 65.7288 54.0484 66.0268 53.6012C66.3249 53.1656 66.7721 52.3745 67.0128 51.8356C67.2651 51.2968 67.5632 50.5859 67.6778 50.2535C67.7925 49.921 67.9186 49.6573 67.9759 49.6573ZM84.4625 50.2305H86.7555C88.567 50.2305 89.1402 50.2649 89.4842 50.4025C89.7135 50.5057 90.0574 50.7235 90.2409 50.8955C90.4128 51.0675 90.6651 51.4114 90.7912 51.6637C90.9173 51.9159 91.0549 52.3745 91.0893 52.6955C91.1122 53.0051 91.0893 53.4522 91.0205 53.67C90.9517 53.8879 90.7109 54.3121 90.0804 55.1605L90.4587 55.3783C90.6536 55.493 91.0663 55.8484 91.353 56.1465C91.6396 56.456 91.995 56.9261 92.1211 57.1898C92.2587 57.4649 92.4307 58.0267 92.4995 58.4509C92.5912 59.0356 92.5912 59.4025 92.488 59.9184C92.4077 60.2968 92.2472 60.8127 92.1097 61.0649C91.9835 61.3172 91.6167 61.7987 91.2956 62.1312C90.9746 62.4637 90.4243 62.8764 90.0804 63.0484C89.4612 63.3465 89.4039 63.3579 84.4625 63.4152V50.2305ZM93.9784 50.2305H100.628V50.5745C100.628 50.7579 100.617 50.9299 100.605 50.9414C100.582 50.9528 99.2867 50.9872 94.8383 51.0904V56.3643L100.685 56.4789V57.1668L94.8956 57.2242V62.6127H100.743L100.685 63.3579H94.0358L93.9784 50.2305ZM106.934 50.2305C107.266 50.2305 107.415 50.2879 107.461 50.4254C107.496 50.5401 107.954 51.8127 108.482 53.2687C109.009 54.7133 110.029 57.5452 110.763 59.5401C111.497 61.5465 112.093 63.2318 112.093 63.3006C112.093 63.3579 111.921 63.4152 111.692 63.4152C111.348 63.4152 111.268 63.3579 111.141 63.0369C111.061 62.8305 110.58 61.5465 109.17 57.6713H106.991C105.352 57.6713 104.778 57.7057 104.687 57.8203C104.606 57.9006 104.091 59.1961 102.52 63.4152H102.096C101.671 63.4152 101.671 63.4038 101.763 63.0942C101.82 62.9223 102.336 61.5235 102.921 59.9758C103.506 58.428 104.515 55.6649 105.18 53.842C105.833 52.0076 106.395 50.4484 106.418 50.3681C106.452 50.2879 106.67 50.2305 106.934 50.2305ZM113.125 50.2305H115.051C116.427 50.2305 117.126 50.2764 117.539 50.4025C117.86 50.4942 118.376 50.7465 118.685 50.9643C119.006 51.1821 119.454 51.6293 119.683 51.9617C119.912 52.3057 120.199 52.8904 120.302 53.2687C120.44 53.7503 120.474 54.2203 120.44 54.8738C120.405 55.5847 120.313 55.9401 120.061 56.4675C119.866 56.8458 119.465 57.3732 119.144 57.6713C118.834 57.9579 118.296 58.3248 117.963 58.4853C117.631 58.6458 117.378 58.8178 117.413 58.8866C117.436 58.9439 118.078 59.9643 118.846 61.1452C119.614 62.3261 120.233 63.3235 120.233 63.3579C120.233 63.3923 120.015 63.4038 119.27 63.3579L117.894 61.2025C117.138 60.0216 116.415 59.0012 116.312 58.9324C116.198 58.8751 115.659 58.8407 114.099 58.8866L113.985 63.3579L113.125 63.4152V50.2305ZM122.297 50.2305H122.641C122.847 50.2305 123.008 50.2993 123.042 50.4025C123.077 50.4942 123.065 53.4637 122.927 63.4152H122.297V50.2305ZM129.359 50.2305C129.577 50.2305 129.795 50.2879 129.841 50.3681C129.887 50.4484 130.219 51.3426 130.563 52.3516C130.919 53.3605 131.767 55.7108 132.443 57.5681C133.12 59.4254 133.865 61.5006 134.564 63.4152L134.255 63.484C134.026 63.5414 133.888 63.507 133.762 63.3465C133.67 63.2203 133.372 62.5324 133.108 61.8102C132.833 61.0879 132.398 59.8726 131.641 57.7401L129.382 57.7057C127.135 57.6828 127.112 57.6828 126.998 57.935C126.929 58.084 126.447 59.3566 124.991 63.3579L124.567 63.3809C124.326 63.4038 124.131 63.3694 124.131 63.3235C124.131 63.2777 124.808 61.4089 125.633 59.1732C126.459 56.9375 127.284 54.6904 127.456 54.1859C127.628 53.6815 128.018 52.6267 128.316 51.8356C128.614 51.0445 128.878 50.3567 128.912 50.3108C128.935 50.2649 129.141 50.2305 129.359 50.2305ZM49.6893 63.6445C50.0103 63.6445 50.1937 63.7707 50.8816 64.47C51.4434 65.0433 51.902 65.3872 52.395 65.6165C52.9568 65.8688 53.381 65.9605 54.4243 66.0522C55.1581 66.121 55.8116 66.1439 55.8918 66.1095C55.9721 66.0751 56.0294 65.8917 56.0294 65.7082C56.0294 65.5133 56.1211 65.1694 56.2358 64.9401C56.339 64.6993 56.637 64.3668 56.8893 64.1949C57.1988 63.9656 57.4854 63.8624 57.7835 63.8738C58.0128 63.8738 58.4026 63.9656 58.6434 64.0917C58.8727 64.2063 59.446 64.6993 60.73 66.0522H98.6217L99.1262 66.3044C99.4014 66.4535 99.7339 66.7057 100.112 67.1872L99.4243 68.1503V72.1745L99.1377 72.335C98.9084 72.4611 98.0829 72.4726 94.781 72.4152C92.5453 72.3809 89.4727 72.3006 87.9593 72.2318C86.446 72.1745 83.2472 72.0484 80.8511 71.9566C78.4549 71.8649 75.7491 71.7273 74.8319 71.6586C73.9262 71.5898 73.0663 71.4981 72.9402 71.4522C72.7912 71.3834 72.5046 70.856 71.3925 68.2305H66.9211C64.4676 68.2305 62.4498 68.2649 62.4498 68.3108C62.4498 68.3566 63.0689 69.2051 63.837 70.1796C64.5937 71.1541 65.5682 72.3694 66.0039 72.8738C66.4281 73.3783 67.4026 74.3872 68.1479 75.1095C68.8931 75.8318 69.9479 76.7719 70.4753 77.2076C71.0141 77.6318 71.9657 78.3312 72.5963 78.7439C73.2268 79.1681 74.5453 79.9248 75.5198 80.4293C76.5058 80.9337 78.0995 81.6445 79.074 82.0114C80.06 82.3783 81.2638 82.8025 81.7682 82.963C82.2727 83.1121 83.2931 83.3643 84.0383 83.5248C84.7721 83.6853 85.8612 83.8688 86.446 83.9375C87.0307 84.0063 88.3377 84.1324 89.3695 84.2242C90.3899 84.3159 91.8804 84.4993 92.66 84.6254C93.451 84.7516 94.288 84.935 94.5288 85.0267C94.7581 85.1299 95.0791 85.3248 95.2281 85.4624C95.3772 85.6 95.595 85.9095 95.7097 86.1388C95.8587 86.4254 95.9504 86.9414 96.0077 87.6866C96.0536 88.4433 96.0307 89.0738 95.9275 89.6127C95.8243 90.1286 95.6523 90.5987 95.423 90.9197C95.2167 91.2293 94.8612 91.5388 94.5517 91.6993C94.2765 91.8484 93.5772 92.0433 93.0039 92.1465C92.1899 92.2955 91.4791 92.3184 89.6218 92.2726C87.8103 92.2267 86.8702 92.135 85.4944 91.9057C84.5198 91.7337 83.2472 91.47 82.6625 91.321C82.0778 91.1719 80.7823 90.7707 79.7963 90.4496C78.6154 90.0598 77.3313 89.521 76.0931 88.9133C75.0612 88.3859 73.4791 87.4917 72.5963 86.907C71.7135 86.3223 70.5784 85.5426 70.074 85.1643C69.5695 84.7745 68.5721 83.9719 67.8383 83.3758C67.116 82.7681 65.9925 81.7592 65.3275 81.1286C64.674 80.4981 63.7339 79.4891 63.2294 78.893C62.7364 78.2968 61.9682 77.2879 61.544 76.6573C61.1084 76.0267 60.3975 74.8688 59.9619 74.0777C59.5147 73.2866 58.6549 71.6471 56.9466 68.2305L55.0893 68.1961C53.4154 68.1617 53.1402 68.1273 52.4753 67.8637C52.074 67.7031 51.4205 67.3821 51.0421 67.1414C50.6638 66.9006 50.0561 66.4191 49.6893 66.0637C49.3224 65.7082 48.944 65.2611 48.8409 65.0777C48.7147 64.8025 48.7033 64.6649 48.8065 64.3898C48.8753 64.1949 49.0128 63.9541 49.116 63.8395C49.2192 63.7248 49.4714 63.6445 49.6893 63.6445ZM95.3542 80.7961C95.5835 80.8305 97.0281 81.2777 98.5644 81.7821C100.112 82.2866 103.162 83.3184 105.329 84.0522C107.507 84.7974 112.047 86.3108 115.418 87.4344C118.8 88.5465 121.666 89.5324 121.815 89.6242C121.953 89.7044 122.102 89.8993 122.136 90.0369C122.182 90.1859 122.182 90.4382 122.136 90.6101C122.102 90.7821 121.976 91.0229 121.873 91.1375C121.712 91.298 121.414 91.3554 120.52 91.4127C119.66 91.4586 119.213 91.5503 118.743 91.7566C118.284 91.963 117.894 92.2726 117.31 92.9031C116.874 93.3847 115.991 94.1528 115.361 94.6229C114.696 95.1044 113.836 95.6318 113.297 95.8496C112.792 96.0675 111.967 96.3656 111.463 96.5146C110.878 96.6866 109.972 96.8242 108.94 96.9044C107.725 97.0076 107.094 96.9961 106.303 96.893C105.741 96.8127 104.836 96.6178 104.297 96.4688C103.77 96.3197 102.91 95.9758 102.405 95.7235C101.901 95.4713 101.213 95.0471 100.857 94.7719C100.513 94.5082 100.02 94.0611 99.7682 93.7859C99.516 93.5108 99.1491 93.0522 98.9542 92.7656C98.7593 92.4789 98.4154 91.8713 98.1861 91.4127C97.9568 90.9541 97.6358 90.163 97.4867 89.6356C97.3377 89.1197 97.1542 88.3057 97.0854 87.8356C97.0167 87.3656 96.8791 86.2076 96.7874 85.2789C96.6956 84.3503 96.5925 83.5363 96.5581 83.4789C96.5351 83.4102 96.3058 83.2611 96.0765 83.1465C95.8358 83.0203 95.4345 82.8828 95.1823 82.8369C94.93 82.7796 94.609 82.642 94.4714 82.5388C94.2765 82.3783 94.2077 82.2063 94.2077 81.8738C94.2077 81.6216 94.2765 81.3121 94.3453 81.1745C94.4256 81.0484 94.5975 80.8993 94.7237 80.842C94.8498 80.7847 95.1364 80.7617 95.3542 80.7961Z" fill="#060607"/>
<path d="M58.1392 24.9618C58.2309 25.2484 58.2997 25.3287 58.4028 25.2484C58.5175 25.1567 58.5175 25.0765 58.3799 24.8472C58.2882 24.6867 58.1621 24.5605 58.1048 24.5605C58.0474 24.5605 58.0704 24.744 58.1392 24.9618ZM113.182 43.1223C112.861 43.1797 112.495 43.2828 112.357 43.3746C112.219 43.4663 112.024 43.6612 111.933 43.8217C111.841 43.9822 111.658 44.6357 111.532 45.2777C111.394 45.9312 111.291 46.6765 111.291 46.9402C111.291 47.2841 111.382 47.5478 111.577 47.8C111.738 48.0064 112.013 48.2586 112.208 48.3504C112.391 48.4421 113.16 48.5797 113.893 48.6484C114.81 48.7402 116.886 48.7631 120.348 48.7058C123.157 48.6714 125.76 48.5911 126.138 48.5223C126.596 48.4535 126.906 48.3274 127.078 48.1555C127.227 47.9835 127.456 47.3988 127.674 46.5389C127.869 45.8051 128.03 44.9567 128.03 44.6472C128.041 44.2115 127.984 44.051 127.72 43.7873C127.548 43.6039 127.135 43.386 126.826 43.2943C126.356 43.1453 125.175 43.1109 120.004 43.0765C116.565 43.0535 113.492 43.0765 113.182 43.1223ZM99.7455 44.6586C99.3557 45.1746 98.7366 45.9198 98.3812 46.3096C98.0143 46.6994 97.4984 47.2268 97.2232 47.4905C96.8219 47.8574 96.7646 47.9605 96.9251 47.9949C97.0627 48.0293 97.4296 47.7427 98.0487 47.1121C98.5646 46.5962 99.2296 45.8395 99.5506 45.4268C99.8716 45.014 100.25 44.5096 100.41 44.3032C100.594 44.0395 100.651 43.8905 100.571 43.8102C100.491 43.7414 100.204 44.0281 99.7455 44.6586ZM84.4054 56.8344C84.4054 60.4918 84.4169 62.0166 84.4283 60.2166C84.4513 58.4166 84.4513 55.4242 84.4283 53.5669C84.4169 51.7096 84.4054 53.1771 84.4054 56.8344ZM94.827 55.9975L94.8385 56.3758H97.8767L94.8958 56.3185C94.8156 55.6535 94.8156 55.6535 94.827 55.9975ZM105.065 65.7312C104.71 65.7886 104.251 65.9147 104.068 66.0064C103.816 66.1325 103.667 66.3389 103.506 66.7746C103.391 67.107 103.196 67.8408 103.082 68.4141C102.967 68.9873 102.875 69.8128 102.875 70.2714C102.864 71.0625 102.875 71.1083 103.265 71.5096C103.483 71.7274 103.907 72.014 104.205 72.1402C104.618 72.3121 105.214 72.4039 106.498 72.4841C107.461 72.5414 110.419 72.5873 113.068 72.5873C115.716 72.5873 118.582 72.5414 119.431 72.4956C120.577 72.4268 121.093 72.3465 121.426 72.186C121.678 72.0714 121.976 71.8421 122.091 71.6816C122.205 71.5211 122.481 70.7529 122.698 69.9618C122.928 69.1707 123.134 68.2421 123.18 67.8981C123.226 67.4625 123.203 67.1414 123.088 66.8777C122.985 66.6255 122.767 66.4077 122.469 66.2586C122.217 66.1325 121.747 65.9491 121.437 65.8574C120.967 65.7313 119.477 65.6854 113.297 65.6625C108.929 65.6395 105.455 65.6625 105.065 65.7312ZM77.813 66.0293C79.0398 66.0523 81.0805 66.0523 82.3417 66.0293C83.6028 66.0179 82.5939 66.0064 80.106 66.0064C77.6181 66.0064 76.5863 66.0179 77.813 66.0293Z" fill="#2C4866"/>
<path d="M84.692 20.7313C84.6118 20.9376 84.6118 21.0179 84.7264 21.0523C84.7952 21.0867 84.9328 20.9835 85.013 20.823C85.1277 20.5937 85.1277 20.5364 84.9786 20.502C84.8869 20.4676 84.7608 20.5708 84.692 20.7313ZM90.6538 21.1211C90.6538 21.274 90.5659 21.3618 90.3901 21.3848C90.2525 21.3962 90.7914 21.4077 91.5825 21.4077C93.0041 21.4077 93.0156 21.4077 92.9812 21.1555C92.9468 20.9033 92.9009 20.8918 91.8003 20.8918C90.7341 20.8918 90.6538 20.9033 90.6538 21.1211ZM87.5009 21.1211C87.2487 21.1669 87.1111 21.2128 87.1914 21.2243C87.2602 21.2243 87.329 21.316 87.329 21.4077C87.329 21.4994 87.2602 21.6026 87.1914 21.637C87.1111 21.6714 87.1685 21.6714 87.329 21.637C87.4895 21.6141 87.9022 21.5682 88.2462 21.5568C88.7048 21.5453 88.7621 21.5338 88.4525 21.4994C88.1544 21.4765 88.0169 21.4077 88.0169 21.2931C88.0169 21.2013 88.1086 21.0982 88.2232 21.0752C88.3723 21.0408 88.3608 21.0294 88.1888 21.0408C88.0627 21.0408 87.7532 21.0752 87.5009 21.1211ZM86.0105 21.3389C85.7468 21.3962 85.6665 21.465 85.6665 21.6714C85.6665 21.8778 85.7124 21.9236 85.8958 21.8778C86.022 21.8434 86.2513 21.809 86.4118 21.809C86.6296 21.809 86.664 21.7861 86.5264 21.7058C86.4347 21.6485 86.3774 21.5224 86.4118 21.4192C86.4462 21.316 86.4462 21.2472 86.4118 21.2472C86.3774 21.2587 86.1939 21.2931 86.0105 21.3389ZM81.1379 26.7733C80.4156 28.2294 78.1226 32.8841 76.036 37.1147C73.9379 41.3453 72.1379 44.865 72.0347 44.9453C71.8857 45.0599 71.7366 45.0485 71.2436 44.9109C70.8882 44.8077 70.6016 44.7848 70.5328 44.8421C70.464 44.9109 70.7506 45.0255 71.278 45.1402L72.1379 45.3351C72.436 44.9224 73.1812 43.4319 73.9837 41.758C74.7863 40.0841 77.0678 35.4867 79.0398 31.5198C81.0118 27.5644 82.6283 24.2854 82.6283 24.2166C82.6283 24.1593 82.5825 24.102 82.5251 24.102C82.4793 24.102 81.8487 25.3058 81.1379 26.7733ZM62.5188 35.4294C62.4958 35.4752 62.6564 35.9797 62.8971 36.5415C63.1379 37.1033 63.8029 38.6854 64.3761 40.0383C64.9493 41.3912 65.7404 43.1682 66.1417 43.9822C66.5315 44.7962 66.9443 45.4956 67.036 45.5529C67.1277 45.5988 67.529 45.5644 67.9302 45.4727C68.3201 45.381 68.6411 45.2663 68.6411 45.1975C68.6411 45.1287 68.5493 45.1173 68.4462 45.1517C68.3315 45.1861 68.022 45.2548 67.7583 45.3236C67.3914 45.3924 67.2194 45.3924 67.0818 45.2892C66.9786 45.209 66.5888 44.544 66.2334 43.8217C65.8665 43.0994 65.236 41.7007 64.8232 40.7262C64.4105 39.7517 63.7685 38.1351 63.3901 37.1491C63.0118 36.1517 62.6793 35.3376 62.6449 35.3376C62.6105 35.3376 62.5532 35.372 62.5188 35.4294ZM69.5583 46.0918C69.4551 46.1491 69.478 46.2752 69.6271 46.5733C69.7302 46.7912 69.9825 47.3415 70.1774 47.8001C70.3952 48.2931 70.5786 48.5912 70.6474 48.5453C70.7277 48.488 70.5786 48.0179 70.2347 47.2383C69.8793 46.4128 69.6615 46.0459 69.5583 46.0918ZM68.3774 49.8867C68.3315 49.9555 68.492 50.265 68.7328 50.5861C68.9965 50.9529 69.2029 51.1134 69.2716 51.0561C69.3519 50.9759 69.2487 50.7695 68.9965 50.4485C68.7786 50.1733 68.5723 49.9096 68.5264 49.8638C68.492 49.8064 68.4232 49.8179 68.3774 49.8867ZM85.5519 50.2077C86.1825 50.2306 87.1685 50.2306 87.7302 50.2077C88.292 50.1962 87.7761 50.1733 86.5837 50.1733C85.3914 50.1733 84.9213 50.1962 85.5519 50.2077ZM94.8271 53.395C94.8271 54.6561 94.85 55.195 94.8615 54.5988C94.8844 54.0026 94.8844 52.9708 94.8615 52.3058C94.85 51.6408 94.8271 52.1338 94.8271 53.395ZM123.042 58.8982C123.042 61.3517 123.054 62.3377 123.065 61.0765C123.088 59.8154 123.088 57.7975 123.065 56.6052C123.054 55.4128 123.042 56.4447 123.042 58.8982ZM63.4245 66.144C63.8602 66.167 64.5366 66.167 64.915 66.144C65.2933 66.1211 64.9264 66.1096 64.1124 66.1096C63.2869 66.1096 62.9888 66.1211 63.4245 66.144ZM95.4691 66.144C95.7557 66.167 96.2372 66.167 96.5583 66.144C96.8678 66.1211 96.6385 66.1096 96.0423 66.1096C95.4462 66.1096 95.1825 66.1211 95.4691 66.144ZM93.0615 72.4498C93.2793 72.4727 93.6691 72.4727 93.9213 72.4498C94.1736 72.4268 93.9901 72.4039 93.5201 72.4039C93.05 72.4039 92.8436 72.4268 93.0615 72.4498ZM120.176 91.4816C120.36 91.5045 120.726 91.5045 120.979 91.4816C121.231 91.4587 121.082 91.4357 120.635 91.4357C120.188 91.4357 119.993 91.4587 120.176 91.4816Z" fill="#CCCACB"/>
<path d="M115.785 34.7987C115.716 34.8675 115.464 35.5783 115.212 36.3694C114.96 37.1605 114.719 38.0089 114.673 38.2611C114.616 38.5936 114.638 38.7427 114.742 38.8C114.833 38.8458 117.803 38.8917 121.346 38.8917C126.837 38.8917 127.858 38.8688 128.202 38.7197C128.419 38.628 128.603 38.4675 128.603 38.3758C128.603 38.2611 128.259 38.0891 127.537 37.8713C126.963 37.6764 125.966 37.3898 125.335 37.2293C124.705 37.0688 123.386 36.6904 122.412 36.4038C121.437 36.1172 120.222 35.7618 119.717 35.6013C119.213 35.4522 118.204 35.1656 117.482 34.9821C116.76 34.7987 116.106 34.6497 116.037 34.6497C115.957 34.6497 115.854 34.7184 115.785 34.7872V34.7987ZM99.4245 78.3312C99.2296 78.377 98.943 78.4917 98.7595 78.6063C98.5875 78.721 98.4614 78.8815 98.4729 79.0076C98.4958 79.1223 98.771 79.3286 99.1379 79.5121C99.4818 79.6726 101.007 80.2229 102.52 80.7274C104.033 81.2318 106.349 81.9541 107.679 82.3439C108.998 82.7223 110.889 83.2611 111.864 83.5363C112.838 83.8229 114.81 84.3847 116.244 84.8089C118.686 85.5197 118.881 85.5541 119.144 85.3936C119.305 85.3019 119.511 85.0267 119.603 84.7974C119.706 84.5567 120.119 83.3643 120.52 82.1605C120.933 80.9452 121.3 79.7299 121.334 79.4662C121.38 79.1223 121.357 78.9274 121.254 78.8356C121.139 78.7325 119.557 78.6637 115.418 78.5719C112.3 78.5032 107.782 78.4 105.386 78.3426C102.99 78.2739 100.743 78.228 100.399 78.2395C100.055 78.2509 99.6079 78.2853 99.4245 78.3312Z" fill="#AC232A"/>
<path opacity="0.99" d="M120.119 29.1121C119.706 29.2726 119.167 29.5363 118.915 29.7197C118.662 29.8917 118.204 30.3044 117.894 30.6484C117.596 30.9923 117.298 31.3592 117.241 31.4738C117.172 31.6038 117.187 31.6955 117.287 31.749C117.355 31.7949 117.963 32.0012 118.628 32.2076C119.293 32.414 119.97 32.6203 120.153 32.6777C120.405 32.7465 120.462 32.7235 120.462 32.563C120.462 32.414 120.176 32.2535 119.373 31.9554C118.513 31.6344 118.284 31.5082 118.296 31.3363C118.296 31.2216 118.617 30.8203 119.006 30.4535C119.454 30.0407 120.027 29.6509 120.554 29.4102C121.001 29.2038 121.38 28.9859 121.38 28.9172C121.38 28.8598 121.265 28.8025 121.127 28.814C120.978 28.814 120.531 28.9516 120.119 29.1121ZM116.071 36.6904C115.899 37.2981 115.762 37.8598 115.762 37.9172C115.762 37.9859 115.888 37.9057 116.048 37.7452C116.209 37.5847 116.392 37.2751 116.45 37.0573C116.519 36.8395 116.564 36.4152 116.564 36.1172C116.564 35.8076 116.519 35.5668 116.473 35.5668C116.427 35.5668 116.243 36.0713 116.071 36.6904ZM95.0676 41.3337C94.758 41.5286 94.116 42.0904 93.6345 42.5605C93.1644 43.0305 92.4765 43.856 92.1211 44.3949C91.7657 44.9337 91.3529 45.6331 91.2154 45.9426C91.0778 46.2637 90.9402 46.8025 90.9058 47.1465C90.86 47.628 90.8943 47.8229 91.0434 47.9834C91.1466 48.0866 91.3873 48.1783 91.5708 48.1783C91.7886 48.1783 92.0982 48.0407 92.3963 47.8114C92.66 47.6051 93.2905 46.9401 93.8064 46.3439C94.3224 45.7477 94.9644 44.9452 95.251 44.5668C95.5262 44.1885 95.9733 43.4547 96.237 42.9388C96.5122 42.4114 96.73 41.8611 96.73 41.7006C96.73 41.5401 96.6727 41.3108 96.6154 41.1847C96.5351 41.0127 96.3861 40.9554 96.065 40.9554C95.767 40.9554 95.4574 41.07 95.0676 41.3337ZM106.349 42.3541C105.879 42.9274 105.466 43.4662 105.409 43.5579C105.363 43.6382 105.386 43.8675 105.443 44.0509C105.535 44.3146 105.512 44.4637 105.386 44.6815C105.271 44.8726 104.954 45.0598 104.434 45.2433C103.919 45.4382 103.54 45.656 103.288 45.9312C103.001 46.2522 102.921 46.4471 102.921 46.8025C102.921 47.1465 103.001 47.3528 103.231 47.6051C103.426 47.8229 103.712 47.9834 103.953 48.0178C104.171 48.0522 104.584 48.0178 104.87 47.949C105.203 47.8573 105.581 47.6165 105.959 47.2611C106.292 46.9516 106.693 46.4012 106.899 45.9885C107.094 45.5872 107.312 44.9681 107.37 44.6242C107.438 44.2802 107.461 43.3859 107.427 42.6522C107.392 41.907 107.335 41.2993 107.289 41.2993C107.243 41.2993 106.819 41.7694 106.349 42.3541ZM113.102 45.507C112.884 46.1834 112.735 46.791 112.77 46.8369C112.804 46.8942 112.953 46.8828 113.091 46.814C113.274 46.7223 113.412 46.4815 113.549 46.0344C113.652 45.6675 113.744 45.1401 113.744 44.8649C113.755 44.5898 113.698 44.3375 113.629 44.3146C113.549 44.2802 113.343 44.7732 113.102 45.507ZM69.1682 48.935C68.9848 49.0267 68.8357 49.1528 68.8472 49.2102C68.8587 49.2789 68.9733 49.3248 69.0994 49.3248C69.2256 49.3248 69.4319 49.2789 69.558 49.2102C69.6842 49.1528 69.7873 49.0152 69.7873 48.9235C69.7873 48.8318 69.7186 48.7516 69.6383 48.7516C69.5695 48.763 69.3517 48.8433 69.1682 48.935ZM76.0357 50.6662C75.9784 50.7006 75.944 52.2254 75.9555 54.0484L75.9784 57.3503C78.8103 57.2815 79.0969 57.2356 79.6357 56.9949C80.0026 56.8344 80.4498 56.5019 80.7249 56.2038C81.023 55.8713 81.2752 55.4242 81.4128 55C81.5619 54.5299 81.6077 54.1286 81.5733 53.7388C81.5389 53.4293 81.4128 52.9363 81.2867 52.6496C81.1606 52.363 80.8854 51.9388 80.6676 51.6866C80.4498 51.4458 80.0829 51.1477 79.8421 51.0331C79.6128 50.907 79.0969 50.7694 78.6956 50.7006C78.3058 50.6433 77.5721 50.586 77.0561 50.586C76.5517 50.586 76.0931 50.6203 76.0357 50.6662ZM57.2905 52.684V54.656C60.9937 54.5414 61.2918 54.4955 61.6472 54.2891C61.865 54.163 62.1402 53.8649 62.2434 53.6356C62.358 53.4063 62.4498 52.9821 62.4498 52.684C62.4498 52.3401 62.3466 51.9388 62.1861 51.6293C62.0485 51.3541 61.7733 51.0331 61.5899 50.9184C61.2918 50.735 60.9822 50.7121 59.2625 50.7006H57.2905V52.684ZM114.054 54.484L114.042 58.0496C116.874 58.0382 117.012 58.0267 117.654 57.7172C118.089 57.5108 118.525 57.1898 118.834 56.8344C119.133 56.4904 119.396 56.0433 119.499 55.6993C119.591 55.3783 119.66 54.828 119.66 54.4611C119.66 54.0598 119.557 53.5439 119.408 53.1426C119.27 52.7758 119.018 52.3401 118.857 52.1567C118.697 51.9732 118.364 51.7095 118.112 51.5605C117.86 51.4229 117.367 51.2509 117.023 51.1821C116.679 51.1133 115.865 51.0331 115.223 50.9872L114.065 50.9184L114.054 54.484ZM85.1504 52.8904V54.7248C88.6014 54.7248 89.1287 54.6789 89.3924 54.5528C89.5759 54.4496 89.851 54.1859 89.9886 53.9452C90.1606 53.6586 90.2408 53.3261 90.2523 52.9363C90.2523 52.5006 90.1721 52.2369 89.9542 51.9044C89.7937 51.6522 89.4727 51.3656 89.2434 51.2509C88.888 51.0904 88.4982 51.056 86.9848 51.056H85.1504V52.8904ZM105.936 54.1745L105.019 56.7312C105.833 56.8458 106.682 56.8802 107.415 56.8917C108.161 56.8917 108.791 56.8573 108.814 56.8114C108.837 56.7656 108.459 55.5847 107.966 54.1745C107.473 52.7758 107.026 51.6293 106.968 51.6293C106.899 51.6293 106.441 52.7758 105.936 54.1745ZM129.222 51.87C129.153 52.0191 128.729 53.1541 128.27 54.3809C127.812 55.6191 127.445 56.6853 127.445 56.7656C127.456 56.8573 127.961 56.9031 129.348 56.9031C130.391 56.9031 131.24 56.8573 131.24 56.8114C131.24 56.7656 130.85 55.6191 130.357 54.2662C129.875 52.9019 129.451 51.7554 129.417 51.6981C129.371 51.6407 129.291 51.7095 129.222 51.87ZM57.2905 59.1388V62.7503C61.3606 62.693 61.5096 62.67 62.037 62.4063C62.3351 62.2458 62.7937 61.9019 63.0345 61.6267C63.2752 61.363 63.5848 60.9273 63.7224 60.6522C63.86 60.3885 63.9975 59.907 64.0205 59.5974C64.0549 59.2764 64.0205 58.7375 63.9402 58.3936C63.86 58.0382 63.7109 57.6025 63.6192 57.4191C63.5275 57.2242 63.2867 56.8688 63.0918 56.628C62.8854 56.3758 62.4498 56.0433 62.0485 55.8598C61.3606 55.5274 61.3377 55.5159 59.3198 55.5159L57.2905 55.5274V59.1388ZM85.2421 55.6191C85.1389 55.642 85.1045 56.3184 85.1275 58.1987C85.1389 59.5974 85.1848 61.1681 85.2307 61.684L85.3224 62.6356C88.9338 62.6356 89.0141 62.6242 89.6791 62.3032C90.0574 62.1312 90.5619 61.7643 90.7912 61.5006C91.0319 61.2369 91.3071 60.8586 91.4217 60.6522C91.5249 60.4344 91.6281 59.907 91.6625 59.3681C91.6969 58.6802 91.651 58.3248 91.502 57.935C91.3988 57.6484 91.158 57.2127 90.9746 56.9605C90.7912 56.7082 90.4243 56.3528 90.1606 56.1809C89.8969 55.9974 89.4956 55.814 89.2778 55.7567C89.06 55.6993 88.0854 55.6305 87.1224 55.6191C86.1593 55.5961 85.3109 55.5961 85.2421 55.6191ZM105.203 67.2789C105.134 67.4624 104.87 68.2649 104.629 69.056C104.377 69.8356 104.205 70.5121 104.24 70.5465C104.274 70.5694 104.4 70.5006 104.538 70.3745C104.664 70.2484 104.939 69.8012 105.134 69.4C105.363 68.9184 105.512 68.4254 105.535 68.0012C105.57 67.6458 105.535 67.2675 105.466 67.1414C105.352 66.9465 105.329 66.9579 105.203 67.2789ZM73.4217 67.8637C73.1236 67.9095 73.1122 67.921 73.1122 68.6203C73.1236 69.0216 73.1695 69.5719 73.2268 69.8586C73.2842 70.1337 73.4217 70.4547 73.5364 70.5694C73.6854 70.707 74.0982 70.7987 75.0039 70.8789C75.6918 70.9477 77.9619 71.0738 80.0485 71.177C82.1236 71.2687 85.2536 71.3949 86.9848 71.4637C88.716 71.5324 91.3759 71.6356 92.8893 71.693C94.4026 71.7503 96.2256 71.8076 96.9249 71.8076C98.1975 71.8076 98.2205 71.7961 98.4612 71.4866C98.6905 71.2 98.702 71.0853 98.6217 69.9732C98.5873 69.3082 98.4842 68.6433 98.4154 68.4828C98.3351 68.3223 98.1173 68.1159 97.9338 68.0242C97.6357 67.8751 96.0765 67.8522 85.6663 67.8407C79.1084 67.8293 73.6052 67.8407 73.4217 67.8637ZM98.1746 84.2127C98.1402 84.3617 98.1058 84.8547 98.1058 85.3363C98.1058 85.8063 98.1631 86.6547 98.2319 87.228C98.3007 87.7898 98.4842 88.6726 98.6447 89.177C98.8052 89.6815 99.1606 90.5299 99.4357 91.0687C99.7109 91.5961 100.181 92.3184 100.491 92.6738C100.8 93.0178 101.408 93.5681 101.843 93.8891C102.279 94.2216 102.772 94.5426 102.944 94.6114C103.127 94.6802 103.265 94.6917 103.265 94.6458C103.265 94.6 103.047 94.4051 102.795 94.2216C102.531 94.0267 102.084 93.591 101.786 93.2471C101.488 92.8917 101.064 92.3528 100.857 92.0433C100.64 91.7223 100.296 91.1031 100.089 90.6675C99.8714 90.2089 99.6307 89.4407 99.5275 88.8904C99.4128 88.2254 99.3784 87.6751 99.4472 87.1707C99.4931 86.735 99.6192 86.3108 99.7338 86.1617C99.9058 85.9554 100.055 85.9095 100.571 85.9095C100.949 85.9095 101.843 86.0815 102.829 86.3567C103.735 86.6089 105.478 87.0904 106.705 87.4344C107.931 87.7898 109.491 88.2025 110.167 88.363C110.855 88.5235 111.531 88.6611 111.692 88.6611C111.852 88.6611 111.967 88.6038 111.944 88.5235C111.933 88.4547 110.935 88.0764 109.743 87.6866C108.539 87.2968 106.578 86.6203 105.386 86.1961C104.182 85.7719 102.141 85.0955 100.823 84.6942C99.516 84.293 98.4039 83.9605 98.3466 83.9605C98.2893 83.9605 98.209 84.0751 98.1746 84.2127ZM91.8115 87.6522C91.674 87.8012 91.5364 88.1222 91.502 88.3745C91.4447 88.7299 91.4905 88.9019 91.674 89.1426C91.8001 89.3146 92.1096 89.521 92.3389 89.5898C92.6829 89.693 92.8549 89.693 93.1644 89.5668C93.3822 89.4751 93.623 89.3031 93.7033 89.177C93.795 89.0509 93.8638 88.7643 93.8638 88.5465C93.8638 88.3172 93.7721 88.0076 93.6689 87.8586C93.5657 87.698 93.4166 87.5261 93.3479 87.4802C93.2905 87.4344 92.9695 87.4 92.6485 87.4C92.1899 87.4 92.0065 87.4573 91.8115 87.6522Z" fill="white"/>
<path d="M86.2968 55.5962C86.7096 55.6191 87.3975 55.6191 87.8446 55.5962C88.2917 55.5732 87.9478 55.5618 87.0994 55.5618C86.251 55.5618 85.8841 55.5732 86.2968 55.5962Z" fill="#2C4866"/>
<path d="M121.586 28.5846C121.219 28.6763 121.173 28.7107 121.299 28.8483C121.414 28.9859 121.529 28.9859 122.091 28.8254C122.446 28.7222 122.767 28.5961 122.824 28.5502C122.87 28.4929 122.71 28.4585 122.457 28.47C122.217 28.4814 121.815 28.5273 121.586 28.5846ZM120.428 32.563C120.382 32.7235 120.749 32.884 122.4 33.4228C123.512 33.7897 124.441 34.0649 124.475 34.0305C124.51 33.9961 124.406 33.9158 124.246 33.8585C124.085 33.8012 123.294 33.4916 122.469 33.1706C121.655 32.8496 120.864 32.5286 120.726 32.4712C120.531 32.391 120.463 32.4139 120.428 32.563ZM68.8243 48.4305C68.6868 48.6254 68.6753 48.7056 68.7785 48.7286C68.8587 48.7515 69.0766 48.7056 69.2485 48.6139C69.4205 48.5337 69.5466 48.419 69.5237 48.3502C69.5008 48.2814 69.3746 48.2241 69.2485 48.2012C69.0995 48.1783 68.939 48.27 68.8243 48.4305ZM58.1504 50.6661C58.6549 50.6891 59.4575 50.6891 59.9275 50.6661C60.3976 50.6547 59.9848 50.6318 59.0103 50.6318C58.0358 50.6318 57.646 50.6547 58.1504 50.6661ZM57.2447 55.5502C57.2218 55.6305 57.2103 57.2585 57.2218 59.1846L57.2332 62.6814L57.2906 55.5158L60.902 55.447C57.7148 55.4126 57.2791 55.4356 57.2447 55.5502ZM111.921 88.5808C111.829 88.6954 111.944 88.7642 112.437 88.8674C112.781 88.9477 113.171 88.9935 113.297 88.9706C113.457 88.9362 113.331 88.856 112.896 88.7184C112.552 88.5923 112.219 88.4891 112.15 88.4661C112.093 88.4432 111.99 88.5005 111.921 88.5808Z" fill="#CCCACB"/>
<path d="M76.7009 68.6662C75.2334 68.7006 74.9468 68.7235 74.9468 68.8726C74.9468 69.0216 75.2334 69.0331 77.0907 68.9758C78.2831 68.9414 79.3264 68.8841 79.4181 68.8497C79.5557 68.8038 79.5442 68.7694 79.3608 68.7006C79.2347 68.6433 78.971 68.6089 78.7875 68.6204C78.6041 68.6318 77.6525 68.6548 76.6895 68.6662H76.7009Z" fill="#060607"/>
<path d="M82.2267 68.586C80.5184 68.6204 79.2229 68.6662 79.3261 68.6777C79.4522 68.6892 79.498 68.758 79.4522 68.8382C79.3834 68.9414 79.7961 68.9529 81.1949 68.8955C82.2038 68.8497 85.5286 68.7579 88.5898 68.6892C91.6509 68.6204 94.1961 68.5516 94.2649 68.5286C94.3337 68.5057 92.3388 68.4943 89.8509 68.5057C87.363 68.5172 83.935 68.5516 82.2267 68.586Z" fill="#2C4866"/>
<path d="M94.2534 68.4713C94.2878 68.5401 94.4827 68.586 94.6661 68.586C94.8496 68.586 95.0101 68.5401 95.0101 68.4713C95.0101 68.4025 94.8266 68.3567 94.5973 68.3567C94.3566 68.3567 94.2075 68.4025 94.2534 68.4713Z" fill="#CCCACB"/>
</svg>
