<svg width="24" height="32" viewBox="0 0 24 32" fill="none" xmlns="http://www.w3.org/2000/svg">
<g clip-path="url(#clip0_451_3879)">
<path fill-rule="evenodd" clip-rule="evenodd" d="M10.7064 -0.0185547L13.2189 0.0930732L13.4064 2.67912L14.8126 2.93958C15.5814 3.06982 16.6876 3.4047 17.2501 3.68377C17.8126 3.96284 18.6376 4.48377 19.0876 4.83726C19.5376 5.19075 20.1001 5.8047 20.3626 6.1954C20.6064 6.56749 20.9626 7.27447 21.1689 7.75819C21.3564 8.26051 21.5626 9.04191 21.7501 10.4187H14.9064L14.7564 9.8233C14.6814 9.48842 14.4939 9.0233 14.3439 8.78144C14.1939 8.55819 13.8939 8.27912 13.6876 8.1861C13.3126 8.00005 13.3126 8.05586 13.3126 13.4884L15.6939 14.2698C17.0251 14.6977 18.5064 15.3303 19.0126 15.6652C19.5189 16 20.2689 16.6512 20.6626 17.1163C21.0564 17.5814 21.5251 18.3628 21.7126 18.8838C21.9189 19.5163 22.0314 20.3535 22.0126 21.4884C22.0126 22.7907 21.9001 23.4047 21.5626 24.2791C21.2814 24.9675 20.7376 25.7861 20.1376 26.4187C19.6126 26.9768 18.6751 27.7024 18.0751 28.0187C17.4751 28.3535 16.6689 28.707 16.3126 28.8187C15.9564 28.9303 15.1501 29.0791 13.4064 29.3024L13.2189 31.907L10.6876 32V29.3024L9.33762 29.0605C8.58762 28.9489 7.35012 28.5396 6.60012 28.1861C5.86887 27.8326 4.80012 27.1256 4.25637 26.6233C3.73137 26.121 3.05637 25.2652 2.77512 24.7256C2.47512 24.1489 2.19387 23.2187 2.11887 22.5303C2.02512 21.7861 2.04387 21.321 2.15637 21.2838C2.25012 21.228 3.76887 21.228 8.68137 21.3024L8.92512 22.1954C9.09387 22.7349 9.39387 23.2373 9.75012 23.5349C10.0689 23.7954 10.4064 24 10.5001 24C10.6126 24 10.6876 22.9396 10.6876 18.4187L9.05637 17.9535C8.13762 17.6931 6.86262 17.2466 6.18762 16.9675C5.34387 16.6326 4.65012 16.1489 3.93762 15.4419C3.35637 14.8838 2.73762 14.0838 2.55012 13.6745C2.34387 13.2652 2.10012 12.3907 2.00637 11.721C1.87512 10.8652 1.87512 10.1396 2.02512 9.20935C2.15637 8.48377 2.41887 7.57214 2.60637 7.16284C2.81262 6.75354 3.43137 5.97214 3.97512 5.43261C4.51887 4.89307 5.51262 4.16749 6.18762 3.83261C6.86262 3.49772 7.95012 3.12563 8.62512 2.9954C9.30012 2.86517 10.0314 2.73493 10.2751 2.67912C10.6501 2.6047 10.6876 2.51168 10.6876 1.30238L10.7064 -0.0185547ZM8.77512 9.99075C8.73762 10.7163 8.83137 11.0698 9.13137 11.4605C9.33762 11.7582 9.78762 12.1303 10.1064 12.3163L10.7064 12.6326C10.7064 8.1861 10.6501 7.7954 10.4064 7.7954C10.2564 7.7954 9.82512 8.09307 9.46887 8.42796C8.90637 8.96749 8.81262 9.19075 8.77512 9.99075ZM13.3689 24.1861C13.5001 24.1861 13.8939 24 14.2689 23.7582C14.6251 23.5163 15.0189 23.1256 15.1501 22.8652C15.2814 22.6233 15.3751 22.0652 15.3939 21.6559C15.3939 21.1907 15.2626 20.7256 15.0189 20.4093C14.8126 20.1303 14.3814 19.7768 14.0814 19.6094C13.7626 19.4605 13.4251 19.3303 13.3314 19.3303C13.2001 19.3303 13.1439 20.2605 13.1439 21.7489C13.1439 23.5721 13.2001 24.1861 13.3689 24.1861Z" fill="#E61A4A"/>
</g>
<defs>
<clipPath id="clip0_451_3879">
<rect width="24" height="32" fill="white"/>
</clipPath>
</defs>
</svg>
