<svg width="32" height="32" viewBox="0 0 32 32" fill="none" xmlns="http://www.w3.org/2000/svg">
<path fill-rule="evenodd" clip-rule="evenodd" d="M12.25 1.25H15.875L16.6875 3.4L17.5625 3.675C18.0375 3.825 18.775 4.125 19.9375 4.7375L22.0125 3.8125L23.25 5.0625C23.9375 5.75 24.5 6.375 24.5 6.4375C24.5 6.5 24.3 6.9875 23.65 8.4375L24.0375 9.1875C24.25 9.6 24.5375 10.3375 24.975 11.6875L27.125 12.5L27.0625 16.1875L26.7125 16.3125C26.4625 16.4 26.3125 16.4 26.15 16.275C26.0375 16.2 25.8 16.0625 25.625 15.975C25.45 15.8875 24.5375 15.8 21.8125 15.725L21.8 14.275C21.8 13.0125 21.75 12.6875 21.4625 11.875C21.275 11.3625 20.9375 10.6375 20.7125 10.2625C20.5 9.9 19.9625 9.25 19.55 8.825C19.125 8.4125 18.475 7.875 18.1125 7.6625C17.7375 7.4375 17.0375 7.1125 16.5625 6.9375C16.0125 6.75 15.2625 6.6 14.5625 6.55C13.75 6.5 13.175 6.525 12.5 6.675C11.9875 6.775 11.0875 7.1125 10.5 7.4C9.725 7.7875 9.2 8.1625 8.5625 8.8125C7.9625 9.4125 7.5125 10 7.1625 10.6875C6.875 11.2375 6.55 12.05 6.45 12.5C6.3375 12.95 6.25 13.7875 6.25 14.375C6.25 14.9625 6.3375 15.775 6.4375 16.1875C6.5375 16.6 6.8375 17.3625 7.0875 17.875C7.425 18.575 7.8 19.075 8.55 19.825C9.3 20.575 9.8 20.95 10.5 21.2875C11.0125 21.5375 11.775 21.8375 12.1875 21.9375C12.6 22.0375 13.1 22.125 13.3125 22.125C13.675 22.125 13.6875 22.15 13.7625 22.775C13.8 23.1375 13.9875 23.725 14.175 24.0625C14.4875 24.65 14.5 24.775 14.4375 27.4375L12.25 27.5L11.425 25.3125L10.7375 25.0875C10.3625 24.975 9.625 24.6625 8.125 23.9375L6.0625 24.875L3.5125 22.3125L4.4375 20.25L4.025 19.4C3.8 18.9375 3.5 18.2 3.0625 16.9625L1 16.1875V12.5L3.0625 11.7375L3.3 11.025C3.425 10.6375 3.7125 9.9125 3.95 9.4375C4.1875 8.9625 4.375 8.5 4.375 8.4375C4.375 8.375 4.175 7.8625 3.4875 6.3125L4.7125 5.0875C5.375 4.425 6 3.875 6.0875 3.875C6.175 3.875 6.675 4.075 8.125 4.75L8.9625 4.325C9.4375 4.1 10.175 3.7875 10.625 3.6375C11.4125 3.3875 11.45 3.35 11.65 2.7875C11.7625 2.45 11.95 1.975 12.0625 1.7125L12.25 1.25ZM17.8 10.5625C18.075 10.6 18.4125 10.725 18.5375 10.85C18.675 10.975 18.85 11.25 18.95 11.475C19.05 11.7125 19.0875 12.05 19.0375 12.2875C18.975 12.6 18.3625 13.2875 16.4375 15.2375C15.0625 16.6375 13.775 17.8625 13.5875 17.95C13.4 18.05 13.075 18.125 12.8625 18.125C12.6625 18.125 12.3375 18.05 12.15 17.95C11.9625 17.8625 11.2125 17.1625 10.475 16.425C9.75 15.675 9.1125 14.925 9.0625 14.75C9.0125 14.5875 9 14.2625 9.0375 14.0375C9.0875 13.8125 9.275 13.5 9.4625 13.3375C9.65 13.1875 9.975 13.0125 10.175 12.9625C10.4 12.9125 10.7125 12.925 10.925 13.0125C11.1375 13.0875 11.6625 13.5 12.875 14.6875L14.8375 12.7375C15.925 11.6625 16.9125 10.725 17.05 10.6375C17.1875 10.5625 17.525 10.525 17.8 10.5625ZM23.05 16.6625C24.7 16.6875 25.2375 16.7375 25.4625 16.875C25.6125 16.9875 25.825 17.25 25.925 17.475C26.0375 17.7 26.1125 18 26.1125 18.1375C26.1125 18.35 26.0375 18.3875 25.4875 18.3875C24.975 18.3875 24.8625 18.3375 24.8 18.1375C24.75 17.9 24.6375 17.8875 22.8 17.8875C20.95 17.8875 20.8625 17.8875 20.8625 18.1375C20.8625 18.35 20.7875 18.3875 20.2375 18.3875C19.65 18.3875 19.6125 18.3625 19.6125 18.0375C19.6125 17.85 19.7375 17.5125 19.8875 17.2875C20.0375 17.075 20.325 16.8375 20.5375 16.7625C20.75 16.7 21.8875 16.65 23.05 16.6625ZM17.6125 19.2625L17.65 20.475C17.675 21.425 17.7375 21.7875 17.9375 22.1125C18.0625 22.35 18.375 22.65 18.6125 22.775C19.0125 22.9875 19.3875 23.0125 22.8375 23.0125C26.3125 23.0125 26.65 22.9875 27.0875 22.7625C27.35 22.6375 27.65 22.35 27.775 22.1375C27.9375 21.85 27.9875 21.4625 27.9875 19.25H29.3375C30.2625 19.25 30.725 19.3 30.8375 19.4125C30.95 19.525 31 20.1 31 21.45C31 23.1875 30.975 23.35 30.7125 23.7375C30.5625 23.975 30.15 24.325 29.8 24.525C29.4625 24.7125 28.725 24.9875 28.175 25.125C27.625 25.275 26.7375 25.425 26.2125 25.475C25.2875 25.5625 25.2375 25.55 25.2375 25.325C25.25 25.1875 25.0875 24.8125 24.9 24.5125C24.6625 24.1375 24.35 23.85 23.9875 23.6625C23.6625 23.5 23.1875 23.3875 22.8625 23.375C22.5125 23.375 22.1 23.4875 21.7375 23.675C21.4375 23.825 21.05 24.15 20.8875 24.3875C20.725 24.625 20.5625 24.9875 20.425 25.5375L19.4875 25.4625C18.975 25.425 18.1375 25.275 17.6125 25.15C17.1 25.0125 16.3875 24.7625 16.025 24.5875C15.6625 24.4 15.2125 24.05 15.025 23.8C14.6875 23.35 14.675 23.3125 14.675 21.5C14.675 20.1375 14.725 19.6125 14.85 19.4625C14.9875 19.3 15.2625 19.2625 17.6125 19.2625ZM18.6125 19.2625H27.1125L27.125 20.4125C27.125 21.225 27.0625 21.65 26.9375 21.825C26.775 22.0625 26.6 22.075 22.975 22.1C19.7625 22.125 19.1375 22.1 18.9 21.95C18.6375 21.775 18.6125 21.6625 18.6125 20.5125V19.2625ZM22.8375 24.2625C23.0625 24.2625 23.4125 24.3375 23.6125 24.45C23.825 24.55 24.075 24.8 24.175 25.0125C24.2875 25.2125 24.3625 25.6125 24.3625 25.8875C24.3625 26.25 24.275 26.4875 24.025 26.7625C23.8375 26.975 23.4875 27.2 23.2375 27.275C23 27.35 22.6625 27.375 22.4875 27.3375C22.325 27.3 22 27.0625 21.775 26.825C21.4375 26.4625 21.3625 26.275 21.3625 25.825C21.3625 25.4875 21.4625 25.125 21.5875 24.9375C21.7 24.7625 21.9375 24.5375 22.1125 24.4375C22.2875 24.35 22.6125 24.2625 22.8375 24.2625ZM15.425 25.375C15.4625 25.375 15.9875 25.55 16.5875 25.75C17.1875 25.95 18.3 26.2 19.05 26.3C20.1125 26.4375 20.4625 26.525 20.55 26.7C20.625 26.825 20.85 27.1125 21.05 27.3625C21.2625 27.6 21.65 27.9 21.925 28.025C22.2 28.15 22.625 28.25 22.8625 28.25C23.1125 28.25 23.525 28.15 23.8 28.025C24.075 27.9 24.4875 27.5875 24.7125 27.3375C24.9375 27.0875 25.1125 26.8 25.1125 26.6875C25.1125 26.575 25.275 26.4875 25.525 26.45C25.75 26.425 26.4125 26.325 26.9875 26.25C27.575 26.175 28.55 25.9375 29.15 25.7375C29.75 25.55 30.275 25.375 30.3 25.375C30.3375 25.375 30.35 26.425 30.3 30.025L29.4875 30.75H16.2375L15.425 30.025L15.3875 27.7C15.375 26.425 15.3875 25.375 15.425 25.375Z" fill="#E61A4A"/>
</svg>
