<svg width="32" height="32" viewBox="0 0 32 32" fill="none" xmlns="http://www.w3.org/2000/svg">
<path opacity="0.98" d="M1 2V3H15V1H1V2ZM23.125 1.175C23 1.25 22.925 2.925 22.95 4.85C22.975 7.325 23.075 8.475 23.3 8.7C23.525 8.925 24.6 9 27.025 9C29.4 9 30.5 8.9 30.7 8.675C30.875 8.525 31 7.925 31 7.375C31 6.825 30.75 5.875 30.475 5.25C30.2 4.625 29.725 3.775 29.4 3.375C29.1 2.95 28.125 2.25 27.225 1.8C26.1 1.225 25.275 1 24.475 1C23.85 1 23.25 1.075 23.125 1.175ZM1 6V7H10V5H1V6ZM17.575 5.325C17.15 5.5 16.3 5.975 15.7 6.375C14.95 6.9 14.375 7.625 13.8 8.75C13.15 10.05 13 10.675 13 11.875C13 12.7 13.175 13.925 13.425 14.625C13.7 15.425 14.275 16.3 14.975 17.025C15.7 17.725 16.575 18.3 17.375 18.575C18.075 18.825 19.3 19 20.125 19C21.325 19 21.95 18.85 23.225 18.2C24.125 17.75 25.1 17.05 25.4 16.625C25.725 16.2 26.2 15.375 26.475 14.75C26.75 14.125 27 13.175 27 12.625C27 12.075 26.875 11.475 26.7 11.3C26.475 11.1 25.65 11 24.325 11C22.45 11 22.2 10.95 21.625 10.375C21.05 9.8 21 9.55 21 7.675C21 6.35 20.9 5.525 20.7 5.3C20.525 5.125 19.925 5 19.375 5.025C18.825 5.025 18.025 5.175 17.575 5.325ZM4.375 12.45C3.95 12.875 3.925 13.425 3.95 19.95L4 27H10C10.025 13.475 9.975 12.85 9.575 12.45C9.225 12.1 8.675 12 6.975 12C5.225 12 4.75 12.075 4.375 12.45ZM13.375 20.45C12.975 20.85 12.925 21.3 12.95 23.95L13 27H19C19.025 21.325 18.95 20.8 18.575 20.45C18.225 20.1 17.675 20 15.975 20C14.225 20 13.75 20.075 13.375 20.45ZM22.375 23.45C22 23.825 21.925 24.25 21.95 25.45L22 27H28C28.025 24.25 27.9 23.775 27.575 23.45C27.225 23.1 26.675 23 24.975 23C23.225 23 22.75 23.075 22.375 23.45ZM1 30V31H31V29H1V30Z" fill="#E61A4A"/>
</svg>
