<svg width="32" height="33" viewBox="0 0 32 33" fill="none" xmlns="http://www.w3.org/2000/svg">
<path fill-rule="evenodd" clip-rule="evenodd" d="M20.1931 1L20.5787 1.18182C20.848 1.31273 21.0008 1.44364 21.2846 1.93091L22.1942 1.96C22.9437 1.97455 23.1474 2.01091 23.3512 2.12727C23.4895 2.20727 23.6641 2.36727 23.7514 2.47636C23.9042 2.68 23.9042 2.72364 23.9406 13.4364H24.923C25.8617 13.4364 25.9126 13.4436 26.0145 13.5964C26.1018 13.7273 26.1382 14.0545 26.1673 14.9636C26.1964 15.8218 26.1746 16.3818 25.9927 17.6909L26.7567 18.8182C27.1715 19.4364 27.841 20.4182 28.2412 21C28.867 21.9018 28.9762 22.1055 29.0125 22.4182C29.0416 22.68 29.0198 22.8545 28.9252 23.0364C28.8597 23.1745 28.7287 23.3636 28.6414 23.4582C28.5614 23.5455 28.1684 23.7636 27.7755 23.9309C27.1278 24.2073 27.0624 24.2582 27.0332 24.4545C27.0114 24.5709 26.9095 25.5091 26.8077 26.5273C26.7058 27.5455 26.5748 28.5418 26.5093 28.7455C26.4438 28.9418 26.3201 29.2255 26.2328 29.3636C26.1455 29.5018 25.949 29.7491 25.7889 29.9018C25.6361 30.0545 25.2941 30.2873 24.5591 30.6364L20.9935 30.68L20.5205 31.7418C20.2586 32.3236 19.9966 32.84 19.9384 32.8982C19.8802 32.9491 19.8001 33 19.7565 33C19.7128 33 19.6109 32.9273 19.5163 32.8327C19.429 32.7455 19.3562 32.6436 19.3562 32.6C19.3562 32.5564 19.5891 31.9891 20.3895 30.1273L20.3604 27.8727C20.3313 25.9891 20.3022 25.5527 20.1931 25.2182C20.1276 25 20.0039 24.6873 19.9238 24.5273C19.8438 24.3673 19.64 24.0618 19.4727 23.8436C19.3126 23.6255 18.9633 23.2982 18.7013 23.1164C18.4394 22.9345 18.0173 22.7091 17.7554 22.6073C17.3406 22.4618 17.0932 22.4327 15.7542 22.3818C14.9101 22.3455 13.0182 22.2945 8.85584 22.2L9.26335 22.8182C9.48165 23.16 9.80183 23.7127 9.96192 24.0545C10.122 24.3964 10.3258 24.9345 10.4058 25.2545C10.5077 25.6618 10.5513 26.0691 10.5513 26.6C10.5513 27.0218 10.5004 27.6909 10.4422 28.0909C10.3912 28.4909 10.2748 29.1309 10.1875 29.5091C10.1075 29.8873 9.91826 30.6073 9.76544 31.1091C9.61991 31.6109 9.44526 32.0764 9.3725 32.1418C9.29973 32.2146 9.19058 32.2727 9.13236 32.2727C9.07415 32.2727 8.95772 32.2073 8.87768 32.1273C8.79763 32.0473 8.74669 31.9236 8.76125 31.8509C8.7758 31.7855 8.92134 31.2691 9.0887 30.7091C9.25607 30.1491 9.47437 29.2618 9.56897 28.7455C9.66357 28.2291 9.76544 27.4582 9.79455 27.0364C9.83093 26.4473 9.81638 26.1273 9.72178 25.6545C9.64174 25.2473 9.47437 24.7891 9.24151 24.3091C9.04504 23.9091 8.6521 23.2545 8.37558 22.8545C8.09178 22.4545 7.61151 21.7491 7.30589 21.2909C6.99299 20.8327 6.62187 20.2291 6.46906 19.9455C6.31625 19.6618 6.09067 19.1745 5.97424 18.8545C5.85781 18.5345 5.71227 17.9964 5.64678 17.6545C5.57402 17.2909 5.53036 16.6655 5.53036 16.1273C5.53036 15.6255 5.58129 14.8764 5.64678 14.4545C5.71955 13.9673 5.80687 13.64 5.87964 13.56C5.98879 13.4509 6.13433 13.4291 7.78616 13.4364V8.34546C7.78616 5.21091 7.81526 3.12364 7.85893 2.90545C7.90259 2.71636 8.04085 2.38182 8.17183 2.16364C8.29553 1.94545 8.55022 1.66182 8.73214 1.52364C8.91406 1.39273 9.25607 1.21818 9.4962 1.14545C9.9037 1.01455 10.2675 1.00727 20.1931 1ZM9.11781 2.2C8.97227 2.31636 8.79035 2.54909 8.71759 2.70909C8.60116 2.97818 8.5866 3.37091 8.5866 8.22182V13.4364H10.7696V1.8C10.0638 1.80727 9.75089 1.85091 9.62718 1.89455C9.4962 1.94545 9.26334 2.07636 9.11781 2.2ZM11.5701 13.4364H20.5205V2.01818C20.2149 1.81455 19.6037 1.8 15.8779 1.8H11.5701V13.4364ZM21.321 13.4364L23.1766 13.4C23.2057 4.25091 23.1911 3.10909 23.1183 2.96364C23.031 2.78909 23.0019 2.78182 22.1796 2.76L21.3283 2.73818L21.321 13.4364ZM1.45536 6.89818C1.54995 6.89091 1.74643 6.92727 1.89196 6.97818C2.03022 7.02182 2.24853 7.13818 2.37951 7.23273C2.51049 7.32727 2.67786 7.51636 2.87433 7.91636L6.86928 7.94546L6.94205 8.14182C7.00754 8.30909 6.99299 8.36727 6.87656 8.49091C6.73102 8.63636 6.65826 8.64364 2.9471 8.64364L2.76518 9.02182C2.6342 9.29091 2.48866 9.45818 2.2558 9.60364C1.99384 9.76364 1.84103 9.80727 1.50629 9.80727C1.24433 9.8 0.989643 9.74909 0.815 9.66182C0.669464 9.58909 0.487544 9.46545 0.422053 9.39273C0.356562 9.32 0.232857 9.10909 0.152812 8.92727C0.0654909 8.75273 0 8.52 0 8.41818C0 8.32364 0.0436607 8.11273 0.0873214 7.95273C0.138259 7.79273 0.291071 7.53818 0.436607 7.38546C0.574866 7.23273 0.822276 7.05818 0.982366 7C1.14245 6.94909 1.35348 6.89818 1.45536 6.89818ZM0.800446 8.38182C0.800446 8.57818 0.851384 8.69455 1.01875 8.85455C1.17884 9.02182 1.30254 9.07273 1.49174 9.07273C1.68821 9.07273 1.81192 9.02182 1.96473 8.85455C2.11754 8.70182 2.18303 8.57091 2.18303 8.38182C2.18303 8.2 2.12482 8.06909 1.96473 7.90909C1.79737 7.74909 1.67366 7.69091 1.48446 7.69091C1.28799 7.69091 1.17156 7.74909 1.01875 7.90909C0.873214 8.05455 0.807723 8.19273 0.800446 8.38182ZM30.4897 6.89818C30.5843 6.89818 30.7953 6.92727 30.9409 6.96364C31.0937 7.00727 31.3193 7.13091 31.4503 7.24727C31.5812 7.35636 31.7632 7.61091 31.8578 7.80727C31.996 8.08364 32.0178 8.23636 31.9887 8.47636C31.9596 8.64364 31.8796 8.90546 31.8068 9.05818C31.7268 9.20364 31.6031 9.38546 31.5303 9.45091C31.4575 9.51636 31.2902 9.61818 31.1592 9.68364C31.0282 9.74909 30.7444 9.8 30.5043 9.80727C30.1695 9.80727 30.0167 9.76364 29.762 9.60364C29.5219 9.45818 29.3836 9.29091 29.0707 8.64364H27.1788C25.3523 8.64364 25.2795 8.63636 25.1413 8.49091C25.0176 8.36727 25.003 8.30909 25.1413 7.94546L29.1435 7.91636L29.2672 7.65455C29.34 7.51636 29.5001 7.32727 29.6311 7.23273C29.762 7.13818 29.9658 7.02182 30.0895 6.97818C30.2059 6.94182 30.3878 6.90545 30.4897 6.89818ZM29.8348 8.38182C29.8348 8.57818 29.8857 8.69455 30.0531 8.85455C30.2132 9.02182 30.3369 9.07273 30.5261 9.07273C30.7226 9.07273 30.8463 9.02182 30.9991 8.85455C31.1519 8.70182 31.2174 8.57091 31.2174 8.38182C31.2174 8.2 31.1592 8.06909 30.9991 7.90909C30.8317 7.74909 30.708 7.69091 30.5188 7.69091C30.3224 7.69091 30.2059 7.74909 30.0531 7.90909C29.9076 8.05455 29.8421 8.19273 29.8348 8.38182ZM1.96473 1.58909C2.10299 1.58182 2.32857 1.61818 2.47411 1.66909C2.61237 1.71273 2.81612 1.82182 2.93254 1.90909C3.0417 1.98909 3.21634 2.22182 3.31094 2.41818C3.41281 2.62182 3.49286 2.89091 3.49286 3.02182C3.49286 3.15273 3.43464 3.39273 3.23817 3.85091L4.54799 5.15273L5.63951 5.14545C6.65098 5.14545 6.7383 5.15273 6.87656 5.29818C6.99299 5.42182 7.00754 5.48 6.86928 5.83636L4.18415 5.88L3.42009 5.10909C2.72152 4.40364 2.64147 4.33818 2.48866 4.41091C2.40134 4.45455 2.19031 4.49091 2.01567 4.49091C1.84103 4.49091 1.57179 4.42546 1.38259 4.33091C1.20795 4.24364 0.960535 4.04 0.83683 3.88727C0.65491 3.65455 0.61125 3.52364 0.589419 3.16C0.567589 2.81818 0.596696 2.64364 0.705848 2.41818C0.793169 2.25818 0.931428 2.06182 1.02603 1.96727C1.12062 1.88 1.30982 1.76364 1.45536 1.69818C1.59362 1.64 1.8192 1.58909 1.96473 1.58909ZM1.45536 2.65091C1.36804 2.76727 1.30254 2.92727 1.30254 3.02182C1.30254 3.10909 1.35348 3.27636 1.40442 3.38545C1.46263 3.49455 1.60089 3.62545 1.71732 3.68364C1.83375 3.73455 2.03022 3.75636 2.1612 3.73455C2.29946 3.71273 2.45955 3.61091 2.54687 3.49455C2.62692 3.38545 2.69241 3.18909 2.69241 3.05818C2.69241 2.92727 2.65603 2.75273 2.61964 2.67273C2.57598 2.59273 2.43045 2.48364 2.29219 2.41818C2.14665 2.36 2.00839 2.31636 1.97929 2.31636C1.95018 2.31636 1.85558 2.34545 1.76826 2.38182C1.67366 2.41818 1.5354 2.53455 1.45536 2.65091ZM30.0167 1.58909C30.2569 1.58909 30.4752 1.64 30.6644 1.74909C30.8172 1.83636 31.05 2.04 31.1737 2.19273C31.3557 2.42545 31.3993 2.54909 31.4211 2.92C31.443 3.26182 31.4139 3.43636 31.3047 3.65455C31.2247 3.81455 31.0791 4.01818 30.9845 4.10545C30.8899 4.19273 30.6935 4.31636 30.5407 4.38182C30.3951 4.44 30.155 4.49091 30.0167 4.49091C29.8712 4.49091 29.6674 4.46182 29.5583 4.41818C29.3691 4.34545 29.3254 4.38182 27.8337 5.87273H26.5384C25.4906 5.87273 25.2286 5.85818 25.1413 5.76364C25.0758 5.70545 25.0321 5.58909 25.0321 5.50909C25.0321 5.42909 25.0831 5.32 25.1413 5.25455C25.2359 5.16727 25.4833 5.14545 27.4699 5.15273L28.7797 3.85091L28.6487 3.55273C28.5832 3.39273 28.525 3.16727 28.5177 3.05818C28.5177 2.94909 28.5614 2.74545 28.605 2.6C28.6487 2.46182 28.7578 2.25091 28.8452 2.12727C28.9325 2.01091 29.1508 1.83636 29.3254 1.74909C29.5365 1.64 29.7766 1.58182 30.0167 1.58909ZM29.3982 2.67273C29.3545 2.75273 29.3182 2.92727 29.3182 3.05818C29.3182 3.18909 29.3836 3.38545 29.4637 3.49455C29.551 3.61091 29.7111 3.71273 29.8494 3.73455C29.9876 3.75636 30.1768 3.73455 30.3005 3.68364C30.4097 3.62545 30.5479 3.49455 30.6062 3.38545C30.6644 3.27636 30.708 3.10182 30.708 3C30.708 2.90545 30.6134 2.72364 30.5043 2.6C30.3951 2.48364 30.2059 2.36727 30.0895 2.34545C29.9658 2.33091 29.7839 2.36 29.6674 2.41818C29.5583 2.48364 29.4346 2.59273 29.3982 2.67273ZM5.49397 10.6073C6.22893 10.6073 6.6437 10.6364 6.76741 10.6945C6.86928 10.7527 6.9566 10.8618 6.97116 10.9709C6.97843 11.0655 6.93477 11.2036 6.86201 11.2764C6.74558 11.3927 6.58549 11.4073 4.55527 11.4L3.05625 12.8909L3.09991 13.2909C3.12902 13.5527 3.11446 13.8 3.04897 13.9818C2.99803 14.1418 2.86705 14.3745 2.76518 14.4909C2.6633 14.6073 2.45228 14.76 2.29219 14.8327C2.1321 14.9055 1.8483 14.9636 1.67366 14.9636C1.46991 14.9636 1.21522 14.9055 1.01875 14.8036C0.822276 14.7091 0.603973 14.5127 0.472991 14.3236C0.305625 14.0836 0.247411 13.9091 0.22558 13.5964C0.211027 13.2691 0.240134 13.1164 0.378393 12.8545C0.472991 12.68 0.691295 12.4327 0.865937 12.3091C1.10607 12.1418 1.27344 12.0909 1.58634 12.0691C1.87741 12.0545 2.08116 12.0836 2.53232 12.3091L3.31821 11.5164C3.74754 11.08 4.1696 10.6945 4.24964 10.6655C4.32969 10.6364 4.89 10.6073 5.49397 10.6073ZM1.11335 13.0727C1.0333 13.1673 0.982366 13.3491 0.982366 13.5164C0.982366 13.7273 1.0333 13.8509 1.17884 14.0036C1.33893 14.1564 1.45536 14.2 1.67366 14.2C1.89196 14.2 2.00839 14.1491 2.1612 13.9964C2.31402 13.8509 2.36495 13.7273 2.36495 13.5091C2.36495 13.3055 2.31402 13.1745 2.18303 13.0436C2.08116 12.9418 1.89924 12.8473 1.78281 12.8255C1.65911 12.8036 1.49174 12.8182 1.40442 12.8473C1.3171 12.8836 1.18612 12.9855 1.11335 13.0727ZM27.79 10.6364L29.5074 12.3236L29.762 12.1927C29.9003 12.12 30.1623 12.0545 30.3442 12.0545C30.5479 12.0545 30.7881 12.12 30.9991 12.2218C31.1737 12.3164 31.4139 12.5273 31.5303 12.68C31.6613 12.8691 31.7486 13.0945 31.7777 13.3273C31.7995 13.5455 31.7777 13.8073 31.7195 13.9818C31.6686 14.1418 31.5376 14.3745 31.4357 14.4909C31.3338 14.6073 31.1228 14.76 30.9627 14.8327C30.8026 14.9055 30.5188 14.9636 30.3442 14.9636C30.1623 14.9636 29.8857 14.9055 29.7257 14.8327C29.5656 14.76 29.3473 14.6073 29.2454 14.4909C29.1435 14.3745 29.0198 14.1418 28.9616 13.9818C28.9034 13.8 28.8816 13.5527 28.9543 12.8909L27.4699 11.4L26.3783 11.4073C25.4251 11.4073 25.265 11.3927 25.1558 11.2764C25.0758 11.2036 25.0321 11.0727 25.054 10.9709C25.0685 10.8691 25.1631 10.7455 25.2577 10.6945C25.3814 10.6218 25.738 10.6073 27.79 10.6364ZM29.7839 13.0727C29.7038 13.1673 29.6529 13.3491 29.6529 13.5164C29.6529 13.7273 29.7038 13.8509 29.8494 14.0036C30.0095 14.1564 30.1259 14.2 30.3442 14.2C30.5625 14.2 30.6789 14.1491 30.8317 13.9964C30.9845 13.8509 31.0355 13.7273 31.0355 13.5091C31.0355 13.3055 30.9845 13.1745 30.8536 13.0436C30.7517 12.9418 30.5698 12.8473 30.4533 12.8255C30.3296 12.8036 30.1623 12.8182 30.0749 12.8473C29.9876 12.8836 29.8566 12.9855 29.7839 13.0727ZM15.7324 23.48C16.1908 23.48 16.4965 23.5164 16.8239 23.6255C17.0786 23.7127 17.4279 23.8727 17.6098 23.9818C17.7845 24.0982 18.1046 24.3673 18.3084 24.5782C18.5121 24.7891 18.7595 25.1382 18.8687 25.3491C18.9778 25.56 19.1088 25.9164 19.1743 26.1491C19.2325 26.3745 19.2835 26.7382 19.2835 26.9491C19.2835 27.16 19.2471 27.5018 19.2034 27.7127C19.1598 27.9236 19.0215 28.3091 18.8978 28.5636C18.7523 28.8691 18.5121 29.2036 18.2283 29.48C17.9518 29.7564 17.6171 30.0036 17.3187 30.1418C17.0568 30.2655 16.6711 30.4036 16.4601 30.4473C16.2491 30.4909 15.9289 30.5273 15.7542 30.5273C15.5723 30.5273 15.2012 30.4836 14.932 30.4182C14.6627 30.36 14.2479 30.1927 14.0078 30.0545C13.7677 29.9091 13.4111 29.64 13.2219 29.4509C12.9963 29.24 12.7562 28.8836 12.2614 27.8873V27.0073C12.2614 26.2509 12.2832 26.0691 12.436 25.6909C12.5379 25.4509 12.778 25.0655 12.9745 24.8327C13.171 24.5927 13.5203 24.2582 13.7604 24.0836C14.0005 23.9091 14.3862 23.7055 14.6409 23.6255C14.9392 23.5309 15.3176 23.48 15.7324 23.48ZM14.3716 24.5636C14.1679 24.6727 13.8477 24.9418 13.6585 25.16C13.462 25.3709 13.2365 25.7273 13.1491 25.9455C13.0327 26.2509 12.9891 26.5055 12.9891 27C12.9891 27.5891 13.0109 27.7055 13.2146 28.1273C13.3456 28.3964 13.593 28.7527 13.7968 28.9491C13.9933 29.1455 14.3134 29.3782 14.5172 29.48C14.7137 29.5745 15.0775 29.6836 15.3176 29.7127C15.5578 29.7418 15.9143 29.7491 16.1181 29.7273C16.3145 29.6982 16.6566 29.6036 16.8821 29.5018C17.1004 29.4 17.4279 29.1891 17.6098 29.0291C17.7845 28.8618 18.0391 28.5418 18.1629 28.3018C18.3011 28.0545 18.4321 27.6764 18.4685 27.4C18.5121 27.1236 18.5194 26.7818 18.483 26.5636C18.4539 26.3673 18.3739 26.0909 18.3229 25.9455C18.2647 25.8073 18.1192 25.5455 17.9955 25.3636C17.8718 25.1891 17.6171 24.92 17.4206 24.7745C17.2241 24.6291 16.8603 24.44 16.6056 24.3527C16.3364 24.2655 15.9871 24.2073 15.7324 24.2073C15.5068 24.2145 15.1866 24.2509 15.0266 24.2873C14.8665 24.3236 14.5681 24.4473 14.3716 24.5636ZM15.8416 4.70909C16.1254 4.70909 16.3873 4.74546 16.4528 4.80364C16.5256 4.85455 16.6274 5.07273 16.6929 5.29091C16.773 5.59636 16.8458 5.70545 16.9695 5.74182C17.0859 5.77818 17.2314 5.74182 17.4424 5.61818C17.6171 5.51636 17.8281 5.43636 17.9154 5.43636C18.0246 5.43636 18.2138 5.57455 18.4612 5.83636C18.6722 6.05455 18.8469 6.28 18.8396 6.33091C18.8396 6.38182 18.745 6.58545 18.6286 6.78182C18.4539 7.09455 18.4321 7.17455 18.5049 7.31273C18.5485 7.40727 18.6213 7.48 18.665 7.48C18.7013 7.48 18.8614 7.50909 19.007 7.54546C19.1598 7.58909 19.3271 7.66909 19.3926 7.72727C19.4654 7.80727 19.5018 7.99636 19.5018 8.36727C19.5018 8.78182 19.4799 8.92 19.3708 9.00727C19.3053 9.07273 19.0943 9.16727 18.9196 9.21091C18.7086 9.26909 18.5631 9.35636 18.5121 9.45818C18.4394 9.59636 18.4612 9.68364 18.6358 10.0036C18.7523 10.2145 18.8323 10.44 18.8105 10.5127C18.7959 10.5782 18.614 10.7964 18.4103 10.9855C18.2065 11.1745 17.9882 11.3273 17.9154 11.3273C17.8499 11.3273 17.6389 11.2473 17.4643 11.1455C17.2533 11.0291 17.0713 10.9709 16.9695 11C16.853 11.0291 16.7875 11.1236 16.7293 11.3491C16.6857 11.5164 16.6056 11.7273 16.5474 11.8218C16.4528 11.9673 16.3873 11.9818 15.8634 11.9818C15.3395 11.9818 15.2667 11.9673 15.1721 11.8218C15.1212 11.7273 15.0411 11.5309 15.012 11.3709C14.9756 11.1891 14.8956 11.0582 14.7864 11.0073C14.6554 10.9418 14.5608 10.9636 14.277 11.1309C14.0879 11.2327 13.8768 11.3273 13.8041 11.3273C13.7386 11.3273 13.513 11.1745 13.3092 10.9855C13.1055 10.7964 12.9308 10.5782 12.909 10.5127C12.8945 10.44 12.9745 10.2145 13.0837 10.0036C13.2437 9.71273 13.2801 9.58182 13.2292 9.45818C13.1928 9.34909 13.0691 9.26909 12.8945 9.21818C12.7489 9.18182 12.5888 9.14546 12.5525 9.14546C12.5088 9.14546 12.4215 9.08727 12.3487 9.02182C12.2468 8.92 12.2177 8.77455 12.2177 8.37455C12.2104 7.98909 12.2395 7.82182 12.3269 7.73455C12.3924 7.66909 12.567 7.58909 12.7125 7.54546C12.8654 7.50909 13.0182 7.48 13.0618 7.48C13.0982 7.48 13.171 7.40727 13.2146 7.31273C13.2874 7.17455 13.2656 7.09455 13.0909 6.78182C12.9745 6.58545 12.8799 6.38182 12.8799 6.33091C12.8799 6.28 13.04 6.06182 13.2437 5.83636C13.4984 5.56727 13.6731 5.43636 13.7895 5.43636C13.8914 5.43636 14.1097 5.51636 14.277 5.61818C14.4954 5.74182 14.6409 5.77818 14.7573 5.74182C14.8665 5.71273 14.9465 5.60364 14.9902 5.43636C15.0266 5.29818 15.0629 5.14545 15.0629 5.09455C15.0629 5.04364 15.1284 4.93455 15.2085 4.85455C15.3249 4.73818 15.4486 4.70909 15.8416 4.70909ZM15.6451 5.96727C15.5796 6.20727 15.5214 6.25818 15.1503 6.42545C14.9247 6.52727 14.67 6.60727 14.5899 6.60727C14.5099 6.6 14.328 6.53455 14.1897 6.45455C14.0442 6.36727 13.8914 6.32364 13.8404 6.34545C13.775 6.37455 13.8041 6.47636 13.9423 6.73091L14.1388 7.07273C13.7677 8.01818 13.7604 8.02546 13.3602 8.14909C13.1346 8.21455 12.9527 8.31636 12.9527 8.36727C12.9454 8.41818 13.1128 8.49818 13.3165 8.54909C13.5494 8.60727 13.7167 8.69455 13.775 8.80364C13.8332 8.89091 13.935 9.11636 14.0078 9.29091C14.1315 9.61818 14.1315 9.61818 13.9423 9.98182C13.8332 10.1855 13.7749 10.3745 13.8041 10.4109C13.8332 10.44 14.0224 10.3818 14.2261 10.28L14.5899 10.0982C15.2667 10.3745 15.4995 10.5127 15.5505 10.5782C15.6014 10.6509 15.6596 10.8327 15.6815 10.9855C15.7033 11.1891 15.747 11.2545 15.8416 11.24C15.9143 11.2255 16.0016 11.1018 16.0599 10.8909C16.1108 10.7164 16.1763 10.5418 16.2054 10.5127C16.2345 10.4836 16.4601 10.3745 16.7002 10.28L17.1368 10.1055C17.668 10.3745 17.8572 10.44 17.9009 10.4182C17.9373 10.3964 17.8936 10.2436 17.7917 10.0545C17.6899 9.88 17.6098 9.66909 17.6098 9.60364C17.6171 9.53091 17.7044 9.29818 17.8136 9.07273C17.9955 8.70182 18.0319 8.66546 18.3884 8.56364C18.5995 8.50546 18.7741 8.41818 18.7741 8.36727C18.7741 8.31636 18.5849 8.21455 18.3593 8.14909C17.9518 8.01818 17.9518 8.01818 17.7699 7.54546L17.5807 7.07273C17.9373 6.44727 17.9518 6.37455 17.8645 6.34545C17.799 6.33091 17.6462 6.37455 17.5152 6.45455C17.3842 6.53455 17.2169 6.6 17.1368 6.6C17.0568 6.60727 16.8021 6.52727 16.5692 6.42545C16.2054 6.25818 16.1399 6.20727 16.0817 5.96727C16.038 5.81455 16.0089 5.65455 16.0089 5.60364C16.0089 5.55273 15.9434 5.50909 15.8634 5.50909C15.7833 5.50909 15.7179 5.55273 15.7179 5.60364C15.7179 5.65455 15.6815 5.81455 15.6451 5.96727ZM15.747 25.3709C15.9507 25.3709 16.2491 25.4291 16.4091 25.5018C16.5692 25.5745 16.8166 25.7782 16.9695 25.9527C17.1295 26.1418 17.2751 26.4109 17.3187 26.6C17.3624 26.7891 17.3697 27.0727 17.3406 27.2545C17.3115 27.4364 17.1878 27.7273 17.0641 27.9091C16.9258 28.1127 16.7148 28.3018 16.4819 28.4182C16.2127 28.5564 16.0162 28.6 15.7179 28.5927C15.4704 28.5927 15.2012 28.5345 15.0266 28.44C14.8665 28.36 14.6263 28.1709 14.4954 28.0109C14.3716 27.8582 14.2261 27.5818 14.1752 27.4C14.1315 27.2255 14.1097 26.9273 14.1388 26.7455C14.1606 26.5418 14.2698 26.3018 14.4153 26.0982C14.5536 25.9164 14.8155 25.6836 15.0193 25.5673C15.2812 25.4218 15.4704 25.3636 15.747 25.3709ZM14.9611 26.6364C14.8446 26.8836 14.8374 26.9709 14.9029 27.2036C14.9538 27.3491 15.0848 27.56 15.2085 27.6545C15.3686 27.7927 15.5068 27.8364 15.7615 27.8364C16.0453 27.8364 16.1254 27.8 16.3437 27.5818C16.5401 27.3782 16.5911 27.2691 16.5911 27.0364C16.5911 26.8764 16.5329 26.6509 16.4601 26.5273C16.3946 26.4109 16.2272 26.2582 16.0962 26.2C15.9653 26.1418 15.8052 26.0909 15.7324 26.0909C15.6669 26.0909 15.4923 26.1491 15.354 26.2218C15.1866 26.3018 15.0484 26.4545 14.9611 26.6364ZM16.0453 7.02182C16.1617 7.03636 16.3728 7.10909 16.5183 7.18182C16.6566 7.24727 16.8676 7.44364 16.9913 7.61818C17.1732 7.88 17.2096 7.98909 17.2023 8.37455C17.2023 8.72364 17.1659 8.88364 17.0204 9.10182C16.9258 9.26182 16.7148 9.46546 16.5547 9.56C16.3437 9.67636 16.1472 9.72727 15.8634 9.72727C15.5432 9.73455 15.3904 9.69091 15.1357 9.53091C14.9174 9.39273 14.75 9.21091 14.6409 9C14.5536 8.81818 14.4808 8.54182 14.4808 8.38182C14.4808 8.22182 14.5536 7.94546 14.6409 7.77091C14.7355 7.59636 14.9029 7.37091 15.0266 7.28364C15.143 7.19636 15.3758 7.08727 15.5359 7.05091C15.696 7.01455 15.9216 7 16.0453 7.02182ZM15.2812 8.16364C15.223 8.30182 15.2376 8.41818 15.3176 8.6C15.3758 8.74546 15.4995 8.89091 15.5869 8.93455C15.6815 8.98546 15.8561 9 15.9871 8.97091C16.1399 8.94909 16.2709 8.85455 16.3509 8.73091C16.4164 8.62182 16.4674 8.43273 16.4601 8.30909C16.4528 8.17818 16.38 8.03273 16.2636 7.93091C16.1617 7.83636 15.9871 7.76364 15.8779 7.76364C15.7688 7.76364 15.6087 7.81455 15.5141 7.87273C15.4268 7.93818 15.3176 8.06909 15.2812 8.16364Z" fill="#E61A4A"/>
</svg>
