<svg width="32" height="32" viewBox="0 0 32 32" fill="none" xmlns="http://www.w3.org/2000/svg">
<g clip-path="url(#clip0_451_3864)">
<path d="M13.6001 0.08C13.5121 0.136 13.4721 0.344 13.4561 0.896C13.4401 1.464 13.4641 1.68 13.5601 1.824C13.6721 1.984 13.7521 2 14.4801 2.024C15.0961 2.032 15.3041 2.072 15.3601 2.16C15.4001 2.224 15.4401 2.392 15.4401 2.52C15.4401 2.648 15.4001 2.808 15.3441 2.864C15.2801 2.928 14.9921 2.96 14.5041 2.96C13.8641 2.96 13.7361 2.984 13.6001 3.12C13.4641 3.256 13.4401 3.384 13.4401 4C13.4401 4.616 13.4641 4.744 13.6001 4.88C13.7361 5.016 13.8641 5.04 14.5041 5.04C14.9948 5.04 15.2748 5.072 15.3441 5.136C15.4001 5.192 15.4401 5.36 15.4401 5.504C15.4401 5.64 15.3841 5.816 15.3121 5.88C15.2241 5.968 15.0001 6 14.4401 6C13.8321 6 13.6641 6.024 13.5601 6.144C13.4401 6.256 13.4241 6.408 13.4481 7.056C13.4641 7.48 13.5121 7.856 13.5441 7.896C13.5841 7.928 13.9921 7.976 14.4481 8C15.0721 8.032 15.3041 8.072 15.3601 8.16C15.4001 8.224 15.4401 8.384 15.4401 8.52C15.4401 8.656 15.4001 8.808 15.3441 8.864C15.2801 8.928 14.9921 8.96 14.5041 8.96C13.8401 8.96 13.7441 8.976 13.5921 9.144C13.4321 9.304 13.4241 9.392 13.4481 10.064C13.4721 10.704 13.5041 10.832 13.6401 10.928C13.7521 11.008 14.0161 11.04 14.5201 11.04C15.0001 11.04 15.2721 11.072 15.3441 11.136C15.4001 11.192 15.4401 11.36 15.4401 11.504C15.4401 11.64 15.3841 11.816 15.3121 11.88C15.2321 11.952 15.0321 12 14.7681 12C14.5441 12 14.3121 12.048 14.2561 12.104C14.2001 12.152 14.1601 12.288 14.1601 12.4C14.1681 12.512 14.2801 12.904 14.4241 13.28C14.6721 13.944 14.6881 13.96 14.9841 14C15.1441 14.024 15.3201 14.096 15.3601 14.16C15.4001 14.224 15.4401 14.432 15.4401 14.624C15.4401 14.872 15.4081 14.96 15.3201 14.96C15.2561 14.96 15.1841 14.992 15.1601 15.04C15.1361 15.088 15.1841 15.32 15.2561 15.568C15.3441 15.856 15.4641 16.064 15.5761 16.128C15.6801 16.192 15.8321 16.224 15.9201 16.2C16.0081 16.176 16.1121 16.096 16.1521 16.024C16.1921 15.944 16.5521 14.832 16.9601 13.56C17.6081 11.488 17.7361 11.168 18.1201 10.56L18.5521 9.88C18.5601 0.88 18.5441 0.224 18.4401 0.12C18.3361 0.016 17.9601 0 16.0161 0C14.7121 0 13.6721 0.032 13.6001 0.08ZM0.584103 15.032C0.488103 15.072 0.360103 15.168 0.288103 15.248C0.224103 15.336 0.128103 15.616 0.072103 15.88C0.016103 16.176 -0.007897 16.92 0.016103 17.84C0.040103 18.984 0.080103 19.376 0.176103 19.56C0.248103 19.688 0.384103 19.848 0.488103 19.896C0.608103 19.96 1.1441 20 1.9361 20.016C3.0721 20.04 3.2081 20.056 3.4161 20.208C3.5761 20.328 3.7281 20.6 3.9281 21.128C4.0801 21.544 4.4001 22.24 4.6321 22.68C4.9361 23.256 5.0401 23.536 5.0081 23.68C4.9761 23.8 4.6001 24.216 4.0801 24.696C3.4881 25.248 3.1841 25.592 3.1601 25.736C3.1361 25.864 3.1521 26.072 3.2001 26.2C3.2561 26.328 3.6801 26.816 4.1441 27.28C4.6161 27.744 5.2961 28.344 5.6641 28.616C6.2641 29.08 6.3521 29.12 6.7201 29.12C7.0641 29.12 7.1681 29.08 7.4561 28.824C7.6481 28.656 8.0401 28.296 8.3361 28.024C8.6881 27.696 8.9761 27.504 9.1361 27.472C9.3441 27.432 9.5921 27.504 10.2401 27.784C10.7041 27.984 11.3521 28.24 11.6801 28.344C12.0081 28.448 12.4001 28.56 12.5361 28.592C12.6881 28.616 12.8881 28.744 13.0001 28.88C13.1921 29.112 13.2001 29.16 13.2001 30.24C13.2001 31.344 13.2001 31.36 13.4161 31.608C13.5921 31.808 13.7361 31.872 14.0801 31.92C14.3201 31.96 15.1841 31.992 16.0001 31.992C16.8161 31.992 17.6801 31.96 17.9201 31.92C18.2641 31.872 18.4081 31.808 18.5761 31.608C18.8001 31.36 18.8001 31.344 18.8001 30.256C18.7921 29.304 18.8161 29.136 18.9441 28.96C19.0241 28.848 19.2001 28.72 19.3281 28.664C19.4561 28.616 19.7761 28.512 20.0401 28.432C20.3041 28.36 20.9921 28.096 21.5601 27.864C22.3281 27.536 22.6641 27.44 22.8401 27.472C22.9841 27.496 23.3121 27.72 23.6401 28.016C23.9521 28.296 24.3521 28.656 24.5361 28.824C24.8321 29.08 24.9281 29.12 25.2801 29.12C25.6481 29.12 25.7361 29.08 26.3361 28.616C26.7041 28.344 27.4001 27.72 27.8881 27.24C28.5761 26.568 28.7921 26.296 28.8401 26.08C28.8721 25.928 28.8641 25.728 28.8161 25.64C28.7761 25.552 28.3601 25.12 27.8881 24.68C27.3041 24.128 27.0241 23.808 27.0001 23.656C26.9681 23.504 27.0721 23.224 27.3761 22.656C27.6081 22.232 27.9201 21.544 28.0801 21.128C28.2801 20.6 28.4241 20.328 28.5841 20.208C28.7841 20.056 28.9441 20.032 30.1041 20C30.8321 19.976 31.4721 19.92 31.5601 19.872C31.6481 19.824 31.7761 19.656 31.8401 19.512C31.9361 19.296 31.9601 18.864 31.9601 17.424C31.9601 15.712 31.9521 15.6 31.7921 15.384C31.7041 15.264 31.5361 15.112 31.4321 15.064C31.2881 14.984 30.4241 14.96 28.0561 14.96C25.4641 14.96 24.8321 14.984 24.6161 15.072C24.4641 15.144 24.3041 15.312 24.2081 15.496C24.0721 15.768 24.0641 15.864 24.1521 16.44C24.2001 16.792 24.2401 17.28 24.2401 17.52C24.2401 17.76 24.1841 18.272 24.1201 18.656C24.0561 19.048 23.8881 19.64 23.7601 19.976C23.6241 20.32 23.3681 20.848 23.1841 21.16C23.0001 21.472 22.5441 22.032 22.1681 22.408C21.7921 22.784 21.2641 23.24 21.0001 23.416C20.7361 23.592 20.2881 23.856 20.0001 24C19.7121 24.144 19.2481 24.344 18.9601 24.448C18.6721 24.544 18.1681 24.696 17.8401 24.776C17.4001 24.88 16.9201 24.92 16.0001 24.92C15.2481 24.92 14.5681 24.872 14.2801 24.808C14.0161 24.752 13.5281 24.608 13.2001 24.504C12.8721 24.392 12.3841 24.192 12.1201 24.064C11.8561 23.928 11.3521 23.632 11.0001 23.4C10.6481 23.168 10.1041 22.712 9.8001 22.392C9.4881 22.064 9.1041 21.6 8.9441 21.36C8.7841 21.12 8.5441 20.688 8.4081 20.4C8.2721 20.112 8.0881 19.592 7.9921 19.24C7.8641 18.776 7.8161 18.352 7.8161 17.68C7.8081 17.176 7.8241 16.48 7.8401 16.144C7.8801 15.528 7.8801 15.52 7.6161 15.264L7.3601 15C2.2481 14.976 0.680103 15 0.584103 15.032ZM6.8321 2.376C6.7121 2.504 6.6961 2.688 6.7281 4.168C6.7521 5.48 6.7841 5.84 6.8801 5.952C6.9441 6.024 7.0721 6.088 7.1601 6.088C7.2481 6.08 7.6641 5.96 8.0801 5.808C8.4961 5.656 8.9281 5.504 9.0401 5.456C9.1521 5.416 9.2881 5.32 9.3361 5.248C9.3921 5.176 9.4241 5.04 9.4001 4.936C9.3761 4.84 8.9281 4.216 8.3921 3.56C7.8641 2.896 7.3921 2.336 7.3361 2.304C7.2801 2.272 7.1761 2.24 7.1041 2.24C7.0321 2.24 6.9121 2.304 6.8321 2.376ZM24.1201 2.6C23.8961 2.752 23.3761 3.16 22.9601 3.504C22.5441 3.848 22.0401 4.344 21.8401 4.608C21.6401 4.864 21.4001 5.28 21.3201 5.52C21.2081 5.824 21.1601 6.176 21.1601 6.64C21.1601 7.016 21.2001 7.464 21.2561 7.64C21.3121 7.816 21.4881 8.152 21.6561 8.384C21.8801 8.688 22.0881 8.872 22.4401 9.048C22.8641 9.264 22.9841 9.288 23.4801 9.264C23.9041 9.24 24.1601 9.176 24.5121 9C24.8081 8.848 25.1361 8.592 25.3841 8.32C25.6001 8.08 25.8641 7.696 25.9681 7.48C26.0801 7.256 26.2001 6.824 26.2401 6.52C26.2881 6.176 26.2881 5.632 26.2401 5.12C26.2001 4.656 26.1201 3.992 26.0561 3.64C25.9921 3.288 25.8721 2.896 25.7921 2.768C25.7121 2.64 25.5441 2.488 25.4161 2.432C25.2961 2.368 25.0481 2.32 24.8561 2.32C24.6081 2.328 24.4161 2.392 24.1201 2.6ZM8.7601 7.936C8.4961 8.04 8.1841 8.216 8.0561 8.336C7.9361 8.464 7.8001 8.704 7.7601 8.88C7.7121 9.072 7.7041 9.304 7.7521 9.456C7.7841 9.6 8.0321 10.312 8.3041 11.04C8.5681 11.768 9.5121 14.36 10.4001 16.8C11.4161 19.6 12.0721 21.304 12.1841 21.424C12.2801 21.52 12.5361 21.68 12.7601 21.768C13.0561 21.896 13.2561 21.928 13.5201 21.896C13.7681 21.864 13.9521 21.776 14.1041 21.624C14.2401 21.488 14.4001 21.168 14.5201 20.776C14.6321 20.44 14.7201 20.064 14.7201 19.936C14.7201 19.816 14.6481 19.52 14.5681 19.28C14.4801 19.04 13.9761 17.632 13.4321 16.16C12.8961 14.688 12.2801 12.992 12.0641 12.4C11.8481 11.808 11.6401 11.232 11.6001 11.12C11.5681 11.008 11.4241 10.632 11.2961 10.28C11.1681 9.928 10.9361 9.32 10.7921 8.928C10.5761 8.368 10.4641 8.168 10.2481 8.008C10.0561 7.864 9.8481 7.792 9.6081 7.784C9.3841 7.768 9.0481 7.832 8.7601 7.936ZM19.7841 11.976C19.1521 12.944 18.9681 13.304 18.7521 13.96C18.6161 14.4 17.9521 16.488 17.2881 18.6C16.6241 20.712 16.0801 22.488 16.0801 22.536C16.0801 22.608 16.2241 22.64 16.5361 22.64C16.7921 22.632 17.2721 22.584 17.6001 22.528C17.9281 22.464 18.4161 22.336 18.6801 22.232L19.1601 22.048L22.7841 14.68C23.1681 12.632 23.2801 11.992 23.2801 11.936C23.2801 11.88 23.1681 11.84 22.9761 11.84C22.8161 11.84 22.5281 11.8 22.3361 11.76C22.1521 11.712 21.8481 11.608 21.6561 11.52C21.4721 11.432 21.1681 11.24 20.9761 11.08C20.7921 10.928 20.6241 10.8 20.6001 10.8C20.5761 10.8 20.2081 11.328 19.7841 11.976Z" fill="#E61A4A"/>
</g>
<defs>
<clipPath id="clip0_451_3864">
<rect width="32" height="32" fill="white"/>
</clipPath>
</defs>
</svg>
