<svg width="35" height="32" viewBox="0 0 35 32" fill="none" xmlns="http://www.w3.org/2000/svg">
<path fill-rule="evenodd" clip-rule="evenodd" d="M24.6457 24.3453C24.7186 24.4181 24.7186 25.1635 24.6457 26.0181C24.5728 26.8544 24.3722 27.7453 24.2264 27.9999C24.0623 28.2544 22.7863 29.2544 21.3644 30.2181C18.7941 31.9817 18.7759 31.9999 17.6821 31.9999C16.7524 31.9999 16.5519 31.9453 16.3332 31.5817C16.1873 31.3635 15.9868 30.5272 15.8592 29.7272C15.7498 28.9272 15.6769 28.2726 15.7134 28.2544C15.7498 28.2544 16.5884 27.9817 17.591 27.6726C18.5936 27.3635 20.1613 26.7453 21.0545 26.2908C21.966 25.8544 23.0962 25.1999 23.6066 24.8544C24.0988 24.509 24.5728 24.2726 24.6457 24.3453ZM32.0832 0.363525L33.1769 1.45443V3.63625C33.1769 4.83625 33.0858 6.45443 32.9764 7.23625C32.867 7.99989 32.5754 9.41807 32.3384 10.3635C32.0832 11.309 31.4451 12.9999 30.9165 14.0908C30.3514 15.2363 29.4035 16.7817 28.6743 17.7272C27.9634 18.6363 26.6691 20.0544 25.7759 20.8908C24.8826 21.7272 23.4243 22.8908 22.5129 23.4908C21.6196 24.0726 20.7446 24.5635 20.5988 24.5635C20.453 24.5635 19.9243 24.1272 19.4504 23.5999C18.9582 23.0726 16.4608 20.5272 9.20557 13.2726L9.64307 12.509C9.88004 12.0726 10.4998 11.109 11.0103 10.3817C11.5207 9.63625 12.5962 8.32716 13.4165 7.47262C14.2368 6.59989 15.4946 5.43625 16.242 4.87262C16.9894 4.30898 18.2472 3.47262 19.0493 3.01807C19.8514 2.56353 21.2915 1.92716 22.2394 1.61807C23.1873 1.30898 24.7915 0.890798 25.7941 0.70898C26.8332 0.527162 28.5832 0.381707 32.0832 0.363525ZM20.4165 6.8908C20.0701 7.18171 19.578 7.79989 19.3228 8.2908C18.9582 8.99989 18.867 9.45443 18.867 10.4544C18.8853 11.3999 18.9764 11.909 19.2681 12.4544C19.4868 12.8544 19.9243 13.4363 20.2707 13.7635C20.5988 14.0908 21.2004 14.4726 21.6014 14.6544C22.0024 14.8181 22.7863 14.9453 23.3332 14.9453C23.88 14.9453 24.6274 14.8363 24.9738 14.6908C25.3201 14.5453 25.8853 14.1817 26.2316 13.8908C26.578 13.5999 27.0519 12.9453 27.2889 12.4544C27.617 11.7999 27.7446 11.2544 27.7446 10.4544C27.7446 9.85443 27.6353 9.07262 27.4894 8.72716C27.3436 8.38171 26.9425 7.78171 26.5962 7.38171C26.2498 6.99989 25.6483 6.50898 25.2472 6.30898C24.8462 6.10898 24.0623 5.92716 23.5155 5.8908C22.8957 5.85443 22.2394 5.92716 21.7837 6.10898C21.3826 6.25443 20.7629 6.61807 20.4165 6.8908ZM9.20557 8.92716C9.40609 8.90898 9.62484 8.94534 9.71598 8.99989C9.7889 9.05443 9.57015 9.47262 9.22379 9.94534C8.87744 10.4363 8.18473 11.6726 7.67432 12.7272C7.18213 13.7817 6.54411 15.4181 6.27067 16.3635C5.99723 17.309 5.77848 18.109 5.76025 18.1453C5.76025 18.1817 5.08577 18.109 4.28369 17.9999C3.11702 17.8363 2.71598 17.6908 2.31494 17.309C1.93213 16.9272 1.82275 16.6544 1.82275 16.0908C1.82275 15.4908 2.13265 14.909 3.64567 12.5817C4.64827 11.0726 5.68734 9.67262 5.979 9.50898C6.25244 9.32716 6.99984 9.14534 7.65609 9.07262C8.31234 9.01807 9.00505 8.94534 9.20557 8.92716ZM8.56755 15.0908C8.67692 15.0908 11.0103 17.3999 13.7629 20.2181C18.229 24.7999 18.7394 25.3817 18.4478 25.5817C18.2837 25.709 17.5181 25.9817 16.7707 26.1817C16.0233 26.3817 15.1118 26.5453 14.7655 26.5453C14.3097 26.5453 13.9634 26.3999 13.5806 26.0544C13.2889 25.7635 11.7576 24.2544 7.38265 19.7817L7.51025 18.6726C7.56494 18.0544 7.80192 16.9999 8.00244 16.309C8.22119 15.6363 8.4764 15.0908 8.56755 15.0908ZM7.65609 23.0181C8.11182 23.0726 8.74984 23.2908 9.09619 23.509C9.44255 23.7272 9.93473 24.1817 10.1899 24.5272C10.4998 24.9272 10.6821 25.4726 10.7368 25.9817C10.7733 26.4363 10.7186 27.109 10.6092 27.4544C10.4998 27.7999 10.1717 28.3272 9.89827 28.6181C9.62484 28.909 9.02327 29.2908 8.56755 29.4908C8.11182 29.6908 6.96338 30.0544 6.01546 30.2908C5.06755 30.5453 3.95557 30.7272 3.55452 30.6908C2.89827 30.6363 2.82536 30.5817 2.77067 30.0908C2.75244 29.7817 2.9165 28.7635 3.15348 27.8181C3.40869 26.8726 3.80973 25.6181 4.08317 25.0363C4.35661 24.4544 4.77588 23.8726 5.06755 23.6908C5.34098 23.509 5.8514 23.2726 6.19775 23.1453C6.56234 22.9999 7.18213 22.9635 7.65609 23.0181ZM23.2056 7.63625C23.8375 7.63625 24.354 7.75746 24.755 7.99989C25.0649 8.19989 25.5024 8.63625 25.703 8.94534C25.9217 9.30898 26.0675 9.87262 26.0675 10.309C26.0675 10.7453 25.9217 11.3817 25.7576 11.7453C25.5754 12.1272 25.1925 12.5817 24.8826 12.7817C24.591 12.9817 24.0441 13.1999 23.6978 13.2363C23.3514 13.2908 22.841 13.2726 22.5675 13.1999C22.2759 13.1453 21.7837 12.8544 21.4738 12.5817C21.091 12.2363 20.7811 11.7453 20.617 11.1635C20.4347 10.4908 20.4165 10.1272 20.5623 9.63625C20.6717 9.2908 21.091 8.6908 21.492 8.30898C22.1665 7.70898 22.3488 7.63625 23.2056 7.63625Z" fill="#E61A4A"/>
</svg>
