<svg width="35" height="32" viewBox="0 0 35 32" fill="none" xmlns="http://www.w3.org/2000/svg">
<g clip-path="url(#clip0_451_3877)">
<path d="M5.38611 0.351161C5.23055 0.526771 4.29722 2.30238 3.325 4.29262C2.11944 6.73165 1.59444 8.01945 1.67222 8.29262C1.73055 8.50726 1.925 8.79994 2.11944 8.93653C2.35278 9.11214 3.46111 9.17067 6.22222 9.17067C8.30278 9.17067 10.1111 9.09262 10.2278 9.01458C10.3444 8.93653 10.5389 8.68287 10.675 8.44872C10.8694 8.05848 10.675 7.53165 9.11944 4.33165C8.14722 2.32189 7.21389 0.526771 7.03889 0.331649C6.86389 0.136527 6.475 -0.019571 6.20278 -5.87547e-05C5.93055 -5.87547e-05 5.56111 0.156039 5.38611 0.351161ZM14.0972 0.312136C13.3583 0.487746 12.1333 0.87799 11.375 1.19019C10.6361 1.48287 9.83889 1.87311 9.625 2.02921C9.23611 2.30238 9.23611 2.32189 9.78055 3.39506L10.3056 4.48775C11.8806 3.6097 13.0083 3.1414 13.8056 2.88775C15.0111 2.51701 15.6722 2.43897 17.5972 2.45848C19.5806 2.45848 20.1639 2.53653 21.4861 2.98531C22.3417 3.27799 23.0611 3.49262 23.0611 3.47311C23.0806 3.43409 23.2361 3.12189 23.4111 2.79019C23.5861 2.43897 23.9167 2.04872 24.1694 1.93165C24.4417 1.79506 24.5194 1.65848 24.4028 1.56092C24.3056 1.46336 23.3722 1.11214 22.3611 0.760917C20.7278 0.214575 20.2222 0.136527 17.9861 0.07799C16.1972 0.0194534 15.05 0.0975022 14.0972 0.312136ZM27.9028 0.331649C27.7278 0.526771 27.3972 1.0536 27.2028 1.50238C26.8528 2.30238 26.775 2.3414 25.8222 2.47799C25.2194 2.55604 24.6556 2.75116 24.4611 2.9658C24.2667 3.16092 24.1111 3.49262 24.1111 3.70726C24.1111 3.92189 24.4611 4.48775 24.8889 4.97555L25.6667 5.8536C25.4722 8.27311 25.5111 8.54628 25.8028 8.83897C25.9972 9.03409 26.3472 9.19019 26.6 9.17067C26.8333 9.17067 27.3972 8.95604 27.8639 8.68287L28.6806 8.21458C29.9639 8.95604 30.5083 9.17067 30.7222 9.17067C30.9361 9.17067 31.2472 9.11214 31.4417 9.01458C31.6167 8.93653 31.8111 8.70238 31.8889 8.48775C31.9861 8.27311 31.9667 7.62921 31.8694 7.06336C31.6944 6.06823 31.6944 6.02921 32.4722 5.11214C32.9194 4.60482 33.2694 3.99994 33.25 3.74628C33.25 3.51214 33.0944 3.16092 32.9194 2.9658C32.725 2.77067 32.1417 2.53653 31.5972 2.45848C30.6639 2.32189 30.6056 2.28287 30.0417 1.2097C29.5361 0.2536 29.3611 0.0975022 28.8556 0.0389656C28.4667 -5.87556e-05 28.1167 0.0975022 27.9028 0.331649ZM22.4583 28.6243C21.8167 28.8975 20.7278 29.2292 20.0278 29.3853C19.3278 29.5219 18.2194 29.6585 17.5583 29.6585C16.8778 29.6585 15.6917 29.5219 14.9333 29.3658C14.1556 29.2097 13.1833 28.956 12.7944 28.7804C12.3861 28.6243 11.9583 28.5268 11.8611 28.5853C11.7639 28.6438 11.6667 28.839 11.6667 29.0146C11.6861 29.2097 11.5111 29.5999 11.2778 29.8926C11.0639 30.2048 10.9278 30.4975 10.9667 30.5756C11.0056 30.6731 11.8028 30.9853 12.7556 31.317C14.3694 31.8634 14.6806 31.9024 17.4028 31.9024C19.9306 31.9024 20.5139 31.8438 21.7778 31.4341C22.575 31.1804 23.7417 30.7316 24.3639 30.4195L25.4722 29.8536C24.3444 28.5268 23.9167 28.1365 23.8194 28.1365C23.7222 28.1365 23.1 28.3512 22.4583 28.6243ZM15.6528 7.21945C15.225 7.41458 14.7 7.74628 14.4667 7.94141C14.2528 8.13653 13.8833 8.54628 13.6694 8.87799C13.4361 9.19019 13.1444 9.89262 13.0083 10.439C12.8333 11.1804 12.8333 11.6292 13.0083 12.3316C13.125 12.8585 13.475 13.639 13.7667 14.0877C14.1361 14.6536 14.6806 15.1024 15.3806 15.4731L16.4306 15.9999C14.5639 15.9999 13.7861 16.156 13.3194 16.3707C12.8917 16.5658 12.25 17.0341 11.9 17.4243C11.5694 17.8341 11.1417 18.478 10.9861 18.8682C10.8111 19.2975 10.6944 20.1951 10.6944 20.917C10.6944 21.8341 10.7917 22.3414 10.9861 22.5365C11.1417 22.6926 11.4722 22.8682 11.725 22.9268C11.9583 22.9853 14.7 23.0243 17.8111 22.9853C23.1778 22.9268 23.5083 22.9073 23.8972 22.5365C24.2278 22.2243 24.325 21.9121 24.3056 21.0731C24.3056 20.4877 24.1694 19.5512 23.975 19.0243C23.7806 18.439 23.3333 17.7365 22.8667 17.2682C22.4194 16.839 21.7194 16.3707 21.2917 16.2341C20.8639 16.117 20.0667 15.9999 19.5417 15.9999H18.5694C19.775 15.4341 20.3972 14.9658 20.7472 14.6146C21.0972 14.2438 21.5056 13.6195 21.6611 13.2097C21.8361 12.8195 21.9722 11.9999 21.9722 11.4146C21.9722 10.6991 21.8231 10.0357 21.525 9.42433C21.2917 8.93653 20.7861 8.2536 20.4167 7.94141C20.0472 7.6097 19.4444 7.23897 19.0944 7.08287C18.7639 6.94628 18.0056 6.82921 17.4417 6.82921C16.8583 6.82921 16.1 6.98531 15.6528 7.21945ZM29.6722 10.3414C29.75 10.4975 29.9639 11.1024 30.1778 11.6487C30.3722 12.2146 30.625 13.3268 30.7417 14.0877C30.8583 14.8682 30.9167 16.1756 30.8389 16.9756C30.7806 17.7756 30.625 18.7316 30.5278 19.0634C30.3333 19.7073 30.3528 19.7073 31.4028 20.2926C31.9861 20.6048 32.5111 20.8195 32.5694 20.7219C32.6083 20.6438 32.7833 19.9024 32.9583 19.0634C33.1139 18.2438 33.25 16.8585 33.25 15.9999C33.25 15.1414 33.1333 13.7951 32.9778 13.0146C32.8222 12.2536 32.5694 11.278 32.4333 10.8487L32.1806 10.0877C29.7694 10.0487 29.575 10.0877 29.6722 10.3414ZM2.35278 11.356C2.15833 12.039 1.86667 13.3658 1.75 14.3414C1.575 15.6487 1.575 16.5073 1.73055 17.6585C1.84722 18.517 2.06111 19.6097 2.19722 20.0975C2.41111 20.7999 2.52778 20.956 2.83889 20.917C3.03333 20.878 3.57778 20.7999 4.025 20.7609C4.49167 20.7219 4.86111 20.6634 4.86111 20.6243C4.86111 20.6048 4.725 20.1951 4.53055 19.7073C4.27778 19.0243 4.2 18.1853 4.2 15.9999C4.2 13.5024 4.25833 12.9951 4.66667 11.7463C4.93889 10.9658 5.11389 10.2829 5.05555 10.2438C4.99722 10.1853 4.45278 10.1463 3.85 10.1463H2.74167L2.35278 11.356ZM27.2028 20.7219C26.8333 20.839 26.0944 21.3853 25.55 21.9317C24.7528 22.7317 24.5 23.1219 24.3056 23.9804C24.1694 24.5853 24.1111 25.3853 24.1694 25.7951C24.2472 26.2048 24.4611 26.8487 24.6556 27.2585C24.85 27.6682 25.3167 28.2341 25.6861 28.5463C26.0361 28.8585 26.6 29.2487 26.9111 29.4048C27.2611 29.5804 28 29.717 28.6611 29.717C29.4583 29.717 30.0806 29.5804 30.6056 29.3073C31.0333 29.0926 31.6361 28.6634 31.9472 28.3512C32.2583 28.039 32.6472 27.5316 32.8222 27.1999C33.0167 26.8292 33.1333 26.1268 33.1333 25.1512C33.1333 23.8243 33.075 23.5707 32.55 22.7121C32.1806 22.1073 31.5972 21.5219 31.0139 21.1512C30.2944 20.7219 29.7889 20.5658 28.9722 20.5268C28.3694 20.5073 27.5917 20.6048 27.2028 20.7219ZM3.09167 22.0292C2.74167 22.3999 2.70278 22.6926 2.70278 25.639C2.70278 28.8195 2.72222 28.878 3.18889 29.3463C3.675 29.8341 3.73333 29.8536 6.74722 29.8536C9.15833 29.8536 9.89722 29.7756 10.2472 29.5609C10.675 29.2682 10.675 29.1707 10.6944 25.7951C10.6944 22.7316 10.6556 22.3024 10.3444 21.9902C10.0528 21.6975 9.56667 21.6585 6.74722 21.6585C3.75278 21.6585 3.46111 21.678 3.09167 22.0292Z" fill="#E61A4A"/>
</g>
<defs>
<clipPath id="clip0_451_3877">
<rect width="35" height="32" fill="white"/>
</clipPath>
</defs>
</svg>
