<svg width="32" height="32" viewBox="0 0 32 32" fill="none" xmlns="http://www.w3.org/2000/svg">
<g clip-path="url(#clip0_451_3878)">
<path fill-rule="evenodd" clip-rule="evenodd" d="M29.488 0.0400174L30.088 0.336017C30.472 0.528017 30.816 0.768017 31.056 1.03202C31.272 1.25602 31.56 1.68002 31.96 2.52002V29.488L31.664 30.088C31.472 30.472 31.232 30.816 30.968 31.056C30.744 31.272 30.32 31.56 29.48 31.96H2.52004L1.97604 31.696C1.68004 31.56 1.25604 31.272 1.03204 31.056C0.768039 30.816 0.528039 30.472 0.0400391 29.488V2.52002L0.280039 2.00002C0.416039 1.71202 0.688039 1.30402 0.880039 1.08802C1.08004 0.880018 1.40004 0.608017 1.60004 0.488017C1.80004 0.376017 2.13604 0.216017 2.36004 0.144017C2.73604 0.0160174 3.62404 0.0080174 29.488 0.0400174ZM16.336 3.84802C16.24 3.95202 16.12 4.14402 16.08 4.28002C16.04 4.43202 16.048 4.64002 16.096 4.84002C16.144 5.01602 16.272 5.25602 16.392 5.36802C16.504 5.48802 16.728 5.60802 16.88 5.64002C17.032 5.67202 17.256 5.68002 17.376 5.64802C17.504 5.62402 17.728 5.48002 17.888 5.33602C18.128 5.12002 18.184 5.01602 18.216 4.68002C18.24 4.36802 18.208 4.22402 18.088 4.01602C17.992 3.88002 17.84 3.70402 17.736 3.64002C17.64 3.57602 17.432 3.50402 17.28 3.48002C17.128 3.45602 16.888 3.48802 16.76 3.54402C16.624 3.60002 16.44 3.73602 16.336 3.84802ZM20.824 3.91202C20.688 4.08802 20.64 4.26402 20.64 4.53602C20.64 4.76802 20.704 5.01602 20.792 5.16002C20.872 5.29602 21.072 5.46402 21.232 5.53602C21.392 5.61602 21.616 5.68002 21.736 5.68002C21.864 5.67202 22.088 5.60002 22.24 5.51202C22.392 5.43202 22.584 5.24802 22.656 5.12002C22.736 4.98402 22.8 4.74402 22.8 4.57602C22.8 4.41602 22.728 4.16002 22.64 4.01602C22.552 3.88002 22.4 3.70402 22.296 3.64002C22.2 3.57602 21.992 3.50402 21.84 3.48002C21.688 3.45602 21.44 3.48802 21.288 3.55202C21.136 3.60802 20.928 3.76802 20.824 3.91202ZM25.416 3.84002C25.336 3.95202 25.256 4.20002 25.224 4.40002C25.192 4.65602 25.216 4.84002 25.312 5.04002C25.384 5.19202 25.544 5.39202 25.664 5.47202C25.784 5.56002 26.008 5.64002 26.16 5.66402C26.336 5.68802 26.56 5.64802 26.752 5.55202C26.928 5.46402 27.136 5.29602 27.216 5.16002C27.304 5.01602 27.36 4.76002 27.36 4.53602C27.36 4.24002 27.312 4.10402 27.136 3.90402C27.016 3.76802 26.8 3.60802 26.656 3.54402C26.52 3.48802 26.336 3.44002 26.256 3.44002C26.184 3.44802 25.992 3.48802 25.84 3.54402C25.688 3.60002 25.504 3.73602 25.416 3.84002ZM2.32004 19.024C2.32004 28.696 2.32004 28.84 2.48004 29.096C2.56804 29.24 2.76004 29.432 2.89604 29.52C3.16004 29.68 3.31204 29.68 16 29.68C28.688 29.68 28.84 29.68 29.096 29.52C29.24 29.432 29.432 29.24 29.52 29.096C29.68 28.84 29.68 28.696 29.68 19.016V9.20002H2.32004V19.024ZM13.84 11.384C21.88 11.4 22.048 11.408 22.312 11.56C22.456 11.648 22.648 11.848 22.728 12C22.816 12.16 22.88 12.424 22.88 12.6C22.88 12.808 22.816 13.024 22.704 13.2C22.6 13.36 22.392 13.544 22.24 13.624C21.976 13.752 21.408 13.76 13.72 13.76C6.03204 13.76 5.46404 13.752 5.20004 13.624C5.04804 13.544 4.84004 13.36 4.73604 13.2C4.61604 13.024 4.55204 12.808 4.56004 12.584C4.56004 12.4 4.60804 12.144 4.67204 12.024C4.72804 11.904 4.84804 11.752 4.92804 11.68C5.00804 11.616 5.20004 11.52 5.35204 11.464C5.57604 11.392 7.57604 11.376 13.84 11.384ZM24.24 14.808C24.44 14.808 24.816 14.856 25.08 14.928C25.344 15 25.736 15.152 25.952 15.272C26.16 15.384 26.488 15.648 26.664 15.84C26.848 16.04 27.08 16.4 27.192 16.64C27.376 17.032 27.4 17.184 27.4 18C27.4 18.84 27.384 18.968 27.176 19.4C26.984 19.824 26.496 20.344 23.256 23.592C21.224 25.624 19.464 27.344 19.336 27.408C19.168 27.496 18.744 27.52 17.44 27.52C16.232 27.52 15.688 27.496 15.496 27.416C15.36 27.36 15.152 27.192 15.04 27.04C14.84 26.768 14.84 26.736 14.816 25.04C14.792 23.64 14.816 23.264 14.912 23C15.008 22.76 15.912 21.816 18.656 19.072C20.768 16.976 22.432 15.376 22.64 15.256C22.84 15.144 23.2 15 23.44 14.936C23.68 14.864 24.04 14.808 24.24 14.808ZM10.84 16.008C16.216 16.008 16.368 16.008 16.616 16.168C16.76 16.256 16.936 16.408 17 16.504C17.064 16.6 17.144 16.832 17.168 17C17.2 17.248 17.16 17.416 17.024 17.68C16.912 17.896 16.736 18.088 16.56 18.176C16.296 18.312 15.952 18.328 10.856 18.328C6.36004 18.328 5.40004 18.304 5.21604 18.208C5.09604 18.152 4.91204 18 4.80004 17.888C4.65604 17.728 4.59204 17.552 4.56804 17.256C4.54404 16.92 4.56804 16.784 4.72804 16.544C4.83204 16.376 5.00804 16.192 5.12004 16.128C5.28804 16.032 6.17604 16.008 10.84 16.008ZM12.92 20.56L13.2 20.744C13.352 20.848 13.544 21.056 13.616 21.208C13.696 21.36 13.76 21.592 13.76 21.72C13.76 21.856 13.696 22.088 13.616 22.24C13.544 22.392 13.352 22.6 12.92 22.888H9.17604C6.12804 22.888 5.40004 22.864 5.21604 22.768C5.09604 22.712 4.91204 22.56 4.80004 22.44C4.66404 22.296 4.59204 22.112 4.56804 21.856C4.55204 21.6 4.58404 21.384 4.68804 21.176C4.76804 21.008 4.94404 20.8 5.08004 20.72C5.30404 20.576 5.54404 20.568 12.92 20.56ZM12.92 25.12L13.2 25.304C13.352 25.408 13.544 25.616 13.616 25.768C13.696 25.92 13.76 26.152 13.76 26.28C13.76 26.416 13.696 26.648 13.616 26.8C13.544 26.952 13.352 27.16 12.92 27.448H9.17604C5.78404 27.448 5.41604 27.432 5.15204 27.304C4.99204 27.224 4.78404 27.04 4.69604 26.88C4.57604 26.672 4.54404 26.504 4.56804 26.192C4.59204 25.88 4.65604 25.712 4.83204 25.52C4.95204 25.376 5.13604 25.232 5.23204 25.2C5.32004 25.16 7.08804 25.128 12.92 25.12Z" fill="#E61A4A"/>
</g>
<defs>
<clipPath id="clip0_451_3878">
<rect width="32" height="32" fill="white"/>
</clipPath>
</defs>
</svg>
