<svg width="400" height="401" viewBox="0 0 400 401" fill="none" xmlns="http://www.w3.org/2000/svg">
<g clip-path="url(#clip0_447_3665)">
<path d="M183.312 0.574447C181.591 0.783301 178.201 1.25322 175.75 1.51429C173.299 1.82757 170.378 2.24528 169.231 2.40192C168.084 2.55856 164.224 3.28955 160.626 3.96833C157.028 4.69932 153.638 5.37809 153.064 5.48252C152.49 5.63916 149.935 6.31794 147.327 7.04893C144.72 7.77992 141.33 8.77197 139.766 9.18968C138.201 9.60739 133.507 11.2782 129.335 12.8446C125.163 14.4632 117.914 17.6483 113.168 19.9457C108.423 22.2431 102.686 25.2192 100.391 26.5246C98.0967 27.8299 93.9767 30.3884 91.2649 32.1636C88.553 33.9911 84.9024 36.3929 83.1814 37.5938C81.4604 38.7948 77.3405 41.9798 74.0549 44.6427C70.7694 47.3578 66.2844 51.1694 64.1462 53.2057L60.2349 56.8606C68.6312 56.9129 71.7603 57.2261 73.5334 57.7483C75.2544 58.2182 77.0797 59.2103 78.0706 60.2023C79.2701 61.4032 80.1045 63.0741 81.0432 66.0502C81.7212 68.3476 82.8163 72.5769 83.4422 75.4487C84.1201 78.3204 84.7459 81.2966 84.9545 82.0798L85.2675 83.4373C90.5347 78.5815 94.4982 75.1876 97.523 72.7336C100.548 70.3317 106.076 66.3113 109.831 63.805C113.533 61.2988 117.08 59.0014 117.653 58.6881C118.175 58.3748 120.626 57.0173 123.077 55.7119C125.528 54.4066 129.961 52.2136 132.986 50.9083C136.011 49.603 138.931 48.2976 139.505 48.0366C140.078 47.7233 144.094 46.3657 148.37 44.956C152.699 43.5462 156.923 42.2409 157.758 41.9798C158.592 41.7709 159.583 41.5621 159.844 41.4577C160.104 41.4054 163.286 40.7267 166.884 39.9957C170.483 39.2647 176.324 38.2726 179.922 37.7505C184.668 37.1239 189.987 36.8629 199.739 36.8629C209.648 36.8629 214.759 37.0717 219.818 37.8027C223.52 38.3248 229.987 39.4213 234.159 40.309C238.331 41.1444 244.433 42.6586 247.719 43.6506C251.004 44.6949 256.428 46.5746 259.713 47.8799C262.999 49.1853 268.683 51.7437 272.386 53.5712C276.037 55.3987 281.669 58.4793 284.85 60.4112C288.084 62.3431 292.151 64.9537 293.872 66.2591C295.593 67.5122 297.94 69.2875 299.14 70.1751C300.339 71.0627 304.042 74.1433 307.432 77.0151L313.533 82.2364C324.172 81.9754 329.022 81.7143 331.161 81.4532C333.612 81.1399 335.541 80.6178 336.376 79.9912C337.106 79.4691 338.201 78.216 338.879 77.2239C339.557 76.2319 340.443 74.1433 340.913 72.5769C341.33 71.0105 341.852 67.4078 342.06 64.5882L342.373 59.4713C338.357 55.6075 335.176 52.7358 332.725 50.595C330.274 48.4543 327.093 45.7914 325.737 44.6427C324.329 43.494 322.66 42.2409 322.086 41.8231C321.46 41.4054 320.887 40.8833 320.73 40.6744C320.574 40.4656 317.862 38.5337 314.733 36.2885C311.604 34.0955 306.389 30.7539 303.26 28.8742C300.131 27.0467 296.949 25.167 296.219 24.7493C295.489 24.2794 291.108 22.0864 286.467 19.789C281.773 17.5438 277.653 15.6642 277.34 15.6642C276.975 15.6642 276.402 15.4553 276.141 15.1942C275.88 14.9854 273.012 13.7845 269.883 12.6358C266.754 11.4349 262.269 9.92067 259.974 9.18968C257.679 8.45869 252.621 7.04893 248.762 6.05687C244.902 5.06481 238.801 3.75947 235.202 3.18512C231.604 2.55856 225.033 1.61872 220.6 1.09658C214.811 0.417806 208.762 0.156738 199.479 0.156738C192.334 0.156738 185.033 0.365592 183.312 0.574447Z" fill="#E61A4A"/>
<path d="M240.417 17.7525C239.843 18.3269 239.374 19.1623 239.374 19.58C239.374 19.9977 240.209 21.1986 241.199 22.1907C242.19 23.1827 243.025 24.3836 243.025 24.8014C243.025 25.2191 242.555 25.5846 241.982 25.5846C241.408 25.5846 240.678 25.1146 240.417 24.5403C240.156 23.9659 239.531 23.496 239.113 23.496C238.696 23.496 238.227 23.7571 238.07 24.0181C237.914 24.2792 238.175 25.1146 238.592 25.8456C239.009 26.5766 240.156 27.3598 241.095 27.5687C241.982 27.8297 243.233 27.8819 243.755 27.7253C244.328 27.5687 245.163 26.8899 245.58 26.2111C246.31 25.1146 246.31 24.8536 245.632 23.6527C245.215 22.8694 244.224 21.9296 243.442 21.4597C242.399 20.8331 242.19 20.4154 242.503 19.8411C242.92 19.2145 243.181 19.1623 244.068 19.7366C244.641 20.0499 245.476 20.3632 245.893 20.3632C246.362 20.3632 246.571 20.0499 246.415 19.58C246.258 19.1623 246.154 18.6402 246.154 18.4313C246.154 18.1702 245.58 17.7003 244.85 17.387C244.12 17.0215 243.077 16.7083 242.503 16.7083C241.929 16.7083 240.991 17.1782 240.417 17.7525Z" fill="white"/>
<path d="M230.561 14.6721C229.57 14.9332 228.475 15.5598 228.11 16.0297C227.744 16.5518 227.223 17.6483 226.962 18.5359C226.701 19.3714 226.701 20.8855 226.962 21.7732C227.223 22.8697 228.005 23.9139 229.048 24.5927C230.3 25.3759 231.343 25.5848 232.855 25.3759C234.315 25.2193 235.359 24.6449 236.349 23.5484C237.392 22.3997 237.81 21.3555 237.81 19.9457C237.81 18.9014 237.392 17.4395 236.923 16.7607C236.402 16.0297 235.202 15.1421 234.263 14.7766C233.377 14.4111 232.542 14.0978 232.438 14.15C232.386 14.15 231.551 14.4111 230.561 14.6721Z" fill="white"/>
<path d="M230.56 17.5438C229.726 18.0659 229.361 18.7969 229.413 19.7367C229.465 20.5199 229.674 21.4076 229.882 21.7731C230.091 22.0864 230.821 22.5041 231.551 22.7129C232.542 22.974 233.116 22.7651 234.055 21.8775C234.68 21.1987 235.202 20.2589 235.202 19.8412C235.202 19.4235 234.941 18.6925 234.576 18.2226C234.211 17.7004 233.429 17.1783 232.855 17.0216C232.229 16.865 231.238 17.0739 230.56 17.5438Z" fill="#E61A4A"/>
<path d="M162.66 15.4553C161.721 15.8208 160.991 16.3429 161.043 16.5518C161.043 16.7606 160.991 17.4394 160.834 18.0137C160.73 18.5881 160.939 19.4757 161.304 19.9979C161.617 20.52 162.92 21.0943 164.172 21.3032C165.789 21.5643 166.362 21.9298 166.362 22.5563C166.362 23.0785 166.05 23.6006 165.737 23.6528C165.372 23.7572 164.537 23.6006 163.859 23.2873C162.973 22.8696 162.555 22.8696 162.034 23.3917C161.512 23.9661 161.669 24.2794 162.712 25.167C163.703 25.9502 164.485 26.1591 165.841 25.898C166.832 25.7413 168.083 25.0626 168.605 24.436C169.126 23.7572 169.544 22.9218 169.492 22.5563C169.492 22.243 168.918 21.3554 168.188 20.6244C167.458 19.8934 166.362 19.3191 165.737 19.3191C165.059 19.3713 164.224 19.0058 163.911 18.5359C163.494 18.066 163.442 17.6482 163.755 17.4916C164.016 17.335 164.798 17.335 165.476 17.4916C166.102 17.6482 166.988 17.5438 167.406 17.2827C167.979 16.9173 168.031 16.604 167.614 16.0818C167.249 15.7163 166.415 15.2464 165.685 15.0898C164.954 14.9331 163.598 15.0898 162.66 15.4553Z" fill="white"/>
<path d="M154.889 13.1578C153.898 13.4189 152.177 13.8366 151.082 14.1498C149.205 14.6198 149.153 14.6198 149.726 16.3428C149.987 17.2304 150.352 18.588 150.509 19.319C150.665 20.05 151.239 22.3996 151.812 24.5403C152.334 26.6811 152.855 28.5086 152.96 28.613C153.012 28.6652 154.472 28.4041 156.193 27.9342C157.914 27.4643 159.687 27.0466 160.104 26.9422C160.522 26.8377 160.939 26.5767 160.991 26.3156C161.095 26.0545 160.939 25.4802 160.626 25.0625C160.261 24.3837 159.791 24.3837 157.653 24.9058C156.297 25.2191 155.098 25.4802 155.046 25.428C154.994 25.3758 154.733 24.5926 154.524 23.7049C154.107 22.0341 154.159 22.0341 156.297 21.7208C157.601 21.5642 158.54 21.1465 158.54 20.781C158.54 20.4155 158.331 19.7889 158.123 19.4234C157.862 18.9013 157.288 18.8491 155.672 19.2668C154.524 19.5801 153.533 19.7367 153.533 19.6845C153.481 19.6323 153.325 18.7969 153.116 17.9092C152.803 16.2384 152.855 16.1862 154.733 15.9251C155.828 15.7685 156.975 15.4552 157.34 15.2463C157.705 15.0375 157.914 14.3587 157.81 13.6799C157.705 13.0534 157.445 12.5312 157.184 12.5834C156.923 12.5834 155.88 12.8445 154.889 13.1578Z" fill="white"/>
<path d="M181.903 13.0533C181.069 13.6799 180.339 13.8887 180.182 13.5754C179.922 12.2701 179.348 12.5312 178.618 12.5312C177.314 12.5312 177.314 13.1055 177.627 16.3428C177.836 18.118 178.096 20.4154 178.305 21.4075C178.566 22.8172 178.931 23.2872 179.922 23.3916C181.903 22.7128 181.225 23.4438 181.225 19.7889C181.225 16.9693 181.434 15.925 182.008 15.6118C182.425 15.4029 183.155 15.0896 183.572 14.9852C184.042 14.8286 184.302 14.202 184.25 13.3666C184.198 12.6356 183.989 12.009 183.729 12.009C183.52 12.009 182.686 12.479 181.903 13.0533Z" fill="white"/>
<path d="M189.309 11.8526C188.892 12.0092 188.005 12.6358 187.327 13.2623C186.701 13.8367 186.023 15.0898 185.867 15.9252C185.71 16.7606 185.71 18.0138 185.867 18.6925C186.023 19.3191 186.806 20.4678 187.536 21.3032C188.579 22.3997 189.361 22.713 190.978 22.713C192.334 22.713 193.272 22.3997 193.637 21.8253C194.002 21.3032 194.42 20.9377 194.68 20.8855C194.889 20.8855 194.889 21.251 194.68 21.7209C194.315 22.3997 194.524 22.5041 195.828 22.3475C196.662 22.1908 197.392 21.8253 197.392 21.5121C197.392 21.1466 197.34 18.797 197.236 16.1863C197.132 11.5393 197.132 11.4871 195.828 11.4871C195.098 11.4871 194.42 11.6959 194.263 12.0092C194.089 12.3573 193.655 12.3573 192.959 12.0092C192.386 11.6959 191.499 11.4871 190.978 11.5393C190.508 11.5393 189.726 11.6959 189.309 11.8526Z" fill="white"/>
<path d="M189.622 14.672C188.892 15.0375 188.631 15.7163 188.683 16.9694C188.735 17.9615 189.153 19.1624 189.57 19.5801C189.987 19.9978 190.821 20.3633 191.395 20.3633C191.969 20.3633 192.907 19.8934 193.481 19.319C194.055 18.7447 194.524 17.857 194.524 17.3349C194.524 16.865 194.159 15.9251 193.742 15.2464C193.325 14.6198 192.438 14.0977 191.76 14.0977C191.134 14.0977 190.143 14.3587 189.622 14.672Z" fill="#E61A4A"/>
<path d="M170.378 11.3826C170.17 11.5914 170.118 12.2702 170.274 12.8967C170.43 13.7322 170.274 14.0977 169.752 14.0977C169.335 14.0977 168.97 14.4632 168.97 14.8809C168.97 15.2986 169.387 15.7685 169.857 15.9251C170.483 16.134 170.952 17.0216 171.213 18.4314C171.421 19.6323 171.682 21.0943 171.786 21.6686C171.891 22.243 171.995 22.8695 172.047 23.0784C172.047 23.3395 172.621 23.7572 173.247 24.0704C174.081 24.4359 174.863 24.4359 175.854 24.0704C177.054 23.6005 177.262 23.2872 176.897 22.4518C176.689 21.8253 176.219 21.512 175.854 21.6686C175.541 21.8253 175.02 21.6164 174.759 21.2509C174.55 20.9376 174.185 19.5279 173.977 18.1181C173.716 15.9251 173.768 15.6641 174.707 15.6641C175.402 15.6641 175.75 15.316 175.75 14.6198C175.75 13.8366 175.385 13.5755 174.446 13.5755C173.403 13.5755 173.142 13.3145 173.142 12.2702C173.142 11.2259 172.882 10.9648 171.943 10.9648C171.265 10.9648 170.535 11.1215 170.378 11.3303V11.3826Z" fill="white"/>
<path d="M216.219 9.03302C216.062 9.3463 216.01 10.0251 216.01 10.4428C216.01 10.8605 215.645 13.68 215.228 16.7084C214.811 19.7368 214.55 22.3475 214.654 22.6085C214.759 22.8174 215.437 22.9218 216.115 22.8174C217.262 22.713 217.418 22.3997 217.679 19.4235C217.888 17.4916 218.305 15.873 218.826 15.4031C219.244 14.9854 219.765 14.6199 219.974 14.6199C220.182 14.6199 220.756 14.8809 221.33 15.2464C222.06 15.7686 222.268 16.4996 222.216 18.2748C222.216 19.5802 222.06 21.251 221.903 22.0342C221.695 23.0785 221.851 23.5484 222.425 23.6006C222.842 23.705 223.52 23.7572 223.833 23.7572C224.198 23.7572 224.563 23.2873 224.615 22.713C224.667 22.1386 224.876 20.2589 225.085 18.5359C225.45 15.5597 225.398 15.3509 223.937 13.8889C222.634 12.5313 222.164 12.4269 220.443 12.688L218.514 13.0535C218.826 8.5631 218.722 8.35425 217.627 8.35425C216.949 8.35425 216.323 8.66753 216.219 8.98081V9.03302Z" fill="white"/>
<path d="M77.7053 121.188C68.3702 123.12 60.1825 124.843 59.4523 124.947C58.4093 125.104 57.7313 125.991 55.9582 129.542C54.7587 131.944 52.5684 136.852 51.1603 140.454C49.7522 144.057 47.9791 148.861 47.1968 151.158C46.4667 153.456 45.1629 158.05 44.3285 161.34C43.4941 164.629 42.3467 170.059 41.7731 173.349C41.1994 176.638 40.4693 182.434 40.1042 186.141C39.687 190.527 39.5827 197.002 39.7913 204.416C39.9999 210.734 40.4693 218.357 40.8865 221.385C41.3559 224.414 41.9295 228.278 42.2946 230.001C42.6075 231.724 43.4419 235.587 44.172 238.616C44.85 241.644 46.4667 247.179 47.7183 250.886C48.9699 254.593 51.1603 260.493 52.6205 263.939C54.0808 267.386 56.9491 273.286 58.983 276.993C61.0169 280.7 64.4067 286.391 66.5449 289.524C68.631 292.657 72.1251 297.513 74.3154 300.228C76.5058 302.943 80.6779 307.799 83.6505 310.932C86.571 314.064 91.7339 319.025 95.1238 321.896C98.4615 324.768 103.989 329.102 107.327 331.504C110.665 333.906 115.515 337.091 118.122 338.605C120.73 340.119 125.163 342.573 128.031 343.983C130.9 345.445 136.428 347.899 140.287 349.465C144.146 351.084 150.248 353.225 153.846 354.269C157.445 355.365 163.651 356.88 167.666 357.715C171.682 358.55 178.514 359.595 182.79 360.012C187.484 360.534 194.003 360.796 199.113 360.691L207.614 360.534C185.971 342.625 179.139 336.986 178.461 336.464L177.262 335.472C190.665 305.919 194.472 297.304 194.368 297.252C194.315 297.252 192.021 296.938 189.309 296.625C186.597 296.26 182.269 295.581 179.661 295.006C177.053 294.484 172.516 293.231 169.491 292.239C166.467 291.247 161.304 289.159 158.018 287.592C154.733 285.974 149.57 283.05 146.545 281.013C143.52 279.029 139.087 275.635 136.636 273.495C134.185 271.354 130.482 267.751 128.396 265.454C126.31 263.208 123.181 259.345 121.46 256.891C119.739 254.437 116.975 250.103 115.358 247.231C113.794 244.359 111.551 239.765 110.456 237.049C109.309 234.334 107.744 229.74 106.962 226.868C106.128 223.996 105.033 219.088 104.511 215.903C103.781 211.726 103.52 207.444 103.52 200.239C103.572 194.6 103.833 188.491 104.25 186.141C104.615 183.844 105.502 179.615 106.232 176.743C106.91 173.871 108.37 169.276 109.361 166.561C110.404 163.846 112.229 159.46 113.533 156.902L115.828 152.202C111.916 145.31 107.536 137.53 103.52 130.377C98.8787 122.18 95.9582 117.48 95.4367 117.533C95.0195 117.533 87.0403 119.203 77.7053 121.188Z" fill="#ED4F74"/>
<path d="M136.271 297.878C135.75 298.818 133.768 302.212 131.839 305.397C129.857 308.582 128.292 311.297 128.292 311.454C128.292 311.611 129.179 312.185 130.274 312.759C131.317 313.386 132.204 313.751 132.256 313.699C132.256 313.595 133.403 311.663 134.863 309.418C136.793 306.233 137.836 305.084 139.244 304.51C140.861 303.883 141.33 303.883 143.155 304.614C144.303 305.084 145.241 305.397 145.294 305.293C145.294 305.241 145.711 304.562 146.18 303.726C146.91 302.578 146.962 302.16 146.441 301.533C146.076 301.063 145.189 300.594 144.459 300.437C143.729 300.28 142.53 300.437 141.747 300.75C140.548 301.168 140.287 301.116 140.287 300.489C140.287 300.071 140.548 299.602 140.809 299.445C141.121 299.288 141.33 299.027 141.33 298.766C141.33 298.557 140.391 297.878 139.296 297.252L137.262 296.103L136.271 297.878ZM118.853 286.966C117.862 287.384 116.297 288.637 115.359 289.681C114.42 290.777 113.377 292.448 113.064 293.493C112.751 294.485 112.647 296.26 112.803 297.409C112.96 298.557 113.533 300.019 114.055 300.698C114.524 301.377 115.567 302.421 116.245 302.943C117.028 303.518 118.54 303.987 119.792 304.092C120.991 304.144 121.982 304.301 121.982 304.457C121.982 304.562 121.617 304.927 121.148 305.241C120.417 305.658 120.574 305.972 122.086 307.225C123.025 308.008 123.964 308.582 124.172 308.53C124.381 308.426 126.936 305.345 129.909 301.638L135.281 294.902C131.943 292.187 131.578 292.083 131.108 292.709C130.848 293.127 130.43 293.284 130.222 293.075C129.961 292.866 129.805 292.344 129.857 291.926C129.857 291.456 129.335 290.412 128.657 289.576C128.031 288.741 126.519 287.645 125.372 287.122C124.224 286.6 122.712 286.183 121.982 286.183C121.304 286.183 119.896 286.548 118.853 286.966Z" fill="white"/>
<path d="M119.27 292.553C117.966 293.858 117.445 294.902 117.393 296.155C117.341 297.095 117.706 298.401 118.123 299.079C118.54 299.706 119.687 300.489 120.574 300.75C121.617 301.116 122.816 301.116 123.599 300.855C124.329 300.594 125.424 299.706 126.102 298.871C126.78 297.983 127.301 296.678 127.249 295.685C127.249 294.641 126.78 293.44 126.05 292.657C125.424 291.874 124.068 291.195 122.973 290.986C121.304 290.725 120.887 290.934 119.27 292.553Z" fill="#ED4F74"/>
<path d="M115.932 274.748C114.368 276.366 114.211 276.419 113.325 275.583C112.438 274.8 112.282 274.8 111.082 275.792C109.935 276.68 109.831 276.941 110.457 277.933C111.082 278.925 111.03 279.238 109.935 280.335C109.257 281.013 107.432 282.789 105.867 284.303C103.312 286.705 103.051 287.175 103.155 288.898C103.208 290.307 103.729 291.3 105.085 292.657C106.076 293.649 107.067 294.485 107.327 294.485C107.536 294.485 108.214 293.91 108.892 293.179L110.039 291.874C108.423 290.255 108.005 289.576 108.11 289.315C108.162 289.054 109.674 287.279 111.5 285.399L114.733 281.953L117.288 284.825L120 282.214L117.341 279.604L120.574 276.471L117.601 273.025L115.932 274.748ZM97.7317 262.478C96.0107 263.887 93.8725 265.506 93.038 266.185C92.2036 266.811 90.5348 268.065 89.3353 268.9C88.0837 269.788 87.0928 270.623 87.0928 270.884C87.0928 271.093 87.6143 271.876 88.2923 272.659C88.9181 273.443 89.5961 274.069 89.8568 274.121C90.0654 274.121 92.1515 272.659 94.5504 270.832C97.9403 268.169 99.1397 267.542 100.391 267.647C101.278 267.751 102.373 268.326 102.895 269.004C103.416 269.683 103.833 270.78 103.833 271.511C103.833 272.242 103.208 273.39 102.373 274.173C101.591 274.904 99.4526 276.628 97.6795 277.933L94.394 280.387C96.0107 282.998 96.6886 283.833 97.0015 283.937C97.2623 283.99 97.836 283.729 98.201 283.415C98.5139 283.05 99.8699 282.058 101.174 281.17C102.425 280.335 104.616 278.507 105.972 277.15C107.536 275.583 108.631 274.017 108.788 272.973C109.048 271.772 108.84 270.623 108.11 269.161C107.432 267.803 106.389 266.707 105.033 266.028C103.938 265.454 102.895 264.932 102.738 264.879C102.582 264.827 102.79 264.462 103.103 264.096C103.625 263.574 103.468 263.052 102.321 261.694L100.913 260.024L97.7317 262.478ZM83.703 245.299C82.5556 245.822 81.0954 246.866 80.4696 247.545C79.8438 248.223 78.9572 249.685 78.4879 250.834C77.8968 252.226 77.723 253.532 77.9663 254.75C78.1749 255.794 78.7486 257.309 79.2701 258.144C79.7916 259.032 81.0954 260.18 82.1906 260.702C84.1202 261.642 84.1723 261.747 83.0772 262.164L81.8777 262.582L84.2245 266.707C87.0407 265.141 89.3875 263.835 91.2649 262.791C93.1423 261.747 95.7499 260.389 97.158 259.658C98.5139 258.979 99.6091 258.301 99.6091 258.144C99.6091 258.04 99.1919 257.1 98.7225 256.16C98.0967 254.959 97.4709 254.437 96.8972 254.593C96.115 254.75 95.9585 254.385 95.9585 252.557C95.9585 251.095 95.5935 249.738 94.8112 248.537C94.1332 247.597 93.038 246.344 92.3079 245.769C91.5778 245.195 89.8568 244.673 88.3966 244.516C86.5191 244.36 85.2154 244.568 83.703 245.299Z" fill="white"/>
<path d="M85.1629 249.79C84.5893 250.155 83.7027 251.043 83.2333 251.721C82.8161 252.4 82.4511 253.601 82.3989 254.437C82.3989 255.324 82.9726 256.421 83.9635 257.413C85.1108 258.561 85.9974 258.979 87.3533 258.979C88.6571 258.979 89.7001 258.509 90.8474 257.465C92.2034 256.264 92.5684 255.533 92.5684 254.019C92.5684 252.505 92.2034 251.774 90.8474 250.573C89.8566 249.685 88.6049 249.059 87.7184 249.059C86.9361 249.111 85.7887 249.424 85.1629 249.79Z" fill="#ED4F74"/>
<path d="M76.6624 227.86C75.6715 228.173 73.9505 229.322 72.9075 230.418C71.6037 231.671 70.8215 233.029 70.6129 234.334C70.4043 235.378 70.4043 237.258 70.6129 238.511C70.8215 239.817 71.4994 241.383 72.386 242.323C73.1683 243.263 74.5242 244.307 75.3586 244.725C76.193 245.142 77.2361 245.351 77.6011 245.195C77.914 245.038 78.2791 244.255 78.3834 243.472C78.4355 242.375 78.1226 241.801 77.0796 241.122C76.2452 240.6 75.4108 239.608 75.0979 238.877C74.785 238.146 74.5764 237.102 74.5764 236.527C74.5764 235.953 75.15 234.752 75.8801 233.916C76.7493 232.872 77.8445 232.246 79.1657 232.037C80.678 231.828 81.4603 232.037 82.7641 232.977C83.7028 233.655 84.5372 234.752 84.5894 235.483C84.6937 236.214 84.5894 237.519 84.3808 238.355C84.12 239.347 84.2243 240.182 84.6415 240.652C85.0066 241.018 85.6846 241.54 86.2061 241.801C86.9362 242.166 87.3013 241.853 88.1878 239.817C88.8658 238.25 89.1787 236.84 88.9701 236.005C88.7615 235.274 88.5529 234.334 88.4486 233.916C88.2921 233.499 88.1878 232.977 88.1878 232.768C88.1357 232.507 87.2491 231.462 86.2061 230.366C85.1109 229.217 83.3899 228.069 82.399 227.703C81.4082 227.39 80.1044 227.129 79.5307 227.181C78.9571 227.233 77.6533 227.494 76.6624 227.86ZM75.0979 208.123C72.0731 208.75 68.2661 209.533 66.5972 209.846L63.6246 210.42C64.0418 213.031 64.3026 214.128 64.4069 214.493C64.5633 214.859 65.137 215.015 65.8671 214.859C66.4929 214.702 67.3795 214.493 67.7967 214.389C68.2139 214.284 70.1957 213.919 72.2296 213.553C75.2022 213.031 76.1409 213.083 77.3404 213.658C78.2269 214.075 78.8528 214.859 79.0092 215.798C79.1657 216.582 79.0614 217.678 78.7485 218.252C78.4355 218.827 77.6011 219.61 76.7667 220.028C75.9844 220.393 74.4199 220.915 73.2726 221.072C72.1252 221.281 69.987 221.699 68.579 222.012L65.9714 222.534C66.6494 225.876 66.858 226.92 66.9101 227.024C66.9623 227.077 69.6741 226.554 72.8554 225.823C76.0887 225.092 79.4786 224.153 80.313 223.735C81.1474 223.317 82.1904 222.534 82.5034 221.96C82.8684 221.437 83.2335 219.819 83.2856 218.305C83.4421 215.851 83.2856 215.485 81.4603 213.501C80.4173 212.3 79.7393 211.412 80.0522 211.465C80.3651 211.517 80.8867 211.569 81.1996 211.517C81.6689 211.465 81.7732 210.89 81.5646 209.533C81.4082 208.436 81.0953 207.392 80.8867 207.235C80.6781 207.079 78.0705 207.444 75.0979 208.123ZM78.4877 191.154C75.3065 191.415 71.4473 191.676 69.8827 191.832C68.3182 191.937 65.9193 192.041 64.5112 192.093L62.0601 192.146C62.4773 200.03 62.738 203.215 62.8423 204.311C63.1031 206.191 63.1552 206.243 65.1891 206.243H67.2752L66.7015 197.106C69.7784 196.532 71.0301 196.323 71.4473 196.323C72.0209 196.323 72.3338 197.263 72.6468 200.082C72.8554 202.171 73.1161 203.946 73.1683 203.998C73.2204 204.05 74.1591 203.946 75.2543 203.737L77.1839 203.372L76.9232 196.062L82.399 195.801L82.9206 204.677H87.0927C86.7276 196.793 86.6233 193.608 86.5711 192.563C86.5711 190.84 86.4147 190.579 85.3717 190.631C84.7459 190.684 81.6689 190.945 78.4877 191.154Z" fill="white"/>
<path d="M335.75 115.966C335.541 116.384 333.351 124.79 330.899 134.711C328.396 144.631 326.31 152.881 326.154 153.142C326.049 153.351 322.607 153.403 318.54 153.246C314.42 153.142 305.032 152.881 297.679 152.724C290.274 152.568 284.276 152.62 284.381 152.881C284.433 153.09 285.58 155.492 286.936 158.207C288.292 160.922 290.326 165.987 291.473 169.433C292.62 172.879 294.029 178.048 294.602 180.92C295.176 183.791 295.906 188.856 296.271 192.146C296.584 195.487 296.74 200.917 296.532 204.416C296.375 207.862 295.854 212.927 295.437 215.642C294.967 218.357 294.133 222.482 293.559 224.779C292.986 227.076 291.63 231.201 290.639 233.916C289.648 236.632 287.614 241.226 286.154 244.098C284.641 246.97 282.138 251.304 280.574 253.758C278.957 256.212 275.88 260.336 273.69 262.895C271.551 265.453 267.953 269.213 265.763 271.249C263.52 273.285 261.434 275.165 261.121 275.426C260.756 275.739 258.879 277.149 256.845 278.611C254.863 280.073 251.317 282.423 249.022 283.78C246.727 285.19 243.338 286.965 241.46 287.853C239.583 288.688 236.297 290.046 234.159 290.881C232.021 291.717 228.474 292.865 226.336 293.492C224.198 294.066 220.078 295.058 217.21 295.633C214.081 296.259 208.5 296.781 203.285 296.99L194.576 297.356C181.486 326.073 177.679 334.689 177.627 335.054C177.627 335.367 184.354 341.32 192.699 348.264L207.823 360.848C214.289 360.325 218.879 359.855 222.164 359.438C225.45 359.02 230.769 358.08 233.898 357.401C237.027 356.67 241.304 355.626 243.285 355C245.319 354.373 248.813 353.329 251.108 352.598C253.403 351.867 257.158 350.457 259.452 349.517C261.747 348.577 265.867 346.802 268.579 345.497C271.291 344.244 275.306 342.207 277.444 340.954C279.583 339.753 282.19 338.239 283.181 337.665C284.172 337.09 286.988 335.263 289.439 333.644C291.89 331.973 295.645 329.258 297.836 327.588C300.026 325.864 303.416 323.097 305.397 321.426C307.379 319.755 311.551 315.735 314.68 312.55C317.757 309.365 322.295 304.3 324.746 301.272C327.197 298.243 331.108 292.865 333.507 289.263C335.906 285.66 339.191 280.282 340.86 277.254C342.529 274.225 344.824 269.526 346.023 266.811C347.275 264.096 349.205 259.292 350.352 256.107C351.551 252.922 353.325 247.544 354.315 244.098C355.306 240.652 356.193 237.101 356.349 236.266C356.506 235.431 356.975 232.924 357.392 230.784C357.862 228.643 358.331 225.719 358.54 224.257C358.696 222.847 358.957 221.176 359.061 220.602C359.218 220.028 359.426 218.252 359.583 216.686C359.791 215.12 360 209.324 360.156 203.894C360.261 198.463 360.156 191.258 359.843 187.968C359.53 184.679 359.165 180.92 359.061 179.614C358.905 178.309 358.644 176.69 358.487 175.959C358.331 175.228 358.07 173.714 357.966 172.565C357.81 171.417 357.236 168.493 356.662 166.039C356.089 163.585 355.515 161.131 355.358 160.556C355.254 159.982 354.785 158.207 354.315 156.64C353.846 155.074 352.647 151.315 351.656 148.286C350.665 145.258 349.57 142.073 349.152 141.237C348.787 140.402 347.953 138.366 347.327 136.799C346.701 135.233 344.876 131.473 343.364 128.445C341.799 125.417 339.817 121.657 338.879 120.091C337.992 118.524 337.001 116.749 336.688 116.227C336.219 115.392 336.01 115.339 335.75 115.966Z" fill="#E61A4A"/>
<path d="M258.931 294.223C257.783 294.902 256.584 295.633 256.323 295.894C256.01 296.103 254.446 297.043 252.829 297.878C250.743 298.975 249.961 299.654 250.169 300.228C250.326 300.646 252.255 304.144 254.446 307.956C256.636 311.819 259.087 316.153 259.869 317.615C260.652 319.129 261.434 320.382 261.538 320.435C261.695 320.539 264.198 319.286 267.171 317.667C270.091 315.996 272.803 314.482 273.116 314.273C273.637 313.908 273.585 313.438 272.855 312.028C272.125 310.566 271.76 310.305 270.925 310.671C270.352 310.879 268.579 311.819 267.014 312.707C265.45 313.647 263.989 314.326 263.729 314.221C263.52 314.117 262.738 313.072 262.06 311.819L260.756 309.626C262.581 308.687 263.207 308.269 263.364 308.112C263.52 307.956 264.511 307.381 265.554 306.859C267.171 306.128 267.431 305.815 267.066 305.032C266.806 304.562 266.284 303.726 265.867 303.204C265.241 302.316 265.085 302.316 262.633 303.726C261.225 304.509 260.026 305.345 259.922 305.554C259.817 305.815 259.557 305.971 259.296 305.971C259.087 306.024 258.148 304.823 257.21 303.361C256.219 301.794 255.802 300.75 256.167 300.698C256.532 300.698 257.888 299.967 259.191 299.131C260.495 298.296 262.112 297.408 262.842 297.095C264.042 296.625 264.094 296.469 263.311 295.633C262.842 295.163 262.321 294.328 262.164 293.806C261.955 293.336 261.643 292.918 261.382 292.97C261.173 292.97 260.078 293.545 258.931 294.223ZM276.662 290.098C275.515 290.516 274.211 291.247 273.742 291.769C273.324 292.239 272.646 293.231 272.281 293.962C271.916 294.693 271.76 295.633 271.916 296.051C272.125 296.469 271.812 296.312 271.343 295.633L270.404 294.484L266.753 297.513C270.769 302.63 272.125 304.405 272.334 304.666C272.594 304.927 273.846 306.65 275.098 308.425L277.444 311.715C280.73 309.365 280.991 308.895 280.626 308.164C280.313 307.694 279.53 306.546 278.8 305.71C278.07 304.875 277.288 303.883 277.027 303.622C276.819 303.361 276.141 302.264 275.463 301.272C274.837 300.28 274.315 298.818 274.315 297.983C274.315 297.043 274.785 296.207 275.776 295.529C276.558 294.902 277.549 294.484 277.966 294.484C278.383 294.484 279.478 295.007 280.313 295.581C281.147 296.207 282.399 297.565 283.077 298.609C283.755 299.654 284.954 301.324 285.736 302.316L287.249 304.144C290.43 301.899 290.795 301.324 290.482 300.75C290.274 300.332 289.491 299.393 288.813 298.609C288.188 297.878 286.884 296.26 286.049 295.059C285.215 293.806 283.703 292.083 282.816 291.299C281.877 290.464 280.834 289.89 280.573 290.046C280.313 290.203 279.948 290.046 279.791 289.785C279.635 289.524 279.374 289.263 279.165 289.263C278.905 289.315 277.809 289.629 276.662 290.098ZM292.62 274.278C291.421 275.583 291.212 276.105 291.682 276.575C292.151 277.097 292.099 277.306 291.264 277.515C290.691 277.724 289.491 278.194 288.657 278.611C287.822 279.029 286.623 280.021 286.101 280.804C285.528 281.588 284.902 283.05 284.641 284.042C284.433 285.086 284.485 286.757 284.798 287.958C285.163 289.211 286.258 290.934 287.562 292.187C288.709 293.388 290.639 294.641 291.786 295.007C293.351 295.529 294.394 295.581 295.958 295.111C297.105 294.798 298.67 294.067 299.504 293.492C300.339 292.866 301.33 291.247 301.903 289.629L302.842 286.913C304.354 289.106 304.511 290.046 304.302 291.091C304.146 291.926 303.468 293.283 302.842 294.014C302.216 294.798 301.017 295.842 300.234 296.364L298.774 297.356C301.121 299.706 301.278 299.758 302.738 299.027C303.572 298.557 304.928 297.565 305.658 296.73C306.388 295.946 307.379 294.484 307.849 293.597C308.37 292.657 308.735 290.882 308.735 289.681C308.735 288.01 308.37 286.861 307.171 285.19C306.336 283.99 305.085 282.632 304.459 282.214C303.781 281.744 301.225 279.447 298.722 276.993L294.237 272.607L292.62 274.278Z" fill="white"/>
<path d="M290.9 281.953C290.013 282.736 289.335 283.885 289.231 284.825C289.126 285.66 289.387 287.018 289.752 287.853C290.169 288.636 291.212 289.628 292.047 290.046C292.933 290.464 294.289 290.725 295.176 290.568C296.115 290.412 297.262 289.628 298.044 288.584C298.879 287.54 299.244 286.443 299.139 285.608C298.983 284.877 298.879 284.198 298.879 284.041C298.879 283.885 298.461 283.31 297.94 282.684C297.418 282.11 296.532 281.326 295.958 281.013C295.385 280.7 294.342 280.491 293.664 280.543C292.933 280.595 291.734 281.222 290.9 281.953Z" fill="#E61A4A"/>
<path d="M304.72 258.092C303.937 259.24 303.729 259.971 304.042 260.389C304.407 260.911 304.042 261.329 302.686 261.956C301.643 262.478 300.287 263.731 299.713 264.723C299.14 265.715 298.566 267.542 298.462 268.743C298.357 270.205 298.67 271.719 299.348 273.077C299.922 274.226 301.173 275.74 302.112 276.419C302.999 277.097 304.615 277.933 305.606 278.246C306.597 278.612 308.266 278.716 309.257 278.559C310.248 278.403 311.864 277.776 312.803 277.254C313.69 276.68 314.941 275.27 315.515 274.121C316.089 272.973 316.506 271.719 316.506 271.354C316.454 271.041 316.454 270.414 316.506 270.049C316.506 269.735 316.975 269.526 317.497 269.683C318.07 269.84 318.748 269.318 319.583 268.117L320.73 266.289C318.123 264.41 316.089 263 314.628 261.956C313.116 260.911 311.604 260.024 311.343 260.024C311.082 260.024 310.769 259.867 310.717 259.606C310.613 259.397 309.674 258.614 308.631 257.778C307.536 256.995 306.493 256.369 306.284 256.369C306.023 256.369 305.346 257.152 304.72 258.092Z" fill="white"/>
<path d="M305.971 264.409C305.189 264.723 304.198 265.506 303.781 266.028C303.364 266.602 302.999 267.908 302.999 268.9C302.999 270.048 303.364 271.197 304.042 271.928C304.615 272.555 305.71 273.338 306.493 273.599C307.327 273.912 308.579 274.017 309.361 273.86C310.195 273.703 311.291 272.972 311.864 272.189C312.49 271.354 312.959 269.944 312.959 268.9C312.907 267.594 312.542 266.655 311.499 265.663C310.665 264.879 309.465 264.148 308.735 263.992C308.005 263.887 306.753 264.044 305.971 264.409Z" fill="#E61A4A"/>
<path d="M308.266 251.669L307.171 253.758C313.429 257.047 315.619 258.196 316.036 258.457C316.454 258.718 318.227 259.71 319.896 260.65C321.564 261.59 323.181 262.843 323.494 263.417C323.807 264.096 323.755 264.879 323.39 265.662C323.077 266.289 322.816 267.072 322.816 267.333C322.816 267.594 323.494 268.221 324.381 268.639C325.215 269.056 326.206 269.317 326.467 269.161C326.727 269.004 327.353 267.699 327.77 266.289C328.344 264.357 328.396 263.208 328.031 261.851C327.666 260.65 326.78 259.501 325.267 258.457C324.068 257.569 322.607 256.734 322.034 256.525C321.46 256.368 320.626 255.951 320.209 255.585C319.791 255.272 317.184 253.758 314.368 252.243L309.361 249.528L308.266 251.669ZM302.477 248.589L301.434 250.677C303.833 251.878 304.615 252.139 304.72 252.087C304.824 252.035 305.398 251.251 306.023 250.416C306.701 249.528 307.171 248.693 307.171 248.536C307.171 248.38 306.336 247.858 305.345 247.388L303.52 246.5L302.477 248.589ZM316.819 232.768C316.089 234.595 316.089 234.804 316.923 235.744C317.445 236.318 317.601 236.579 317.34 236.423C317.027 236.214 316.349 236.579 315.724 237.258C315.15 237.885 314.263 239.033 313.794 239.817C313.272 240.6 312.907 242.218 312.907 243.367C312.907 244.516 313.325 246.291 313.794 247.388C314.315 248.432 315.567 249.842 316.558 250.468C317.549 251.147 319.218 251.93 320.209 252.191C321.356 252.505 322.868 252.557 324.381 252.243C325.737 251.93 327.353 251.147 328.24 250.312C329.022 249.476 330.013 248.066 330.43 247.127C330.847 246.187 331.16 244.777 331.16 243.994C331.16 243.211 330.847 242.271 330.482 241.853C329.961 241.226 330.065 241.174 331.16 241.435C332.308 241.749 332.568 241.54 333.351 239.712C333.872 238.564 334.081 237.519 333.872 237.415C333.664 237.31 330.013 235.744 325.789 234.021C321.564 232.246 318.018 230.836 317.862 230.836C317.705 230.836 317.236 231.724 316.819 232.768Z" fill="white"/>
<path d="M320.365 238.042C319.739 238.303 318.801 238.982 318.279 239.66C317.758 240.339 317.34 241.644 317.34 242.741C317.34 243.837 317.601 245.038 317.914 245.456C318.227 245.874 319.374 246.605 320.417 247.127C321.46 247.597 322.816 247.91 323.494 247.753C324.12 247.597 325.163 246.97 325.789 246.291C326.415 245.665 327.093 244.412 327.249 243.576C327.406 242.689 327.249 241.436 326.832 240.705C326.467 239.974 325.372 238.982 324.381 238.512C323.39 238.042 322.295 237.624 322.034 237.624C321.773 237.624 320.991 237.833 320.365 238.042Z" fill="#E61A4A"/>
<path d="M320.521 218.618C320.313 219.401 320.313 220.55 320.521 221.124C320.678 221.699 321.356 222.743 321.982 223.422L323.077 224.675L319.165 223.996C318.696 227.442 318.644 228.487 318.748 228.539C318.853 228.591 322.503 229.583 326.832 230.732C331.212 231.933 335.072 232.872 335.332 232.872C335.593 232.872 335.958 232.037 336.115 231.045C336.271 230.053 336.428 229.061 336.48 228.852C336.584 228.695 334.759 228.017 332.464 227.442C330.169 226.816 327.614 225.928 326.832 225.458C326.049 224.936 325.267 223.892 325.111 223.108C324.902 222.273 324.85 220.916 324.954 219.976C325.111 218.566 324.954 218.253 323.859 217.992C323.129 217.835 322.19 217.574 321.721 217.417C321.147 217.261 320.782 217.626 320.521 218.618Z" fill="white"/>
<path d="M187.223 119.308C185.085 119.674 181.8 120.405 179.922 120.875C178.045 121.344 174.655 122.389 172.36 123.172C170.066 124.007 166.415 125.522 164.277 126.618C162.139 127.662 158.957 129.385 157.236 130.43C155.515 131.474 152.334 133.615 150.196 135.233C148.058 136.852 144.303 140.194 141.904 142.595C139.505 144.997 136.324 148.6 134.863 150.636C133.403 152.673 131.109 156.066 129.753 158.207C128.449 160.348 126.415 164.264 125.268 166.822C124.12 169.381 122.608 173.401 121.878 175.699C121.148 177.996 120.209 181.703 119.74 183.948C119.27 186.141 118.644 190.736 118.384 194.078C117.966 198.359 117.966 202.223 118.384 206.661C118.644 210.16 119.27 214.859 119.74 217.052C120.157 219.297 121.356 223.579 122.399 226.607C123.442 229.635 125.059 233.708 126.05 235.744C127.093 237.781 128.71 240.809 129.753 242.532C130.796 244.255 132.83 247.284 134.342 249.32C135.802 251.356 138.723 254.854 140.861 257.1C142.999 259.397 146.232 262.478 148.11 263.94C149.987 265.454 153.116 267.699 155.15 269.004C157.184 270.31 160.887 272.45 163.495 273.704C166.102 275.009 169.961 276.732 172.099 277.463C174.238 278.246 178.358 279.447 181.226 280.178C184.094 280.857 189.518 281.692 193.221 282.006C198.279 282.475 201.721 282.475 206.78 282.006C210.483 281.692 215.907 280.857 218.775 280.178C221.643 279.447 225.972 278.142 228.423 277.254C230.874 276.366 235.307 274.33 238.332 272.764C241.356 271.197 246.259 268.117 249.283 265.872C252.308 263.574 256.689 259.658 259.088 257.1C261.435 254.541 264.877 250.312 266.754 247.753C268.631 245.195 271.395 240.6 272.908 237.572C274.472 234.543 276.558 229.531 277.601 226.346C278.592 223.161 279.844 218.723 280.313 216.425C280.783 214.128 281.356 209.69 281.565 206.505C281.826 203.32 281.826 198.046 281.565 194.757C281.356 191.467 280.939 187.447 280.626 185.88C280.365 184.314 279.74 181.494 279.27 179.615C278.801 177.735 277.706 174.446 276.923 172.305C276.141 170.164 274.525 166.405 273.325 163.951C272.126 161.497 269.622 157.267 267.849 154.552C266.024 151.837 263.156 148.078 261.435 146.198C259.766 144.318 257.106 141.603 255.541 140.141C253.977 138.732 251.161 136.33 249.283 134.92C247.406 133.51 244.485 131.474 242.764 130.43C241.043 129.385 237.758 127.61 235.463 126.514C233.169 125.365 229.049 123.694 226.337 122.806C223.625 121.919 220.339 120.927 219.036 120.613C217.732 120.248 214.707 119.674 212.256 119.256C209.648 118.838 204.381 118.577 199.479 118.577C194.89 118.629 189.362 118.943 187.223 119.308Z" fill="#ED4F74"/>
<path d="M199.009 197.263C199.218 198.046 200.522 201.858 201.93 205.721C203.39 209.585 204.746 213.188 205.007 213.658C205.32 214.337 206.102 214.598 207.666 214.598L209.909 214.65C212.621 207.131 213.612 204.573 213.82 204.155C214.185 203.528 214.342 203.633 214.759 204.677C215.02 205.408 215.906 207.862 216.741 210.107C217.575 212.352 218.357 214.284 218.514 214.337C218.67 214.389 219.818 214.337 221.069 214.128C223.155 213.814 223.364 213.658 224.303 211.308C224.824 209.951 225.137 208.854 224.876 208.854C224.668 208.906 224.772 208.593 225.085 208.228C225.398 207.862 225.972 206.609 226.389 205.46C226.754 204.312 227.119 203.267 227.119 203.111C227.171 202.954 227.484 202.119 227.849 201.283C228.162 200.448 228.579 199.351 228.736 198.934C228.892 198.516 229.153 197.628 229.257 196.949C229.466 195.905 229.257 195.801 226.858 195.801H224.251C222.112 202.902 221.278 205.513 221.017 206.243C220.548 207.444 220.287 206.974 218.514 201.805L216.584 196.062H211.578C208.866 204.364 207.927 206.766 207.666 206.766C207.458 206.766 207.145 206.139 206.936 205.356C206.78 204.52 206.311 203.163 205.945 202.327C205.58 201.492 205.215 200.604 205.111 200.343C205.059 200.135 204.955 199.873 204.955 199.717C204.955 199.56 204.902 199.299 204.798 199.038C204.746 198.829 204.485 198.046 204.277 197.211C203.964 195.905 203.703 195.801 201.304 195.801C198.696 195.801 198.696 195.801 199.009 197.211V197.263ZM184.094 196.427C183.364 196.741 182.112 197.472 181.278 198.098C180.391 198.725 179.296 200.187 178.775 201.335C178.253 202.484 177.836 204.207 177.836 205.095C177.836 206.035 178.201 207.653 178.618 208.645C179.035 209.637 180.026 211.152 180.809 211.987C181.643 212.822 182.842 213.762 183.573 214.023C184.303 214.337 186.284 214.493 188.058 214.493C190.457 214.389 191.708 214.076 193.273 213.031C194.368 212.3 195.724 210.838 196.193 209.794C196.715 208.698 197.132 206.661 197.132 205.095C197.132 203.006 196.819 201.858 195.724 200.134C194.889 198.934 193.429 197.576 192.438 197.054C191.447 196.636 189.414 196.166 188.005 196.062C186.545 195.957 184.824 196.114 184.094 196.427Z" fill="white"/>
<path d="M184.615 202.171C183.833 202.954 183.52 203.946 183.572 205.565C183.572 207.392 183.833 208.019 185.033 208.854C185.815 209.481 186.962 209.95 187.64 209.898C188.318 209.898 189.57 209.167 190.404 208.332C191.291 207.392 191.917 206.191 191.917 205.356C191.969 204.52 191.499 203.267 190.874 202.484C190.039 201.335 189.413 201.022 187.745 201.022C186.336 201.022 185.398 201.387 184.615 202.171Z" fill="#ED4F74"/>
<path d="M171.578 197.158C170.691 197.889 169.961 198.934 169.961 199.508C170.013 200.03 169.752 200.605 169.492 200.761C169.179 200.918 169.074 200.187 169.283 198.673L169.596 196.323H163.755V214.598H169.492C169.335 206.4 169.544 205.147 170.326 203.79C170.848 202.85 171.838 201.858 172.464 201.544C173.142 201.283 174.237 201.022 174.967 201.022C176.167 201.022 176.271 200.866 176.271 198.412C176.271 195.853 176.219 195.801 174.759 195.801C173.872 195.801 172.516 196.375 171.578 197.158ZM233.638 193.451C233.638 195.592 233.533 195.801 232.334 195.801C231.134 195.801 231.03 195.958 231.134 197.994C231.291 200.03 231.447 200.239 232.595 200.239C233.898 200.239 233.898 200.239 233.742 204.677C233.585 207.914 233.794 209.638 234.368 211.047C234.941 212.457 235.776 213.292 237.132 213.867C238.592 214.493 239.583 214.598 240.939 214.285C242.66 213.867 242.764 213.658 242.868 211.569C243.025 209.429 242.973 209.376 241.46 209.376C240.626 209.376 239.791 209.115 239.635 208.854C239.479 208.541 239.218 206.557 238.957 204.416L238.592 200.5H243.025C243.025 195.801 243.025 195.801 241.2 195.801C239.374 195.801 239.374 195.801 239.374 193.451V191.102H233.638V193.451ZM245.685 201.492L245.632 214.076H251.369L251.317 201.805C254.081 200.396 255.072 200.239 255.541 200.5C255.958 200.709 256.636 201.336 257.054 201.805C257.419 202.328 257.784 203.006 257.888 203.32C257.94 203.633 258.044 206.191 258.044 208.959L258.149 214.076H263.364C263.364 202.85 263.155 201.074 262.373 199.299C261.851 198.098 260.861 196.793 260.183 196.427C259.505 196.01 257.992 195.696 256.845 195.696C255.698 195.644 253.977 196.062 253.038 196.532L251.369 197.367L251.108 189.274L245.685 188.961V201.492ZM146.336 189.431C145.45 189.64 144.146 190.162 143.468 190.527C142.738 190.893 141.382 191.937 140.391 192.825C139.453 193.712 138.201 195.488 137.679 196.689C137.054 198.098 136.688 200.082 136.688 202.014C136.688 203.737 137.001 205.983 137.471 206.975C137.888 208.019 139.087 209.794 140.183 210.943C141.278 212.092 143.207 213.449 144.511 213.919C145.763 214.441 148.11 214.807 149.726 214.754C151.447 214.754 153.377 214.337 154.681 213.658C155.828 213.084 157.497 211.726 158.436 210.577C159.426 209.376 160.365 207.497 160.73 205.93C161.043 204.521 161.2 202.745 161.095 202.014C160.939 200.761 160.887 200.709 155.463 200.709H149.987V205.408L155.619 205.93C153.429 208.593 152.177 209.481 151.395 209.638C150.613 209.794 149.048 209.69 147.901 209.429C146.754 209.115 145.189 208.228 144.407 207.392C143.677 206.609 142.842 205.252 142.582 204.364C142.321 203.529 142.217 202.014 142.373 200.97C142.529 199.978 143.103 198.516 143.572 197.733C144.094 196.95 145.033 195.958 145.658 195.54C146.284 195.122 147.901 194.704 149.257 194.652C151.239 194.496 152.125 194.757 153.846 195.905C155.463 197.002 156.193 197.211 156.871 196.845C157.393 196.532 158.175 195.958 158.696 195.54C159.583 194.757 159.583 194.652 158.696 193.347C158.175 192.616 156.871 191.415 155.724 190.736C154.42 190.005 152.49 189.431 150.769 189.274C149.153 189.118 147.171 189.222 146.336 189.431Z" fill="white"/>
<path d="M186.18 40.2566C183.155 40.5177 177.784 41.2487 174.185 41.823C170.587 42.3974 165.685 43.3894 163.234 43.9638C160.782 44.5381 156.089 45.8435 152.803 46.8355C149.518 47.8276 144.094 49.7073 140.809 51.0126C137.523 52.318 131.891 54.8764 128.292 56.6517C124.694 58.4269 119.531 61.2465 116.819 62.9173C114.107 64.5881 109.883 67.3555 107.432 69.1307C104.981 70.8538 100.548 74.3521 97.523 76.8061C94.4983 79.2602 88.8659 84.5859 85.0067 88.6064C81.1475 92.6268 76.0367 98.3181 73.7421 101.346C71.3953 104.323 67.849 109.231 65.8672 112.259C63.8855 115.288 61.3822 119.256 60.3392 121.135C59.2962 123.015 58.5139 124.634 58.6704 124.79C58.7747 124.947 67.0667 123.381 77.0276 121.292C86.9885 119.204 95.3848 117.533 95.6977 117.48C96.0106 117.48 100.548 125.208 105.867 134.711C111.187 144.162 115.62 151.941 115.776 151.941C115.932 151.941 117.236 150.166 118.696 147.921C120.157 145.676 122.503 142.386 123.912 140.559C125.32 138.731 128.814 134.868 131.682 131.996C134.55 129.124 138.983 125.156 141.591 123.224C144.198 121.292 147.901 118.681 149.935 117.48C151.969 116.227 155.672 114.243 158.279 112.99C160.887 111.789 165.32 109.962 168.188 108.97C171.056 107.978 176.115 106.568 179.4 105.837C182.686 105.054 188.579 104.218 192.438 103.853C197.601 103.383 201.356 103.383 206.519 103.801C210.378 104.114 216.011 104.845 219.035 105.471C222.06 106.098 227.327 107.508 230.769 108.656C234.211 109.805 239.479 111.998 242.503 113.46C245.528 114.974 250.065 117.585 252.673 119.256C255.281 120.927 259.14 123.798 261.278 125.574C263.416 127.401 267.223 130.952 269.674 133.51C272.125 136.016 275.62 140.089 277.445 142.543C279.218 144.997 281.408 148.182 282.347 149.696L283.964 152.359C306.18 152.829 315.724 153.038 319.427 153.142L326.206 153.247C333.507 124.373 335.75 115.862 336.011 115.705C336.219 115.549 334.603 112.886 332.412 109.805C330.222 106.672 326.623 101.921 324.485 99.2057C322.295 96.4906 317.184 90.956 313.168 86.9355C309.153 82.8629 303.52 77.6937 300.652 75.3963C297.784 73.099 292.621 69.3396 289.179 67.0422C285.737 64.7448 280.47 61.4553 277.445 59.7845C274.42 58.1137 269.518 55.6074 266.493 54.2499C263.468 52.9445 258.41 50.856 255.281 49.6551C252.151 48.5064 247.458 46.94 244.85 46.209C242.243 45.5302 239.218 44.7992 238.071 44.5904C236.923 44.4337 235.62 44.1204 235.202 43.8594C234.785 43.6505 232.543 43.0762 230.248 42.6062C227.953 42.1363 223.364 41.4053 220.078 40.9876C216.793 40.5177 209.022 40.1 202.869 39.9434C196.715 39.8389 189.205 39.9956 186.18 40.2566Z" fill="#FFA0B6"/>
<path d="M237.08 71.1671C236.923 71.4804 236.089 74.2477 235.202 77.2761C234.263 80.3045 233.22 83.6461 232.803 84.6904C232.386 85.7869 232.073 86.7789 232.073 86.9356C232.073 87.0922 232.595 87.4055 233.22 87.6666C233.898 87.8754 234.941 88.2409 235.567 88.4498C236.61 88.7108 236.819 88.502 237.08 87.04C237.236 86.1524 237.862 84.0638 238.436 82.4974C239.009 80.931 239.739 79.3124 240.052 78.8947C240.417 78.477 241.356 77.8504 242.243 77.4849C243.286 77.015 244.329 76.9628 245.372 77.2239C246.884 77.6416 246.988 77.5894 247.614 75.5008C247.979 74.3521 248.188 73.3078 248.136 73.2556C248.031 73.2034 247.197 73.0468 246.206 72.8379C245.267 72.6813 243.964 72.8379 243.338 73.1512C242.764 73.4645 241.825 74.2477 241.304 74.8742C240.365 75.9185 240.365 75.9185 240.678 74.9265C240.887 74.3521 241.2 73.4123 241.304 72.8379C241.512 72.0547 241.2 71.637 239.844 71.1149C238.853 70.7494 237.914 70.4883 237.653 70.4883C237.445 70.4883 237.184 70.8016 237.08 71.1149V71.1671ZM228.788 68.8175C228.631 69.0263 227.64 72.8901 226.649 77.3283C225.658 81.7664 224.98 85.578 225.189 85.7869C225.398 85.9435 226.441 86.2568 227.484 86.4134C228.892 86.6223 229.465 86.5179 229.518 86.048C229.518 85.7347 229.622 85.0559 229.726 84.6382C229.831 84.2205 230.613 80.67 231.499 76.8062C232.386 72.9424 232.96 69.6007 232.751 69.444C232.49 69.2352 231.604 68.9219 230.717 68.7131C229.831 68.5564 228.944 68.5564 228.788 68.8175ZM208.918 67.0422C207.666 67.721 206.467 69.0263 205.841 70.2795C205.215 71.4282 204.694 73.4123 204.642 74.7176C204.537 76.3362 204.85 77.7982 205.632 79.3646C206.258 80.67 207.353 82.1319 208.083 82.6541C208.814 83.1762 210.535 83.7506 211.995 83.9594C214.081 84.2205 214.967 84.0638 216.428 83.2806L218.253 82.2364C217.94 84.1683 218.253 84.4293 219.818 84.6382C220.861 84.7948 221.904 84.7948 222.164 84.6382C222.373 84.4815 222.738 82.7063 222.947 80.7222C223.155 78.6858 223.364 76.3362 223.52 75.5008C223.625 74.6132 223.833 72.4202 223.99 70.5405L224.355 67.1467C220.652 66.9378 219.661 67.0422 219.765 67.2511C219.922 67.5121 219.818 68.0343 219.505 68.452C219.192 68.9741 219.035 69.0089 219.035 68.5564C219.035 68.2431 218.253 67.4599 217.314 66.8856C216.323 66.3112 214.707 65.8935 213.299 65.8413C211.838 65.8413 210.222 66.3112 208.918 67.0422Z" fill="white"/>
<path d="M210.691 71.4805C209.387 72.6814 209.022 73.4124 209.074 74.8744C209.126 76.2319 209.543 77.1718 210.691 78.3205C211.89 79.5214 212.725 79.8869 214.237 79.8869C215.28 79.8869 216.532 79.5736 217.053 79.2081C217.523 78.8426 218.148 77.955 218.461 77.1196C218.774 76.3364 219.035 75.1354 219.035 74.4045C219.035 73.6735 218.357 72.4203 217.47 71.5327C216.323 70.384 215.384 69.9663 214.133 69.9663C212.933 69.9663 211.838 70.4362 210.691 71.4805Z" fill="#FFA0B6"/>
<path d="M197.809 66.5724C196.819 67.5644 195.88 68.3999 195.776 68.3999C195.671 68.3999 195.619 68.2432 195.619 67.9821C195.671 67.7733 195.671 67.1467 195.619 66.5724C195.567 65.6848 195.202 65.5281 193.324 65.5281C192.125 65.5281 191.186 65.7892 191.238 66.0502C191.291 66.3635 191.343 70.3318 191.395 74.9265L191.499 83.2807H196.088C196.088 75.6575 196.349 73.0469 196.766 72.2637C197.079 71.4805 198.018 70.5406 198.852 70.1751C199.635 69.7574 200.573 69.4441 200.939 69.4441C201.251 69.4441 201.877 69.2353 202.242 69.0264C202.712 68.7653 202.816 68.0344 202.659 66.729C202.399 65.006 202.138 64.7449 200.991 64.7449C200.156 64.7449 198.957 65.4237 197.809 66.5724ZM161.043 63.9095C160 64.2228 159.061 64.5883 158.905 64.7449C158.748 64.9015 158.487 66.3113 158.331 67.8777C158.174 69.4441 157.862 71.9504 157.705 73.3601C157.549 74.8221 157.34 76.8062 157.236 77.7983C157.131 78.7903 156.923 81.0355 156.714 82.7586C156.558 84.4816 156.297 86.8835 156.193 88.1366C155.932 90.1207 156.036 90.3295 157.131 90.3295C157.757 90.3295 158.852 90.0163 159.583 89.6508C160.573 89.1808 160.886 88.5543 161.043 86.9357C161.147 85.787 161.304 84.7427 161.46 84.5861C161.616 84.4294 163.911 83.8029 166.519 83.1763C170.952 82.1842 171.369 82.132 171.942 82.9152C172.255 83.4374 172.881 84.2728 173.298 84.8471C174.028 85.8392 174.185 85.8392 176.427 85.1082L178.826 84.325C176.375 81.0877 173.559 77.2239 170.899 73.6212C168.24 70.0185 165.528 66.2069 164.798 65.1104C164.068 64.0661 163.39 63.2307 163.233 63.2307C163.077 63.2829 162.086 63.544 161.043 63.9095Z" fill="white"/>
<path d="M162.503 71.5325C162.347 72.2634 162.138 74.4042 161.982 76.3883C161.825 78.3202 161.825 79.8866 162.034 79.8866C162.295 79.8866 163.807 79.4689 165.424 78.9468L168.448 78.0592C164.746 72.7856 163.494 71.0625 163.233 70.7493C162.92 70.436 162.66 70.697 162.503 71.5325Z" fill="#FFA0B6"/>
<path d="M229.987 62.2908C229.935 62.343 229.83 63.2306 229.674 64.2227C229.465 65.6846 229.57 66.1023 230.352 66.2068C230.874 66.259 231.864 66.3634 232.542 66.4678C233.325 66.5201 233.846 66.259 233.898 65.7891C233.95 65.3714 234.159 64.5359 234.368 63.9616C234.628 63.1262 234.368 62.8651 233.012 62.4996C232.073 62.2908 230.978 62.1341 230.613 62.1341C230.3 62.1341 229.987 62.1863 229.987 62.2908ZM180.548 61.9775C178.879 62.1341 178.879 62.1341 179.139 64.4837C179.348 66.4678 179.244 66.8333 178.462 66.8856C177.992 66.9378 177.471 66.9378 177.314 66.9378C177.158 66.9378 177.106 67.5643 177.158 68.2953C177.158 69.0785 177.21 69.8617 177.262 70.1228C177.314 70.3316 177.888 70.4883 178.618 70.4883C179.609 70.4883 179.922 70.7494 179.974 71.6892C179.974 72.3158 180.078 73.2034 180.183 73.6211C180.235 74.0388 180.495 75.8141 180.652 77.5371C180.86 79.2602 181.121 81.0876 181.226 81.6098C181.382 82.0797 182.216 82.8629 183.051 83.2806C183.885 83.6983 185.398 84.0638 186.389 84.0638C187.432 84.0638 188.579 83.6983 189.048 83.1762C189.518 82.654 189.778 81.923 189.622 81.6098C189.465 81.2443 189.309 80.6177 189.309 80.3044C189.309 79.8867 188.683 79.6779 187.744 79.7823C186.701 79.8345 186.023 79.5734 185.711 78.9991C185.45 78.477 185.085 76.4406 184.928 74.4043C184.72 72.4202 184.563 70.5405 184.459 70.2794C184.407 69.9661 184.668 69.7051 184.98 69.6007C185.345 69.4962 186.128 69.444 186.701 69.444C187.536 69.444 187.744 69.1307 187.588 67.7732C187.484 66.1546 187.379 66.0501 185.502 66.2068C183.624 66.3112 183.572 66.259 183.52 64.3793C183.468 63.2828 183.468 62.2908 183.468 62.1341C183.468 61.9775 183.207 61.873 182.894 61.873C182.529 61.873 181.486 61.9253 180.548 61.9775Z" fill="white"/>
<path d="M54.3416 62.9172C51.1603 66.3633 46.4667 71.7413 43.9635 74.9263C41.4081 78.1114 37.8096 82.915 35.88 85.6301C34.0026 88.3452 30.8214 93.1489 28.8918 96.3339C26.9622 99.5189 23.9374 104.897 22.1121 108.343C20.2868 111.789 17.4185 117.898 15.7497 121.919C14.0287 125.939 11.4733 132.883 10.013 137.322C8.55278 141.76 6.67534 148.234 5.78877 151.68C4.95435 155.126 3.75487 160.661 3.1812 163.95C2.60754 167.24 1.72097 172.67 1.30376 175.96C0.834394 179.249 0.312876 187.864 0.156422 195.017C-0.0521831 203.424 0.104274 210.89 0.469332 215.903C0.834391 220.237 1.56451 226.659 2.08602 230.262C2.60754 233.864 3.75486 239.973 4.64143 243.837C5.47585 247.701 7.04039 253.81 8.08342 257.413C9.12644 261.015 11.2646 267.333 12.8292 271.51C14.4459 275.687 17.5749 282.841 19.7653 287.435C21.9556 292.03 25.1369 298.139 26.8579 301.011C28.5267 303.883 31.9687 309.313 34.4719 313.02C36.9752 316.727 41.043 322.262 43.442 325.29C45.8931 328.319 49.2829 332.287 51.0039 334.167L54.133 337.56C53.6636 329.206 53.8201 325.969 54.1851 324.246C54.498 322.68 55.3324 320.33 55.9582 319.077C56.5841 317.824 57.8357 316.362 58.6701 315.892C59.5045 315.37 61.8513 314.691 63.8852 314.378C65.9191 314.064 70.7171 313.699 74.5762 313.49C78.4354 313.333 81.3559 313.02 81.043 312.811C80.7822 312.655 78.279 309.887 75.5671 306.702C72.8552 303.517 68.9961 298.557 66.9622 295.737C64.9283 292.918 61.8513 288.219 60.1303 285.347C58.4094 282.475 55.5411 277.306 53.8201 273.86C52.0991 270.414 49.5958 265.036 48.3442 261.851C47.0404 258.666 45.0586 253.027 43.8592 249.32C42.7118 245.612 41.4081 240.913 40.9387 238.877C40.4693 236.841 39.7392 233.447 39.322 231.306C38.9048 229.165 38.1747 224.936 37.7575 221.907C37.3403 218.879 36.8187 210.995 36.6623 204.416C36.4537 196.636 36.558 190.005 36.9752 185.619C37.3403 181.912 38.0704 176.116 38.644 172.827C39.2177 169.537 40.6258 163.167 41.7731 158.729C42.9204 154.291 45.0586 147.451 46.4667 143.587C47.927 139.723 50.9517 132.779 53.1942 128.184C55.4889 123.589 58.9309 117.272 60.8605 114.191C62.7901 111.058 66.545 105.628 69.1525 102.182C71.7601 98.6835 76.4537 92.9922 79.5828 89.5461L85.2151 83.2805C82.6597 71.9502 81.4081 67.1465 80.7822 65.2668C80.2086 63.3872 79.1656 61.2986 78.5919 60.6198C77.9661 59.9411 76.4015 58.8968 75.0978 58.3224C73.3246 57.487 71.2386 57.1737 66.4407 56.9649L60.1825 56.6516L54.3416 62.9172Z" fill="#FFE3E9"/>
<path d="M21.2777 246.866C20.339 247.388 19.2438 248.328 18.8266 249.059C18.1487 250.207 18.2008 250.782 18.9309 253.862C19.5567 256.264 20.0783 257.413 20.5998 257.413C21.017 257.413 24.0418 256.682 27.223 255.742C30.4564 254.854 33.3247 253.967 33.5333 253.81C33.794 253.654 33.8462 252.975 33.6897 252.296C33.429 251.408 33.1161 251.2 32.1774 251.408C31.5515 251.565 30.5607 251.826 29.987 251.983C29.1526 252.244 28.7875 251.826 28.0053 249.894C27.5359 248.589 26.8058 247.336 26.4407 247.127C26.1278 246.97 25.1891 246.605 24.4068 246.396C23.4333 246.152 22.3903 246.309 21.2777 246.866Z" fill="#B11838"/>
<path d="M21.6428 249.998C21.0691 250.573 20.8605 251.304 21.1212 252.191C21.2777 252.922 21.5906 253.653 21.7992 253.862C22.0078 254.071 23.0508 254.019 24.146 253.758C25.4498 253.392 26.0756 252.922 26.0756 252.296C26.0756 251.826 25.7106 250.886 25.2933 250.207C24.8761 249.581 24.0417 249.059 23.5202 249.059C22.9465 249.059 22.1121 249.476 21.6428 249.946V249.998Z" fill="#FFE3E9"/>
<path d="M19.5569 237.937C18.9832 238.042 18.566 238.355 18.6182 238.512C18.6703 238.72 19.1918 239.504 19.8176 240.339C20.3913 241.122 20.7042 241.853 20.4956 241.958C20.2348 242.114 20.1827 242.741 20.2348 243.42L20.4435 244.621C27.8489 243.106 30.1957 242.532 30.4043 242.323C30.6651 242.167 30.7173 241.488 30.5608 240.861C30.3 239.765 30.0914 239.713 28.5269 240.182C27.6403 240.496 25.9715 240.705 24.8763 240.705C23.2075 240.705 22.8424 240.496 22.2688 239.138C21.9037 238.303 21.3822 237.624 21.1214 237.624C20.8085 237.676 20.1306 237.781 19.5569 237.937Z" fill="#B11838"/>
<path d="M20.0785 225.458C19.2441 225.98 18.201 227.233 17.7838 228.225C17.2102 229.635 17.158 230.418 17.6274 231.932C18.0446 233.238 18.879 234.282 19.9742 234.961C21.1736 235.744 22.1645 235.953 23.4683 235.744C24.4592 235.587 25.8151 235.117 26.4931 234.7C27.1189 234.282 27.849 233.029 28.1619 231.932C28.4748 230.523 28.4227 229.583 27.9533 228.434C27.5883 227.599 26.806 226.45 26.2845 225.98C25.7108 225.458 24.4592 224.936 23.4683 224.779C22.2167 224.57 21.1737 224.779 20.0785 225.458Z" fill="#B11838"/>
<path d="M20.2867 228.852C19.9738 229.478 19.8695 230.523 20.026 231.149C20.1824 231.828 20.9647 232.611 21.7991 232.872C22.9464 233.342 23.468 233.238 24.511 232.455C25.2411 231.88 25.8669 230.993 25.9712 230.47C26.0755 229.948 25.7105 229.061 25.189 228.539C24.6674 228.016 23.5201 227.599 22.5814 227.651C21.3819 227.651 20.7039 227.964 20.2867 228.8V228.852Z" fill="#FFE3E9"/>
<path d="M19.8699 206.766C17.836 207.079 16.7408 207.549 16.0628 208.436C15.5413 209.115 15.0719 210.055 15.1241 210.525C15.1241 211.047 15.437 212.039 15.7499 212.77C16.115 213.501 16.5843 214.075 16.7929 214.075C17.0537 214.075 16.8451 214.598 16.4279 215.276C16.0107 215.903 15.6456 216.895 15.6456 217.469C15.6456 218.044 16.0107 219.036 16.4279 219.714C16.8451 220.341 16.9494 220.863 16.6886 220.863C16.3757 220.863 16.1671 221.438 16.1671 222.169V223.474C24.042 223.004 26.5452 222.691 26.7538 222.482C27.0146 222.325 27.1189 221.699 27.0146 221.124C26.8581 220.184 26.4931 220.08 23.2075 220.237C20.7564 220.341 19.3483 220.184 18.879 219.714C18.5139 219.349 18.201 218.618 18.2532 218.148C18.2532 217.626 18.8268 216.999 19.5569 216.686C20.2871 216.373 22.0081 216.164 23.4683 216.164C24.8764 216.164 26.1802 215.955 26.3366 215.642C26.4931 215.329 26.4931 214.65 26.3366 214.075C26.0758 213.136 25.8151 213.083 22.7382 213.397C20.1306 213.71 19.244 213.658 18.5661 213.031C18.0967 212.613 17.6795 211.83 17.7317 211.308C17.7317 210.838 18.201 210.212 18.7747 209.898C19.3483 209.585 21.1215 209.376 22.686 209.376C24.2506 209.376 25.6586 209.167 25.8151 208.854C25.9715 208.541 25.9715 207.862 25.8151 207.288C25.6065 206.557 25.1371 206.243 24.0941 206.296C23.3118 206.348 21.4344 206.557 19.8699 206.766Z" fill="#B11838"/>
<path d="M18.4092 194.234C17.7834 194.443 16.7926 195.331 16.1667 196.166C15.5931 196.949 15.0716 198.411 15.1237 199.299C15.1237 200.239 15.4888 201.753 15.906 202.588C16.4275 203.685 17.3141 204.311 18.6179 204.729C19.713 205.042 21.1733 205.147 21.9034 204.99C22.6335 204.834 23.7287 204.155 24.3545 203.528C25.0325 202.849 25.7104 201.492 25.8669 200.5C26.0755 199.299 25.919 198.098 25.3454 196.949C24.876 196.062 23.7808 194.913 22.9464 194.495C22.112 194.078 20.9647 193.712 20.4432 193.764C19.9738 193.764 19.0351 193.973 18.4092 194.234Z" fill="#B11838"/>
<path d="M17.9923 198.046C17.3143 198.986 17.2621 199.404 17.8358 200.605C18.253 201.44 19.0874 202.171 19.8175 202.328C20.5477 202.484 21.6428 202.275 22.3208 201.806C23.0509 201.336 23.4681 200.5 23.4681 199.56C23.4681 198.777 23.2074 197.837 22.8423 197.472C22.4773 197.106 21.3821 196.845 20.4955 196.845C19.3482 196.845 18.5659 197.211 17.9923 197.994V198.046Z" fill="#FFE3E9"/>
<path d="M15.6458 186.925C15.6458 187.708 15.2808 187.969 14.342 187.969C13.4728 187.969 12.9513 188.317 12.7775 189.013C12.621 189.588 12.621 190.266 12.7775 190.58C12.934 190.893 13.5076 191.102 14.0813 191.102C14.6549 191.102 15.1243 191.467 15.1243 191.885C15.1243 192.355 15.5937 192.668 16.4281 192.668C17.3147 192.668 17.7319 192.407 17.7319 191.728C17.7319 190.945 18.0448 190.893 20.4437 191.206C21.9561 191.415 23.6771 191.467 24.2508 191.363C24.8244 191.206 25.6067 190.527 25.9718 189.796C26.2847 189.065 26.4933 188.021 26.3368 187.447C26.1804 186.82 25.6589 186.403 25.033 186.403C24.3377 186.403 23.99 186.751 23.99 187.447C23.99 188.387 23.625 188.491 20.8609 188.491C17.8883 188.491 17.7319 188.439 17.7319 187.186C17.7319 186.246 17.4711 185.88 16.6888 185.88C15.9935 185.88 15.6458 186.228 15.6458 186.925Z" fill="#B11838"/>
<path d="M18.1487 175.385C16.6363 176.743 16.4277 177.265 16.4277 179.51C16.4277 181.39 16.7406 182.434 17.4708 183.27C18.0444 183.844 19.2439 184.575 20.0783 184.784C20.9127 184.993 22.373 184.993 23.2074 184.784C24.0418 184.523 25.2935 183.739 25.9193 183.008C26.7537 182.121 27.1187 181.024 27.1187 179.615C27.1187 178.466 26.858 177.056 26.5972 176.482C26.2843 175.907 25.3456 175.072 24.5112 174.654C23.6768 174.237 22.2687 173.871 21.3821 173.871C20.3912 173.871 19.1917 174.445 18.1487 175.385Z" fill="#B11838"/>
<path d="M19.8695 177.265C19.0872 177.839 18.67 178.57 18.7221 179.406C18.7221 180.085 19.1394 181.025 19.5566 181.442C19.9738 181.86 21.0168 182.225 21.7991 182.225C22.5813 182.225 23.52 181.912 23.8851 181.599C24.2502 181.233 24.5109 180.346 24.5109 179.615C24.5631 178.884 24.1459 177.892 23.6244 177.422C23.1028 176.9 22.3206 176.482 21.9034 176.482C21.4862 176.482 20.5474 176.847 19.8695 177.265Z" fill="#FFE3E9"/>
<path d="M18.3573 165.412C18.253 165.882 18.4094 166.822 18.7223 167.449C19.1917 168.441 19.1395 168.65 18.5137 168.65C17.9922 168.65 17.7836 169.12 17.8879 170.059C17.9922 171.417 18.1486 171.521 22.8423 172.305C25.502 172.722 27.7966 172.983 27.9531 172.827C28.0574 172.67 28.1617 172.044 28.1617 171.365C28.1617 170.373 27.7966 170.164 25.4498 169.851C23.8331 169.642 22.3207 169.12 21.7992 168.545C21.2777 168.023 20.8084 167.031 20.8084 166.352C20.7562 165.569 20.339 164.995 19.7132 164.838C18.9831 164.664 18.5311 164.855 18.3573 165.412Z" fill="#B11838"/>
<path d="M21.6423 155.231C20.7384 155.996 20.1995 157.076 20.0256 158.468C19.817 159.982 20.0256 161.026 20.8079 162.227C21.5902 163.428 22.5289 164.107 23.9891 164.472C25.1886 164.786 26.5967 164.786 27.2747 164.577C27.9005 164.316 28.9435 163.428 29.6215 162.593C30.5602 161.392 30.821 160.556 30.6645 158.729C30.5602 156.954 30.2994 156.379 29.6215 156.275C28.8914 156.171 28.6828 156.484 28.6828 157.946C28.6828 158.938 28.4742 160.243 28.1612 160.818C27.8483 161.392 27.2747 161.862 26.8575 161.862C26.4403 161.862 26.0752 161.549 26.0752 161.183C26.1273 160.87 26.4403 159.251 26.8575 157.685C27.2225 156.118 27.4311 154.604 27.2225 154.395C27.0139 154.186 25.9709 154.03 24.9279 154.03C23.7284 154.03 22.5289 154.447 21.6423 155.178V155.231Z" fill="#B11838"/>
<path d="M22.9464 157.267C22.5292 157.633 22.2684 158.468 22.3206 159.251C22.3206 159.982 22.7378 160.87 23.2072 161.235C23.8851 161.758 24.0416 161.601 24.3023 159.93C24.4588 158.834 24.6674 157.633 24.7195 157.319C24.7717 156.954 24.5631 156.641 24.2502 156.641C23.9373 156.641 23.3636 156.902 22.9464 157.267Z" fill="#FFE3E9"/>
<path d="M23.4684 146.511C22.8426 147.295 22.3211 148.443 22.3732 149.122C22.4254 149.801 22.8947 150.845 23.4684 151.419C24.0421 151.994 24.8765 152.464 25.3459 152.464C25.8152 152.464 27.0147 151.628 28.1099 150.584C29.1529 149.592 30.3002 148.861 30.6131 149.018C30.9782 149.174 31.2911 149.696 31.2911 150.114C31.2911 150.532 30.8217 151.106 30.2481 151.419C29.6744 151.681 29.205 152.411 29.205 152.986C29.205 153.682 29.5527 154.03 30.2481 154.03C30.8217 154.03 31.7605 153.404 32.3341 152.568C32.9599 151.785 33.4293 150.375 33.3771 149.435C33.3771 148.548 33.0121 147.399 32.5949 146.981C32.1777 146.564 31.2389 146.198 30.5088 146.198C29.6744 146.198 28.5792 146.877 27.4841 148.026C26.2846 149.331 25.6066 149.696 25.0329 149.331C24.355 148.913 24.355 148.757 25.1373 147.921C25.6588 147.399 26.076 146.564 26.076 146.041C26.076 145.572 25.7631 145.154 25.3459 145.154C24.9286 145.154 24.0942 145.78 23.4684 146.511Z" fill="#B11838"/>
<path d="M342.008 65.1625C341.799 67.9298 341.278 71.4281 340.861 72.8378C340.443 74.2998 339.557 76.2317 338.879 77.2238C338.201 78.2158 337.106 79.469 336.376 79.9911C335.541 80.6177 333.612 81.192 331.16 81.4531C329.022 81.7141 324.433 81.923 320.939 81.9752C317.497 81.9752 314.524 82.1319 314.316 82.3929C314.159 82.6018 316.193 85.108 318.905 87.9798C321.617 90.8515 325.58 95.4463 327.771 98.1614C329.961 100.877 333.716 106.046 336.115 109.648C338.514 113.251 341.747 118.525 343.312 121.396C344.876 124.268 347.014 128.497 348.057 130.795C349.153 133.092 350.926 137.217 352.021 139.932C353.116 142.647 354.785 147.451 355.828 150.636C356.819 153.821 358.279 158.834 359.009 161.862C359.739 164.89 360.782 170.268 361.356 173.871C361.93 177.474 362.66 183.217 362.973 186.663C363.233 190.109 363.494 196.323 363.494 200.5C363.494 204.677 363.233 210.786 362.973 214.075C362.66 217.365 361.878 223.631 361.147 227.912C360.417 232.246 359.061 238.668 358.07 242.271C357.08 245.874 355.463 251.147 354.472 254.019C353.481 256.891 351.812 261.277 350.769 263.835C349.726 266.341 347.745 270.727 346.284 273.599C344.876 276.471 342.164 281.327 340.339 284.459C338.514 287.54 334.967 292.866 332.464 296.312C329.961 299.758 326.623 304.092 325.007 305.971C323.39 307.851 320.939 310.566 319.531 311.976L316.975 314.587C317.392 331.504 317.653 334.271 318.227 335.472C318.696 336.307 319.896 337.822 320.939 338.761C321.982 339.649 324.016 341.007 325.424 341.738C326.884 342.469 330.222 343.669 332.881 344.4L337.679 345.81C347.797 335.368 353.064 329.415 355.984 325.812C358.853 322.21 362.868 316.832 364.902 313.803C366.884 310.775 369.909 306.076 371.578 303.361C373.246 300.646 375.802 296.051 377.366 293.179C378.879 290.307 381.747 284.198 383.729 279.603C385.711 275.009 388.423 267.96 389.726 263.939C391.03 259.919 392.542 254.854 393.168 252.714C393.742 250.573 394.837 245.978 395.567 242.532C396.297 239.086 397.392 233.186 397.914 229.478C398.488 225.771 399.166 219.14 399.531 214.859C399.896 210.003 400.052 202.536 399.844 195.279C399.687 188.334 399.113 180.189 398.488 175.437C397.914 170.999 396.819 164.42 396.141 160.818C395.411 157.215 393.846 150.74 392.647 146.459C391.499 142.177 389.57 136.068 388.423 132.883C387.275 129.698 385.241 124.686 383.99 121.658C382.686 118.629 380.391 113.721 378.879 110.693C377.366 107.664 374.811 102.861 373.142 99.9889C371.473 97.1171 368.136 91.8436 365.685 88.2408C363.286 84.6381 359.113 78.999 356.454 75.7096C353.794 72.4201 349.778 67.7209 347.536 65.2669C345.346 62.8128 343.207 60.6721 342.894 60.4632C342.477 60.2022 342.216 61.6119 342.008 65.1625Z" fill="#ED4F74"/>
<path d="M373.768 229.74C373.351 230.314 372.829 231.515 372.673 232.455C372.464 233.551 372.673 234.595 373.142 235.326C373.716 236.214 374.341 236.475 375.593 236.371C376.949 236.318 377.627 235.796 378.618 234.282C379.348 233.186 380.235 232.35 380.547 232.35C380.913 232.35 381.33 232.559 381.486 232.872C381.643 233.186 381.382 233.76 380.965 234.178C380.548 234.595 380.182 235.431 380.182 236.005C380.182 236.58 380.391 237.049 380.704 237.049C380.965 237.049 381.695 236.58 382.268 236.005C382.842 235.431 383.312 234.282 383.312 233.395C383.312 232.559 383.051 231.358 382.79 230.784C382.442 230.088 381.747 229.74 380.704 229.74C379.504 229.74 378.774 230.21 377.575 231.828C376.688 232.977 375.75 233.917 375.489 233.917C375.176 233.917 374.863 233.551 374.707 233.133C374.55 232.716 374.811 231.985 375.228 231.567C375.645 231.149 376.01 230.314 376.01 229.74C376.01 229.165 375.697 228.695 375.28 228.695C374.915 228.695 374.237 229.165 373.768 229.74Z" fill="white"/>
<path d="M375.332 217.469C374.55 218.2 373.768 219.401 373.611 220.237C373.455 221.02 373.559 222.221 373.924 222.952C374.342 223.839 374.342 224.309 373.976 224.414C373.664 224.466 373.403 225.093 373.403 225.824C373.403 227.077 373.507 227.129 378.201 227.39C380.86 227.547 384.146 227.808 385.502 227.912C388.005 228.173 388.005 228.173 388.005 226.607C388.005 225.093 387.901 225.04 385.658 225.04C384.355 225.04 383.312 224.832 383.312 224.518C383.312 224.205 383.468 223.892 383.677 223.787C383.937 223.683 384.25 223.004 384.459 222.221C384.72 221.385 384.615 220.237 384.094 219.192C383.677 218.253 382.738 217.156 382.008 216.791C381.278 216.477 379.817 216.164 378.722 216.164C377.262 216.164 376.271 216.53 375.332 217.469Z" fill="white"/>
<path d="M377.106 219.558C376.323 220.132 375.906 220.863 375.958 221.699C375.958 222.378 376.376 223.317 376.793 223.735C377.21 224.153 378.305 224.518 379.14 224.518C380.183 224.518 380.965 224.135 381.486 223.37C381.904 222.691 382.269 221.855 382.269 221.542C382.269 221.177 381.799 220.394 381.226 219.819C380.652 219.245 379.766 218.775 379.296 218.775C378.775 218.775 377.784 219.14 377.106 219.558Z" fill="#ED4F74"/>
<path d="M375.541 204.416C374.133 205.617 373.872 206.139 373.872 207.967C373.872 209.168 374.185 210.473 374.55 210.838C375.072 211.361 375.072 211.465 374.602 211.465C374.185 211.465 373.924 212.144 373.924 213.031V214.598C383.624 214.598 384.407 214.493 384.667 213.71C384.824 213.188 384.824 212.405 384.563 211.987C384.354 211.569 384.25 210.995 384.354 210.682C384.407 210.369 384.563 209.533 384.667 208.698C384.772 207.914 384.511 206.557 384.094 205.722C383.676 204.886 382.894 203.946 382.425 203.737C381.903 203.476 380.547 203.215 379.348 203.163C377.679 203.059 376.845 203.372 375.541 204.416Z" fill="white"/>
<path d="M377.679 206.087C377.314 206.243 376.793 206.974 376.48 207.758C376.115 208.75 376.167 209.428 376.793 210.316C377.366 211.151 378.096 211.465 379.4 211.465C380.704 211.465 381.382 211.151 381.747 210.42C382.008 209.846 382.269 208.958 382.269 208.489C382.321 207.966 381.904 207.131 381.382 206.661C380.861 206.139 379.974 205.773 379.4 205.773C378.827 205.773 378.044 205.93 377.679 206.087Z" fill="#ED4F74"/>
<path d="M377.054 191.676C376.324 191.989 375.333 192.72 374.811 193.347C374.342 193.973 373.768 195.07 373.612 195.801C373.455 196.532 373.612 197.733 373.925 198.516C374.185 199.351 374.811 200.343 375.228 200.761C375.906 201.44 376.063 201.44 376.636 200.656C377.158 199.978 377.158 199.769 376.636 199.612C376.271 199.508 376.011 198.62 376.011 197.471C375.958 196.323 376.271 195.278 376.793 194.861C377.262 194.495 377.679 194.443 377.836 194.756C377.992 195.017 378.097 196.532 378.149 197.994C378.149 199.508 378.305 201.074 378.514 201.44C378.775 201.91 379.4 202.066 380.443 201.857C381.33 201.701 382.53 201.022 383.103 200.395C383.729 199.717 384.407 198.62 384.616 197.889C384.824 197.158 384.668 195.905 384.303 195.017C383.938 194.13 383.364 193.19 383.051 192.877C382.79 192.563 382.008 192.041 381.33 191.728C380.704 191.362 379.765 191.101 379.244 191.154C378.775 191.154 377.784 191.415 377.054 191.676Z" fill="white"/>
<path d="M380.183 196.218C380.183 198.255 380.391 198.934 380.965 198.934C381.382 198.934 381.851 198.568 382.008 198.15C382.164 197.733 382.269 196.949 382.269 196.427C382.321 195.957 381.799 195.07 381.226 194.495L380.13 193.451L380.183 196.218Z" fill="#ED4F74"/>
<path d="M379.922 181.233C378.461 181.494 376.74 181.807 376.01 181.912C375.28 182.016 374.185 182.121 373.507 182.173C372.464 182.225 372.36 182.434 372.568 184.679C372.725 186.089 372.829 187.969 372.829 188.856C372.881 190.318 373.09 190.579 374.185 190.579C375.437 190.579 375.489 190.475 375.384 187.655C375.228 184.731 375.228 184.679 376.792 184.523C377.679 184.47 379.661 184.262 381.225 184.053C382.79 183.896 384.667 183.635 385.397 183.478C386.336 183.322 386.701 182.904 386.701 182.069C386.701 181.077 386.388 180.92 384.615 180.815C383.468 180.815 381.33 180.972 379.922 181.233Z" fill="white"/>
<path d="M70.6649 313.647C69.5175 313.699 66.7014 314.064 64.4067 314.378C62.1121 314.691 59.5045 315.37 58.6701 315.892C57.8357 316.362 56.584 317.824 55.9582 319.077C55.3324 320.33 54.498 322.68 54.1851 324.246C53.82 326.021 53.7157 329.102 53.8722 332.339L54.1851 337.561C60.9126 344.348 65.0847 348.317 67.7965 350.718C70.5084 353.172 76.2972 357.819 80.5736 361.057C84.85 364.242 90.8474 368.419 93.8722 370.298C96.8969 372.178 103.207 375.729 107.953 378.183C112.699 380.637 120.104 384.083 124.381 385.858C128.657 387.581 135.124 389.983 138.722 391.132C142.321 392.333 148.527 394.056 152.542 394.995C156.558 395.988 163.39 397.345 167.666 398.076C171.943 398.807 178.201 399.643 181.486 399.904C184.772 400.217 193.22 400.478 200.261 400.478C207.614 400.478 216.167 400.112 220.339 399.695C224.355 399.277 230.456 398.442 233.898 397.867C237.34 397.293 242.764 396.196 245.893 395.413C249.022 394.682 255.02 393.064 259.192 391.758C263.364 390.453 270.3 387.999 274.576 386.276C278.853 384.501 285.789 381.42 289.961 379.331C294.133 377.243 299.974 374.006 302.999 372.178C306.023 370.403 311.082 367.061 314.211 364.868C317.392 362.675 322.19 359.073 324.902 356.88C327.614 354.687 331.578 351.397 333.664 349.57C335.697 347.69 337.366 346.071 337.262 345.967C337.21 345.81 335.124 345.132 332.568 344.401C330.065 343.617 326.832 342.469 325.424 341.738C323.963 341.007 321.982 339.649 320.939 338.709C319.896 337.822 318.696 336.307 318.227 335.472C317.653 334.323 317.34 331.347 317.132 324.612C316.975 319.547 316.714 315.37 316.558 315.37C316.402 315.37 315.098 316.571 313.585 318.085C312.125 319.599 308.944 322.523 306.545 324.559C304.198 326.596 299.87 329.99 297.001 332.13C294.133 334.219 289.439 337.456 286.571 339.284C283.703 341.111 277.132 344.714 271.969 347.22C266.806 349.779 259.505 352.964 255.802 354.269C252.099 355.626 244.485 357.872 238.957 359.281C232.907 360.848 225.606 362.258 220.443 362.936C212.986 363.928 210.274 363.981 197.653 363.772C189.778 363.615 181.434 363.197 179.139 362.884C176.845 362.571 171.421 361.631 167.145 360.743C162.816 359.856 156.61 358.289 153.325 357.297C150.039 356.305 145.085 354.687 142.373 353.695C139.661 352.65 133.194 349.779 128.031 347.22C122.868 344.714 115.828 340.85 112.386 338.605C108.944 336.412 103.416 332.548 100.182 330.094C96.8969 327.588 91.3689 322.784 87.9269 319.442L81.6166 313.333C74.7327 313.438 71.8122 313.542 70.6649 313.647Z" fill="#FFA0B6"/>
<path d="M192.751 381.838C192.803 384.448 192.855 386.955 192.908 387.32C192.908 387.633 193.533 387.947 194.263 387.947C195.463 387.947 195.567 387.79 195.515 385.493C195.463 384.083 195.463 382.36 195.515 381.577C195.567 380.585 195.932 379.958 196.715 379.645C197.497 379.332 198.175 379.384 198.592 379.801C198.957 380.115 199.27 381.525 199.27 382.986C199.322 384.448 199.479 386.067 199.635 386.641C199.844 387.216 200.522 387.738 201.147 387.842C202.295 387.947 202.347 387.79 202.243 384.448C202.243 382.464 202.295 380.689 202.451 380.376C202.608 380.115 203.338 379.749 204.068 379.593C204.954 379.436 205.58 379.593 205.789 380.115C205.998 380.532 206.258 381.055 206.363 381.316C206.415 381.525 206.519 383.091 206.519 384.814C206.519 387.79 206.571 387.947 207.823 387.947C209.127 387.947 209.127 387.895 209.022 383.665C208.97 379.854 208.814 379.175 207.719 378.183C207.093 377.504 205.893 376.982 205.059 376.982C204.277 376.982 203.181 377.295 202.608 377.713C201.721 378.339 201.408 378.339 200.522 377.713C199.948 377.295 198.957 376.982 198.331 376.982C197.705 376.982 196.715 377.4 196.089 377.922C195.046 378.757 194.994 378.757 195.046 377.922C195.046 377.295 194.646 376.982 193.846 376.982C192.699 376.982 192.699 377.139 192.751 381.838Z" fill="white"/>
<path d="M210.847 378.809C211.004 379.958 211.16 382.255 211.265 383.926C211.473 386.589 211.578 386.902 212.673 386.902C213.299 386.902 213.82 386.589 213.872 386.224C213.924 385.91 213.872 383.979 213.872 381.942C213.82 379.906 213.664 377.87 213.507 377.347C213.368 376.756 212.864 376.495 211.995 376.564C210.743 376.669 210.639 376.825 210.847 378.809Z" fill="white"/>
<path d="M180.965 376.199C180.965 376.199 180.808 378.131 180.704 380.533C180.443 384.449 180.548 384.918 181.643 386.015C182.477 386.903 183.259 387.216 184.615 387.059C185.606 387.007 186.754 386.642 187.171 386.276C187.797 385.754 187.849 385.754 187.588 386.224C187.327 386.694 187.692 387.007 188.631 387.216C189.465 387.372 190.143 387.425 190.143 387.32C190.195 387.216 190.352 384.866 190.561 382.047C190.873 377.086 190.821 376.982 189.674 376.669C189.048 376.512 188.475 376.46 188.422 376.564C188.37 376.669 188.162 378.131 187.953 379.854C187.797 381.577 187.432 383.404 187.171 383.926C186.91 384.396 186.232 384.814 185.658 384.814C185.085 384.814 184.25 384.449 183.833 384.031C183.207 383.404 183.103 382.412 183.312 379.593C183.572 375.938 183.572 375.938 182.269 376.042C181.538 376.147 180.965 376.199 180.965 376.199Z" fill="white"/>
<path d="M172.621 375.781C171.734 376.303 171.369 376.982 171.473 377.817C171.526 378.548 172.464 379.801 173.664 380.741C174.759 381.681 175.698 382.777 175.75 383.091C175.75 383.456 175.281 383.77 174.707 383.77C174.133 383.77 173.56 383.404 173.403 382.986C173.247 382.464 172.725 382.308 171.943 382.464C171.317 382.621 170.743 382.777 170.743 382.882C170.691 382.934 170.848 383.508 171.108 384.135C171.369 384.814 172.099 385.545 172.725 385.806C173.403 386.015 174.498 386.171 175.228 386.067C175.959 386.015 176.689 385.91 176.949 385.91C177.158 385.858 177.679 385.336 178.097 384.657C178.67 383.822 178.775 383.143 178.41 382.203C178.201 381.472 177.106 380.428 176.063 379.854C175.02 379.279 174.185 378.496 174.185 378.13C174.185 377.817 174.655 377.504 175.228 377.504C175.802 377.504 176.376 377.765 176.532 378.026C176.689 378.287 177.262 378.548 177.836 378.548C178.41 378.548 178.879 378.235 178.879 377.869C178.931 377.556 178.514 376.877 177.992 376.407C177.471 375.938 176.324 375.415 175.489 375.259C174.498 375.05 173.455 375.259 172.621 375.781Z" fill="white"/>
<path d="M231.29 374.11C230.456 374.527 229.413 375.415 228.996 376.042C228.631 376.72 228.318 378.078 228.37 379.07C228.37 380.062 228.839 381.472 229.361 382.203C229.882 382.934 231.03 383.821 231.864 384.239C233.168 384.813 233.689 384.813 235.41 384.239C236.506 383.821 237.861 382.934 238.435 382.203C239.009 381.42 239.426 380.062 239.374 378.913C239.374 377.556 238.957 376.512 237.966 375.415C237.027 374.423 235.828 373.744 234.68 373.588C233.637 373.431 232.177 373.64 231.29 374.11Z" fill="white"/>
<path d="M232.073 376.982C231.5 377.556 231.03 378.496 231.03 379.07C231.03 379.645 231.5 380.585 232.073 381.159C232.647 381.733 233.481 382.203 233.899 382.203C234.316 382.203 235.15 381.733 235.724 381.159C236.298 380.585 236.767 379.697 236.767 379.175C236.767 378.705 236.402 377.765 235.985 377.086C235.567 376.46 234.733 375.938 234.159 375.938C233.586 375.938 232.647 376.407 232.073 376.982Z" fill="#FFA0B6"/>
<path d="M210.587 374.006C210.743 374.841 211.108 375.102 212.047 375.05C212.933 374.945 213.298 374.58 213.298 373.849C213.298 373.066 212.933 372.805 211.838 372.805C210.587 372.805 210.378 372.961 210.587 374.006Z" fill="white"/>
<path d="M160.365 374.006C160.209 374.632 159.739 376.93 159.322 379.07C158.696 382.203 158.644 383.039 159.166 383.352C159.531 383.508 160.157 383.665 160.574 383.613C160.991 383.561 161.356 383.143 161.46 382.725C161.512 382.308 161.721 381.159 161.878 380.271C162.034 379.331 162.451 377.974 162.712 377.243C163.025 376.407 163.651 375.938 164.381 375.938C165.059 375.885 165.945 376.303 166.363 376.773C166.936 377.399 167.04 378.13 166.78 379.54C166.571 380.585 166.258 382.151 166.05 382.986C165.789 384.292 165.945 384.605 166.832 384.97C167.51 385.179 168.083 385.075 168.292 384.709C168.501 384.344 168.918 382.621 169.283 380.898C169.752 378.392 169.752 377.452 169.179 376.094C168.761 375.154 167.875 374.162 167.145 373.849C166.276 373.501 165.406 373.501 164.537 373.849C163.494 374.267 163.181 374.214 162.973 373.588C162.816 373.17 162.243 372.805 161.669 372.805C161.043 372.805 160.522 373.222 160.365 374.006Z" fill="white"/>
<path d="M223.364 374.267C223.572 376.146 223.52 376.93 223.207 376.46C222.894 375.938 221.99 375.711 220.495 375.781C218.67 375.833 217.992 376.146 216.845 377.504C215.697 378.914 215.489 379.592 215.645 381.629C215.802 383.3 216.219 384.396 217.053 385.179C217.731 385.806 218.983 386.432 219.817 386.589C220.86 386.798 221.956 386.537 223.103 385.858C223.99 385.284 224.772 385.075 224.772 385.336C224.772 385.597 225.345 385.858 226.076 385.858C227.275 385.858 227.379 385.701 227.119 383.665C227.014 382.412 226.701 380.115 226.545 378.548C226.336 376.982 226.128 375.207 226.076 374.632C226.023 374.058 225.919 373.066 225.867 372.439C225.815 371.499 225.502 371.238 224.459 371.238C223.103 371.238 223.051 371.29 223.364 374.267Z" fill="white"/>
<path d="M219.296 378.705C218.618 379.175 218.305 379.958 218.305 380.95C218.357 381.89 218.878 382.83 219.608 383.404C220.286 383.926 221.173 384.344 221.486 384.292C221.851 384.292 222.633 383.822 223.207 383.247C223.781 382.673 224.25 381.733 224.25 381.159C224.25 380.584 223.781 379.644 223.207 379.07C222.633 378.496 221.747 378.026 221.225 378.026C220.704 378.026 219.869 378.339 219.296 378.705Z" fill="#FFA0B6"/>
<path d="M244.276 371.604C243.442 372.387 242.712 372.7 242.659 372.387C242.555 372.021 242.034 371.76 241.46 371.76C240.834 371.76 240.261 372.073 240.104 372.387C239.948 372.752 240.208 374.58 240.678 376.459C241.147 378.339 241.773 380.532 242.138 381.315C242.607 382.412 243.025 382.673 243.807 382.412C244.38 382.203 244.902 382.046 244.954 381.994C245.006 381.994 244.746 380.741 244.328 379.331C243.963 377.869 243.807 376.146 243.963 375.52C244.172 374.841 244.85 373.953 245.528 373.535C246.154 373.118 246.675 372.335 246.727 371.812C246.779 371.238 246.571 370.664 246.258 370.507C245.997 370.35 245.058 370.82 244.276 371.604Z" fill="white"/>
<path d="M150.248 370.821C149.57 371.186 148.527 372.074 148.005 372.805C147.432 373.588 147.015 374.945 146.962 376.199C146.962 377.869 147.275 378.548 148.579 379.697C149.466 380.532 151.082 381.315 152.125 381.472C153.742 381.681 154.42 381.472 155.776 380.428C156.819 379.592 157.601 378.391 157.81 377.347C158.018 376.46 158.018 375.102 157.862 374.371C157.706 373.64 156.819 372.544 155.985 371.865C155.098 371.238 153.742 370.612 152.908 370.455C152.125 370.298 150.926 370.455 150.248 370.821Z" fill="white"/>
<path d="M150.665 374.006C149.778 374.893 149.622 375.52 149.883 376.721C150.091 377.608 150.508 378.444 150.873 378.653C151.239 378.861 152.021 379.07 152.699 379.07C153.325 379.07 154.211 378.548 154.628 377.922C155.046 377.243 155.411 376.303 155.411 375.833C155.411 375.311 154.941 374.423 154.368 373.849C153.794 373.275 152.96 372.805 152.542 372.805C152.125 372.805 151.239 373.327 150.665 374.006Z" fill="#FFA0B6"/>
<path d="M251.526 369.15C250.274 369.724 249.022 370.716 248.709 371.395C248.344 372.021 248.24 373.483 248.397 374.632C248.605 376.042 249.179 377.191 250.274 378.183C251.161 378.966 252.412 379.592 253.09 379.592C253.716 379.592 254.968 379.384 255.802 379.123C256.689 378.809 257.784 377.974 258.305 377.243C259.088 376.094 259.088 375.885 258.41 375.676C257.992 375.52 257.106 375.781 256.48 376.199C255.802 376.616 254.759 377.086 254.133 377.243C253.403 377.399 252.621 377.138 252.099 376.564C251.265 375.729 251.421 375.624 254.811 374.737C256.793 374.214 258.566 373.64 258.775 373.431C258.983 373.222 258.827 372.335 258.41 371.499C257.992 370.664 256.845 369.515 255.802 368.993C254.811 368.523 253.925 368.105 253.872 368.105C253.768 368.105 252.725 368.575 251.526 369.15Z" fill="white"/>
<path d="M251.629 371.656C251.108 372.178 250.691 372.909 250.743 373.223C250.795 373.588 250.899 373.849 250.951 373.849C251.056 373.849 252.255 373.484 253.715 373.014C256.166 372.178 256.271 372.074 255.28 371.395C254.706 371.03 253.872 370.716 253.402 370.716C252.933 370.716 252.151 371.134 251.629 371.656Z" fill="#FFA0B6"/>
<path d="M260.182 366.069C259.661 366.591 259.191 367.688 259.191 368.471C259.139 369.307 259.556 370.299 260.026 370.716C260.547 371.134 261.903 371.5 263.207 371.5C264.511 371.5 265.554 371.761 265.71 372.126C265.867 372.492 265.606 373.118 265.137 373.431C264.511 373.954 264.146 373.954 263.468 373.484C262.79 373.014 262.373 373.014 261.538 373.536C260.6 374.162 260.6 374.371 261.277 375.102C261.695 375.572 262.529 375.99 263.103 375.99C263.676 375.938 264.928 375.729 265.867 375.416C266.858 375.102 267.744 374.371 268.057 373.588C268.422 372.648 268.37 371.917 267.953 370.977C267.483 370.038 266.701 369.568 265.45 369.359C264.459 369.202 263.259 369.045 262.842 368.993C262.425 368.941 262.06 368.523 262.06 368.106C262.06 367.583 262.529 367.375 263.52 367.427C264.302 367.531 265.085 367.27 265.241 366.905C265.397 366.591 265.293 366.017 264.928 365.756C264.615 365.495 263.624 365.182 262.738 365.129C261.799 365.077 260.756 365.443 260.182 366.069Z" fill="white"/>
<path d="M136.793 364.19C135.854 364.921 134.707 366.226 134.29 367.061C133.872 367.897 133.507 369.359 133.507 370.194C133.507 371.03 133.925 372.596 134.446 373.692C134.915 374.737 135.906 376.042 136.636 376.564C137.367 377.086 138.879 377.661 140.026 377.817C141.278 378.026 142.582 377.87 143.416 377.452C144.146 377.086 144.772 376.669 144.876 376.616C144.928 376.512 144.668 375.99 144.355 375.468C143.833 374.632 143.468 374.528 142.634 374.998C142.06 375.311 140.808 375.363 139.922 375.207C138.879 374.998 137.836 374.319 137.21 373.484C136.689 372.648 136.271 371.291 136.324 370.351C136.376 369.254 136.897 368.158 137.836 367.218C138.931 366.069 139.713 365.756 141.226 365.86C142.477 365.913 143.573 366.435 144.459 367.27C145.189 368.001 146.284 368.628 146.962 368.628C147.588 368.628 148.11 368.471 148.11 368.21C148.11 368.001 147.536 367.061 146.91 366.069C146.284 365.077 144.981 363.929 144.094 363.563C143.155 363.198 141.486 362.884 140.443 362.884C139.14 362.884 137.888 363.354 136.793 364.19Z" fill="white"/>
<path d="M201.197 17.2625C201.187 16.615 201.217 15.001 201.191 13.6618L201.215 11.2433L202.53 11.2062C203.599 11.1745 203.904 11.2964 203.957 11.7378C204.014 12.0222 204.109 12.2575 204.192 12.2034C204.275 12.1492 204.91 11.8535 205.59 11.5529C206.416 11.1685 207.323 11.0881 208.217 11.2775C209.181 11.4814 209.802 11.8137 210.273 12.3867C210.709 12.8518 211.042 13.9548 211.2 15.279C211.338 16.4266 211.387 18.1434 211.316 19.0462C211.25 19.9931 211.214 21.0038 211.271 21.2882C211.283 21.5776 211.193 21.9457 211.071 22.049C210.905 22.1572 210.258 22.1635 208.421 21.9467L208.483 19.479C208.526 18.1544 208.507 16.5013 208.453 15.8588C208.393 15.1721 208.082 14.4468 207.737 14.1728C207.391 13.8988 206.717 13.6844 206.201 13.6757C205.686 13.667 205.007 13.9676 204.627 14.3462C204.112 14.8967 203.961 15.6966 203.959 18.2917C203.93 20.1068 203.845 21.6375 203.767 21.7358C203.645 21.8391 203.096 21.9237 202.493 21.9249C201.87 21.9508 201.305 21.9029 201.206 21.8247C201.083 21.7268 201.057 20.9469 201.103 20.0245C201.154 19.1464 201.183 17.8905 201.197 17.2625Z" fill="white"/>
</g>
<defs>
<clipPath id="clip0_447_3665">
<rect width="400" height="401" fill="white"/>
</clipPath>
</defs>
</svg>
