<svg width="203" height="88" viewBox="0 0 203 88" fill="none" xmlns="http://www.w3.org/2000/svg">
<g clip-path="url(#clip0_526_5009)">
<path d="M41.3443 15.3491C41.3902 15.3655 46.7554 19.4112 53.2945 24.3511C59.8423 29.2976 65.2512 33.3925 65.3219 33.4565C65.3852 33.5151 65.4782 33.652 65.5269 33.7593C65.5998 33.915 65.6049 33.993 65.5709 34.1343C65.5368 34.2611 65.4436 34.3884 65.2877 34.5249C65.1559 34.642 64.8346 34.8563 64.567 35.0073C64.3025 35.1591 59.042 37.6119 52.8805 40.4546C46.7192 43.2971 41.5947 45.6618 41.3101 45.8042V55.3726C41.3101 60.6395 41.3248 64.9556 41.3443 64.9604C41.3721 64.9687 42.0966 64.6818 42.9664 64.3267C43.8383 63.9658 45.6698 63.2097 47.0338 62.644C48.3977 62.0784 50.5513 61.1472 51.8082 60.5669C53.065 59.9914 54.58 59.3029 55.1695 59.0347C55.759 58.7665 56.5238 58.4202 56.8746 58.2593C57.2253 58.1032 57.7179 57.8499 57.9713 57.6987C58.2246 57.5475 58.6194 57.2746 58.8482 57.0991C59.0722 56.9236 59.3641 56.6458 59.5006 56.4849C59.6321 56.3239 59.8123 56.0354 59.9049 55.8501C60.0265 55.5967 60.0758 55.421 60.0904 55.1675C60.1051 54.9767 60.1481 54.2452 60.1871 53.5337C60.2309 52.8219 60.2603 52.2368 60.2506 52.2368C60.2273 52.2383 58.9905 52.8012 57.484 53.4946C55.9689 54.1871 54.7164 54.7485 54.7017 54.7437C54.6778 54.7275 53.2103 53.7255 51.4283 52.5103C49.6483 51.2931 48.2039 50.2802 48.2183 50.2573C48.245 50.2394 51.7541 48.621 56.0221 46.6675C60.2931 44.7077 63.9461 43.06 64.1334 43.0054C64.3184 42.9469 64.6397 42.8833 64.8394 42.8589C65.0587 42.8296 65.3174 42.8296 65.483 42.8589C65.6389 42.8833 65.8485 42.942 65.9459 42.9956C66.0481 43.0444 66.2039 43.1706 66.2916 43.2729C66.3744 43.3753 66.486 43.5612 66.5347 43.6831C66.6127 43.8879 66.6178 44.3707 66.6324 50.7788C66.6421 55.6653 66.6323 57.7772 66.5933 58.0698C66.5592 58.2991 66.4818 58.6943 66.4185 58.9478C66.3503 59.2013 66.1994 59.6396 66.0826 59.9224C65.9608 60.2052 65.7316 60.6443 65.566 60.8979C65.4004 61.1515 65.132 61.5027 64.9664 61.6733C64.8058 61.8438 64.5482 62.063 64.4019 62.1655C64.2558 62.2631 59.0135 64.6681 52.7584 67.5063C46.5062 70.3384 41.354 72.6486 41.3101 72.6362C41.2712 72.6216 39.7367 71.534 34.5631 67.8179L34.5142 41.1372L31.4107 39.021C29.7093 37.8612 28.2924 36.9141 28.2545 36.9048C28.2204 36.9048 28.2007 41.4158 28.1812 63.7173L21.8238 59.4106V32.4907L18.5982 30.2964C16.8299 29.087 15.3344 28.0678 15.2808 28.0288C15.1932 27.9605 15.4127 27.8432 21.5308 24.8589L31.3814 31.5249C36.8035 35.1874 41.2712 38.1968 41.3101 38.2065C41.3507 38.2155 42.0954 37.894 42.9664 37.4849C43.8355 37.0814 44.5595 36.736 44.5836 36.7192C44.6031 36.6997 43.9704 36.1334 43.1715 35.4653C42.3774 34.7923 41.6317 34.1583 41.3053 33.856L41.3101 30.1841C41.3101 28.17 41.3248 26.5073 41.3443 26.4976C41.3766 26.494 43.5271 28.1151 46.1334 30.1108C48.7445 32.1102 50.9167 33.7544 50.9556 33.769C50.9947 33.7836 51.7351 33.4658 52.5972 33.0708C53.4644 32.6709 54.1715 32.3345 54.1666 32.3198C54.1541 32.296 51.2561 30.1386 41.3346 22.7808L41.3199 19.0649C41.315 17.0217 41.3248 15.3491 41.3443 15.3491ZM137.013 31.8862C137.12 31.8863 137.271 31.9254 137.354 31.9741C137.432 32.0229 137.529 32.1296 137.563 32.2026C137.612 32.3148 137.622 35.1828 137.607 46.6333C137.597 60.2272 137.592 60.9465 137.504 61.4585C137.456 61.756 137.344 62.2783 137.256 62.6294C137.169 62.9754 137.018 63.4822 136.916 63.7505C136.813 64.0186 136.638 64.4236 136.526 64.6528C136.414 64.882 136.165 65.2967 135.975 65.5796C135.79 65.8624 135.474 66.2771 135.274 66.5063C135.074 66.7356 134.767 67.0427 134.596 67.1938C134.426 67.34 134.154 67.5641 133.993 67.686C133.832 67.808 133.524 68.0182 133.31 68.1499C133.096 68.2865 132.711 68.5007 132.458 68.6274C132.204 68.7542 131.752 68.9547 131.46 69.0669C131.162 69.1839 130.636 69.3541 130.29 69.4468C129.939 69.5443 129.413 69.6715 129.121 69.7251C128.824 69.7787 128.312 69.8619 127.976 69.9009C127.64 69.9399 126.919 69.9888 126.369 70.0034C125.789 70.018 125.024 70.0083 124.542 69.9741C124.084 69.9449 123.406 69.8715 123.031 69.8179C122.656 69.7642 122.105 69.6664 121.813 69.5981C121.516 69.5347 121.078 69.4076 120.839 69.3296C120.596 69.2467 120.211 69.0811 119.548 68.7495V63.4829L119.875 63.6538C120.06 63.7465 120.44 63.902 120.727 63.9946C121.019 64.0873 121.521 64.2193 121.847 64.2827C122.179 64.351 122.788 64.439 123.202 64.4829C123.762 64.5463 124.215 64.56 124.956 64.5405C125.652 64.5259 126.125 64.4877 126.514 64.4194C126.821 64.3609 127.27 64.2582 127.513 64.1899C127.752 64.1217 128.171 63.9554 128.439 63.8286C128.707 63.7018 129.067 63.5022 129.243 63.3853C129.418 63.2683 129.715 63.0197 129.9 62.8296C130.09 62.6394 130.329 62.3509 130.436 62.1899C130.538 62.029 130.689 61.7414 130.767 61.5562C130.85 61.3659 130.953 61.0148 131.002 60.7759C131.07 60.4541 131.093 60.1223 131.093 58.7524H130.972C130.88 58.7524 130.811 58.8104 130.684 59.0054C130.592 59.1468 130.358 59.4206 130.159 59.606C129.964 59.7961 129.594 60.0886 129.34 60.2593C129.087 60.43 128.745 60.6344 128.585 60.7124C128.424 60.7953 128.107 60.9372 127.878 61.0298C127.65 61.1224 127.265 61.2496 127.026 61.313C126.782 61.3813 126.402 61.4683 126.173 61.5122C125.935 61.5561 125.36 61.6001 124.809 61.6147C124.22 61.6342 123.675 61.6196 123.373 61.5854C123.105 61.5513 122.666 61.4828 122.398 61.4292C122.13 61.3707 121.614 61.2298 121.253 61.1128C120.893 60.9909 120.333 60.7659 120.011 60.6099C119.69 60.4587 119.241 60.2103 119.012 60.0688C118.783 59.9274 118.389 59.6497 118.135 59.4546C117.882 59.2644 117.448 58.8742 117.175 58.5962C116.898 58.3231 116.562 57.9524 116.42 57.7769C116.284 57.6013 116.021 57.2306 115.836 56.9478C115.65 56.6649 115.373 56.1719 115.212 55.8501C115.057 55.5282 114.842 55.0264 114.735 54.729C114.628 54.4315 114.472 53.919 114.394 53.5825C114.311 53.2461 114.208 52.7638 114.17 52.5103C114.131 52.2567 114.073 51.7833 114.044 51.4614C114.019 51.1397 113.995 50.5889 113.995 50.2427C113.995 49.8915 114.019 49.3448 114.044 49.0229C114.073 48.7012 114.14 48.1651 114.194 47.8286C114.252 47.4921 114.375 46.9454 114.462 46.6089C114.555 46.2724 114.73 45.7461 114.852 45.439C114.974 45.1317 115.188 44.6584 115.33 44.3901C115.471 44.1219 115.719 43.7023 115.879 43.4634C116.04 43.2244 116.313 42.8489 116.484 42.6343C116.655 42.4197 116.981 42.0587 117.21 41.8296C117.439 41.6004 117.814 41.2688 118.038 41.0933C118.267 40.9129 118.637 40.6497 118.866 40.4985C119.095 40.3523 119.519 40.1087 119.816 39.9624C120.108 39.8112 120.562 39.6107 120.815 39.5132C121.068 39.4157 121.516 39.2748 121.813 39.1968C122.105 39.1188 122.534 39.021 122.763 38.9819C122.992 38.938 123.475 38.8842 123.836 38.855C124.269 38.8258 124.717 38.8258 125.16 38.855C125.53 38.8842 126.067 38.9478 126.354 39.0063C126.646 39.06 127.109 39.1823 127.391 39.2749C127.674 39.3676 128.122 39.5475 128.39 39.6792C128.658 39.806 129.072 40.0398 129.311 40.2007C129.555 40.3568 129.915 40.6453 130.115 40.8354C130.319 41.0256 130.572 41.3084 130.679 41.4595C130.82 41.6593 130.904 41.7367 131.093 41.7319V38.6108L133.837 35.3052C135.344 33.4889 136.629 31.9736 136.696 31.9399C136.764 31.9107 136.906 31.8862 137.013 31.8862ZM146.527 23.3472C146.658 23.3472 146.741 23.3809 146.951 23.6001L146.961 32.6665C146.97 37.6277 146.99 41.6947 147.009 41.7319C147.034 41.7319 147.136 41.6105 147.243 41.4595C147.35 41.3083 147.569 41.0589 147.73 40.9077C147.891 40.7565 148.164 40.5325 148.339 40.4106C148.515 40.2839 148.841 40.0745 149.07 39.9478C149.299 39.8161 149.713 39.6156 149.996 39.5034C150.278 39.3913 150.717 39.2455 150.97 39.1724C151.224 39.1041 151.628 39.016 151.872 38.9722C152.111 38.9332 152.592 38.8794 152.943 38.8599C153.289 38.8404 153.878 38.8404 154.244 38.8647C154.614 38.8843 155.208 38.9625 155.559 39.0308C155.915 39.099 156.46 39.2399 156.767 39.3423C157.074 39.4447 157.557 39.6305 157.839 39.7524C158.122 39.8793 158.579 40.118 158.857 40.2837C159.135 40.4495 159.583 40.7517 159.856 40.9565C160.124 41.1614 160.548 41.5271 160.787 41.7612C161.03 42.0001 161.361 42.3611 161.522 42.561C161.688 42.7609 161.97 43.1463 162.15 43.4146C162.33 43.6828 162.638 44.2295 162.833 44.6343C163.032 45.034 163.265 45.5946 163.363 45.8774C163.455 46.1603 163.602 46.663 163.68 46.9995C163.763 47.3359 163.86 47.8476 163.904 48.145C163.948 48.4425 164.002 49.0332 164.021 49.4624C164.045 49.8916 164.045 50.5939 164.021 51.0229C164.002 51.4521 163.948 52.042 163.904 52.3394C163.86 52.6367 163.763 53.1484 163.68 53.4849C163.602 53.8214 163.455 54.3241 163.363 54.6069C163.265 54.8897 163.032 55.4454 162.833 55.8501C162.638 56.25 162.33 56.8016 162.15 57.0698C161.97 57.338 161.688 57.7234 161.522 57.9233C161.361 58.1233 161.049 58.4597 160.835 58.6694C160.62 58.884 160.279 59.1912 160.08 59.3521C159.88 59.513 159.505 59.781 159.252 59.9517C158.998 60.1175 158.569 60.3669 158.301 60.5034C158.033 60.6448 157.586 60.8444 157.303 60.9517C157.021 61.0589 156.504 61.2252 156.158 61.313C155.807 61.4056 155.261 61.5123 154.94 61.5562C154.477 61.6244 154.131 61.6342 153.284 61.6147C152.383 61.5952 152.115 61.5707 151.613 61.4634C151.287 61.3951 150.785 61.2591 150.493 61.1616C150.205 61.069 149.752 60.8831 149.484 60.7515C149.216 60.6198 148.807 60.386 148.573 60.23C148.339 60.0739 147.993 59.8059 147.798 59.6304C147.604 59.4548 147.355 59.1858 147.248 59.0298C147.136 58.8788 147.034 58.7524 147.009 58.7524C146.99 58.7525 146.975 59.3135 146.975 61.2397H140.399L140.394 30.0522L143.249 26.8091C144.821 25.0253 146.156 23.5196 146.225 23.4546C146.303 23.3863 146.41 23.3472 146.527 23.3472ZM176.594 38.5474C176.93 38.562 177.433 38.6011 177.715 38.6401C177.998 38.6792 178.465 38.777 178.762 38.8501C179.055 38.9281 179.518 39.0748 179.786 39.1724C180.054 39.2699 180.492 39.4646 180.76 39.6011C181.028 39.7424 181.432 39.9763 181.661 40.1274C181.89 40.2737 182.251 40.5378 182.465 40.7085C182.68 40.8792 183.006 41.162 183.191 41.3374C183.371 41.513 183.693 41.8544 183.902 42.0981C184.107 42.3371 184.419 42.7371 184.594 42.9761C184.77 43.2151 185.071 43.6788 185.261 44.0005C185.456 44.3224 185.763 44.8927 185.948 45.2681C186.128 45.6435 186.387 46.2333 186.523 46.5845C186.654 46.9299 186.78 47.2611 186.795 47.3159C186.82 47.4037 186.09 47.7848 179.893 50.9351C176.092 52.8669 172.979 54.4684 172.965 54.5044C172.965 54.5337 173.131 54.6804 173.331 54.8364C173.53 54.9876 173.915 55.2165 174.183 55.3433C174.451 55.4749 174.846 55.6265 175.06 55.6802C175.275 55.7338 175.664 55.8023 175.922 55.8267C176.234 55.8608 176.566 55.8608 176.873 55.8267C177.136 55.8023 177.516 55.7485 177.715 55.7046C177.915 55.6607 178.3 55.5531 178.568 55.4653C178.836 55.3727 179.264 55.2015 179.517 55.0845C179.77 54.9675 180.19 54.7483 180.443 54.5972C180.696 54.446 181.086 54.1927 181.305 54.0269C181.529 53.866 181.865 53.5833 182.055 53.3979C182.245 53.2175 182.538 52.9045 182.709 52.7046C182.874 52.5046 183.099 52.2072 183.206 52.0464C183.313 51.8854 183.483 51.5978 183.586 51.4126C183.687 51.2248 183.778 51.0702 183.79 51.0571C183.799 51.0523 184.696 51.3594 185.788 51.7397C186.884 52.1201 187.785 52.437 187.799 52.4468C187.814 52.4572 187.794 52.593 187.755 52.7437C187.721 52.8947 187.615 53.2509 187.522 53.5337C187.43 53.8165 187.22 54.3193 187.059 54.6558C186.903 54.9923 186.625 55.4852 186.45 55.7534C186.275 56.0215 185.987 56.4256 185.807 56.6548C185.632 56.8839 185.247 57.3134 184.95 57.6108C184.658 57.9034 184.229 58.2936 184 58.479C183.771 58.6594 183.366 58.9568 183.098 59.1372C182.83 59.3176 182.382 59.5964 182.099 59.7524C181.817 59.9085 181.354 60.1472 181.062 60.2739C180.775 60.4007 180.263 60.6051 179.918 60.7222C179.577 60.8392 179.055 60.9908 178.762 61.0591C178.465 61.1322 178.008 61.2251 177.74 61.2642C177.472 61.308 176.848 61.356 176.351 61.3706C175.791 61.3901 175.235 61.3764 174.889 61.3423C174.582 61.3081 174.061 61.2299 173.73 61.1665C173.404 61.0982 172.868 60.9564 172.537 60.8442C172.21 60.737 171.68 60.5227 171.358 60.3667C171.036 60.2106 170.588 59.971 170.359 59.8296C170.13 59.6881 169.735 59.4152 169.482 59.2251C169.229 59.03 168.757 58.6104 168.435 58.2886C168.114 57.9667 167.65 57.4405 167.407 57.1187C167.168 56.7968 166.818 56.2794 166.632 55.9722C166.447 55.6649 166.159 55.124 165.994 54.7778C165.828 54.4267 165.595 53.8702 165.473 53.5337C165.351 53.1972 165.185 52.6514 165.102 52.3149C165.019 51.9784 164.917 51.4855 164.878 51.2173C164.835 50.9489 164.791 50.3689 164.771 49.9253C164.756 49.4329 164.766 48.9112 164.8 48.5845C164.834 48.287 164.913 47.7794 164.976 47.4478C165.044 47.1211 165.185 46.585 165.297 46.2534C165.405 45.9267 165.644 45.3506 165.829 44.9751C166.009 44.5997 166.315 44.0636 166.501 43.7808C166.691 43.4979 166.993 43.0832 167.178 42.854C167.359 42.6296 167.709 42.2442 167.948 42.0005C168.191 41.7615 168.576 41.4104 168.8 41.23C169.029 41.0447 169.453 40.7326 169.75 40.5376C170.042 40.3426 170.495 40.0697 170.749 39.9331C171.002 39.8014 171.45 39.5863 171.748 39.4644C172.04 39.3425 172.522 39.1625 172.819 39.0698C173.111 38.9772 173.609 38.85 173.916 38.7866C174.222 38.7184 174.695 38.645 174.962 38.6157C175.23 38.5865 175.571 38.5523 175.717 38.5425C175.863 38.5327 176.258 38.5376 176.594 38.5474ZM101.338 38.4751C101.738 38.4702 102.274 38.4888 102.532 38.5181C102.795 38.5425 103.228 38.6109 103.496 38.6646C103.764 38.7182 104.266 38.8551 104.617 38.9722C104.963 39.0892 105.479 39.2937 105.761 39.4302C106.044 39.5667 106.57 39.8739 106.93 40.1128C107.291 40.3566 107.818 40.7567 108.1 41.0054C108.378 41.259 108.782 41.659 108.992 41.9028C109.201 42.1418 109.537 42.5614 109.732 42.8296C109.927 43.0978 110.248 43.581 110.443 43.9028C110.638 44.2247 110.944 44.795 111.125 45.1704C111.305 45.5458 111.578 46.1699 111.729 46.5601C111.88 46.9495 111.991 47.2856 111.982 47.3159C111.972 47.3452 108.845 48.9453 105.041 50.8765C101.239 52.8034 98.1313 54.3951 98.1129 54.4214C98.1129 54.4458 98.2931 54.5974 98.5123 54.7583C98.7363 54.9241 99.1115 55.1529 99.3551 55.27C99.5938 55.3871 100.013 55.5435 100.281 55.6118C100.705 55.7288 100.865 55.7437 101.547 55.7485C102.122 55.7485 102.444 55.7289 102.765 55.6606C103.004 55.6119 103.433 55.4994 103.715 55.4067C103.998 55.3141 104.534 55.0901 104.909 54.9048C105.284 54.7195 105.785 54.4359 106.029 54.2798C106.268 54.1189 106.662 53.8264 106.906 53.6265C107.145 53.4265 107.515 53.0656 107.729 52.8267C107.939 52.5828 108.241 52.1877 108.402 51.9487C108.563 51.7098 108.758 51.3835 108.977 50.9497L109.181 51.0278C109.298 51.0669 110.199 51.3887 111.193 51.7349C112.182 52.086 113.001 52.3735 113.005 52.3784C113.005 52.3855 112.961 52.5892 112.898 52.8267C112.84 53.0656 112.703 53.4852 112.606 53.7534C112.504 54.0216 112.309 54.4706 112.168 54.7534C112.026 55.0361 111.734 55.5283 111.52 55.8501C111.306 56.1719 110.926 56.6747 110.668 56.9722C110.414 57.2695 110.034 57.6647 109.825 57.855C109.611 58.0451 109.23 58.3621 108.977 58.562C108.724 58.7618 108.339 59.0347 108.125 59.1714C107.91 59.3128 107.491 59.5573 107.199 59.7231C106.902 59.889 106.443 60.1178 106.175 60.2349C105.907 60.3519 105.459 60.527 105.176 60.6245C104.894 60.7269 104.412 60.8688 104.105 60.9468C103.798 61.0199 103.335 61.1177 103.082 61.1616C102.828 61.2055 102.312 61.2642 101.937 61.2886C101.562 61.3178 101.012 61.3276 100.719 61.313C100.422 61.2984 99.9306 61.2495 99.6236 61.2104C99.3167 61.1666 98.7654 61.059 98.4049 60.9663C98.0444 60.8736 97.4939 60.6976 97.1871 60.5757C96.8803 60.4538 96.4424 60.2542 96.2135 60.1323C95.9845 60.0104 95.5556 59.7522 95.2633 59.5571C94.9661 59.3621 94.5176 59.0256 94.2642 58.8159C94.0109 58.6013 93.6163 58.2307 93.3922 57.9917C93.1681 57.7527 92.8077 57.3185 92.5836 57.021C92.3644 56.7235 92.0725 56.3088 91.941 56.0942C91.8095 55.8797 91.5852 55.4943 91.4488 55.2407C91.3124 54.9871 91.1126 54.5675 91.0006 54.314C90.8885 54.0603 90.7034 53.578 90.5865 53.2417C90.4745 52.9052 90.3334 52.422 90.2701 52.1685C90.2116 51.9149 90.1333 51.5295 90.0943 51.3149C90.0602 51.1003 90.0015 50.5936 89.9722 50.1938C89.9333 49.6525 89.9333 49.2811 89.9722 48.7544C90.0015 48.3642 90.0847 47.7744 90.1529 47.438C90.2211 47.1015 90.372 46.5312 90.4937 46.1704C90.6107 45.8095 90.8496 45.2237 91.025 44.8774C91.1955 44.5264 91.4923 44.0001 91.692 43.7075C91.8868 43.41 92.1894 42.9953 92.3599 42.7808C92.5354 42.5661 92.9105 42.1612 93.193 41.8784C93.4755 41.5956 93.928 41.2004 94.1959 40.9956C94.4589 40.7908 94.8634 40.5033 95.0924 40.3569C95.3212 40.2107 95.6915 39.9916 95.9205 39.8647C96.1495 39.7428 96.5637 39.5423 96.8463 39.4253C97.1288 39.3083 97.6067 39.1283 97.9039 39.0308C98.2058 38.9333 98.6339 38.811 98.8531 38.7622C99.0772 38.7086 99.4866 38.6352 99.7691 38.5913C100.052 38.5474 100.359 38.5093 100.452 38.4995C100.545 38.4898 100.944 38.4751 101.338 38.4751ZM93.5826 30.8081V36.9048H86.6646V60.8003H79.9908L79.9664 36.9292L73.0728 36.9048V30.8081H93.5826ZM152.385 44.6821C152.05 44.6724 151.723 44.6725 151.654 44.687C151.586 44.6968 151.376 44.731 151.191 44.7603C151.006 44.7895 150.675 44.8727 150.461 44.936C150.246 45.0043 149.861 45.1657 149.608 45.2974C149.355 45.4241 148.96 45.6824 148.731 45.8628C148.502 46.048 148.166 46.3797 147.986 46.6089C147.781 46.8623 147.552 47.2286 147.386 47.5601C147.245 47.8572 147.07 48.3054 147.006 48.5591C146.938 48.8123 146.861 49.2077 146.832 49.437C146.807 49.6659 146.783 50.0172 146.783 50.2173C146.783 50.417 146.807 50.7683 146.832 50.9976C146.856 51.2266 146.933 51.6317 147.002 51.8999C147.075 52.1924 147.23 52.6025 147.386 52.9243C147.552 53.2559 147.781 53.617 147.986 53.8706C148.166 54.0998 148.502 54.4363 148.731 54.6167C148.96 54.802 149.33 55.0504 149.559 55.1675C149.788 55.2845 150.173 55.4459 150.412 55.5288C150.65 55.6068 151.079 55.7086 151.362 55.7476C151.644 55.7914 152.02 55.8257 152.205 55.8257C152.385 55.8256 152.701 55.8012 152.911 55.772C153.115 55.7427 153.462 55.6791 153.676 55.6255C153.891 55.5716 154.295 55.4161 154.577 55.2847C154.859 55.1482 155.229 54.9388 155.405 54.812C155.58 54.6851 155.883 54.4161 156.083 54.2163C156.277 54.0163 156.536 53.7091 156.653 53.5337C156.765 53.358 156.935 53.0507 157.028 52.8511C157.12 52.6511 157.247 52.3438 157.3 52.1685C157.359 51.9928 157.442 51.666 157.486 51.437C157.544 51.1542 157.568 50.7729 157.568 50.2417C157.568 49.701 157.544 49.3349 157.491 49.0474C157.442 48.8182 157.349 48.4572 157.276 48.2427C157.203 48.0283 157.081 47.721 157.003 47.5601C156.921 47.3993 156.76 47.1262 156.648 46.9507C156.531 46.7751 156.277 46.467 156.083 46.2671C155.883 46.0623 155.58 45.7943 155.405 45.6724C155.229 45.5456 154.913 45.3606 154.699 45.2534C154.485 45.1462 154.173 45.0093 154.007 44.9556C153.837 44.8971 153.539 44.8188 153.349 44.7749C153.154 44.7311 152.721 44.6919 152.385 44.6821ZM126.005 44.6821C125.655 44.6724 125.241 44.6822 125.08 44.7065C124.919 44.7358 124.611 44.7994 124.397 44.853C124.183 44.9067 123.822 45.0339 123.593 45.1362C123.365 45.2386 123.014 45.4285 122.814 45.5601C122.614 45.6916 122.259 45.9843 122.03 46.2134C121.796 46.4422 121.51 46.7886 121.392 46.9741C121.271 47.1641 121.114 47.4331 121.041 47.5747C120.972 47.7113 120.851 48.0186 120.768 48.2573C120.69 48.4913 120.593 48.8914 120.554 49.145C120.51 49.3985 120.476 49.8956 120.476 50.2417C120.476 50.6073 120.51 51.0711 120.554 51.3394C120.598 51.5928 120.685 51.9685 120.753 52.1685C120.817 52.3683 120.953 52.7098 121.055 52.9243C121.158 53.1388 121.377 53.49 121.538 53.7046C121.694 53.9192 121.967 54.2263 122.137 54.3823C122.308 54.5382 122.58 54.7574 122.741 54.8647C122.902 54.9769 123.199 55.1481 123.399 55.2456C123.599 55.3431 123.94 55.4801 124.154 55.5483C124.368 55.6165 124.685 55.6987 124.86 55.7329C125.035 55.767 125.474 55.7964 125.835 55.7964C126.195 55.7964 126.658 55.767 126.858 55.7329C127.058 55.6987 127.399 55.6165 127.613 55.5483C127.827 55.48 128.212 55.3186 128.465 55.187C128.719 55.0601 129.104 54.8117 129.318 54.6411C129.532 54.4704 129.81 54.2111 129.931 54.0649C130.053 53.9185 130.263 53.6357 130.394 53.436C130.521 53.236 130.701 52.8946 130.794 52.6802C130.881 52.4656 130.994 52.1388 131.047 51.9487C131.096 51.7632 131.164 51.4218 131.193 51.1929C131.232 50.9198 131.247 50.5003 131.227 49.9741C131.213 49.5061 131.169 49.0177 131.121 48.8032C131.077 48.6032 130.969 48.252 130.886 48.0229C130.799 47.7937 130.638 47.4425 130.521 47.2427C130.409 47.0427 130.18 46.716 130.009 46.5161C129.844 46.3162 129.532 46.009 129.313 45.8335C129.094 45.658 128.714 45.4096 128.461 45.2827C128.207 45.156 127.871 45.0093 127.711 44.9556C127.55 44.9068 127.242 44.8237 127.028 44.7798C126.814 44.7359 126.356 44.6871 126.005 44.6821ZM176.183 44.0972C175.833 44.0874 175.419 44.0973 175.257 44.1265C175.097 44.1508 174.799 44.2193 174.599 44.2729C174.4 44.3315 174.034 44.4636 173.795 44.5708C173.557 44.6732 173.147 44.8973 172.894 45.0679C172.641 45.2385 172.246 45.5604 172.022 45.7847C171.798 46.0088 171.501 46.3699 171.355 46.5845C171.214 46.7989 171.014 47.1746 170.917 47.4136C170.819 47.6524 170.693 48.0623 170.644 48.3159C170.566 48.696 170.551 48.9012 170.571 49.437C170.585 49.7967 170.61 50.1425 170.625 50.2075C170.639 50.2656 170.668 50.3142 170.687 50.3149C170.729 50.3059 172.71 49.3098 175.111 48.0913C177.522 46.8673 179.515 45.8481 179.545 45.8286C179.571 45.8023 179.44 45.6313 179.203 45.3989C178.988 45.1844 178.647 44.9065 178.448 44.7749C178.248 44.6483 177.951 44.4878 177.791 44.4243C177.63 44.3561 177.342 44.2631 177.157 44.2095C176.933 44.1462 176.602 44.1118 176.183 44.0972ZM100.868 44.0044C100.785 44.0141 100.556 44.0484 100.356 44.0776C100.156 44.1069 99.8057 44.195 99.5767 44.2681C99.348 44.3411 98.9776 44.4967 98.7486 44.6089C98.5199 44.7258 98.2123 44.8971 98.066 44.9995C97.92 45.097 97.6573 45.3016 97.482 45.4478C97.3068 45.594 97.0139 45.8973 96.8336 46.1265C96.6244 46.3798 96.4005 46.7406 96.2398 47.0718C96.0841 47.3836 95.9332 47.7839 95.8746 48.0229C95.821 48.252 95.7623 48.6228 95.7476 48.8521C95.7282 49.0811 95.738 49.4911 95.7721 49.769C95.8013 50.0421 95.8356 50.2661 95.8502 50.2661C95.8994 50.2484 97.8833 49.2458 100.297 48.0181C102.728 46.7844 104.726 45.7651 104.741 45.7554C104.753 45.7385 104.676 45.6267 104.57 45.5015C104.463 45.3746 104.219 45.1457 104.034 44.9897C103.844 44.8337 103.478 44.5999 103.206 44.4683C102.938 44.3367 102.587 44.1948 102.426 44.1509C102.266 44.1119 101.934 44.0532 101.696 44.0239C101.458 43.9996 101.204 43.9801 101.135 43.9849C101.067 43.9849 100.95 43.9995 100.868 44.0044Z" fill="white"/>
</g>
<defs>
<clipPath id="clip0_526_5009">
<rect width="203" height="88" fill="white"/>
</clipPath>
</defs>
</svg>
